M48
; DRILL file {KiCad 9.0.1+1} date 2026-03-05T22:01:09+0000
; FORMAT={-:-/ absolute / metric / decimal}
; #@! TF.CreationDate,2026-03-05T22:01:09+00:00
; #@! TF.GenerationSoftware,Kicad,Pcbnew,9.0.1+1
; #@! TF.FileFunction,MixedPlating,1,2
FMAT,2
METRIC
; #@! TA.AperFunction,Plated,PTH,ViaDrill
T1C0.300
; #@! TA.AperFunction,Plated,PTH,ViaDrill
T2C0.400
; #@! TA.AperFunction,Plated,PTH,ComponentDrill
T3C0.800
; #@! TA.AperFunction,Plated,PTH,ComponentDrill
T4C0.900
; #@! TA.AperFunction,Plated,PTH,ComponentDrill
T5C0.914
; #@! TA.AperFunction,Plated,PTH,ComponentDrill
T6C1.000
%
G90
G05
T1
X122.468Y-82.505
X124.27Y-93.107
X125.845Y-91.582
X126.32Y-101.057
X127.41Y-109.403
X127.909Y-92.391
X127.914Y-87.376
X128.745Y-86.682
X128.995Y-74.357
X129.063Y-108.7
X130.039Y-103.682
X130.039Y-108.707
X130.77Y-100.882
X131.439Y-108.707
X131.47Y-104.632
X131.645Y-113.707
X131.895Y-77.257
X132.17Y-100.907
X132.92Y-112.932
X133.145Y-102.805
X134.339Y-68.811
X135.183Y-101.895
X136.383Y-113.672
X137.12Y-112.916
X137.17Y-78.882
X137.659Y-104.832
X137.67Y-69.282
X138.825Y-113.71
X138.921Y-112.915
X139.07Y-103.682
X139.195Y-111.407
X139.392Y-102.805
X140.23Y-101.967
X140.895Y-107.232
X140.9Y-109.032
X141.4Y-101.944
X141.4Y-104.857
X141.87Y-113.707
X142.8Y-101.937
X142.8Y-104.882
X143.375Y-106.428
X143.443Y-114.408
X144.47Y-108.307
X144.994Y-115.109
X145.61Y-113.708
X146.17Y-104.907
X146.17Y-106.707
X146.271Y-114.407
X147.009Y-115.13
X147.145Y-98.407
X147.145Y-99.807
X147.145Y-104.907
X147.145Y-106.707
T2
X119.345Y-52.932
X119.345Y-55.932
X119.345Y-58.932
X119.345Y-61.932
X119.345Y-67.932
X119.345Y-97.932
X119.345Y-100.932
X119.345Y-103.932
X119.345Y-106.932
X119.345Y-109.932
X119.345Y-112.932
X119.345Y-115.932
X119.345Y-118.932
X119.345Y-121.932
X119.345Y-124.932
X119.345Y-127.932
X119.345Y-130.932
X119.345Y-133.932
X122.345Y-61.932
X122.345Y-91.932
X122.345Y-94.932
X122.345Y-100.932
X122.345Y-103.932
X125.345Y-61.932
X128.345Y-55.932
X128.345Y-64.932
X128.345Y-67.932
X128.345Y-70.932
X128.345Y-79.932
X128.345Y-82.932
X128.345Y-103.932
X128.345Y-124.932
X128.345Y-127.932
X128.345Y-130.932
X128.345Y-133.932
X131.345Y-64.932
X131.345Y-67.932
X131.345Y-70.932
X131.345Y-79.932
X131.345Y-82.932
X131.345Y-88.932
X131.345Y-133.932
X134.345Y-58.932
X134.345Y-89.682
X134.345Y-118.932
X137.345Y-53.682
X137.345Y-58.932
X137.345Y-61.932
X137.345Y-64.932
X137.345Y-76.932
X137.345Y-88.932
X137.345Y-116.682
X140.345Y-58.932
X140.345Y-61.932
X140.345Y-65.682
X140.345Y-88.932
X140.345Y-128.682
X140.345Y-131.682
X143.345Y-59.682
X143.345Y-62.682
X143.345Y-64.932
X143.345Y-67.932
X143.345Y-71.682
X143.345Y-73.932
X143.345Y-79.932
X143.345Y-82.932
X143.345Y-88.932
X143.345Y-91.932
X143.345Y-124.932
X143.345Y-130.932
X143.345Y-133.932
X146.345Y-59.682
X146.345Y-62.682
X146.345Y-64.932
X146.345Y-67.932
X146.345Y-76.932
X146.345Y-79.932
X146.345Y-82.932
X146.345Y-88.932
X146.345Y-91.932
X146.345Y-94.932
X146.345Y-121.932
X149.345Y-55.932
X149.345Y-85.932
X149.345Y-88.932
X149.345Y-91.932
X149.345Y-94.932
X149.345Y-119.682
X149.345Y-121.932
X149.345Y-124.932
X149.345Y-127.932
X149.345Y-130.932
X149.345Y-133.932
X152.345Y-82.932
X152.345Y-97.932
X152.345Y-128.682
X155.345Y-67.932
X155.345Y-70.932
X155.345Y-73.932
X155.345Y-76.932
X155.345Y-79.932
X155.345Y-82.932
X155.345Y-94.932
X155.345Y-106.932
X155.345Y-119.682
X158.345Y-100.932
X158.345Y-119.682
X161.345Y-55.932
X161.345Y-58.932
X161.345Y-61.932
X161.345Y-64.932
X161.345Y-67.932
X161.345Y-70.932
X161.345Y-73.932
X161.345Y-76.932
X161.345Y-79.932
X161.345Y-82.932
X161.345Y-86.682
X161.345Y-89.682
X161.345Y-92.682
X161.345Y-97.932
X161.345Y-103.932
X161.345Y-118.932
X161.345Y-121.932
X161.345Y-124.932
X161.345Y-127.932
X161.345Y-130.932
X161.345Y-133.932
T3
X121.045Y-67.697
X121.045Y-70.237
X121.045Y-72.777
X121.045Y-75.317
X121.045Y-77.857
X121.045Y-80.397
X121.045Y-82.937
X121.045Y-85.477
X121.78Y-99.107
X121.78Y-106.727
X124.245Y-95.032
X124.32Y-99.107
X124.32Y-106.727
X126.785Y-95.032
X126.86Y-99.107
X126.86Y-106.727
X129.325Y-95.032
X129.4Y-99.107
X129.4Y-106.727
X131.865Y-95.032
X131.94Y-99.107
X131.94Y-106.727
X134.405Y-95.032
X134.48Y-99.107
X134.48Y-106.727
X135.52Y-110.807
X135.52Y-115.807
X135.97Y-57.232
X136.945Y-95.032
X137.02Y-99.107
X137.02Y-106.727
X138.47Y-57.232
X139.485Y-95.032
X139.56Y-99.107
X139.56Y-106.727
X140.045Y-110.012
X140.045Y-117.632
X140.82Y-127.014
X140.82Y-130.17
X140.84Y-123.857
X140.84Y-133.326
X140.865Y-120.701
X140.915Y-52.882
X142.025Y-95.032
X142.1Y-99.107
X142.1Y-106.727
X142.585Y-110.012
X142.585Y-117.632
X144.64Y-99.107
X144.64Y-106.727
X145.125Y-110.012
X145.125Y-117.632
X147.665Y-110.012
X147.665Y-117.632
X149.045Y-100.807
X149.045Y-105.807
X150.205Y-110.012
X150.205Y-117.632
X150.98Y-127.014
X150.98Y-130.17
X151.0Y-123.857
X151.0Y-133.326
X151.025Y-120.701
X151.075Y-52.882
X151.92Y-95.652
X151.92Y-105.812
X152.745Y-110.012
X152.745Y-117.632
X155.285Y-110.012
X155.285Y-117.632
X156.77Y-98.192
X156.77Y-100.732
X156.77Y-103.282
X157.825Y-110.012
X157.825Y-117.632
X160.67Y-95.652
X160.67Y-105.812
T4
X143.105Y-57.732
X145.645Y-57.732
T5
X126.4Y-65.04
X126.4Y-67.58
X126.4Y-70.12
X126.4Y-72.66
X126.4Y-75.2
X126.4Y-77.74
X126.4Y-80.28
X126.4Y-82.82
X126.4Y-85.36
X126.4Y-87.9
X134.02Y-65.04
X134.02Y-67.58
X134.02Y-70.12
X134.02Y-72.66
X134.02Y-75.2
X134.02Y-77.74
X134.02Y-80.28
X134.02Y-82.82
X134.02Y-85.36
X134.02Y-87.9
T6
X126.72Y-53.407
X126.72Y-55.947
X126.72Y-114.362
X126.72Y-116.902
X126.72Y-119.442
X126.72Y-121.982
X126.72Y-124.522
X126.72Y-127.062
X126.72Y-129.602
X126.72Y-132.142
X131.12Y-53.407
X131.12Y-55.947
X136.82Y-121.867
X136.82Y-124.407
X136.82Y-126.947
X136.82Y-129.487
X136.82Y-132.027
X139.02Y-70.577
X139.02Y-73.117
X139.02Y-75.657
X139.02Y-78.197
X139.02Y-80.737
X139.02Y-83.277
X149.42Y-70.577
X149.42Y-73.117
X149.42Y-75.657
X149.42Y-78.197
X149.42Y-80.737
X149.42Y-83.277
X154.42Y-53.407
X154.42Y-55.947
X154.42Y-58.487
X154.42Y-61.027
X154.42Y-63.567
X154.42Y-121.957
X154.42Y-124.497
X154.42Y-127.037
X154.42Y-129.577
X154.42Y-132.117
M30
