%TF.GenerationSoftware,KiCad,Pcbnew,9.0.1+1*%
%TF.CreationDate,2026-03-05T21:15:58+00:00*%
%TF.ProjectId,CSC202_LED_MODULE,43534332-3032-45f4-9c45-445f4d4f4455,A*%
%TF.SameCoordinates,Original*%
%TF.FileFunction,AssemblyDrawing,Top*%
%FSLAX46Y46*%
G04 Gerber Fmt 4.6, Leading zero omitted, Abs format (unit mm)*
G04 Created by KiCad (PCBNEW 9.0.1+1) date 2026-03-05 21:15:58*
%MOMM*%
%LPD*%
G01*
G04 APERTURE LIST*
%ADD10C,0.150000*%
%ADD11C,0.129000*%
%ADD12C,0.100000*%
%ADD13C,0.120000*%
G04 APERTURE END LIST*
D10*
X144185932Y-52432352D02*
X144233551Y-52384733D01*
X144233551Y-52384733D02*
X144328789Y-52337114D01*
X144328789Y-52337114D02*
X144566884Y-52337114D01*
X144566884Y-52337114D02*
X144662122Y-52384733D01*
X144662122Y-52384733D02*
X144709741Y-52432352D01*
X144709741Y-52432352D02*
X144757360Y-52527590D01*
X144757360Y-52527590D02*
X144757360Y-52622828D01*
X144757360Y-52622828D02*
X144709741Y-52765685D01*
X144709741Y-52765685D02*
X144138313Y-53337114D01*
X144138313Y-53337114D02*
X144757360Y-53337114D01*
X145138313Y-52432352D02*
X145185932Y-52384733D01*
X145185932Y-52384733D02*
X145281170Y-52337114D01*
X145281170Y-52337114D02*
X145519265Y-52337114D01*
X145519265Y-52337114D02*
X145614503Y-52384733D01*
X145614503Y-52384733D02*
X145662122Y-52432352D01*
X145662122Y-52432352D02*
X145709741Y-52527590D01*
X145709741Y-52527590D02*
X145709741Y-52622828D01*
X145709741Y-52622828D02*
X145662122Y-52765685D01*
X145662122Y-52765685D02*
X145090694Y-53337114D01*
X145090694Y-53337114D02*
X145709741Y-53337114D01*
X146328789Y-52337114D02*
X146424027Y-52337114D01*
X146424027Y-52337114D02*
X146519265Y-52384733D01*
X146519265Y-52384733D02*
X146566884Y-52432352D01*
X146566884Y-52432352D02*
X146614503Y-52527590D01*
X146614503Y-52527590D02*
X146662122Y-52718066D01*
X146662122Y-52718066D02*
X146662122Y-52956161D01*
X146662122Y-52956161D02*
X146614503Y-53146637D01*
X146614503Y-53146637D02*
X146566884Y-53241875D01*
X146566884Y-53241875D02*
X146519265Y-53289495D01*
X146519265Y-53289495D02*
X146424027Y-53337114D01*
X146424027Y-53337114D02*
X146328789Y-53337114D01*
X146328789Y-53337114D02*
X146233551Y-53289495D01*
X146233551Y-53289495D02*
X146185932Y-53241875D01*
X146185932Y-53241875D02*
X146138313Y-53146637D01*
X146138313Y-53146637D02*
X146090694Y-52956161D01*
X146090694Y-52956161D02*
X146090694Y-52718066D01*
X146090694Y-52718066D02*
X146138313Y-52527590D01*
X146138313Y-52527590D02*
X146185932Y-52432352D01*
X146185932Y-52432352D02*
X146233551Y-52384733D01*
X146233551Y-52384733D02*
X146328789Y-52337114D01*
X147043075Y-53337114D02*
X147281170Y-53337114D01*
X147281170Y-53337114D02*
X147281170Y-53146637D01*
X147281170Y-53146637D02*
X147185932Y-53099018D01*
X147185932Y-53099018D02*
X147090694Y-53003780D01*
X147090694Y-53003780D02*
X147043075Y-52860923D01*
X147043075Y-52860923D02*
X147043075Y-52622828D01*
X147043075Y-52622828D02*
X147090694Y-52479971D01*
X147090694Y-52479971D02*
X147185932Y-52384733D01*
X147185932Y-52384733D02*
X147328789Y-52337114D01*
X147328789Y-52337114D02*
X147519265Y-52337114D01*
X147519265Y-52337114D02*
X147662122Y-52384733D01*
X147662122Y-52384733D02*
X147757360Y-52479971D01*
X147757360Y-52479971D02*
X147804979Y-52622828D01*
X147804979Y-52622828D02*
X147804979Y-52860923D01*
X147804979Y-52860923D02*
X147757360Y-53003780D01*
X147757360Y-53003780D02*
X147662122Y-53099018D01*
X147662122Y-53099018D02*
X147566884Y-53146637D01*
X147566884Y-53146637D02*
X147566884Y-53337114D01*
X147566884Y-53337114D02*
X147804979Y-53337114D01*
X138453789Y-52437114D02*
X138120456Y-51960923D01*
X137882361Y-52437114D02*
X137882361Y-51437114D01*
X137882361Y-51437114D02*
X138263313Y-51437114D01*
X138263313Y-51437114D02*
X138358551Y-51484733D01*
X138358551Y-51484733D02*
X138406170Y-51532352D01*
X138406170Y-51532352D02*
X138453789Y-51627590D01*
X138453789Y-51627590D02*
X138453789Y-51770447D01*
X138453789Y-51770447D02*
X138406170Y-51865685D01*
X138406170Y-51865685D02*
X138358551Y-51913304D01*
X138358551Y-51913304D02*
X138263313Y-51960923D01*
X138263313Y-51960923D02*
X137882361Y-51960923D01*
X138834742Y-51532352D02*
X138882361Y-51484733D01*
X138882361Y-51484733D02*
X138977599Y-51437114D01*
X138977599Y-51437114D02*
X139215694Y-51437114D01*
X139215694Y-51437114D02*
X139310932Y-51484733D01*
X139310932Y-51484733D02*
X139358551Y-51532352D01*
X139358551Y-51532352D02*
X139406170Y-51627590D01*
X139406170Y-51627590D02*
X139406170Y-51722828D01*
X139406170Y-51722828D02*
X139358551Y-51865685D01*
X139358551Y-51865685D02*
X138787123Y-52437114D01*
X138787123Y-52437114D02*
X139406170Y-52437114D01*
X145999504Y-129624614D02*
X146618551Y-129624614D01*
X146618551Y-129624614D02*
X146285218Y-130005566D01*
X146285218Y-130005566D02*
X146428075Y-130005566D01*
X146428075Y-130005566D02*
X146523313Y-130053185D01*
X146523313Y-130053185D02*
X146570932Y-130100804D01*
X146570932Y-130100804D02*
X146618551Y-130196042D01*
X146618551Y-130196042D02*
X146618551Y-130434137D01*
X146618551Y-130434137D02*
X146570932Y-130529375D01*
X146570932Y-130529375D02*
X146523313Y-130576995D01*
X146523313Y-130576995D02*
X146428075Y-130624614D01*
X146428075Y-130624614D02*
X146142361Y-130624614D01*
X146142361Y-130624614D02*
X146047123Y-130576995D01*
X146047123Y-130576995D02*
X145999504Y-130529375D01*
X146951885Y-129624614D02*
X147570932Y-129624614D01*
X147570932Y-129624614D02*
X147237599Y-130005566D01*
X147237599Y-130005566D02*
X147380456Y-130005566D01*
X147380456Y-130005566D02*
X147475694Y-130053185D01*
X147475694Y-130053185D02*
X147523313Y-130100804D01*
X147523313Y-130100804D02*
X147570932Y-130196042D01*
X147570932Y-130196042D02*
X147570932Y-130434137D01*
X147570932Y-130434137D02*
X147523313Y-130529375D01*
X147523313Y-130529375D02*
X147475694Y-130576995D01*
X147475694Y-130576995D02*
X147380456Y-130624614D01*
X147380456Y-130624614D02*
X147094742Y-130624614D01*
X147094742Y-130624614D02*
X146999504Y-130576995D01*
X146999504Y-130576995D02*
X146951885Y-130529375D01*
X147951885Y-130624614D02*
X148189980Y-130624614D01*
X148189980Y-130624614D02*
X148189980Y-130434137D01*
X148189980Y-130434137D02*
X148094742Y-130386518D01*
X148094742Y-130386518D02*
X147999504Y-130291280D01*
X147999504Y-130291280D02*
X147951885Y-130148423D01*
X147951885Y-130148423D02*
X147951885Y-129910328D01*
X147951885Y-129910328D02*
X147999504Y-129767471D01*
X147999504Y-129767471D02*
X148094742Y-129672233D01*
X148094742Y-129672233D02*
X148237599Y-129624614D01*
X148237599Y-129624614D02*
X148428075Y-129624614D01*
X148428075Y-129624614D02*
X148570932Y-129672233D01*
X148570932Y-129672233D02*
X148666170Y-129767471D01*
X148666170Y-129767471D02*
X148713789Y-129910328D01*
X148713789Y-129910328D02*
X148713789Y-130148423D01*
X148713789Y-130148423D02*
X148666170Y-130291280D01*
X148666170Y-130291280D02*
X148570932Y-130386518D01*
X148570932Y-130386518D02*
X148475694Y-130434137D01*
X148475694Y-130434137D02*
X148475694Y-130624614D01*
X148475694Y-130624614D02*
X148713789Y-130624614D01*
X143803789Y-130624614D02*
X143470456Y-130148423D01*
X143232361Y-130624614D02*
X143232361Y-129624614D01*
X143232361Y-129624614D02*
X143613313Y-129624614D01*
X143613313Y-129624614D02*
X143708551Y-129672233D01*
X143708551Y-129672233D02*
X143756170Y-129719852D01*
X143756170Y-129719852D02*
X143803789Y-129815090D01*
X143803789Y-129815090D02*
X143803789Y-129957947D01*
X143803789Y-129957947D02*
X143756170Y-130053185D01*
X143756170Y-130053185D02*
X143708551Y-130100804D01*
X143708551Y-130100804D02*
X143613313Y-130148423D01*
X143613313Y-130148423D02*
X143232361Y-130148423D01*
X144137123Y-129624614D02*
X144803789Y-129624614D01*
X144803789Y-129624614D02*
X144375218Y-130624614D01*
X145999504Y-123312114D02*
X146618551Y-123312114D01*
X146618551Y-123312114D02*
X146285218Y-123693066D01*
X146285218Y-123693066D02*
X146428075Y-123693066D01*
X146428075Y-123693066D02*
X146523313Y-123740685D01*
X146523313Y-123740685D02*
X146570932Y-123788304D01*
X146570932Y-123788304D02*
X146618551Y-123883542D01*
X146618551Y-123883542D02*
X146618551Y-124121637D01*
X146618551Y-124121637D02*
X146570932Y-124216875D01*
X146570932Y-124216875D02*
X146523313Y-124264495D01*
X146523313Y-124264495D02*
X146428075Y-124312114D01*
X146428075Y-124312114D02*
X146142361Y-124312114D01*
X146142361Y-124312114D02*
X146047123Y-124264495D01*
X146047123Y-124264495D02*
X145999504Y-124216875D01*
X146951885Y-123312114D02*
X147570932Y-123312114D01*
X147570932Y-123312114D02*
X147237599Y-123693066D01*
X147237599Y-123693066D02*
X147380456Y-123693066D01*
X147380456Y-123693066D02*
X147475694Y-123740685D01*
X147475694Y-123740685D02*
X147523313Y-123788304D01*
X147523313Y-123788304D02*
X147570932Y-123883542D01*
X147570932Y-123883542D02*
X147570932Y-124121637D01*
X147570932Y-124121637D02*
X147523313Y-124216875D01*
X147523313Y-124216875D02*
X147475694Y-124264495D01*
X147475694Y-124264495D02*
X147380456Y-124312114D01*
X147380456Y-124312114D02*
X147094742Y-124312114D01*
X147094742Y-124312114D02*
X146999504Y-124264495D01*
X146999504Y-124264495D02*
X146951885Y-124216875D01*
X147951885Y-124312114D02*
X148189980Y-124312114D01*
X148189980Y-124312114D02*
X148189980Y-124121637D01*
X148189980Y-124121637D02*
X148094742Y-124074018D01*
X148094742Y-124074018D02*
X147999504Y-123978780D01*
X147999504Y-123978780D02*
X147951885Y-123835923D01*
X147951885Y-123835923D02*
X147951885Y-123597828D01*
X147951885Y-123597828D02*
X147999504Y-123454971D01*
X147999504Y-123454971D02*
X148094742Y-123359733D01*
X148094742Y-123359733D02*
X148237599Y-123312114D01*
X148237599Y-123312114D02*
X148428075Y-123312114D01*
X148428075Y-123312114D02*
X148570932Y-123359733D01*
X148570932Y-123359733D02*
X148666170Y-123454971D01*
X148666170Y-123454971D02*
X148713789Y-123597828D01*
X148713789Y-123597828D02*
X148713789Y-123835923D01*
X148713789Y-123835923D02*
X148666170Y-123978780D01*
X148666170Y-123978780D02*
X148570932Y-124074018D01*
X148570932Y-124074018D02*
X148475694Y-124121637D01*
X148475694Y-124121637D02*
X148475694Y-124312114D01*
X148475694Y-124312114D02*
X148713789Y-124312114D01*
X143803789Y-124312114D02*
X143470456Y-123835923D01*
X143232361Y-124312114D02*
X143232361Y-123312114D01*
X143232361Y-123312114D02*
X143613313Y-123312114D01*
X143613313Y-123312114D02*
X143708551Y-123359733D01*
X143708551Y-123359733D02*
X143756170Y-123407352D01*
X143756170Y-123407352D02*
X143803789Y-123502590D01*
X143803789Y-123502590D02*
X143803789Y-123645447D01*
X143803789Y-123645447D02*
X143756170Y-123740685D01*
X143756170Y-123740685D02*
X143708551Y-123788304D01*
X143708551Y-123788304D02*
X143613313Y-123835923D01*
X143613313Y-123835923D02*
X143232361Y-123835923D01*
X144708551Y-123312114D02*
X144232361Y-123312114D01*
X144232361Y-123312114D02*
X144184742Y-123788304D01*
X144184742Y-123788304D02*
X144232361Y-123740685D01*
X144232361Y-123740685D02*
X144327599Y-123693066D01*
X144327599Y-123693066D02*
X144565694Y-123693066D01*
X144565694Y-123693066D02*
X144660932Y-123740685D01*
X144660932Y-123740685D02*
X144708551Y-123788304D01*
X144708551Y-123788304D02*
X144756170Y-123883542D01*
X144756170Y-123883542D02*
X144756170Y-124121637D01*
X144756170Y-124121637D02*
X144708551Y-124216875D01*
X144708551Y-124216875D02*
X144660932Y-124264495D01*
X144660932Y-124264495D02*
X144565694Y-124312114D01*
X144565694Y-124312114D02*
X144327599Y-124312114D01*
X144327599Y-124312114D02*
X144232361Y-124264495D01*
X144232361Y-124264495D02*
X144184742Y-124216875D01*
X145999504Y-120155864D02*
X146618551Y-120155864D01*
X146618551Y-120155864D02*
X146285218Y-120536816D01*
X146285218Y-120536816D02*
X146428075Y-120536816D01*
X146428075Y-120536816D02*
X146523313Y-120584435D01*
X146523313Y-120584435D02*
X146570932Y-120632054D01*
X146570932Y-120632054D02*
X146618551Y-120727292D01*
X146618551Y-120727292D02*
X146618551Y-120965387D01*
X146618551Y-120965387D02*
X146570932Y-121060625D01*
X146570932Y-121060625D02*
X146523313Y-121108245D01*
X146523313Y-121108245D02*
X146428075Y-121155864D01*
X146428075Y-121155864D02*
X146142361Y-121155864D01*
X146142361Y-121155864D02*
X146047123Y-121108245D01*
X146047123Y-121108245D02*
X145999504Y-121060625D01*
X146951885Y-120155864D02*
X147570932Y-120155864D01*
X147570932Y-120155864D02*
X147237599Y-120536816D01*
X147237599Y-120536816D02*
X147380456Y-120536816D01*
X147380456Y-120536816D02*
X147475694Y-120584435D01*
X147475694Y-120584435D02*
X147523313Y-120632054D01*
X147523313Y-120632054D02*
X147570932Y-120727292D01*
X147570932Y-120727292D02*
X147570932Y-120965387D01*
X147570932Y-120965387D02*
X147523313Y-121060625D01*
X147523313Y-121060625D02*
X147475694Y-121108245D01*
X147475694Y-121108245D02*
X147380456Y-121155864D01*
X147380456Y-121155864D02*
X147094742Y-121155864D01*
X147094742Y-121155864D02*
X146999504Y-121108245D01*
X146999504Y-121108245D02*
X146951885Y-121060625D01*
X147951885Y-121155864D02*
X148189980Y-121155864D01*
X148189980Y-121155864D02*
X148189980Y-120965387D01*
X148189980Y-120965387D02*
X148094742Y-120917768D01*
X148094742Y-120917768D02*
X147999504Y-120822530D01*
X147999504Y-120822530D02*
X147951885Y-120679673D01*
X147951885Y-120679673D02*
X147951885Y-120441578D01*
X147951885Y-120441578D02*
X147999504Y-120298721D01*
X147999504Y-120298721D02*
X148094742Y-120203483D01*
X148094742Y-120203483D02*
X148237599Y-120155864D01*
X148237599Y-120155864D02*
X148428075Y-120155864D01*
X148428075Y-120155864D02*
X148570932Y-120203483D01*
X148570932Y-120203483D02*
X148666170Y-120298721D01*
X148666170Y-120298721D02*
X148713789Y-120441578D01*
X148713789Y-120441578D02*
X148713789Y-120679673D01*
X148713789Y-120679673D02*
X148666170Y-120822530D01*
X148666170Y-120822530D02*
X148570932Y-120917768D01*
X148570932Y-120917768D02*
X148475694Y-120965387D01*
X148475694Y-120965387D02*
X148475694Y-121155864D01*
X148475694Y-121155864D02*
X148713789Y-121155864D01*
X143803789Y-121155864D02*
X143470456Y-120679673D01*
X143232361Y-121155864D02*
X143232361Y-120155864D01*
X143232361Y-120155864D02*
X143613313Y-120155864D01*
X143613313Y-120155864D02*
X143708551Y-120203483D01*
X143708551Y-120203483D02*
X143756170Y-120251102D01*
X143756170Y-120251102D02*
X143803789Y-120346340D01*
X143803789Y-120346340D02*
X143803789Y-120489197D01*
X143803789Y-120489197D02*
X143756170Y-120584435D01*
X143756170Y-120584435D02*
X143708551Y-120632054D01*
X143708551Y-120632054D02*
X143613313Y-120679673D01*
X143613313Y-120679673D02*
X143232361Y-120679673D01*
X144660932Y-120489197D02*
X144660932Y-121155864D01*
X144422837Y-120108245D02*
X144184742Y-120822530D01*
X144184742Y-120822530D02*
X144803789Y-120822530D01*
X131707122Y-92305447D02*
X131707122Y-92972114D01*
X131469027Y-91924495D02*
X131230932Y-92638780D01*
X131230932Y-92638780D02*
X131849979Y-92638780D01*
X132135694Y-91972114D02*
X132802360Y-91972114D01*
X132802360Y-91972114D02*
X132373789Y-92972114D01*
X133373789Y-91972114D02*
X133469027Y-91972114D01*
X133469027Y-91972114D02*
X133564265Y-92019733D01*
X133564265Y-92019733D02*
X133611884Y-92067352D01*
X133611884Y-92067352D02*
X133659503Y-92162590D01*
X133659503Y-92162590D02*
X133707122Y-92353066D01*
X133707122Y-92353066D02*
X133707122Y-92591161D01*
X133707122Y-92591161D02*
X133659503Y-92781637D01*
X133659503Y-92781637D02*
X133611884Y-92876875D01*
X133611884Y-92876875D02*
X133564265Y-92924495D01*
X133564265Y-92924495D02*
X133469027Y-92972114D01*
X133469027Y-92972114D02*
X133373789Y-92972114D01*
X133373789Y-92972114D02*
X133278551Y-92924495D01*
X133278551Y-92924495D02*
X133230932Y-92876875D01*
X133230932Y-92876875D02*
X133183313Y-92781637D01*
X133183313Y-92781637D02*
X133135694Y-92591161D01*
X133135694Y-92591161D02*
X133135694Y-92353066D01*
X133135694Y-92353066D02*
X133183313Y-92162590D01*
X133183313Y-92162590D02*
X133230932Y-92067352D01*
X133230932Y-92067352D02*
X133278551Y-92019733D01*
X133278551Y-92019733D02*
X133373789Y-91972114D01*
X134088075Y-92972114D02*
X134326170Y-92972114D01*
X134326170Y-92972114D02*
X134326170Y-92781637D01*
X134326170Y-92781637D02*
X134230932Y-92734018D01*
X134230932Y-92734018D02*
X134135694Y-92638780D01*
X134135694Y-92638780D02*
X134088075Y-92495923D01*
X134088075Y-92495923D02*
X134088075Y-92257828D01*
X134088075Y-92257828D02*
X134135694Y-92114971D01*
X134135694Y-92114971D02*
X134230932Y-92019733D01*
X134230932Y-92019733D02*
X134373789Y-91972114D01*
X134373789Y-91972114D02*
X134564265Y-91972114D01*
X134564265Y-91972114D02*
X134707122Y-92019733D01*
X134707122Y-92019733D02*
X134802360Y-92114971D01*
X134802360Y-92114971D02*
X134849979Y-92257828D01*
X134849979Y-92257828D02*
X134849979Y-92495923D01*
X134849979Y-92495923D02*
X134802360Y-92638780D01*
X134802360Y-92638780D02*
X134707122Y-92734018D01*
X134707122Y-92734018D02*
X134611884Y-92781637D01*
X134611884Y-92781637D02*
X134611884Y-92972114D01*
X134611884Y-92972114D02*
X134849979Y-92972114D01*
X123329979Y-93102114D02*
X122996646Y-92625923D01*
X122758551Y-93102114D02*
X122758551Y-92102114D01*
X122758551Y-92102114D02*
X123139503Y-92102114D01*
X123139503Y-92102114D02*
X123234741Y-92149733D01*
X123234741Y-92149733D02*
X123282360Y-92197352D01*
X123282360Y-92197352D02*
X123329979Y-92292590D01*
X123329979Y-92292590D02*
X123329979Y-92435447D01*
X123329979Y-92435447D02*
X123282360Y-92530685D01*
X123282360Y-92530685D02*
X123234741Y-92578304D01*
X123234741Y-92578304D02*
X123139503Y-92625923D01*
X123139503Y-92625923D02*
X122758551Y-92625923D01*
X123758551Y-93102114D02*
X123758551Y-92102114D01*
X123758551Y-92102114D02*
X124329979Y-93102114D01*
X124329979Y-93102114D02*
X124329979Y-92102114D01*
X125329979Y-93102114D02*
X124758551Y-93102114D01*
X125044265Y-93102114D02*
X125044265Y-92102114D01*
X125044265Y-92102114D02*
X124949027Y-92244971D01*
X124949027Y-92244971D02*
X124853789Y-92340209D01*
X124853789Y-92340209D02*
X124758551Y-92387828D01*
X138724027Y-90846875D02*
X138676408Y-90894495D01*
X138676408Y-90894495D02*
X138533551Y-90942114D01*
X138533551Y-90942114D02*
X138438313Y-90942114D01*
X138438313Y-90942114D02*
X138295456Y-90894495D01*
X138295456Y-90894495D02*
X138200218Y-90799256D01*
X138200218Y-90799256D02*
X138152599Y-90704018D01*
X138152599Y-90704018D02*
X138104980Y-90513542D01*
X138104980Y-90513542D02*
X138104980Y-90370685D01*
X138104980Y-90370685D02*
X138152599Y-90180209D01*
X138152599Y-90180209D02*
X138200218Y-90084971D01*
X138200218Y-90084971D02*
X138295456Y-89989733D01*
X138295456Y-89989733D02*
X138438313Y-89942114D01*
X138438313Y-89942114D02*
X138533551Y-89942114D01*
X138533551Y-89942114D02*
X138676408Y-89989733D01*
X138676408Y-89989733D02*
X138724027Y-90037352D01*
X139104980Y-90656399D02*
X139581170Y-90656399D01*
X139009742Y-90942114D02*
X139343075Y-89942114D01*
X139343075Y-89942114D02*
X139676408Y-90942114D01*
X140485932Y-89942114D02*
X140009742Y-89942114D01*
X140009742Y-89942114D02*
X139962123Y-90418304D01*
X139962123Y-90418304D02*
X140009742Y-90370685D01*
X140009742Y-90370685D02*
X140104980Y-90323066D01*
X140104980Y-90323066D02*
X140343075Y-90323066D01*
X140343075Y-90323066D02*
X140438313Y-90370685D01*
X140438313Y-90370685D02*
X140485932Y-90418304D01*
X140485932Y-90418304D02*
X140533551Y-90513542D01*
X140533551Y-90513542D02*
X140533551Y-90751637D01*
X140533551Y-90751637D02*
X140485932Y-90846875D01*
X140485932Y-90846875D02*
X140438313Y-90894495D01*
X140438313Y-90894495D02*
X140343075Y-90942114D01*
X140343075Y-90942114D02*
X140104980Y-90942114D01*
X140104980Y-90942114D02*
X140009742Y-90894495D01*
X140009742Y-90894495D02*
X139962123Y-90846875D01*
X141390694Y-89942114D02*
X141200218Y-89942114D01*
X141200218Y-89942114D02*
X141104980Y-89989733D01*
X141104980Y-89989733D02*
X141057361Y-90037352D01*
X141057361Y-90037352D02*
X140962123Y-90180209D01*
X140962123Y-90180209D02*
X140914504Y-90370685D01*
X140914504Y-90370685D02*
X140914504Y-90751637D01*
X140914504Y-90751637D02*
X140962123Y-90846875D01*
X140962123Y-90846875D02*
X141009742Y-90894495D01*
X141009742Y-90894495D02*
X141104980Y-90942114D01*
X141104980Y-90942114D02*
X141295456Y-90942114D01*
X141295456Y-90942114D02*
X141390694Y-90894495D01*
X141390694Y-90894495D02*
X141438313Y-90846875D01*
X141438313Y-90846875D02*
X141485932Y-90751637D01*
X141485932Y-90751637D02*
X141485932Y-90513542D01*
X141485932Y-90513542D02*
X141438313Y-90418304D01*
X141438313Y-90418304D02*
X141390694Y-90370685D01*
X141390694Y-90370685D02*
X141295456Y-90323066D01*
X141295456Y-90323066D02*
X141104980Y-90323066D01*
X141104980Y-90323066D02*
X141009742Y-90370685D01*
X141009742Y-90370685D02*
X140962123Y-90418304D01*
X140962123Y-90418304D02*
X140914504Y-90513542D01*
X141914504Y-90561161D02*
X142676409Y-90561161D01*
X143676408Y-90942114D02*
X143104980Y-90942114D01*
X143390694Y-90942114D02*
X143390694Y-89942114D01*
X143390694Y-89942114D02*
X143295456Y-90084971D01*
X143295456Y-90084971D02*
X143200218Y-90180209D01*
X143200218Y-90180209D02*
X143104980Y-90227828D01*
X144057361Y-90037352D02*
X144104980Y-89989733D01*
X144104980Y-89989733D02*
X144200218Y-89942114D01*
X144200218Y-89942114D02*
X144438313Y-89942114D01*
X144438313Y-89942114D02*
X144533551Y-89989733D01*
X144533551Y-89989733D02*
X144581170Y-90037352D01*
X144581170Y-90037352D02*
X144628789Y-90132590D01*
X144628789Y-90132590D02*
X144628789Y-90227828D01*
X144628789Y-90227828D02*
X144581170Y-90370685D01*
X144581170Y-90370685D02*
X144009742Y-90942114D01*
X144009742Y-90942114D02*
X144628789Y-90942114D01*
X145009742Y-90894495D02*
X145152599Y-90942114D01*
X145152599Y-90942114D02*
X145390694Y-90942114D01*
X145390694Y-90942114D02*
X145485932Y-90894495D01*
X145485932Y-90894495D02*
X145533551Y-90846875D01*
X145533551Y-90846875D02*
X145581170Y-90751637D01*
X145581170Y-90751637D02*
X145581170Y-90656399D01*
X145581170Y-90656399D02*
X145533551Y-90561161D01*
X145533551Y-90561161D02*
X145485932Y-90513542D01*
X145485932Y-90513542D02*
X145390694Y-90465923D01*
X145390694Y-90465923D02*
X145200218Y-90418304D01*
X145200218Y-90418304D02*
X145104980Y-90370685D01*
X145104980Y-90370685D02*
X145057361Y-90323066D01*
X145057361Y-90323066D02*
X145009742Y-90227828D01*
X145009742Y-90227828D02*
X145009742Y-90132590D01*
X145009742Y-90132590D02*
X145057361Y-90037352D01*
X145057361Y-90037352D02*
X145104980Y-89989733D01*
X145104980Y-89989733D02*
X145200218Y-89942114D01*
X145200218Y-89942114D02*
X145438313Y-89942114D01*
X145438313Y-89942114D02*
X145581170Y-89989733D01*
X146009742Y-90418304D02*
X146343075Y-90418304D01*
X146485932Y-90942114D02*
X146009742Y-90942114D01*
X146009742Y-90942114D02*
X146009742Y-89942114D01*
X146009742Y-89942114D02*
X146485932Y-89942114D01*
X146914504Y-90942114D02*
X146914504Y-89942114D01*
X147485932Y-90942114D02*
X147057361Y-90370685D01*
X147485932Y-89942114D02*
X146914504Y-90513542D01*
X147819266Y-89942114D02*
X148057361Y-90942114D01*
X148057361Y-90942114D02*
X148247837Y-90227828D01*
X148247837Y-90227828D02*
X148438313Y-90942114D01*
X148438313Y-90942114D02*
X148676409Y-89942114D01*
X149009742Y-90656399D02*
X149485932Y-90656399D01*
X148914504Y-90942114D02*
X149247837Y-89942114D01*
X149247837Y-89942114D02*
X149581170Y-90942114D01*
X142988551Y-75132114D02*
X142988551Y-75941637D01*
X142988551Y-75941637D02*
X143036170Y-76036875D01*
X143036170Y-76036875D02*
X143083789Y-76084495D01*
X143083789Y-76084495D02*
X143179027Y-76132114D01*
X143179027Y-76132114D02*
X143369503Y-76132114D01*
X143369503Y-76132114D02*
X143464741Y-76084495D01*
X143464741Y-76084495D02*
X143512360Y-76036875D01*
X143512360Y-76036875D02*
X143559979Y-75941637D01*
X143559979Y-75941637D02*
X143559979Y-75132114D01*
X144559979Y-76132114D02*
X143988551Y-76132114D01*
X144274265Y-76132114D02*
X144274265Y-75132114D01*
X144274265Y-75132114D02*
X144179027Y-75274971D01*
X144179027Y-75274971D02*
X144083789Y-75370209D01*
X144083789Y-75370209D02*
X143988551Y-75417828D01*
X149405036Y-104735865D02*
X149452656Y-104688246D01*
X149452656Y-104688246D02*
X149500275Y-104735865D01*
X149500275Y-104735865D02*
X149452656Y-104783484D01*
X149452656Y-104783484D02*
X149405036Y-104735865D01*
X149405036Y-104735865D02*
X149500275Y-104735865D01*
X149500275Y-103735866D02*
X149500275Y-104307294D01*
X149500275Y-104021580D02*
X148500275Y-104021580D01*
X148500275Y-104021580D02*
X148643132Y-104116818D01*
X148643132Y-104116818D02*
X148738370Y-104212056D01*
X148738370Y-104212056D02*
X148785989Y-104307294D01*
X148833608Y-103307294D02*
X149833608Y-103307294D01*
X149357417Y-102831104D02*
X149452656Y-102783485D01*
X149452656Y-102783485D02*
X149500275Y-102688247D01*
X149357417Y-103307294D02*
X149452656Y-103259675D01*
X149452656Y-103259675D02*
X149500275Y-103164437D01*
X149500275Y-103164437D02*
X149500275Y-102973961D01*
X149500275Y-102973961D02*
X149452656Y-102878723D01*
X149452656Y-102878723D02*
X149357417Y-102831104D01*
X149357417Y-102831104D02*
X148833608Y-102831104D01*
X148976465Y-101926342D02*
X148976465Y-102259675D01*
X149500275Y-102259675D02*
X148500275Y-102259675D01*
X148500275Y-102259675D02*
X148500275Y-101783485D01*
D11*
X148852122Y-107926535D02*
X148811170Y-107967488D01*
X148811170Y-107967488D02*
X148688312Y-108008440D01*
X148688312Y-108008440D02*
X148606408Y-108008440D01*
X148606408Y-108008440D02*
X148483551Y-107967488D01*
X148483551Y-107967488D02*
X148401646Y-107885583D01*
X148401646Y-107885583D02*
X148360693Y-107803678D01*
X148360693Y-107803678D02*
X148319741Y-107639868D01*
X148319741Y-107639868D02*
X148319741Y-107517011D01*
X148319741Y-107517011D02*
X148360693Y-107353202D01*
X148360693Y-107353202D02*
X148401646Y-107271297D01*
X148401646Y-107271297D02*
X148483551Y-107189392D01*
X148483551Y-107189392D02*
X148606408Y-107148440D01*
X148606408Y-107148440D02*
X148688312Y-107148440D01*
X148688312Y-107148440D02*
X148811170Y-107189392D01*
X148811170Y-107189392D02*
X148852122Y-107230345D01*
X149179741Y-107230345D02*
X149220693Y-107189392D01*
X149220693Y-107189392D02*
X149302598Y-107148440D01*
X149302598Y-107148440D02*
X149507360Y-107148440D01*
X149507360Y-107148440D02*
X149589265Y-107189392D01*
X149589265Y-107189392D02*
X149630217Y-107230345D01*
X149630217Y-107230345D02*
X149671170Y-107312249D01*
X149671170Y-107312249D02*
X149671170Y-107394154D01*
X149671170Y-107394154D02*
X149630217Y-107517011D01*
X149630217Y-107517011D02*
X149138789Y-108008440D01*
X149138789Y-108008440D02*
X149671170Y-108008440D01*
D10*
X145888551Y-114232114D02*
X146555217Y-114232114D01*
X146555217Y-114232114D02*
X146126646Y-115232114D01*
X147364741Y-114565447D02*
X147364741Y-115232114D01*
X147126646Y-114184495D02*
X146888551Y-114898780D01*
X146888551Y-114898780D02*
X147507598Y-114898780D01*
X147888551Y-115232114D02*
X147888551Y-114232114D01*
X147888551Y-114708304D02*
X148459979Y-114708304D01*
X148459979Y-115232114D02*
X148459979Y-114232114D01*
X149507598Y-115136875D02*
X149459979Y-115184495D01*
X149459979Y-115184495D02*
X149317122Y-115232114D01*
X149317122Y-115232114D02*
X149221884Y-115232114D01*
X149221884Y-115232114D02*
X149079027Y-115184495D01*
X149079027Y-115184495D02*
X148983789Y-115089256D01*
X148983789Y-115089256D02*
X148936170Y-114994018D01*
X148936170Y-114994018D02*
X148888551Y-114803542D01*
X148888551Y-114803542D02*
X148888551Y-114660685D01*
X148888551Y-114660685D02*
X148936170Y-114470209D01*
X148936170Y-114470209D02*
X148983789Y-114374971D01*
X148983789Y-114374971D02*
X149079027Y-114279733D01*
X149079027Y-114279733D02*
X149221884Y-114232114D01*
X149221884Y-114232114D02*
X149317122Y-114232114D01*
X149317122Y-114232114D02*
X149459979Y-114279733D01*
X149459979Y-114279733D02*
X149507598Y-114327352D01*
X150412360Y-114232114D02*
X149936170Y-114232114D01*
X149936170Y-114232114D02*
X149888551Y-114708304D01*
X149888551Y-114708304D02*
X149936170Y-114660685D01*
X149936170Y-114660685D02*
X150031408Y-114613066D01*
X150031408Y-114613066D02*
X150269503Y-114613066D01*
X150269503Y-114613066D02*
X150364741Y-114660685D01*
X150364741Y-114660685D02*
X150412360Y-114708304D01*
X150412360Y-114708304D02*
X150459979Y-114803542D01*
X150459979Y-114803542D02*
X150459979Y-115041637D01*
X150459979Y-115041637D02*
X150412360Y-115136875D01*
X150412360Y-115136875D02*
X150364741Y-115184495D01*
X150364741Y-115184495D02*
X150269503Y-115232114D01*
X150269503Y-115232114D02*
X150031408Y-115232114D01*
X150031408Y-115232114D02*
X149936170Y-115184495D01*
X149936170Y-115184495D02*
X149888551Y-115136875D01*
X150936170Y-115232114D02*
X151126646Y-115232114D01*
X151126646Y-115232114D02*
X151221884Y-115184495D01*
X151221884Y-115184495D02*
X151269503Y-115136875D01*
X151269503Y-115136875D02*
X151364741Y-114994018D01*
X151364741Y-114994018D02*
X151412360Y-114803542D01*
X151412360Y-114803542D02*
X151412360Y-114422590D01*
X151412360Y-114422590D02*
X151364741Y-114327352D01*
X151364741Y-114327352D02*
X151317122Y-114279733D01*
X151317122Y-114279733D02*
X151221884Y-114232114D01*
X151221884Y-114232114D02*
X151031408Y-114232114D01*
X151031408Y-114232114D02*
X150936170Y-114279733D01*
X150936170Y-114279733D02*
X150888551Y-114327352D01*
X150888551Y-114327352D02*
X150840932Y-114422590D01*
X150840932Y-114422590D02*
X150840932Y-114660685D01*
X150840932Y-114660685D02*
X150888551Y-114755923D01*
X150888551Y-114755923D02*
X150936170Y-114803542D01*
X150936170Y-114803542D02*
X151031408Y-114851161D01*
X151031408Y-114851161D02*
X151221884Y-114851161D01*
X151221884Y-114851161D02*
X151317122Y-114803542D01*
X151317122Y-114803542D02*
X151364741Y-114755923D01*
X151364741Y-114755923D02*
X151412360Y-114660685D01*
X152317122Y-114232114D02*
X151840932Y-114232114D01*
X151840932Y-114232114D02*
X151793313Y-114708304D01*
X151793313Y-114708304D02*
X151840932Y-114660685D01*
X151840932Y-114660685D02*
X151936170Y-114613066D01*
X151936170Y-114613066D02*
X152174265Y-114613066D01*
X152174265Y-114613066D02*
X152269503Y-114660685D01*
X152269503Y-114660685D02*
X152317122Y-114708304D01*
X152317122Y-114708304D02*
X152364741Y-114803542D01*
X152364741Y-114803542D02*
X152364741Y-115041637D01*
X152364741Y-115041637D02*
X152317122Y-115136875D01*
X152317122Y-115136875D02*
X152269503Y-115184495D01*
X152269503Y-115184495D02*
X152174265Y-115232114D01*
X152174265Y-115232114D02*
X151936170Y-115232114D01*
X151936170Y-115232114D02*
X151840932Y-115184495D01*
X151840932Y-115184495D02*
X151793313Y-115136875D01*
X148173551Y-112222114D02*
X148173551Y-113031637D01*
X148173551Y-113031637D02*
X148221170Y-113126875D01*
X148221170Y-113126875D02*
X148268789Y-113174495D01*
X148268789Y-113174495D02*
X148364027Y-113222114D01*
X148364027Y-113222114D02*
X148554503Y-113222114D01*
X148554503Y-113222114D02*
X148649741Y-113174495D01*
X148649741Y-113174495D02*
X148697360Y-113126875D01*
X148697360Y-113126875D02*
X148744979Y-113031637D01*
X148744979Y-113031637D02*
X148744979Y-112222114D01*
X149125932Y-112222114D02*
X149744979Y-112222114D01*
X149744979Y-112222114D02*
X149411646Y-112603066D01*
X149411646Y-112603066D02*
X149554503Y-112603066D01*
X149554503Y-112603066D02*
X149649741Y-112650685D01*
X149649741Y-112650685D02*
X149697360Y-112698304D01*
X149697360Y-112698304D02*
X149744979Y-112793542D01*
X149744979Y-112793542D02*
X149744979Y-113031637D01*
X149744979Y-113031637D02*
X149697360Y-113126875D01*
X149697360Y-113126875D02*
X149649741Y-113174495D01*
X149649741Y-113174495D02*
X149554503Y-113222114D01*
X149554503Y-113222114D02*
X149268789Y-113222114D01*
X149268789Y-113222114D02*
X149173551Y-113174495D01*
X149173551Y-113174495D02*
X149125932Y-113126875D01*
X129988551Y-103412114D02*
X130655217Y-103412114D01*
X130655217Y-103412114D02*
X130226646Y-104412114D01*
X131464741Y-103745447D02*
X131464741Y-104412114D01*
X131226646Y-103364495D02*
X130988551Y-104078780D01*
X130988551Y-104078780D02*
X131607598Y-104078780D01*
X131988551Y-104412114D02*
X131988551Y-103412114D01*
X131988551Y-103888304D02*
X132559979Y-103888304D01*
X132559979Y-104412114D02*
X132559979Y-103412114D01*
X133607598Y-104316875D02*
X133559979Y-104364495D01*
X133559979Y-104364495D02*
X133417122Y-104412114D01*
X133417122Y-104412114D02*
X133321884Y-104412114D01*
X133321884Y-104412114D02*
X133179027Y-104364495D01*
X133179027Y-104364495D02*
X133083789Y-104269256D01*
X133083789Y-104269256D02*
X133036170Y-104174018D01*
X133036170Y-104174018D02*
X132988551Y-103983542D01*
X132988551Y-103983542D02*
X132988551Y-103840685D01*
X132988551Y-103840685D02*
X133036170Y-103650209D01*
X133036170Y-103650209D02*
X133083789Y-103554971D01*
X133083789Y-103554971D02*
X133179027Y-103459733D01*
X133179027Y-103459733D02*
X133321884Y-103412114D01*
X133321884Y-103412114D02*
X133417122Y-103412114D01*
X133417122Y-103412114D02*
X133559979Y-103459733D01*
X133559979Y-103459733D02*
X133607598Y-103507352D01*
X133988551Y-103507352D02*
X134036170Y-103459733D01*
X134036170Y-103459733D02*
X134131408Y-103412114D01*
X134131408Y-103412114D02*
X134369503Y-103412114D01*
X134369503Y-103412114D02*
X134464741Y-103459733D01*
X134464741Y-103459733D02*
X134512360Y-103507352D01*
X134512360Y-103507352D02*
X134559979Y-103602590D01*
X134559979Y-103602590D02*
X134559979Y-103697828D01*
X134559979Y-103697828D02*
X134512360Y-103840685D01*
X134512360Y-103840685D02*
X133940932Y-104412114D01*
X133940932Y-104412114D02*
X134559979Y-104412114D01*
X135417122Y-103745447D02*
X135417122Y-104412114D01*
X135179027Y-103364495D02*
X134940932Y-104078780D01*
X134940932Y-104078780D02*
X135559979Y-104078780D01*
X136369503Y-103745447D02*
X136369503Y-104412114D01*
X136131408Y-103364495D02*
X135893313Y-104078780D01*
X135893313Y-104078780D02*
X136512360Y-104078780D01*
X132418551Y-101362114D02*
X132418551Y-102171637D01*
X132418551Y-102171637D02*
X132466170Y-102266875D01*
X132466170Y-102266875D02*
X132513789Y-102314495D01*
X132513789Y-102314495D02*
X132609027Y-102362114D01*
X132609027Y-102362114D02*
X132799503Y-102362114D01*
X132799503Y-102362114D02*
X132894741Y-102314495D01*
X132894741Y-102314495D02*
X132942360Y-102266875D01*
X132942360Y-102266875D02*
X132989979Y-102171637D01*
X132989979Y-102171637D02*
X132989979Y-101362114D01*
X133418551Y-101457352D02*
X133466170Y-101409733D01*
X133466170Y-101409733D02*
X133561408Y-101362114D01*
X133561408Y-101362114D02*
X133799503Y-101362114D01*
X133799503Y-101362114D02*
X133894741Y-101409733D01*
X133894741Y-101409733D02*
X133942360Y-101457352D01*
X133942360Y-101457352D02*
X133989979Y-101552590D01*
X133989979Y-101552590D02*
X133989979Y-101647828D01*
X133989979Y-101647828D02*
X133942360Y-101790685D01*
X133942360Y-101790685D02*
X133370932Y-102362114D01*
X133370932Y-102362114D02*
X133989979Y-102362114D01*
X161125275Y-101898961D02*
X161125275Y-102470389D01*
X161125275Y-102184675D02*
X160125275Y-102184675D01*
X160125275Y-102184675D02*
X160268132Y-102279913D01*
X160268132Y-102279913D02*
X160363370Y-102375151D01*
X160363370Y-102375151D02*
X160410989Y-102470389D01*
X160125275Y-101279913D02*
X160125275Y-101184675D01*
X160125275Y-101184675D02*
X160172894Y-101089437D01*
X160172894Y-101089437D02*
X160220513Y-101041818D01*
X160220513Y-101041818D02*
X160315751Y-100994199D01*
X160315751Y-100994199D02*
X160506227Y-100946580D01*
X160506227Y-100946580D02*
X160744322Y-100946580D01*
X160744322Y-100946580D02*
X160934798Y-100994199D01*
X160934798Y-100994199D02*
X161030036Y-101041818D01*
X161030036Y-101041818D02*
X161077656Y-101089437D01*
X161077656Y-101089437D02*
X161125275Y-101184675D01*
X161125275Y-101184675D02*
X161125275Y-101279913D01*
X161125275Y-101279913D02*
X161077656Y-101375151D01*
X161077656Y-101375151D02*
X161030036Y-101422770D01*
X161030036Y-101422770D02*
X160934798Y-101470389D01*
X160934798Y-101470389D02*
X160744322Y-101518008D01*
X160744322Y-101518008D02*
X160506227Y-101518008D01*
X160506227Y-101518008D02*
X160315751Y-101470389D01*
X160315751Y-101470389D02*
X160220513Y-101422770D01*
X160220513Y-101422770D02*
X160172894Y-101375151D01*
X160172894Y-101375151D02*
X160125275Y-101279913D01*
X161125275Y-100518008D02*
X160125275Y-100518008D01*
X160744322Y-100422770D02*
X161125275Y-100137056D01*
X160458608Y-100137056D02*
X160839560Y-100518008D01*
X161125275Y-99756103D02*
X161125275Y-99518008D01*
X161125275Y-99518008D02*
X160934798Y-99518008D01*
X160934798Y-99518008D02*
X160887179Y-99613246D01*
X160887179Y-99613246D02*
X160791941Y-99708484D01*
X160791941Y-99708484D02*
X160649084Y-99756103D01*
X160649084Y-99756103D02*
X160410989Y-99756103D01*
X160410989Y-99756103D02*
X160268132Y-99708484D01*
X160268132Y-99708484D02*
X160172894Y-99613246D01*
X160172894Y-99613246D02*
X160125275Y-99470389D01*
X160125275Y-99470389D02*
X160125275Y-99279913D01*
X160125275Y-99279913D02*
X160172894Y-99137056D01*
X160172894Y-99137056D02*
X160268132Y-99041818D01*
X160268132Y-99041818D02*
X160410989Y-98994199D01*
X160410989Y-98994199D02*
X160649084Y-98994199D01*
X160649084Y-98994199D02*
X160791941Y-99041818D01*
X160791941Y-99041818D02*
X160887179Y-99137056D01*
X160887179Y-99137056D02*
X160934798Y-99232294D01*
X160934798Y-99232294D02*
X161125275Y-99232294D01*
X161125275Y-99232294D02*
X161125275Y-98994199D01*
X160503789Y-108162114D02*
X160170456Y-107685923D01*
X159932361Y-108162114D02*
X159932361Y-107162114D01*
X159932361Y-107162114D02*
X160313313Y-107162114D01*
X160313313Y-107162114D02*
X160408551Y-107209733D01*
X160408551Y-107209733D02*
X160456170Y-107257352D01*
X160456170Y-107257352D02*
X160503789Y-107352590D01*
X160503789Y-107352590D02*
X160503789Y-107495447D01*
X160503789Y-107495447D02*
X160456170Y-107590685D01*
X160456170Y-107590685D02*
X160408551Y-107638304D01*
X160408551Y-107638304D02*
X160313313Y-107685923D01*
X160313313Y-107685923D02*
X159932361Y-107685923D01*
X161456170Y-108162114D02*
X160884742Y-108162114D01*
X161170456Y-108162114D02*
X161170456Y-107162114D01*
X161170456Y-107162114D02*
X161075218Y-107304971D01*
X161075218Y-107304971D02*
X160979980Y-107400209D01*
X160979980Y-107400209D02*
X160884742Y-107447828D01*
X130425275Y-88090151D02*
X129425275Y-88090151D01*
X129901465Y-88090151D02*
X129901465Y-87518723D01*
X130425275Y-87518723D02*
X129425275Y-87518723D01*
X130425275Y-87042532D02*
X129425275Y-87042532D01*
X129425275Y-87042532D02*
X129425275Y-86804437D01*
X129425275Y-86804437D02*
X129472894Y-86661580D01*
X129472894Y-86661580D02*
X129568132Y-86566342D01*
X129568132Y-86566342D02*
X129663370Y-86518723D01*
X129663370Y-86518723D02*
X129853846Y-86471104D01*
X129853846Y-86471104D02*
X129996703Y-86471104D01*
X129996703Y-86471104D02*
X130187179Y-86518723D01*
X130187179Y-86518723D02*
X130282417Y-86566342D01*
X130282417Y-86566342D02*
X130377656Y-86661580D01*
X130377656Y-86661580D02*
X130425275Y-86804437D01*
X130425275Y-86804437D02*
X130425275Y-87042532D01*
X130377656Y-86090151D02*
X130425275Y-85947294D01*
X130425275Y-85947294D02*
X130425275Y-85709199D01*
X130425275Y-85709199D02*
X130377656Y-85613961D01*
X130377656Y-85613961D02*
X130330036Y-85566342D01*
X130330036Y-85566342D02*
X130234798Y-85518723D01*
X130234798Y-85518723D02*
X130139560Y-85518723D01*
X130139560Y-85518723D02*
X130044322Y-85566342D01*
X130044322Y-85566342D02*
X129996703Y-85613961D01*
X129996703Y-85613961D02*
X129949084Y-85709199D01*
X129949084Y-85709199D02*
X129901465Y-85899675D01*
X129901465Y-85899675D02*
X129853846Y-85994913D01*
X129853846Y-85994913D02*
X129806227Y-86042532D01*
X129806227Y-86042532D02*
X129710989Y-86090151D01*
X129710989Y-86090151D02*
X129615751Y-86090151D01*
X129615751Y-86090151D02*
X129520513Y-86042532D01*
X129520513Y-86042532D02*
X129472894Y-85994913D01*
X129472894Y-85994913D02*
X129425275Y-85899675D01*
X129425275Y-85899675D02*
X129425275Y-85661580D01*
X129425275Y-85661580D02*
X129472894Y-85518723D01*
X130425275Y-85090151D02*
X129425275Y-85090151D01*
X129425275Y-85090151D02*
X129425275Y-84709199D01*
X129425275Y-84709199D02*
X129472894Y-84613961D01*
X129472894Y-84613961D02*
X129520513Y-84566342D01*
X129520513Y-84566342D02*
X129615751Y-84518723D01*
X129615751Y-84518723D02*
X129758608Y-84518723D01*
X129758608Y-84518723D02*
X129853846Y-84566342D01*
X129853846Y-84566342D02*
X129901465Y-84613961D01*
X129901465Y-84613961D02*
X129949084Y-84709199D01*
X129949084Y-84709199D02*
X129949084Y-85090151D01*
X130044322Y-84090151D02*
X130044322Y-83328247D01*
X129758608Y-82423485D02*
X130425275Y-82423485D01*
X129377656Y-82661580D02*
X130091941Y-82899675D01*
X130091941Y-82899675D02*
X130091941Y-82280628D01*
X129853846Y-81756818D02*
X129806227Y-81852056D01*
X129806227Y-81852056D02*
X129758608Y-81899675D01*
X129758608Y-81899675D02*
X129663370Y-81947294D01*
X129663370Y-81947294D02*
X129615751Y-81947294D01*
X129615751Y-81947294D02*
X129520513Y-81899675D01*
X129520513Y-81899675D02*
X129472894Y-81852056D01*
X129472894Y-81852056D02*
X129425275Y-81756818D01*
X129425275Y-81756818D02*
X129425275Y-81566342D01*
X129425275Y-81566342D02*
X129472894Y-81471104D01*
X129472894Y-81471104D02*
X129520513Y-81423485D01*
X129520513Y-81423485D02*
X129615751Y-81375866D01*
X129615751Y-81375866D02*
X129663370Y-81375866D01*
X129663370Y-81375866D02*
X129758608Y-81423485D01*
X129758608Y-81423485D02*
X129806227Y-81471104D01*
X129806227Y-81471104D02*
X129853846Y-81566342D01*
X129853846Y-81566342D02*
X129853846Y-81756818D01*
X129853846Y-81756818D02*
X129901465Y-81852056D01*
X129901465Y-81852056D02*
X129949084Y-81899675D01*
X129949084Y-81899675D02*
X130044322Y-81947294D01*
X130044322Y-81947294D02*
X130234798Y-81947294D01*
X130234798Y-81947294D02*
X130330036Y-81899675D01*
X130330036Y-81899675D02*
X130377656Y-81852056D01*
X130377656Y-81852056D02*
X130425275Y-81756818D01*
X130425275Y-81756818D02*
X130425275Y-81566342D01*
X130425275Y-81566342D02*
X130377656Y-81471104D01*
X130377656Y-81471104D02*
X130330036Y-81423485D01*
X130330036Y-81423485D02*
X130234798Y-81375866D01*
X130234798Y-81375866D02*
X130044322Y-81375866D01*
X130044322Y-81375866D02*
X129949084Y-81423485D01*
X129949084Y-81423485D02*
X129901465Y-81471104D01*
X129901465Y-81471104D02*
X129853846Y-81566342D01*
X129425275Y-81042532D02*
X129425275Y-80423485D01*
X129425275Y-80423485D02*
X129806227Y-80756818D01*
X129806227Y-80756818D02*
X129806227Y-80613961D01*
X129806227Y-80613961D02*
X129853846Y-80518723D01*
X129853846Y-80518723D02*
X129901465Y-80471104D01*
X129901465Y-80471104D02*
X129996703Y-80423485D01*
X129996703Y-80423485D02*
X130234798Y-80423485D01*
X130234798Y-80423485D02*
X130330036Y-80471104D01*
X130330036Y-80471104D02*
X130377656Y-80518723D01*
X130377656Y-80518723D02*
X130425275Y-80613961D01*
X130425275Y-80613961D02*
X130425275Y-80899675D01*
X130425275Y-80899675D02*
X130377656Y-80994913D01*
X130377656Y-80994913D02*
X130330036Y-81042532D01*
X129425275Y-79804437D02*
X129425275Y-79709199D01*
X129425275Y-79709199D02*
X129472894Y-79613961D01*
X129472894Y-79613961D02*
X129520513Y-79566342D01*
X129520513Y-79566342D02*
X129615751Y-79518723D01*
X129615751Y-79518723D02*
X129806227Y-79471104D01*
X129806227Y-79471104D02*
X130044322Y-79471104D01*
X130044322Y-79471104D02*
X130234798Y-79518723D01*
X130234798Y-79518723D02*
X130330036Y-79566342D01*
X130330036Y-79566342D02*
X130377656Y-79613961D01*
X130377656Y-79613961D02*
X130425275Y-79709199D01*
X130425275Y-79709199D02*
X130425275Y-79804437D01*
X130425275Y-79804437D02*
X130377656Y-79899675D01*
X130377656Y-79899675D02*
X130330036Y-79947294D01*
X130330036Y-79947294D02*
X130234798Y-79994913D01*
X130234798Y-79994913D02*
X130044322Y-80042532D01*
X130044322Y-80042532D02*
X129806227Y-80042532D01*
X129806227Y-80042532D02*
X129615751Y-79994913D01*
X129615751Y-79994913D02*
X129520513Y-79947294D01*
X129520513Y-79947294D02*
X129472894Y-79899675D01*
X129472894Y-79899675D02*
X129425275Y-79804437D01*
X130520513Y-79280628D02*
X130520513Y-78518723D01*
X129520513Y-78328246D02*
X129472894Y-78280627D01*
X129472894Y-78280627D02*
X129425275Y-78185389D01*
X129425275Y-78185389D02*
X129425275Y-77947294D01*
X129425275Y-77947294D02*
X129472894Y-77852056D01*
X129472894Y-77852056D02*
X129520513Y-77804437D01*
X129520513Y-77804437D02*
X129615751Y-77756818D01*
X129615751Y-77756818D02*
X129710989Y-77756818D01*
X129710989Y-77756818D02*
X129853846Y-77804437D01*
X129853846Y-77804437D02*
X130425275Y-78375865D01*
X130425275Y-78375865D02*
X130425275Y-77756818D01*
D12*
X128687122Y-75833405D02*
X128829979Y-75881024D01*
X128829979Y-75881024D02*
X128877598Y-75928643D01*
X128877598Y-75928643D02*
X128925217Y-76023881D01*
X128925217Y-76023881D02*
X128925217Y-76166738D01*
X128925217Y-76166738D02*
X128877598Y-76261976D01*
X128877598Y-76261976D02*
X128829979Y-76309596D01*
X128829979Y-76309596D02*
X128734741Y-76357215D01*
X128734741Y-76357215D02*
X128353789Y-76357215D01*
X128353789Y-76357215D02*
X128353789Y-75357215D01*
X128353789Y-75357215D02*
X128687122Y-75357215D01*
X128687122Y-75357215D02*
X128782360Y-75404834D01*
X128782360Y-75404834D02*
X128829979Y-75452453D01*
X128829979Y-75452453D02*
X128877598Y-75547691D01*
X128877598Y-75547691D02*
X128877598Y-75642929D01*
X128877598Y-75642929D02*
X128829979Y-75738167D01*
X128829979Y-75738167D02*
X128782360Y-75785786D01*
X128782360Y-75785786D02*
X128687122Y-75833405D01*
X128687122Y-75833405D02*
X128353789Y-75833405D01*
X129306170Y-76071500D02*
X129782360Y-76071500D01*
X129210932Y-76357215D02*
X129544265Y-75357215D01*
X129544265Y-75357215D02*
X129877598Y-76357215D01*
X130782360Y-76357215D02*
X130449027Y-75881024D01*
X130210932Y-76357215D02*
X130210932Y-75357215D01*
X130210932Y-75357215D02*
X130591884Y-75357215D01*
X130591884Y-75357215D02*
X130687122Y-75404834D01*
X130687122Y-75404834D02*
X130734741Y-75452453D01*
X130734741Y-75452453D02*
X130782360Y-75547691D01*
X130782360Y-75547691D02*
X130782360Y-75690548D01*
X130782360Y-75690548D02*
X130734741Y-75785786D01*
X130734741Y-75785786D02*
X130687122Y-75833405D01*
X130687122Y-75833405D02*
X130591884Y-75881024D01*
X130591884Y-75881024D02*
X130210932Y-75881024D01*
X131734741Y-76357215D02*
X131163313Y-76357215D01*
X131449027Y-76357215D02*
X131449027Y-75357215D01*
X131449027Y-75357215D02*
X131353789Y-75500072D01*
X131353789Y-75500072D02*
X131258551Y-75595310D01*
X131258551Y-75595310D02*
X131163313Y-75642929D01*
D10*
X152375275Y-101898961D02*
X152375275Y-102470389D01*
X152375275Y-102184675D02*
X151375275Y-102184675D01*
X151375275Y-102184675D02*
X151518132Y-102279913D01*
X151518132Y-102279913D02*
X151613370Y-102375151D01*
X151613370Y-102375151D02*
X151660989Y-102470389D01*
X151375275Y-101279913D02*
X151375275Y-101184675D01*
X151375275Y-101184675D02*
X151422894Y-101089437D01*
X151422894Y-101089437D02*
X151470513Y-101041818D01*
X151470513Y-101041818D02*
X151565751Y-100994199D01*
X151565751Y-100994199D02*
X151756227Y-100946580D01*
X151756227Y-100946580D02*
X151994322Y-100946580D01*
X151994322Y-100946580D02*
X152184798Y-100994199D01*
X152184798Y-100994199D02*
X152280036Y-101041818D01*
X152280036Y-101041818D02*
X152327656Y-101089437D01*
X152327656Y-101089437D02*
X152375275Y-101184675D01*
X152375275Y-101184675D02*
X152375275Y-101279913D01*
X152375275Y-101279913D02*
X152327656Y-101375151D01*
X152327656Y-101375151D02*
X152280036Y-101422770D01*
X152280036Y-101422770D02*
X152184798Y-101470389D01*
X152184798Y-101470389D02*
X151994322Y-101518008D01*
X151994322Y-101518008D02*
X151756227Y-101518008D01*
X151756227Y-101518008D02*
X151565751Y-101470389D01*
X151565751Y-101470389D02*
X151470513Y-101422770D01*
X151470513Y-101422770D02*
X151422894Y-101375151D01*
X151422894Y-101375151D02*
X151375275Y-101279913D01*
X152375275Y-100518008D02*
X151375275Y-100518008D01*
X151994322Y-100422770D02*
X152375275Y-100137056D01*
X151708608Y-100137056D02*
X152089560Y-100518008D01*
X152375275Y-99756103D02*
X152375275Y-99518008D01*
X152375275Y-99518008D02*
X152184798Y-99518008D01*
X152184798Y-99518008D02*
X152137179Y-99613246D01*
X152137179Y-99613246D02*
X152041941Y-99708484D01*
X152041941Y-99708484D02*
X151899084Y-99756103D01*
X151899084Y-99756103D02*
X151660989Y-99756103D01*
X151660989Y-99756103D02*
X151518132Y-99708484D01*
X151518132Y-99708484D02*
X151422894Y-99613246D01*
X151422894Y-99613246D02*
X151375275Y-99470389D01*
X151375275Y-99470389D02*
X151375275Y-99279913D01*
X151375275Y-99279913D02*
X151422894Y-99137056D01*
X151422894Y-99137056D02*
X151518132Y-99041818D01*
X151518132Y-99041818D02*
X151660989Y-98994199D01*
X151660989Y-98994199D02*
X151899084Y-98994199D01*
X151899084Y-98994199D02*
X152041941Y-99041818D01*
X152041941Y-99041818D02*
X152137179Y-99137056D01*
X152137179Y-99137056D02*
X152184798Y-99232294D01*
X152184798Y-99232294D02*
X152375275Y-99232294D01*
X152375275Y-99232294D02*
X152375275Y-98994199D01*
X151753789Y-108162114D02*
X151420456Y-107685923D01*
X151182361Y-108162114D02*
X151182361Y-107162114D01*
X151182361Y-107162114D02*
X151563313Y-107162114D01*
X151563313Y-107162114D02*
X151658551Y-107209733D01*
X151658551Y-107209733D02*
X151706170Y-107257352D01*
X151706170Y-107257352D02*
X151753789Y-107352590D01*
X151753789Y-107352590D02*
X151753789Y-107495447D01*
X151753789Y-107495447D02*
X151706170Y-107590685D01*
X151706170Y-107590685D02*
X151658551Y-107638304D01*
X151658551Y-107638304D02*
X151563313Y-107685923D01*
X151563313Y-107685923D02*
X151182361Y-107685923D01*
X152087123Y-107162114D02*
X152706170Y-107162114D01*
X152706170Y-107162114D02*
X152372837Y-107543066D01*
X152372837Y-107543066D02*
X152515694Y-107543066D01*
X152515694Y-107543066D02*
X152610932Y-107590685D01*
X152610932Y-107590685D02*
X152658551Y-107638304D01*
X152658551Y-107638304D02*
X152706170Y-107733542D01*
X152706170Y-107733542D02*
X152706170Y-107971637D01*
X152706170Y-107971637D02*
X152658551Y-108066875D01*
X152658551Y-108066875D02*
X152610932Y-108114495D01*
X152610932Y-108114495D02*
X152515694Y-108162114D01*
X152515694Y-108162114D02*
X152229980Y-108162114D01*
X152229980Y-108162114D02*
X152134742Y-108114495D01*
X152134742Y-108114495D02*
X152087123Y-108066875D01*
X119687122Y-87995447D02*
X119687122Y-88662114D01*
X119449027Y-87614495D02*
X119210932Y-88328780D01*
X119210932Y-88328780D02*
X119829979Y-88328780D01*
X120115694Y-87662114D02*
X120782360Y-87662114D01*
X120782360Y-87662114D02*
X120353789Y-88662114D01*
X121353789Y-87662114D02*
X121449027Y-87662114D01*
X121449027Y-87662114D02*
X121544265Y-87709733D01*
X121544265Y-87709733D02*
X121591884Y-87757352D01*
X121591884Y-87757352D02*
X121639503Y-87852590D01*
X121639503Y-87852590D02*
X121687122Y-88043066D01*
X121687122Y-88043066D02*
X121687122Y-88281161D01*
X121687122Y-88281161D02*
X121639503Y-88471637D01*
X121639503Y-88471637D02*
X121591884Y-88566875D01*
X121591884Y-88566875D02*
X121544265Y-88614495D01*
X121544265Y-88614495D02*
X121449027Y-88662114D01*
X121449027Y-88662114D02*
X121353789Y-88662114D01*
X121353789Y-88662114D02*
X121258551Y-88614495D01*
X121258551Y-88614495D02*
X121210932Y-88566875D01*
X121210932Y-88566875D02*
X121163313Y-88471637D01*
X121163313Y-88471637D02*
X121115694Y-88281161D01*
X121115694Y-88281161D02*
X121115694Y-88043066D01*
X121115694Y-88043066D02*
X121163313Y-87852590D01*
X121163313Y-87852590D02*
X121210932Y-87757352D01*
X121210932Y-87757352D02*
X121258551Y-87709733D01*
X121258551Y-87709733D02*
X121353789Y-87662114D01*
X122068075Y-88662114D02*
X122306170Y-88662114D01*
X122306170Y-88662114D02*
X122306170Y-88471637D01*
X122306170Y-88471637D02*
X122210932Y-88424018D01*
X122210932Y-88424018D02*
X122115694Y-88328780D01*
X122115694Y-88328780D02*
X122068075Y-88185923D01*
X122068075Y-88185923D02*
X122068075Y-87947828D01*
X122068075Y-87947828D02*
X122115694Y-87804971D01*
X122115694Y-87804971D02*
X122210932Y-87709733D01*
X122210932Y-87709733D02*
X122353789Y-87662114D01*
X122353789Y-87662114D02*
X122544265Y-87662114D01*
X122544265Y-87662114D02*
X122687122Y-87709733D01*
X122687122Y-87709733D02*
X122782360Y-87804971D01*
X122782360Y-87804971D02*
X122829979Y-87947828D01*
X122829979Y-87947828D02*
X122829979Y-88185923D01*
X122829979Y-88185923D02*
X122782360Y-88328780D01*
X122782360Y-88328780D02*
X122687122Y-88424018D01*
X122687122Y-88424018D02*
X122591884Y-88471637D01*
X122591884Y-88471637D02*
X122591884Y-88662114D01*
X122591884Y-88662114D02*
X122829979Y-88662114D01*
X120354979Y-65442114D02*
X120021646Y-64965923D01*
X119783551Y-65442114D02*
X119783551Y-64442114D01*
X119783551Y-64442114D02*
X120164503Y-64442114D01*
X120164503Y-64442114D02*
X120259741Y-64489733D01*
X120259741Y-64489733D02*
X120307360Y-64537352D01*
X120307360Y-64537352D02*
X120354979Y-64632590D01*
X120354979Y-64632590D02*
X120354979Y-64775447D01*
X120354979Y-64775447D02*
X120307360Y-64870685D01*
X120307360Y-64870685D02*
X120259741Y-64918304D01*
X120259741Y-64918304D02*
X120164503Y-64965923D01*
X120164503Y-64965923D02*
X119783551Y-64965923D01*
X120783551Y-65442114D02*
X120783551Y-64442114D01*
X120783551Y-64442114D02*
X121354979Y-65442114D01*
X121354979Y-65442114D02*
X121354979Y-64442114D01*
X121783551Y-64537352D02*
X121831170Y-64489733D01*
X121831170Y-64489733D02*
X121926408Y-64442114D01*
X121926408Y-64442114D02*
X122164503Y-64442114D01*
X122164503Y-64442114D02*
X122259741Y-64489733D01*
X122259741Y-64489733D02*
X122307360Y-64537352D01*
X122307360Y-64537352D02*
X122354979Y-64632590D01*
X122354979Y-64632590D02*
X122354979Y-64727828D01*
X122354979Y-64727828D02*
X122307360Y-64870685D01*
X122307360Y-64870685D02*
X121735932Y-65442114D01*
X121735932Y-65442114D02*
X122354979Y-65442114D01*
X145999504Y-132780864D02*
X146618551Y-132780864D01*
X146618551Y-132780864D02*
X146285218Y-133161816D01*
X146285218Y-133161816D02*
X146428075Y-133161816D01*
X146428075Y-133161816D02*
X146523313Y-133209435D01*
X146523313Y-133209435D02*
X146570932Y-133257054D01*
X146570932Y-133257054D02*
X146618551Y-133352292D01*
X146618551Y-133352292D02*
X146618551Y-133590387D01*
X146618551Y-133590387D02*
X146570932Y-133685625D01*
X146570932Y-133685625D02*
X146523313Y-133733245D01*
X146523313Y-133733245D02*
X146428075Y-133780864D01*
X146428075Y-133780864D02*
X146142361Y-133780864D01*
X146142361Y-133780864D02*
X146047123Y-133733245D01*
X146047123Y-133733245D02*
X145999504Y-133685625D01*
X146951885Y-132780864D02*
X147570932Y-132780864D01*
X147570932Y-132780864D02*
X147237599Y-133161816D01*
X147237599Y-133161816D02*
X147380456Y-133161816D01*
X147380456Y-133161816D02*
X147475694Y-133209435D01*
X147475694Y-133209435D02*
X147523313Y-133257054D01*
X147523313Y-133257054D02*
X147570932Y-133352292D01*
X147570932Y-133352292D02*
X147570932Y-133590387D01*
X147570932Y-133590387D02*
X147523313Y-133685625D01*
X147523313Y-133685625D02*
X147475694Y-133733245D01*
X147475694Y-133733245D02*
X147380456Y-133780864D01*
X147380456Y-133780864D02*
X147094742Y-133780864D01*
X147094742Y-133780864D02*
X146999504Y-133733245D01*
X146999504Y-133733245D02*
X146951885Y-133685625D01*
X147951885Y-133780864D02*
X148189980Y-133780864D01*
X148189980Y-133780864D02*
X148189980Y-133590387D01*
X148189980Y-133590387D02*
X148094742Y-133542768D01*
X148094742Y-133542768D02*
X147999504Y-133447530D01*
X147999504Y-133447530D02*
X147951885Y-133304673D01*
X147951885Y-133304673D02*
X147951885Y-133066578D01*
X147951885Y-133066578D02*
X147999504Y-132923721D01*
X147999504Y-132923721D02*
X148094742Y-132828483D01*
X148094742Y-132828483D02*
X148237599Y-132780864D01*
X148237599Y-132780864D02*
X148428075Y-132780864D01*
X148428075Y-132780864D02*
X148570932Y-132828483D01*
X148570932Y-132828483D02*
X148666170Y-132923721D01*
X148666170Y-132923721D02*
X148713789Y-133066578D01*
X148713789Y-133066578D02*
X148713789Y-133304673D01*
X148713789Y-133304673D02*
X148666170Y-133447530D01*
X148666170Y-133447530D02*
X148570932Y-133542768D01*
X148570932Y-133542768D02*
X148475694Y-133590387D01*
X148475694Y-133590387D02*
X148475694Y-133780864D01*
X148475694Y-133780864D02*
X148713789Y-133780864D01*
X143803789Y-133780864D02*
X143470456Y-133304673D01*
X143232361Y-133780864D02*
X143232361Y-132780864D01*
X143232361Y-132780864D02*
X143613313Y-132780864D01*
X143613313Y-132780864D02*
X143708551Y-132828483D01*
X143708551Y-132828483D02*
X143756170Y-132876102D01*
X143756170Y-132876102D02*
X143803789Y-132971340D01*
X143803789Y-132971340D02*
X143803789Y-133114197D01*
X143803789Y-133114197D02*
X143756170Y-133209435D01*
X143756170Y-133209435D02*
X143708551Y-133257054D01*
X143708551Y-133257054D02*
X143613313Y-133304673D01*
X143613313Y-133304673D02*
X143232361Y-133304673D01*
X144375218Y-133209435D02*
X144279980Y-133161816D01*
X144279980Y-133161816D02*
X144232361Y-133114197D01*
X144232361Y-133114197D02*
X144184742Y-133018959D01*
X144184742Y-133018959D02*
X144184742Y-132971340D01*
X144184742Y-132971340D02*
X144232361Y-132876102D01*
X144232361Y-132876102D02*
X144279980Y-132828483D01*
X144279980Y-132828483D02*
X144375218Y-132780864D01*
X144375218Y-132780864D02*
X144565694Y-132780864D01*
X144565694Y-132780864D02*
X144660932Y-132828483D01*
X144660932Y-132828483D02*
X144708551Y-132876102D01*
X144708551Y-132876102D02*
X144756170Y-132971340D01*
X144756170Y-132971340D02*
X144756170Y-133018959D01*
X144756170Y-133018959D02*
X144708551Y-133114197D01*
X144708551Y-133114197D02*
X144660932Y-133161816D01*
X144660932Y-133161816D02*
X144565694Y-133209435D01*
X144565694Y-133209435D02*
X144375218Y-133209435D01*
X144375218Y-133209435D02*
X144279980Y-133257054D01*
X144279980Y-133257054D02*
X144232361Y-133304673D01*
X144232361Y-133304673D02*
X144184742Y-133399911D01*
X144184742Y-133399911D02*
X144184742Y-133590387D01*
X144184742Y-133590387D02*
X144232361Y-133685625D01*
X144232361Y-133685625D02*
X144279980Y-133733245D01*
X144279980Y-133733245D02*
X144375218Y-133780864D01*
X144375218Y-133780864D02*
X144565694Y-133780864D01*
X144565694Y-133780864D02*
X144660932Y-133733245D01*
X144660932Y-133733245D02*
X144708551Y-133685625D01*
X144708551Y-133685625D02*
X144756170Y-133590387D01*
X144756170Y-133590387D02*
X144756170Y-133399911D01*
X144756170Y-133399911D02*
X144708551Y-133304673D01*
X144708551Y-133304673D02*
X144660932Y-133257054D01*
X144660932Y-133257054D02*
X144565694Y-133209435D01*
X135880036Y-114735865D02*
X135927656Y-114688246D01*
X135927656Y-114688246D02*
X135975275Y-114735865D01*
X135975275Y-114735865D02*
X135927656Y-114783484D01*
X135927656Y-114783484D02*
X135880036Y-114735865D01*
X135880036Y-114735865D02*
X135975275Y-114735865D01*
X135975275Y-113735866D02*
X135975275Y-114307294D01*
X135975275Y-114021580D02*
X134975275Y-114021580D01*
X134975275Y-114021580D02*
X135118132Y-114116818D01*
X135118132Y-114116818D02*
X135213370Y-114212056D01*
X135213370Y-114212056D02*
X135260989Y-114307294D01*
X135308608Y-113307294D02*
X136308608Y-113307294D01*
X135832417Y-112831104D02*
X135927656Y-112783485D01*
X135927656Y-112783485D02*
X135975275Y-112688247D01*
X135832417Y-113307294D02*
X135927656Y-113259675D01*
X135927656Y-113259675D02*
X135975275Y-113164437D01*
X135975275Y-113164437D02*
X135975275Y-112973961D01*
X135975275Y-112973961D02*
X135927656Y-112878723D01*
X135927656Y-112878723D02*
X135832417Y-112831104D01*
X135832417Y-112831104D02*
X135308608Y-112831104D01*
X135451465Y-111926342D02*
X135451465Y-112259675D01*
X135975275Y-112259675D02*
X134975275Y-112259675D01*
X134975275Y-112259675D02*
X134975275Y-111783485D01*
D11*
X135377122Y-117996535D02*
X135336170Y-118037488D01*
X135336170Y-118037488D02*
X135213312Y-118078440D01*
X135213312Y-118078440D02*
X135131408Y-118078440D01*
X135131408Y-118078440D02*
X135008551Y-118037488D01*
X135008551Y-118037488D02*
X134926646Y-117955583D01*
X134926646Y-117955583D02*
X134885693Y-117873678D01*
X134885693Y-117873678D02*
X134844741Y-117709868D01*
X134844741Y-117709868D02*
X134844741Y-117587011D01*
X134844741Y-117587011D02*
X134885693Y-117423202D01*
X134885693Y-117423202D02*
X134926646Y-117341297D01*
X134926646Y-117341297D02*
X135008551Y-117259392D01*
X135008551Y-117259392D02*
X135131408Y-117218440D01*
X135131408Y-117218440D02*
X135213312Y-117218440D01*
X135213312Y-117218440D02*
X135336170Y-117259392D01*
X135336170Y-117259392D02*
X135377122Y-117300345D01*
X135663789Y-117218440D02*
X136196170Y-117218440D01*
X136196170Y-117218440D02*
X135909503Y-117546059D01*
X135909503Y-117546059D02*
X136032360Y-117546059D01*
X136032360Y-117546059D02*
X136114265Y-117587011D01*
X136114265Y-117587011D02*
X136155217Y-117627964D01*
X136155217Y-117627964D02*
X136196170Y-117709868D01*
X136196170Y-117709868D02*
X136196170Y-117914630D01*
X136196170Y-117914630D02*
X136155217Y-117996535D01*
X136155217Y-117996535D02*
X136114265Y-118037488D01*
X136114265Y-118037488D02*
X136032360Y-118078440D01*
X136032360Y-118078440D02*
X135786646Y-118078440D01*
X135786646Y-118078440D02*
X135704741Y-118037488D01*
X135704741Y-118037488D02*
X135663789Y-117996535D01*
D10*
X155037656Y-104071363D02*
X155085275Y-103928506D01*
X155085275Y-103928506D02*
X155085275Y-103690411D01*
X155085275Y-103690411D02*
X155037656Y-103595173D01*
X155037656Y-103595173D02*
X154990036Y-103547554D01*
X154990036Y-103547554D02*
X154894798Y-103499935D01*
X154894798Y-103499935D02*
X154799560Y-103499935D01*
X154799560Y-103499935D02*
X154704322Y-103547554D01*
X154704322Y-103547554D02*
X154656703Y-103595173D01*
X154656703Y-103595173D02*
X154609084Y-103690411D01*
X154609084Y-103690411D02*
X154561465Y-103880887D01*
X154561465Y-103880887D02*
X154513846Y-103976125D01*
X154513846Y-103976125D02*
X154466227Y-104023744D01*
X154466227Y-104023744D02*
X154370989Y-104071363D01*
X154370989Y-104071363D02*
X154275751Y-104071363D01*
X154275751Y-104071363D02*
X154180513Y-104023744D01*
X154180513Y-104023744D02*
X154132894Y-103976125D01*
X154132894Y-103976125D02*
X154085275Y-103880887D01*
X154085275Y-103880887D02*
X154085275Y-103642792D01*
X154085275Y-103642792D02*
X154132894Y-103499935D01*
X155085275Y-103071363D02*
X154085275Y-103071363D01*
X154085275Y-103071363D02*
X154085275Y-102690411D01*
X154085275Y-102690411D02*
X154132894Y-102595173D01*
X154132894Y-102595173D02*
X154180513Y-102547554D01*
X154180513Y-102547554D02*
X154275751Y-102499935D01*
X154275751Y-102499935D02*
X154418608Y-102499935D01*
X154418608Y-102499935D02*
X154513846Y-102547554D01*
X154513846Y-102547554D02*
X154561465Y-102595173D01*
X154561465Y-102595173D02*
X154609084Y-102690411D01*
X154609084Y-102690411D02*
X154609084Y-103071363D01*
X155085275Y-102071363D02*
X154085275Y-102071363D01*
X154704322Y-101595173D02*
X154704322Y-100833269D01*
X154894798Y-101023745D02*
X154704322Y-100833269D01*
X154704322Y-100833269D02*
X154513846Y-101023745D01*
X154513846Y-101404697D02*
X154704322Y-101595173D01*
X154704322Y-101595173D02*
X154894798Y-101404697D01*
X154561465Y-100023745D02*
X154609084Y-99880888D01*
X154609084Y-99880888D02*
X154656703Y-99833269D01*
X154656703Y-99833269D02*
X154751941Y-99785650D01*
X154751941Y-99785650D02*
X154894798Y-99785650D01*
X154894798Y-99785650D02*
X154990036Y-99833269D01*
X154990036Y-99833269D02*
X155037656Y-99880888D01*
X155037656Y-99880888D02*
X155085275Y-99976126D01*
X155085275Y-99976126D02*
X155085275Y-100357078D01*
X155085275Y-100357078D02*
X154085275Y-100357078D01*
X154085275Y-100357078D02*
X154085275Y-100023745D01*
X154085275Y-100023745D02*
X154132894Y-99928507D01*
X154132894Y-99928507D02*
X154180513Y-99880888D01*
X154180513Y-99880888D02*
X154275751Y-99833269D01*
X154275751Y-99833269D02*
X154370989Y-99833269D01*
X154370989Y-99833269D02*
X154466227Y-99880888D01*
X154466227Y-99880888D02*
X154513846Y-99928507D01*
X154513846Y-99928507D02*
X154561465Y-100023745D01*
X154561465Y-100023745D02*
X154561465Y-100357078D01*
X154085275Y-99357078D02*
X154894798Y-99357078D01*
X154894798Y-99357078D02*
X154990036Y-99309459D01*
X154990036Y-99309459D02*
X155037656Y-99261840D01*
X155037656Y-99261840D02*
X155085275Y-99166602D01*
X155085275Y-99166602D02*
X155085275Y-98976126D01*
X155085275Y-98976126D02*
X155037656Y-98880888D01*
X155037656Y-98880888D02*
X154990036Y-98833269D01*
X154990036Y-98833269D02*
X154894798Y-98785650D01*
X154894798Y-98785650D02*
X154085275Y-98785650D01*
X154561465Y-97976126D02*
X154561465Y-98309459D01*
X155085275Y-98309459D02*
X154085275Y-98309459D01*
X154085275Y-98309459D02*
X154085275Y-97833269D01*
X155462123Y-107264495D02*
X155604980Y-107312114D01*
X155604980Y-107312114D02*
X155843075Y-107312114D01*
X155843075Y-107312114D02*
X155938313Y-107264495D01*
X155938313Y-107264495D02*
X155985932Y-107216875D01*
X155985932Y-107216875D02*
X156033551Y-107121637D01*
X156033551Y-107121637D02*
X156033551Y-107026399D01*
X156033551Y-107026399D02*
X155985932Y-106931161D01*
X155985932Y-106931161D02*
X155938313Y-106883542D01*
X155938313Y-106883542D02*
X155843075Y-106835923D01*
X155843075Y-106835923D02*
X155652599Y-106788304D01*
X155652599Y-106788304D02*
X155557361Y-106740685D01*
X155557361Y-106740685D02*
X155509742Y-106693066D01*
X155509742Y-106693066D02*
X155462123Y-106597828D01*
X155462123Y-106597828D02*
X155462123Y-106502590D01*
X155462123Y-106502590D02*
X155509742Y-106407352D01*
X155509742Y-106407352D02*
X155557361Y-106359733D01*
X155557361Y-106359733D02*
X155652599Y-106312114D01*
X155652599Y-106312114D02*
X155890694Y-106312114D01*
X155890694Y-106312114D02*
X156033551Y-106359733D01*
X156366885Y-106312114D02*
X156604980Y-107312114D01*
X156604980Y-107312114D02*
X156795456Y-106597828D01*
X156795456Y-106597828D02*
X156985932Y-107312114D01*
X156985932Y-107312114D02*
X157224028Y-106312114D01*
X158128789Y-107312114D02*
X157557361Y-107312114D01*
X157843075Y-107312114D02*
X157843075Y-106312114D01*
X157843075Y-106312114D02*
X157747837Y-106454971D01*
X157747837Y-106454971D02*
X157652599Y-106550209D01*
X157652599Y-106550209D02*
X157557361Y-106597828D01*
X136077598Y-59362114D02*
X135506170Y-59362114D01*
X135791884Y-59362114D02*
X135791884Y-58362114D01*
X135791884Y-58362114D02*
X135696646Y-58504971D01*
X135696646Y-58504971D02*
X135601408Y-58600209D01*
X135601408Y-58600209D02*
X135506170Y-58647828D01*
X136696646Y-58362114D02*
X136791884Y-58362114D01*
X136791884Y-58362114D02*
X136887122Y-58409733D01*
X136887122Y-58409733D02*
X136934741Y-58457352D01*
X136934741Y-58457352D02*
X136982360Y-58552590D01*
X136982360Y-58552590D02*
X137029979Y-58743066D01*
X137029979Y-58743066D02*
X137029979Y-58981161D01*
X137029979Y-58981161D02*
X136982360Y-59171637D01*
X136982360Y-59171637D02*
X136934741Y-59266875D01*
X136934741Y-59266875D02*
X136887122Y-59314495D01*
X136887122Y-59314495D02*
X136791884Y-59362114D01*
X136791884Y-59362114D02*
X136696646Y-59362114D01*
X136696646Y-59362114D02*
X136601408Y-59314495D01*
X136601408Y-59314495D02*
X136553789Y-59266875D01*
X136553789Y-59266875D02*
X136506170Y-59171637D01*
X136506170Y-59171637D02*
X136458551Y-58981161D01*
X136458551Y-58981161D02*
X136458551Y-58743066D01*
X136458551Y-58743066D02*
X136506170Y-58552590D01*
X136506170Y-58552590D02*
X136553789Y-58457352D01*
X136553789Y-58457352D02*
X136601408Y-58409733D01*
X136601408Y-58409733D02*
X136696646Y-58362114D01*
X137458551Y-58695447D02*
X137458551Y-59695447D01*
X137934741Y-59219256D02*
X137982360Y-59314495D01*
X137982360Y-59314495D02*
X138077598Y-59362114D01*
X137458551Y-59219256D02*
X137506170Y-59314495D01*
X137506170Y-59314495D02*
X137601408Y-59362114D01*
X137601408Y-59362114D02*
X137791884Y-59362114D01*
X137791884Y-59362114D02*
X137887122Y-59314495D01*
X137887122Y-59314495D02*
X137934741Y-59219256D01*
X137934741Y-59219256D02*
X137934741Y-58695447D01*
X138839503Y-58838304D02*
X138506170Y-58838304D01*
X138506170Y-59362114D02*
X138506170Y-58362114D01*
X138506170Y-58362114D02*
X138982360Y-58362114D01*
X137053789Y-55786875D02*
X137006170Y-55834495D01*
X137006170Y-55834495D02*
X136863313Y-55882114D01*
X136863313Y-55882114D02*
X136768075Y-55882114D01*
X136768075Y-55882114D02*
X136625218Y-55834495D01*
X136625218Y-55834495D02*
X136529980Y-55739256D01*
X136529980Y-55739256D02*
X136482361Y-55644018D01*
X136482361Y-55644018D02*
X136434742Y-55453542D01*
X136434742Y-55453542D02*
X136434742Y-55310685D01*
X136434742Y-55310685D02*
X136482361Y-55120209D01*
X136482361Y-55120209D02*
X136529980Y-55024971D01*
X136529980Y-55024971D02*
X136625218Y-54929733D01*
X136625218Y-54929733D02*
X136768075Y-54882114D01*
X136768075Y-54882114D02*
X136863313Y-54882114D01*
X136863313Y-54882114D02*
X137006170Y-54929733D01*
X137006170Y-54929733D02*
X137053789Y-54977352D01*
X138006170Y-55882114D02*
X137434742Y-55882114D01*
X137720456Y-55882114D02*
X137720456Y-54882114D01*
X137720456Y-54882114D02*
X137625218Y-55024971D01*
X137625218Y-55024971D02*
X137529980Y-55120209D01*
X137529980Y-55120209D02*
X137434742Y-55167828D01*
X141424027Y-60882114D02*
X141424027Y-59882114D01*
X141424027Y-59882114D02*
X141804979Y-59882114D01*
X141804979Y-59882114D02*
X141900217Y-59929733D01*
X141900217Y-59929733D02*
X141947836Y-59977352D01*
X141947836Y-59977352D02*
X141995455Y-60072590D01*
X141995455Y-60072590D02*
X141995455Y-60215447D01*
X141995455Y-60215447D02*
X141947836Y-60310685D01*
X141947836Y-60310685D02*
X141900217Y-60358304D01*
X141900217Y-60358304D02*
X141804979Y-60405923D01*
X141804979Y-60405923D02*
X141424027Y-60405923D01*
X142328789Y-59882114D02*
X142566884Y-60882114D01*
X142566884Y-60882114D02*
X142757360Y-60167828D01*
X142757360Y-60167828D02*
X142947836Y-60882114D01*
X142947836Y-60882114D02*
X143185932Y-59882114D01*
X144138312Y-60882114D02*
X143804979Y-60405923D01*
X143566884Y-60882114D02*
X143566884Y-59882114D01*
X143566884Y-59882114D02*
X143947836Y-59882114D01*
X143947836Y-59882114D02*
X144043074Y-59929733D01*
X144043074Y-59929733D02*
X144090693Y-59977352D01*
X144090693Y-59977352D02*
X144138312Y-60072590D01*
X144138312Y-60072590D02*
X144138312Y-60215447D01*
X144138312Y-60215447D02*
X144090693Y-60310685D01*
X144090693Y-60310685D02*
X144043074Y-60358304D01*
X144043074Y-60358304D02*
X143947836Y-60405923D01*
X143947836Y-60405923D02*
X143566884Y-60405923D01*
X144328789Y-60977352D02*
X145090693Y-60977352D01*
X145804979Y-60882114D02*
X145328789Y-60882114D01*
X145328789Y-60882114D02*
X145328789Y-59882114D01*
X146138313Y-60358304D02*
X146471646Y-60358304D01*
X146614503Y-60882114D02*
X146138313Y-60882114D01*
X146138313Y-60882114D02*
X146138313Y-59882114D01*
X146138313Y-59882114D02*
X146614503Y-59882114D01*
X147043075Y-60882114D02*
X147043075Y-59882114D01*
X147043075Y-59882114D02*
X147281170Y-59882114D01*
X147281170Y-59882114D02*
X147424027Y-59929733D01*
X147424027Y-59929733D02*
X147519265Y-60024971D01*
X147519265Y-60024971D02*
X147566884Y-60120209D01*
X147566884Y-60120209D02*
X147614503Y-60310685D01*
X147614503Y-60310685D02*
X147614503Y-60453542D01*
X147614503Y-60453542D02*
X147566884Y-60644018D01*
X147566884Y-60644018D02*
X147519265Y-60739256D01*
X147519265Y-60739256D02*
X147424027Y-60834495D01*
X147424027Y-60834495D02*
X147281170Y-60882114D01*
X147281170Y-60882114D02*
X147043075Y-60882114D01*
D13*
X143784980Y-58096150D02*
X143784980Y-57296150D01*
X143784980Y-57296150D02*
X143975456Y-57296150D01*
X143975456Y-57296150D02*
X144089742Y-57334245D01*
X144089742Y-57334245D02*
X144165932Y-57410435D01*
X144165932Y-57410435D02*
X144204027Y-57486626D01*
X144204027Y-57486626D02*
X144242123Y-57639007D01*
X144242123Y-57639007D02*
X144242123Y-57753293D01*
X144242123Y-57753293D02*
X144204027Y-57905674D01*
X144204027Y-57905674D02*
X144165932Y-57981864D01*
X144165932Y-57981864D02*
X144089742Y-58058055D01*
X144089742Y-58058055D02*
X143975456Y-58096150D01*
X143975456Y-58096150D02*
X143784980Y-58096150D01*
X145004027Y-58096150D02*
X144546884Y-58096150D01*
X144775456Y-58096150D02*
X144775456Y-57296150D01*
X144775456Y-57296150D02*
X144699265Y-57410435D01*
X144699265Y-57410435D02*
X144623075Y-57486626D01*
X144623075Y-57486626D02*
X144546884Y-57524721D01*
D10*
X128163313Y-58262114D02*
X128734741Y-58262114D01*
X128449027Y-59262114D02*
X128449027Y-58262114D01*
X129068075Y-58738304D02*
X129401408Y-58738304D01*
X129544265Y-59262114D02*
X129068075Y-59262114D01*
X129068075Y-59262114D02*
X129068075Y-58262114D01*
X129068075Y-58262114D02*
X129544265Y-58262114D01*
X129925218Y-59214495D02*
X130068075Y-59262114D01*
X130068075Y-59262114D02*
X130306170Y-59262114D01*
X130306170Y-59262114D02*
X130401408Y-59214495D01*
X130401408Y-59214495D02*
X130449027Y-59166875D01*
X130449027Y-59166875D02*
X130496646Y-59071637D01*
X130496646Y-59071637D02*
X130496646Y-58976399D01*
X130496646Y-58976399D02*
X130449027Y-58881161D01*
X130449027Y-58881161D02*
X130401408Y-58833542D01*
X130401408Y-58833542D02*
X130306170Y-58785923D01*
X130306170Y-58785923D02*
X130115694Y-58738304D01*
X130115694Y-58738304D02*
X130020456Y-58690685D01*
X130020456Y-58690685D02*
X129972837Y-58643066D01*
X129972837Y-58643066D02*
X129925218Y-58547828D01*
X129925218Y-58547828D02*
X129925218Y-58452590D01*
X129925218Y-58452590D02*
X129972837Y-58357352D01*
X129972837Y-58357352D02*
X130020456Y-58309733D01*
X130020456Y-58309733D02*
X130115694Y-58262114D01*
X130115694Y-58262114D02*
X130353789Y-58262114D01*
X130353789Y-58262114D02*
X130496646Y-58309733D01*
X130782361Y-58262114D02*
X131353789Y-58262114D01*
X131068075Y-59262114D02*
X131068075Y-58262114D01*
X131449028Y-59357352D02*
X132210932Y-59357352D01*
X132449028Y-59262114D02*
X132449028Y-58262114D01*
X132449028Y-58262114D02*
X132829980Y-58262114D01*
X132829980Y-58262114D02*
X132925218Y-58309733D01*
X132925218Y-58309733D02*
X132972837Y-58357352D01*
X132972837Y-58357352D02*
X133020456Y-58452590D01*
X133020456Y-58452590D02*
X133020456Y-58595447D01*
X133020456Y-58595447D02*
X132972837Y-58690685D01*
X132972837Y-58690685D02*
X132925218Y-58738304D01*
X132925218Y-58738304D02*
X132829980Y-58785923D01*
X132829980Y-58785923D02*
X132449028Y-58785923D01*
X133306171Y-58262114D02*
X133877599Y-58262114D01*
X133591885Y-59262114D02*
X133591885Y-58262114D01*
X130575275Y-55510628D02*
X131289560Y-55510628D01*
X131289560Y-55510628D02*
X131432417Y-55558247D01*
X131432417Y-55558247D02*
X131527656Y-55653485D01*
X131527656Y-55653485D02*
X131575275Y-55796342D01*
X131575275Y-55796342D02*
X131575275Y-55891580D01*
X131575275Y-55034437D02*
X130575275Y-55034437D01*
X130575275Y-55034437D02*
X130575275Y-54653485D01*
X130575275Y-54653485D02*
X130622894Y-54558247D01*
X130622894Y-54558247D02*
X130670513Y-54510628D01*
X130670513Y-54510628D02*
X130765751Y-54463009D01*
X130765751Y-54463009D02*
X130908608Y-54463009D01*
X130908608Y-54463009D02*
X131003846Y-54510628D01*
X131003846Y-54510628D02*
X131051465Y-54558247D01*
X131051465Y-54558247D02*
X131099084Y-54653485D01*
X131099084Y-54653485D02*
X131099084Y-55034437D01*
X131575275Y-53510628D02*
X131575275Y-54082056D01*
X131575275Y-53796342D02*
X130575275Y-53796342D01*
X130575275Y-53796342D02*
X130718132Y-53891580D01*
X130718132Y-53891580D02*
X130813370Y-53986818D01*
X130813370Y-53986818D02*
X130860989Y-54082056D01*
X145999504Y-126468364D02*
X146618551Y-126468364D01*
X146618551Y-126468364D02*
X146285218Y-126849316D01*
X146285218Y-126849316D02*
X146428075Y-126849316D01*
X146428075Y-126849316D02*
X146523313Y-126896935D01*
X146523313Y-126896935D02*
X146570932Y-126944554D01*
X146570932Y-126944554D02*
X146618551Y-127039792D01*
X146618551Y-127039792D02*
X146618551Y-127277887D01*
X146618551Y-127277887D02*
X146570932Y-127373125D01*
X146570932Y-127373125D02*
X146523313Y-127420745D01*
X146523313Y-127420745D02*
X146428075Y-127468364D01*
X146428075Y-127468364D02*
X146142361Y-127468364D01*
X146142361Y-127468364D02*
X146047123Y-127420745D01*
X146047123Y-127420745D02*
X145999504Y-127373125D01*
X146951885Y-126468364D02*
X147570932Y-126468364D01*
X147570932Y-126468364D02*
X147237599Y-126849316D01*
X147237599Y-126849316D02*
X147380456Y-126849316D01*
X147380456Y-126849316D02*
X147475694Y-126896935D01*
X147475694Y-126896935D02*
X147523313Y-126944554D01*
X147523313Y-126944554D02*
X147570932Y-127039792D01*
X147570932Y-127039792D02*
X147570932Y-127277887D01*
X147570932Y-127277887D02*
X147523313Y-127373125D01*
X147523313Y-127373125D02*
X147475694Y-127420745D01*
X147475694Y-127420745D02*
X147380456Y-127468364D01*
X147380456Y-127468364D02*
X147094742Y-127468364D01*
X147094742Y-127468364D02*
X146999504Y-127420745D01*
X146999504Y-127420745D02*
X146951885Y-127373125D01*
X147951885Y-127468364D02*
X148189980Y-127468364D01*
X148189980Y-127468364D02*
X148189980Y-127277887D01*
X148189980Y-127277887D02*
X148094742Y-127230268D01*
X148094742Y-127230268D02*
X147999504Y-127135030D01*
X147999504Y-127135030D02*
X147951885Y-126992173D01*
X147951885Y-126992173D02*
X147951885Y-126754078D01*
X147951885Y-126754078D02*
X147999504Y-126611221D01*
X147999504Y-126611221D02*
X148094742Y-126515983D01*
X148094742Y-126515983D02*
X148237599Y-126468364D01*
X148237599Y-126468364D02*
X148428075Y-126468364D01*
X148428075Y-126468364D02*
X148570932Y-126515983D01*
X148570932Y-126515983D02*
X148666170Y-126611221D01*
X148666170Y-126611221D02*
X148713789Y-126754078D01*
X148713789Y-126754078D02*
X148713789Y-126992173D01*
X148713789Y-126992173D02*
X148666170Y-127135030D01*
X148666170Y-127135030D02*
X148570932Y-127230268D01*
X148570932Y-127230268D02*
X148475694Y-127277887D01*
X148475694Y-127277887D02*
X148475694Y-127468364D01*
X148475694Y-127468364D02*
X148713789Y-127468364D01*
X143803789Y-127468364D02*
X143470456Y-126992173D01*
X143232361Y-127468364D02*
X143232361Y-126468364D01*
X143232361Y-126468364D02*
X143613313Y-126468364D01*
X143613313Y-126468364D02*
X143708551Y-126515983D01*
X143708551Y-126515983D02*
X143756170Y-126563602D01*
X143756170Y-126563602D02*
X143803789Y-126658840D01*
X143803789Y-126658840D02*
X143803789Y-126801697D01*
X143803789Y-126801697D02*
X143756170Y-126896935D01*
X143756170Y-126896935D02*
X143708551Y-126944554D01*
X143708551Y-126944554D02*
X143613313Y-126992173D01*
X143613313Y-126992173D02*
X143232361Y-126992173D01*
X144660932Y-126468364D02*
X144470456Y-126468364D01*
X144470456Y-126468364D02*
X144375218Y-126515983D01*
X144375218Y-126515983D02*
X144327599Y-126563602D01*
X144327599Y-126563602D02*
X144232361Y-126706459D01*
X144232361Y-126706459D02*
X144184742Y-126896935D01*
X144184742Y-126896935D02*
X144184742Y-127277887D01*
X144184742Y-127277887D02*
X144232361Y-127373125D01*
X144232361Y-127373125D02*
X144279980Y-127420745D01*
X144279980Y-127420745D02*
X144375218Y-127468364D01*
X144375218Y-127468364D02*
X144565694Y-127468364D01*
X144565694Y-127468364D02*
X144660932Y-127420745D01*
X144660932Y-127420745D02*
X144708551Y-127373125D01*
X144708551Y-127373125D02*
X144756170Y-127277887D01*
X144756170Y-127277887D02*
X144756170Y-127039792D01*
X144756170Y-127039792D02*
X144708551Y-126944554D01*
X144708551Y-126944554D02*
X144660932Y-126896935D01*
X144660932Y-126896935D02*
X144565694Y-126849316D01*
X144565694Y-126849316D02*
X144375218Y-126849316D01*
X144375218Y-126849316D02*
X144279980Y-126896935D01*
X144279980Y-126896935D02*
X144232361Y-126944554D01*
X144232361Y-126944554D02*
X144184742Y-127039792D01*
X134106170Y-134764495D02*
X134249027Y-134812114D01*
X134249027Y-134812114D02*
X134487122Y-134812114D01*
X134487122Y-134812114D02*
X134582360Y-134764495D01*
X134582360Y-134764495D02*
X134629979Y-134716875D01*
X134629979Y-134716875D02*
X134677598Y-134621637D01*
X134677598Y-134621637D02*
X134677598Y-134526399D01*
X134677598Y-134526399D02*
X134629979Y-134431161D01*
X134629979Y-134431161D02*
X134582360Y-134383542D01*
X134582360Y-134383542D02*
X134487122Y-134335923D01*
X134487122Y-134335923D02*
X134296646Y-134288304D01*
X134296646Y-134288304D02*
X134201408Y-134240685D01*
X134201408Y-134240685D02*
X134153789Y-134193066D01*
X134153789Y-134193066D02*
X134106170Y-134097828D01*
X134106170Y-134097828D02*
X134106170Y-134002590D01*
X134106170Y-134002590D02*
X134153789Y-133907352D01*
X134153789Y-133907352D02*
X134201408Y-133859733D01*
X134201408Y-133859733D02*
X134296646Y-133812114D01*
X134296646Y-133812114D02*
X134534741Y-133812114D01*
X134534741Y-133812114D02*
X134677598Y-133859733D01*
X135106170Y-134812114D02*
X135106170Y-133812114D01*
X135106170Y-133812114D02*
X135487122Y-133812114D01*
X135487122Y-133812114D02*
X135582360Y-133859733D01*
X135582360Y-133859733D02*
X135629979Y-133907352D01*
X135629979Y-133907352D02*
X135677598Y-134002590D01*
X135677598Y-134002590D02*
X135677598Y-134145447D01*
X135677598Y-134145447D02*
X135629979Y-134240685D01*
X135629979Y-134240685D02*
X135582360Y-134288304D01*
X135582360Y-134288304D02*
X135487122Y-134335923D01*
X135487122Y-134335923D02*
X135106170Y-134335923D01*
X136106170Y-134812114D02*
X136106170Y-133812114D01*
X137201408Y-133812114D02*
X137772836Y-133812114D01*
X137487122Y-134812114D02*
X137487122Y-133812114D01*
X138058551Y-134526399D02*
X138534741Y-134526399D01*
X137963313Y-134812114D02*
X138296646Y-133812114D01*
X138296646Y-133812114D02*
X138629979Y-134812114D01*
X138963313Y-134812114D02*
X138963313Y-133812114D01*
X138963313Y-133812114D02*
X139344265Y-133812114D01*
X139344265Y-133812114D02*
X139439503Y-133859733D01*
X139439503Y-133859733D02*
X139487122Y-133907352D01*
X139487122Y-133907352D02*
X139534741Y-134002590D01*
X139534741Y-134002590D02*
X139534741Y-134145447D01*
X139534741Y-134145447D02*
X139487122Y-134240685D01*
X139487122Y-134240685D02*
X139439503Y-134288304D01*
X139439503Y-134288304D02*
X139344265Y-134335923D01*
X139344265Y-134335923D02*
X138963313Y-134335923D01*
X136275275Y-127280628D02*
X136989560Y-127280628D01*
X136989560Y-127280628D02*
X137132417Y-127328247D01*
X137132417Y-127328247D02*
X137227656Y-127423485D01*
X137227656Y-127423485D02*
X137275275Y-127566342D01*
X137275275Y-127566342D02*
X137275275Y-127661580D01*
X137275275Y-126280628D02*
X137275275Y-126852056D01*
X137275275Y-126566342D02*
X136275275Y-126566342D01*
X136275275Y-126566342D02*
X136418132Y-126661580D01*
X136418132Y-126661580D02*
X136513370Y-126756818D01*
X136513370Y-126756818D02*
X136560989Y-126852056D01*
D12*
%TO.C,R2*%
X140915456Y-52882295D02*
X142845456Y-52882295D01*
X142845456Y-51632295D02*
X142845456Y-54132295D01*
X142845456Y-54132295D02*
X149145456Y-54132295D01*
X149145456Y-51632295D02*
X142845456Y-51632295D01*
X149145456Y-54132295D02*
X149145456Y-51632295D01*
X151075456Y-52882295D02*
X149145456Y-52882295D01*
%TO.C,R7*%
X140820456Y-130169795D02*
X142750456Y-130169795D01*
X142750456Y-128919795D02*
X142750456Y-131419795D01*
X142750456Y-131419795D02*
X149050456Y-131419795D01*
X149050456Y-128919795D02*
X142750456Y-128919795D01*
X149050456Y-131419795D02*
X149050456Y-128919795D01*
X150980456Y-130169795D02*
X149050456Y-130169795D01*
%TO.C,R5*%
X140840456Y-123857295D02*
X142770456Y-123857295D01*
X142770456Y-122607295D02*
X142770456Y-125107295D01*
X142770456Y-125107295D02*
X149070456Y-125107295D01*
X149070456Y-122607295D02*
X142770456Y-122607295D01*
X149070456Y-125107295D02*
X149070456Y-122607295D01*
X151000456Y-123857295D02*
X149070456Y-123857295D01*
%TO.C,R4*%
X140865456Y-120701045D02*
X142795456Y-120701045D01*
X142795456Y-119451045D02*
X142795456Y-121951045D01*
X142795456Y-121951045D02*
X149095456Y-121951045D01*
X149095456Y-119451045D02*
X142795456Y-119451045D01*
X149095456Y-121951045D02*
X149095456Y-119451045D01*
X151025456Y-120701045D02*
X149095456Y-120701045D01*
%TO.C,RN1*%
X122955456Y-93782295D02*
X122955456Y-96282295D01*
X122955456Y-96282295D02*
X143315456Y-96282295D01*
X140755456Y-96282295D02*
X140755456Y-93782295D01*
X143315456Y-93782295D02*
X122955456Y-93782295D01*
X143315456Y-96282295D02*
X143315456Y-93782295D01*
%TO.C,U1*%
X137140456Y-71577295D02*
X138140456Y-70577295D01*
X138140456Y-70577295D02*
X137140456Y-69577295D01*
X137120455Y-61452296D02*
X151140455Y-61452296D01*
X151140455Y-91602296D01*
X137120455Y-91602296D01*
X137120455Y-61452296D01*
%TO.C,C2*%
X148095456Y-101157295D02*
X148095456Y-105457295D01*
X148095456Y-105457295D02*
X149995456Y-105457295D01*
X149995456Y-101157295D02*
X148095456Y-101157295D01*
X149995456Y-105457295D02*
X149995456Y-101157295D01*
%TO.C,U3*%
X138775456Y-110647295D02*
X158095456Y-110647295D01*
X138775456Y-116997295D02*
X138775456Y-110647295D01*
X158095456Y-110647295D02*
X159095456Y-111647295D01*
X159095456Y-111647295D02*
X159095456Y-116997295D01*
X159095456Y-116997295D02*
X138775456Y-116997295D01*
%TO.C,U2*%
X120510456Y-99742295D02*
X144910456Y-99742295D01*
X120510456Y-106092295D02*
X120510456Y-99742295D01*
X144910456Y-99742295D02*
X145910456Y-100742295D01*
X145910456Y-100742295D02*
X145910456Y-106092295D01*
X145910456Y-106092295D02*
X120510456Y-106092295D01*
%TO.C,R1*%
X159420456Y-97582295D02*
X159420456Y-103882295D01*
X159420456Y-103882295D02*
X161920456Y-103882295D01*
X160670456Y-95652295D02*
X160670456Y-97582295D01*
X160670456Y-105812295D02*
X160670456Y-103882295D01*
X161920456Y-97582295D02*
X159420456Y-97582295D01*
X161920456Y-103882295D02*
X161920456Y-97582295D01*
%TO.C,BAR1*%
X125130456Y-89169796D02*
X125130456Y-63769796D01*
X134020456Y-89169796D02*
X125130456Y-89169796D01*
X134020456Y-89169796D02*
X135290456Y-87899796D01*
X135290456Y-63769796D02*
X125130456Y-63769796D01*
X135290456Y-87899796D02*
X135290456Y-63769796D01*
%TO.C,R3*%
X150670456Y-97582295D02*
X150670456Y-103882295D01*
X150670456Y-103882295D02*
X153170456Y-103882295D01*
X151920456Y-95652295D02*
X151920456Y-97582295D01*
X151920456Y-105812295D02*
X151920456Y-103882295D01*
X153170456Y-97582295D02*
X150670456Y-97582295D01*
X153170456Y-103882295D02*
X153170456Y-97582295D01*
%TO.C,RN2*%
X119795456Y-66407296D02*
X119795456Y-86767296D01*
X119795456Y-84207296D02*
X122295456Y-84207296D01*
X119795456Y-86767296D02*
X122295456Y-86767296D01*
X122295456Y-66407296D02*
X119795456Y-66407296D01*
X122295456Y-86767296D02*
X122295456Y-66407296D01*
%TO.C,R8*%
X140840456Y-133326045D02*
X142770456Y-133326045D01*
X142770456Y-132076045D02*
X142770456Y-134576045D01*
X142770456Y-134576045D02*
X149070456Y-134576045D01*
X149070456Y-132076045D02*
X142770456Y-132076045D01*
X149070456Y-134576045D02*
X149070456Y-132076045D01*
X151000456Y-133326045D02*
X149070456Y-133326045D01*
%TO.C,C3*%
X134570456Y-111157295D02*
X134570456Y-115457295D01*
X134570456Y-115457295D02*
X136470456Y-115457295D01*
X136470456Y-111157295D02*
X134570456Y-111157295D01*
X136470456Y-115457295D02*
X136470456Y-111157295D01*
%TO.C,SW1*%
X155520456Y-105732295D02*
X158020456Y-105732295D01*
X158020456Y-95732295D01*
X155520456Y-95732295D01*
X155520456Y-105732295D01*
%TO.C,C1*%
X134526484Y-55858795D02*
X135156484Y-55858795D01*
X134841484Y-55543795D02*
X134841484Y-56173795D01*
X140370456Y-57232295D02*
G75*
G02*
X134070456Y-57232295I-3150000J0D01*
G01*
X134070456Y-57232295D02*
G75*
G02*
X140370456Y-57232295I3150000J0D01*
G01*
%TO.C,D1*%
X145875456Y-58898485D02*
X145875456Y-56566105D01*
X145875456Y-58898485D02*
G75*
G02*
X145875410Y-56566046I-1500000J1166190D01*
G01*
X145875456Y-57732295D02*
G75*
G02*
X142875456Y-57732295I-1500000J0D01*
G01*
X142875456Y-57732295D02*
G75*
G02*
X145875456Y-57732295I1500000J0D01*
G01*
%TO.C,JP1*%
X129850456Y-52772295D02*
X130485456Y-52137295D01*
X129850456Y-57217295D02*
X129850456Y-52772295D01*
X130485456Y-52137295D02*
X132390456Y-52137295D01*
X132390456Y-52137295D02*
X132390456Y-57217295D01*
X132390456Y-57217295D02*
X129850456Y-57217295D01*
%TO.C,R6*%
X140820456Y-127013545D02*
X142750456Y-127013545D01*
X142750456Y-125763545D02*
X142750456Y-128263545D01*
X142750456Y-128263545D02*
X149050456Y-128263545D01*
X149050456Y-125763545D02*
X142750456Y-125763545D01*
X149050456Y-128263545D02*
X149050456Y-125763545D01*
X150980456Y-127013545D02*
X149050456Y-127013545D01*
%TO.C,J1*%
X135550456Y-121232295D02*
X136185456Y-120597295D01*
X135550456Y-133297295D02*
X135550456Y-121232295D01*
X136185456Y-120597295D02*
X138090456Y-120597295D01*
X138090456Y-120597295D02*
X138090456Y-133297295D01*
X138090456Y-133297295D02*
X135550456Y-133297295D01*
%TD*%
M02*
