%TF.GenerationSoftware,KiCad,Pcbnew,9.0.1+1*%
%TF.CreationDate,2026-04-07T17:50:23+00:00*%
%TF.ProjectId,CSC202_LED_MODULE,43534332-3032-45f4-9c45-445f4d4f4455,A*%
%TF.SameCoordinates,Original*%
%TF.FileFunction,Legend,Bot*%
%TF.FilePolarity,Positive*%
%FSLAX46Y46*%
G04 Gerber Fmt 4.6, Leading zero omitted, Abs format (unit mm)*
G04 Created by KiCad (PCBNEW 9.0.1+1) date 2026-04-07 17:50:23*
%MOMM*%
%LPD*%
G01*
G04 APERTURE LIST*
%ADD10C,0.200000*%
%ADD11C,0.220000*%
%ADD12C,0.150000*%
%ADD13C,0.000000*%
%ADD14C,0.120000*%
G04 APERTURE END LIST*
D10*
X151356171Y-84243008D02*
X159231171Y-84243008D01*
X159231171Y-93418008D01*
X151356171Y-93418008D01*
X151356171Y-84243008D01*
D11*
G36*
X125068101Y-135391235D02*
G01*
X124934046Y-135391235D01*
X124818474Y-135352712D01*
X124744694Y-135278932D01*
X124705697Y-135200939D01*
X124659529Y-135016264D01*
X124659529Y-134886207D01*
X124705697Y-134701531D01*
X124744694Y-134623538D01*
X124818474Y-134549759D01*
X124934046Y-134511235D01*
X125068101Y-134511235D01*
X125068101Y-135391235D01*
G37*
G36*
X127296037Y-135733457D02*
G01*
X121438468Y-135733457D01*
X121438468Y-134379775D01*
X121560690Y-134379775D01*
X121560690Y-134422695D01*
X121577114Y-134462348D01*
X121607463Y-134492697D01*
X121647116Y-134509121D01*
X121668576Y-134511235D01*
X122082386Y-134511235D01*
X122082386Y-134815045D01*
X121825719Y-134815045D01*
X121804259Y-134817159D01*
X121764606Y-134833583D01*
X121734257Y-134863932D01*
X121717833Y-134903585D01*
X121717833Y-134946505D01*
X121734257Y-134986158D01*
X121764606Y-135016507D01*
X121804259Y-135032931D01*
X121825719Y-135035045D01*
X122082386Y-135035045D01*
X122082386Y-135501235D01*
X122084500Y-135522695D01*
X122100924Y-135562348D01*
X122131273Y-135592697D01*
X122170926Y-135609121D01*
X122213846Y-135609121D01*
X122253499Y-135592697D01*
X122283848Y-135562348D01*
X122300272Y-135522695D01*
X122302386Y-135501235D01*
X122302386Y-134401235D01*
X122606196Y-134401235D01*
X122606196Y-135501235D01*
X122608310Y-135522695D01*
X122624734Y-135562348D01*
X122655083Y-135592697D01*
X122694736Y-135609121D01*
X122737656Y-135609121D01*
X122777309Y-135592697D01*
X122807658Y-135562348D01*
X122824082Y-135522695D01*
X122826196Y-135501235D01*
X122826196Y-135060728D01*
X123132120Y-135060728D01*
X123132120Y-135103648D01*
X123148544Y-135143301D01*
X123178893Y-135173650D01*
X123218546Y-135190074D01*
X123240006Y-135192188D01*
X124078101Y-135192188D01*
X124099561Y-135190074D01*
X124139214Y-135173650D01*
X124169563Y-135143301D01*
X124185987Y-135103648D01*
X124185987Y-135060728D01*
X124169563Y-135021075D01*
X124139214Y-134990726D01*
X124099561Y-134974302D01*
X124078101Y-134972188D01*
X123240006Y-134972188D01*
X123218546Y-134974302D01*
X123178893Y-134990726D01*
X123148544Y-135021075D01*
X123132120Y-135060728D01*
X122826196Y-135060728D01*
X122826196Y-134872664D01*
X124439529Y-134872664D01*
X124439529Y-135029807D01*
X124439897Y-135033549D01*
X124439659Y-135035154D01*
X124440847Y-135043193D01*
X124441643Y-135051267D01*
X124442262Y-135052762D01*
X124442813Y-135056486D01*
X124495194Y-135266010D01*
X124495760Y-135267596D01*
X124495817Y-135268385D01*
X124499228Y-135277301D01*
X124502450Y-135286316D01*
X124502921Y-135286952D01*
X124503523Y-135288524D01*
X124555904Y-135393286D01*
X124561719Y-135402523D01*
X124562830Y-135405205D01*
X124565308Y-135408225D01*
X124567392Y-135411535D01*
X124569585Y-135413437D01*
X124576509Y-135421875D01*
X124681271Y-135526637D01*
X124697941Y-135540317D01*
X124701592Y-135541829D01*
X124704578Y-135544419D01*
X124724269Y-135553210D01*
X124881412Y-135605590D01*
X124892051Y-135608009D01*
X124894736Y-135609121D01*
X124898627Y-135609504D01*
X124902439Y-135610371D01*
X124905335Y-135610165D01*
X124916196Y-135611235D01*
X125178101Y-135611235D01*
X125199561Y-135609121D01*
X125239214Y-135592697D01*
X125269563Y-135562348D01*
X125285987Y-135522695D01*
X125288101Y-135501235D01*
X125288101Y-134401235D01*
X125285987Y-134379775D01*
X125541643Y-134379775D01*
X125541643Y-134422695D01*
X125558067Y-134462348D01*
X125588416Y-134492697D01*
X125628069Y-134509121D01*
X125649529Y-134511235D01*
X126063339Y-134511235D01*
X126063339Y-134815045D01*
X125806672Y-134815045D01*
X125785212Y-134817159D01*
X125745559Y-134833583D01*
X125715210Y-134863932D01*
X125698786Y-134903585D01*
X125698786Y-134946505D01*
X125715210Y-134986158D01*
X125745559Y-135016507D01*
X125785212Y-135032931D01*
X125806672Y-135035045D01*
X126063339Y-135035045D01*
X126063339Y-135391235D01*
X125649529Y-135391235D01*
X125628069Y-135393349D01*
X125588416Y-135409773D01*
X125558067Y-135440122D01*
X125541643Y-135479775D01*
X125541643Y-135522695D01*
X125558067Y-135562348D01*
X125588416Y-135592697D01*
X125628069Y-135609121D01*
X125649529Y-135611235D01*
X126173339Y-135611235D01*
X126194799Y-135609121D01*
X126234452Y-135592697D01*
X126264801Y-135562348D01*
X126281225Y-135522695D01*
X126283339Y-135501235D01*
X126283339Y-135479775D01*
X126432119Y-135479775D01*
X126432119Y-135522695D01*
X126448543Y-135562348D01*
X126478892Y-135592697D01*
X126518545Y-135609121D01*
X126540005Y-135611235D01*
X127063815Y-135611235D01*
X127085275Y-135609121D01*
X127124928Y-135592697D01*
X127155277Y-135562348D01*
X127171701Y-135522695D01*
X127173815Y-135501235D01*
X127173815Y-134401235D01*
X127171701Y-134379775D01*
X127155277Y-134340122D01*
X127124928Y-134309773D01*
X127085275Y-134293349D01*
X127042355Y-134293349D01*
X127002702Y-134309773D01*
X126972353Y-134340122D01*
X126955929Y-134379775D01*
X126953815Y-134401235D01*
X126953815Y-135391235D01*
X126540005Y-135391235D01*
X126518545Y-135393349D01*
X126478892Y-135409773D01*
X126448543Y-135440122D01*
X126432119Y-135479775D01*
X126283339Y-135479775D01*
X126283339Y-134401235D01*
X126281225Y-134379775D01*
X126264801Y-134340122D01*
X126234452Y-134309773D01*
X126194799Y-134293349D01*
X126173339Y-134291235D01*
X125649529Y-134291235D01*
X125628069Y-134293349D01*
X125588416Y-134309773D01*
X125558067Y-134340122D01*
X125541643Y-134379775D01*
X125285987Y-134379775D01*
X125269563Y-134340122D01*
X125239214Y-134309773D01*
X125199561Y-134293349D01*
X125178101Y-134291235D01*
X124916196Y-134291235D01*
X124905335Y-134292304D01*
X124902438Y-134292099D01*
X124898625Y-134292965D01*
X124894736Y-134293349D01*
X124892052Y-134294460D01*
X124881411Y-134296880D01*
X124724268Y-134349261D01*
X124704578Y-134358053D01*
X124701593Y-134360640D01*
X124697941Y-134362154D01*
X124681271Y-134375834D01*
X124576509Y-134480596D01*
X124569585Y-134489033D01*
X124567392Y-134490936D01*
X124565308Y-134494245D01*
X124562830Y-134497266D01*
X124561719Y-134499947D01*
X124555904Y-134509185D01*
X124503523Y-134613947D01*
X124502921Y-134615518D01*
X124502450Y-134616155D01*
X124499228Y-134625169D01*
X124495817Y-134634086D01*
X124495760Y-134634874D01*
X124495194Y-134636461D01*
X124442813Y-134845985D01*
X124442262Y-134849708D01*
X124441643Y-134851204D01*
X124440847Y-134859277D01*
X124439659Y-134867317D01*
X124439897Y-134868921D01*
X124439529Y-134872664D01*
X122826196Y-134872664D01*
X122826196Y-134401235D01*
X122824082Y-134379775D01*
X122807658Y-134340122D01*
X122777309Y-134309773D01*
X122737656Y-134293349D01*
X122694736Y-134293349D01*
X122655083Y-134309773D01*
X122624734Y-134340122D01*
X122608310Y-134379775D01*
X122606196Y-134401235D01*
X122302386Y-134401235D01*
X122300272Y-134379775D01*
X122283848Y-134340122D01*
X122253499Y-134309773D01*
X122213846Y-134293349D01*
X122192386Y-134291235D01*
X121668576Y-134291235D01*
X121647116Y-134293349D01*
X121607463Y-134309773D01*
X121577114Y-134340122D01*
X121560690Y-134379775D01*
X121438468Y-134379775D01*
X121438468Y-134169013D01*
X127296037Y-134169013D01*
X127296037Y-135733457D01*
G37*
D10*
X123229415Y-122624514D02*
X123705605Y-122624514D01*
X123705605Y-122624514D02*
X123705605Y-121624514D01*
X122896081Y-122100704D02*
X122562748Y-122100704D01*
X122419891Y-122624514D02*
X122896081Y-122624514D01*
X122896081Y-122624514D02*
X122896081Y-121624514D01*
X122896081Y-121624514D02*
X122419891Y-121624514D01*
X121991319Y-122624514D02*
X121991319Y-121624514D01*
X121991319Y-121624514D02*
X121753224Y-121624514D01*
X121753224Y-121624514D02*
X121610367Y-121672133D01*
X121610367Y-121672133D02*
X121515129Y-121767371D01*
X121515129Y-121767371D02*
X121467510Y-121862609D01*
X121467510Y-121862609D02*
X121419891Y-122053085D01*
X121419891Y-122053085D02*
X121419891Y-122195942D01*
X121419891Y-122195942D02*
X121467510Y-122386418D01*
X121467510Y-122386418D02*
X121515129Y-122481656D01*
X121515129Y-122481656D02*
X121610367Y-122576895D01*
X121610367Y-122576895D02*
X121753224Y-122624514D01*
X121753224Y-122624514D02*
X121991319Y-122624514D01*
X121086557Y-121624514D02*
X120467510Y-121624514D01*
X120467510Y-121624514D02*
X120800843Y-122005466D01*
X120800843Y-122005466D02*
X120657986Y-122005466D01*
X120657986Y-122005466D02*
X120562748Y-122053085D01*
X120562748Y-122053085D02*
X120515129Y-122100704D01*
X120515129Y-122100704D02*
X120467510Y-122195942D01*
X120467510Y-122195942D02*
X120467510Y-122434037D01*
X120467510Y-122434037D02*
X120515129Y-122529275D01*
X120515129Y-122529275D02*
X120562748Y-122576895D01*
X120562748Y-122576895D02*
X120657986Y-122624514D01*
X120657986Y-122624514D02*
X120943700Y-122624514D01*
X120943700Y-122624514D02*
X121038938Y-122576895D01*
X121038938Y-122576895D02*
X121086557Y-122529275D01*
X123229415Y-114953085D02*
X123705605Y-114953085D01*
X123705605Y-114953085D02*
X123705605Y-113953085D01*
X122896081Y-114429275D02*
X122562748Y-114429275D01*
X122419891Y-114953085D02*
X122896081Y-114953085D01*
X122896081Y-114953085D02*
X122896081Y-113953085D01*
X122896081Y-113953085D02*
X122419891Y-113953085D01*
X121991319Y-114953085D02*
X121991319Y-113953085D01*
X121991319Y-113953085D02*
X121753224Y-113953085D01*
X121753224Y-113953085D02*
X121610367Y-114000704D01*
X121610367Y-114000704D02*
X121515129Y-114095942D01*
X121515129Y-114095942D02*
X121467510Y-114191180D01*
X121467510Y-114191180D02*
X121419891Y-114381656D01*
X121419891Y-114381656D02*
X121419891Y-114524513D01*
X121419891Y-114524513D02*
X121467510Y-114714989D01*
X121467510Y-114714989D02*
X121515129Y-114810227D01*
X121515129Y-114810227D02*
X121610367Y-114905466D01*
X121610367Y-114905466D02*
X121753224Y-114953085D01*
X121753224Y-114953085D02*
X121991319Y-114953085D01*
X120800843Y-113953085D02*
X120705605Y-113953085D01*
X120705605Y-113953085D02*
X120610367Y-114000704D01*
X120610367Y-114000704D02*
X120562748Y-114048323D01*
X120562748Y-114048323D02*
X120515129Y-114143561D01*
X120515129Y-114143561D02*
X120467510Y-114334037D01*
X120467510Y-114334037D02*
X120467510Y-114572132D01*
X120467510Y-114572132D02*
X120515129Y-114762608D01*
X120515129Y-114762608D02*
X120562748Y-114857846D01*
X120562748Y-114857846D02*
X120610367Y-114905466D01*
X120610367Y-114905466D02*
X120705605Y-114953085D01*
X120705605Y-114953085D02*
X120800843Y-114953085D01*
X120800843Y-114953085D02*
X120896081Y-114905466D01*
X120896081Y-114905466D02*
X120943700Y-114857846D01*
X120943700Y-114857846D02*
X120991319Y-114762608D01*
X120991319Y-114762608D02*
X121038938Y-114572132D01*
X121038938Y-114572132D02*
X121038938Y-114334037D01*
X121038938Y-114334037D02*
X120991319Y-114143561D01*
X120991319Y-114143561D02*
X120943700Y-114048323D01*
X120943700Y-114048323D02*
X120896081Y-114000704D01*
X120896081Y-114000704D02*
X120800843Y-113953085D01*
X123229415Y-127738799D02*
X123705605Y-127738799D01*
X123705605Y-127738799D02*
X123705605Y-126738799D01*
X122896081Y-127214989D02*
X122562748Y-127214989D01*
X122419891Y-127738799D02*
X122896081Y-127738799D01*
X122896081Y-127738799D02*
X122896081Y-126738799D01*
X122896081Y-126738799D02*
X122419891Y-126738799D01*
X121991319Y-127738799D02*
X121991319Y-126738799D01*
X121991319Y-126738799D02*
X121753224Y-126738799D01*
X121753224Y-126738799D02*
X121610367Y-126786418D01*
X121610367Y-126786418D02*
X121515129Y-126881656D01*
X121515129Y-126881656D02*
X121467510Y-126976894D01*
X121467510Y-126976894D02*
X121419891Y-127167370D01*
X121419891Y-127167370D02*
X121419891Y-127310227D01*
X121419891Y-127310227D02*
X121467510Y-127500703D01*
X121467510Y-127500703D02*
X121515129Y-127595941D01*
X121515129Y-127595941D02*
X121610367Y-127691180D01*
X121610367Y-127691180D02*
X121753224Y-127738799D01*
X121753224Y-127738799D02*
X121991319Y-127738799D01*
X120515129Y-126738799D02*
X120991319Y-126738799D01*
X120991319Y-126738799D02*
X121038938Y-127214989D01*
X121038938Y-127214989D02*
X120991319Y-127167370D01*
X120991319Y-127167370D02*
X120896081Y-127119751D01*
X120896081Y-127119751D02*
X120657986Y-127119751D01*
X120657986Y-127119751D02*
X120562748Y-127167370D01*
X120562748Y-127167370D02*
X120515129Y-127214989D01*
X120515129Y-127214989D02*
X120467510Y-127310227D01*
X120467510Y-127310227D02*
X120467510Y-127548322D01*
X120467510Y-127548322D02*
X120515129Y-127643560D01*
X120515129Y-127643560D02*
X120562748Y-127691180D01*
X120562748Y-127691180D02*
X120657986Y-127738799D01*
X120657986Y-127738799D02*
X120896081Y-127738799D01*
X120896081Y-127738799D02*
X120991319Y-127691180D01*
X120991319Y-127691180D02*
X121038938Y-127643560D01*
X123229415Y-132853085D02*
X123705605Y-132853085D01*
X123705605Y-132853085D02*
X123705605Y-131853085D01*
X122896081Y-132329275D02*
X122562748Y-132329275D01*
X122419891Y-132853085D02*
X122896081Y-132853085D01*
X122896081Y-132853085D02*
X122896081Y-131853085D01*
X122896081Y-131853085D02*
X122419891Y-131853085D01*
X121991319Y-132853085D02*
X121991319Y-131853085D01*
X121991319Y-131853085D02*
X121753224Y-131853085D01*
X121753224Y-131853085D02*
X121610367Y-131900704D01*
X121610367Y-131900704D02*
X121515129Y-131995942D01*
X121515129Y-131995942D02*
X121467510Y-132091180D01*
X121467510Y-132091180D02*
X121419891Y-132281656D01*
X121419891Y-132281656D02*
X121419891Y-132424513D01*
X121419891Y-132424513D02*
X121467510Y-132614989D01*
X121467510Y-132614989D02*
X121515129Y-132710227D01*
X121515129Y-132710227D02*
X121610367Y-132805466D01*
X121610367Y-132805466D02*
X121753224Y-132853085D01*
X121753224Y-132853085D02*
X121991319Y-132853085D01*
X121086557Y-131853085D02*
X120419891Y-131853085D01*
X120419891Y-131853085D02*
X120848462Y-132853085D01*
X123229415Y-117510228D02*
X123705605Y-117510228D01*
X123705605Y-117510228D02*
X123705605Y-116510228D01*
X122896081Y-116986418D02*
X122562748Y-116986418D01*
X122419891Y-117510228D02*
X122896081Y-117510228D01*
X122896081Y-117510228D02*
X122896081Y-116510228D01*
X122896081Y-116510228D02*
X122419891Y-116510228D01*
X121991319Y-117510228D02*
X121991319Y-116510228D01*
X121991319Y-116510228D02*
X121753224Y-116510228D01*
X121753224Y-116510228D02*
X121610367Y-116557847D01*
X121610367Y-116557847D02*
X121515129Y-116653085D01*
X121515129Y-116653085D02*
X121467510Y-116748323D01*
X121467510Y-116748323D02*
X121419891Y-116938799D01*
X121419891Y-116938799D02*
X121419891Y-117081656D01*
X121419891Y-117081656D02*
X121467510Y-117272132D01*
X121467510Y-117272132D02*
X121515129Y-117367370D01*
X121515129Y-117367370D02*
X121610367Y-117462609D01*
X121610367Y-117462609D02*
X121753224Y-117510228D01*
X121753224Y-117510228D02*
X121991319Y-117510228D01*
X120467510Y-117510228D02*
X121038938Y-117510228D01*
X120753224Y-117510228D02*
X120753224Y-116510228D01*
X120753224Y-116510228D02*
X120848462Y-116653085D01*
X120848462Y-116653085D02*
X120943700Y-116748323D01*
X120943700Y-116748323D02*
X121038938Y-116795942D01*
X160182985Y-125181656D02*
X160182985Y-124181656D01*
X160182985Y-124181656D02*
X159849652Y-124895941D01*
X159849652Y-124895941D02*
X159516319Y-124181656D01*
X159516319Y-124181656D02*
X159516319Y-125181656D01*
X158849652Y-124181656D02*
X158659176Y-124181656D01*
X158659176Y-124181656D02*
X158563938Y-124229275D01*
X158563938Y-124229275D02*
X158468700Y-124324513D01*
X158468700Y-124324513D02*
X158421081Y-124514989D01*
X158421081Y-124514989D02*
X158421081Y-124848322D01*
X158421081Y-124848322D02*
X158468700Y-125038798D01*
X158468700Y-125038798D02*
X158563938Y-125134037D01*
X158563938Y-125134037D02*
X158659176Y-125181656D01*
X158659176Y-125181656D02*
X158849652Y-125181656D01*
X158849652Y-125181656D02*
X158944890Y-125134037D01*
X158944890Y-125134037D02*
X159040128Y-125038798D01*
X159040128Y-125038798D02*
X159087747Y-124848322D01*
X159087747Y-124848322D02*
X159087747Y-124514989D01*
X159087747Y-124514989D02*
X159040128Y-124324513D01*
X159040128Y-124324513D02*
X158944890Y-124229275D01*
X158944890Y-124229275D02*
X158849652Y-124181656D01*
X158040128Y-125134037D02*
X157897271Y-125181656D01*
X157897271Y-125181656D02*
X157659176Y-125181656D01*
X157659176Y-125181656D02*
X157563938Y-125134037D01*
X157563938Y-125134037D02*
X157516319Y-125086417D01*
X157516319Y-125086417D02*
X157468700Y-124991179D01*
X157468700Y-124991179D02*
X157468700Y-124895941D01*
X157468700Y-124895941D02*
X157516319Y-124800703D01*
X157516319Y-124800703D02*
X157563938Y-124753084D01*
X157563938Y-124753084D02*
X157659176Y-124705465D01*
X157659176Y-124705465D02*
X157849652Y-124657846D01*
X157849652Y-124657846D02*
X157944890Y-124610227D01*
X157944890Y-124610227D02*
X157992509Y-124562608D01*
X157992509Y-124562608D02*
X158040128Y-124467370D01*
X158040128Y-124467370D02*
X158040128Y-124372132D01*
X158040128Y-124372132D02*
X157992509Y-124276894D01*
X157992509Y-124276894D02*
X157944890Y-124229275D01*
X157944890Y-124229275D02*
X157849652Y-124181656D01*
X157849652Y-124181656D02*
X157611557Y-124181656D01*
X157611557Y-124181656D02*
X157468700Y-124229275D01*
X157040128Y-125181656D02*
X157040128Y-124181656D01*
X159917509Y-56349514D02*
X159917509Y-55349514D01*
X159917509Y-55349514D02*
X159679414Y-55349514D01*
X159679414Y-55349514D02*
X159536557Y-55397133D01*
X159536557Y-55397133D02*
X159441319Y-55492371D01*
X159441319Y-55492371D02*
X159393700Y-55587609D01*
X159393700Y-55587609D02*
X159346081Y-55778085D01*
X159346081Y-55778085D02*
X159346081Y-55920942D01*
X159346081Y-55920942D02*
X159393700Y-56111418D01*
X159393700Y-56111418D02*
X159441319Y-56206656D01*
X159441319Y-56206656D02*
X159536557Y-56301895D01*
X159536557Y-56301895D02*
X159679414Y-56349514D01*
X159679414Y-56349514D02*
X159917509Y-56349514D01*
X158917509Y-56349514D02*
X158917509Y-55349514D01*
X157917510Y-55397133D02*
X158012748Y-55349514D01*
X158012748Y-55349514D02*
X158155605Y-55349514D01*
X158155605Y-55349514D02*
X158298462Y-55397133D01*
X158298462Y-55397133D02*
X158393700Y-55492371D01*
X158393700Y-55492371D02*
X158441319Y-55587609D01*
X158441319Y-55587609D02*
X158488938Y-55778085D01*
X158488938Y-55778085D02*
X158488938Y-55920942D01*
X158488938Y-55920942D02*
X158441319Y-56111418D01*
X158441319Y-56111418D02*
X158393700Y-56206656D01*
X158393700Y-56206656D02*
X158298462Y-56301895D01*
X158298462Y-56301895D02*
X158155605Y-56349514D01*
X158155605Y-56349514D02*
X158060367Y-56349514D01*
X158060367Y-56349514D02*
X157917510Y-56301895D01*
X157917510Y-56301895D02*
X157869891Y-56254275D01*
X157869891Y-56254275D02*
X157869891Y-55920942D01*
X157869891Y-55920942D02*
X158060367Y-55920942D01*
X157250843Y-55349514D02*
X157155605Y-55349514D01*
X157155605Y-55349514D02*
X157060367Y-55397133D01*
X157060367Y-55397133D02*
X157012748Y-55444752D01*
X157012748Y-55444752D02*
X156965129Y-55539990D01*
X156965129Y-55539990D02*
X156917510Y-55730466D01*
X156917510Y-55730466D02*
X156917510Y-55968561D01*
X156917510Y-55968561D02*
X156965129Y-56159037D01*
X156965129Y-56159037D02*
X157012748Y-56254275D01*
X157012748Y-56254275D02*
X157060367Y-56301895D01*
X157060367Y-56301895D02*
X157155605Y-56349514D01*
X157155605Y-56349514D02*
X157250843Y-56349514D01*
X157250843Y-56349514D02*
X157346081Y-56301895D01*
X157346081Y-56301895D02*
X157393700Y-56254275D01*
X157393700Y-56254275D02*
X157441319Y-56159037D01*
X157441319Y-56159037D02*
X157488938Y-55968561D01*
X157488938Y-55968561D02*
X157488938Y-55730466D01*
X157488938Y-55730466D02*
X157441319Y-55539990D01*
X157441319Y-55539990D02*
X157393700Y-55444752D01*
X157393700Y-55444752D02*
X157346081Y-55397133D01*
X157346081Y-55397133D02*
X157250843Y-55349514D01*
X123229415Y-120067371D02*
X123705605Y-120067371D01*
X123705605Y-120067371D02*
X123705605Y-119067371D01*
X122896081Y-119543561D02*
X122562748Y-119543561D01*
X122419891Y-120067371D02*
X122896081Y-120067371D01*
X122896081Y-120067371D02*
X122896081Y-119067371D01*
X122896081Y-119067371D02*
X122419891Y-119067371D01*
X121991319Y-120067371D02*
X121991319Y-119067371D01*
X121991319Y-119067371D02*
X121753224Y-119067371D01*
X121753224Y-119067371D02*
X121610367Y-119114990D01*
X121610367Y-119114990D02*
X121515129Y-119210228D01*
X121515129Y-119210228D02*
X121467510Y-119305466D01*
X121467510Y-119305466D02*
X121419891Y-119495942D01*
X121419891Y-119495942D02*
X121419891Y-119638799D01*
X121419891Y-119638799D02*
X121467510Y-119829275D01*
X121467510Y-119829275D02*
X121515129Y-119924513D01*
X121515129Y-119924513D02*
X121610367Y-120019752D01*
X121610367Y-120019752D02*
X121753224Y-120067371D01*
X121753224Y-120067371D02*
X121991319Y-120067371D01*
X121038938Y-119162609D02*
X120991319Y-119114990D01*
X120991319Y-119114990D02*
X120896081Y-119067371D01*
X120896081Y-119067371D02*
X120657986Y-119067371D01*
X120657986Y-119067371D02*
X120562748Y-119114990D01*
X120562748Y-119114990D02*
X120515129Y-119162609D01*
X120515129Y-119162609D02*
X120467510Y-119257847D01*
X120467510Y-119257847D02*
X120467510Y-119353085D01*
X120467510Y-119353085D02*
X120515129Y-119495942D01*
X120515129Y-119495942D02*
X121086557Y-120067371D01*
X121086557Y-120067371D02*
X120467510Y-120067371D01*
X159917509Y-58906657D02*
X159917509Y-57906657D01*
X159917509Y-57906657D02*
X159679414Y-57906657D01*
X159679414Y-57906657D02*
X159536557Y-57954276D01*
X159536557Y-57954276D02*
X159441319Y-58049514D01*
X159441319Y-58049514D02*
X159393700Y-58144752D01*
X159393700Y-58144752D02*
X159346081Y-58335228D01*
X159346081Y-58335228D02*
X159346081Y-58478085D01*
X159346081Y-58478085D02*
X159393700Y-58668561D01*
X159393700Y-58668561D02*
X159441319Y-58763799D01*
X159441319Y-58763799D02*
X159536557Y-58859038D01*
X159536557Y-58859038D02*
X159679414Y-58906657D01*
X159679414Y-58906657D02*
X159917509Y-58906657D01*
X158917509Y-58906657D02*
X158917509Y-57906657D01*
X157917510Y-57954276D02*
X158012748Y-57906657D01*
X158012748Y-57906657D02*
X158155605Y-57906657D01*
X158155605Y-57906657D02*
X158298462Y-57954276D01*
X158298462Y-57954276D02*
X158393700Y-58049514D01*
X158393700Y-58049514D02*
X158441319Y-58144752D01*
X158441319Y-58144752D02*
X158488938Y-58335228D01*
X158488938Y-58335228D02*
X158488938Y-58478085D01*
X158488938Y-58478085D02*
X158441319Y-58668561D01*
X158441319Y-58668561D02*
X158393700Y-58763799D01*
X158393700Y-58763799D02*
X158298462Y-58859038D01*
X158298462Y-58859038D02*
X158155605Y-58906657D01*
X158155605Y-58906657D02*
X158060367Y-58906657D01*
X158060367Y-58906657D02*
X157917510Y-58859038D01*
X157917510Y-58859038D02*
X157869891Y-58811418D01*
X157869891Y-58811418D02*
X157869891Y-58478085D01*
X157869891Y-58478085D02*
X158060367Y-58478085D01*
X156917510Y-58906657D02*
X157488938Y-58906657D01*
X157203224Y-58906657D02*
X157203224Y-57906657D01*
X157203224Y-57906657D02*
X157298462Y-58049514D01*
X157298462Y-58049514D02*
X157393700Y-58144752D01*
X157393700Y-58144752D02*
X157488938Y-58192371D01*
D11*
G36*
X125056964Y-58988563D02*
G01*
X124773883Y-58988563D01*
X124708315Y-58955779D01*
X124681176Y-58928640D01*
X124648392Y-58863071D01*
X124648392Y-58757863D01*
X124681176Y-58692294D01*
X124708315Y-58665156D01*
X124773883Y-58632372D01*
X125056964Y-58632372D01*
X125056964Y-58988563D01*
G37*
G36*
X127414107Y-58988563D02*
G01*
X127131026Y-58988563D01*
X127065458Y-58955779D01*
X127038319Y-58928640D01*
X127005535Y-58863071D01*
X127005535Y-58757863D01*
X127038319Y-58692294D01*
X127065458Y-58665156D01*
X127131026Y-58632372D01*
X127414107Y-58632372D01*
X127414107Y-58988563D01*
G37*
G36*
X127756329Y-59854569D02*
G01*
X121320455Y-59854569D01*
X121320455Y-58522372D01*
X121442677Y-58522372D01*
X121442677Y-59622372D01*
X121443220Y-59627888D01*
X121442945Y-59630055D01*
X121443710Y-59632860D01*
X121444791Y-59643832D01*
X121450387Y-59657342D01*
X121454238Y-59671463D01*
X121458532Y-59677007D01*
X121461215Y-59683485D01*
X121471562Y-59693832D01*
X121480518Y-59705396D01*
X121486603Y-59708873D01*
X121491564Y-59713834D01*
X121505086Y-59719434D01*
X121517783Y-59726690D01*
X121524737Y-59727574D01*
X121531217Y-59730258D01*
X121545843Y-59730258D01*
X121560360Y-59732104D01*
X121567129Y-59730258D01*
X121574137Y-59730258D01*
X121587647Y-59724661D01*
X121601768Y-59720811D01*
X121607312Y-59716516D01*
X121613790Y-59713834D01*
X121624137Y-59703486D01*
X121635701Y-59694531D01*
X121642083Y-59685540D01*
X121644139Y-59683485D01*
X121644974Y-59681468D01*
X121648184Y-59676947D01*
X122071249Y-58936583D01*
X122071249Y-59622372D01*
X122073363Y-59643832D01*
X122089787Y-59683485D01*
X122120136Y-59713834D01*
X122159789Y-59730258D01*
X122202709Y-59730258D01*
X122242362Y-59713834D01*
X122272711Y-59683485D01*
X122289135Y-59643832D01*
X122291249Y-59622372D01*
X122291249Y-58522372D01*
X122595059Y-58522372D01*
X122595059Y-59622372D01*
X122597173Y-59643832D01*
X122613597Y-59683485D01*
X122643946Y-59713834D01*
X122683599Y-59730258D01*
X122726519Y-59730258D01*
X122766172Y-59713834D01*
X122796521Y-59683485D01*
X122812945Y-59643832D01*
X122815059Y-59622372D01*
X122815059Y-59181865D01*
X123120983Y-59181865D01*
X123120983Y-59224785D01*
X123137407Y-59264438D01*
X123167756Y-59294787D01*
X123207409Y-59311211D01*
X123228869Y-59313325D01*
X124066964Y-59313325D01*
X124088424Y-59311211D01*
X124128077Y-59294787D01*
X124158426Y-59264438D01*
X124174850Y-59224785D01*
X124174850Y-59181865D01*
X124158426Y-59142212D01*
X124128077Y-59111863D01*
X124088424Y-59095439D01*
X124066964Y-59093325D01*
X123228869Y-59093325D01*
X123207409Y-59095439D01*
X123167756Y-59111863D01*
X123137407Y-59142212D01*
X123120983Y-59181865D01*
X122815059Y-59181865D01*
X122815059Y-58731896D01*
X124428392Y-58731896D01*
X124428392Y-58889039D01*
X124430506Y-58910499D01*
X124432018Y-58914151D01*
X124432299Y-58918093D01*
X124440005Y-58938232D01*
X124492386Y-59042994D01*
X124498201Y-59052231D01*
X124499312Y-59054913D01*
X124501790Y-59057933D01*
X124503874Y-59061243D01*
X124506067Y-59063145D01*
X124512991Y-59071583D01*
X124565372Y-59123964D01*
X124573809Y-59130887D01*
X124575712Y-59133081D01*
X124579021Y-59135164D01*
X124582042Y-59137643D01*
X124584723Y-59138753D01*
X124593961Y-59144569D01*
X124698722Y-59196950D01*
X124701241Y-59197913D01*
X124448277Y-59559291D01*
X124437702Y-59578084D01*
X124428417Y-59619988D01*
X124435876Y-59662254D01*
X124458943Y-59698449D01*
X124494104Y-59723062D01*
X124536008Y-59732347D01*
X124578274Y-59724888D01*
X124614469Y-59701821D01*
X124628507Y-59685453D01*
X124962332Y-59208563D01*
X125056964Y-59208563D01*
X125056964Y-59622372D01*
X125059078Y-59643832D01*
X125075502Y-59683485D01*
X125105851Y-59713834D01*
X125145504Y-59730258D01*
X125188424Y-59730258D01*
X125228077Y-59713834D01*
X125258426Y-59683485D01*
X125274850Y-59643832D01*
X125276964Y-59622372D01*
X125276964Y-58526484D01*
X125476089Y-58526484D01*
X125479003Y-58547850D01*
X125740907Y-59647850D01*
X125743445Y-59655213D01*
X125743796Y-59657855D01*
X125745178Y-59660243D01*
X125747934Y-59668237D01*
X125757296Y-59681174D01*
X125765300Y-59694999D01*
X125769785Y-59698432D01*
X125773096Y-59703007D01*
X125786700Y-59711379D01*
X125799382Y-59721086D01*
X125804837Y-59722540D01*
X125809649Y-59725502D01*
X125825424Y-59728030D01*
X125840853Y-59732145D01*
X125846451Y-59731401D01*
X125852028Y-59732295D01*
X125867561Y-59728596D01*
X125883399Y-59726492D01*
X125888289Y-59723660D01*
X125893781Y-59722353D01*
X125906714Y-59712993D01*
X125920543Y-59704988D01*
X125923976Y-59700502D01*
X125928551Y-59697192D01*
X125936923Y-59683587D01*
X125946630Y-59670906D01*
X125949597Y-59662992D01*
X125951046Y-59660639D01*
X125951468Y-59658004D01*
X125954202Y-59650715D01*
X126057440Y-59263572D01*
X126160678Y-59650715D01*
X126163411Y-59658004D01*
X126163834Y-59660639D01*
X126165282Y-59662992D01*
X126168250Y-59670906D01*
X126177953Y-59683583D01*
X126186328Y-59697192D01*
X126190904Y-59700504D01*
X126194337Y-59704988D01*
X126208159Y-59712990D01*
X126221099Y-59722354D01*
X126226592Y-59723662D01*
X126231481Y-59726492D01*
X126247315Y-59728595D01*
X126262852Y-59732295D01*
X126268428Y-59731401D01*
X126274027Y-59732145D01*
X126289455Y-59728030D01*
X126305231Y-59725502D01*
X126310043Y-59722540D01*
X126315498Y-59721086D01*
X126328175Y-59711382D01*
X126341784Y-59703008D01*
X126345096Y-59698431D01*
X126349580Y-59694999D01*
X126357582Y-59681176D01*
X126366946Y-59668237D01*
X126369701Y-59660243D01*
X126371084Y-59657855D01*
X126371434Y-59655213D01*
X126373973Y-59647850D01*
X126592058Y-58731896D01*
X126785535Y-58731896D01*
X126785535Y-58889039D01*
X126787649Y-58910499D01*
X126789161Y-58914151D01*
X126789442Y-58918093D01*
X126797148Y-58938232D01*
X126849529Y-59042994D01*
X126855344Y-59052231D01*
X126856455Y-59054913D01*
X126858933Y-59057933D01*
X126861017Y-59061243D01*
X126863210Y-59063145D01*
X126870134Y-59071583D01*
X126922515Y-59123964D01*
X126930952Y-59130887D01*
X126932855Y-59133081D01*
X126936164Y-59135164D01*
X126939185Y-59137643D01*
X126941866Y-59138753D01*
X126951104Y-59144569D01*
X127055865Y-59196950D01*
X127076005Y-59204656D01*
X127079946Y-59204936D01*
X127083599Y-59206449D01*
X127105059Y-59208563D01*
X127414107Y-59208563D01*
X127414107Y-59622372D01*
X127416221Y-59643832D01*
X127432645Y-59683485D01*
X127462994Y-59713834D01*
X127502647Y-59730258D01*
X127545567Y-59730258D01*
X127585220Y-59713834D01*
X127615569Y-59683485D01*
X127631993Y-59643832D01*
X127634107Y-59622372D01*
X127634107Y-58522372D01*
X127631993Y-58500912D01*
X127615569Y-58461259D01*
X127585220Y-58430910D01*
X127545567Y-58414486D01*
X127524107Y-58412372D01*
X127105059Y-58412372D01*
X127083599Y-58414486D01*
X127079946Y-58415998D01*
X127076005Y-58416279D01*
X127055865Y-58423985D01*
X126951104Y-58476366D01*
X126941866Y-58482181D01*
X126939185Y-58483292D01*
X126936164Y-58485770D01*
X126932855Y-58487854D01*
X126930952Y-58490047D01*
X126922515Y-58496971D01*
X126870134Y-58549352D01*
X126863210Y-58557789D01*
X126861017Y-58559692D01*
X126858933Y-58563001D01*
X126856455Y-58566022D01*
X126855344Y-58568703D01*
X126849529Y-58577941D01*
X126797148Y-58682703D01*
X126789442Y-58702842D01*
X126789161Y-58706783D01*
X126787649Y-58710436D01*
X126785535Y-58731896D01*
X126592058Y-58731896D01*
X126635878Y-58547851D01*
X126638792Y-58526485D01*
X126631999Y-58484106D01*
X126609505Y-58447553D01*
X126574734Y-58422391D01*
X126532981Y-58412450D01*
X126490602Y-58419243D01*
X126454049Y-58441737D01*
X126428887Y-58476507D01*
X126421860Y-58496894D01*
X126260926Y-59172815D01*
X126163726Y-58808315D01*
X126161840Y-58803287D01*
X126161560Y-58801175D01*
X126160107Y-58798665D01*
X126156154Y-58788124D01*
X126147330Y-58776596D01*
X126140056Y-58764031D01*
X126134397Y-58759700D01*
X126130067Y-58754042D01*
X126117501Y-58746767D01*
X126105974Y-58737944D01*
X126099089Y-58736108D01*
X126092923Y-58732538D01*
X126078530Y-58730625D01*
X126064503Y-58726885D01*
X126057440Y-58727823D01*
X126050377Y-58726885D01*
X126036349Y-58730625D01*
X126021957Y-58732538D01*
X126015790Y-58736108D01*
X126008906Y-58737944D01*
X125997378Y-58746767D01*
X125984813Y-58754042D01*
X125980482Y-58759700D01*
X125974824Y-58764031D01*
X125967549Y-58776596D01*
X125958726Y-58788124D01*
X125954772Y-58798665D01*
X125953320Y-58801175D01*
X125953039Y-58803287D01*
X125951154Y-58808315D01*
X125853953Y-59172814D01*
X125693021Y-58496894D01*
X125685994Y-58476507D01*
X125660832Y-58441736D01*
X125624279Y-58419242D01*
X125581900Y-58412449D01*
X125540147Y-58422390D01*
X125505376Y-58447552D01*
X125482882Y-58484105D01*
X125476089Y-58526484D01*
X125276964Y-58526484D01*
X125276964Y-58522372D01*
X125274850Y-58500912D01*
X125258426Y-58461259D01*
X125228077Y-58430910D01*
X125188424Y-58414486D01*
X125166964Y-58412372D01*
X124747916Y-58412372D01*
X124726456Y-58414486D01*
X124722803Y-58415998D01*
X124718862Y-58416279D01*
X124698722Y-58423985D01*
X124593961Y-58476366D01*
X124584723Y-58482181D01*
X124582042Y-58483292D01*
X124579021Y-58485770D01*
X124575712Y-58487854D01*
X124573809Y-58490047D01*
X124565372Y-58496971D01*
X124512991Y-58549352D01*
X124506067Y-58557789D01*
X124503874Y-58559692D01*
X124501790Y-58563001D01*
X124499312Y-58566022D01*
X124498201Y-58568703D01*
X124492386Y-58577941D01*
X124440005Y-58682703D01*
X124432299Y-58702842D01*
X124432018Y-58706783D01*
X124430506Y-58710436D01*
X124428392Y-58731896D01*
X122815059Y-58731896D01*
X122815059Y-58522372D01*
X122812945Y-58500912D01*
X122796521Y-58461259D01*
X122766172Y-58430910D01*
X122726519Y-58414486D01*
X122683599Y-58414486D01*
X122643946Y-58430910D01*
X122613597Y-58461259D01*
X122597173Y-58500912D01*
X122595059Y-58522372D01*
X122291249Y-58522372D01*
X122290705Y-58516855D01*
X122290981Y-58514689D01*
X122290215Y-58511883D01*
X122289135Y-58500912D01*
X122283538Y-58487401D01*
X122279688Y-58473281D01*
X122275393Y-58467736D01*
X122272711Y-58461259D01*
X122262365Y-58450913D01*
X122253408Y-58439347D01*
X122247320Y-58435868D01*
X122242362Y-58430910D01*
X122228846Y-58425311D01*
X122216143Y-58418053D01*
X122209185Y-58417168D01*
X122202709Y-58414486D01*
X122188086Y-58414486D01*
X122173566Y-58412640D01*
X122166797Y-58414486D01*
X122159789Y-58414486D01*
X122146277Y-58420082D01*
X122132159Y-58423933D01*
X122126615Y-58428226D01*
X122120136Y-58430910D01*
X122109787Y-58441258D01*
X122098225Y-58450213D01*
X122091843Y-58459202D01*
X122089787Y-58461259D01*
X122088951Y-58463276D01*
X122085743Y-58467796D01*
X121662677Y-59208160D01*
X121662677Y-58522372D01*
X121660563Y-58500912D01*
X121644139Y-58461259D01*
X121613790Y-58430910D01*
X121574137Y-58414486D01*
X121531217Y-58414486D01*
X121491564Y-58430910D01*
X121461215Y-58461259D01*
X121444791Y-58500912D01*
X121442677Y-58522372D01*
X121320455Y-58522372D01*
X121320455Y-58290150D01*
X127756329Y-58290150D01*
X127756329Y-59854569D01*
G37*
D10*
X160182985Y-127738799D02*
X160182985Y-126738799D01*
X160182985Y-126738799D02*
X159849652Y-127453084D01*
X159849652Y-127453084D02*
X159516319Y-126738799D01*
X159516319Y-126738799D02*
X159516319Y-127738799D01*
X159040128Y-127738799D02*
X159040128Y-126738799D01*
X158611557Y-127691180D02*
X158468700Y-127738799D01*
X158468700Y-127738799D02*
X158230605Y-127738799D01*
X158230605Y-127738799D02*
X158135367Y-127691180D01*
X158135367Y-127691180D02*
X158087748Y-127643560D01*
X158087748Y-127643560D02*
X158040129Y-127548322D01*
X158040129Y-127548322D02*
X158040129Y-127453084D01*
X158040129Y-127453084D02*
X158087748Y-127357846D01*
X158087748Y-127357846D02*
X158135367Y-127310227D01*
X158135367Y-127310227D02*
X158230605Y-127262608D01*
X158230605Y-127262608D02*
X158421081Y-127214989D01*
X158421081Y-127214989D02*
X158516319Y-127167370D01*
X158516319Y-127167370D02*
X158563938Y-127119751D01*
X158563938Y-127119751D02*
X158611557Y-127024513D01*
X158611557Y-127024513D02*
X158611557Y-126929275D01*
X158611557Y-126929275D02*
X158563938Y-126834037D01*
X158563938Y-126834037D02*
X158516319Y-126786418D01*
X158516319Y-126786418D02*
X158421081Y-126738799D01*
X158421081Y-126738799D02*
X158182986Y-126738799D01*
X158182986Y-126738799D02*
X158040129Y-126786418D01*
X157421081Y-126738799D02*
X157230605Y-126738799D01*
X157230605Y-126738799D02*
X157135367Y-126786418D01*
X157135367Y-126786418D02*
X157040129Y-126881656D01*
X157040129Y-126881656D02*
X156992510Y-127072132D01*
X156992510Y-127072132D02*
X156992510Y-127405465D01*
X156992510Y-127405465D02*
X157040129Y-127595941D01*
X157040129Y-127595941D02*
X157135367Y-127691180D01*
X157135367Y-127691180D02*
X157230605Y-127738799D01*
X157230605Y-127738799D02*
X157421081Y-127738799D01*
X157421081Y-127738799D02*
X157516319Y-127691180D01*
X157516319Y-127691180D02*
X157611557Y-127595941D01*
X157611557Y-127595941D02*
X157659176Y-127405465D01*
X157659176Y-127405465D02*
X157659176Y-127072132D01*
X157659176Y-127072132D02*
X157611557Y-126881656D01*
X157611557Y-126881656D02*
X157516319Y-126786418D01*
X157516319Y-126786418D02*
X157421081Y-126738799D01*
X123201973Y-55404276D02*
X123297211Y-55356657D01*
X123297211Y-55356657D02*
X123440068Y-55356657D01*
X123440068Y-55356657D02*
X123582925Y-55404276D01*
X123582925Y-55404276D02*
X123678163Y-55499514D01*
X123678163Y-55499514D02*
X123725782Y-55594752D01*
X123725782Y-55594752D02*
X123773401Y-55785228D01*
X123773401Y-55785228D02*
X123773401Y-55928085D01*
X123773401Y-55928085D02*
X123725782Y-56118561D01*
X123725782Y-56118561D02*
X123678163Y-56213799D01*
X123678163Y-56213799D02*
X123582925Y-56309038D01*
X123582925Y-56309038D02*
X123440068Y-56356657D01*
X123440068Y-56356657D02*
X123344830Y-56356657D01*
X123344830Y-56356657D02*
X123201973Y-56309038D01*
X123201973Y-56309038D02*
X123154354Y-56261418D01*
X123154354Y-56261418D02*
X123154354Y-55928085D01*
X123154354Y-55928085D02*
X123344830Y-55928085D01*
X122725782Y-56356657D02*
X122725782Y-55356657D01*
X122725782Y-55356657D02*
X122154354Y-56356657D01*
X122154354Y-56356657D02*
X122154354Y-55356657D01*
X121678163Y-56356657D02*
X121678163Y-55356657D01*
X121678163Y-55356657D02*
X121440068Y-55356657D01*
X121440068Y-55356657D02*
X121297211Y-55404276D01*
X121297211Y-55404276D02*
X121201973Y-55499514D01*
X121201973Y-55499514D02*
X121154354Y-55594752D01*
X121154354Y-55594752D02*
X121106735Y-55785228D01*
X121106735Y-55785228D02*
X121106735Y-55928085D01*
X121106735Y-55928085D02*
X121154354Y-56118561D01*
X121154354Y-56118561D02*
X121201973Y-56213799D01*
X121201973Y-56213799D02*
X121297211Y-56309038D01*
X121297211Y-56309038D02*
X121440068Y-56356657D01*
X121440068Y-56356657D02*
X121678163Y-56356657D01*
X159917509Y-64020943D02*
X159917509Y-63020943D01*
X159917509Y-63020943D02*
X159679414Y-63020943D01*
X159679414Y-63020943D02*
X159536557Y-63068562D01*
X159536557Y-63068562D02*
X159441319Y-63163800D01*
X159441319Y-63163800D02*
X159393700Y-63259038D01*
X159393700Y-63259038D02*
X159346081Y-63449514D01*
X159346081Y-63449514D02*
X159346081Y-63592371D01*
X159346081Y-63592371D02*
X159393700Y-63782847D01*
X159393700Y-63782847D02*
X159441319Y-63878085D01*
X159441319Y-63878085D02*
X159536557Y-63973324D01*
X159536557Y-63973324D02*
X159679414Y-64020943D01*
X159679414Y-64020943D02*
X159917509Y-64020943D01*
X158917509Y-64020943D02*
X158917509Y-63020943D01*
X157917510Y-63068562D02*
X158012748Y-63020943D01*
X158012748Y-63020943D02*
X158155605Y-63020943D01*
X158155605Y-63020943D02*
X158298462Y-63068562D01*
X158298462Y-63068562D02*
X158393700Y-63163800D01*
X158393700Y-63163800D02*
X158441319Y-63259038D01*
X158441319Y-63259038D02*
X158488938Y-63449514D01*
X158488938Y-63449514D02*
X158488938Y-63592371D01*
X158488938Y-63592371D02*
X158441319Y-63782847D01*
X158441319Y-63782847D02*
X158393700Y-63878085D01*
X158393700Y-63878085D02*
X158298462Y-63973324D01*
X158298462Y-63973324D02*
X158155605Y-64020943D01*
X158155605Y-64020943D02*
X158060367Y-64020943D01*
X158060367Y-64020943D02*
X157917510Y-63973324D01*
X157917510Y-63973324D02*
X157869891Y-63925704D01*
X157869891Y-63925704D02*
X157869891Y-63592371D01*
X157869891Y-63592371D02*
X158060367Y-63592371D01*
X157536557Y-63020943D02*
X156917510Y-63020943D01*
X156917510Y-63020943D02*
X157250843Y-63401895D01*
X157250843Y-63401895D02*
X157107986Y-63401895D01*
X157107986Y-63401895D02*
X157012748Y-63449514D01*
X157012748Y-63449514D02*
X156965129Y-63497133D01*
X156965129Y-63497133D02*
X156917510Y-63592371D01*
X156917510Y-63592371D02*
X156917510Y-63830466D01*
X156917510Y-63830466D02*
X156965129Y-63925704D01*
X156965129Y-63925704D02*
X157012748Y-63973324D01*
X157012748Y-63973324D02*
X157107986Y-64020943D01*
X157107986Y-64020943D02*
X157393700Y-64020943D01*
X157393700Y-64020943D02*
X157488938Y-63973324D01*
X157488938Y-63973324D02*
X157536557Y-63925704D01*
X160373462Y-122576895D02*
X160230605Y-122624514D01*
X160230605Y-122624514D02*
X159992510Y-122624514D01*
X159992510Y-122624514D02*
X159897272Y-122576895D01*
X159897272Y-122576895D02*
X159849653Y-122529275D01*
X159849653Y-122529275D02*
X159802034Y-122434037D01*
X159802034Y-122434037D02*
X159802034Y-122338799D01*
X159802034Y-122338799D02*
X159849653Y-122243561D01*
X159849653Y-122243561D02*
X159897272Y-122195942D01*
X159897272Y-122195942D02*
X159992510Y-122148323D01*
X159992510Y-122148323D02*
X160182986Y-122100704D01*
X160182986Y-122100704D02*
X160278224Y-122053085D01*
X160278224Y-122053085D02*
X160325843Y-122005466D01*
X160325843Y-122005466D02*
X160373462Y-121910228D01*
X160373462Y-121910228D02*
X160373462Y-121814990D01*
X160373462Y-121814990D02*
X160325843Y-121719752D01*
X160325843Y-121719752D02*
X160278224Y-121672133D01*
X160278224Y-121672133D02*
X160182986Y-121624514D01*
X160182986Y-121624514D02*
X159944891Y-121624514D01*
X159944891Y-121624514D02*
X159802034Y-121672133D01*
X158802034Y-122529275D02*
X158849653Y-122576895D01*
X158849653Y-122576895D02*
X158992510Y-122624514D01*
X158992510Y-122624514D02*
X159087748Y-122624514D01*
X159087748Y-122624514D02*
X159230605Y-122576895D01*
X159230605Y-122576895D02*
X159325843Y-122481656D01*
X159325843Y-122481656D02*
X159373462Y-122386418D01*
X159373462Y-122386418D02*
X159421081Y-122195942D01*
X159421081Y-122195942D02*
X159421081Y-122053085D01*
X159421081Y-122053085D02*
X159373462Y-121862609D01*
X159373462Y-121862609D02*
X159325843Y-121767371D01*
X159325843Y-121767371D02*
X159230605Y-121672133D01*
X159230605Y-121672133D02*
X159087748Y-121624514D01*
X159087748Y-121624514D02*
X158992510Y-121624514D01*
X158992510Y-121624514D02*
X158849653Y-121672133D01*
X158849653Y-121672133D02*
X158802034Y-121719752D01*
X157897272Y-122624514D02*
X158373462Y-122624514D01*
X158373462Y-122624514D02*
X158373462Y-121624514D01*
X157563938Y-122624514D02*
X157563938Y-121624514D01*
X156992510Y-122624514D02*
X157421081Y-122053085D01*
X156992510Y-121624514D02*
X157563938Y-122195942D01*
X158240069Y-85585227D02*
X158573402Y-85109036D01*
X158811497Y-85585227D02*
X158811497Y-84585227D01*
X158811497Y-84585227D02*
X158430545Y-84585227D01*
X158430545Y-84585227D02*
X158335307Y-84632846D01*
X158335307Y-84632846D02*
X158287688Y-84680465D01*
X158287688Y-84680465D02*
X158240069Y-84775703D01*
X158240069Y-84775703D02*
X158240069Y-84918560D01*
X158240069Y-84918560D02*
X158287688Y-85013798D01*
X158287688Y-85013798D02*
X158335307Y-85061417D01*
X158335307Y-85061417D02*
X158430545Y-85109036D01*
X158430545Y-85109036D02*
X158811497Y-85109036D01*
X157811497Y-85061417D02*
X157478164Y-85061417D01*
X157335307Y-85585227D02*
X157811497Y-85585227D01*
X157811497Y-85585227D02*
X157811497Y-84585227D01*
X157811497Y-84585227D02*
X157335307Y-84585227D01*
X156906735Y-85585227D02*
X156906735Y-84585227D01*
X156906735Y-84585227D02*
X156525783Y-84585227D01*
X156525783Y-84585227D02*
X156430545Y-84632846D01*
X156430545Y-84632846D02*
X156382926Y-84680465D01*
X156382926Y-84680465D02*
X156335307Y-84775703D01*
X156335307Y-84775703D02*
X156335307Y-84918560D01*
X156335307Y-84918560D02*
X156382926Y-85013798D01*
X156382926Y-85013798D02*
X156430545Y-85061417D01*
X156430545Y-85061417D02*
X156525783Y-85109036D01*
X156525783Y-85109036D02*
X156906735Y-85109036D01*
X155716259Y-84585227D02*
X155525783Y-84585227D01*
X155525783Y-84585227D02*
X155430545Y-84632846D01*
X155430545Y-84632846D02*
X155335307Y-84728084D01*
X155335307Y-84728084D02*
X155287688Y-84918560D01*
X155287688Y-84918560D02*
X155287688Y-85251893D01*
X155287688Y-85251893D02*
X155335307Y-85442369D01*
X155335307Y-85442369D02*
X155430545Y-85537608D01*
X155430545Y-85537608D02*
X155525783Y-85585227D01*
X155525783Y-85585227D02*
X155716259Y-85585227D01*
X155716259Y-85585227D02*
X155811497Y-85537608D01*
X155811497Y-85537608D02*
X155906735Y-85442369D01*
X155906735Y-85442369D02*
X155954354Y-85251893D01*
X155954354Y-85251893D02*
X155954354Y-84918560D01*
X155954354Y-84918560D02*
X155906735Y-84728084D01*
X155906735Y-84728084D02*
X155811497Y-84632846D01*
X155811497Y-84632846D02*
X155716259Y-84585227D01*
X154097211Y-84585227D02*
X154097211Y-85394750D01*
X154097211Y-85394750D02*
X154049592Y-85489988D01*
X154049592Y-85489988D02*
X154001973Y-85537608D01*
X154001973Y-85537608D02*
X153906735Y-85585227D01*
X153906735Y-85585227D02*
X153716259Y-85585227D01*
X153716259Y-85585227D02*
X153621021Y-85537608D01*
X153621021Y-85537608D02*
X153573402Y-85489988D01*
X153573402Y-85489988D02*
X153525783Y-85394750D01*
X153525783Y-85394750D02*
X153525783Y-84585227D01*
X152478164Y-85585227D02*
X152811497Y-85109036D01*
X153049592Y-85585227D02*
X153049592Y-84585227D01*
X153049592Y-84585227D02*
X152668640Y-84585227D01*
X152668640Y-84585227D02*
X152573402Y-84632846D01*
X152573402Y-84632846D02*
X152525783Y-84680465D01*
X152525783Y-84680465D02*
X152478164Y-84775703D01*
X152478164Y-84775703D02*
X152478164Y-84918560D01*
X152478164Y-84918560D02*
X152525783Y-85013798D01*
X152525783Y-85013798D02*
X152573402Y-85061417D01*
X152573402Y-85061417D02*
X152668640Y-85109036D01*
X152668640Y-85109036D02*
X153049592Y-85109036D01*
X151573402Y-85585227D02*
X152049592Y-85585227D01*
X152049592Y-85585227D02*
X152049592Y-84585227D01*
X123821020Y-52799514D02*
X123201973Y-52799514D01*
X123201973Y-52799514D02*
X123535306Y-53180466D01*
X123535306Y-53180466D02*
X123392449Y-53180466D01*
X123392449Y-53180466D02*
X123297211Y-53228085D01*
X123297211Y-53228085D02*
X123249592Y-53275704D01*
X123249592Y-53275704D02*
X123201973Y-53370942D01*
X123201973Y-53370942D02*
X123201973Y-53609037D01*
X123201973Y-53609037D02*
X123249592Y-53704275D01*
X123249592Y-53704275D02*
X123297211Y-53751895D01*
X123297211Y-53751895D02*
X123392449Y-53799514D01*
X123392449Y-53799514D02*
X123678163Y-53799514D01*
X123678163Y-53799514D02*
X123773401Y-53751895D01*
X123773401Y-53751895D02*
X123821020Y-53704275D01*
X122916258Y-52799514D02*
X122582925Y-53799514D01*
X122582925Y-53799514D02*
X122249592Y-52799514D01*
X122011496Y-52799514D02*
X121392449Y-52799514D01*
X121392449Y-52799514D02*
X121725782Y-53180466D01*
X121725782Y-53180466D02*
X121582925Y-53180466D01*
X121582925Y-53180466D02*
X121487687Y-53228085D01*
X121487687Y-53228085D02*
X121440068Y-53275704D01*
X121440068Y-53275704D02*
X121392449Y-53370942D01*
X121392449Y-53370942D02*
X121392449Y-53609037D01*
X121392449Y-53609037D02*
X121440068Y-53704275D01*
X121440068Y-53704275D02*
X121487687Y-53751895D01*
X121487687Y-53751895D02*
X121582925Y-53799514D01*
X121582925Y-53799514D02*
X121868639Y-53799514D01*
X121868639Y-53799514D02*
X121963877Y-53751895D01*
X121963877Y-53751895D02*
X122011496Y-53704275D01*
X158897272Y-132757846D02*
X158944891Y-132805466D01*
X158944891Y-132805466D02*
X159087748Y-132853085D01*
X159087748Y-132853085D02*
X159182986Y-132853085D01*
X159182986Y-132853085D02*
X159325843Y-132805466D01*
X159325843Y-132805466D02*
X159421081Y-132710227D01*
X159421081Y-132710227D02*
X159468700Y-132614989D01*
X159468700Y-132614989D02*
X159516319Y-132424513D01*
X159516319Y-132424513D02*
X159516319Y-132281656D01*
X159516319Y-132281656D02*
X159468700Y-132091180D01*
X159468700Y-132091180D02*
X159421081Y-131995942D01*
X159421081Y-131995942D02*
X159325843Y-131900704D01*
X159325843Y-131900704D02*
X159182986Y-131853085D01*
X159182986Y-131853085D02*
X159087748Y-131853085D01*
X159087748Y-131853085D02*
X158944891Y-131900704D01*
X158944891Y-131900704D02*
X158897272Y-131948323D01*
X158516319Y-132805466D02*
X158373462Y-132853085D01*
X158373462Y-132853085D02*
X158135367Y-132853085D01*
X158135367Y-132853085D02*
X158040129Y-132805466D01*
X158040129Y-132805466D02*
X157992510Y-132757846D01*
X157992510Y-132757846D02*
X157944891Y-132662608D01*
X157944891Y-132662608D02*
X157944891Y-132567370D01*
X157944891Y-132567370D02*
X157992510Y-132472132D01*
X157992510Y-132472132D02*
X158040129Y-132424513D01*
X158040129Y-132424513D02*
X158135367Y-132376894D01*
X158135367Y-132376894D02*
X158325843Y-132329275D01*
X158325843Y-132329275D02*
X158421081Y-132281656D01*
X158421081Y-132281656D02*
X158468700Y-132234037D01*
X158468700Y-132234037D02*
X158516319Y-132138799D01*
X158516319Y-132138799D02*
X158516319Y-132043561D01*
X158516319Y-132043561D02*
X158468700Y-131948323D01*
X158468700Y-131948323D02*
X158421081Y-131900704D01*
X158421081Y-131900704D02*
X158325843Y-131853085D01*
X158325843Y-131853085D02*
X158087748Y-131853085D01*
X158087748Y-131853085D02*
X157944891Y-131900704D01*
X156992510Y-132853085D02*
X157563938Y-132853085D01*
X157278224Y-132853085D02*
X157278224Y-131853085D01*
X157278224Y-131853085D02*
X157373462Y-131995942D01*
X157373462Y-131995942D02*
X157468700Y-132091180D01*
X157468700Y-132091180D02*
X157563938Y-132138799D01*
X158897272Y-130200703D02*
X158944891Y-130248323D01*
X158944891Y-130248323D02*
X159087748Y-130295942D01*
X159087748Y-130295942D02*
X159182986Y-130295942D01*
X159182986Y-130295942D02*
X159325843Y-130248323D01*
X159325843Y-130248323D02*
X159421081Y-130153084D01*
X159421081Y-130153084D02*
X159468700Y-130057846D01*
X159468700Y-130057846D02*
X159516319Y-129867370D01*
X159516319Y-129867370D02*
X159516319Y-129724513D01*
X159516319Y-129724513D02*
X159468700Y-129534037D01*
X159468700Y-129534037D02*
X159421081Y-129438799D01*
X159421081Y-129438799D02*
X159325843Y-129343561D01*
X159325843Y-129343561D02*
X159182986Y-129295942D01*
X159182986Y-129295942D02*
X159087748Y-129295942D01*
X159087748Y-129295942D02*
X158944891Y-129343561D01*
X158944891Y-129343561D02*
X158897272Y-129391180D01*
X158516319Y-130248323D02*
X158373462Y-130295942D01*
X158373462Y-130295942D02*
X158135367Y-130295942D01*
X158135367Y-130295942D02*
X158040129Y-130248323D01*
X158040129Y-130248323D02*
X157992510Y-130200703D01*
X157992510Y-130200703D02*
X157944891Y-130105465D01*
X157944891Y-130105465D02*
X157944891Y-130010227D01*
X157944891Y-130010227D02*
X157992510Y-129914989D01*
X157992510Y-129914989D02*
X158040129Y-129867370D01*
X158040129Y-129867370D02*
X158135367Y-129819751D01*
X158135367Y-129819751D02*
X158325843Y-129772132D01*
X158325843Y-129772132D02*
X158421081Y-129724513D01*
X158421081Y-129724513D02*
X158468700Y-129676894D01*
X158468700Y-129676894D02*
X158516319Y-129581656D01*
X158516319Y-129581656D02*
X158516319Y-129486418D01*
X158516319Y-129486418D02*
X158468700Y-129391180D01*
X158468700Y-129391180D02*
X158421081Y-129343561D01*
X158421081Y-129343561D02*
X158325843Y-129295942D01*
X158325843Y-129295942D02*
X158087748Y-129295942D01*
X158087748Y-129295942D02*
X157944891Y-129343561D01*
X157325843Y-129295942D02*
X157230605Y-129295942D01*
X157230605Y-129295942D02*
X157135367Y-129343561D01*
X157135367Y-129343561D02*
X157087748Y-129391180D01*
X157087748Y-129391180D02*
X157040129Y-129486418D01*
X157040129Y-129486418D02*
X156992510Y-129676894D01*
X156992510Y-129676894D02*
X156992510Y-129914989D01*
X156992510Y-129914989D02*
X157040129Y-130105465D01*
X157040129Y-130105465D02*
X157087748Y-130200703D01*
X157087748Y-130200703D02*
X157135367Y-130248323D01*
X157135367Y-130248323D02*
X157230605Y-130295942D01*
X157230605Y-130295942D02*
X157325843Y-130295942D01*
X157325843Y-130295942D02*
X157421081Y-130248323D01*
X157421081Y-130248323D02*
X157468700Y-130200703D01*
X157468700Y-130200703D02*
X157516319Y-130105465D01*
X157516319Y-130105465D02*
X157563938Y-129914989D01*
X157563938Y-129914989D02*
X157563938Y-129676894D01*
X157563938Y-129676894D02*
X157516319Y-129486418D01*
X157516319Y-129486418D02*
X157468700Y-129391180D01*
X157468700Y-129391180D02*
X157421081Y-129343561D01*
X157421081Y-129343561D02*
X157325843Y-129295942D01*
D11*
G36*
X158006196Y-134867426D02*
G01*
X157723115Y-134867426D01*
X157657547Y-134834642D01*
X157630408Y-134807503D01*
X157597624Y-134741934D01*
X157597624Y-134636726D01*
X157630408Y-134571157D01*
X157657547Y-134544019D01*
X157723115Y-134511235D01*
X158006196Y-134511235D01*
X158006196Y-134867426D01*
G37*
G36*
X159448418Y-135733457D02*
G01*
X153852753Y-135733457D01*
X153852753Y-134379775D01*
X153974975Y-134379775D01*
X153974975Y-134422695D01*
X153991399Y-134462348D01*
X154021748Y-134492697D01*
X154061401Y-134509121D01*
X154082861Y-134511235D01*
X154496671Y-134511235D01*
X154496671Y-134815045D01*
X154240004Y-134815045D01*
X154218544Y-134817159D01*
X154178891Y-134833583D01*
X154148542Y-134863932D01*
X154132118Y-134903585D01*
X154132118Y-134946505D01*
X154148542Y-134986158D01*
X154178891Y-135016507D01*
X154218544Y-135032931D01*
X154240004Y-135035045D01*
X154496671Y-135035045D01*
X154496671Y-135501235D01*
X154498785Y-135522695D01*
X154515209Y-135562348D01*
X154545558Y-135592697D01*
X154585211Y-135609121D01*
X154628131Y-135609121D01*
X154667784Y-135592697D01*
X154698133Y-135562348D01*
X154714557Y-135522695D01*
X154716671Y-135501235D01*
X154716671Y-134401235D01*
X155020481Y-134401235D01*
X155020481Y-135501235D01*
X155022595Y-135522695D01*
X155039019Y-135562348D01*
X155069368Y-135592697D01*
X155109021Y-135609121D01*
X155151941Y-135609121D01*
X155191594Y-135592697D01*
X155221943Y-135562348D01*
X155238367Y-135522695D01*
X155240481Y-135501235D01*
X155240481Y-135060728D01*
X155546405Y-135060728D01*
X155546405Y-135103648D01*
X155562829Y-135143301D01*
X155593178Y-135173650D01*
X155632831Y-135190074D01*
X155654291Y-135192188D01*
X156492386Y-135192188D01*
X156513846Y-135190074D01*
X156553499Y-135173650D01*
X156583848Y-135143301D01*
X156600272Y-135103648D01*
X156600272Y-135060728D01*
X156583848Y-135021075D01*
X156553499Y-134990726D01*
X156513846Y-134974302D01*
X156492386Y-134972188D01*
X155654291Y-134972188D01*
X155632831Y-134974302D01*
X155593178Y-134990726D01*
X155562829Y-135021075D01*
X155546405Y-135060728D01*
X155240481Y-135060728D01*
X155240481Y-134401235D01*
X156906196Y-134401235D01*
X156906196Y-135501235D01*
X156908310Y-135522695D01*
X156924734Y-135562348D01*
X156955083Y-135592697D01*
X156994736Y-135609121D01*
X157037656Y-135609121D01*
X157077309Y-135592697D01*
X157107658Y-135562348D01*
X157124082Y-135522695D01*
X157126196Y-135501235D01*
X157126196Y-134610759D01*
X157377624Y-134610759D01*
X157377624Y-134767902D01*
X157379738Y-134789362D01*
X157381250Y-134793014D01*
X157381531Y-134796956D01*
X157389237Y-134817095D01*
X157441618Y-134921857D01*
X157447433Y-134931094D01*
X157448544Y-134933776D01*
X157451022Y-134936796D01*
X157453106Y-134940106D01*
X157455299Y-134942008D01*
X157462223Y-134950446D01*
X157514604Y-135002827D01*
X157523041Y-135009750D01*
X157524944Y-135011944D01*
X157528253Y-135014027D01*
X157531274Y-135016506D01*
X157533955Y-135017616D01*
X157543193Y-135023432D01*
X157647954Y-135075813D01*
X157668094Y-135083519D01*
X157672035Y-135083799D01*
X157675688Y-135085312D01*
X157697148Y-135087426D01*
X158006196Y-135087426D01*
X158006196Y-135501235D01*
X158008310Y-135522695D01*
X158024734Y-135562348D01*
X158055083Y-135592697D01*
X158094736Y-135609121D01*
X158137656Y-135609121D01*
X158177309Y-135592697D01*
X158207658Y-135562348D01*
X158224082Y-135522695D01*
X158226196Y-135501235D01*
X158226196Y-135186950D01*
X158477624Y-135186950D01*
X158477624Y-135291712D01*
X158479738Y-135313172D01*
X158481250Y-135316824D01*
X158481531Y-135320766D01*
X158489237Y-135340905D01*
X158541618Y-135445667D01*
X158547433Y-135454904D01*
X158548544Y-135457586D01*
X158551022Y-135460606D01*
X158553106Y-135463916D01*
X158555299Y-135465818D01*
X158562223Y-135474256D01*
X158614604Y-135526637D01*
X158623041Y-135533560D01*
X158624944Y-135535754D01*
X158628253Y-135537837D01*
X158631274Y-135540316D01*
X158633955Y-135541426D01*
X158643193Y-135547242D01*
X158747955Y-135599622D01*
X158768095Y-135607329D01*
X158772038Y-135607609D01*
X158775688Y-135609121D01*
X158797148Y-135611235D01*
X159059053Y-135611235D01*
X159069913Y-135610165D01*
X159072810Y-135610371D01*
X159076621Y-135609504D01*
X159080513Y-135609121D01*
X159083197Y-135608009D01*
X159093837Y-135605590D01*
X159250981Y-135553210D01*
X159270671Y-135544419D01*
X159303095Y-135516298D01*
X159322290Y-135477910D01*
X159325332Y-135435098D01*
X159311760Y-135394380D01*
X159283639Y-135361956D01*
X159245251Y-135342761D01*
X159202439Y-135339719D01*
X159181412Y-135344500D01*
X159041204Y-135391235D01*
X158823115Y-135391235D01*
X158757546Y-135358451D01*
X158730408Y-135331313D01*
X158697624Y-135265744D01*
X158697624Y-135212917D01*
X158730408Y-135147348D01*
X158757547Y-135120210D01*
X158835539Y-135081214D01*
X159033351Y-135031761D01*
X159034937Y-135031194D01*
X159035726Y-135031138D01*
X159044642Y-135027726D01*
X159053657Y-135024505D01*
X159054293Y-135024033D01*
X159055865Y-135023432D01*
X159160627Y-134971051D01*
X159169864Y-134965235D01*
X159172546Y-134964125D01*
X159175566Y-134961646D01*
X159178876Y-134959563D01*
X159180778Y-134957369D01*
X159189216Y-134950446D01*
X159241597Y-134898065D01*
X159248520Y-134889627D01*
X159250714Y-134887725D01*
X159252797Y-134884415D01*
X159255276Y-134881395D01*
X159256386Y-134878713D01*
X159262202Y-134869476D01*
X159314583Y-134764715D01*
X159322289Y-134744575D01*
X159322569Y-134740633D01*
X159324082Y-134736981D01*
X159326196Y-134715521D01*
X159326196Y-134610759D01*
X159324082Y-134589299D01*
X159322569Y-134585646D01*
X159322289Y-134581705D01*
X159314583Y-134561565D01*
X159262202Y-134456804D01*
X159256386Y-134447566D01*
X159255276Y-134444885D01*
X159252797Y-134441864D01*
X159250714Y-134438555D01*
X159248520Y-134436652D01*
X159241597Y-134428215D01*
X159189216Y-134375834D01*
X159180778Y-134368910D01*
X159178876Y-134366717D01*
X159175566Y-134364633D01*
X159172546Y-134362155D01*
X159169864Y-134361044D01*
X159160627Y-134355229D01*
X159055865Y-134302848D01*
X159035726Y-134295142D01*
X159031784Y-134294861D01*
X159028132Y-134293349D01*
X159006672Y-134291235D01*
X158744767Y-134291235D01*
X158733906Y-134292304D01*
X158731009Y-134292099D01*
X158727196Y-134292965D01*
X158723307Y-134293349D01*
X158720623Y-134294460D01*
X158709982Y-134296880D01*
X158552839Y-134349261D01*
X158533149Y-134358053D01*
X158500724Y-134386173D01*
X158481530Y-134424562D01*
X158478488Y-134467374D01*
X158492061Y-134508091D01*
X158520181Y-134540516D01*
X158558570Y-134559710D01*
X158601382Y-134562752D01*
X158622409Y-134557971D01*
X158762617Y-134511235D01*
X158980705Y-134511235D01*
X159046273Y-134544019D01*
X159073412Y-134571158D01*
X159106196Y-134636726D01*
X159106196Y-134689554D01*
X159073412Y-134755122D01*
X159046273Y-134782260D01*
X158968280Y-134821257D01*
X158770469Y-134870710D01*
X158768882Y-134871276D01*
X158768094Y-134871333D01*
X158759170Y-134874747D01*
X158750163Y-134877966D01*
X158749527Y-134878437D01*
X158747954Y-134879039D01*
X158643193Y-134931420D01*
X158633955Y-134937235D01*
X158631274Y-134938346D01*
X158628253Y-134940824D01*
X158624944Y-134942908D01*
X158623041Y-134945101D01*
X158614604Y-134952025D01*
X158562223Y-135004406D01*
X158555299Y-135012843D01*
X158553106Y-135014746D01*
X158551022Y-135018055D01*
X158548544Y-135021076D01*
X158547433Y-135023757D01*
X158541618Y-135032995D01*
X158489237Y-135137757D01*
X158481531Y-135157896D01*
X158481250Y-135161837D01*
X158479738Y-135165490D01*
X158477624Y-135186950D01*
X158226196Y-135186950D01*
X158226196Y-134401235D01*
X158224082Y-134379775D01*
X158207658Y-134340122D01*
X158177309Y-134309773D01*
X158137656Y-134293349D01*
X158116196Y-134291235D01*
X157697148Y-134291235D01*
X157675688Y-134293349D01*
X157672035Y-134294861D01*
X157668094Y-134295142D01*
X157647954Y-134302848D01*
X157543193Y-134355229D01*
X157533955Y-134361044D01*
X157531274Y-134362155D01*
X157528253Y-134364633D01*
X157524944Y-134366717D01*
X157523041Y-134368910D01*
X157514604Y-134375834D01*
X157462223Y-134428215D01*
X157455299Y-134436652D01*
X157453106Y-134438555D01*
X157451022Y-134441864D01*
X157448544Y-134444885D01*
X157447433Y-134447566D01*
X157441618Y-134456804D01*
X157389237Y-134561566D01*
X157381531Y-134581705D01*
X157381250Y-134585646D01*
X157379738Y-134589299D01*
X157377624Y-134610759D01*
X157126196Y-134610759D01*
X157126196Y-134401235D01*
X157124082Y-134379775D01*
X157107658Y-134340122D01*
X157077309Y-134309773D01*
X157037656Y-134293349D01*
X156994736Y-134293349D01*
X156955083Y-134309773D01*
X156924734Y-134340122D01*
X156908310Y-134379775D01*
X156906196Y-134401235D01*
X155240481Y-134401235D01*
X155238367Y-134379775D01*
X155221943Y-134340122D01*
X155191594Y-134309773D01*
X155151941Y-134293349D01*
X155109021Y-134293349D01*
X155069368Y-134309773D01*
X155039019Y-134340122D01*
X155022595Y-134379775D01*
X155020481Y-134401235D01*
X154716671Y-134401235D01*
X154714557Y-134379775D01*
X154698133Y-134340122D01*
X154667784Y-134309773D01*
X154628131Y-134293349D01*
X154606671Y-134291235D01*
X154082861Y-134291235D01*
X154061401Y-134293349D01*
X154021748Y-134309773D01*
X153991399Y-134340122D01*
X153974975Y-134379775D01*
X153852753Y-134379775D01*
X153852753Y-134169013D01*
X159448418Y-134169013D01*
X159448418Y-135733457D01*
G37*
D10*
X159917509Y-61463800D02*
X159917509Y-60463800D01*
X159917509Y-60463800D02*
X159679414Y-60463800D01*
X159679414Y-60463800D02*
X159536557Y-60511419D01*
X159536557Y-60511419D02*
X159441319Y-60606657D01*
X159441319Y-60606657D02*
X159393700Y-60701895D01*
X159393700Y-60701895D02*
X159346081Y-60892371D01*
X159346081Y-60892371D02*
X159346081Y-61035228D01*
X159346081Y-61035228D02*
X159393700Y-61225704D01*
X159393700Y-61225704D02*
X159441319Y-61320942D01*
X159441319Y-61320942D02*
X159536557Y-61416181D01*
X159536557Y-61416181D02*
X159679414Y-61463800D01*
X159679414Y-61463800D02*
X159917509Y-61463800D01*
X158917509Y-61463800D02*
X158917509Y-60463800D01*
X157917510Y-60511419D02*
X158012748Y-60463800D01*
X158012748Y-60463800D02*
X158155605Y-60463800D01*
X158155605Y-60463800D02*
X158298462Y-60511419D01*
X158298462Y-60511419D02*
X158393700Y-60606657D01*
X158393700Y-60606657D02*
X158441319Y-60701895D01*
X158441319Y-60701895D02*
X158488938Y-60892371D01*
X158488938Y-60892371D02*
X158488938Y-61035228D01*
X158488938Y-61035228D02*
X158441319Y-61225704D01*
X158441319Y-61225704D02*
X158393700Y-61320942D01*
X158393700Y-61320942D02*
X158298462Y-61416181D01*
X158298462Y-61416181D02*
X158155605Y-61463800D01*
X158155605Y-61463800D02*
X158060367Y-61463800D01*
X158060367Y-61463800D02*
X157917510Y-61416181D01*
X157917510Y-61416181D02*
X157869891Y-61368561D01*
X157869891Y-61368561D02*
X157869891Y-61035228D01*
X157869891Y-61035228D02*
X158060367Y-61035228D01*
X157488938Y-60559038D02*
X157441319Y-60511419D01*
X157441319Y-60511419D02*
X157346081Y-60463800D01*
X157346081Y-60463800D02*
X157107986Y-60463800D01*
X157107986Y-60463800D02*
X157012748Y-60511419D01*
X157012748Y-60511419D02*
X156965129Y-60559038D01*
X156965129Y-60559038D02*
X156917510Y-60654276D01*
X156917510Y-60654276D02*
X156917510Y-60749514D01*
X156917510Y-60749514D02*
X156965129Y-60892371D01*
X156965129Y-60892371D02*
X157536557Y-61463800D01*
X157536557Y-61463800D02*
X156917510Y-61463800D01*
X123229415Y-130295942D02*
X123705605Y-130295942D01*
X123705605Y-130295942D02*
X123705605Y-129295942D01*
X122896081Y-129772132D02*
X122562748Y-129772132D01*
X122419891Y-130295942D02*
X122896081Y-130295942D01*
X122896081Y-130295942D02*
X122896081Y-129295942D01*
X122896081Y-129295942D02*
X122419891Y-129295942D01*
X121991319Y-130295942D02*
X121991319Y-129295942D01*
X121991319Y-129295942D02*
X121753224Y-129295942D01*
X121753224Y-129295942D02*
X121610367Y-129343561D01*
X121610367Y-129343561D02*
X121515129Y-129438799D01*
X121515129Y-129438799D02*
X121467510Y-129534037D01*
X121467510Y-129534037D02*
X121419891Y-129724513D01*
X121419891Y-129724513D02*
X121419891Y-129867370D01*
X121419891Y-129867370D02*
X121467510Y-130057846D01*
X121467510Y-130057846D02*
X121515129Y-130153084D01*
X121515129Y-130153084D02*
X121610367Y-130248323D01*
X121610367Y-130248323D02*
X121753224Y-130295942D01*
X121753224Y-130295942D02*
X121991319Y-130295942D01*
X120562748Y-129295942D02*
X120753224Y-129295942D01*
X120753224Y-129295942D02*
X120848462Y-129343561D01*
X120848462Y-129343561D02*
X120896081Y-129391180D01*
X120896081Y-129391180D02*
X120991319Y-129534037D01*
X120991319Y-129534037D02*
X121038938Y-129724513D01*
X121038938Y-129724513D02*
X121038938Y-130105465D01*
X121038938Y-130105465D02*
X120991319Y-130200703D01*
X120991319Y-130200703D02*
X120943700Y-130248323D01*
X120943700Y-130248323D02*
X120848462Y-130295942D01*
X120848462Y-130295942D02*
X120657986Y-130295942D01*
X120657986Y-130295942D02*
X120562748Y-130248323D01*
X120562748Y-130248323D02*
X120515129Y-130200703D01*
X120515129Y-130200703D02*
X120467510Y-130105465D01*
X120467510Y-130105465D02*
X120467510Y-129867370D01*
X120467510Y-129867370D02*
X120515129Y-129772132D01*
X120515129Y-129772132D02*
X120562748Y-129724513D01*
X120562748Y-129724513D02*
X120657986Y-129676894D01*
X120657986Y-129676894D02*
X120848462Y-129676894D01*
X120848462Y-129676894D02*
X120943700Y-129724513D01*
X120943700Y-129724513D02*
X120991319Y-129772132D01*
X120991319Y-129772132D02*
X121038938Y-129867370D01*
X123229415Y-125181656D02*
X123705605Y-125181656D01*
X123705605Y-125181656D02*
X123705605Y-124181656D01*
X122896081Y-124657846D02*
X122562748Y-124657846D01*
X122419891Y-125181656D02*
X122896081Y-125181656D01*
X122896081Y-125181656D02*
X122896081Y-124181656D01*
X122896081Y-124181656D02*
X122419891Y-124181656D01*
X121991319Y-125181656D02*
X121991319Y-124181656D01*
X121991319Y-124181656D02*
X121753224Y-124181656D01*
X121753224Y-124181656D02*
X121610367Y-124229275D01*
X121610367Y-124229275D02*
X121515129Y-124324513D01*
X121515129Y-124324513D02*
X121467510Y-124419751D01*
X121467510Y-124419751D02*
X121419891Y-124610227D01*
X121419891Y-124610227D02*
X121419891Y-124753084D01*
X121419891Y-124753084D02*
X121467510Y-124943560D01*
X121467510Y-124943560D02*
X121515129Y-125038798D01*
X121515129Y-125038798D02*
X121610367Y-125134037D01*
X121610367Y-125134037D02*
X121753224Y-125181656D01*
X121753224Y-125181656D02*
X121991319Y-125181656D01*
X120562748Y-124514989D02*
X120562748Y-125181656D01*
X120800843Y-124134037D02*
X121038938Y-124848322D01*
X121038938Y-124848322D02*
X120419891Y-124848322D01*
X161441320Y-53792372D02*
X161917510Y-53792372D01*
X161917510Y-53792372D02*
X161917510Y-52792372D01*
X161107986Y-53268562D02*
X160774653Y-53268562D01*
X160631796Y-53792372D02*
X161107986Y-53792372D01*
X161107986Y-53792372D02*
X161107986Y-52792372D01*
X161107986Y-52792372D02*
X160631796Y-52792372D01*
X160203224Y-53792372D02*
X160203224Y-52792372D01*
X160203224Y-52792372D02*
X159965129Y-52792372D01*
X159965129Y-52792372D02*
X159822272Y-52839991D01*
X159822272Y-52839991D02*
X159727034Y-52935229D01*
X159727034Y-52935229D02*
X159679415Y-53030467D01*
X159679415Y-53030467D02*
X159631796Y-53220943D01*
X159631796Y-53220943D02*
X159631796Y-53363800D01*
X159631796Y-53363800D02*
X159679415Y-53554276D01*
X159679415Y-53554276D02*
X159727034Y-53649514D01*
X159727034Y-53649514D02*
X159822272Y-53744753D01*
X159822272Y-53744753D02*
X159965129Y-53792372D01*
X159965129Y-53792372D02*
X160203224Y-53792372D01*
X159441320Y-53887610D02*
X158679415Y-53887610D01*
X158441319Y-53268562D02*
X158107986Y-53268562D01*
X157965129Y-53792372D02*
X158441319Y-53792372D01*
X158441319Y-53792372D02*
X158441319Y-52792372D01*
X158441319Y-52792372D02*
X157965129Y-52792372D01*
X157536557Y-53792372D02*
X157536557Y-52792372D01*
X157536557Y-52792372D02*
X156965129Y-53792372D01*
X156965129Y-53792372D02*
X156965129Y-52792372D01*
D11*
G36*
X159086037Y-67079619D02*
G01*
X154066563Y-67079619D01*
X154066563Y-65725937D01*
X154188785Y-65725937D01*
X154188785Y-65768857D01*
X154205209Y-65808510D01*
X154235558Y-65838859D01*
X154275211Y-65855283D01*
X154296671Y-65857397D01*
X154710481Y-65857397D01*
X154710481Y-66161207D01*
X154453814Y-66161207D01*
X154432354Y-66163321D01*
X154392701Y-66179745D01*
X154362352Y-66210094D01*
X154345928Y-66249747D01*
X154345928Y-66292667D01*
X154362352Y-66332320D01*
X154392701Y-66362669D01*
X154432354Y-66379093D01*
X154453814Y-66381207D01*
X154710481Y-66381207D01*
X154710481Y-66847397D01*
X154712595Y-66868857D01*
X154729019Y-66908510D01*
X154759368Y-66938859D01*
X154799021Y-66955283D01*
X154841941Y-66955283D01*
X154881594Y-66938859D01*
X154911943Y-66908510D01*
X154928367Y-66868857D01*
X154930481Y-66847397D01*
X154930481Y-65747397D01*
X155234291Y-65747397D01*
X155234291Y-66847397D01*
X155236405Y-66868857D01*
X155252829Y-66908510D01*
X155283178Y-66938859D01*
X155322831Y-66955283D01*
X155365751Y-66955283D01*
X155405404Y-66938859D01*
X155435753Y-66908510D01*
X155452177Y-66868857D01*
X155454291Y-66847397D01*
X155454291Y-66406890D01*
X155760215Y-66406890D01*
X155760215Y-66449810D01*
X155776639Y-66489463D01*
X155806988Y-66519812D01*
X155846641Y-66536236D01*
X155868101Y-66538350D01*
X156706196Y-66538350D01*
X156727656Y-66536236D01*
X156767309Y-66519812D01*
X156797658Y-66489463D01*
X156814082Y-66449810D01*
X156814082Y-66406890D01*
X156797658Y-66367237D01*
X156767309Y-66336888D01*
X156727656Y-66320464D01*
X156706196Y-66318350D01*
X155868101Y-66318350D01*
X155846641Y-66320464D01*
X155806988Y-66336888D01*
X155776639Y-66367237D01*
X155760215Y-66406890D01*
X155454291Y-66406890D01*
X155454291Y-65747397D01*
X157120005Y-65747397D01*
X157120005Y-66847397D01*
X157120548Y-66852913D01*
X157120273Y-66855080D01*
X157121038Y-66857885D01*
X157122119Y-66868857D01*
X157127715Y-66882367D01*
X157131566Y-66896488D01*
X157135860Y-66902032D01*
X157138543Y-66908510D01*
X157148890Y-66918857D01*
X157157846Y-66930421D01*
X157163931Y-66933898D01*
X157168892Y-66938859D01*
X157182414Y-66944459D01*
X157195111Y-66951715D01*
X157202065Y-66952599D01*
X157208545Y-66955283D01*
X157223171Y-66955283D01*
X157237688Y-66957129D01*
X157244457Y-66955283D01*
X157251465Y-66955283D01*
X157264975Y-66949686D01*
X157279096Y-66945836D01*
X157284640Y-66941541D01*
X157291118Y-66938859D01*
X157301465Y-66928511D01*
X157313029Y-66919556D01*
X157319411Y-66910565D01*
X157321467Y-66908510D01*
X157322302Y-66906493D01*
X157325512Y-66901972D01*
X157748577Y-66161608D01*
X157748577Y-66847397D01*
X157750691Y-66868857D01*
X157767115Y-66908510D01*
X157797464Y-66938859D01*
X157837117Y-66955283D01*
X157880037Y-66955283D01*
X157919690Y-66938859D01*
X157950039Y-66908510D01*
X157966463Y-66868857D01*
X157968577Y-66847397D01*
X157968577Y-65747397D01*
X157968033Y-65741880D01*
X157968309Y-65739714D01*
X157967543Y-65736908D01*
X157966463Y-65725937D01*
X158222119Y-65725937D01*
X158222119Y-65768857D01*
X158238543Y-65808510D01*
X158268892Y-65838859D01*
X158308545Y-65855283D01*
X158330005Y-65857397D01*
X158743815Y-65857397D01*
X158743815Y-66161207D01*
X158487148Y-66161207D01*
X158465688Y-66163321D01*
X158426035Y-66179745D01*
X158395686Y-66210094D01*
X158379262Y-66249747D01*
X158379262Y-66292667D01*
X158395686Y-66332320D01*
X158426035Y-66362669D01*
X158465688Y-66379093D01*
X158487148Y-66381207D01*
X158743815Y-66381207D01*
X158743815Y-66737397D01*
X158330005Y-66737397D01*
X158308545Y-66739511D01*
X158268892Y-66755935D01*
X158238543Y-66786284D01*
X158222119Y-66825937D01*
X158222119Y-66868857D01*
X158238543Y-66908510D01*
X158268892Y-66938859D01*
X158308545Y-66955283D01*
X158330005Y-66957397D01*
X158853815Y-66957397D01*
X158875275Y-66955283D01*
X158914928Y-66938859D01*
X158945277Y-66908510D01*
X158961701Y-66868857D01*
X158963815Y-66847397D01*
X158963815Y-65747397D01*
X158961701Y-65725937D01*
X158945277Y-65686284D01*
X158914928Y-65655935D01*
X158875275Y-65639511D01*
X158853815Y-65637397D01*
X158330005Y-65637397D01*
X158308545Y-65639511D01*
X158268892Y-65655935D01*
X158238543Y-65686284D01*
X158222119Y-65725937D01*
X157966463Y-65725937D01*
X157960866Y-65712426D01*
X157957016Y-65698306D01*
X157952721Y-65692761D01*
X157950039Y-65686284D01*
X157939693Y-65675938D01*
X157930736Y-65664372D01*
X157924648Y-65660893D01*
X157919690Y-65655935D01*
X157906174Y-65650336D01*
X157893471Y-65643078D01*
X157886513Y-65642193D01*
X157880037Y-65639511D01*
X157865414Y-65639511D01*
X157850894Y-65637665D01*
X157844125Y-65639511D01*
X157837117Y-65639511D01*
X157823605Y-65645107D01*
X157809487Y-65648958D01*
X157803943Y-65653251D01*
X157797464Y-65655935D01*
X157787115Y-65666283D01*
X157775553Y-65675238D01*
X157769171Y-65684227D01*
X157767115Y-65686284D01*
X157766279Y-65688301D01*
X157763071Y-65692821D01*
X157340005Y-66433185D01*
X157340005Y-65747397D01*
X157337891Y-65725937D01*
X157321467Y-65686284D01*
X157291118Y-65655935D01*
X157251465Y-65639511D01*
X157208545Y-65639511D01*
X157168892Y-65655935D01*
X157138543Y-65686284D01*
X157122119Y-65725937D01*
X157120005Y-65747397D01*
X155454291Y-65747397D01*
X155452177Y-65725937D01*
X155435753Y-65686284D01*
X155405404Y-65655935D01*
X155365751Y-65639511D01*
X155322831Y-65639511D01*
X155283178Y-65655935D01*
X155252829Y-65686284D01*
X155236405Y-65725937D01*
X155234291Y-65747397D01*
X154930481Y-65747397D01*
X154928367Y-65725937D01*
X154911943Y-65686284D01*
X154881594Y-65655935D01*
X154841941Y-65639511D01*
X154820481Y-65637397D01*
X154296671Y-65637397D01*
X154275211Y-65639511D01*
X154235558Y-65655935D01*
X154205209Y-65686284D01*
X154188785Y-65725937D01*
X154066563Y-65725937D01*
X154066563Y-65515175D01*
X159086037Y-65515175D01*
X159086037Y-67079619D01*
G37*
D12*
X127053789Y-50532114D02*
X127053789Y-51246399D01*
X127053789Y-51246399D02*
X127101408Y-51389256D01*
X127101408Y-51389256D02*
X127196646Y-51484495D01*
X127196646Y-51484495D02*
X127339503Y-51532114D01*
X127339503Y-51532114D02*
X127434741Y-51532114D01*
X126625217Y-50627352D02*
X126577598Y-50579733D01*
X126577598Y-50579733D02*
X126482360Y-50532114D01*
X126482360Y-50532114D02*
X126244265Y-50532114D01*
X126244265Y-50532114D02*
X126149027Y-50579733D01*
X126149027Y-50579733D02*
X126101408Y-50627352D01*
X126101408Y-50627352D02*
X126053789Y-50722590D01*
X126053789Y-50722590D02*
X126053789Y-50817828D01*
X126053789Y-50817828D02*
X126101408Y-50960685D01*
X126101408Y-50960685D02*
X126672836Y-51532114D01*
X126672836Y-51532114D02*
X126053789Y-51532114D01*
X154753789Y-50532114D02*
X154753789Y-51246399D01*
X154753789Y-51246399D02*
X154801408Y-51389256D01*
X154801408Y-51389256D02*
X154896646Y-51484495D01*
X154896646Y-51484495D02*
X155039503Y-51532114D01*
X155039503Y-51532114D02*
X155134741Y-51532114D01*
X153801408Y-50532114D02*
X154277598Y-50532114D01*
X154277598Y-50532114D02*
X154325217Y-51008304D01*
X154325217Y-51008304D02*
X154277598Y-50960685D01*
X154277598Y-50960685D02*
X154182360Y-50913066D01*
X154182360Y-50913066D02*
X153944265Y-50913066D01*
X153944265Y-50913066D02*
X153849027Y-50960685D01*
X153849027Y-50960685D02*
X153801408Y-51008304D01*
X153801408Y-51008304D02*
X153753789Y-51103542D01*
X153753789Y-51103542D02*
X153753789Y-51341637D01*
X153753789Y-51341637D02*
X153801408Y-51436875D01*
X153801408Y-51436875D02*
X153849027Y-51484495D01*
X153849027Y-51484495D02*
X153944265Y-51532114D01*
X153944265Y-51532114D02*
X154182360Y-51532114D01*
X154182360Y-51532114D02*
X154277598Y-51484495D01*
X154277598Y-51484495D02*
X154325217Y-51436875D01*
X127053789Y-111487114D02*
X127053789Y-112201399D01*
X127053789Y-112201399D02*
X127101408Y-112344256D01*
X127101408Y-112344256D02*
X127196646Y-112439495D01*
X127196646Y-112439495D02*
X127339503Y-112487114D01*
X127339503Y-112487114D02*
X127434741Y-112487114D01*
X126672836Y-111487114D02*
X126053789Y-111487114D01*
X126053789Y-111487114D02*
X126387122Y-111868066D01*
X126387122Y-111868066D02*
X126244265Y-111868066D01*
X126244265Y-111868066D02*
X126149027Y-111915685D01*
X126149027Y-111915685D02*
X126101408Y-111963304D01*
X126101408Y-111963304D02*
X126053789Y-112058542D01*
X126053789Y-112058542D02*
X126053789Y-112296637D01*
X126053789Y-112296637D02*
X126101408Y-112391875D01*
X126101408Y-112391875D02*
X126149027Y-112439495D01*
X126149027Y-112439495D02*
X126244265Y-112487114D01*
X126244265Y-112487114D02*
X126529979Y-112487114D01*
X126529979Y-112487114D02*
X126625217Y-112439495D01*
X126625217Y-112439495D02*
X126672836Y-112391875D01*
X154753789Y-119082114D02*
X154753789Y-119796399D01*
X154753789Y-119796399D02*
X154801408Y-119939256D01*
X154801408Y-119939256D02*
X154896646Y-120034495D01*
X154896646Y-120034495D02*
X155039503Y-120082114D01*
X155039503Y-120082114D02*
X155134741Y-120082114D01*
X153849027Y-119415447D02*
X153849027Y-120082114D01*
X154087122Y-119034495D02*
X154325217Y-119748780D01*
X154325217Y-119748780D02*
X153706170Y-119748780D01*
D13*
%TO.C,G\u002A\u002A\u002A*%
G36*
X151903903Y-88665439D02*
G01*
X151903903Y-88858954D01*
X151804895Y-88858954D01*
X151705888Y-88858954D01*
X151705888Y-88665439D01*
X151705888Y-88471924D01*
X151804895Y-88471924D01*
X151903903Y-88471924D01*
X151903903Y-88665439D01*
G37*
G36*
X151903903Y-89448501D02*
G01*
X151903903Y-89642016D01*
X151804895Y-89642016D01*
X151705888Y-89642016D01*
X151705888Y-89448501D01*
X151705888Y-89254985D01*
X151804895Y-89254985D01*
X151903903Y-89254985D01*
X151903903Y-89448501D01*
G37*
G36*
X152677964Y-92463738D02*
G01*
X152677964Y-92756261D01*
X152385441Y-92756261D01*
X152092918Y-92756261D01*
X152092918Y-92463738D01*
X152092918Y-92171215D01*
X152385441Y-92171215D01*
X152677964Y-92171215D01*
X152677964Y-92463738D01*
G37*
G36*
X152677964Y-89543008D02*
G01*
X152677964Y-89642016D01*
X152578956Y-89642016D01*
X152479948Y-89642016D01*
X152479948Y-89543008D01*
X152479948Y-89444000D01*
X152578956Y-89444000D01*
X152677964Y-89444000D01*
X152677964Y-89543008D01*
G37*
G36*
X153064995Y-87207324D02*
G01*
X153064995Y-87301832D01*
X152970487Y-87301832D01*
X152875980Y-87301832D01*
X152875980Y-87207324D01*
X152875980Y-87112817D01*
X152970487Y-87112817D01*
X153064995Y-87112817D01*
X153064995Y-87207324D01*
G37*
G36*
X154235087Y-86041732D02*
G01*
X154235087Y-86140740D01*
X154136079Y-86140740D01*
X154037071Y-86140740D01*
X154037071Y-86041732D01*
X154037071Y-85942725D01*
X154136079Y-85942725D01*
X154235087Y-85942725D01*
X154235087Y-86041732D01*
G37*
G36*
X155207163Y-86041732D02*
G01*
X155207163Y-86140740D01*
X155112656Y-86140740D01*
X155018148Y-86140740D01*
X155018148Y-86041732D01*
X155018148Y-85942725D01*
X155112656Y-85942725D01*
X155207163Y-85942725D01*
X155207163Y-86041732D01*
G37*
G36*
X155990225Y-87985885D02*
G01*
X155990225Y-88084893D01*
X155891217Y-88084893D01*
X155792209Y-88084893D01*
X155792209Y-87985885D01*
X155792209Y-87886878D01*
X155891217Y-87886878D01*
X155990225Y-87886878D01*
X155990225Y-87985885D01*
G37*
G36*
X156179240Y-92657253D02*
G01*
X156179240Y-92756261D01*
X156084732Y-92756261D01*
X155990225Y-92756261D01*
X155990225Y-92657253D01*
X155990225Y-92558245D01*
X156084732Y-92558245D01*
X156179240Y-92558245D01*
X156179240Y-92657253D01*
G37*
G36*
X156575271Y-91878692D02*
G01*
X156575271Y-91973199D01*
X156476263Y-91973199D01*
X156377255Y-91973199D01*
X156377255Y-91878692D01*
X156377255Y-91784184D01*
X156476263Y-91784184D01*
X156575271Y-91784184D01*
X156575271Y-91878692D01*
G37*
G36*
X156962301Y-86815793D02*
G01*
X156962301Y-86914801D01*
X156863294Y-86914801D01*
X156764286Y-86914801D01*
X156764286Y-86815793D01*
X156764286Y-86716785D01*
X156863294Y-86716785D01*
X156962301Y-86716785D01*
X156962301Y-86815793D01*
G37*
G36*
X157349332Y-86041732D02*
G01*
X157349332Y-86140740D01*
X157056809Y-86140740D01*
X156764286Y-86140740D01*
X156764286Y-86041732D01*
X156764286Y-85942725D01*
X157056809Y-85942725D01*
X157349332Y-85942725D01*
X157349332Y-86041732D01*
G37*
G36*
X157349332Y-90713100D02*
G01*
X157349332Y-90812108D01*
X157250324Y-90812108D01*
X157151316Y-90812108D01*
X157151316Y-90713100D01*
X157151316Y-90614092D01*
X157250324Y-90614092D01*
X157349332Y-90614092D01*
X157349332Y-90713100D01*
G37*
G36*
X157736362Y-89155978D02*
G01*
X157736362Y-89254985D01*
X157641855Y-89254985D01*
X157547347Y-89254985D01*
X157547347Y-89155978D01*
X157547347Y-89056970D01*
X157641855Y-89056970D01*
X157736362Y-89056970D01*
X157736362Y-89155978D01*
G37*
G36*
X157736362Y-90713100D02*
G01*
X157736362Y-90812108D01*
X157641855Y-90812108D01*
X157547347Y-90812108D01*
X157547347Y-90713100D01*
X157547347Y-90614092D01*
X157641855Y-90614092D01*
X157736362Y-90614092D01*
X157736362Y-90713100D01*
G37*
G36*
X158519424Y-86622278D02*
G01*
X158519424Y-86914801D01*
X158226901Y-86914801D01*
X157934378Y-86914801D01*
X157934378Y-86622278D01*
X157934378Y-86329755D01*
X158226901Y-86329755D01*
X158519424Y-86329755D01*
X158519424Y-86622278D01*
G37*
G36*
X158519424Y-92463738D02*
G01*
X158519424Y-92756261D01*
X158226901Y-92756261D01*
X157934378Y-92756261D01*
X157934378Y-92463738D01*
X157934378Y-92171215D01*
X158226901Y-92171215D01*
X158519424Y-92171215D01*
X158519424Y-92463738D01*
G37*
G36*
X154622117Y-90906615D02*
G01*
X154622117Y-91001123D01*
X154527610Y-91001123D01*
X154433102Y-91001123D01*
X154433102Y-91100131D01*
X154433102Y-91199138D01*
X154334094Y-91199138D01*
X154235087Y-91199138D01*
X154235087Y-91100131D01*
X154235087Y-91001123D01*
X154334094Y-91001123D01*
X154433102Y-91001123D01*
X154433102Y-90906615D01*
X154433102Y-90812108D01*
X154527610Y-90812108D01*
X154622117Y-90812108D01*
X154622117Y-90906615D01*
G37*
G36*
X156962301Y-86428763D02*
G01*
X156962301Y-86527771D01*
X156768786Y-86527771D01*
X156575271Y-86527771D01*
X156575271Y-86622278D01*
X156575271Y-86716785D01*
X156476263Y-86716785D01*
X156377255Y-86716785D01*
X156377255Y-86622278D01*
X156377255Y-86527771D01*
X156476263Y-86527771D01*
X156575271Y-86527771D01*
X156575271Y-86428763D01*
X156575271Y-86329755D01*
X156768786Y-86329755D01*
X156962301Y-86329755D01*
X156962301Y-86428763D01*
G37*
G36*
X153064995Y-92463738D02*
G01*
X153064995Y-93143291D01*
X152389941Y-93143291D01*
X152385441Y-93143291D01*
X151705888Y-93143291D01*
X151705888Y-92463738D01*
X151705888Y-92459238D01*
X151903903Y-92459238D01*
X151903903Y-92945276D01*
X152389941Y-92945276D01*
X152875980Y-92945276D01*
X152875980Y-92459238D01*
X152875980Y-91973199D01*
X152389941Y-91973199D01*
X151903903Y-91973199D01*
X151903903Y-92459238D01*
X151705888Y-92459238D01*
X151705888Y-91784184D01*
X152385441Y-91784184D01*
X153064995Y-91784184D01*
X153064995Y-92463738D01*
G37*
G36*
X158906454Y-86622278D02*
G01*
X158906454Y-87301832D01*
X158226901Y-87301832D01*
X158222401Y-87301832D01*
X157547347Y-87301832D01*
X157547347Y-86626778D01*
X157736362Y-86626778D01*
X157736362Y-87112817D01*
X158222401Y-87112817D01*
X158708439Y-87112817D01*
X158708439Y-86626778D01*
X158708439Y-86140740D01*
X158222401Y-86140740D01*
X157736362Y-86140740D01*
X157736362Y-86626778D01*
X157547347Y-86626778D01*
X157547347Y-86622278D01*
X157547347Y-85942725D01*
X158226901Y-85942725D01*
X158906454Y-85942725D01*
X158906454Y-86622278D01*
G37*
G36*
X158906454Y-92463738D02*
G01*
X158906454Y-93143291D01*
X158226901Y-93143291D01*
X158222401Y-93143291D01*
X157547347Y-93143291D01*
X157547347Y-92463738D01*
X157547347Y-92459238D01*
X157736362Y-92459238D01*
X157736362Y-92945276D01*
X158222401Y-92945276D01*
X158708439Y-92945276D01*
X158708439Y-92459238D01*
X158708439Y-91973199D01*
X158222401Y-91973199D01*
X157736362Y-91973199D01*
X157736362Y-92459238D01*
X157547347Y-92459238D01*
X157547347Y-91784184D01*
X158226901Y-91784184D01*
X158906454Y-91784184D01*
X158906454Y-92463738D01*
G37*
G36*
X155594194Y-89930038D02*
G01*
X155594194Y-90029046D01*
X155400678Y-90029046D01*
X155207163Y-90029046D01*
X155207163Y-90128054D01*
X155207163Y-90227062D01*
X155306171Y-90227062D01*
X155405179Y-90227062D01*
X155405179Y-90519585D01*
X155405179Y-90812108D01*
X155306171Y-90812108D01*
X155207163Y-90812108D01*
X155207163Y-90614092D01*
X155207163Y-90416077D01*
X155013648Y-90416077D01*
X154820133Y-90416077D01*
X154820133Y-90321569D01*
X154820133Y-90227062D01*
X154919141Y-90227062D01*
X155018148Y-90227062D01*
X155018148Y-90029046D01*
X155018148Y-89831031D01*
X155306171Y-89831031D01*
X155594194Y-89831031D01*
X155594194Y-89930038D01*
G37*
G36*
X155792209Y-86041732D02*
G01*
X155792209Y-86140740D01*
X155693201Y-86140740D01*
X155594194Y-86140740D01*
X155594194Y-86235248D01*
X155594194Y-86329755D01*
X155499686Y-86329755D01*
X155405179Y-86329755D01*
X155405179Y-86428763D01*
X155405179Y-86527771D01*
X155306171Y-86527771D01*
X155207163Y-86527771D01*
X155207163Y-86428763D01*
X155207163Y-86329755D01*
X155306171Y-86329755D01*
X155405179Y-86329755D01*
X155405179Y-86235248D01*
X155405179Y-86140740D01*
X155499686Y-86140740D01*
X155594194Y-86140740D01*
X155594194Y-86041732D01*
X155594194Y-85942725D01*
X155693201Y-85942725D01*
X155792209Y-85942725D01*
X155792209Y-86041732D01*
G37*
G36*
X158321408Y-87598855D02*
G01*
X158321408Y-87697863D01*
X158127893Y-87697863D01*
X157934378Y-87697863D01*
X157934378Y-87792370D01*
X157934378Y-87886878D01*
X157835370Y-87886878D01*
X157736362Y-87886878D01*
X157736362Y-87985885D01*
X157736362Y-88084893D01*
X157443839Y-88084893D01*
X157151316Y-88084893D01*
X157151316Y-87985885D01*
X157151316Y-87886878D01*
X157443839Y-87886878D01*
X157736362Y-87886878D01*
X157736362Y-87792370D01*
X157736362Y-87697863D01*
X157641855Y-87697863D01*
X157547347Y-87697863D01*
X157547347Y-87598855D01*
X157547347Y-87499847D01*
X157934378Y-87499847D01*
X158321408Y-87499847D01*
X158321408Y-87598855D01*
G37*
G36*
X158033386Y-87886878D02*
G01*
X158132394Y-87886878D01*
X158132394Y-87985885D01*
X158132394Y-88084893D01*
X158033386Y-88084893D01*
X157934378Y-88084893D01*
X157934378Y-87985885D01*
X157934378Y-87886878D01*
X158033386Y-87886878D01*
G37*
G36*
X151903903Y-86041732D02*
G01*
X151903903Y-86140740D01*
X152290934Y-86140740D01*
X152677964Y-86140740D01*
X152677964Y-86041732D01*
X152677964Y-85942725D01*
X152871479Y-85942725D01*
X153064995Y-85942725D01*
X153064995Y-86136240D01*
X153064995Y-86329755D01*
X152970487Y-86329755D01*
X152875980Y-86329755D01*
X152875980Y-86235248D01*
X152875980Y-86140740D01*
X152776972Y-86140740D01*
X152677964Y-86140740D01*
X152677964Y-86334255D01*
X152677964Y-86527771D01*
X152578956Y-86527771D01*
X152479948Y-86527771D01*
X152479948Y-86428763D01*
X152479948Y-86329755D01*
X152385441Y-86329755D01*
X152290934Y-86329755D01*
X152290934Y-86523270D01*
X152290934Y-86716785D01*
X152191926Y-86716785D01*
X152092918Y-86716785D01*
X152092918Y-86523270D01*
X152092918Y-86329755D01*
X151998411Y-86329755D01*
X151903903Y-86329755D01*
X151903903Y-86622278D01*
X151903903Y-86914801D01*
X151804895Y-86914801D01*
X151705888Y-86914801D01*
X151705888Y-86428763D01*
X151705888Y-85942725D01*
X151804895Y-85942725D01*
X151903903Y-85942725D01*
X151903903Y-86041732D01*
G37*
G36*
X156179240Y-89155978D02*
G01*
X156179240Y-89254985D01*
X156084732Y-89254985D01*
X155990225Y-89254985D01*
X155990225Y-89349493D01*
X155990225Y-89444000D01*
X156183740Y-89444000D01*
X156377255Y-89444000D01*
X156377255Y-89250485D01*
X156377255Y-89056970D01*
X156476263Y-89056970D01*
X156575271Y-89056970D01*
X156575271Y-89250485D01*
X156575271Y-89444000D01*
X156476263Y-89444000D01*
X156377255Y-89444000D01*
X156377255Y-89543008D01*
X156377255Y-89642016D01*
X156476263Y-89642016D01*
X156575271Y-89642016D01*
X156575271Y-89543008D01*
X156575271Y-89444000D01*
X156669778Y-89444000D01*
X156764286Y-89444000D01*
X156764286Y-89543008D01*
X156764286Y-89642016D01*
X156669778Y-89642016D01*
X156575271Y-89642016D01*
X156575271Y-89736523D01*
X156575271Y-89831031D01*
X156669778Y-89831031D01*
X156764286Y-89831031D01*
X156764286Y-89930038D01*
X156764286Y-90029046D01*
X156570771Y-90029046D01*
X156377255Y-90029046D01*
X156377255Y-89930038D01*
X156377255Y-89831031D01*
X156183740Y-89831031D01*
X155990225Y-89831031D01*
X155990225Y-89930038D01*
X155990225Y-90029046D01*
X155891217Y-90029046D01*
X155792209Y-90029046D01*
X155792209Y-89930038D01*
X155792209Y-89831031D01*
X155891217Y-89831031D01*
X155990225Y-89831031D01*
X155990225Y-89637515D01*
X155990225Y-89444000D01*
X155891217Y-89444000D01*
X155792209Y-89444000D01*
X155792209Y-89543008D01*
X155792209Y-89642016D01*
X155598694Y-89642016D01*
X155405179Y-89642016D01*
X155405179Y-89543008D01*
X155405179Y-89444000D01*
X155499686Y-89444000D01*
X155594194Y-89444000D01*
X155594194Y-89349493D01*
X155594194Y-89254985D01*
X155792209Y-89254985D01*
X155990225Y-89254985D01*
X155990225Y-89155978D01*
X155990225Y-89056970D01*
X156084732Y-89056970D01*
X156179240Y-89056970D01*
X156179240Y-89155978D01*
G37*
G36*
X155891217Y-91388153D02*
G01*
X155990225Y-91388153D01*
X155990225Y-91487161D01*
X155990225Y-91586169D01*
X155891217Y-91586169D01*
X155792209Y-91586169D01*
X155792209Y-91977700D01*
X155792209Y-92369231D01*
X155891217Y-92369231D01*
X155990225Y-92369231D01*
X155990225Y-92463738D01*
X155990225Y-92558245D01*
X155697702Y-92558245D01*
X155405179Y-92558245D01*
X155405179Y-92463738D01*
X155405179Y-92369231D01*
X155499686Y-92369231D01*
X155594194Y-92369231D01*
X155594194Y-92076708D01*
X155594194Y-91784184D01*
X155499686Y-91784184D01*
X155405179Y-91784184D01*
X155405179Y-91878692D01*
X155405179Y-91973199D01*
X155306171Y-91973199D01*
X155207163Y-91973199D01*
X155207163Y-91878692D01*
X155207163Y-91784184D01*
X155112656Y-91784184D01*
X155018148Y-91784184D01*
X155018148Y-91977700D01*
X155018148Y-92171215D01*
X154919141Y-92171215D01*
X154820133Y-92171215D01*
X154820133Y-91977700D01*
X154820133Y-91784184D01*
X154919141Y-91784184D01*
X155018148Y-91784184D01*
X155018148Y-91685177D01*
X155018148Y-91586169D01*
X155405179Y-91586169D01*
X155792209Y-91586169D01*
X155792209Y-91487161D01*
X155792209Y-91388153D01*
X155891217Y-91388153D01*
G37*
G36*
X155211664Y-92171215D02*
G01*
X155405179Y-92171215D01*
X155405179Y-92270223D01*
X155405179Y-92369231D01*
X155211664Y-92369231D01*
X155018148Y-92369231D01*
X155018148Y-92270223D01*
X155018148Y-92171215D01*
X155211664Y-92171215D01*
G37*
G36*
X155792209Y-90906615D02*
G01*
X155792209Y-91001123D01*
X155891217Y-91001123D01*
X155990225Y-91001123D01*
X155990225Y-91100131D01*
X155990225Y-91199138D01*
X155891217Y-91199138D01*
X155792209Y-91199138D01*
X155792209Y-91293646D01*
X155792209Y-91388153D01*
X155693201Y-91388153D01*
X155594194Y-91388153D01*
X155594194Y-91194638D01*
X155594194Y-91001123D01*
X155499686Y-91001123D01*
X155405179Y-91001123D01*
X155405179Y-90906615D01*
X155405179Y-90812108D01*
X155598694Y-90812108D01*
X155792209Y-90812108D01*
X155792209Y-90906615D01*
G37*
G36*
X154820133Y-88080393D02*
G01*
X154820133Y-88273908D01*
X154919141Y-88273908D01*
X155018148Y-88273908D01*
X155018148Y-88179401D01*
X155018148Y-88084893D01*
X155112656Y-88084893D01*
X155207163Y-88084893D01*
X155207163Y-87985885D01*
X155207163Y-87886878D01*
X155400678Y-87886878D01*
X155594194Y-87886878D01*
X155594194Y-87985885D01*
X155594194Y-88084893D01*
X155499686Y-88084893D01*
X155405179Y-88084893D01*
X155405179Y-88179401D01*
X155405179Y-88273908D01*
X155211664Y-88273908D01*
X155018148Y-88273908D01*
X155018148Y-88372916D01*
X155018148Y-88471924D01*
X154725625Y-88471924D01*
X154433102Y-88471924D01*
X154433102Y-88665439D01*
X154433102Y-88858954D01*
X154527610Y-88858954D01*
X154622117Y-88858954D01*
X154622117Y-88957962D01*
X154622117Y-89056970D01*
X154428602Y-89056970D01*
X154235087Y-89056970D01*
X154235087Y-89155978D01*
X154235087Y-89254985D01*
X154136079Y-89254985D01*
X154037071Y-89254985D01*
X154037071Y-89349493D01*
X154037071Y-89444000D01*
X154235087Y-89444000D01*
X154433102Y-89444000D01*
X154433102Y-89349493D01*
X154433102Y-89254985D01*
X154527610Y-89254985D01*
X154622117Y-89254985D01*
X154622117Y-89543008D01*
X154622117Y-89831031D01*
X154721125Y-89831031D01*
X154820133Y-89831031D01*
X154820133Y-90029046D01*
X154820133Y-90227062D01*
X154527610Y-90227062D01*
X154235087Y-90227062D01*
X154235087Y-90128054D01*
X154235087Y-90029046D01*
X154334094Y-90029046D01*
X154433102Y-90029046D01*
X154433102Y-89835531D01*
X154433102Y-89642016D01*
X154235087Y-89642016D01*
X154037071Y-89642016D01*
X154037071Y-89835531D01*
X154037071Y-90029046D01*
X153942564Y-90029046D01*
X153848056Y-90029046D01*
X153848056Y-89642016D01*
X153848056Y-89254985D01*
X153942564Y-89254985D01*
X154037071Y-89254985D01*
X154037071Y-89155978D01*
X154037071Y-89056970D01*
X154136079Y-89056970D01*
X154235087Y-89056970D01*
X154235087Y-88570931D01*
X154235087Y-88084893D01*
X154428602Y-88084893D01*
X154622117Y-88084893D01*
X154622117Y-87985885D01*
X154622117Y-87886878D01*
X154721125Y-87886878D01*
X154820133Y-87886878D01*
X154820133Y-88080393D01*
G37*
G36*
X155499686Y-88273908D02*
G01*
X155594194Y-88273908D01*
X155594194Y-88372916D01*
X155594194Y-88471924D01*
X155499686Y-88471924D01*
X155405179Y-88471924D01*
X155405179Y-88570931D01*
X155405179Y-88669939D01*
X155306171Y-88669939D01*
X155207163Y-88669939D01*
X155207163Y-88570931D01*
X155207163Y-88471924D01*
X155306171Y-88471924D01*
X155405179Y-88471924D01*
X155405179Y-88372916D01*
X155405179Y-88273908D01*
X155499686Y-88273908D01*
G37*
G36*
X153650041Y-86235248D02*
G01*
X153650041Y-86527771D01*
X153555533Y-86527771D01*
X153461026Y-86527771D01*
X153461026Y-86622278D01*
X153461026Y-86716785D01*
X153555533Y-86716785D01*
X153650041Y-86716785D01*
X153650041Y-86622278D01*
X153650041Y-86527771D01*
X153749048Y-86527771D01*
X153848056Y-86527771D01*
X153848056Y-86721286D01*
X153848056Y-86914801D01*
X153749048Y-86914801D01*
X153650041Y-86914801D01*
X153650041Y-87013809D01*
X153650041Y-87112817D01*
X153555533Y-87112817D01*
X153461026Y-87112817D01*
X153461026Y-87207324D01*
X153461026Y-87301832D01*
X153555533Y-87301832D01*
X153650041Y-87301832D01*
X153650041Y-87207324D01*
X153848056Y-87207324D01*
X153848056Y-87301832D01*
X153942564Y-87301832D01*
X154037071Y-87301832D01*
X154037071Y-87207324D01*
X154037071Y-87112817D01*
X153942564Y-87112817D01*
X153848056Y-87112817D01*
X153848056Y-87207324D01*
X153650041Y-87207324D01*
X153650041Y-87112817D01*
X153749048Y-87112817D01*
X153848056Y-87112817D01*
X153848056Y-87013809D01*
X153848056Y-86914801D01*
X154041571Y-86914801D01*
X154235087Y-86914801D01*
X154235087Y-86622278D01*
X154235087Y-86329755D01*
X154428602Y-86329755D01*
X154622117Y-86329755D01*
X154622117Y-86428763D01*
X154622117Y-86527771D01*
X154820133Y-86527771D01*
X155018148Y-86527771D01*
X155018148Y-86622278D01*
X155018148Y-86716785D01*
X155211664Y-86716785D01*
X155405179Y-86716785D01*
X155405179Y-86815793D01*
X155405179Y-86914801D01*
X155306171Y-86914801D01*
X155207163Y-86914801D01*
X155207163Y-87013809D01*
X155207163Y-87112817D01*
X155400678Y-87112817D01*
X155594194Y-87112817D01*
X155594194Y-87207324D01*
X155594194Y-87301832D01*
X155693201Y-87301832D01*
X155792209Y-87301832D01*
X155792209Y-87108316D01*
X155792209Y-86914801D01*
X155693201Y-86914801D01*
X155594194Y-86914801D01*
X155594194Y-86815793D01*
X155594194Y-86716785D01*
X155792209Y-86716785D01*
X155990225Y-86716785D01*
X155990225Y-86523270D01*
X155990225Y-86329755D01*
X155891217Y-86329755D01*
X155792209Y-86329755D01*
X155792209Y-86235248D01*
X155792209Y-86140740D01*
X155891217Y-86140740D01*
X155990225Y-86140740D01*
X155990225Y-86041732D01*
X155990225Y-85942725D01*
X156282748Y-85942725D01*
X156575271Y-85942725D01*
X156575271Y-86136240D01*
X156575271Y-86329755D01*
X156377255Y-86329755D01*
X156179240Y-86329755D01*
X156179240Y-86622278D01*
X156179240Y-86914801D01*
X156084732Y-86914801D01*
X155990225Y-86914801D01*
X155990225Y-87013809D01*
X155990225Y-87112817D01*
X156084732Y-87112817D01*
X156179240Y-87112817D01*
X156179240Y-87013809D01*
X156179240Y-86914801D01*
X156278248Y-86914801D01*
X156377255Y-86914801D01*
X156377255Y-87013809D01*
X156377255Y-87112817D01*
X156764286Y-87112817D01*
X157151316Y-87112817D01*
X157151316Y-86820294D01*
X157151316Y-86527771D01*
X157250324Y-86527771D01*
X157349332Y-86527771D01*
X157349332Y-87013809D01*
X157349332Y-87499847D01*
X157250324Y-87499847D01*
X157151316Y-87499847D01*
X157151316Y-87598855D01*
X157151316Y-87697863D01*
X157056809Y-87697863D01*
X156962301Y-87697863D01*
X156962301Y-87598855D01*
X156962301Y-87499847D01*
X157056809Y-87499847D01*
X157151316Y-87499847D01*
X157151316Y-87400839D01*
X157151316Y-87301832D01*
X157056809Y-87301832D01*
X156962301Y-87301832D01*
X156962301Y-87400839D01*
X156962301Y-87499847D01*
X156768786Y-87499847D01*
X156575271Y-87499847D01*
X156575271Y-87400839D01*
X156575271Y-87301832D01*
X156377255Y-87301832D01*
X156179240Y-87301832D01*
X156179240Y-87400839D01*
X156179240Y-87499847D01*
X156084732Y-87499847D01*
X155990225Y-87499847D01*
X155990225Y-87598855D01*
X155990225Y-87697863D01*
X155891217Y-87697863D01*
X155792209Y-87697863D01*
X155792209Y-87792370D01*
X155792209Y-87886878D01*
X155693201Y-87886878D01*
X155594194Y-87886878D01*
X155594194Y-87693362D01*
X155594194Y-87499847D01*
X155499686Y-87499847D01*
X155405179Y-87499847D01*
X155405179Y-87400839D01*
X155405179Y-87301832D01*
X155306171Y-87301832D01*
X155207163Y-87301832D01*
X155207163Y-87594355D01*
X155207163Y-87886878D01*
X155112656Y-87886878D01*
X155018148Y-87886878D01*
X155018148Y-87792370D01*
X155018148Y-87697863D01*
X154919141Y-87697863D01*
X154820133Y-87697863D01*
X154820133Y-87598855D01*
X154820133Y-87499847D01*
X154721125Y-87499847D01*
X154622117Y-87499847D01*
X154622117Y-87693362D01*
X154622117Y-87886878D01*
X154527610Y-87886878D01*
X154433102Y-87886878D01*
X154433102Y-87792370D01*
X154433102Y-87697863D01*
X154334094Y-87697863D01*
X154235087Y-87697863D01*
X154235087Y-87598855D01*
X154235087Y-87499847D01*
X154334094Y-87499847D01*
X154433102Y-87499847D01*
X154433102Y-87400839D01*
X154433102Y-87301832D01*
X154626618Y-87301832D01*
X154820133Y-87301832D01*
X154820133Y-87207324D01*
X154820133Y-87112817D01*
X154919141Y-87112817D01*
X155018148Y-87112817D01*
X155018148Y-87013809D01*
X155018148Y-86914801D01*
X154919141Y-86914801D01*
X154820133Y-86914801D01*
X154820133Y-87013809D01*
X154820133Y-87112817D01*
X154721125Y-87112817D01*
X154622117Y-87112817D01*
X154622117Y-86914801D01*
X154622117Y-86716785D01*
X154527610Y-86716785D01*
X154433102Y-86716785D01*
X154433102Y-86815793D01*
X154433102Y-86914801D01*
X154334094Y-86914801D01*
X154235087Y-86914801D01*
X154235087Y-87013809D01*
X154235087Y-87112817D01*
X154334094Y-87112817D01*
X154433102Y-87112817D01*
X154433102Y-87207324D01*
X154433102Y-87301832D01*
X154235087Y-87301832D01*
X154037071Y-87301832D01*
X154037071Y-87400839D01*
X154037071Y-87499847D01*
X153942564Y-87499847D01*
X153843556Y-87499847D01*
X153650041Y-87499847D01*
X153650041Y-87598855D01*
X153650041Y-87697863D01*
X153555533Y-87697863D01*
X153461026Y-87697863D01*
X153461026Y-87792370D01*
X153461026Y-87886878D01*
X153654541Y-87886878D01*
X153848056Y-87886878D01*
X153848056Y-88080393D01*
X153848056Y-88273908D01*
X153749048Y-88273908D01*
X153650041Y-88273908D01*
X153650041Y-88372916D01*
X153650041Y-88471924D01*
X153555533Y-88471924D01*
X153461026Y-88471924D01*
X153461026Y-88278408D01*
X153461026Y-88084893D01*
X153362018Y-88084893D01*
X153263010Y-88084893D01*
X153263010Y-88278408D01*
X153263010Y-88471924D01*
X153164002Y-88471924D01*
X153069495Y-88471924D01*
X152875980Y-88471924D01*
X152875980Y-88570931D01*
X152875980Y-88669939D01*
X153263010Y-88669939D01*
X153650041Y-88669939D01*
X153650041Y-88570931D01*
X153650041Y-88471924D01*
X153749048Y-88471924D01*
X153848056Y-88471924D01*
X153848056Y-88764447D01*
X153848056Y-89056970D01*
X153749048Y-89056970D01*
X153650041Y-89056970D01*
X153650041Y-89642016D01*
X153650041Y-90227062D01*
X153942564Y-90227062D01*
X154235087Y-90227062D01*
X154235087Y-90321569D01*
X154235087Y-90416077D01*
X154136079Y-90416077D01*
X154037071Y-90416077D01*
X154037071Y-90515085D01*
X154037071Y-90614092D01*
X154136079Y-90614092D01*
X154235087Y-90614092D01*
X154235087Y-90515085D01*
X154235087Y-90416077D01*
X154527610Y-90416077D01*
X154820133Y-90416077D01*
X154820133Y-90515085D01*
X154820133Y-90614092D01*
X154919141Y-90614092D01*
X155018148Y-90614092D01*
X155018148Y-90713100D01*
X155018148Y-90812108D01*
X155112656Y-90812108D01*
X155207163Y-90812108D01*
X155207163Y-90906615D01*
X155207163Y-91001123D01*
X155306171Y-91001123D01*
X155405179Y-91001123D01*
X155405179Y-91194638D01*
X155405179Y-91388153D01*
X155306171Y-91388153D01*
X155207163Y-91388153D01*
X155207163Y-91293646D01*
X155207163Y-91199138D01*
X155013648Y-91199138D01*
X154820133Y-91199138D01*
X154820133Y-91005623D01*
X154820133Y-90812108D01*
X154721125Y-90812108D01*
X154622117Y-90812108D01*
X154622117Y-90713100D01*
X154622117Y-90614092D01*
X154527610Y-90614092D01*
X154433102Y-90614092D01*
X154433102Y-90713100D01*
X154433102Y-90812108D01*
X154334094Y-90812108D01*
X154235087Y-90812108D01*
X154235087Y-90906615D01*
X154235087Y-91001123D01*
X154136079Y-91001123D01*
X154037071Y-91001123D01*
X154037071Y-91100131D01*
X154037071Y-91199138D01*
X154136079Y-91199138D01*
X154235087Y-91199138D01*
X154235087Y-91392654D01*
X154235087Y-91586169D01*
X154136079Y-91586169D01*
X154037071Y-91586169D01*
X154037071Y-91685177D01*
X154037071Y-91784184D01*
X153942564Y-91784184D01*
X153848056Y-91784184D01*
X153848056Y-91878692D01*
X153848056Y-91973199D01*
X153942564Y-91973199D01*
X154037071Y-91973199D01*
X154037071Y-91878692D01*
X154037071Y-91784184D01*
X154136079Y-91784184D01*
X154235087Y-91784184D01*
X154235087Y-91878692D01*
X154235087Y-91973199D01*
X154334094Y-91973199D01*
X154433102Y-91973199D01*
X154433102Y-91680676D01*
X154433102Y-91388153D01*
X154626618Y-91388153D01*
X154820133Y-91388153D01*
X154820133Y-91487161D01*
X154820133Y-91586169D01*
X154721125Y-91586169D01*
X154622117Y-91586169D01*
X154622117Y-91878692D01*
X154622117Y-92171215D01*
X154721125Y-92171215D01*
X154820133Y-92171215D01*
X154820133Y-92270223D01*
X154820133Y-92369231D01*
X154919141Y-92369231D01*
X155018148Y-92369231D01*
X155018148Y-92463738D01*
X155018148Y-92558245D01*
X154919141Y-92558245D01*
X154820133Y-92558245D01*
X154820133Y-92657253D01*
X154820133Y-92756261D01*
X154721125Y-92756261D01*
X154622117Y-92756261D01*
X154622117Y-92850768D01*
X154622117Y-92945276D01*
X154820133Y-92945276D01*
X155018148Y-92945276D01*
X155018148Y-92751761D01*
X155018148Y-92558245D01*
X155112656Y-92558245D01*
X155207163Y-92558245D01*
X155207163Y-92657253D01*
X155207163Y-92756261D01*
X155598694Y-92756261D01*
X155990225Y-92756261D01*
X155990225Y-92850768D01*
X155990225Y-92945276D01*
X156183740Y-92945276D01*
X156377255Y-92945276D01*
X156377255Y-92751761D01*
X156377255Y-92558245D01*
X156278248Y-92558245D01*
X156179240Y-92558245D01*
X156179240Y-92463738D01*
X156179240Y-92369231D01*
X156084732Y-92369231D01*
X155990225Y-92369231D01*
X155990225Y-92076708D01*
X155990225Y-91784184D01*
X156084732Y-91784184D01*
X156179240Y-91784184D01*
X156179240Y-91586169D01*
X156179240Y-91388153D01*
X156084732Y-91388153D01*
X155990225Y-91388153D01*
X155990225Y-91293646D01*
X155990225Y-91199138D01*
X156282748Y-91199138D01*
X156575271Y-91199138D01*
X156575271Y-91293646D01*
X156575271Y-91388153D01*
X156768786Y-91388153D01*
X156962301Y-91388153D01*
X156962301Y-91293646D01*
X156962301Y-91199138D01*
X157056809Y-91199138D01*
X157151316Y-91199138D01*
X157151316Y-91293646D01*
X157151316Y-91388153D01*
X157542847Y-91388153D01*
X157934378Y-91388153D01*
X157934378Y-91293646D01*
X157934378Y-91199138D01*
X158226901Y-91199138D01*
X158519424Y-91199138D01*
X158519424Y-91293646D01*
X158519424Y-91388153D01*
X158420416Y-91388153D01*
X158321408Y-91388153D01*
X158321408Y-91487161D01*
X158321408Y-91586169D01*
X157736362Y-91586169D01*
X157151316Y-91586169D01*
X157151316Y-91685177D01*
X157151316Y-91784184D01*
X157056809Y-91784184D01*
X156962301Y-91784184D01*
X156962301Y-91878692D01*
X156962301Y-91973199D01*
X156863294Y-91973199D01*
X156764286Y-91973199D01*
X156764286Y-92072207D01*
X156764286Y-92171215D01*
X156669778Y-92171215D01*
X156575271Y-92171215D01*
X156575271Y-92072207D01*
X156575271Y-91973199D01*
X156669778Y-91973199D01*
X156764286Y-91973199D01*
X156764286Y-91878692D01*
X156764286Y-91784184D01*
X156863294Y-91784184D01*
X156962301Y-91784184D01*
X156962301Y-91685177D01*
X156962301Y-91586169D01*
X156669778Y-91586169D01*
X156377255Y-91586169D01*
X156377255Y-91685177D01*
X156377255Y-91784184D01*
X156278248Y-91784184D01*
X156179240Y-91784184D01*
X156179240Y-91878692D01*
X156179240Y-91973199D01*
X156278248Y-91973199D01*
X156377255Y-91973199D01*
X156377255Y-92171215D01*
X156377255Y-92369231D01*
X156476263Y-92369231D01*
X156575271Y-92369231D01*
X156575271Y-92463738D01*
X156575271Y-92558245D01*
X156669778Y-92558245D01*
X156764286Y-92558245D01*
X156764286Y-92657253D01*
X156764286Y-92756261D01*
X156863294Y-92756261D01*
X156962301Y-92756261D01*
X156962301Y-92562746D01*
X156962301Y-92369231D01*
X157056809Y-92369231D01*
X157151316Y-92369231D01*
X157151316Y-92270223D01*
X157151316Y-92171215D01*
X157250324Y-92171215D01*
X157349332Y-92171215D01*
X157349332Y-92270223D01*
X157349332Y-92369231D01*
X157250324Y-92369231D01*
X157151316Y-92369231D01*
X157151316Y-92463738D01*
X157151316Y-92558245D01*
X157250324Y-92558245D01*
X157349332Y-92558245D01*
X157349332Y-92850768D01*
X157349332Y-93143291D01*
X157155817Y-93143291D01*
X156962301Y-93143291D01*
X156962301Y-93044284D01*
X156962301Y-92945276D01*
X156768786Y-92945276D01*
X156575271Y-92945276D01*
X156575271Y-93044284D01*
X156575271Y-93143291D01*
X155990225Y-93143291D01*
X155405179Y-93143291D01*
X155405179Y-93044284D01*
X155405179Y-92945276D01*
X155306171Y-92945276D01*
X155207163Y-92945276D01*
X155207163Y-93044284D01*
X155207163Y-93143291D01*
X154721125Y-93143291D01*
X154527610Y-93143291D01*
X154235087Y-93143291D01*
X154235087Y-93044284D01*
X154235087Y-92945276D01*
X154136079Y-92945276D01*
X154037071Y-92945276D01*
X154037071Y-93044284D01*
X154037071Y-93143291D01*
X153942564Y-93143291D01*
X153848056Y-93143291D01*
X153848056Y-93044284D01*
X153848056Y-92945276D01*
X153942564Y-92945276D01*
X154037071Y-92945276D01*
X154037071Y-92850768D01*
X154037071Y-92756261D01*
X154136079Y-92756261D01*
X154235087Y-92756261D01*
X154235087Y-92657253D01*
X154235087Y-92562746D01*
X154433102Y-92562746D01*
X154433102Y-92756261D01*
X154527610Y-92756261D01*
X154622117Y-92756261D01*
X154622117Y-92562746D01*
X154622117Y-92369231D01*
X154527610Y-92369231D01*
X154433102Y-92369231D01*
X154433102Y-92562746D01*
X154235087Y-92562746D01*
X154235087Y-92558245D01*
X154140579Y-92558245D01*
X154136079Y-92558245D01*
X154037071Y-92558245D01*
X154037071Y-92657253D01*
X154037071Y-92756261D01*
X153942564Y-92756261D01*
X153848056Y-92756261D01*
X153848056Y-92850768D01*
X153848056Y-92945276D01*
X153749048Y-92945276D01*
X153650041Y-92945276D01*
X153650041Y-92751761D01*
X153650041Y-92558245D01*
X153749048Y-92558245D01*
X153848056Y-92558245D01*
X153848056Y-92463738D01*
X153848056Y-92369231D01*
X154140579Y-92369231D01*
X154433102Y-92369231D01*
X154433102Y-92270223D01*
X154433102Y-92171215D01*
X154140579Y-92171215D01*
X153848056Y-92171215D01*
X153848056Y-92270223D01*
X153848056Y-92369231D01*
X153749048Y-92369231D01*
X153650041Y-92369231D01*
X153650041Y-92270223D01*
X153650041Y-92171215D01*
X153749048Y-92171215D01*
X153848056Y-92171215D01*
X153848056Y-92072207D01*
X153848056Y-91973199D01*
X153749048Y-91973199D01*
X153650041Y-91973199D01*
X153650041Y-91878692D01*
X153650041Y-91784184D01*
X153555533Y-91784184D01*
X153461026Y-91784184D01*
X153461026Y-92270223D01*
X153461026Y-92756261D01*
X153362018Y-92756261D01*
X153263010Y-92756261D01*
X153263010Y-92171215D01*
X153263010Y-91586169D01*
X153164002Y-91586169D01*
X153064995Y-91586169D01*
X153064995Y-91487161D01*
X153461026Y-91487161D01*
X153461026Y-91586169D01*
X153555533Y-91586169D01*
X153650041Y-91586169D01*
X153650041Y-91487161D01*
X153848056Y-91487161D01*
X153848056Y-91586169D01*
X153942564Y-91586169D01*
X154037071Y-91586169D01*
X154037071Y-91487161D01*
X154037071Y-91388153D01*
X153942564Y-91388153D01*
X153848056Y-91388153D01*
X153848056Y-91487161D01*
X153650041Y-91487161D01*
X153650041Y-91388153D01*
X153555533Y-91388153D01*
X153461026Y-91388153D01*
X153461026Y-91487161D01*
X153064995Y-91487161D01*
X153064995Y-91388153D01*
X153263010Y-91388153D01*
X153461026Y-91388153D01*
X153461026Y-91293646D01*
X153461026Y-91199138D01*
X153362018Y-91199138D01*
X153263010Y-91199138D01*
X153263010Y-91100131D01*
X153263010Y-91001123D01*
X153456525Y-91001123D01*
X153650041Y-91001123D01*
X153650041Y-90906615D01*
X153650041Y-90812108D01*
X153749048Y-90812108D01*
X153848056Y-90812108D01*
X153848056Y-90906615D01*
X153848056Y-91001123D01*
X153749048Y-91001123D01*
X153650041Y-91001123D01*
X153650041Y-91100131D01*
X153650041Y-91199138D01*
X153749048Y-91199138D01*
X153848056Y-91199138D01*
X153848056Y-91100131D01*
X153848056Y-91001123D01*
X153942564Y-91001123D01*
X154037071Y-91001123D01*
X154037071Y-90807608D01*
X154037071Y-90614092D01*
X153749048Y-90614092D01*
X153461026Y-90614092D01*
X153461026Y-90713100D01*
X153461026Y-90812108D01*
X153362018Y-90812108D01*
X153263010Y-90812108D01*
X153263010Y-90713100D01*
X153263010Y-90614092D01*
X153362018Y-90614092D01*
X153461026Y-90614092D01*
X153461026Y-90515085D01*
X153461026Y-90416077D01*
X153168503Y-90416077D01*
X152970487Y-90416077D01*
X152875980Y-90416077D01*
X152875980Y-90321569D01*
X152875980Y-90227062D01*
X152970487Y-90227062D01*
X153064995Y-90227062D01*
X153064995Y-90128054D01*
X153064995Y-90029046D01*
X152970487Y-90029046D01*
X152875980Y-90029046D01*
X152875980Y-90128054D01*
X152875980Y-90227062D01*
X152776972Y-90227062D01*
X152677964Y-90227062D01*
X152677964Y-90420577D01*
X152677964Y-90614092D01*
X152578956Y-90614092D01*
X152479948Y-90614092D01*
X152479948Y-90713100D01*
X152479948Y-90812108D01*
X152385441Y-90812108D01*
X152290934Y-90812108D01*
X152290934Y-90906615D01*
X152290934Y-91001123D01*
X152097418Y-91001123D01*
X151903903Y-91001123D01*
X151903903Y-91100131D01*
X151903903Y-91199138D01*
X151804895Y-91199138D01*
X151705888Y-91199138D01*
X151705888Y-90906615D01*
X151705888Y-90614092D01*
X151804895Y-90614092D01*
X151903903Y-90614092D01*
X151903903Y-90713100D01*
X151903903Y-90812108D01*
X152097418Y-90812108D01*
X152290934Y-90812108D01*
X152290934Y-90614092D01*
X152290934Y-90416077D01*
X152191926Y-90416077D01*
X152092918Y-90416077D01*
X152092918Y-90515085D01*
X152092918Y-90614092D01*
X151998411Y-90614092D01*
X151903903Y-90614092D01*
X151903903Y-90515085D01*
X151903903Y-90416077D01*
X151804895Y-90416077D01*
X151705888Y-90416077D01*
X151705888Y-90222562D01*
X151705888Y-90029046D01*
X151804895Y-90029046D01*
X151903903Y-90029046D01*
X151903903Y-90128054D01*
X151903903Y-90227062D01*
X151998411Y-90227062D01*
X152092918Y-90227062D01*
X152092918Y-90029046D01*
X152092918Y-89831031D01*
X152191926Y-89831031D01*
X152290934Y-89831031D01*
X152290934Y-89736523D01*
X152290934Y-89642016D01*
X152385441Y-89642016D01*
X152479948Y-89642016D01*
X152479948Y-89736523D01*
X152479948Y-89831031D01*
X152385441Y-89831031D01*
X152290934Y-89831031D01*
X152290934Y-89930038D01*
X152290934Y-90029046D01*
X152385441Y-90029046D01*
X152479948Y-90029046D01*
X152479948Y-90128054D01*
X152479948Y-90227062D01*
X152578956Y-90227062D01*
X152677964Y-90227062D01*
X152677964Y-90029046D01*
X152677964Y-89831031D01*
X152970487Y-89831031D01*
X153263010Y-89831031D01*
X153263010Y-89930038D01*
X153263010Y-90029046D01*
X153362018Y-90029046D01*
X153461026Y-90029046D01*
X153461026Y-89930038D01*
X153461026Y-89831031D01*
X153362018Y-89831031D01*
X153263010Y-89831031D01*
X153263010Y-89736523D01*
X153263010Y-89642016D01*
X153362018Y-89642016D01*
X153461026Y-89642016D01*
X153461026Y-89543008D01*
X153461026Y-89444000D01*
X153362018Y-89444000D01*
X153263010Y-89444000D01*
X153263010Y-89543008D01*
X153263010Y-89642016D01*
X153164002Y-89642016D01*
X153064995Y-89642016D01*
X153064995Y-89543008D01*
X153064995Y-89444000D01*
X152970487Y-89444000D01*
X152875980Y-89444000D01*
X152875980Y-89349493D01*
X152875980Y-89254985D01*
X152871479Y-89254985D01*
X152677964Y-89254985D01*
X152479948Y-89254985D01*
X152479948Y-89349493D01*
X152479948Y-89444000D01*
X152385441Y-89444000D01*
X152290934Y-89444000D01*
X152290934Y-89543008D01*
X152290934Y-89642016D01*
X152191926Y-89642016D01*
X152092918Y-89642016D01*
X152092918Y-89543008D01*
X152092918Y-89444000D01*
X152191926Y-89444000D01*
X152290934Y-89444000D01*
X152290934Y-89250485D01*
X152290934Y-89056970D01*
X152385441Y-89056970D01*
X152479948Y-89056970D01*
X152479948Y-88957962D01*
X152677964Y-88957962D01*
X152677964Y-89056970D01*
X152871479Y-89056970D01*
X153064995Y-89056970D01*
X153064995Y-88957962D01*
X153263010Y-88957962D01*
X153263010Y-89056970D01*
X153362018Y-89056970D01*
X153461026Y-89056970D01*
X153461026Y-88957962D01*
X153461026Y-88858954D01*
X153362018Y-88858954D01*
X153263010Y-88858954D01*
X153263010Y-88957962D01*
X153064995Y-88957962D01*
X153064995Y-88858954D01*
X152871479Y-88858954D01*
X152677964Y-88858954D01*
X152677964Y-88957962D01*
X152479948Y-88957962D01*
X152479948Y-88858954D01*
X152578956Y-88858954D01*
X152677964Y-88858954D01*
X152677964Y-88764447D01*
X152677964Y-88669939D01*
X152578956Y-88669939D01*
X152479948Y-88669939D01*
X152479948Y-88764447D01*
X152479948Y-88858954D01*
X152385441Y-88858954D01*
X152290934Y-88858954D01*
X152290934Y-88957962D01*
X152290934Y-89056970D01*
X152191926Y-89056970D01*
X152092918Y-89056970D01*
X152092918Y-88957962D01*
X152092918Y-88858954D01*
X152191926Y-88858954D01*
X152290934Y-88858954D01*
X152290934Y-88764447D01*
X152290934Y-88669939D01*
X152191926Y-88669939D01*
X152092918Y-88669939D01*
X152092918Y-88570931D01*
X152092918Y-88471924D01*
X152385441Y-88471924D01*
X152677964Y-88471924D01*
X152677964Y-88372916D01*
X152677964Y-88273908D01*
X152871479Y-88273908D01*
X153064995Y-88273908D01*
X153064995Y-88179401D01*
X153064995Y-88084893D01*
X152970487Y-88084893D01*
X152871479Y-88084893D01*
X152677964Y-88084893D01*
X152677964Y-87985885D01*
X152677964Y-87886878D01*
X152776972Y-87886878D01*
X152875980Y-87886878D01*
X152875980Y-87792370D01*
X153064995Y-87792370D01*
X153064995Y-87886878D01*
X153164002Y-87886878D01*
X153263010Y-87886878D01*
X153263010Y-87792370D01*
X153263010Y-87697863D01*
X153164002Y-87697863D01*
X153064995Y-87697863D01*
X153064995Y-87792370D01*
X152875980Y-87792370D01*
X152875980Y-87697863D01*
X152776972Y-87697863D01*
X152677964Y-87697863D01*
X152677964Y-87792370D01*
X152677964Y-87886878D01*
X152484449Y-87886878D01*
X152290934Y-87886878D01*
X152290934Y-87985885D01*
X152290934Y-88084893D01*
X152484449Y-88084893D01*
X152677964Y-88084893D01*
X152677964Y-88179401D01*
X152677964Y-88273908D01*
X152385441Y-88273908D01*
X152092918Y-88273908D01*
X152092918Y-88179401D01*
X152092918Y-88084893D01*
X151899403Y-88084893D01*
X151705888Y-88084893D01*
X151705888Y-87985885D01*
X151705888Y-87886878D01*
X151899403Y-87886878D01*
X152092918Y-87886878D01*
X152092918Y-87792370D01*
X152092918Y-87697863D01*
X151899403Y-87697863D01*
X151705888Y-87697863D01*
X151705888Y-87598855D01*
X151705888Y-87499847D01*
X151804895Y-87499847D01*
X151903903Y-87499847D01*
X151903903Y-87400839D01*
X151903903Y-87301832D01*
X151804895Y-87301832D01*
X151705888Y-87301832D01*
X151705888Y-87207324D01*
X151705888Y-87112817D01*
X151899403Y-87112817D01*
X152092918Y-87112817D01*
X152092918Y-87207324D01*
X152092918Y-87301832D01*
X152191926Y-87301832D01*
X152290934Y-87301832D01*
X152290934Y-87499847D01*
X152290934Y-87697863D01*
X152385441Y-87697863D01*
X152479948Y-87697863D01*
X152479948Y-87207324D01*
X152677964Y-87207324D01*
X152677964Y-87499847D01*
X152970487Y-87499847D01*
X153263010Y-87499847D01*
X153263010Y-87207324D01*
X153263010Y-86914801D01*
X152970487Y-86914801D01*
X152677964Y-86914801D01*
X152677964Y-87207324D01*
X152479948Y-87207324D01*
X152479948Y-86716785D01*
X152677964Y-86716785D01*
X152875980Y-86716785D01*
X152875980Y-86622278D01*
X152875980Y-86527771D01*
X152970487Y-86527771D01*
X153064995Y-86527771D01*
X153064995Y-86428763D01*
X153064995Y-86329755D01*
X153263010Y-86329755D01*
X153461026Y-86329755D01*
X153461026Y-86235248D01*
X153461026Y-86140740D01*
X153362018Y-86140740D01*
X153263010Y-86140740D01*
X153263010Y-86041732D01*
X153263010Y-85942725D01*
X153456525Y-85942725D01*
X153650041Y-85942725D01*
X153650041Y-86235248D01*
G37*
G36*
X156863294Y-92171215D02*
G01*
X156962301Y-92171215D01*
X156962301Y-92270223D01*
X156962301Y-92369231D01*
X156863294Y-92369231D01*
X156764286Y-92369231D01*
X156764286Y-92270223D01*
X156764286Y-92171215D01*
X156863294Y-92171215D01*
G37*
G36*
X157250324Y-91784184D02*
G01*
X157349332Y-91784184D01*
X157349332Y-91878692D01*
X157349332Y-91973199D01*
X157250324Y-91973199D01*
X157151316Y-91973199D01*
X157151316Y-91878692D01*
X157151316Y-91784184D01*
X157250324Y-91784184D01*
G37*
G36*
X152484449Y-91001123D02*
G01*
X152677964Y-91001123D01*
X152677964Y-91100131D01*
X152677964Y-91199138D01*
X152776972Y-91199138D01*
X152875980Y-91199138D01*
X152875980Y-91100131D01*
X152875980Y-91001123D01*
X152970487Y-91001123D01*
X153064995Y-91001123D01*
X153064995Y-91100131D01*
X153064995Y-91199138D01*
X152970487Y-91199138D01*
X152875980Y-91199138D01*
X152875980Y-91293646D01*
X152875980Y-91388153D01*
X152776972Y-91388153D01*
X152677964Y-91388153D01*
X152677964Y-91487161D01*
X152677964Y-91586169D01*
X152578956Y-91586169D01*
X152479948Y-91586169D01*
X152479948Y-91392654D01*
X152479948Y-91199138D01*
X152385441Y-91199138D01*
X152290934Y-91199138D01*
X152290934Y-91392654D01*
X152290934Y-91586169D01*
X152097418Y-91586169D01*
X151998411Y-91586169D01*
X151705888Y-91586169D01*
X151705888Y-91487161D01*
X151705888Y-91388153D01*
X151804895Y-91388153D01*
X151903903Y-91388153D01*
X151903903Y-91293646D01*
X151903903Y-91199138D01*
X152097418Y-91199138D01*
X152290934Y-91199138D01*
X152290934Y-91100131D01*
X152290934Y-91001123D01*
X152484449Y-91001123D01*
G37*
G36*
X157547347Y-89349493D02*
G01*
X157547347Y-89444000D01*
X157740863Y-89444000D01*
X157934378Y-89444000D01*
X157934378Y-89543008D01*
X157934378Y-89642016D01*
X158226901Y-89642016D01*
X158519424Y-89642016D01*
X158519424Y-89543008D01*
X158519424Y-89444000D01*
X158325909Y-89444000D01*
X158132394Y-89444000D01*
X158132394Y-89349493D01*
X158132394Y-89254985D01*
X158519424Y-89254985D01*
X158906454Y-89254985D01*
X158906454Y-89642016D01*
X158906454Y-90029046D01*
X158712939Y-90029046D01*
X158519424Y-90029046D01*
X158519424Y-89930038D01*
X158519424Y-89831031D01*
X158420416Y-89831031D01*
X158321408Y-89831031D01*
X158321408Y-90029046D01*
X158321408Y-90227062D01*
X158226901Y-90227062D01*
X158132394Y-90227062D01*
X158132394Y-90321569D01*
X158132394Y-90416077D01*
X158325909Y-90416077D01*
X158519424Y-90416077D01*
X158519424Y-90321569D01*
X158519424Y-90227062D01*
X158613931Y-90227062D01*
X158708439Y-90227062D01*
X158708439Y-90321569D01*
X158708439Y-90416077D01*
X158613931Y-90416077D01*
X158519424Y-90416077D01*
X158519424Y-90515085D01*
X158519424Y-90614092D01*
X158712939Y-90614092D01*
X158906454Y-90614092D01*
X158906454Y-91100131D01*
X158906454Y-91586169D01*
X158807447Y-91586169D01*
X158708439Y-91586169D01*
X158708439Y-91293646D01*
X158708439Y-91001123D01*
X158613931Y-91001123D01*
X158519424Y-91001123D01*
X158519424Y-90906615D01*
X158519424Y-90812108D01*
X158226901Y-90812108D01*
X157934378Y-90812108D01*
X157934378Y-91005623D01*
X157934378Y-91199138D01*
X157641855Y-91199138D01*
X157349332Y-91199138D01*
X157349332Y-91005623D01*
X157349332Y-90812108D01*
X157448340Y-90812108D01*
X157547347Y-90812108D01*
X157547347Y-90906615D01*
X157547347Y-91001123D01*
X157641855Y-91001123D01*
X157736362Y-91001123D01*
X157736362Y-90906615D01*
X157736362Y-90812108D01*
X157835370Y-90812108D01*
X157934378Y-90812108D01*
X157934378Y-90713100D01*
X157934378Y-90614092D01*
X158033386Y-90614092D01*
X158132394Y-90614092D01*
X158132394Y-90515085D01*
X158132394Y-90416077D01*
X157839871Y-90416077D01*
X157641855Y-90416077D01*
X157547347Y-90416077D01*
X157547347Y-90515085D01*
X157547347Y-90614092D01*
X157448340Y-90614092D01*
X157349332Y-90614092D01*
X157349332Y-90515085D01*
X157349332Y-90416077D01*
X157250324Y-90416077D01*
X157151316Y-90416077D01*
X157151316Y-90515085D01*
X157151316Y-90614092D01*
X156957801Y-90614092D01*
X156764286Y-90614092D01*
X156764286Y-90807608D01*
X156764286Y-91001123D01*
X156377255Y-91001123D01*
X155990225Y-91001123D01*
X155990225Y-90906615D01*
X155990225Y-90812108D01*
X155891217Y-90812108D01*
X155792209Y-90812108D01*
X155792209Y-90614092D01*
X155792209Y-90416077D01*
X155693201Y-90416077D01*
X155594194Y-90416077D01*
X155594194Y-90222562D01*
X155594194Y-90029046D01*
X155693201Y-90029046D01*
X155792209Y-90029046D01*
X155792209Y-90128054D01*
X155792209Y-90227062D01*
X155891217Y-90227062D01*
X155990225Y-90227062D01*
X155990225Y-90321569D01*
X155990225Y-90416077D01*
X156084732Y-90416077D01*
X156179240Y-90416077D01*
X156179240Y-90614092D01*
X156179240Y-90812108D01*
X156377255Y-90812108D01*
X156575271Y-90812108D01*
X156575271Y-90713100D01*
X156575271Y-90614092D01*
X156476263Y-90614092D01*
X156377255Y-90614092D01*
X156377255Y-90515085D01*
X156377255Y-90416077D01*
X156570771Y-90416077D01*
X156764286Y-90416077D01*
X156764286Y-90321569D01*
X156764286Y-90227062D01*
X156957801Y-90227062D01*
X157151316Y-90227062D01*
X157151316Y-90128054D01*
X157547347Y-90128054D01*
X157547347Y-90227062D01*
X157641855Y-90227062D01*
X157736362Y-90227062D01*
X157736362Y-90128054D01*
X157736362Y-90029046D01*
X157641855Y-90029046D01*
X157547347Y-90029046D01*
X157547347Y-90128054D01*
X157151316Y-90128054D01*
X157151316Y-90029046D01*
X157250324Y-90029046D01*
X157349332Y-90029046D01*
X157349332Y-89930038D01*
X157349332Y-89831031D01*
X157542847Y-89831031D01*
X157736362Y-89831031D01*
X157736362Y-89736523D01*
X157736362Y-89642016D01*
X157542847Y-89642016D01*
X157349332Y-89642016D01*
X157349332Y-89736523D01*
X157349332Y-89831031D01*
X157056809Y-89831031D01*
X156764286Y-89831031D01*
X156764286Y-89736523D01*
X156764286Y-89642016D01*
X156957801Y-89642016D01*
X157151316Y-89642016D01*
X157151316Y-89543008D01*
X157151316Y-89444000D01*
X157056809Y-89444000D01*
X156962301Y-89444000D01*
X156962301Y-89349493D01*
X156962301Y-89254985D01*
X157254824Y-89254985D01*
X157547347Y-89254985D01*
X157547347Y-89349493D01*
G37*
G36*
X152871479Y-90614092D02*
G01*
X153064995Y-90614092D01*
X153064995Y-90713100D01*
X153064995Y-90812108D01*
X152871479Y-90812108D01*
X152677964Y-90812108D01*
X152677964Y-90713100D01*
X152677964Y-90614092D01*
X152871479Y-90614092D01*
G37*
G36*
X158906454Y-87886878D02*
G01*
X158906454Y-88273908D01*
X158807447Y-88273908D01*
X158708439Y-88273908D01*
X158708439Y-88471924D01*
X158708439Y-88669939D01*
X158613931Y-88669939D01*
X158519424Y-88669939D01*
X158519424Y-88764447D01*
X158519424Y-88858954D01*
X158613931Y-88858954D01*
X158708439Y-88858954D01*
X158708439Y-88764447D01*
X158708439Y-88669939D01*
X158807447Y-88669939D01*
X158906454Y-88669939D01*
X158906454Y-88764447D01*
X158906454Y-88858954D01*
X158807447Y-88858954D01*
X158708439Y-88858954D01*
X158708439Y-88957962D01*
X158708439Y-89056970D01*
X158613931Y-89056970D01*
X158420416Y-89056970D01*
X158132394Y-89056970D01*
X158132394Y-89155978D01*
X158132394Y-89254985D01*
X158033386Y-89254985D01*
X157934378Y-89254985D01*
X157934378Y-89155978D01*
X157934378Y-89056970D01*
X158033386Y-89056970D01*
X158132394Y-89056970D01*
X158132394Y-88957962D01*
X158132394Y-88858954D01*
X158033386Y-88858954D01*
X157934378Y-88858954D01*
X157934378Y-88957962D01*
X157934378Y-89056970D01*
X157835370Y-89056970D01*
X157736362Y-89056970D01*
X157736362Y-88957962D01*
X157736362Y-88858954D01*
X157641855Y-88858954D01*
X157547347Y-88858954D01*
X157547347Y-88957962D01*
X157547347Y-89056970D01*
X157349332Y-89056970D01*
X157151316Y-89056970D01*
X157151316Y-88957962D01*
X157151316Y-88858954D01*
X157250324Y-88858954D01*
X157349332Y-88858954D01*
X157349332Y-88764447D01*
X157349332Y-88669939D01*
X157250324Y-88669939D01*
X157151316Y-88669939D01*
X157151316Y-88764447D01*
X157151316Y-88858954D01*
X156957801Y-88858954D01*
X156764286Y-88858954D01*
X156764286Y-88957962D01*
X156764286Y-89056970D01*
X156669778Y-89056970D01*
X156575271Y-89056970D01*
X156575271Y-88957962D01*
X156575271Y-88858954D01*
X156377255Y-88858954D01*
X156278248Y-88858954D01*
X156179240Y-88858954D01*
X156179240Y-88764447D01*
X156179240Y-88669939D01*
X156084732Y-88669939D01*
X155990225Y-88669939D01*
X155990225Y-88863455D01*
X155990225Y-89056970D01*
X155792209Y-89056970D01*
X155594194Y-89056970D01*
X155594194Y-89155978D01*
X155594194Y-89254985D01*
X155499686Y-89254985D01*
X155405179Y-89254985D01*
X155405179Y-89155978D01*
X155405179Y-89056970D01*
X155306171Y-89056970D01*
X155207163Y-89056970D01*
X155207163Y-89349493D01*
X155207163Y-89642016D01*
X155112656Y-89642016D01*
X155018148Y-89642016D01*
X155018148Y-89543008D01*
X155018148Y-89444000D01*
X154919141Y-89444000D01*
X154820133Y-89444000D01*
X154820133Y-89349493D01*
X154820133Y-89254985D01*
X154919141Y-89254985D01*
X155018148Y-89254985D01*
X155018148Y-89155978D01*
X155018148Y-89056970D01*
X154919141Y-89056970D01*
X154820133Y-89056970D01*
X154820133Y-88957962D01*
X154820133Y-88858954D01*
X154721125Y-88858954D01*
X154622117Y-88858954D01*
X154622117Y-88764447D01*
X154622117Y-88669939D01*
X154820133Y-88669939D01*
X155018148Y-88669939D01*
X155018148Y-88764447D01*
X155018148Y-88858954D01*
X155405179Y-88858954D01*
X155792209Y-88858954D01*
X155792209Y-88764447D01*
X155792209Y-88669939D01*
X155693201Y-88669939D01*
X155594194Y-88669939D01*
X155594194Y-88570931D01*
X156377255Y-88570931D01*
X156377255Y-88669939D01*
X156669778Y-88669939D01*
X156962301Y-88669939D01*
X156962301Y-88570931D01*
X156962301Y-88471924D01*
X156669778Y-88471924D01*
X156377255Y-88471924D01*
X156377255Y-88570931D01*
X155594194Y-88570931D01*
X155594194Y-88471924D01*
X155693201Y-88471924D01*
X155792209Y-88471924D01*
X155792209Y-88372916D01*
X155792209Y-88273908D01*
X155891217Y-88273908D01*
X155990225Y-88273908D01*
X155990225Y-88179401D01*
X155990225Y-88084893D01*
X156084732Y-88084893D01*
X156179240Y-88084893D01*
X156179240Y-87985885D01*
X156179240Y-87886878D01*
X156278248Y-87886878D01*
X156377255Y-87886878D01*
X156377255Y-87792370D01*
X156377255Y-87697863D01*
X156476263Y-87697863D01*
X156575271Y-87697863D01*
X156575271Y-87792370D01*
X156575271Y-87886878D01*
X156768786Y-87886878D01*
X156962301Y-87886878D01*
X156962301Y-87985885D01*
X156962301Y-88084893D01*
X156669778Y-88084893D01*
X156377255Y-88084893D01*
X156377255Y-88179401D01*
X156377255Y-88273908D01*
X156278248Y-88273908D01*
X156179240Y-88273908D01*
X156179240Y-88372916D01*
X156179240Y-88471924D01*
X156278248Y-88471924D01*
X156377255Y-88471924D01*
X156377255Y-88372916D01*
X156377255Y-88273908D01*
X156764286Y-88273908D01*
X157151316Y-88273908D01*
X157151316Y-88372916D01*
X157151316Y-88471924D01*
X157349332Y-88471924D01*
X157547347Y-88471924D01*
X157547347Y-88372916D01*
X157547347Y-88273908D01*
X157641855Y-88273908D01*
X157736362Y-88273908D01*
X157736362Y-88372916D01*
X157736362Y-88471924D01*
X157641855Y-88471924D01*
X157547347Y-88471924D01*
X157547347Y-88570931D01*
X157547347Y-88669939D01*
X157641855Y-88669939D01*
X157736362Y-88669939D01*
X157736362Y-88570931D01*
X157736362Y-88471924D01*
X157835370Y-88471924D01*
X157934378Y-88471924D01*
X157934378Y-88372916D01*
X157934378Y-88273908D01*
X158033386Y-88273908D01*
X158132394Y-88273908D01*
X158132394Y-88179401D01*
X158519424Y-88179401D01*
X158519424Y-88273908D01*
X158613931Y-88273908D01*
X158708439Y-88273908D01*
X158708439Y-88179401D01*
X158708439Y-88084893D01*
X158613931Y-88084893D01*
X158519424Y-88084893D01*
X158519424Y-88179401D01*
X158132394Y-88179401D01*
X158132394Y-88084893D01*
X158226901Y-88084893D01*
X158321408Y-88084893D01*
X158321408Y-87891378D01*
X158321408Y-87697863D01*
X158420416Y-87697863D01*
X158519424Y-87697863D01*
X158519424Y-87792370D01*
X158519424Y-87886878D01*
X158613931Y-87886878D01*
X158708439Y-87886878D01*
X158708439Y-87693362D01*
X158708439Y-87499847D01*
X158807447Y-87499847D01*
X158906454Y-87499847D01*
X158906454Y-87886878D01*
G37*
G36*
X156278248Y-87499847D02*
G01*
X156377255Y-87499847D01*
X156377255Y-87598855D01*
X156377255Y-87697863D01*
X156278248Y-87697863D01*
X156179240Y-87697863D01*
X156179240Y-87598855D01*
X156179240Y-87499847D01*
X156278248Y-87499847D01*
G37*
D14*
%TO.C,J2*%
X125390456Y-54677295D02*
X125390456Y-57277295D01*
X128050456Y-52077295D02*
X126720456Y-52077295D01*
X128050456Y-53407295D02*
X128050456Y-52077295D01*
X128050456Y-54677295D02*
X125390456Y-54677295D01*
X128050456Y-54677295D02*
X128050456Y-57277295D01*
X128050456Y-57277295D02*
X125390456Y-57277295D01*
%TO.C,J5*%
X153090456Y-54677295D02*
X153090456Y-64897295D01*
X155750456Y-52077295D02*
X154420456Y-52077295D01*
X155750456Y-53407295D02*
X155750456Y-52077295D01*
X155750456Y-54677295D02*
X153090456Y-54677295D01*
X155750456Y-54677295D02*
X155750456Y-64897295D01*
X155750456Y-64897295D02*
X153090456Y-64897295D01*
%TO.C,J3*%
X125390456Y-115632295D02*
X125390456Y-133472295D01*
X128050456Y-113032295D02*
X126720456Y-113032295D01*
X128050456Y-114362295D02*
X128050456Y-113032295D01*
X128050456Y-115632295D02*
X125390456Y-115632295D01*
X128050456Y-115632295D02*
X128050456Y-133472295D01*
X128050456Y-133472295D02*
X125390456Y-133472295D01*
%TO.C,J4*%
X153090456Y-123227295D02*
X153090456Y-133447295D01*
X155750456Y-120627295D02*
X154420456Y-120627295D01*
X155750456Y-121957295D02*
X155750456Y-120627295D01*
X155750456Y-123227295D02*
X153090456Y-123227295D01*
X155750456Y-123227295D02*
X155750456Y-133447295D01*
X155750456Y-133447295D02*
X153090456Y-133447295D01*
%TD*%
M02*
