%TF.GenerationSoftware,KiCad,Pcbnew,9.0.1+1*%
%TF.CreationDate,2026-03-05T22:01:08+00:00*%
%TF.ProjectId,CSC202_LED_MODULE,43534332-3032-45f4-9c45-445f4d4f4455,A*%
%TF.SameCoordinates,Original*%
%TF.FileFunction,Legend,Top*%
%TF.FilePolarity,Positive*%
%FSLAX46Y46*%
G04 Gerber Fmt 4.6, Leading zero omitted, Abs format (unit mm)*
G04 Created by KiCad (PCBNEW 9.0.1+1) date 2026-03-05 22:01:08*
%MOMM*%
%LPD*%
G01*
G04 APERTURE LIST*
%ADD10C,0.200000*%
%ADD11C,0.150000*%
%ADD12C,0.300000*%
%ADD13C,0.220000*%
%ADD14C,0.240000*%
%ADD15C,0.120000*%
%ADD16C,0.100000*%
%ADD17C,0.000000*%
G04 APERTURE END LIST*
D10*
X132593639Y-129793561D02*
X132546020Y-129841181D01*
X132546020Y-129841181D02*
X132403163Y-129888800D01*
X132403163Y-129888800D02*
X132307925Y-129888800D01*
X132307925Y-129888800D02*
X132165068Y-129841181D01*
X132165068Y-129841181D02*
X132069830Y-129745942D01*
X132069830Y-129745942D02*
X132022211Y-129650704D01*
X132022211Y-129650704D02*
X131974592Y-129460228D01*
X131974592Y-129460228D02*
X131974592Y-129317371D01*
X131974592Y-129317371D02*
X132022211Y-129126895D01*
X132022211Y-129126895D02*
X132069830Y-129031657D01*
X132069830Y-129031657D02*
X132165068Y-128936419D01*
X132165068Y-128936419D02*
X132307925Y-128888800D01*
X132307925Y-128888800D02*
X132403163Y-128888800D01*
X132403163Y-128888800D02*
X132546020Y-128936419D01*
X132546020Y-128936419D02*
X132593639Y-128984038D01*
X132974592Y-129841181D02*
X133117449Y-129888800D01*
X133117449Y-129888800D02*
X133355544Y-129888800D01*
X133355544Y-129888800D02*
X133450782Y-129841181D01*
X133450782Y-129841181D02*
X133498401Y-129793561D01*
X133498401Y-129793561D02*
X133546020Y-129698323D01*
X133546020Y-129698323D02*
X133546020Y-129603085D01*
X133546020Y-129603085D02*
X133498401Y-129507847D01*
X133498401Y-129507847D02*
X133450782Y-129460228D01*
X133450782Y-129460228D02*
X133355544Y-129412609D01*
X133355544Y-129412609D02*
X133165068Y-129364990D01*
X133165068Y-129364990D02*
X133069830Y-129317371D01*
X133069830Y-129317371D02*
X133022211Y-129269752D01*
X133022211Y-129269752D02*
X132974592Y-129174514D01*
X132974592Y-129174514D02*
X132974592Y-129079276D01*
X132974592Y-129079276D02*
X133022211Y-128984038D01*
X133022211Y-128984038D02*
X133069830Y-128936419D01*
X133069830Y-128936419D02*
X133165068Y-128888800D01*
X133165068Y-128888800D02*
X133403163Y-128888800D01*
X133403163Y-128888800D02*
X133546020Y-128936419D01*
X134165068Y-128888800D02*
X134260306Y-128888800D01*
X134260306Y-128888800D02*
X134355544Y-128936419D01*
X134355544Y-128936419D02*
X134403163Y-128984038D01*
X134403163Y-128984038D02*
X134450782Y-129079276D01*
X134450782Y-129079276D02*
X134498401Y-129269752D01*
X134498401Y-129269752D02*
X134498401Y-129507847D01*
X134498401Y-129507847D02*
X134450782Y-129698323D01*
X134450782Y-129698323D02*
X134403163Y-129793561D01*
X134403163Y-129793561D02*
X134355544Y-129841181D01*
X134355544Y-129841181D02*
X134260306Y-129888800D01*
X134260306Y-129888800D02*
X134165068Y-129888800D01*
X134165068Y-129888800D02*
X134069830Y-129841181D01*
X134069830Y-129841181D02*
X134022211Y-129793561D01*
X134022211Y-129793561D02*
X133974592Y-129698323D01*
X133974592Y-129698323D02*
X133926973Y-129507847D01*
X133926973Y-129507847D02*
X133926973Y-129269752D01*
X133926973Y-129269752D02*
X133974592Y-129079276D01*
X133974592Y-129079276D02*
X134022211Y-128984038D01*
X134022211Y-128984038D02*
X134069830Y-128936419D01*
X134069830Y-128936419D02*
X134165068Y-128888800D01*
D11*
X148685875Y-101878724D02*
X148638256Y-101926343D01*
X148638256Y-101926343D02*
X148590636Y-101878724D01*
X148590636Y-101878724D02*
X148638256Y-101831105D01*
X148638256Y-101831105D02*
X148685875Y-101878724D01*
X148685875Y-101878724D02*
X148590636Y-101878724D01*
X148590636Y-102878723D02*
X148590636Y-102307295D01*
X148590636Y-102593009D02*
X149590636Y-102593009D01*
X149590636Y-102593009D02*
X149447779Y-102497771D01*
X149447779Y-102497771D02*
X149352541Y-102402533D01*
X149352541Y-102402533D02*
X149304922Y-102307295D01*
X149257303Y-103307295D02*
X148257303Y-103307295D01*
X148733494Y-103783485D02*
X148638256Y-103831104D01*
X148638256Y-103831104D02*
X148590636Y-103926342D01*
X148733494Y-103307295D02*
X148638256Y-103354914D01*
X148638256Y-103354914D02*
X148590636Y-103450152D01*
X148590636Y-103450152D02*
X148590636Y-103640628D01*
X148590636Y-103640628D02*
X148638256Y-103735866D01*
X148638256Y-103735866D02*
X148733494Y-103783485D01*
X148733494Y-103783485D02*
X149257303Y-103783485D01*
X149114446Y-104688247D02*
X149114446Y-104354914D01*
X148590636Y-104354914D02*
X149590636Y-104354914D01*
X149590636Y-104354914D02*
X149590636Y-104831104D01*
X129675636Y-73326818D02*
X129675636Y-72850628D01*
X129675636Y-72850628D02*
X130675636Y-72850628D01*
X130199446Y-73660152D02*
X130199446Y-73993485D01*
X129675636Y-74136342D02*
X129675636Y-73660152D01*
X129675636Y-73660152D02*
X130675636Y-73660152D01*
X130675636Y-73660152D02*
X130675636Y-74136342D01*
X129675636Y-74564914D02*
X130675636Y-74564914D01*
X130675636Y-74564914D02*
X130675636Y-74803009D01*
X130675636Y-74803009D02*
X130628017Y-74945866D01*
X130628017Y-74945866D02*
X130532779Y-75041104D01*
X130532779Y-75041104D02*
X130437541Y-75088723D01*
X130437541Y-75088723D02*
X130247065Y-75136342D01*
X130247065Y-75136342D02*
X130104208Y-75136342D01*
X130104208Y-75136342D02*
X129913732Y-75088723D01*
X129913732Y-75088723D02*
X129818494Y-75041104D01*
X129818494Y-75041104D02*
X129723256Y-74945866D01*
X129723256Y-74945866D02*
X129675636Y-74803009D01*
X129675636Y-74803009D02*
X129675636Y-74564914D01*
X130056589Y-75564914D02*
X130056589Y-76326819D01*
X129961351Y-76755390D02*
X129961351Y-77231580D01*
X129675636Y-76660152D02*
X130675636Y-76993485D01*
X130675636Y-76993485D02*
X129675636Y-77326818D01*
X129675636Y-78231580D02*
X130151827Y-77898247D01*
X129675636Y-77660152D02*
X130675636Y-77660152D01*
X130675636Y-77660152D02*
X130675636Y-78041104D01*
X130675636Y-78041104D02*
X130628017Y-78136342D01*
X130628017Y-78136342D02*
X130580398Y-78183961D01*
X130580398Y-78183961D02*
X130485160Y-78231580D01*
X130485160Y-78231580D02*
X130342303Y-78231580D01*
X130342303Y-78231580D02*
X130247065Y-78183961D01*
X130247065Y-78183961D02*
X130199446Y-78136342D01*
X130199446Y-78136342D02*
X130151827Y-78041104D01*
X130151827Y-78041104D02*
X130151827Y-77660152D01*
X129675636Y-79231580D02*
X130151827Y-78898247D01*
X129675636Y-78660152D02*
X130675636Y-78660152D01*
X130675636Y-78660152D02*
X130675636Y-79041104D01*
X130675636Y-79041104D02*
X130628017Y-79136342D01*
X130628017Y-79136342D02*
X130580398Y-79183961D01*
X130580398Y-79183961D02*
X130485160Y-79231580D01*
X130485160Y-79231580D02*
X130342303Y-79231580D01*
X130342303Y-79231580D02*
X130247065Y-79183961D01*
X130247065Y-79183961D02*
X130199446Y-79136342D01*
X130199446Y-79136342D02*
X130151827Y-79041104D01*
X130151827Y-79041104D02*
X130151827Y-78660152D01*
X160215636Y-99565628D02*
X160215636Y-98994200D01*
X160215636Y-99279914D02*
X161215636Y-99279914D01*
X161215636Y-99279914D02*
X161072779Y-99184676D01*
X161072779Y-99184676D02*
X160977541Y-99089438D01*
X160977541Y-99089438D02*
X160929922Y-98994200D01*
X161215636Y-100184676D02*
X161215636Y-100279914D01*
X161215636Y-100279914D02*
X161168017Y-100375152D01*
X161168017Y-100375152D02*
X161120398Y-100422771D01*
X161120398Y-100422771D02*
X161025160Y-100470390D01*
X161025160Y-100470390D02*
X160834684Y-100518009D01*
X160834684Y-100518009D02*
X160596589Y-100518009D01*
X160596589Y-100518009D02*
X160406113Y-100470390D01*
X160406113Y-100470390D02*
X160310875Y-100422771D01*
X160310875Y-100422771D02*
X160263256Y-100375152D01*
X160263256Y-100375152D02*
X160215636Y-100279914D01*
X160215636Y-100279914D02*
X160215636Y-100184676D01*
X160215636Y-100184676D02*
X160263256Y-100089438D01*
X160263256Y-100089438D02*
X160310875Y-100041819D01*
X160310875Y-100041819D02*
X160406113Y-99994200D01*
X160406113Y-99994200D02*
X160596589Y-99946581D01*
X160596589Y-99946581D02*
X160834684Y-99946581D01*
X160834684Y-99946581D02*
X161025160Y-99994200D01*
X161025160Y-99994200D02*
X161120398Y-100041819D01*
X161120398Y-100041819D02*
X161168017Y-100089438D01*
X161168017Y-100089438D02*
X161215636Y-100184676D01*
X160215636Y-100946581D02*
X161215636Y-100946581D01*
X160596589Y-101041819D02*
X160215636Y-101327533D01*
X160882303Y-101327533D02*
X160501351Y-100946581D01*
X160215636Y-101708486D02*
X160215636Y-101946581D01*
X160215636Y-101946581D02*
X160406113Y-101946581D01*
X160406113Y-101946581D02*
X160453732Y-101851343D01*
X160453732Y-101851343D02*
X160548970Y-101756105D01*
X160548970Y-101756105D02*
X160691827Y-101708486D01*
X160691827Y-101708486D02*
X160929922Y-101708486D01*
X160929922Y-101708486D02*
X161072779Y-101756105D01*
X161072779Y-101756105D02*
X161168017Y-101851343D01*
X161168017Y-101851343D02*
X161215636Y-101994200D01*
X161215636Y-101994200D02*
X161215636Y-102184676D01*
X161215636Y-102184676D02*
X161168017Y-102327533D01*
X161168017Y-102327533D02*
X161072779Y-102422771D01*
X161072779Y-102422771D02*
X160929922Y-102470390D01*
X160929922Y-102470390D02*
X160691827Y-102470390D01*
X160691827Y-102470390D02*
X160548970Y-102422771D01*
X160548970Y-102422771D02*
X160453732Y-102327533D01*
X160453732Y-102327533D02*
X160406113Y-102232295D01*
X160406113Y-102232295D02*
X160215636Y-102232295D01*
X160215636Y-102232295D02*
X160215636Y-102470390D01*
D10*
X120941319Y-120063800D02*
X120465129Y-120063800D01*
X120465129Y-120063800D02*
X120465129Y-119063800D01*
X121274653Y-119539990D02*
X121607986Y-119539990D01*
X121750843Y-120063800D02*
X121274653Y-120063800D01*
X121274653Y-120063800D02*
X121274653Y-119063800D01*
X121274653Y-119063800D02*
X121750843Y-119063800D01*
X122179415Y-120063800D02*
X122179415Y-119063800D01*
X122179415Y-119063800D02*
X122417510Y-119063800D01*
X122417510Y-119063800D02*
X122560367Y-119111419D01*
X122560367Y-119111419D02*
X122655605Y-119206657D01*
X122655605Y-119206657D02*
X122703224Y-119301895D01*
X122703224Y-119301895D02*
X122750843Y-119492371D01*
X122750843Y-119492371D02*
X122750843Y-119635228D01*
X122750843Y-119635228D02*
X122703224Y-119825704D01*
X122703224Y-119825704D02*
X122655605Y-119920942D01*
X122655605Y-119920942D02*
X122560367Y-120016181D01*
X122560367Y-120016181D02*
X122417510Y-120063800D01*
X122417510Y-120063800D02*
X122179415Y-120063800D01*
X123131796Y-119159038D02*
X123179415Y-119111419D01*
X123179415Y-119111419D02*
X123274653Y-119063800D01*
X123274653Y-119063800D02*
X123512748Y-119063800D01*
X123512748Y-119063800D02*
X123607986Y-119111419D01*
X123607986Y-119111419D02*
X123655605Y-119159038D01*
X123655605Y-119159038D02*
X123703224Y-119254276D01*
X123703224Y-119254276D02*
X123703224Y-119349514D01*
X123703224Y-119349514D02*
X123655605Y-119492371D01*
X123655605Y-119492371D02*
X123084177Y-120063800D01*
X123084177Y-120063800D02*
X123703224Y-120063800D01*
X151353236Y-79760301D02*
X152353236Y-79760301D01*
X152353236Y-79760301D02*
X152353236Y-79998396D01*
X152353236Y-79998396D02*
X152305617Y-80141253D01*
X152305617Y-80141253D02*
X152210379Y-80236491D01*
X152210379Y-80236491D02*
X152115141Y-80284110D01*
X152115141Y-80284110D02*
X151924665Y-80331729D01*
X151924665Y-80331729D02*
X151781808Y-80331729D01*
X151781808Y-80331729D02*
X151591332Y-80284110D01*
X151591332Y-80284110D02*
X151496094Y-80236491D01*
X151496094Y-80236491D02*
X151400856Y-80141253D01*
X151400856Y-80141253D02*
X151353236Y-79998396D01*
X151353236Y-79998396D02*
X151353236Y-79760301D01*
X152257998Y-80712682D02*
X152305617Y-80760301D01*
X152305617Y-80760301D02*
X152353236Y-80855539D01*
X152353236Y-80855539D02*
X152353236Y-81093634D01*
X152353236Y-81093634D02*
X152305617Y-81188872D01*
X152305617Y-81188872D02*
X152257998Y-81236491D01*
X152257998Y-81236491D02*
X152162760Y-81284110D01*
X152162760Y-81284110D02*
X152067522Y-81284110D01*
X152067522Y-81284110D02*
X151924665Y-81236491D01*
X151924665Y-81236491D02*
X151353236Y-80665063D01*
X151353236Y-80665063D02*
X151353236Y-81284110D01*
X124528236Y-70006730D02*
X124528236Y-70673396D01*
X124528236Y-70673396D02*
X123528236Y-70244825D01*
X156998462Y-58913799D02*
X156998462Y-57913799D01*
X156998462Y-57913799D02*
X157236557Y-57913799D01*
X157236557Y-57913799D02*
X157379414Y-57961418D01*
X157379414Y-57961418D02*
X157474652Y-58056656D01*
X157474652Y-58056656D02*
X157522271Y-58151894D01*
X157522271Y-58151894D02*
X157569890Y-58342370D01*
X157569890Y-58342370D02*
X157569890Y-58485227D01*
X157569890Y-58485227D02*
X157522271Y-58675703D01*
X157522271Y-58675703D02*
X157474652Y-58770941D01*
X157474652Y-58770941D02*
X157379414Y-58866180D01*
X157379414Y-58866180D02*
X157236557Y-58913799D01*
X157236557Y-58913799D02*
X156998462Y-58913799D01*
X157998462Y-58913799D02*
X157998462Y-57913799D01*
X158998461Y-57961418D02*
X158903223Y-57913799D01*
X158903223Y-57913799D02*
X158760366Y-57913799D01*
X158760366Y-57913799D02*
X158617509Y-57961418D01*
X158617509Y-57961418D02*
X158522271Y-58056656D01*
X158522271Y-58056656D02*
X158474652Y-58151894D01*
X158474652Y-58151894D02*
X158427033Y-58342370D01*
X158427033Y-58342370D02*
X158427033Y-58485227D01*
X158427033Y-58485227D02*
X158474652Y-58675703D01*
X158474652Y-58675703D02*
X158522271Y-58770941D01*
X158522271Y-58770941D02*
X158617509Y-58866180D01*
X158617509Y-58866180D02*
X158760366Y-58913799D01*
X158760366Y-58913799D02*
X158855604Y-58913799D01*
X158855604Y-58913799D02*
X158998461Y-58866180D01*
X158998461Y-58866180D02*
X159046080Y-58818560D01*
X159046080Y-58818560D02*
X159046080Y-58485227D01*
X159046080Y-58485227D02*
X158855604Y-58485227D01*
X159998461Y-58913799D02*
X159427033Y-58913799D01*
X159712747Y-58913799D02*
X159712747Y-57913799D01*
X159712747Y-57913799D02*
X159617509Y-58056656D01*
X159617509Y-58056656D02*
X159522271Y-58151894D01*
X159522271Y-58151894D02*
X159427033Y-58199513D01*
X120941319Y-132849514D02*
X120465129Y-132849514D01*
X120465129Y-132849514D02*
X120465129Y-131849514D01*
X121274653Y-132325704D02*
X121607986Y-132325704D01*
X121750843Y-132849514D02*
X121274653Y-132849514D01*
X121274653Y-132849514D02*
X121274653Y-131849514D01*
X121274653Y-131849514D02*
X121750843Y-131849514D01*
X122179415Y-132849514D02*
X122179415Y-131849514D01*
X122179415Y-131849514D02*
X122417510Y-131849514D01*
X122417510Y-131849514D02*
X122560367Y-131897133D01*
X122560367Y-131897133D02*
X122655605Y-131992371D01*
X122655605Y-131992371D02*
X122703224Y-132087609D01*
X122703224Y-132087609D02*
X122750843Y-132278085D01*
X122750843Y-132278085D02*
X122750843Y-132420942D01*
X122750843Y-132420942D02*
X122703224Y-132611418D01*
X122703224Y-132611418D02*
X122655605Y-132706656D01*
X122655605Y-132706656D02*
X122560367Y-132801895D01*
X122560367Y-132801895D02*
X122417510Y-132849514D01*
X122417510Y-132849514D02*
X122179415Y-132849514D01*
X123084177Y-131849514D02*
X123750843Y-131849514D01*
X123750843Y-131849514D02*
X123322272Y-132849514D01*
X156965129Y-127735228D02*
X156965129Y-126735228D01*
X156965129Y-126735228D02*
X157298462Y-127449513D01*
X157298462Y-127449513D02*
X157631795Y-126735228D01*
X157631795Y-126735228D02*
X157631795Y-127735228D01*
X158107986Y-127735228D02*
X158107986Y-126735228D01*
X158536557Y-127687609D02*
X158679414Y-127735228D01*
X158679414Y-127735228D02*
X158917509Y-127735228D01*
X158917509Y-127735228D02*
X159012747Y-127687609D01*
X159012747Y-127687609D02*
X159060366Y-127639989D01*
X159060366Y-127639989D02*
X159107985Y-127544751D01*
X159107985Y-127544751D02*
X159107985Y-127449513D01*
X159107985Y-127449513D02*
X159060366Y-127354275D01*
X159060366Y-127354275D02*
X159012747Y-127306656D01*
X159012747Y-127306656D02*
X158917509Y-127259037D01*
X158917509Y-127259037D02*
X158727033Y-127211418D01*
X158727033Y-127211418D02*
X158631795Y-127163799D01*
X158631795Y-127163799D02*
X158584176Y-127116180D01*
X158584176Y-127116180D02*
X158536557Y-127020942D01*
X158536557Y-127020942D02*
X158536557Y-126925704D01*
X158536557Y-126925704D02*
X158584176Y-126830466D01*
X158584176Y-126830466D02*
X158631795Y-126782847D01*
X158631795Y-126782847D02*
X158727033Y-126735228D01*
X158727033Y-126735228D02*
X158965128Y-126735228D01*
X158965128Y-126735228D02*
X159107985Y-126782847D01*
X159727033Y-126735228D02*
X159917509Y-126735228D01*
X159917509Y-126735228D02*
X160012747Y-126782847D01*
X160012747Y-126782847D02*
X160107985Y-126878085D01*
X160107985Y-126878085D02*
X160155604Y-127068561D01*
X160155604Y-127068561D02*
X160155604Y-127401894D01*
X160155604Y-127401894D02*
X160107985Y-127592370D01*
X160107985Y-127592370D02*
X160012747Y-127687609D01*
X160012747Y-127687609D02*
X159917509Y-127735228D01*
X159917509Y-127735228D02*
X159727033Y-127735228D01*
X159727033Y-127735228D02*
X159631795Y-127687609D01*
X159631795Y-127687609D02*
X159536557Y-127592370D01*
X159536557Y-127592370D02*
X159488938Y-127401894D01*
X159488938Y-127401894D02*
X159488938Y-127068561D01*
X159488938Y-127068561D02*
X159536557Y-126878085D01*
X159536557Y-126878085D02*
X159631795Y-126782847D01*
X159631795Y-126782847D02*
X159727033Y-126735228D01*
X151353236Y-87576968D02*
X152353236Y-87576968D01*
X152353236Y-87576968D02*
X152353236Y-87815063D01*
X152353236Y-87815063D02*
X152305617Y-87957920D01*
X152305617Y-87957920D02*
X152210379Y-88053158D01*
X152210379Y-88053158D02*
X152115141Y-88100777D01*
X152115141Y-88100777D02*
X151924665Y-88148396D01*
X151924665Y-88148396D02*
X151781808Y-88148396D01*
X151781808Y-88148396D02*
X151591332Y-88100777D01*
X151591332Y-88100777D02*
X151496094Y-88053158D01*
X151496094Y-88053158D02*
X151400856Y-87957920D01*
X151400856Y-87957920D02*
X151353236Y-87815063D01*
X151353236Y-87815063D02*
X151353236Y-87576968D01*
X152353236Y-88481730D02*
X152353236Y-89100777D01*
X152353236Y-89100777D02*
X151972284Y-88767444D01*
X151972284Y-88767444D02*
X151972284Y-88910301D01*
X151972284Y-88910301D02*
X151924665Y-89005539D01*
X151924665Y-89005539D02*
X151877046Y-89053158D01*
X151877046Y-89053158D02*
X151781808Y-89100777D01*
X151781808Y-89100777D02*
X151543713Y-89100777D01*
X151543713Y-89100777D02*
X151448475Y-89053158D01*
X151448475Y-89053158D02*
X151400856Y-89005539D01*
X151400856Y-89005539D02*
X151353236Y-88910301D01*
X151353236Y-88910301D02*
X151353236Y-88624587D01*
X151353236Y-88624587D02*
X151400856Y-88529349D01*
X151400856Y-88529349D02*
X151448475Y-88481730D01*
X132593639Y-132350704D02*
X132546020Y-132398324D01*
X132546020Y-132398324D02*
X132403163Y-132445943D01*
X132403163Y-132445943D02*
X132307925Y-132445943D01*
X132307925Y-132445943D02*
X132165068Y-132398324D01*
X132165068Y-132398324D02*
X132069830Y-132303085D01*
X132069830Y-132303085D02*
X132022211Y-132207847D01*
X132022211Y-132207847D02*
X131974592Y-132017371D01*
X131974592Y-132017371D02*
X131974592Y-131874514D01*
X131974592Y-131874514D02*
X132022211Y-131684038D01*
X132022211Y-131684038D02*
X132069830Y-131588800D01*
X132069830Y-131588800D02*
X132165068Y-131493562D01*
X132165068Y-131493562D02*
X132307925Y-131445943D01*
X132307925Y-131445943D02*
X132403163Y-131445943D01*
X132403163Y-131445943D02*
X132546020Y-131493562D01*
X132546020Y-131493562D02*
X132593639Y-131541181D01*
X132974592Y-132398324D02*
X133117449Y-132445943D01*
X133117449Y-132445943D02*
X133355544Y-132445943D01*
X133355544Y-132445943D02*
X133450782Y-132398324D01*
X133450782Y-132398324D02*
X133498401Y-132350704D01*
X133498401Y-132350704D02*
X133546020Y-132255466D01*
X133546020Y-132255466D02*
X133546020Y-132160228D01*
X133546020Y-132160228D02*
X133498401Y-132064990D01*
X133498401Y-132064990D02*
X133450782Y-132017371D01*
X133450782Y-132017371D02*
X133355544Y-131969752D01*
X133355544Y-131969752D02*
X133165068Y-131922133D01*
X133165068Y-131922133D02*
X133069830Y-131874514D01*
X133069830Y-131874514D02*
X133022211Y-131826895D01*
X133022211Y-131826895D02*
X132974592Y-131731657D01*
X132974592Y-131731657D02*
X132974592Y-131636419D01*
X132974592Y-131636419D02*
X133022211Y-131541181D01*
X133022211Y-131541181D02*
X133069830Y-131493562D01*
X133069830Y-131493562D02*
X133165068Y-131445943D01*
X133165068Y-131445943D02*
X133403163Y-131445943D01*
X133403163Y-131445943D02*
X133546020Y-131493562D01*
X134498401Y-132445943D02*
X133926973Y-132445943D01*
X134212687Y-132445943D02*
X134212687Y-131445943D01*
X134212687Y-131445943D02*
X134117449Y-131588800D01*
X134117449Y-131588800D02*
X134022211Y-131684038D01*
X134022211Y-131684038D02*
X133926973Y-131731657D01*
X131307926Y-127331657D02*
X131307926Y-126331657D01*
X131307926Y-126331657D02*
X131641259Y-127045942D01*
X131641259Y-127045942D02*
X131974592Y-126331657D01*
X131974592Y-126331657D02*
X131974592Y-127331657D01*
X132450783Y-127331657D02*
X132450783Y-126331657D01*
X132879354Y-127284038D02*
X133022211Y-127331657D01*
X133022211Y-127331657D02*
X133260306Y-127331657D01*
X133260306Y-127331657D02*
X133355544Y-127284038D01*
X133355544Y-127284038D02*
X133403163Y-127236418D01*
X133403163Y-127236418D02*
X133450782Y-127141180D01*
X133450782Y-127141180D02*
X133450782Y-127045942D01*
X133450782Y-127045942D02*
X133403163Y-126950704D01*
X133403163Y-126950704D02*
X133355544Y-126903085D01*
X133355544Y-126903085D02*
X133260306Y-126855466D01*
X133260306Y-126855466D02*
X133069830Y-126807847D01*
X133069830Y-126807847D02*
X132974592Y-126760228D01*
X132974592Y-126760228D02*
X132926973Y-126712609D01*
X132926973Y-126712609D02*
X132879354Y-126617371D01*
X132879354Y-126617371D02*
X132879354Y-126522133D01*
X132879354Y-126522133D02*
X132926973Y-126426895D01*
X132926973Y-126426895D02*
X132974592Y-126379276D01*
X132974592Y-126379276D02*
X133069830Y-126331657D01*
X133069830Y-126331657D02*
X133307925Y-126331657D01*
X133307925Y-126331657D02*
X133450782Y-126379276D01*
X134069830Y-126331657D02*
X134260306Y-126331657D01*
X134260306Y-126331657D02*
X134355544Y-126379276D01*
X134355544Y-126379276D02*
X134450782Y-126474514D01*
X134450782Y-126474514D02*
X134498401Y-126664990D01*
X134498401Y-126664990D02*
X134498401Y-126998323D01*
X134498401Y-126998323D02*
X134450782Y-127188799D01*
X134450782Y-127188799D02*
X134355544Y-127284038D01*
X134355544Y-127284038D02*
X134260306Y-127331657D01*
X134260306Y-127331657D02*
X134069830Y-127331657D01*
X134069830Y-127331657D02*
X133974592Y-127284038D01*
X133974592Y-127284038D02*
X133879354Y-127188799D01*
X133879354Y-127188799D02*
X133831735Y-126998323D01*
X133831735Y-126998323D02*
X133831735Y-126664990D01*
X133831735Y-126664990D02*
X133879354Y-126474514D01*
X133879354Y-126474514D02*
X133974592Y-126379276D01*
X133974592Y-126379276D02*
X134069830Y-126331657D01*
X120941319Y-114949514D02*
X120465129Y-114949514D01*
X120465129Y-114949514D02*
X120465129Y-113949514D01*
X121274653Y-114425704D02*
X121607986Y-114425704D01*
X121750843Y-114949514D02*
X121274653Y-114949514D01*
X121274653Y-114949514D02*
X121274653Y-113949514D01*
X121274653Y-113949514D02*
X121750843Y-113949514D01*
X122179415Y-114949514D02*
X122179415Y-113949514D01*
X122179415Y-113949514D02*
X122417510Y-113949514D01*
X122417510Y-113949514D02*
X122560367Y-113997133D01*
X122560367Y-113997133D02*
X122655605Y-114092371D01*
X122655605Y-114092371D02*
X122703224Y-114187609D01*
X122703224Y-114187609D02*
X122750843Y-114378085D01*
X122750843Y-114378085D02*
X122750843Y-114520942D01*
X122750843Y-114520942D02*
X122703224Y-114711418D01*
X122703224Y-114711418D02*
X122655605Y-114806656D01*
X122655605Y-114806656D02*
X122560367Y-114901895D01*
X122560367Y-114901895D02*
X122417510Y-114949514D01*
X122417510Y-114949514D02*
X122179415Y-114949514D01*
X123369891Y-113949514D02*
X123465129Y-113949514D01*
X123465129Y-113949514D02*
X123560367Y-113997133D01*
X123560367Y-113997133D02*
X123607986Y-114044752D01*
X123607986Y-114044752D02*
X123655605Y-114139990D01*
X123655605Y-114139990D02*
X123703224Y-114330466D01*
X123703224Y-114330466D02*
X123703224Y-114568561D01*
X123703224Y-114568561D02*
X123655605Y-114759037D01*
X123655605Y-114759037D02*
X123607986Y-114854275D01*
X123607986Y-114854275D02*
X123560367Y-114901895D01*
X123560367Y-114901895D02*
X123465129Y-114949514D01*
X123465129Y-114949514D02*
X123369891Y-114949514D01*
X123369891Y-114949514D02*
X123274653Y-114901895D01*
X123274653Y-114901895D02*
X123227034Y-114854275D01*
X123227034Y-114854275D02*
X123179415Y-114759037D01*
X123179415Y-114759037D02*
X123131796Y-114568561D01*
X123131796Y-114568561D02*
X123131796Y-114330466D01*
X123131796Y-114330466D02*
X123179415Y-114139990D01*
X123179415Y-114139990D02*
X123227034Y-114044752D01*
X123227034Y-114044752D02*
X123274653Y-113997133D01*
X123274653Y-113997133D02*
X123369891Y-113949514D01*
D11*
X144185932Y-52432352D02*
X144233551Y-52384733D01*
X144233551Y-52384733D02*
X144328789Y-52337114D01*
X144328789Y-52337114D02*
X144566884Y-52337114D01*
X144566884Y-52337114D02*
X144662122Y-52384733D01*
X144662122Y-52384733D02*
X144709741Y-52432352D01*
X144709741Y-52432352D02*
X144757360Y-52527590D01*
X144757360Y-52527590D02*
X144757360Y-52622828D01*
X144757360Y-52622828D02*
X144709741Y-52765685D01*
X144709741Y-52765685D02*
X144138313Y-53337114D01*
X144138313Y-53337114D02*
X144757360Y-53337114D01*
X145138313Y-52432352D02*
X145185932Y-52384733D01*
X145185932Y-52384733D02*
X145281170Y-52337114D01*
X145281170Y-52337114D02*
X145519265Y-52337114D01*
X145519265Y-52337114D02*
X145614503Y-52384733D01*
X145614503Y-52384733D02*
X145662122Y-52432352D01*
X145662122Y-52432352D02*
X145709741Y-52527590D01*
X145709741Y-52527590D02*
X145709741Y-52622828D01*
X145709741Y-52622828D02*
X145662122Y-52765685D01*
X145662122Y-52765685D02*
X145090694Y-53337114D01*
X145090694Y-53337114D02*
X145709741Y-53337114D01*
X146328789Y-52337114D02*
X146424027Y-52337114D01*
X146424027Y-52337114D02*
X146519265Y-52384733D01*
X146519265Y-52384733D02*
X146566884Y-52432352D01*
X146566884Y-52432352D02*
X146614503Y-52527590D01*
X146614503Y-52527590D02*
X146662122Y-52718066D01*
X146662122Y-52718066D02*
X146662122Y-52956161D01*
X146662122Y-52956161D02*
X146614503Y-53146637D01*
X146614503Y-53146637D02*
X146566884Y-53241875D01*
X146566884Y-53241875D02*
X146519265Y-53289495D01*
X146519265Y-53289495D02*
X146424027Y-53337114D01*
X146424027Y-53337114D02*
X146328789Y-53337114D01*
X146328789Y-53337114D02*
X146233551Y-53289495D01*
X146233551Y-53289495D02*
X146185932Y-53241875D01*
X146185932Y-53241875D02*
X146138313Y-53146637D01*
X146138313Y-53146637D02*
X146090694Y-52956161D01*
X146090694Y-52956161D02*
X146090694Y-52718066D01*
X146090694Y-52718066D02*
X146138313Y-52527590D01*
X146138313Y-52527590D02*
X146185932Y-52432352D01*
X146185932Y-52432352D02*
X146233551Y-52384733D01*
X146233551Y-52384733D02*
X146328789Y-52337114D01*
X147043075Y-53337114D02*
X147281170Y-53337114D01*
X147281170Y-53337114D02*
X147281170Y-53146637D01*
X147281170Y-53146637D02*
X147185932Y-53099018D01*
X147185932Y-53099018D02*
X147090694Y-53003780D01*
X147090694Y-53003780D02*
X147043075Y-52860923D01*
X147043075Y-52860923D02*
X147043075Y-52622828D01*
X147043075Y-52622828D02*
X147090694Y-52479971D01*
X147090694Y-52479971D02*
X147185932Y-52384733D01*
X147185932Y-52384733D02*
X147328789Y-52337114D01*
X147328789Y-52337114D02*
X147519265Y-52337114D01*
X147519265Y-52337114D02*
X147662122Y-52384733D01*
X147662122Y-52384733D02*
X147757360Y-52479971D01*
X147757360Y-52479971D02*
X147804979Y-52622828D01*
X147804979Y-52622828D02*
X147804979Y-52860923D01*
X147804979Y-52860923D02*
X147757360Y-53003780D01*
X147757360Y-53003780D02*
X147662122Y-53099018D01*
X147662122Y-53099018D02*
X147566884Y-53146637D01*
X147566884Y-53146637D02*
X147566884Y-53337114D01*
X147566884Y-53337114D02*
X147804979Y-53337114D01*
D12*
X158927400Y-77743948D02*
X158855972Y-77672520D01*
X158855972Y-77672520D02*
X158784543Y-77458234D01*
X158784543Y-77458234D02*
X158784543Y-77315377D01*
X158784543Y-77315377D02*
X158855972Y-77101091D01*
X158855972Y-77101091D02*
X158998829Y-76958234D01*
X158998829Y-76958234D02*
X159141686Y-76886805D01*
X159141686Y-76886805D02*
X159427400Y-76815377D01*
X159427400Y-76815377D02*
X159641686Y-76815377D01*
X159641686Y-76815377D02*
X159927400Y-76886805D01*
X159927400Y-76886805D02*
X160070257Y-76958234D01*
X160070257Y-76958234D02*
X160213114Y-77101091D01*
X160213114Y-77101091D02*
X160284543Y-77315377D01*
X160284543Y-77315377D02*
X160284543Y-77458234D01*
X160284543Y-77458234D02*
X160213114Y-77672520D01*
X160213114Y-77672520D02*
X160141686Y-77743948D01*
X158855972Y-78315377D02*
X158784543Y-78529663D01*
X158784543Y-78529663D02*
X158784543Y-78886805D01*
X158784543Y-78886805D02*
X158855972Y-79029663D01*
X158855972Y-79029663D02*
X158927400Y-79101091D01*
X158927400Y-79101091D02*
X159070257Y-79172520D01*
X159070257Y-79172520D02*
X159213114Y-79172520D01*
X159213114Y-79172520D02*
X159355972Y-79101091D01*
X159355972Y-79101091D02*
X159427400Y-79029663D01*
X159427400Y-79029663D02*
X159498829Y-78886805D01*
X159498829Y-78886805D02*
X159570257Y-78601091D01*
X159570257Y-78601091D02*
X159641686Y-78458234D01*
X159641686Y-78458234D02*
X159713114Y-78386805D01*
X159713114Y-78386805D02*
X159855972Y-78315377D01*
X159855972Y-78315377D02*
X159998829Y-78315377D01*
X159998829Y-78315377D02*
X160141686Y-78386805D01*
X160141686Y-78386805D02*
X160213114Y-78458234D01*
X160213114Y-78458234D02*
X160284543Y-78601091D01*
X160284543Y-78601091D02*
X160284543Y-78958234D01*
X160284543Y-78958234D02*
X160213114Y-79172520D01*
X158927400Y-80672519D02*
X158855972Y-80601091D01*
X158855972Y-80601091D02*
X158784543Y-80386805D01*
X158784543Y-80386805D02*
X158784543Y-80243948D01*
X158784543Y-80243948D02*
X158855972Y-80029662D01*
X158855972Y-80029662D02*
X158998829Y-79886805D01*
X158998829Y-79886805D02*
X159141686Y-79815376D01*
X159141686Y-79815376D02*
X159427400Y-79743948D01*
X159427400Y-79743948D02*
X159641686Y-79743948D01*
X159641686Y-79743948D02*
X159927400Y-79815376D01*
X159927400Y-79815376D02*
X160070257Y-79886805D01*
X160070257Y-79886805D02*
X160213114Y-80029662D01*
X160213114Y-80029662D02*
X160284543Y-80243948D01*
X160284543Y-80243948D02*
X160284543Y-80386805D01*
X160284543Y-80386805D02*
X160213114Y-80601091D01*
X160213114Y-80601091D02*
X160141686Y-80672519D01*
X159355972Y-81315376D02*
X159355972Y-82458234D01*
X160141686Y-83101091D02*
X160213114Y-83172519D01*
X160213114Y-83172519D02*
X160284543Y-83315377D01*
X160284543Y-83315377D02*
X160284543Y-83672519D01*
X160284543Y-83672519D02*
X160213114Y-83815377D01*
X160213114Y-83815377D02*
X160141686Y-83886805D01*
X160141686Y-83886805D02*
X159998829Y-83958234D01*
X159998829Y-83958234D02*
X159855972Y-83958234D01*
X159855972Y-83958234D02*
X159641686Y-83886805D01*
X159641686Y-83886805D02*
X158784543Y-83029662D01*
X158784543Y-83029662D02*
X158784543Y-83958234D01*
X160284543Y-84886805D02*
X160284543Y-85029662D01*
X160284543Y-85029662D02*
X160213114Y-85172519D01*
X160213114Y-85172519D02*
X160141686Y-85243948D01*
X160141686Y-85243948D02*
X159998829Y-85315376D01*
X159998829Y-85315376D02*
X159713114Y-85386805D01*
X159713114Y-85386805D02*
X159355972Y-85386805D01*
X159355972Y-85386805D02*
X159070257Y-85315376D01*
X159070257Y-85315376D02*
X158927400Y-85243948D01*
X158927400Y-85243948D02*
X158855972Y-85172519D01*
X158855972Y-85172519D02*
X158784543Y-85029662D01*
X158784543Y-85029662D02*
X158784543Y-84886805D01*
X158784543Y-84886805D02*
X158855972Y-84743948D01*
X158855972Y-84743948D02*
X158927400Y-84672519D01*
X158927400Y-84672519D02*
X159070257Y-84601090D01*
X159070257Y-84601090D02*
X159355972Y-84529662D01*
X159355972Y-84529662D02*
X159713114Y-84529662D01*
X159713114Y-84529662D02*
X159998829Y-84601090D01*
X159998829Y-84601090D02*
X160141686Y-84672519D01*
X160141686Y-84672519D02*
X160213114Y-84743948D01*
X160213114Y-84743948D02*
X160284543Y-84886805D01*
X160141686Y-85958233D02*
X160213114Y-86029661D01*
X160213114Y-86029661D02*
X160284543Y-86172519D01*
X160284543Y-86172519D02*
X160284543Y-86529661D01*
X160284543Y-86529661D02*
X160213114Y-86672519D01*
X160213114Y-86672519D02*
X160141686Y-86743947D01*
X160141686Y-86743947D02*
X159998829Y-86815376D01*
X159998829Y-86815376D02*
X159855972Y-86815376D01*
X159855972Y-86815376D02*
X159641686Y-86743947D01*
X159641686Y-86743947D02*
X158784543Y-85886804D01*
X158784543Y-85886804D02*
X158784543Y-86815376D01*
X156369627Y-77601091D02*
X156369627Y-76886805D01*
X156369627Y-76886805D02*
X157869627Y-76886805D01*
X157155341Y-78101091D02*
X157155341Y-78601091D01*
X156369627Y-78815377D02*
X156369627Y-78101091D01*
X156369627Y-78101091D02*
X157869627Y-78101091D01*
X157869627Y-78101091D02*
X157869627Y-78815377D01*
X156369627Y-79458234D02*
X157869627Y-79458234D01*
X157869627Y-79458234D02*
X157869627Y-79815377D01*
X157869627Y-79815377D02*
X157798198Y-80029663D01*
X157798198Y-80029663D02*
X157655341Y-80172520D01*
X157655341Y-80172520D02*
X157512484Y-80243949D01*
X157512484Y-80243949D02*
X157226770Y-80315377D01*
X157226770Y-80315377D02*
X157012484Y-80315377D01*
X157012484Y-80315377D02*
X156726770Y-80243949D01*
X156726770Y-80243949D02*
X156583913Y-80172520D01*
X156583913Y-80172520D02*
X156441056Y-80029663D01*
X156441056Y-80029663D02*
X156369627Y-79815377D01*
X156369627Y-79815377D02*
X156369627Y-79458234D01*
X156369627Y-82101091D02*
X157869627Y-82101091D01*
X157869627Y-82101091D02*
X156798198Y-82601091D01*
X156798198Y-82601091D02*
X157869627Y-83101091D01*
X157869627Y-83101091D02*
X156369627Y-83101091D01*
X157869627Y-84101092D02*
X157869627Y-84386806D01*
X157869627Y-84386806D02*
X157798198Y-84529663D01*
X157798198Y-84529663D02*
X157655341Y-84672520D01*
X157655341Y-84672520D02*
X157369627Y-84743949D01*
X157369627Y-84743949D02*
X156869627Y-84743949D01*
X156869627Y-84743949D02*
X156583913Y-84672520D01*
X156583913Y-84672520D02*
X156441056Y-84529663D01*
X156441056Y-84529663D02*
X156369627Y-84386806D01*
X156369627Y-84386806D02*
X156369627Y-84101092D01*
X156369627Y-84101092D02*
X156441056Y-83958235D01*
X156441056Y-83958235D02*
X156583913Y-83815377D01*
X156583913Y-83815377D02*
X156869627Y-83743949D01*
X156869627Y-83743949D02*
X157369627Y-83743949D01*
X157369627Y-83743949D02*
X157655341Y-83815377D01*
X157655341Y-83815377D02*
X157798198Y-83958235D01*
X157798198Y-83958235D02*
X157869627Y-84101092D01*
X156369627Y-85386806D02*
X157869627Y-85386806D01*
X157869627Y-85386806D02*
X157869627Y-85743949D01*
X157869627Y-85743949D02*
X157798198Y-85958235D01*
X157798198Y-85958235D02*
X157655341Y-86101092D01*
X157655341Y-86101092D02*
X157512484Y-86172521D01*
X157512484Y-86172521D02*
X157226770Y-86243949D01*
X157226770Y-86243949D02*
X157012484Y-86243949D01*
X157012484Y-86243949D02*
X156726770Y-86172521D01*
X156726770Y-86172521D02*
X156583913Y-86101092D01*
X156583913Y-86101092D02*
X156441056Y-85958235D01*
X156441056Y-85958235D02*
X156369627Y-85743949D01*
X156369627Y-85743949D02*
X156369627Y-85386806D01*
X157869627Y-86886806D02*
X156655341Y-86886806D01*
X156655341Y-86886806D02*
X156512484Y-86958235D01*
X156512484Y-86958235D02*
X156441056Y-87029664D01*
X156441056Y-87029664D02*
X156369627Y-87172521D01*
X156369627Y-87172521D02*
X156369627Y-87458235D01*
X156369627Y-87458235D02*
X156441056Y-87601092D01*
X156441056Y-87601092D02*
X156512484Y-87672521D01*
X156512484Y-87672521D02*
X156655341Y-87743949D01*
X156655341Y-87743949D02*
X157869627Y-87743949D01*
X156369627Y-89172521D02*
X156369627Y-88458235D01*
X156369627Y-88458235D02*
X157869627Y-88458235D01*
X157155341Y-89672521D02*
X157155341Y-90172521D01*
X156369627Y-90386807D02*
X156369627Y-89672521D01*
X156369627Y-89672521D02*
X157869627Y-89672521D01*
X157869627Y-89672521D02*
X157869627Y-90386807D01*
D13*
G36*
X155633364Y-134529019D02*
G01*
X155660503Y-134556158D01*
X155693287Y-134621726D01*
X155693287Y-134726935D01*
X155660503Y-134792503D01*
X155633364Y-134819641D01*
X155567796Y-134852426D01*
X155284715Y-134852426D01*
X155284715Y-134496235D01*
X155567796Y-134496235D01*
X155633364Y-134529019D01*
G37*
G36*
X159438158Y-135718457D02*
G01*
X153842493Y-135718457D01*
X153842493Y-134595759D01*
X153964715Y-134595759D01*
X153964715Y-134700521D01*
X153966829Y-134721981D01*
X153968341Y-134725633D01*
X153968622Y-134729575D01*
X153976328Y-134749714D01*
X154028709Y-134854476D01*
X154034524Y-134863713D01*
X154035635Y-134866395D01*
X154038113Y-134869415D01*
X154040197Y-134872725D01*
X154042390Y-134874627D01*
X154049314Y-134883065D01*
X154101695Y-134935446D01*
X154110132Y-134942369D01*
X154112035Y-134944563D01*
X154115344Y-134946646D01*
X154118365Y-134949125D01*
X154121046Y-134950235D01*
X154130284Y-134956051D01*
X154235045Y-135008432D01*
X154236618Y-135009033D01*
X154237254Y-135009505D01*
X154246261Y-135012723D01*
X154255185Y-135016138D01*
X154255973Y-135016194D01*
X154257560Y-135016761D01*
X154455371Y-135066213D01*
X154533364Y-135105210D01*
X154560503Y-135132349D01*
X154593287Y-135197917D01*
X154593287Y-135250745D01*
X154560503Y-135316313D01*
X154533364Y-135343451D01*
X154467796Y-135376235D01*
X154249708Y-135376235D01*
X154109499Y-135329500D01*
X154088472Y-135324719D01*
X154045660Y-135327761D01*
X154007272Y-135346956D01*
X153979151Y-135379380D01*
X153965579Y-135420098D01*
X153968621Y-135462910D01*
X153987816Y-135501298D01*
X154020240Y-135529419D01*
X154039931Y-135538210D01*
X154197074Y-135590590D01*
X154207713Y-135593009D01*
X154210398Y-135594121D01*
X154214289Y-135594504D01*
X154218101Y-135595371D01*
X154220997Y-135595165D01*
X154231858Y-135596235D01*
X154493763Y-135596235D01*
X154515223Y-135594121D01*
X154518872Y-135592609D01*
X154522816Y-135592329D01*
X154542956Y-135584622D01*
X154647718Y-135532242D01*
X154656955Y-135526426D01*
X154659637Y-135525316D01*
X154662657Y-135522837D01*
X154665967Y-135520754D01*
X154667869Y-135518560D01*
X154676307Y-135511637D01*
X154728688Y-135459256D01*
X154735611Y-135450818D01*
X154737805Y-135448916D01*
X154739888Y-135445606D01*
X154742367Y-135442586D01*
X154743477Y-135439904D01*
X154749293Y-135430667D01*
X154801674Y-135325906D01*
X154809380Y-135305766D01*
X154809660Y-135301824D01*
X154811173Y-135298172D01*
X154813287Y-135276712D01*
X154813287Y-135171950D01*
X154811173Y-135150490D01*
X154809660Y-135146837D01*
X154809380Y-135142896D01*
X154801674Y-135122756D01*
X154749293Y-135017995D01*
X154743477Y-135008757D01*
X154742367Y-135006076D01*
X154739888Y-135003055D01*
X154737805Y-134999746D01*
X154735611Y-134997843D01*
X154728688Y-134989406D01*
X154676307Y-134937025D01*
X154667869Y-134930101D01*
X154665967Y-134927908D01*
X154662657Y-134925824D01*
X154659637Y-134923346D01*
X154656955Y-134922235D01*
X154647718Y-134916420D01*
X154542956Y-134864039D01*
X154541384Y-134863437D01*
X154540748Y-134862966D01*
X154531733Y-134859744D01*
X154522817Y-134856333D01*
X154522028Y-134856276D01*
X154520442Y-134855710D01*
X154322630Y-134806257D01*
X154244638Y-134767261D01*
X154217499Y-134740122D01*
X154184715Y-134674553D01*
X154184715Y-134621726D01*
X154217499Y-134556157D01*
X154244638Y-134529019D01*
X154310206Y-134496235D01*
X154528294Y-134496235D01*
X154668502Y-134542971D01*
X154689529Y-134547752D01*
X154732341Y-134544710D01*
X154770730Y-134525516D01*
X154798850Y-134493091D01*
X154812423Y-134452374D01*
X154809381Y-134409562D01*
X154797717Y-134386235D01*
X155064715Y-134386235D01*
X155064715Y-135486235D01*
X155066829Y-135507695D01*
X155083253Y-135547348D01*
X155113602Y-135577697D01*
X155153255Y-135594121D01*
X155196175Y-135594121D01*
X155235828Y-135577697D01*
X155266177Y-135547348D01*
X155282601Y-135507695D01*
X155284715Y-135486235D01*
X155284715Y-135072426D01*
X155593763Y-135072426D01*
X155615223Y-135070312D01*
X155618875Y-135068799D01*
X155622817Y-135068519D01*
X155642956Y-135060813D01*
X155747718Y-135008432D01*
X155756955Y-135002616D01*
X155759637Y-135001506D01*
X155762657Y-134999027D01*
X155765967Y-134996944D01*
X155767869Y-134994750D01*
X155776307Y-134987827D01*
X155828688Y-134935446D01*
X155835611Y-134927008D01*
X155837805Y-134925106D01*
X155839888Y-134921796D01*
X155842367Y-134918776D01*
X155843477Y-134916094D01*
X155849293Y-134906857D01*
X155901674Y-134802096D01*
X155909380Y-134781956D01*
X155909660Y-134778014D01*
X155911173Y-134774362D01*
X155913287Y-134752902D01*
X155913287Y-134595759D01*
X155911173Y-134574299D01*
X155909660Y-134570646D01*
X155909380Y-134566705D01*
X155901674Y-134546565D01*
X155849293Y-134441804D01*
X155843477Y-134432566D01*
X155842367Y-134429885D01*
X155839888Y-134426864D01*
X155837805Y-134423555D01*
X155835611Y-134421652D01*
X155828688Y-134413215D01*
X155801708Y-134386235D01*
X156164715Y-134386235D01*
X156164715Y-135486235D01*
X156166829Y-135507695D01*
X156183253Y-135547348D01*
X156213602Y-135577697D01*
X156253255Y-135594121D01*
X156296175Y-135594121D01*
X156335828Y-135577697D01*
X156366177Y-135547348D01*
X156382601Y-135507695D01*
X156384715Y-135486235D01*
X156384715Y-135045728D01*
X156690639Y-135045728D01*
X156690639Y-135088648D01*
X156707063Y-135128301D01*
X156737412Y-135158650D01*
X156777065Y-135175074D01*
X156798525Y-135177188D01*
X157636621Y-135177188D01*
X157658081Y-135175074D01*
X157697734Y-135158650D01*
X157728083Y-135128301D01*
X157744507Y-135088648D01*
X157744507Y-135045728D01*
X157728083Y-135006075D01*
X157697734Y-134975726D01*
X157658081Y-134959302D01*
X157636621Y-134957188D01*
X156798525Y-134957188D01*
X156777065Y-134959302D01*
X156737412Y-134975726D01*
X156707063Y-135006075D01*
X156690639Y-135045728D01*
X156384715Y-135045728D01*
X156384715Y-134386235D01*
X158050430Y-134386235D01*
X158050430Y-135486235D01*
X158052544Y-135507695D01*
X158068968Y-135547348D01*
X158099317Y-135577697D01*
X158138970Y-135594121D01*
X158181890Y-135594121D01*
X158221543Y-135577697D01*
X158251892Y-135547348D01*
X158268316Y-135507695D01*
X158270430Y-135486235D01*
X158270430Y-134386235D01*
X158574240Y-134386235D01*
X158574240Y-135486235D01*
X158576354Y-135507695D01*
X158592778Y-135547348D01*
X158623127Y-135577697D01*
X158662780Y-135594121D01*
X158705700Y-135594121D01*
X158745353Y-135577697D01*
X158775702Y-135547348D01*
X158792126Y-135507695D01*
X158794240Y-135486235D01*
X158794240Y-135020045D01*
X159050907Y-135020045D01*
X159072367Y-135017931D01*
X159112020Y-135001507D01*
X159142369Y-134971158D01*
X159158793Y-134931505D01*
X159158793Y-134888585D01*
X159142369Y-134848932D01*
X159112020Y-134818583D01*
X159072367Y-134802159D01*
X159050907Y-134800045D01*
X158794240Y-134800045D01*
X158794240Y-134496235D01*
X159208050Y-134496235D01*
X159229510Y-134494121D01*
X159269163Y-134477697D01*
X159299512Y-134447348D01*
X159315936Y-134407695D01*
X159315936Y-134364775D01*
X159299512Y-134325122D01*
X159269163Y-134294773D01*
X159229510Y-134278349D01*
X159208050Y-134276235D01*
X158684240Y-134276235D01*
X158662780Y-134278349D01*
X158623127Y-134294773D01*
X158592778Y-134325122D01*
X158576354Y-134364775D01*
X158574240Y-134386235D01*
X158270430Y-134386235D01*
X158268316Y-134364775D01*
X158251892Y-134325122D01*
X158221543Y-134294773D01*
X158181890Y-134278349D01*
X158138970Y-134278349D01*
X158099317Y-134294773D01*
X158068968Y-134325122D01*
X158052544Y-134364775D01*
X158050430Y-134386235D01*
X156384715Y-134386235D01*
X156382601Y-134364775D01*
X156366177Y-134325122D01*
X156335828Y-134294773D01*
X156296175Y-134278349D01*
X156253255Y-134278349D01*
X156213602Y-134294773D01*
X156183253Y-134325122D01*
X156166829Y-134364775D01*
X156164715Y-134386235D01*
X155801708Y-134386235D01*
X155776307Y-134360834D01*
X155767869Y-134353910D01*
X155765967Y-134351717D01*
X155762657Y-134349633D01*
X155759637Y-134347155D01*
X155756955Y-134346044D01*
X155747718Y-134340229D01*
X155642956Y-134287848D01*
X155622817Y-134280142D01*
X155618875Y-134279861D01*
X155615223Y-134278349D01*
X155593763Y-134276235D01*
X155174715Y-134276235D01*
X155153255Y-134278349D01*
X155113602Y-134294773D01*
X155083253Y-134325122D01*
X155066829Y-134364775D01*
X155064715Y-134386235D01*
X154797717Y-134386235D01*
X154790186Y-134371173D01*
X154757762Y-134343053D01*
X154738072Y-134334261D01*
X154580929Y-134281880D01*
X154570287Y-134279460D01*
X154567604Y-134278349D01*
X154563714Y-134277965D01*
X154559902Y-134277099D01*
X154557004Y-134277304D01*
X154546144Y-134276235D01*
X154284239Y-134276235D01*
X154262779Y-134278349D01*
X154259126Y-134279861D01*
X154255185Y-134280142D01*
X154235045Y-134287848D01*
X154130284Y-134340229D01*
X154121046Y-134346044D01*
X154118365Y-134347155D01*
X154115344Y-134349633D01*
X154112035Y-134351717D01*
X154110132Y-134353910D01*
X154101695Y-134360834D01*
X154049314Y-134413215D01*
X154042390Y-134421652D01*
X154040197Y-134423555D01*
X154038113Y-134426864D01*
X154035635Y-134429885D01*
X154034524Y-134432566D01*
X154028709Y-134441804D01*
X153976328Y-134546566D01*
X153968622Y-134566705D01*
X153968341Y-134570646D01*
X153966829Y-134574299D01*
X153964715Y-134595759D01*
X153842493Y-134595759D01*
X153842493Y-134154013D01*
X159438158Y-134154013D01*
X159438158Y-135718457D01*
G37*
D10*
X124528236Y-80092444D02*
X124528236Y-80711491D01*
X124528236Y-80711491D02*
X124147284Y-80378158D01*
X124147284Y-80378158D02*
X124147284Y-80521015D01*
X124147284Y-80521015D02*
X124099665Y-80616253D01*
X124099665Y-80616253D02*
X124052046Y-80663872D01*
X124052046Y-80663872D02*
X123956808Y-80711491D01*
X123956808Y-80711491D02*
X123718713Y-80711491D01*
X123718713Y-80711491D02*
X123623475Y-80663872D01*
X123623475Y-80663872D02*
X123575856Y-80616253D01*
X123575856Y-80616253D02*
X123528236Y-80521015D01*
X123528236Y-80521015D02*
X123528236Y-80235301D01*
X123528236Y-80235301D02*
X123575856Y-80140063D01*
X123575856Y-80140063D02*
X123623475Y-80092444D01*
D13*
G36*
X159089348Y-66993457D02*
G01*
X154069874Y-66993457D01*
X154069874Y-65661235D01*
X154192096Y-65661235D01*
X154192096Y-66761235D01*
X154194210Y-66782695D01*
X154210634Y-66822348D01*
X154240983Y-66852697D01*
X154280636Y-66869121D01*
X154302096Y-66871235D01*
X154825906Y-66871235D01*
X154847366Y-66869121D01*
X154887019Y-66852697D01*
X154917368Y-66822348D01*
X154933792Y-66782695D01*
X154933792Y-66739775D01*
X154917368Y-66700122D01*
X154887019Y-66669773D01*
X154847366Y-66653349D01*
X154825906Y-66651235D01*
X154412096Y-66651235D01*
X154412096Y-66295045D01*
X154668763Y-66295045D01*
X154690223Y-66292931D01*
X154729876Y-66276507D01*
X154760225Y-66246158D01*
X154776649Y-66206505D01*
X154776649Y-66163585D01*
X154760225Y-66123932D01*
X154729876Y-66093583D01*
X154690223Y-66077159D01*
X154668763Y-66075045D01*
X154412096Y-66075045D01*
X154412096Y-65771235D01*
X154825906Y-65771235D01*
X154847366Y-65769121D01*
X154887019Y-65752697D01*
X154917368Y-65722348D01*
X154933792Y-65682695D01*
X154933792Y-65661235D01*
X155187334Y-65661235D01*
X155187334Y-66761235D01*
X155189448Y-66782695D01*
X155205872Y-66822348D01*
X155236221Y-66852697D01*
X155275874Y-66869121D01*
X155318794Y-66869121D01*
X155358447Y-66852697D01*
X155388796Y-66822348D01*
X155405220Y-66782695D01*
X155407334Y-66761235D01*
X155407334Y-66075446D01*
X155830400Y-66815811D01*
X155833608Y-66820330D01*
X155834444Y-66822348D01*
X155836500Y-66824404D01*
X155842882Y-66833394D01*
X155854444Y-66842348D01*
X155864793Y-66852697D01*
X155871272Y-66855380D01*
X155876816Y-66859674D01*
X155890934Y-66863524D01*
X155904446Y-66869121D01*
X155911454Y-66869121D01*
X155918223Y-66870967D01*
X155932743Y-66869121D01*
X155947366Y-66869121D01*
X155953842Y-66866438D01*
X155960800Y-66865554D01*
X155973503Y-66858295D01*
X155987019Y-66852697D01*
X155991977Y-66847738D01*
X155998065Y-66844260D01*
X156007022Y-66832693D01*
X156017368Y-66822348D01*
X156020050Y-66815870D01*
X156024345Y-66810326D01*
X156028195Y-66796205D01*
X156033792Y-66782695D01*
X156034872Y-66771723D01*
X156035638Y-66768918D01*
X156035362Y-66766751D01*
X156035906Y-66761235D01*
X156035906Y-66320728D01*
X156341829Y-66320728D01*
X156341829Y-66363648D01*
X156358253Y-66403301D01*
X156388602Y-66433650D01*
X156428255Y-66450074D01*
X156449715Y-66452188D01*
X157287811Y-66452188D01*
X157309271Y-66450074D01*
X157348924Y-66433650D01*
X157379273Y-66403301D01*
X157395697Y-66363648D01*
X157395697Y-66320728D01*
X157379273Y-66281075D01*
X157348924Y-66250726D01*
X157309271Y-66234302D01*
X157287811Y-66232188D01*
X156449715Y-66232188D01*
X156428255Y-66234302D01*
X156388602Y-66250726D01*
X156358253Y-66281075D01*
X156341829Y-66320728D01*
X156035906Y-66320728D01*
X156035906Y-65661235D01*
X157701620Y-65661235D01*
X157701620Y-66761235D01*
X157703734Y-66782695D01*
X157720158Y-66822348D01*
X157750507Y-66852697D01*
X157790160Y-66869121D01*
X157833080Y-66869121D01*
X157872733Y-66852697D01*
X157903082Y-66822348D01*
X157919506Y-66782695D01*
X157921620Y-66761235D01*
X157921620Y-65661235D01*
X158225430Y-65661235D01*
X158225430Y-66761235D01*
X158227544Y-66782695D01*
X158243968Y-66822348D01*
X158274317Y-66852697D01*
X158313970Y-66869121D01*
X158356890Y-66869121D01*
X158396543Y-66852697D01*
X158426892Y-66822348D01*
X158443316Y-66782695D01*
X158445430Y-66761235D01*
X158445430Y-66295045D01*
X158702097Y-66295045D01*
X158723557Y-66292931D01*
X158763210Y-66276507D01*
X158793559Y-66246158D01*
X158809983Y-66206505D01*
X158809983Y-66163585D01*
X158793559Y-66123932D01*
X158763210Y-66093583D01*
X158723557Y-66077159D01*
X158702097Y-66075045D01*
X158445430Y-66075045D01*
X158445430Y-65771235D01*
X158859240Y-65771235D01*
X158880700Y-65769121D01*
X158920353Y-65752697D01*
X158950702Y-65722348D01*
X158967126Y-65682695D01*
X158967126Y-65639775D01*
X158950702Y-65600122D01*
X158920353Y-65569773D01*
X158880700Y-65553349D01*
X158859240Y-65551235D01*
X158335430Y-65551235D01*
X158313970Y-65553349D01*
X158274317Y-65569773D01*
X158243968Y-65600122D01*
X158227544Y-65639775D01*
X158225430Y-65661235D01*
X157921620Y-65661235D01*
X157919506Y-65639775D01*
X157903082Y-65600122D01*
X157872733Y-65569773D01*
X157833080Y-65553349D01*
X157790160Y-65553349D01*
X157750507Y-65569773D01*
X157720158Y-65600122D01*
X157703734Y-65639775D01*
X157701620Y-65661235D01*
X156035906Y-65661235D01*
X156033792Y-65639775D01*
X156017368Y-65600122D01*
X155987019Y-65569773D01*
X155947366Y-65553349D01*
X155904446Y-65553349D01*
X155864793Y-65569773D01*
X155834444Y-65600122D01*
X155818020Y-65639775D01*
X155815906Y-65661235D01*
X155815906Y-66347023D01*
X155392841Y-65606660D01*
X155389631Y-65602138D01*
X155388796Y-65600122D01*
X155386740Y-65598066D01*
X155380358Y-65589076D01*
X155368794Y-65580120D01*
X155358447Y-65569773D01*
X155351969Y-65567090D01*
X155346425Y-65562796D01*
X155332304Y-65558945D01*
X155318794Y-65553349D01*
X155311786Y-65553349D01*
X155305017Y-65551503D01*
X155290500Y-65553349D01*
X155275874Y-65553349D01*
X155269394Y-65556032D01*
X155262440Y-65556917D01*
X155249743Y-65564172D01*
X155236221Y-65569773D01*
X155231260Y-65574733D01*
X155225175Y-65578211D01*
X155216219Y-65589774D01*
X155205872Y-65600122D01*
X155203189Y-65606599D01*
X155198895Y-65612144D01*
X155195044Y-65626264D01*
X155189448Y-65639775D01*
X155188367Y-65650746D01*
X155187602Y-65653552D01*
X155187877Y-65655718D01*
X155187334Y-65661235D01*
X154933792Y-65661235D01*
X154933792Y-65639775D01*
X154917368Y-65600122D01*
X154887019Y-65569773D01*
X154847366Y-65553349D01*
X154825906Y-65551235D01*
X154302096Y-65551235D01*
X154280636Y-65553349D01*
X154240983Y-65569773D01*
X154210634Y-65600122D01*
X154194210Y-65639775D01*
X154192096Y-65661235D01*
X154069874Y-65661235D01*
X154069874Y-65429013D01*
X159089348Y-65429013D01*
X159089348Y-66993457D01*
G37*
D10*
X120941319Y-127735228D02*
X120465129Y-127735228D01*
X120465129Y-127735228D02*
X120465129Y-126735228D01*
X121274653Y-127211418D02*
X121607986Y-127211418D01*
X121750843Y-127735228D02*
X121274653Y-127735228D01*
X121274653Y-127735228D02*
X121274653Y-126735228D01*
X121274653Y-126735228D02*
X121750843Y-126735228D01*
X122179415Y-127735228D02*
X122179415Y-126735228D01*
X122179415Y-126735228D02*
X122417510Y-126735228D01*
X122417510Y-126735228D02*
X122560367Y-126782847D01*
X122560367Y-126782847D02*
X122655605Y-126878085D01*
X122655605Y-126878085D02*
X122703224Y-126973323D01*
X122703224Y-126973323D02*
X122750843Y-127163799D01*
X122750843Y-127163799D02*
X122750843Y-127306656D01*
X122750843Y-127306656D02*
X122703224Y-127497132D01*
X122703224Y-127497132D02*
X122655605Y-127592370D01*
X122655605Y-127592370D02*
X122560367Y-127687609D01*
X122560367Y-127687609D02*
X122417510Y-127735228D01*
X122417510Y-127735228D02*
X122179415Y-127735228D01*
X123655605Y-126735228D02*
X123179415Y-126735228D01*
X123179415Y-126735228D02*
X123131796Y-127211418D01*
X123131796Y-127211418D02*
X123179415Y-127163799D01*
X123179415Y-127163799D02*
X123274653Y-127116180D01*
X123274653Y-127116180D02*
X123512748Y-127116180D01*
X123512748Y-127116180D02*
X123607986Y-127163799D01*
X123607986Y-127163799D02*
X123655605Y-127211418D01*
X123655605Y-127211418D02*
X123703224Y-127306656D01*
X123703224Y-127306656D02*
X123703224Y-127544751D01*
X123703224Y-127544751D02*
X123655605Y-127639989D01*
X123655605Y-127639989D02*
X123607986Y-127687609D01*
X123607986Y-127687609D02*
X123512748Y-127735228D01*
X123512748Y-127735228D02*
X123274653Y-127735228D01*
X123274653Y-127735228D02*
X123179415Y-127687609D01*
X123179415Y-127687609D02*
X123131796Y-127639989D01*
X151353236Y-64126968D02*
X152353236Y-64126968D01*
X152353236Y-64126968D02*
X152353236Y-64365063D01*
X152353236Y-64365063D02*
X152305617Y-64507920D01*
X152305617Y-64507920D02*
X152210379Y-64603158D01*
X152210379Y-64603158D02*
X152115141Y-64650777D01*
X152115141Y-64650777D02*
X151924665Y-64698396D01*
X151924665Y-64698396D02*
X151781808Y-64698396D01*
X151781808Y-64698396D02*
X151591332Y-64650777D01*
X151591332Y-64650777D02*
X151496094Y-64603158D01*
X151496094Y-64603158D02*
X151400856Y-64507920D01*
X151400856Y-64507920D02*
X151353236Y-64365063D01*
X151353236Y-64365063D02*
X151353236Y-64126968D01*
X152353236Y-65317444D02*
X152353236Y-65412682D01*
X152353236Y-65412682D02*
X152305617Y-65507920D01*
X152305617Y-65507920D02*
X152257998Y-65555539D01*
X152257998Y-65555539D02*
X152162760Y-65603158D01*
X152162760Y-65603158D02*
X151972284Y-65650777D01*
X151972284Y-65650777D02*
X151734189Y-65650777D01*
X151734189Y-65650777D02*
X151543713Y-65603158D01*
X151543713Y-65603158D02*
X151448475Y-65555539D01*
X151448475Y-65555539D02*
X151400856Y-65507920D01*
X151400856Y-65507920D02*
X151353236Y-65412682D01*
X151353236Y-65412682D02*
X151353236Y-65317444D01*
X151353236Y-65317444D02*
X151400856Y-65222206D01*
X151400856Y-65222206D02*
X151448475Y-65174587D01*
X151448475Y-65174587D02*
X151543713Y-65126968D01*
X151543713Y-65126968D02*
X151734189Y-65079349D01*
X151734189Y-65079349D02*
X151972284Y-65079349D01*
X151972284Y-65079349D02*
X152162760Y-65126968D01*
X152162760Y-65126968D02*
X152257998Y-65174587D01*
X152257998Y-65174587D02*
X152305617Y-65222206D01*
X152305617Y-65222206D02*
X152353236Y-65317444D01*
D13*
G36*
X138992338Y-135061950D02*
G01*
X138773760Y-135061950D01*
X138883049Y-134734084D01*
X138992338Y-135061950D01*
G37*
G36*
X135308364Y-134529019D02*
G01*
X135335503Y-134556158D01*
X135368287Y-134621726D01*
X135368287Y-134726935D01*
X135335503Y-134792503D01*
X135308364Y-134819641D01*
X135242796Y-134852426D01*
X134959715Y-134852426D01*
X134959715Y-134496235D01*
X135242796Y-134496235D01*
X135308364Y-134529019D01*
G37*
G36*
X140075031Y-134529019D02*
G01*
X140102170Y-134556158D01*
X140134954Y-134621726D01*
X140134954Y-134726935D01*
X140102170Y-134792503D01*
X140075031Y-134819641D01*
X140009463Y-134852426D01*
X139726382Y-134852426D01*
X139726382Y-134496235D01*
X140009463Y-134496235D01*
X140075031Y-134529019D01*
G37*
G36*
X140477176Y-135718457D02*
G01*
X133517493Y-135718457D01*
X133517493Y-134595759D01*
X133639715Y-134595759D01*
X133639715Y-134700521D01*
X133641829Y-134721981D01*
X133643341Y-134725633D01*
X133643622Y-134729575D01*
X133651328Y-134749714D01*
X133703709Y-134854476D01*
X133709524Y-134863713D01*
X133710635Y-134866395D01*
X133713113Y-134869415D01*
X133715197Y-134872725D01*
X133717390Y-134874627D01*
X133724314Y-134883065D01*
X133776695Y-134935446D01*
X133785132Y-134942369D01*
X133787035Y-134944563D01*
X133790344Y-134946646D01*
X133793365Y-134949125D01*
X133796046Y-134950235D01*
X133805284Y-134956051D01*
X133910045Y-135008432D01*
X133911618Y-135009033D01*
X133912254Y-135009505D01*
X133921261Y-135012723D01*
X133930185Y-135016138D01*
X133930973Y-135016194D01*
X133932560Y-135016761D01*
X134130371Y-135066213D01*
X134208364Y-135105210D01*
X134235503Y-135132349D01*
X134268287Y-135197917D01*
X134268287Y-135250745D01*
X134235503Y-135316313D01*
X134208364Y-135343451D01*
X134142796Y-135376235D01*
X133924708Y-135376235D01*
X133784499Y-135329500D01*
X133763472Y-135324719D01*
X133720660Y-135327761D01*
X133682272Y-135346956D01*
X133654151Y-135379380D01*
X133640579Y-135420098D01*
X133643621Y-135462910D01*
X133662816Y-135501298D01*
X133695240Y-135529419D01*
X133714931Y-135538210D01*
X133872074Y-135590590D01*
X133882713Y-135593009D01*
X133885398Y-135594121D01*
X133889289Y-135594504D01*
X133893101Y-135595371D01*
X133895997Y-135595165D01*
X133906858Y-135596235D01*
X134168763Y-135596235D01*
X134190223Y-135594121D01*
X134193872Y-135592609D01*
X134197816Y-135592329D01*
X134217956Y-135584622D01*
X134322718Y-135532242D01*
X134331955Y-135526426D01*
X134334637Y-135525316D01*
X134337657Y-135522837D01*
X134340967Y-135520754D01*
X134342869Y-135518560D01*
X134351307Y-135511637D01*
X134403688Y-135459256D01*
X134410611Y-135450818D01*
X134412805Y-135448916D01*
X134414888Y-135445606D01*
X134417367Y-135442586D01*
X134418477Y-135439904D01*
X134424293Y-135430667D01*
X134476674Y-135325906D01*
X134484380Y-135305766D01*
X134484660Y-135301824D01*
X134486173Y-135298172D01*
X134488287Y-135276712D01*
X134488287Y-135171950D01*
X134486173Y-135150490D01*
X134484660Y-135146837D01*
X134484380Y-135142896D01*
X134476674Y-135122756D01*
X134424293Y-135017995D01*
X134418477Y-135008757D01*
X134417367Y-135006076D01*
X134414888Y-135003055D01*
X134412805Y-134999746D01*
X134410611Y-134997843D01*
X134403688Y-134989406D01*
X134351307Y-134937025D01*
X134342869Y-134930101D01*
X134340967Y-134927908D01*
X134337657Y-134925824D01*
X134334637Y-134923346D01*
X134331955Y-134922235D01*
X134322718Y-134916420D01*
X134217956Y-134864039D01*
X134216384Y-134863437D01*
X134215748Y-134862966D01*
X134206733Y-134859744D01*
X134197817Y-134856333D01*
X134197028Y-134856276D01*
X134195442Y-134855710D01*
X133997630Y-134806257D01*
X133919638Y-134767261D01*
X133892499Y-134740122D01*
X133859715Y-134674553D01*
X133859715Y-134621726D01*
X133892499Y-134556157D01*
X133919638Y-134529019D01*
X133985206Y-134496235D01*
X134203294Y-134496235D01*
X134343502Y-134542971D01*
X134364529Y-134547752D01*
X134407341Y-134544710D01*
X134445730Y-134525516D01*
X134473850Y-134493091D01*
X134487423Y-134452374D01*
X134484381Y-134409562D01*
X134472717Y-134386235D01*
X134739715Y-134386235D01*
X134739715Y-135486235D01*
X134741829Y-135507695D01*
X134758253Y-135547348D01*
X134788602Y-135577697D01*
X134828255Y-135594121D01*
X134871175Y-135594121D01*
X134910828Y-135577697D01*
X134941177Y-135547348D01*
X134957601Y-135507695D01*
X134959715Y-135486235D01*
X134959715Y-135072426D01*
X135268763Y-135072426D01*
X135290223Y-135070312D01*
X135293875Y-135068799D01*
X135297817Y-135068519D01*
X135317956Y-135060813D01*
X135422718Y-135008432D01*
X135431955Y-135002616D01*
X135434637Y-135001506D01*
X135437657Y-134999027D01*
X135440967Y-134996944D01*
X135442869Y-134994750D01*
X135451307Y-134987827D01*
X135503688Y-134935446D01*
X135510611Y-134927008D01*
X135512805Y-134925106D01*
X135514888Y-134921796D01*
X135517367Y-134918776D01*
X135518477Y-134916094D01*
X135524293Y-134906857D01*
X135576674Y-134802096D01*
X135584380Y-134781956D01*
X135584660Y-134778014D01*
X135586173Y-134774362D01*
X135588287Y-134752902D01*
X135588287Y-134595759D01*
X135586173Y-134574299D01*
X135584660Y-134570646D01*
X135584380Y-134566705D01*
X135576674Y-134546565D01*
X135524293Y-134441804D01*
X135518477Y-134432566D01*
X135517367Y-134429885D01*
X135514888Y-134426864D01*
X135512805Y-134423555D01*
X135510611Y-134421652D01*
X135503688Y-134413215D01*
X135476708Y-134386235D01*
X135839715Y-134386235D01*
X135839715Y-135486235D01*
X135841829Y-135507695D01*
X135858253Y-135547348D01*
X135888602Y-135577697D01*
X135928255Y-135594121D01*
X135971175Y-135594121D01*
X136010828Y-135577697D01*
X136041177Y-135547348D01*
X136057601Y-135507695D01*
X136059715Y-135486235D01*
X136059715Y-135045728D01*
X136365639Y-135045728D01*
X136365639Y-135088648D01*
X136382063Y-135128301D01*
X136412412Y-135158650D01*
X136452065Y-135175074D01*
X136473525Y-135177188D01*
X137311621Y-135177188D01*
X137333081Y-135175074D01*
X137372734Y-135158650D01*
X137403083Y-135128301D01*
X137419507Y-135088648D01*
X137419507Y-135045728D01*
X137403083Y-135006075D01*
X137372734Y-134975726D01*
X137333081Y-134959302D01*
X137311621Y-134957188D01*
X136473525Y-134957188D01*
X136452065Y-134959302D01*
X136412412Y-134975726D01*
X136382063Y-135006075D01*
X136365639Y-135045728D01*
X136059715Y-135045728D01*
X136059715Y-134386235D01*
X136057601Y-134364775D01*
X137570401Y-134364775D01*
X137570401Y-134407695D01*
X137586825Y-134447348D01*
X137617174Y-134477697D01*
X137656827Y-134494121D01*
X137678287Y-134496235D01*
X137882573Y-134496235D01*
X137882573Y-135486235D01*
X137884687Y-135507695D01*
X137901111Y-135547348D01*
X137931460Y-135577697D01*
X137971113Y-135594121D01*
X138014033Y-135594121D01*
X138053686Y-135577697D01*
X138084035Y-135547348D01*
X138100459Y-135507695D01*
X138102573Y-135486235D01*
X138102573Y-135472477D01*
X138407246Y-135472477D01*
X138410288Y-135515289D01*
X138429482Y-135553678D01*
X138461907Y-135581798D01*
X138502624Y-135595371D01*
X138545436Y-135592329D01*
X138583825Y-135573135D01*
X138611945Y-135540710D01*
X138620737Y-135521020D01*
X138700427Y-135281950D01*
X139065671Y-135281950D01*
X139145361Y-135521020D01*
X139154153Y-135540710D01*
X139182273Y-135573135D01*
X139220662Y-135592329D01*
X139263474Y-135595371D01*
X139304191Y-135581798D01*
X139336616Y-135553678D01*
X139355810Y-135515289D01*
X139358852Y-135472477D01*
X139354071Y-135451450D01*
X138998999Y-134386235D01*
X139506382Y-134386235D01*
X139506382Y-135486235D01*
X139508496Y-135507695D01*
X139524920Y-135547348D01*
X139555269Y-135577697D01*
X139594922Y-135594121D01*
X139637842Y-135594121D01*
X139677495Y-135577697D01*
X139707844Y-135547348D01*
X139724268Y-135507695D01*
X139726382Y-135486235D01*
X139726382Y-135072426D01*
X140035430Y-135072426D01*
X140056890Y-135070312D01*
X140060542Y-135068799D01*
X140064484Y-135068519D01*
X140084623Y-135060813D01*
X140189385Y-135008432D01*
X140198622Y-135002616D01*
X140201304Y-135001506D01*
X140204324Y-134999027D01*
X140207634Y-134996944D01*
X140209536Y-134994750D01*
X140217974Y-134987827D01*
X140270355Y-134935446D01*
X140277278Y-134927008D01*
X140279472Y-134925106D01*
X140281555Y-134921796D01*
X140284034Y-134918776D01*
X140285144Y-134916094D01*
X140290960Y-134906857D01*
X140343341Y-134802096D01*
X140351047Y-134781956D01*
X140351327Y-134778014D01*
X140352840Y-134774362D01*
X140354954Y-134752902D01*
X140354954Y-134595759D01*
X140352840Y-134574299D01*
X140351327Y-134570646D01*
X140351047Y-134566705D01*
X140343341Y-134546565D01*
X140290960Y-134441804D01*
X140285144Y-134432566D01*
X140284034Y-134429885D01*
X140281555Y-134426864D01*
X140279472Y-134423555D01*
X140277278Y-134421652D01*
X140270355Y-134413215D01*
X140217974Y-134360834D01*
X140209536Y-134353910D01*
X140207634Y-134351717D01*
X140204324Y-134349633D01*
X140201304Y-134347155D01*
X140198622Y-134346044D01*
X140189385Y-134340229D01*
X140084623Y-134287848D01*
X140064484Y-134280142D01*
X140060542Y-134279861D01*
X140056890Y-134278349D01*
X140035430Y-134276235D01*
X139616382Y-134276235D01*
X139594922Y-134278349D01*
X139555269Y-134294773D01*
X139524920Y-134325122D01*
X139508496Y-134364775D01*
X139506382Y-134386235D01*
X138998999Y-134386235D01*
X138987404Y-134351450D01*
X138978612Y-134331760D01*
X138973465Y-134325826D01*
X138969949Y-134318792D01*
X138959528Y-134309755D01*
X138950492Y-134299335D01*
X138943457Y-134295818D01*
X138937524Y-134290672D01*
X138924446Y-134286312D01*
X138912103Y-134280141D01*
X138904260Y-134279583D01*
X138896807Y-134277099D01*
X138883049Y-134278076D01*
X138869291Y-134277099D01*
X138861837Y-134279583D01*
X138853995Y-134280141D01*
X138841651Y-134286312D01*
X138828574Y-134290672D01*
X138822640Y-134295818D01*
X138815606Y-134299335D01*
X138806569Y-134309755D01*
X138796149Y-134318792D01*
X138792632Y-134325826D01*
X138787486Y-134331760D01*
X138778694Y-134351450D01*
X138412027Y-135451450D01*
X138407246Y-135472477D01*
X138102573Y-135472477D01*
X138102573Y-134496235D01*
X138306859Y-134496235D01*
X138328319Y-134494121D01*
X138367972Y-134477697D01*
X138398321Y-134447348D01*
X138414745Y-134407695D01*
X138414745Y-134364775D01*
X138398321Y-134325122D01*
X138367972Y-134294773D01*
X138328319Y-134278349D01*
X138306859Y-134276235D01*
X137678287Y-134276235D01*
X137656827Y-134278349D01*
X137617174Y-134294773D01*
X137586825Y-134325122D01*
X137570401Y-134364775D01*
X136057601Y-134364775D01*
X136041177Y-134325122D01*
X136010828Y-134294773D01*
X135971175Y-134278349D01*
X135928255Y-134278349D01*
X135888602Y-134294773D01*
X135858253Y-134325122D01*
X135841829Y-134364775D01*
X135839715Y-134386235D01*
X135476708Y-134386235D01*
X135451307Y-134360834D01*
X135442869Y-134353910D01*
X135440967Y-134351717D01*
X135437657Y-134349633D01*
X135434637Y-134347155D01*
X135431955Y-134346044D01*
X135422718Y-134340229D01*
X135317956Y-134287848D01*
X135297817Y-134280142D01*
X135293875Y-134279861D01*
X135290223Y-134278349D01*
X135268763Y-134276235D01*
X134849715Y-134276235D01*
X134828255Y-134278349D01*
X134788602Y-134294773D01*
X134758253Y-134325122D01*
X134741829Y-134364775D01*
X134739715Y-134386235D01*
X134472717Y-134386235D01*
X134465186Y-134371173D01*
X134432762Y-134343053D01*
X134413072Y-134334261D01*
X134255929Y-134281880D01*
X134245287Y-134279460D01*
X134242604Y-134278349D01*
X134238714Y-134277965D01*
X134234902Y-134277099D01*
X134232004Y-134277304D01*
X134221144Y-134276235D01*
X133959239Y-134276235D01*
X133937779Y-134278349D01*
X133934126Y-134279861D01*
X133930185Y-134280142D01*
X133910045Y-134287848D01*
X133805284Y-134340229D01*
X133796046Y-134346044D01*
X133793365Y-134347155D01*
X133790344Y-134349633D01*
X133787035Y-134351717D01*
X133785132Y-134353910D01*
X133776695Y-134360834D01*
X133724314Y-134413215D01*
X133717390Y-134421652D01*
X133715197Y-134423555D01*
X133713113Y-134426864D01*
X133710635Y-134429885D01*
X133709524Y-134432566D01*
X133703709Y-134441804D01*
X133651328Y-134546566D01*
X133643622Y-134566705D01*
X133643341Y-134570646D01*
X133641829Y-134574299D01*
X133639715Y-134595759D01*
X133517493Y-134595759D01*
X133517493Y-134154013D01*
X140477176Y-134154013D01*
X140477176Y-135718457D01*
G37*
D10*
X156998462Y-61470942D02*
X156998462Y-60470942D01*
X156998462Y-60470942D02*
X157236557Y-60470942D01*
X157236557Y-60470942D02*
X157379414Y-60518561D01*
X157379414Y-60518561D02*
X157474652Y-60613799D01*
X157474652Y-60613799D02*
X157522271Y-60709037D01*
X157522271Y-60709037D02*
X157569890Y-60899513D01*
X157569890Y-60899513D02*
X157569890Y-61042370D01*
X157569890Y-61042370D02*
X157522271Y-61232846D01*
X157522271Y-61232846D02*
X157474652Y-61328084D01*
X157474652Y-61328084D02*
X157379414Y-61423323D01*
X157379414Y-61423323D02*
X157236557Y-61470942D01*
X157236557Y-61470942D02*
X156998462Y-61470942D01*
X157998462Y-61470942D02*
X157998462Y-60470942D01*
X158998461Y-60518561D02*
X158903223Y-60470942D01*
X158903223Y-60470942D02*
X158760366Y-60470942D01*
X158760366Y-60470942D02*
X158617509Y-60518561D01*
X158617509Y-60518561D02*
X158522271Y-60613799D01*
X158522271Y-60613799D02*
X158474652Y-60709037D01*
X158474652Y-60709037D02*
X158427033Y-60899513D01*
X158427033Y-60899513D02*
X158427033Y-61042370D01*
X158427033Y-61042370D02*
X158474652Y-61232846D01*
X158474652Y-61232846D02*
X158522271Y-61328084D01*
X158522271Y-61328084D02*
X158617509Y-61423323D01*
X158617509Y-61423323D02*
X158760366Y-61470942D01*
X158760366Y-61470942D02*
X158855604Y-61470942D01*
X158855604Y-61470942D02*
X158998461Y-61423323D01*
X158998461Y-61423323D02*
X159046080Y-61375703D01*
X159046080Y-61375703D02*
X159046080Y-61042370D01*
X159046080Y-61042370D02*
X158855604Y-61042370D01*
X159427033Y-60566180D02*
X159474652Y-60518561D01*
X159474652Y-60518561D02*
X159569890Y-60470942D01*
X159569890Y-60470942D02*
X159807985Y-60470942D01*
X159807985Y-60470942D02*
X159903223Y-60518561D01*
X159903223Y-60518561D02*
X159950842Y-60566180D01*
X159950842Y-60566180D02*
X159998461Y-60661418D01*
X159998461Y-60661418D02*
X159998461Y-60756656D01*
X159998461Y-60756656D02*
X159950842Y-60899513D01*
X159950842Y-60899513D02*
X159379414Y-61470942D01*
X159379414Y-61470942D02*
X159998461Y-61470942D01*
X121444830Y-52799514D02*
X122063877Y-52799514D01*
X122063877Y-52799514D02*
X121730544Y-53180466D01*
X121730544Y-53180466D02*
X121873401Y-53180466D01*
X121873401Y-53180466D02*
X121968639Y-53228085D01*
X121968639Y-53228085D02*
X122016258Y-53275704D01*
X122016258Y-53275704D02*
X122063877Y-53370942D01*
X122063877Y-53370942D02*
X122063877Y-53609037D01*
X122063877Y-53609037D02*
X122016258Y-53704275D01*
X122016258Y-53704275D02*
X121968639Y-53751895D01*
X121968639Y-53751895D02*
X121873401Y-53799514D01*
X121873401Y-53799514D02*
X121587687Y-53799514D01*
X121587687Y-53799514D02*
X121492449Y-53751895D01*
X121492449Y-53751895D02*
X121444830Y-53704275D01*
X122349592Y-52799514D02*
X122682925Y-53799514D01*
X122682925Y-53799514D02*
X123016258Y-52799514D01*
X123254354Y-52799514D02*
X123873401Y-52799514D01*
X123873401Y-52799514D02*
X123540068Y-53180466D01*
X123540068Y-53180466D02*
X123682925Y-53180466D01*
X123682925Y-53180466D02*
X123778163Y-53228085D01*
X123778163Y-53228085D02*
X123825782Y-53275704D01*
X123825782Y-53275704D02*
X123873401Y-53370942D01*
X123873401Y-53370942D02*
X123873401Y-53609037D01*
X123873401Y-53609037D02*
X123825782Y-53704275D01*
X123825782Y-53704275D02*
X123778163Y-53751895D01*
X123778163Y-53751895D02*
X123682925Y-53799514D01*
X123682925Y-53799514D02*
X123397211Y-53799514D01*
X123397211Y-53799514D02*
X123301973Y-53751895D01*
X123301973Y-53751895D02*
X123254354Y-53704275D01*
X131117449Y-122169753D02*
X131260306Y-122217372D01*
X131260306Y-122217372D02*
X131498401Y-122217372D01*
X131498401Y-122217372D02*
X131593639Y-122169753D01*
X131593639Y-122169753D02*
X131641258Y-122122133D01*
X131641258Y-122122133D02*
X131688877Y-122026895D01*
X131688877Y-122026895D02*
X131688877Y-121931657D01*
X131688877Y-121931657D02*
X131641258Y-121836419D01*
X131641258Y-121836419D02*
X131593639Y-121788800D01*
X131593639Y-121788800D02*
X131498401Y-121741181D01*
X131498401Y-121741181D02*
X131307925Y-121693562D01*
X131307925Y-121693562D02*
X131212687Y-121645943D01*
X131212687Y-121645943D02*
X131165068Y-121598324D01*
X131165068Y-121598324D02*
X131117449Y-121503086D01*
X131117449Y-121503086D02*
X131117449Y-121407848D01*
X131117449Y-121407848D02*
X131165068Y-121312610D01*
X131165068Y-121312610D02*
X131212687Y-121264991D01*
X131212687Y-121264991D02*
X131307925Y-121217372D01*
X131307925Y-121217372D02*
X131546020Y-121217372D01*
X131546020Y-121217372D02*
X131688877Y-121264991D01*
X132688877Y-122122133D02*
X132641258Y-122169753D01*
X132641258Y-122169753D02*
X132498401Y-122217372D01*
X132498401Y-122217372D02*
X132403163Y-122217372D01*
X132403163Y-122217372D02*
X132260306Y-122169753D01*
X132260306Y-122169753D02*
X132165068Y-122074514D01*
X132165068Y-122074514D02*
X132117449Y-121979276D01*
X132117449Y-121979276D02*
X132069830Y-121788800D01*
X132069830Y-121788800D02*
X132069830Y-121645943D01*
X132069830Y-121645943D02*
X132117449Y-121455467D01*
X132117449Y-121455467D02*
X132165068Y-121360229D01*
X132165068Y-121360229D02*
X132260306Y-121264991D01*
X132260306Y-121264991D02*
X132403163Y-121217372D01*
X132403163Y-121217372D02*
X132498401Y-121217372D01*
X132498401Y-121217372D02*
X132641258Y-121264991D01*
X132641258Y-121264991D02*
X132688877Y-121312610D01*
X133593639Y-122217372D02*
X133117449Y-122217372D01*
X133117449Y-122217372D02*
X133117449Y-121217372D01*
X133926973Y-122217372D02*
X133926973Y-121217372D01*
X134498401Y-122217372D02*
X134069830Y-121645943D01*
X134498401Y-121217372D02*
X133926973Y-121788800D01*
D11*
X133902598Y-61862114D02*
X133331170Y-61862114D01*
X133616884Y-61862114D02*
X133616884Y-60862114D01*
X133616884Y-60862114D02*
X133521646Y-61004971D01*
X133521646Y-61004971D02*
X133426408Y-61100209D01*
X133426408Y-61100209D02*
X133331170Y-61147828D01*
X134521646Y-60862114D02*
X134616884Y-60862114D01*
X134616884Y-60862114D02*
X134712122Y-60909733D01*
X134712122Y-60909733D02*
X134759741Y-60957352D01*
X134759741Y-60957352D02*
X134807360Y-61052590D01*
X134807360Y-61052590D02*
X134854979Y-61243066D01*
X134854979Y-61243066D02*
X134854979Y-61481161D01*
X134854979Y-61481161D02*
X134807360Y-61671637D01*
X134807360Y-61671637D02*
X134759741Y-61766875D01*
X134759741Y-61766875D02*
X134712122Y-61814495D01*
X134712122Y-61814495D02*
X134616884Y-61862114D01*
X134616884Y-61862114D02*
X134521646Y-61862114D01*
X134521646Y-61862114D02*
X134426408Y-61814495D01*
X134426408Y-61814495D02*
X134378789Y-61766875D01*
X134378789Y-61766875D02*
X134331170Y-61671637D01*
X134331170Y-61671637D02*
X134283551Y-61481161D01*
X134283551Y-61481161D02*
X134283551Y-61243066D01*
X134283551Y-61243066D02*
X134331170Y-61052590D01*
X134331170Y-61052590D02*
X134378789Y-60957352D01*
X134378789Y-60957352D02*
X134426408Y-60909733D01*
X134426408Y-60909733D02*
X134521646Y-60862114D01*
X135283551Y-61195447D02*
X135283551Y-62195447D01*
X135759741Y-61719256D02*
X135807360Y-61814495D01*
X135807360Y-61814495D02*
X135902598Y-61862114D01*
X135283551Y-61719256D02*
X135331170Y-61814495D01*
X135331170Y-61814495D02*
X135426408Y-61862114D01*
X135426408Y-61862114D02*
X135616884Y-61862114D01*
X135616884Y-61862114D02*
X135712122Y-61814495D01*
X135712122Y-61814495D02*
X135759741Y-61719256D01*
X135759741Y-61719256D02*
X135759741Y-61195447D01*
X136664503Y-61338304D02*
X136331170Y-61338304D01*
X136331170Y-61862114D02*
X136331170Y-60862114D01*
X136331170Y-60862114D02*
X136807360Y-60862114D01*
X129738551Y-102367114D02*
X130405217Y-102367114D01*
X130405217Y-102367114D02*
X129976646Y-103367114D01*
X131214741Y-102700447D02*
X131214741Y-103367114D01*
X130976646Y-102319495D02*
X130738551Y-103033780D01*
X130738551Y-103033780D02*
X131357598Y-103033780D01*
X131738551Y-103367114D02*
X131738551Y-102367114D01*
X131738551Y-102843304D02*
X132309979Y-102843304D01*
X132309979Y-103367114D02*
X132309979Y-102367114D01*
X133357598Y-103271875D02*
X133309979Y-103319495D01*
X133309979Y-103319495D02*
X133167122Y-103367114D01*
X133167122Y-103367114D02*
X133071884Y-103367114D01*
X133071884Y-103367114D02*
X132929027Y-103319495D01*
X132929027Y-103319495D02*
X132833789Y-103224256D01*
X132833789Y-103224256D02*
X132786170Y-103129018D01*
X132786170Y-103129018D02*
X132738551Y-102938542D01*
X132738551Y-102938542D02*
X132738551Y-102795685D01*
X132738551Y-102795685D02*
X132786170Y-102605209D01*
X132786170Y-102605209D02*
X132833789Y-102509971D01*
X132833789Y-102509971D02*
X132929027Y-102414733D01*
X132929027Y-102414733D02*
X133071884Y-102367114D01*
X133071884Y-102367114D02*
X133167122Y-102367114D01*
X133167122Y-102367114D02*
X133309979Y-102414733D01*
X133309979Y-102414733D02*
X133357598Y-102462352D01*
X133738551Y-102462352D02*
X133786170Y-102414733D01*
X133786170Y-102414733D02*
X133881408Y-102367114D01*
X133881408Y-102367114D02*
X134119503Y-102367114D01*
X134119503Y-102367114D02*
X134214741Y-102414733D01*
X134214741Y-102414733D02*
X134262360Y-102462352D01*
X134262360Y-102462352D02*
X134309979Y-102557590D01*
X134309979Y-102557590D02*
X134309979Y-102652828D01*
X134309979Y-102652828D02*
X134262360Y-102795685D01*
X134262360Y-102795685D02*
X133690932Y-103367114D01*
X133690932Y-103367114D02*
X134309979Y-103367114D01*
X135167122Y-102700447D02*
X135167122Y-103367114D01*
X134929027Y-102319495D02*
X134690932Y-103033780D01*
X134690932Y-103033780D02*
X135309979Y-103033780D01*
X136119503Y-102700447D02*
X136119503Y-103367114D01*
X135881408Y-102319495D02*
X135643313Y-103033780D01*
X135643313Y-103033780D02*
X136262360Y-103033780D01*
X141579622Y-75774495D02*
X141722479Y-75822114D01*
X141722479Y-75822114D02*
X141960574Y-75822114D01*
X141960574Y-75822114D02*
X142055812Y-75774495D01*
X142055812Y-75774495D02*
X142103431Y-75726875D01*
X142103431Y-75726875D02*
X142151050Y-75631637D01*
X142151050Y-75631637D02*
X142151050Y-75536399D01*
X142151050Y-75536399D02*
X142103431Y-75441161D01*
X142103431Y-75441161D02*
X142055812Y-75393542D01*
X142055812Y-75393542D02*
X141960574Y-75345923D01*
X141960574Y-75345923D02*
X141770098Y-75298304D01*
X141770098Y-75298304D02*
X141674860Y-75250685D01*
X141674860Y-75250685D02*
X141627241Y-75203066D01*
X141627241Y-75203066D02*
X141579622Y-75107828D01*
X141579622Y-75107828D02*
X141579622Y-75012590D01*
X141579622Y-75012590D02*
X141627241Y-74917352D01*
X141627241Y-74917352D02*
X141674860Y-74869733D01*
X141674860Y-74869733D02*
X141770098Y-74822114D01*
X141770098Y-74822114D02*
X142008193Y-74822114D01*
X142008193Y-74822114D02*
X142151050Y-74869733D01*
X142579622Y-75298304D02*
X142912955Y-75298304D01*
X143055812Y-75822114D02*
X142579622Y-75822114D01*
X142579622Y-75822114D02*
X142579622Y-74822114D01*
X142579622Y-74822114D02*
X143055812Y-74822114D01*
X144008193Y-74869733D02*
X143912955Y-74822114D01*
X143912955Y-74822114D02*
X143770098Y-74822114D01*
X143770098Y-74822114D02*
X143627241Y-74869733D01*
X143627241Y-74869733D02*
X143532003Y-74964971D01*
X143532003Y-74964971D02*
X143484384Y-75060209D01*
X143484384Y-75060209D02*
X143436765Y-75250685D01*
X143436765Y-75250685D02*
X143436765Y-75393542D01*
X143436765Y-75393542D02*
X143484384Y-75584018D01*
X143484384Y-75584018D02*
X143532003Y-75679256D01*
X143532003Y-75679256D02*
X143627241Y-75774495D01*
X143627241Y-75774495D02*
X143770098Y-75822114D01*
X143770098Y-75822114D02*
X143865336Y-75822114D01*
X143865336Y-75822114D02*
X144008193Y-75774495D01*
X144008193Y-75774495D02*
X144055812Y-75726875D01*
X144055812Y-75726875D02*
X144055812Y-75393542D01*
X144055812Y-75393542D02*
X143865336Y-75393542D01*
X144484384Y-75441161D02*
X145246289Y-75441161D01*
X145627241Y-74822114D02*
X146293907Y-74822114D01*
X146293907Y-74822114D02*
X145865336Y-75822114D01*
D13*
G36*
X133408395Y-59854594D02*
G01*
X129069874Y-59854594D01*
X129069874Y-58522372D01*
X129192096Y-58522372D01*
X129192096Y-59622372D01*
X129194210Y-59643832D01*
X129210634Y-59683485D01*
X129240983Y-59713834D01*
X129280636Y-59730258D01*
X129323556Y-59730258D01*
X129363209Y-59713834D01*
X129393558Y-59683485D01*
X129409982Y-59643832D01*
X129412096Y-59622372D01*
X129412096Y-58522372D01*
X129409982Y-58500912D01*
X129560877Y-58500912D01*
X129560877Y-58543832D01*
X129577301Y-58583485D01*
X129607650Y-58613834D01*
X129647303Y-58630258D01*
X129668763Y-58632372D01*
X129873049Y-58632372D01*
X129873049Y-59622372D01*
X129875163Y-59643832D01*
X129891587Y-59683485D01*
X129921936Y-59713834D01*
X129961589Y-59730258D01*
X130004509Y-59730258D01*
X130044162Y-59713834D01*
X130074511Y-59683485D01*
X130090935Y-59643832D01*
X130093049Y-59622372D01*
X130093049Y-58632372D01*
X130297335Y-58632372D01*
X130318795Y-58630258D01*
X130358448Y-58613834D01*
X130388797Y-58583485D01*
X130405221Y-58543832D01*
X130405221Y-58522372D01*
X130554001Y-58522372D01*
X130554001Y-59622372D01*
X130556115Y-59643832D01*
X130572539Y-59683485D01*
X130602888Y-59713834D01*
X130642541Y-59730258D01*
X130664001Y-59732372D01*
X131187811Y-59732372D01*
X131209271Y-59730258D01*
X131248924Y-59713834D01*
X131279273Y-59683485D01*
X131295697Y-59643832D01*
X131295697Y-59600912D01*
X131279273Y-59561259D01*
X131248924Y-59530910D01*
X131209271Y-59514486D01*
X131187811Y-59512372D01*
X130774001Y-59512372D01*
X130774001Y-59156182D01*
X131030668Y-59156182D01*
X131052128Y-59154068D01*
X131091781Y-59137644D01*
X131122130Y-59107295D01*
X131138554Y-59067642D01*
X131138554Y-59024722D01*
X131122130Y-58985069D01*
X131091781Y-58954720D01*
X131052128Y-58938296D01*
X131030668Y-58936182D01*
X130774001Y-58936182D01*
X130774001Y-58731896D01*
X131496858Y-58731896D01*
X131496858Y-58836658D01*
X131498972Y-58858118D01*
X131500484Y-58861770D01*
X131500765Y-58865712D01*
X131508471Y-58885851D01*
X131560852Y-58990613D01*
X131566667Y-58999850D01*
X131567778Y-59002532D01*
X131570256Y-59005552D01*
X131572340Y-59008862D01*
X131574533Y-59010764D01*
X131581457Y-59019202D01*
X131633838Y-59071583D01*
X131642275Y-59078506D01*
X131644178Y-59080700D01*
X131647487Y-59082783D01*
X131650508Y-59085262D01*
X131653189Y-59086372D01*
X131662427Y-59092188D01*
X131767188Y-59144569D01*
X131768761Y-59145170D01*
X131769397Y-59145642D01*
X131778404Y-59148860D01*
X131787328Y-59152275D01*
X131788116Y-59152331D01*
X131789703Y-59152898D01*
X131987514Y-59202350D01*
X132065507Y-59241347D01*
X132092646Y-59268486D01*
X132125430Y-59334054D01*
X132125430Y-59386882D01*
X132092646Y-59452450D01*
X132065507Y-59479588D01*
X131999939Y-59512372D01*
X131781851Y-59512372D01*
X131641642Y-59465637D01*
X131620615Y-59460856D01*
X131577803Y-59463898D01*
X131539415Y-59483093D01*
X131511294Y-59515517D01*
X131497722Y-59556235D01*
X131500764Y-59599047D01*
X131519959Y-59637435D01*
X131552383Y-59665556D01*
X131572074Y-59674347D01*
X131729217Y-59726727D01*
X131739856Y-59729146D01*
X131742541Y-59730258D01*
X131746432Y-59730641D01*
X131750244Y-59731508D01*
X131753140Y-59731302D01*
X131764001Y-59732372D01*
X132025906Y-59732372D01*
X132047366Y-59730258D01*
X132051015Y-59728746D01*
X132054959Y-59728466D01*
X132075099Y-59720759D01*
X132179861Y-59668379D01*
X132189098Y-59662563D01*
X132191780Y-59661453D01*
X132194800Y-59658974D01*
X132198110Y-59656891D01*
X132200012Y-59654697D01*
X132208450Y-59647774D01*
X132260831Y-59595393D01*
X132267754Y-59586955D01*
X132269948Y-59585053D01*
X132272031Y-59581743D01*
X132274510Y-59578723D01*
X132275620Y-59576041D01*
X132281436Y-59566804D01*
X132333817Y-59462043D01*
X132341523Y-59441903D01*
X132341803Y-59437961D01*
X132343316Y-59434309D01*
X132345430Y-59412849D01*
X132345430Y-59308087D01*
X132343316Y-59286627D01*
X132341803Y-59282974D01*
X132341523Y-59279033D01*
X132333817Y-59258893D01*
X132281436Y-59154132D01*
X132275620Y-59144894D01*
X132274510Y-59142213D01*
X132272031Y-59139192D01*
X132269948Y-59135883D01*
X132267754Y-59133980D01*
X132260831Y-59125543D01*
X132208450Y-59073162D01*
X132200012Y-59066238D01*
X132198110Y-59064045D01*
X132194800Y-59061961D01*
X132191780Y-59059483D01*
X132189098Y-59058372D01*
X132179861Y-59052557D01*
X132075099Y-59000176D01*
X132073527Y-58999574D01*
X132072891Y-58999103D01*
X132063876Y-58995881D01*
X132054960Y-58992470D01*
X132054171Y-58992413D01*
X132052585Y-58991847D01*
X131854773Y-58942394D01*
X131776781Y-58903398D01*
X131749642Y-58876259D01*
X131716858Y-58810690D01*
X131716858Y-58757863D01*
X131749642Y-58692294D01*
X131776781Y-58665156D01*
X131842349Y-58632372D01*
X132060437Y-58632372D01*
X132200645Y-58679108D01*
X132221672Y-58683889D01*
X132264484Y-58680847D01*
X132302873Y-58661653D01*
X132330993Y-58629228D01*
X132344566Y-58588511D01*
X132341524Y-58545699D01*
X132322329Y-58507310D01*
X132314952Y-58500912D01*
X132441829Y-58500912D01*
X132441829Y-58543832D01*
X132458253Y-58583485D01*
X132488602Y-58613834D01*
X132528255Y-58630258D01*
X132549715Y-58632372D01*
X132754001Y-58632372D01*
X132754001Y-59622372D01*
X132756115Y-59643832D01*
X132772539Y-59683485D01*
X132802888Y-59713834D01*
X132842541Y-59730258D01*
X132885461Y-59730258D01*
X132925114Y-59713834D01*
X132955463Y-59683485D01*
X132971887Y-59643832D01*
X132974001Y-59622372D01*
X132974001Y-58632372D01*
X133178287Y-58632372D01*
X133199747Y-58630258D01*
X133239400Y-58613834D01*
X133269749Y-58583485D01*
X133286173Y-58543832D01*
X133286173Y-58500912D01*
X133269749Y-58461259D01*
X133239400Y-58430910D01*
X133199747Y-58414486D01*
X133178287Y-58412372D01*
X132549715Y-58412372D01*
X132528255Y-58414486D01*
X132488602Y-58430910D01*
X132458253Y-58461259D01*
X132441829Y-58500912D01*
X132314952Y-58500912D01*
X132289905Y-58479190D01*
X132270215Y-58470398D01*
X132113072Y-58418017D01*
X132102430Y-58415597D01*
X132099747Y-58414486D01*
X132095857Y-58414102D01*
X132092045Y-58413236D01*
X132089147Y-58413441D01*
X132078287Y-58412372D01*
X131816382Y-58412372D01*
X131794922Y-58414486D01*
X131791269Y-58415998D01*
X131787328Y-58416279D01*
X131767188Y-58423985D01*
X131662427Y-58476366D01*
X131653189Y-58482181D01*
X131650508Y-58483292D01*
X131647487Y-58485770D01*
X131644178Y-58487854D01*
X131642275Y-58490047D01*
X131633838Y-58496971D01*
X131581457Y-58549352D01*
X131574533Y-58557789D01*
X131572340Y-58559692D01*
X131570256Y-58563001D01*
X131567778Y-58566022D01*
X131566667Y-58568703D01*
X131560852Y-58577941D01*
X131508471Y-58682703D01*
X131500765Y-58702842D01*
X131500484Y-58706783D01*
X131498972Y-58710436D01*
X131496858Y-58731896D01*
X130774001Y-58731896D01*
X130774001Y-58632372D01*
X131187811Y-58632372D01*
X131209271Y-58630258D01*
X131248924Y-58613834D01*
X131279273Y-58583485D01*
X131295697Y-58543832D01*
X131295697Y-58500912D01*
X131279273Y-58461259D01*
X131248924Y-58430910D01*
X131209271Y-58414486D01*
X131187811Y-58412372D01*
X130664001Y-58412372D01*
X130642541Y-58414486D01*
X130602888Y-58430910D01*
X130572539Y-58461259D01*
X130556115Y-58500912D01*
X130554001Y-58522372D01*
X130405221Y-58522372D01*
X130405221Y-58500912D01*
X130388797Y-58461259D01*
X130358448Y-58430910D01*
X130318795Y-58414486D01*
X130297335Y-58412372D01*
X129668763Y-58412372D01*
X129647303Y-58414486D01*
X129607650Y-58430910D01*
X129577301Y-58461259D01*
X129560877Y-58500912D01*
X129409982Y-58500912D01*
X129393558Y-58461259D01*
X129363209Y-58430910D01*
X129323556Y-58414486D01*
X129280636Y-58414486D01*
X129240983Y-58430910D01*
X129210634Y-58461259D01*
X129194210Y-58500912D01*
X129192096Y-58522372D01*
X129069874Y-58522372D01*
X129069874Y-58290150D01*
X133408395Y-58290150D01*
X133408395Y-59854594D01*
G37*
D10*
X124528236Y-73051968D02*
X124528236Y-72861492D01*
X124528236Y-72861492D02*
X124480617Y-72766254D01*
X124480617Y-72766254D02*
X124432998Y-72718635D01*
X124432998Y-72718635D02*
X124290141Y-72623397D01*
X124290141Y-72623397D02*
X124099665Y-72575778D01*
X124099665Y-72575778D02*
X123718713Y-72575778D01*
X123718713Y-72575778D02*
X123623475Y-72623397D01*
X123623475Y-72623397D02*
X123575856Y-72671016D01*
X123575856Y-72671016D02*
X123528236Y-72766254D01*
X123528236Y-72766254D02*
X123528236Y-72956730D01*
X123528236Y-72956730D02*
X123575856Y-73051968D01*
X123575856Y-73051968D02*
X123623475Y-73099587D01*
X123623475Y-73099587D02*
X123718713Y-73147206D01*
X123718713Y-73147206D02*
X123956808Y-73147206D01*
X123956808Y-73147206D02*
X124052046Y-73099587D01*
X124052046Y-73099587D02*
X124099665Y-73051968D01*
X124099665Y-73051968D02*
X124147284Y-72956730D01*
X124147284Y-72956730D02*
X124147284Y-72766254D01*
X124147284Y-72766254D02*
X124099665Y-72671016D01*
X124099665Y-72671016D02*
X124052046Y-72623397D01*
X124052046Y-72623397D02*
X123956808Y-72575778D01*
X123528236Y-85754348D02*
X123528236Y-85182920D01*
X123528236Y-85468634D02*
X124528236Y-85468634D01*
X124528236Y-85468634D02*
X124385379Y-85373396D01*
X124385379Y-85373396D02*
X124290141Y-85278158D01*
X124290141Y-85278158D02*
X124242522Y-85182920D01*
X157474652Y-53799514D02*
X156998462Y-53799514D01*
X156998462Y-53799514D02*
X156998462Y-52799514D01*
X157807986Y-53275704D02*
X158141319Y-53275704D01*
X158284176Y-53799514D02*
X157807986Y-53799514D01*
X157807986Y-53799514D02*
X157807986Y-52799514D01*
X157807986Y-52799514D02*
X158284176Y-52799514D01*
X158712748Y-53799514D02*
X158712748Y-52799514D01*
X158712748Y-52799514D02*
X158950843Y-52799514D01*
X158950843Y-52799514D02*
X159093700Y-52847133D01*
X159093700Y-52847133D02*
X159188938Y-52942371D01*
X159188938Y-52942371D02*
X159236557Y-53037609D01*
X159236557Y-53037609D02*
X159284176Y-53228085D01*
X159284176Y-53228085D02*
X159284176Y-53370942D01*
X159284176Y-53370942D02*
X159236557Y-53561418D01*
X159236557Y-53561418D02*
X159188938Y-53656656D01*
X159188938Y-53656656D02*
X159093700Y-53751895D01*
X159093700Y-53751895D02*
X158950843Y-53799514D01*
X158950843Y-53799514D02*
X158712748Y-53799514D01*
X159474653Y-53894752D02*
X160236557Y-53894752D01*
X160474653Y-53275704D02*
X160807986Y-53275704D01*
X160950843Y-53799514D02*
X160474653Y-53799514D01*
X160474653Y-53799514D02*
X160474653Y-52799514D01*
X160474653Y-52799514D02*
X160950843Y-52799514D01*
X161379415Y-53799514D02*
X161379415Y-52799514D01*
X161379415Y-52799514D02*
X161950843Y-53799514D01*
X161950843Y-53799514D02*
X161950843Y-52799514D01*
X124528236Y-87942444D02*
X124528236Y-88037682D01*
X124528236Y-88037682D02*
X124480617Y-88132920D01*
X124480617Y-88132920D02*
X124432998Y-88180539D01*
X124432998Y-88180539D02*
X124337760Y-88228158D01*
X124337760Y-88228158D02*
X124147284Y-88275777D01*
X124147284Y-88275777D02*
X123909189Y-88275777D01*
X123909189Y-88275777D02*
X123718713Y-88228158D01*
X123718713Y-88228158D02*
X123623475Y-88180539D01*
X123623475Y-88180539D02*
X123575856Y-88132920D01*
X123575856Y-88132920D02*
X123528236Y-88037682D01*
X123528236Y-88037682D02*
X123528236Y-87942444D01*
X123528236Y-87942444D02*
X123575856Y-87847206D01*
X123575856Y-87847206D02*
X123623475Y-87799587D01*
X123623475Y-87799587D02*
X123718713Y-87751968D01*
X123718713Y-87751968D02*
X123909189Y-87704349D01*
X123909189Y-87704349D02*
X124147284Y-87704349D01*
X124147284Y-87704349D02*
X124337760Y-87751968D01*
X124337760Y-87751968D02*
X124432998Y-87799587D01*
X124432998Y-87799587D02*
X124480617Y-87847206D01*
X124480617Y-87847206D02*
X124528236Y-87942444D01*
X121778163Y-55404276D02*
X121682925Y-55356657D01*
X121682925Y-55356657D02*
X121540068Y-55356657D01*
X121540068Y-55356657D02*
X121397211Y-55404276D01*
X121397211Y-55404276D02*
X121301973Y-55499514D01*
X121301973Y-55499514D02*
X121254354Y-55594752D01*
X121254354Y-55594752D02*
X121206735Y-55785228D01*
X121206735Y-55785228D02*
X121206735Y-55928085D01*
X121206735Y-55928085D02*
X121254354Y-56118561D01*
X121254354Y-56118561D02*
X121301973Y-56213799D01*
X121301973Y-56213799D02*
X121397211Y-56309038D01*
X121397211Y-56309038D02*
X121540068Y-56356657D01*
X121540068Y-56356657D02*
X121635306Y-56356657D01*
X121635306Y-56356657D02*
X121778163Y-56309038D01*
X121778163Y-56309038D02*
X121825782Y-56261418D01*
X121825782Y-56261418D02*
X121825782Y-55928085D01*
X121825782Y-55928085D02*
X121635306Y-55928085D01*
X122254354Y-56356657D02*
X122254354Y-55356657D01*
X122254354Y-55356657D02*
X122825782Y-56356657D01*
X122825782Y-56356657D02*
X122825782Y-55356657D01*
X123301973Y-56356657D02*
X123301973Y-55356657D01*
X123301973Y-55356657D02*
X123540068Y-55356657D01*
X123540068Y-55356657D02*
X123682925Y-55404276D01*
X123682925Y-55404276D02*
X123778163Y-55499514D01*
X123778163Y-55499514D02*
X123825782Y-55594752D01*
X123825782Y-55594752D02*
X123873401Y-55785228D01*
X123873401Y-55785228D02*
X123873401Y-55928085D01*
X123873401Y-55928085D02*
X123825782Y-56118561D01*
X123825782Y-56118561D02*
X123778163Y-56213799D01*
X123778163Y-56213799D02*
X123682925Y-56309038D01*
X123682925Y-56309038D02*
X123540068Y-56356657D01*
X123540068Y-56356657D02*
X123301973Y-56356657D01*
X120941319Y-122620943D02*
X120465129Y-122620943D01*
X120465129Y-122620943D02*
X120465129Y-121620943D01*
X121274653Y-122097133D02*
X121607986Y-122097133D01*
X121750843Y-122620943D02*
X121274653Y-122620943D01*
X121274653Y-122620943D02*
X121274653Y-121620943D01*
X121274653Y-121620943D02*
X121750843Y-121620943D01*
X122179415Y-122620943D02*
X122179415Y-121620943D01*
X122179415Y-121620943D02*
X122417510Y-121620943D01*
X122417510Y-121620943D02*
X122560367Y-121668562D01*
X122560367Y-121668562D02*
X122655605Y-121763800D01*
X122655605Y-121763800D02*
X122703224Y-121859038D01*
X122703224Y-121859038D02*
X122750843Y-122049514D01*
X122750843Y-122049514D02*
X122750843Y-122192371D01*
X122750843Y-122192371D02*
X122703224Y-122382847D01*
X122703224Y-122382847D02*
X122655605Y-122478085D01*
X122655605Y-122478085D02*
X122560367Y-122573324D01*
X122560367Y-122573324D02*
X122417510Y-122620943D01*
X122417510Y-122620943D02*
X122179415Y-122620943D01*
X123084177Y-121620943D02*
X123703224Y-121620943D01*
X123703224Y-121620943D02*
X123369891Y-122001895D01*
X123369891Y-122001895D02*
X123512748Y-122001895D01*
X123512748Y-122001895D02*
X123607986Y-122049514D01*
X123607986Y-122049514D02*
X123655605Y-122097133D01*
X123655605Y-122097133D02*
X123703224Y-122192371D01*
X123703224Y-122192371D02*
X123703224Y-122430466D01*
X123703224Y-122430466D02*
X123655605Y-122525704D01*
X123655605Y-122525704D02*
X123607986Y-122573324D01*
X123607986Y-122573324D02*
X123512748Y-122620943D01*
X123512748Y-122620943D02*
X123227034Y-122620943D01*
X123227034Y-122620943D02*
X123131796Y-122573324D01*
X123131796Y-122573324D02*
X123084177Y-122525704D01*
X156998462Y-64028085D02*
X156998462Y-63028085D01*
X156998462Y-63028085D02*
X157236557Y-63028085D01*
X157236557Y-63028085D02*
X157379414Y-63075704D01*
X157379414Y-63075704D02*
X157474652Y-63170942D01*
X157474652Y-63170942D02*
X157522271Y-63266180D01*
X157522271Y-63266180D02*
X157569890Y-63456656D01*
X157569890Y-63456656D02*
X157569890Y-63599513D01*
X157569890Y-63599513D02*
X157522271Y-63789989D01*
X157522271Y-63789989D02*
X157474652Y-63885227D01*
X157474652Y-63885227D02*
X157379414Y-63980466D01*
X157379414Y-63980466D02*
X157236557Y-64028085D01*
X157236557Y-64028085D02*
X156998462Y-64028085D01*
X157998462Y-64028085D02*
X157998462Y-63028085D01*
X158998461Y-63075704D02*
X158903223Y-63028085D01*
X158903223Y-63028085D02*
X158760366Y-63028085D01*
X158760366Y-63028085D02*
X158617509Y-63075704D01*
X158617509Y-63075704D02*
X158522271Y-63170942D01*
X158522271Y-63170942D02*
X158474652Y-63266180D01*
X158474652Y-63266180D02*
X158427033Y-63456656D01*
X158427033Y-63456656D02*
X158427033Y-63599513D01*
X158427033Y-63599513D02*
X158474652Y-63789989D01*
X158474652Y-63789989D02*
X158522271Y-63885227D01*
X158522271Y-63885227D02*
X158617509Y-63980466D01*
X158617509Y-63980466D02*
X158760366Y-64028085D01*
X158760366Y-64028085D02*
X158855604Y-64028085D01*
X158855604Y-64028085D02*
X158998461Y-63980466D01*
X158998461Y-63980466D02*
X159046080Y-63932846D01*
X159046080Y-63932846D02*
X159046080Y-63599513D01*
X159046080Y-63599513D02*
X158855604Y-63599513D01*
X159379414Y-63028085D02*
X159998461Y-63028085D01*
X159998461Y-63028085D02*
X159665128Y-63409037D01*
X159665128Y-63409037D02*
X159807985Y-63409037D01*
X159807985Y-63409037D02*
X159903223Y-63456656D01*
X159903223Y-63456656D02*
X159950842Y-63504275D01*
X159950842Y-63504275D02*
X159998461Y-63599513D01*
X159998461Y-63599513D02*
X159998461Y-63837608D01*
X159998461Y-63837608D02*
X159950842Y-63932846D01*
X159950842Y-63932846D02*
X159903223Y-63980466D01*
X159903223Y-63980466D02*
X159807985Y-64028085D01*
X159807985Y-64028085D02*
X159522271Y-64028085D01*
X159522271Y-64028085D02*
X159427033Y-63980466D01*
X159427033Y-63980466D02*
X159379414Y-63932846D01*
X124528236Y-75621015D02*
X124528236Y-75144825D01*
X124528236Y-75144825D02*
X124052046Y-75097206D01*
X124052046Y-75097206D02*
X124099665Y-75144825D01*
X124099665Y-75144825D02*
X124147284Y-75240063D01*
X124147284Y-75240063D02*
X124147284Y-75478158D01*
X124147284Y-75478158D02*
X124099665Y-75573396D01*
X124099665Y-75573396D02*
X124052046Y-75621015D01*
X124052046Y-75621015D02*
X123956808Y-75668634D01*
X123956808Y-75668634D02*
X123718713Y-75668634D01*
X123718713Y-75668634D02*
X123623475Y-75621015D01*
X123623475Y-75621015D02*
X123575856Y-75573396D01*
X123575856Y-75573396D02*
X123528236Y-75478158D01*
X123528236Y-75478158D02*
X123528236Y-75240063D01*
X123528236Y-75240063D02*
X123575856Y-75144825D01*
X123575856Y-75144825D02*
X123623475Y-75097206D01*
X131307926Y-124774514D02*
X131307926Y-123774514D01*
X131307926Y-123774514D02*
X131641259Y-124488799D01*
X131641259Y-124488799D02*
X131974592Y-123774514D01*
X131974592Y-123774514D02*
X131974592Y-124774514D01*
X132641259Y-123774514D02*
X132831735Y-123774514D01*
X132831735Y-123774514D02*
X132926973Y-123822133D01*
X132926973Y-123822133D02*
X133022211Y-123917371D01*
X133022211Y-123917371D02*
X133069830Y-124107847D01*
X133069830Y-124107847D02*
X133069830Y-124441180D01*
X133069830Y-124441180D02*
X133022211Y-124631656D01*
X133022211Y-124631656D02*
X132926973Y-124726895D01*
X132926973Y-124726895D02*
X132831735Y-124774514D01*
X132831735Y-124774514D02*
X132641259Y-124774514D01*
X132641259Y-124774514D02*
X132546021Y-124726895D01*
X132546021Y-124726895D02*
X132450783Y-124631656D01*
X132450783Y-124631656D02*
X132403164Y-124441180D01*
X132403164Y-124441180D02*
X132403164Y-124107847D01*
X132403164Y-124107847D02*
X132450783Y-123917371D01*
X132450783Y-123917371D02*
X132546021Y-123822133D01*
X132546021Y-123822133D02*
X132641259Y-123774514D01*
X133450783Y-124726895D02*
X133593640Y-124774514D01*
X133593640Y-124774514D02*
X133831735Y-124774514D01*
X133831735Y-124774514D02*
X133926973Y-124726895D01*
X133926973Y-124726895D02*
X133974592Y-124679275D01*
X133974592Y-124679275D02*
X134022211Y-124584037D01*
X134022211Y-124584037D02*
X134022211Y-124488799D01*
X134022211Y-124488799D02*
X133974592Y-124393561D01*
X133974592Y-124393561D02*
X133926973Y-124345942D01*
X133926973Y-124345942D02*
X133831735Y-124298323D01*
X133831735Y-124298323D02*
X133641259Y-124250704D01*
X133641259Y-124250704D02*
X133546021Y-124203085D01*
X133546021Y-124203085D02*
X133498402Y-124155466D01*
X133498402Y-124155466D02*
X133450783Y-124060228D01*
X133450783Y-124060228D02*
X133450783Y-123964990D01*
X133450783Y-123964990D02*
X133498402Y-123869752D01*
X133498402Y-123869752D02*
X133546021Y-123822133D01*
X133546021Y-123822133D02*
X133641259Y-123774514D01*
X133641259Y-123774514D02*
X133879354Y-123774514D01*
X133879354Y-123774514D02*
X134022211Y-123822133D01*
X134450783Y-124774514D02*
X134450783Y-123774514D01*
X120941319Y-130292371D02*
X120465129Y-130292371D01*
X120465129Y-130292371D02*
X120465129Y-129292371D01*
X121274653Y-129768561D02*
X121607986Y-129768561D01*
X121750843Y-130292371D02*
X121274653Y-130292371D01*
X121274653Y-130292371D02*
X121274653Y-129292371D01*
X121274653Y-129292371D02*
X121750843Y-129292371D01*
X122179415Y-130292371D02*
X122179415Y-129292371D01*
X122179415Y-129292371D02*
X122417510Y-129292371D01*
X122417510Y-129292371D02*
X122560367Y-129339990D01*
X122560367Y-129339990D02*
X122655605Y-129435228D01*
X122655605Y-129435228D02*
X122703224Y-129530466D01*
X122703224Y-129530466D02*
X122750843Y-129720942D01*
X122750843Y-129720942D02*
X122750843Y-129863799D01*
X122750843Y-129863799D02*
X122703224Y-130054275D01*
X122703224Y-130054275D02*
X122655605Y-130149513D01*
X122655605Y-130149513D02*
X122560367Y-130244752D01*
X122560367Y-130244752D02*
X122417510Y-130292371D01*
X122417510Y-130292371D02*
X122179415Y-130292371D01*
X123607986Y-129292371D02*
X123417510Y-129292371D01*
X123417510Y-129292371D02*
X123322272Y-129339990D01*
X123322272Y-129339990D02*
X123274653Y-129387609D01*
X123274653Y-129387609D02*
X123179415Y-129530466D01*
X123179415Y-129530466D02*
X123131796Y-129720942D01*
X123131796Y-129720942D02*
X123131796Y-130101894D01*
X123131796Y-130101894D02*
X123179415Y-130197132D01*
X123179415Y-130197132D02*
X123227034Y-130244752D01*
X123227034Y-130244752D02*
X123322272Y-130292371D01*
X123322272Y-130292371D02*
X123512748Y-130292371D01*
X123512748Y-130292371D02*
X123607986Y-130244752D01*
X123607986Y-130244752D02*
X123655605Y-130197132D01*
X123655605Y-130197132D02*
X123703224Y-130101894D01*
X123703224Y-130101894D02*
X123703224Y-129863799D01*
X123703224Y-129863799D02*
X123655605Y-129768561D01*
X123655605Y-129768561D02*
X123607986Y-129720942D01*
X123607986Y-129720942D02*
X123512748Y-129673323D01*
X123512748Y-129673323D02*
X123322272Y-129673323D01*
X123322272Y-129673323D02*
X123227034Y-129720942D01*
X123227034Y-129720942D02*
X123179415Y-129768561D01*
X123179415Y-129768561D02*
X123131796Y-129863799D01*
D11*
X151465636Y-99565628D02*
X151465636Y-98994200D01*
X151465636Y-99279914D02*
X152465636Y-99279914D01*
X152465636Y-99279914D02*
X152322779Y-99184676D01*
X152322779Y-99184676D02*
X152227541Y-99089438D01*
X152227541Y-99089438D02*
X152179922Y-98994200D01*
X152465636Y-100184676D02*
X152465636Y-100279914D01*
X152465636Y-100279914D02*
X152418017Y-100375152D01*
X152418017Y-100375152D02*
X152370398Y-100422771D01*
X152370398Y-100422771D02*
X152275160Y-100470390D01*
X152275160Y-100470390D02*
X152084684Y-100518009D01*
X152084684Y-100518009D02*
X151846589Y-100518009D01*
X151846589Y-100518009D02*
X151656113Y-100470390D01*
X151656113Y-100470390D02*
X151560875Y-100422771D01*
X151560875Y-100422771D02*
X151513256Y-100375152D01*
X151513256Y-100375152D02*
X151465636Y-100279914D01*
X151465636Y-100279914D02*
X151465636Y-100184676D01*
X151465636Y-100184676D02*
X151513256Y-100089438D01*
X151513256Y-100089438D02*
X151560875Y-100041819D01*
X151560875Y-100041819D02*
X151656113Y-99994200D01*
X151656113Y-99994200D02*
X151846589Y-99946581D01*
X151846589Y-99946581D02*
X152084684Y-99946581D01*
X152084684Y-99946581D02*
X152275160Y-99994200D01*
X152275160Y-99994200D02*
X152370398Y-100041819D01*
X152370398Y-100041819D02*
X152418017Y-100089438D01*
X152418017Y-100089438D02*
X152465636Y-100184676D01*
X151465636Y-100946581D02*
X152465636Y-100946581D01*
X151846589Y-101041819D02*
X151465636Y-101327533D01*
X152132303Y-101327533D02*
X151751351Y-100946581D01*
X151465636Y-101708486D02*
X151465636Y-101946581D01*
X151465636Y-101946581D02*
X151656113Y-101946581D01*
X151656113Y-101946581D02*
X151703732Y-101851343D01*
X151703732Y-101851343D02*
X151798970Y-101756105D01*
X151798970Y-101756105D02*
X151941827Y-101708486D01*
X151941827Y-101708486D02*
X152179922Y-101708486D01*
X152179922Y-101708486D02*
X152322779Y-101756105D01*
X152322779Y-101756105D02*
X152418017Y-101851343D01*
X152418017Y-101851343D02*
X152465636Y-101994200D01*
X152465636Y-101994200D02*
X152465636Y-102184676D01*
X152465636Y-102184676D02*
X152418017Y-102327533D01*
X152418017Y-102327533D02*
X152322779Y-102422771D01*
X152322779Y-102422771D02*
X152179922Y-102470390D01*
X152179922Y-102470390D02*
X151941827Y-102470390D01*
X151941827Y-102470390D02*
X151798970Y-102422771D01*
X151798970Y-102422771D02*
X151703732Y-102327533D01*
X151703732Y-102327533D02*
X151656113Y-102232295D01*
X151656113Y-102232295D02*
X151465636Y-102232295D01*
X151465636Y-102232295D02*
X151465636Y-102470390D01*
X130537122Y-92445447D02*
X130537122Y-93112114D01*
X130299027Y-92064495D02*
X130060932Y-92778780D01*
X130060932Y-92778780D02*
X130679979Y-92778780D01*
X130965694Y-92112114D02*
X131632360Y-92112114D01*
X131632360Y-92112114D02*
X131203789Y-93112114D01*
X132203789Y-92112114D02*
X132299027Y-92112114D01*
X132299027Y-92112114D02*
X132394265Y-92159733D01*
X132394265Y-92159733D02*
X132441884Y-92207352D01*
X132441884Y-92207352D02*
X132489503Y-92302590D01*
X132489503Y-92302590D02*
X132537122Y-92493066D01*
X132537122Y-92493066D02*
X132537122Y-92731161D01*
X132537122Y-92731161D02*
X132489503Y-92921637D01*
X132489503Y-92921637D02*
X132441884Y-93016875D01*
X132441884Y-93016875D02*
X132394265Y-93064495D01*
X132394265Y-93064495D02*
X132299027Y-93112114D01*
X132299027Y-93112114D02*
X132203789Y-93112114D01*
X132203789Y-93112114D02*
X132108551Y-93064495D01*
X132108551Y-93064495D02*
X132060932Y-93016875D01*
X132060932Y-93016875D02*
X132013313Y-92921637D01*
X132013313Y-92921637D02*
X131965694Y-92731161D01*
X131965694Y-92731161D02*
X131965694Y-92493066D01*
X131965694Y-92493066D02*
X132013313Y-92302590D01*
X132013313Y-92302590D02*
X132060932Y-92207352D01*
X132060932Y-92207352D02*
X132108551Y-92159733D01*
X132108551Y-92159733D02*
X132203789Y-92112114D01*
X132918075Y-93112114D02*
X133156170Y-93112114D01*
X133156170Y-93112114D02*
X133156170Y-92921637D01*
X133156170Y-92921637D02*
X133060932Y-92874018D01*
X133060932Y-92874018D02*
X132965694Y-92778780D01*
X132965694Y-92778780D02*
X132918075Y-92635923D01*
X132918075Y-92635923D02*
X132918075Y-92397828D01*
X132918075Y-92397828D02*
X132965694Y-92254971D01*
X132965694Y-92254971D02*
X133060932Y-92159733D01*
X133060932Y-92159733D02*
X133203789Y-92112114D01*
X133203789Y-92112114D02*
X133394265Y-92112114D01*
X133394265Y-92112114D02*
X133537122Y-92159733D01*
X133537122Y-92159733D02*
X133632360Y-92254971D01*
X133632360Y-92254971D02*
X133679979Y-92397828D01*
X133679979Y-92397828D02*
X133679979Y-92635923D01*
X133679979Y-92635923D02*
X133632360Y-92778780D01*
X133632360Y-92778780D02*
X133537122Y-92874018D01*
X133537122Y-92874018D02*
X133441884Y-92921637D01*
X133441884Y-92921637D02*
X133441884Y-93112114D01*
X133441884Y-93112114D02*
X133679979Y-93112114D01*
D10*
X156917510Y-122573324D02*
X157060367Y-122620943D01*
X157060367Y-122620943D02*
X157298462Y-122620943D01*
X157298462Y-122620943D02*
X157393700Y-122573324D01*
X157393700Y-122573324D02*
X157441319Y-122525704D01*
X157441319Y-122525704D02*
X157488938Y-122430466D01*
X157488938Y-122430466D02*
X157488938Y-122335228D01*
X157488938Y-122335228D02*
X157441319Y-122239990D01*
X157441319Y-122239990D02*
X157393700Y-122192371D01*
X157393700Y-122192371D02*
X157298462Y-122144752D01*
X157298462Y-122144752D02*
X157107986Y-122097133D01*
X157107986Y-122097133D02*
X157012748Y-122049514D01*
X157012748Y-122049514D02*
X156965129Y-122001895D01*
X156965129Y-122001895D02*
X156917510Y-121906657D01*
X156917510Y-121906657D02*
X156917510Y-121811419D01*
X156917510Y-121811419D02*
X156965129Y-121716181D01*
X156965129Y-121716181D02*
X157012748Y-121668562D01*
X157012748Y-121668562D02*
X157107986Y-121620943D01*
X157107986Y-121620943D02*
X157346081Y-121620943D01*
X157346081Y-121620943D02*
X157488938Y-121668562D01*
X158488938Y-122525704D02*
X158441319Y-122573324D01*
X158441319Y-122573324D02*
X158298462Y-122620943D01*
X158298462Y-122620943D02*
X158203224Y-122620943D01*
X158203224Y-122620943D02*
X158060367Y-122573324D01*
X158060367Y-122573324D02*
X157965129Y-122478085D01*
X157965129Y-122478085D02*
X157917510Y-122382847D01*
X157917510Y-122382847D02*
X157869891Y-122192371D01*
X157869891Y-122192371D02*
X157869891Y-122049514D01*
X157869891Y-122049514D02*
X157917510Y-121859038D01*
X157917510Y-121859038D02*
X157965129Y-121763800D01*
X157965129Y-121763800D02*
X158060367Y-121668562D01*
X158060367Y-121668562D02*
X158203224Y-121620943D01*
X158203224Y-121620943D02*
X158298462Y-121620943D01*
X158298462Y-121620943D02*
X158441319Y-121668562D01*
X158441319Y-121668562D02*
X158488938Y-121716181D01*
X159393700Y-122620943D02*
X158917510Y-122620943D01*
X158917510Y-122620943D02*
X158917510Y-121620943D01*
X159727034Y-122620943D02*
X159727034Y-121620943D01*
X160298462Y-122620943D02*
X159869891Y-122049514D01*
X160298462Y-121620943D02*
X159727034Y-122192371D01*
X156998462Y-56356656D02*
X156998462Y-55356656D01*
X156998462Y-55356656D02*
X157236557Y-55356656D01*
X157236557Y-55356656D02*
X157379414Y-55404275D01*
X157379414Y-55404275D02*
X157474652Y-55499513D01*
X157474652Y-55499513D02*
X157522271Y-55594751D01*
X157522271Y-55594751D02*
X157569890Y-55785227D01*
X157569890Y-55785227D02*
X157569890Y-55928084D01*
X157569890Y-55928084D02*
X157522271Y-56118560D01*
X157522271Y-56118560D02*
X157474652Y-56213798D01*
X157474652Y-56213798D02*
X157379414Y-56309037D01*
X157379414Y-56309037D02*
X157236557Y-56356656D01*
X157236557Y-56356656D02*
X156998462Y-56356656D01*
X157998462Y-56356656D02*
X157998462Y-55356656D01*
X158998461Y-55404275D02*
X158903223Y-55356656D01*
X158903223Y-55356656D02*
X158760366Y-55356656D01*
X158760366Y-55356656D02*
X158617509Y-55404275D01*
X158617509Y-55404275D02*
X158522271Y-55499513D01*
X158522271Y-55499513D02*
X158474652Y-55594751D01*
X158474652Y-55594751D02*
X158427033Y-55785227D01*
X158427033Y-55785227D02*
X158427033Y-55928084D01*
X158427033Y-55928084D02*
X158474652Y-56118560D01*
X158474652Y-56118560D02*
X158522271Y-56213798D01*
X158522271Y-56213798D02*
X158617509Y-56309037D01*
X158617509Y-56309037D02*
X158760366Y-56356656D01*
X158760366Y-56356656D02*
X158855604Y-56356656D01*
X158855604Y-56356656D02*
X158998461Y-56309037D01*
X158998461Y-56309037D02*
X159046080Y-56261417D01*
X159046080Y-56261417D02*
X159046080Y-55928084D01*
X159046080Y-55928084D02*
X158855604Y-55928084D01*
X159665128Y-55356656D02*
X159760366Y-55356656D01*
X159760366Y-55356656D02*
X159855604Y-55404275D01*
X159855604Y-55404275D02*
X159903223Y-55451894D01*
X159903223Y-55451894D02*
X159950842Y-55547132D01*
X159950842Y-55547132D02*
X159998461Y-55737608D01*
X159998461Y-55737608D02*
X159998461Y-55975703D01*
X159998461Y-55975703D02*
X159950842Y-56166179D01*
X159950842Y-56166179D02*
X159903223Y-56261417D01*
X159903223Y-56261417D02*
X159855604Y-56309037D01*
X159855604Y-56309037D02*
X159760366Y-56356656D01*
X159760366Y-56356656D02*
X159665128Y-56356656D01*
X159665128Y-56356656D02*
X159569890Y-56309037D01*
X159569890Y-56309037D02*
X159522271Y-56261417D01*
X159522271Y-56261417D02*
X159474652Y-56166179D01*
X159474652Y-56166179D02*
X159427033Y-55975703D01*
X159427033Y-55975703D02*
X159427033Y-55737608D01*
X159427033Y-55737608D02*
X159474652Y-55547132D01*
X159474652Y-55547132D02*
X159522271Y-55451894D01*
X159522271Y-55451894D02*
X159569890Y-55404275D01*
X159569890Y-55404275D02*
X159665128Y-55356656D01*
D13*
G36*
X124352888Y-58665156D02*
G01*
X124380027Y-58692295D01*
X124412811Y-58757863D01*
X124412811Y-58863072D01*
X124380027Y-58928640D01*
X124352888Y-58955778D01*
X124287320Y-58988563D01*
X124004239Y-58988563D01*
X124004239Y-58632372D01*
X124287320Y-58632372D01*
X124352888Y-58665156D01*
G37*
G36*
X121995745Y-58665156D02*
G01*
X122022884Y-58692295D01*
X122055668Y-58757863D01*
X122055668Y-58863072D01*
X122022884Y-58928640D01*
X121995745Y-58955778D01*
X121930177Y-58988563D01*
X121647096Y-58988563D01*
X121647096Y-58632372D01*
X121930177Y-58632372D01*
X121995745Y-58665156D01*
G37*
G36*
X127740748Y-59854569D02*
G01*
X121304874Y-59854569D01*
X121304874Y-58522372D01*
X121427096Y-58522372D01*
X121427096Y-59622372D01*
X121429210Y-59643832D01*
X121445634Y-59683485D01*
X121475983Y-59713834D01*
X121515636Y-59730258D01*
X121558556Y-59730258D01*
X121598209Y-59713834D01*
X121628558Y-59683485D01*
X121644982Y-59643832D01*
X121647096Y-59622372D01*
X121647096Y-59208563D01*
X121956144Y-59208563D01*
X121977604Y-59206449D01*
X121981256Y-59204936D01*
X121985198Y-59204656D01*
X122005337Y-59196950D01*
X122110099Y-59144569D01*
X122119336Y-59138753D01*
X122122018Y-59137643D01*
X122125038Y-59135164D01*
X122128348Y-59133081D01*
X122130250Y-59130887D01*
X122138688Y-59123964D01*
X122191069Y-59071583D01*
X122197992Y-59063145D01*
X122200186Y-59061243D01*
X122202269Y-59057933D01*
X122204748Y-59054913D01*
X122205858Y-59052231D01*
X122211674Y-59042994D01*
X122264055Y-58938233D01*
X122271761Y-58918093D01*
X122272041Y-58914151D01*
X122273554Y-58910499D01*
X122275668Y-58889039D01*
X122275668Y-58731896D01*
X122273554Y-58710436D01*
X122272041Y-58706783D01*
X122271761Y-58702842D01*
X122264055Y-58682702D01*
X122211674Y-58577941D01*
X122205858Y-58568703D01*
X122204748Y-58566022D01*
X122202269Y-58563001D01*
X122200186Y-58559692D01*
X122197992Y-58557789D01*
X122191069Y-58549352D01*
X122168201Y-58526484D01*
X122422411Y-58526484D01*
X122425325Y-58547850D01*
X122687230Y-59647850D01*
X122689768Y-59655213D01*
X122690119Y-59657855D01*
X122691501Y-59660243D01*
X122694257Y-59668237D01*
X122703619Y-59681174D01*
X122711623Y-59694999D01*
X122716108Y-59698432D01*
X122719419Y-59703007D01*
X122733020Y-59711377D01*
X122745705Y-59721086D01*
X122751162Y-59722541D01*
X122755972Y-59725501D01*
X122771737Y-59728028D01*
X122787176Y-59732145D01*
X122792777Y-59731400D01*
X122798351Y-59732294D01*
X122813878Y-59728597D01*
X122829722Y-59726492D01*
X122834613Y-59723660D01*
X122840104Y-59722353D01*
X122853036Y-59712994D01*
X122866866Y-59704988D01*
X122870299Y-59700501D01*
X122874875Y-59697191D01*
X122883246Y-59683587D01*
X122892953Y-59670906D01*
X122895921Y-59662989D01*
X122897369Y-59660638D01*
X122897790Y-59658005D01*
X122900525Y-59650715D01*
X123003763Y-59263572D01*
X123107001Y-59650715D01*
X123109734Y-59658004D01*
X123110157Y-59660639D01*
X123111605Y-59662992D01*
X123114573Y-59670906D01*
X123124276Y-59683583D01*
X123132651Y-59697192D01*
X123137227Y-59700504D01*
X123140660Y-59704988D01*
X123154482Y-59712990D01*
X123167422Y-59722354D01*
X123172915Y-59723662D01*
X123177804Y-59726492D01*
X123193638Y-59728595D01*
X123209175Y-59732295D01*
X123214751Y-59731401D01*
X123220350Y-59732145D01*
X123235778Y-59728030D01*
X123251554Y-59725502D01*
X123256366Y-59722540D01*
X123261821Y-59721086D01*
X123274498Y-59711382D01*
X123288107Y-59703008D01*
X123291419Y-59698431D01*
X123295903Y-59694999D01*
X123303905Y-59681176D01*
X123313269Y-59668237D01*
X123316024Y-59660243D01*
X123317407Y-59657855D01*
X123317757Y-59655213D01*
X123320296Y-59647850D01*
X123582201Y-58547851D01*
X123585115Y-58526485D01*
X123584456Y-58522372D01*
X123784239Y-58522372D01*
X123784239Y-59622372D01*
X123786353Y-59643832D01*
X123802777Y-59683485D01*
X123833126Y-59713834D01*
X123872779Y-59730258D01*
X123915699Y-59730258D01*
X123955352Y-59713834D01*
X123985701Y-59683485D01*
X124002125Y-59643832D01*
X124004239Y-59622372D01*
X124004239Y-59208563D01*
X124098872Y-59208563D01*
X124432696Y-59685453D01*
X124446734Y-59701822D01*
X124482929Y-59724888D01*
X124525196Y-59732347D01*
X124567099Y-59723062D01*
X124602260Y-59698449D01*
X124625327Y-59662255D01*
X124632786Y-59619988D01*
X124623501Y-59578084D01*
X124612927Y-59559291D01*
X124359961Y-59197913D01*
X124362480Y-59196950D01*
X124392650Y-59181865D01*
X124886353Y-59181865D01*
X124886353Y-59224785D01*
X124902777Y-59264438D01*
X124933126Y-59294787D01*
X124972779Y-59311211D01*
X124994239Y-59313325D01*
X125832335Y-59313325D01*
X125853795Y-59311211D01*
X125893448Y-59294787D01*
X125923797Y-59264438D01*
X125940221Y-59224785D01*
X125940221Y-59181865D01*
X125923797Y-59142212D01*
X125893448Y-59111863D01*
X125853795Y-59095439D01*
X125832335Y-59093325D01*
X124994239Y-59093325D01*
X124972779Y-59095439D01*
X124933126Y-59111863D01*
X124902777Y-59142212D01*
X124886353Y-59181865D01*
X124392650Y-59181865D01*
X124467242Y-59144569D01*
X124476479Y-59138753D01*
X124479161Y-59137643D01*
X124482181Y-59135164D01*
X124485491Y-59133081D01*
X124487393Y-59130887D01*
X124495831Y-59123964D01*
X124548212Y-59071583D01*
X124555135Y-59063145D01*
X124557329Y-59061243D01*
X124559412Y-59057933D01*
X124561891Y-59054913D01*
X124563001Y-59052231D01*
X124568817Y-59042994D01*
X124621198Y-58938233D01*
X124628904Y-58918093D01*
X124629184Y-58914151D01*
X124630697Y-58910499D01*
X124632811Y-58889039D01*
X124632811Y-58731896D01*
X124630697Y-58710436D01*
X124629184Y-58706783D01*
X124628904Y-58702842D01*
X124621198Y-58682702D01*
X124568817Y-58577941D01*
X124563001Y-58568703D01*
X124561891Y-58566022D01*
X124559412Y-58563001D01*
X124557329Y-58559692D01*
X124555135Y-58557789D01*
X124548212Y-58549352D01*
X124521232Y-58522372D01*
X126246144Y-58522372D01*
X126246144Y-59622372D01*
X126248258Y-59643832D01*
X126264682Y-59683485D01*
X126295031Y-59713834D01*
X126334684Y-59730258D01*
X126377604Y-59730258D01*
X126417257Y-59713834D01*
X126447606Y-59683485D01*
X126464030Y-59643832D01*
X126466144Y-59622372D01*
X126466144Y-58522372D01*
X126769954Y-58522372D01*
X126769954Y-59622372D01*
X126772068Y-59643832D01*
X126788492Y-59683485D01*
X126818841Y-59713834D01*
X126858494Y-59730258D01*
X126901414Y-59730258D01*
X126941067Y-59713834D01*
X126971416Y-59683485D01*
X126987840Y-59643832D01*
X126989954Y-59622372D01*
X126989954Y-58936583D01*
X127413020Y-59676948D01*
X127416228Y-59681467D01*
X127417064Y-59683485D01*
X127419120Y-59685541D01*
X127425502Y-59694531D01*
X127437064Y-59703485D01*
X127447413Y-59713834D01*
X127453892Y-59716517D01*
X127459436Y-59720811D01*
X127473554Y-59724661D01*
X127487066Y-59730258D01*
X127494074Y-59730258D01*
X127500843Y-59732104D01*
X127515363Y-59730258D01*
X127529986Y-59730258D01*
X127536462Y-59727575D01*
X127543420Y-59726691D01*
X127556123Y-59719432D01*
X127569639Y-59713834D01*
X127574597Y-59708875D01*
X127580685Y-59705397D01*
X127589642Y-59693830D01*
X127599988Y-59683485D01*
X127602670Y-59677007D01*
X127606965Y-59671463D01*
X127610815Y-59657342D01*
X127616412Y-59643832D01*
X127617492Y-59632860D01*
X127618258Y-59630055D01*
X127617982Y-59627888D01*
X127618526Y-59622372D01*
X127618526Y-58522372D01*
X127616412Y-58500912D01*
X127599988Y-58461259D01*
X127569639Y-58430910D01*
X127529986Y-58414486D01*
X127487066Y-58414486D01*
X127447413Y-58430910D01*
X127417064Y-58461259D01*
X127400640Y-58500912D01*
X127398526Y-58522372D01*
X127398526Y-59208160D01*
X126975461Y-58467797D01*
X126972251Y-58463275D01*
X126971416Y-58461259D01*
X126969360Y-58459203D01*
X126962978Y-58450213D01*
X126951414Y-58441257D01*
X126941067Y-58430910D01*
X126934589Y-58428227D01*
X126929045Y-58423933D01*
X126914924Y-58420082D01*
X126901414Y-58414486D01*
X126894406Y-58414486D01*
X126887637Y-58412640D01*
X126873120Y-58414486D01*
X126858494Y-58414486D01*
X126852014Y-58417169D01*
X126845060Y-58418054D01*
X126832363Y-58425309D01*
X126818841Y-58430910D01*
X126813880Y-58435870D01*
X126807795Y-58439348D01*
X126798839Y-58450911D01*
X126788492Y-58461259D01*
X126785809Y-58467736D01*
X126781515Y-58473281D01*
X126777664Y-58487401D01*
X126772068Y-58500912D01*
X126770987Y-58511883D01*
X126770222Y-58514689D01*
X126770497Y-58516855D01*
X126769954Y-58522372D01*
X126466144Y-58522372D01*
X126464030Y-58500912D01*
X126447606Y-58461259D01*
X126417257Y-58430910D01*
X126377604Y-58414486D01*
X126334684Y-58414486D01*
X126295031Y-58430910D01*
X126264682Y-58461259D01*
X126248258Y-58500912D01*
X126246144Y-58522372D01*
X124521232Y-58522372D01*
X124495831Y-58496971D01*
X124487393Y-58490047D01*
X124485491Y-58487854D01*
X124482181Y-58485770D01*
X124479161Y-58483292D01*
X124476479Y-58482181D01*
X124467242Y-58476366D01*
X124362480Y-58423985D01*
X124342341Y-58416279D01*
X124338399Y-58415998D01*
X124334747Y-58414486D01*
X124313287Y-58412372D01*
X123894239Y-58412372D01*
X123872779Y-58414486D01*
X123833126Y-58430910D01*
X123802777Y-58461259D01*
X123786353Y-58500912D01*
X123784239Y-58522372D01*
X123584456Y-58522372D01*
X123578322Y-58484106D01*
X123555828Y-58447553D01*
X123521057Y-58422391D01*
X123479304Y-58412450D01*
X123436925Y-58419243D01*
X123400372Y-58441737D01*
X123375210Y-58476507D01*
X123368183Y-58496894D01*
X123207249Y-59172815D01*
X123110049Y-58808315D01*
X123108163Y-58803287D01*
X123107883Y-58801175D01*
X123106430Y-58798665D01*
X123102477Y-58788124D01*
X123093653Y-58776596D01*
X123086379Y-58764031D01*
X123080720Y-58759700D01*
X123076390Y-58754042D01*
X123063824Y-58746767D01*
X123052297Y-58737944D01*
X123045412Y-58736108D01*
X123039246Y-58732538D01*
X123024853Y-58730625D01*
X123010826Y-58726885D01*
X123003763Y-58727823D01*
X122996700Y-58726885D01*
X122982672Y-58730625D01*
X122968280Y-58732538D01*
X122962113Y-58736108D01*
X122955229Y-58737944D01*
X122943701Y-58746767D01*
X122931136Y-58754042D01*
X122926805Y-58759700D01*
X122921147Y-58764031D01*
X122913872Y-58776596D01*
X122905049Y-58788124D01*
X122901095Y-58798665D01*
X122899643Y-58801175D01*
X122899362Y-58803287D01*
X122897477Y-58808315D01*
X122800276Y-59172815D01*
X122639343Y-58496894D01*
X122632316Y-58476507D01*
X122607154Y-58441736D01*
X122570601Y-58419242D01*
X122528222Y-58412449D01*
X122486469Y-58422390D01*
X122451698Y-58447552D01*
X122429204Y-58484105D01*
X122422411Y-58526484D01*
X122168201Y-58526484D01*
X122138688Y-58496971D01*
X122130250Y-58490047D01*
X122128348Y-58487854D01*
X122125038Y-58485770D01*
X122122018Y-58483292D01*
X122119336Y-58482181D01*
X122110099Y-58476366D01*
X122005337Y-58423985D01*
X121985198Y-58416279D01*
X121981256Y-58415998D01*
X121977604Y-58414486D01*
X121956144Y-58412372D01*
X121537096Y-58412372D01*
X121515636Y-58414486D01*
X121475983Y-58430910D01*
X121445634Y-58461259D01*
X121429210Y-58500912D01*
X121427096Y-58522372D01*
X121304874Y-58522372D01*
X121304874Y-58290150D01*
X127740748Y-58290150D01*
X127740748Y-59854569D01*
G37*
D11*
X119587122Y-87885447D02*
X119587122Y-88552114D01*
X119349027Y-87504495D02*
X119110932Y-88218780D01*
X119110932Y-88218780D02*
X119729979Y-88218780D01*
X120015694Y-87552114D02*
X120682360Y-87552114D01*
X120682360Y-87552114D02*
X120253789Y-88552114D01*
X121253789Y-87552114D02*
X121349027Y-87552114D01*
X121349027Y-87552114D02*
X121444265Y-87599733D01*
X121444265Y-87599733D02*
X121491884Y-87647352D01*
X121491884Y-87647352D02*
X121539503Y-87742590D01*
X121539503Y-87742590D02*
X121587122Y-87933066D01*
X121587122Y-87933066D02*
X121587122Y-88171161D01*
X121587122Y-88171161D02*
X121539503Y-88361637D01*
X121539503Y-88361637D02*
X121491884Y-88456875D01*
X121491884Y-88456875D02*
X121444265Y-88504495D01*
X121444265Y-88504495D02*
X121349027Y-88552114D01*
X121349027Y-88552114D02*
X121253789Y-88552114D01*
X121253789Y-88552114D02*
X121158551Y-88504495D01*
X121158551Y-88504495D02*
X121110932Y-88456875D01*
X121110932Y-88456875D02*
X121063313Y-88361637D01*
X121063313Y-88361637D02*
X121015694Y-88171161D01*
X121015694Y-88171161D02*
X121015694Y-87933066D01*
X121015694Y-87933066D02*
X121063313Y-87742590D01*
X121063313Y-87742590D02*
X121110932Y-87647352D01*
X121110932Y-87647352D02*
X121158551Y-87599733D01*
X121158551Y-87599733D02*
X121253789Y-87552114D01*
X121968075Y-88552114D02*
X122206170Y-88552114D01*
X122206170Y-88552114D02*
X122206170Y-88361637D01*
X122206170Y-88361637D02*
X122110932Y-88314018D01*
X122110932Y-88314018D02*
X122015694Y-88218780D01*
X122015694Y-88218780D02*
X121968075Y-88075923D01*
X121968075Y-88075923D02*
X121968075Y-87837828D01*
X121968075Y-87837828D02*
X122015694Y-87694971D01*
X122015694Y-87694971D02*
X122110932Y-87599733D01*
X122110932Y-87599733D02*
X122253789Y-87552114D01*
X122253789Y-87552114D02*
X122444265Y-87552114D01*
X122444265Y-87552114D02*
X122587122Y-87599733D01*
X122587122Y-87599733D02*
X122682360Y-87694971D01*
X122682360Y-87694971D02*
X122729979Y-87837828D01*
X122729979Y-87837828D02*
X122729979Y-88075923D01*
X122729979Y-88075923D02*
X122682360Y-88218780D01*
X122682360Y-88218780D02*
X122587122Y-88314018D01*
X122587122Y-88314018D02*
X122491884Y-88361637D01*
X122491884Y-88361637D02*
X122491884Y-88552114D01*
X122491884Y-88552114D02*
X122729979Y-88552114D01*
D14*
X153886936Y-97418760D02*
X153829793Y-97590189D01*
X153829793Y-97590189D02*
X153829793Y-97875903D01*
X153829793Y-97875903D02*
X153886936Y-97990189D01*
X153886936Y-97990189D02*
X153944078Y-98047331D01*
X153944078Y-98047331D02*
X154058364Y-98104474D01*
X154058364Y-98104474D02*
X154172650Y-98104474D01*
X154172650Y-98104474D02*
X154286936Y-98047331D01*
X154286936Y-98047331D02*
X154344078Y-97990189D01*
X154344078Y-97990189D02*
X154401221Y-97875903D01*
X154401221Y-97875903D02*
X154458364Y-97647331D01*
X154458364Y-97647331D02*
X154515507Y-97533046D01*
X154515507Y-97533046D02*
X154572650Y-97475903D01*
X154572650Y-97475903D02*
X154686936Y-97418760D01*
X154686936Y-97418760D02*
X154801221Y-97418760D01*
X154801221Y-97418760D02*
X154915507Y-97475903D01*
X154915507Y-97475903D02*
X154972650Y-97533046D01*
X154972650Y-97533046D02*
X155029793Y-97647331D01*
X155029793Y-97647331D02*
X155029793Y-97933046D01*
X155029793Y-97933046D02*
X154972650Y-98104474D01*
X153829793Y-98618760D02*
X155029793Y-98618760D01*
X155029793Y-98618760D02*
X155029793Y-99075903D01*
X155029793Y-99075903D02*
X154972650Y-99190188D01*
X154972650Y-99190188D02*
X154915507Y-99247331D01*
X154915507Y-99247331D02*
X154801221Y-99304474D01*
X154801221Y-99304474D02*
X154629793Y-99304474D01*
X154629793Y-99304474D02*
X154515507Y-99247331D01*
X154515507Y-99247331D02*
X154458364Y-99190188D01*
X154458364Y-99190188D02*
X154401221Y-99075903D01*
X154401221Y-99075903D02*
X154401221Y-98618760D01*
X153829793Y-99818760D02*
X155029793Y-99818760D01*
X154286936Y-100390189D02*
X154286936Y-101304475D01*
X154058364Y-101075903D02*
X154286936Y-101304475D01*
X154286936Y-101304475D02*
X154515507Y-101075903D01*
X154515507Y-100618760D02*
X154286936Y-100390189D01*
X154286936Y-100390189D02*
X154058364Y-100618760D01*
X154458364Y-102275903D02*
X154401221Y-102447331D01*
X154401221Y-102447331D02*
X154344078Y-102504474D01*
X154344078Y-102504474D02*
X154229793Y-102561617D01*
X154229793Y-102561617D02*
X154058364Y-102561617D01*
X154058364Y-102561617D02*
X153944078Y-102504474D01*
X153944078Y-102504474D02*
X153886936Y-102447331D01*
X153886936Y-102447331D02*
X153829793Y-102333046D01*
X153829793Y-102333046D02*
X153829793Y-101875903D01*
X153829793Y-101875903D02*
X155029793Y-101875903D01*
X155029793Y-101875903D02*
X155029793Y-102275903D01*
X155029793Y-102275903D02*
X154972650Y-102390189D01*
X154972650Y-102390189D02*
X154915507Y-102447331D01*
X154915507Y-102447331D02*
X154801221Y-102504474D01*
X154801221Y-102504474D02*
X154686936Y-102504474D01*
X154686936Y-102504474D02*
X154572650Y-102447331D01*
X154572650Y-102447331D02*
X154515507Y-102390189D01*
X154515507Y-102390189D02*
X154458364Y-102275903D01*
X154458364Y-102275903D02*
X154458364Y-101875903D01*
X155029793Y-103075903D02*
X154058364Y-103075903D01*
X154058364Y-103075903D02*
X153944078Y-103133046D01*
X153944078Y-103133046D02*
X153886936Y-103190189D01*
X153886936Y-103190189D02*
X153829793Y-103304474D01*
X153829793Y-103304474D02*
X153829793Y-103533046D01*
X153829793Y-103533046D02*
X153886936Y-103647331D01*
X153886936Y-103647331D02*
X153944078Y-103704474D01*
X153944078Y-103704474D02*
X154058364Y-103761617D01*
X154058364Y-103761617D02*
X155029793Y-103761617D01*
X154458364Y-104733046D02*
X154458364Y-104333046D01*
X153829793Y-104333046D02*
X155029793Y-104333046D01*
X155029793Y-104333046D02*
X155029793Y-104904474D01*
D11*
X145528551Y-113272114D02*
X146195217Y-113272114D01*
X146195217Y-113272114D02*
X145766646Y-114272114D01*
X147004741Y-113605447D02*
X147004741Y-114272114D01*
X146766646Y-113224495D02*
X146528551Y-113938780D01*
X146528551Y-113938780D02*
X147147598Y-113938780D01*
X147528551Y-114272114D02*
X147528551Y-113272114D01*
X147528551Y-113748304D02*
X148099979Y-113748304D01*
X148099979Y-114272114D02*
X148099979Y-113272114D01*
X149147598Y-114176875D02*
X149099979Y-114224495D01*
X149099979Y-114224495D02*
X148957122Y-114272114D01*
X148957122Y-114272114D02*
X148861884Y-114272114D01*
X148861884Y-114272114D02*
X148719027Y-114224495D01*
X148719027Y-114224495D02*
X148623789Y-114129256D01*
X148623789Y-114129256D02*
X148576170Y-114034018D01*
X148576170Y-114034018D02*
X148528551Y-113843542D01*
X148528551Y-113843542D02*
X148528551Y-113700685D01*
X148528551Y-113700685D02*
X148576170Y-113510209D01*
X148576170Y-113510209D02*
X148623789Y-113414971D01*
X148623789Y-113414971D02*
X148719027Y-113319733D01*
X148719027Y-113319733D02*
X148861884Y-113272114D01*
X148861884Y-113272114D02*
X148957122Y-113272114D01*
X148957122Y-113272114D02*
X149099979Y-113319733D01*
X149099979Y-113319733D02*
X149147598Y-113367352D01*
X150052360Y-113272114D02*
X149576170Y-113272114D01*
X149576170Y-113272114D02*
X149528551Y-113748304D01*
X149528551Y-113748304D02*
X149576170Y-113700685D01*
X149576170Y-113700685D02*
X149671408Y-113653066D01*
X149671408Y-113653066D02*
X149909503Y-113653066D01*
X149909503Y-113653066D02*
X150004741Y-113700685D01*
X150004741Y-113700685D02*
X150052360Y-113748304D01*
X150052360Y-113748304D02*
X150099979Y-113843542D01*
X150099979Y-113843542D02*
X150099979Y-114081637D01*
X150099979Y-114081637D02*
X150052360Y-114176875D01*
X150052360Y-114176875D02*
X150004741Y-114224495D01*
X150004741Y-114224495D02*
X149909503Y-114272114D01*
X149909503Y-114272114D02*
X149671408Y-114272114D01*
X149671408Y-114272114D02*
X149576170Y-114224495D01*
X149576170Y-114224495D02*
X149528551Y-114176875D01*
X150576170Y-114272114D02*
X150766646Y-114272114D01*
X150766646Y-114272114D02*
X150861884Y-114224495D01*
X150861884Y-114224495D02*
X150909503Y-114176875D01*
X150909503Y-114176875D02*
X151004741Y-114034018D01*
X151004741Y-114034018D02*
X151052360Y-113843542D01*
X151052360Y-113843542D02*
X151052360Y-113462590D01*
X151052360Y-113462590D02*
X151004741Y-113367352D01*
X151004741Y-113367352D02*
X150957122Y-113319733D01*
X150957122Y-113319733D02*
X150861884Y-113272114D01*
X150861884Y-113272114D02*
X150671408Y-113272114D01*
X150671408Y-113272114D02*
X150576170Y-113319733D01*
X150576170Y-113319733D02*
X150528551Y-113367352D01*
X150528551Y-113367352D02*
X150480932Y-113462590D01*
X150480932Y-113462590D02*
X150480932Y-113700685D01*
X150480932Y-113700685D02*
X150528551Y-113795923D01*
X150528551Y-113795923D02*
X150576170Y-113843542D01*
X150576170Y-113843542D02*
X150671408Y-113891161D01*
X150671408Y-113891161D02*
X150861884Y-113891161D01*
X150861884Y-113891161D02*
X150957122Y-113843542D01*
X150957122Y-113843542D02*
X151004741Y-113795923D01*
X151004741Y-113795923D02*
X151052360Y-113700685D01*
X151957122Y-113272114D02*
X151480932Y-113272114D01*
X151480932Y-113272114D02*
X151433313Y-113748304D01*
X151433313Y-113748304D02*
X151480932Y-113700685D01*
X151480932Y-113700685D02*
X151576170Y-113653066D01*
X151576170Y-113653066D02*
X151814265Y-113653066D01*
X151814265Y-113653066D02*
X151909503Y-113700685D01*
X151909503Y-113700685D02*
X151957122Y-113748304D01*
X151957122Y-113748304D02*
X152004741Y-113843542D01*
X152004741Y-113843542D02*
X152004741Y-114081637D01*
X152004741Y-114081637D02*
X151957122Y-114176875D01*
X151957122Y-114176875D02*
X151909503Y-114224495D01*
X151909503Y-114224495D02*
X151814265Y-114272114D01*
X151814265Y-114272114D02*
X151576170Y-114272114D01*
X151576170Y-114272114D02*
X151480932Y-114224495D01*
X151480932Y-114224495D02*
X151433313Y-114176875D01*
D10*
X120941319Y-125178085D02*
X120465129Y-125178085D01*
X120465129Y-125178085D02*
X120465129Y-124178085D01*
X121274653Y-124654275D02*
X121607986Y-124654275D01*
X121750843Y-125178085D02*
X121274653Y-125178085D01*
X121274653Y-125178085D02*
X121274653Y-124178085D01*
X121274653Y-124178085D02*
X121750843Y-124178085D01*
X122179415Y-125178085D02*
X122179415Y-124178085D01*
X122179415Y-124178085D02*
X122417510Y-124178085D01*
X122417510Y-124178085D02*
X122560367Y-124225704D01*
X122560367Y-124225704D02*
X122655605Y-124320942D01*
X122655605Y-124320942D02*
X122703224Y-124416180D01*
X122703224Y-124416180D02*
X122750843Y-124606656D01*
X122750843Y-124606656D02*
X122750843Y-124749513D01*
X122750843Y-124749513D02*
X122703224Y-124939989D01*
X122703224Y-124939989D02*
X122655605Y-125035227D01*
X122655605Y-125035227D02*
X122560367Y-125130466D01*
X122560367Y-125130466D02*
X122417510Y-125178085D01*
X122417510Y-125178085D02*
X122179415Y-125178085D01*
X123607986Y-124511418D02*
X123607986Y-125178085D01*
X123369891Y-124130466D02*
X123131796Y-124844751D01*
X123131796Y-124844751D02*
X123750843Y-124844751D01*
X124432998Y-82661492D02*
X124480617Y-82709111D01*
X124480617Y-82709111D02*
X124528236Y-82804349D01*
X124528236Y-82804349D02*
X124528236Y-83042444D01*
X124528236Y-83042444D02*
X124480617Y-83137682D01*
X124480617Y-83137682D02*
X124432998Y-83185301D01*
X124432998Y-83185301D02*
X124337760Y-83232920D01*
X124337760Y-83232920D02*
X124242522Y-83232920D01*
X124242522Y-83232920D02*
X124099665Y-83185301D01*
X124099665Y-83185301D02*
X123528236Y-82613873D01*
X123528236Y-82613873D02*
X123528236Y-83232920D01*
X124194903Y-78094825D02*
X123528236Y-78094825D01*
X124575856Y-77856730D02*
X123861570Y-77618635D01*
X123861570Y-77618635D02*
X123861570Y-78237682D01*
X151353236Y-71943635D02*
X152353236Y-71943635D01*
X152353236Y-71943635D02*
X152353236Y-72181730D01*
X152353236Y-72181730D02*
X152305617Y-72324587D01*
X152305617Y-72324587D02*
X152210379Y-72419825D01*
X152210379Y-72419825D02*
X152115141Y-72467444D01*
X152115141Y-72467444D02*
X151924665Y-72515063D01*
X151924665Y-72515063D02*
X151781808Y-72515063D01*
X151781808Y-72515063D02*
X151591332Y-72467444D01*
X151591332Y-72467444D02*
X151496094Y-72419825D01*
X151496094Y-72419825D02*
X151400856Y-72324587D01*
X151400856Y-72324587D02*
X151353236Y-72181730D01*
X151353236Y-72181730D02*
X151353236Y-71943635D01*
X151353236Y-73467444D02*
X151353236Y-72896016D01*
X151353236Y-73181730D02*
X152353236Y-73181730D01*
X152353236Y-73181730D02*
X152210379Y-73086492D01*
X152210379Y-73086492D02*
X152115141Y-72991254D01*
X152115141Y-72991254D02*
X152067522Y-72896016D01*
X157536557Y-130197132D02*
X157488938Y-130244752D01*
X157488938Y-130244752D02*
X157346081Y-130292371D01*
X157346081Y-130292371D02*
X157250843Y-130292371D01*
X157250843Y-130292371D02*
X157107986Y-130244752D01*
X157107986Y-130244752D02*
X157012748Y-130149513D01*
X157012748Y-130149513D02*
X156965129Y-130054275D01*
X156965129Y-130054275D02*
X156917510Y-129863799D01*
X156917510Y-129863799D02*
X156917510Y-129720942D01*
X156917510Y-129720942D02*
X156965129Y-129530466D01*
X156965129Y-129530466D02*
X157012748Y-129435228D01*
X157012748Y-129435228D02*
X157107986Y-129339990D01*
X157107986Y-129339990D02*
X157250843Y-129292371D01*
X157250843Y-129292371D02*
X157346081Y-129292371D01*
X157346081Y-129292371D02*
X157488938Y-129339990D01*
X157488938Y-129339990D02*
X157536557Y-129387609D01*
X157917510Y-130244752D02*
X158060367Y-130292371D01*
X158060367Y-130292371D02*
X158298462Y-130292371D01*
X158298462Y-130292371D02*
X158393700Y-130244752D01*
X158393700Y-130244752D02*
X158441319Y-130197132D01*
X158441319Y-130197132D02*
X158488938Y-130101894D01*
X158488938Y-130101894D02*
X158488938Y-130006656D01*
X158488938Y-130006656D02*
X158441319Y-129911418D01*
X158441319Y-129911418D02*
X158393700Y-129863799D01*
X158393700Y-129863799D02*
X158298462Y-129816180D01*
X158298462Y-129816180D02*
X158107986Y-129768561D01*
X158107986Y-129768561D02*
X158012748Y-129720942D01*
X158012748Y-129720942D02*
X157965129Y-129673323D01*
X157965129Y-129673323D02*
X157917510Y-129578085D01*
X157917510Y-129578085D02*
X157917510Y-129482847D01*
X157917510Y-129482847D02*
X157965129Y-129387609D01*
X157965129Y-129387609D02*
X158012748Y-129339990D01*
X158012748Y-129339990D02*
X158107986Y-129292371D01*
X158107986Y-129292371D02*
X158346081Y-129292371D01*
X158346081Y-129292371D02*
X158488938Y-129339990D01*
X159107986Y-129292371D02*
X159203224Y-129292371D01*
X159203224Y-129292371D02*
X159298462Y-129339990D01*
X159298462Y-129339990D02*
X159346081Y-129387609D01*
X159346081Y-129387609D02*
X159393700Y-129482847D01*
X159393700Y-129482847D02*
X159441319Y-129673323D01*
X159441319Y-129673323D02*
X159441319Y-129911418D01*
X159441319Y-129911418D02*
X159393700Y-130101894D01*
X159393700Y-130101894D02*
X159346081Y-130197132D01*
X159346081Y-130197132D02*
X159298462Y-130244752D01*
X159298462Y-130244752D02*
X159203224Y-130292371D01*
X159203224Y-130292371D02*
X159107986Y-130292371D01*
X159107986Y-130292371D02*
X159012748Y-130244752D01*
X159012748Y-130244752D02*
X158965129Y-130197132D01*
X158965129Y-130197132D02*
X158917510Y-130101894D01*
X158917510Y-130101894D02*
X158869891Y-129911418D01*
X158869891Y-129911418D02*
X158869891Y-129673323D01*
X158869891Y-129673323D02*
X158917510Y-129482847D01*
X158917510Y-129482847D02*
X158965129Y-129387609D01*
X158965129Y-129387609D02*
X159012748Y-129339990D01*
X159012748Y-129339990D02*
X159107986Y-129292371D01*
X157536557Y-132754275D02*
X157488938Y-132801895D01*
X157488938Y-132801895D02*
X157346081Y-132849514D01*
X157346081Y-132849514D02*
X157250843Y-132849514D01*
X157250843Y-132849514D02*
X157107986Y-132801895D01*
X157107986Y-132801895D02*
X157012748Y-132706656D01*
X157012748Y-132706656D02*
X156965129Y-132611418D01*
X156965129Y-132611418D02*
X156917510Y-132420942D01*
X156917510Y-132420942D02*
X156917510Y-132278085D01*
X156917510Y-132278085D02*
X156965129Y-132087609D01*
X156965129Y-132087609D02*
X157012748Y-131992371D01*
X157012748Y-131992371D02*
X157107986Y-131897133D01*
X157107986Y-131897133D02*
X157250843Y-131849514D01*
X157250843Y-131849514D02*
X157346081Y-131849514D01*
X157346081Y-131849514D02*
X157488938Y-131897133D01*
X157488938Y-131897133D02*
X157536557Y-131944752D01*
X157917510Y-132801895D02*
X158060367Y-132849514D01*
X158060367Y-132849514D02*
X158298462Y-132849514D01*
X158298462Y-132849514D02*
X158393700Y-132801895D01*
X158393700Y-132801895D02*
X158441319Y-132754275D01*
X158441319Y-132754275D02*
X158488938Y-132659037D01*
X158488938Y-132659037D02*
X158488938Y-132563799D01*
X158488938Y-132563799D02*
X158441319Y-132468561D01*
X158441319Y-132468561D02*
X158393700Y-132420942D01*
X158393700Y-132420942D02*
X158298462Y-132373323D01*
X158298462Y-132373323D02*
X158107986Y-132325704D01*
X158107986Y-132325704D02*
X158012748Y-132278085D01*
X158012748Y-132278085D02*
X157965129Y-132230466D01*
X157965129Y-132230466D02*
X157917510Y-132135228D01*
X157917510Y-132135228D02*
X157917510Y-132039990D01*
X157917510Y-132039990D02*
X157965129Y-131944752D01*
X157965129Y-131944752D02*
X158012748Y-131897133D01*
X158012748Y-131897133D02*
X158107986Y-131849514D01*
X158107986Y-131849514D02*
X158346081Y-131849514D01*
X158346081Y-131849514D02*
X158488938Y-131897133D01*
X159441319Y-132849514D02*
X158869891Y-132849514D01*
X159155605Y-132849514D02*
X159155605Y-131849514D01*
X159155605Y-131849514D02*
X159060367Y-131992371D01*
X159060367Y-131992371D02*
X158965129Y-132087609D01*
X158965129Y-132087609D02*
X158869891Y-132135228D01*
D11*
X135160875Y-111878724D02*
X135113256Y-111926343D01*
X135113256Y-111926343D02*
X135065636Y-111878724D01*
X135065636Y-111878724D02*
X135113256Y-111831105D01*
X135113256Y-111831105D02*
X135160875Y-111878724D01*
X135160875Y-111878724D02*
X135065636Y-111878724D01*
X135065636Y-112878723D02*
X135065636Y-112307295D01*
X135065636Y-112593009D02*
X136065636Y-112593009D01*
X136065636Y-112593009D02*
X135922779Y-112497771D01*
X135922779Y-112497771D02*
X135827541Y-112402533D01*
X135827541Y-112402533D02*
X135779922Y-112307295D01*
X135732303Y-113307295D02*
X134732303Y-113307295D01*
X135208494Y-113783485D02*
X135113256Y-113831104D01*
X135113256Y-113831104D02*
X135065636Y-113926342D01*
X135208494Y-113307295D02*
X135113256Y-113354914D01*
X135113256Y-113354914D02*
X135065636Y-113450152D01*
X135065636Y-113450152D02*
X135065636Y-113640628D01*
X135065636Y-113640628D02*
X135113256Y-113735866D01*
X135113256Y-113735866D02*
X135208494Y-113783485D01*
X135208494Y-113783485D02*
X135732303Y-113783485D01*
X135589446Y-114688247D02*
X135589446Y-114354914D01*
X135065636Y-114354914D02*
X136065636Y-114354914D01*
X136065636Y-114354914D02*
X136065636Y-114831104D01*
D13*
G36*
X123947437Y-134534759D02*
G01*
X124021217Y-134608539D01*
X124060213Y-134686531D01*
X124106382Y-134871207D01*
X124106382Y-135001264D01*
X124060213Y-135185940D01*
X124021217Y-135263932D01*
X123947436Y-135337712D01*
X123831866Y-135376235D01*
X123697810Y-135376235D01*
X123697810Y-134496235D01*
X123831865Y-134496235D01*
X123947437Y-134534759D01*
G37*
G36*
X127327443Y-135718457D02*
G01*
X121469874Y-135718457D01*
X121469874Y-134386235D01*
X121592096Y-134386235D01*
X121592096Y-135486235D01*
X121594210Y-135507695D01*
X121610634Y-135547348D01*
X121640983Y-135577697D01*
X121680636Y-135594121D01*
X121702096Y-135596235D01*
X122225906Y-135596235D01*
X122247366Y-135594121D01*
X122287019Y-135577697D01*
X122317368Y-135547348D01*
X122333792Y-135507695D01*
X122333792Y-135464775D01*
X122317368Y-135425122D01*
X122287019Y-135394773D01*
X122247366Y-135378349D01*
X122225906Y-135376235D01*
X121812096Y-135376235D01*
X121812096Y-134386235D01*
X122482572Y-134386235D01*
X122482572Y-135486235D01*
X122484686Y-135507695D01*
X122501110Y-135547348D01*
X122531459Y-135577697D01*
X122571112Y-135594121D01*
X122592572Y-135596235D01*
X123116382Y-135596235D01*
X123137842Y-135594121D01*
X123177495Y-135577697D01*
X123207844Y-135547348D01*
X123224268Y-135507695D01*
X123224268Y-135464775D01*
X123207844Y-135425122D01*
X123177495Y-135394773D01*
X123137842Y-135378349D01*
X123116382Y-135376235D01*
X122702572Y-135376235D01*
X122702572Y-135020045D01*
X122959239Y-135020045D01*
X122980699Y-135017931D01*
X123020352Y-135001507D01*
X123050701Y-134971158D01*
X123067125Y-134931505D01*
X123067125Y-134888585D01*
X123050701Y-134848932D01*
X123020352Y-134818583D01*
X122980699Y-134802159D01*
X122959239Y-134800045D01*
X122702572Y-134800045D01*
X122702572Y-134496235D01*
X123116382Y-134496235D01*
X123137842Y-134494121D01*
X123177495Y-134477697D01*
X123207844Y-134447348D01*
X123224268Y-134407695D01*
X123224268Y-134386235D01*
X123477810Y-134386235D01*
X123477810Y-135486235D01*
X123479924Y-135507695D01*
X123496348Y-135547348D01*
X123526697Y-135577697D01*
X123566350Y-135594121D01*
X123587810Y-135596235D01*
X123849715Y-135596235D01*
X123860575Y-135595165D01*
X123863472Y-135595371D01*
X123867283Y-135594504D01*
X123871175Y-135594121D01*
X123873859Y-135593009D01*
X123884499Y-135590590D01*
X124041643Y-135538210D01*
X124061333Y-135529419D01*
X124064320Y-135526827D01*
X124067970Y-135525316D01*
X124084640Y-135511637D01*
X124189402Y-135406875D01*
X124196327Y-135398435D01*
X124198519Y-135396535D01*
X124200599Y-135393230D01*
X124203082Y-135390205D01*
X124204194Y-135387519D01*
X124210007Y-135378286D01*
X124262388Y-135273525D01*
X124262989Y-135271951D01*
X124263461Y-135271316D01*
X124266679Y-135262308D01*
X124270094Y-135253385D01*
X124270150Y-135252596D01*
X124270717Y-135251010D01*
X124322038Y-135045728D01*
X124579924Y-135045728D01*
X124579924Y-135088648D01*
X124596348Y-135128301D01*
X124626697Y-135158650D01*
X124666350Y-135175074D01*
X124687810Y-135177188D01*
X125525906Y-135177188D01*
X125547366Y-135175074D01*
X125587019Y-135158650D01*
X125617368Y-135128301D01*
X125633792Y-135088648D01*
X125633792Y-135045728D01*
X125617368Y-135006075D01*
X125587019Y-134975726D01*
X125547366Y-134959302D01*
X125525906Y-134957188D01*
X124687810Y-134957188D01*
X124666350Y-134959302D01*
X124626697Y-134975726D01*
X124596348Y-135006075D01*
X124579924Y-135045728D01*
X124322038Y-135045728D01*
X124323098Y-135041486D01*
X124323648Y-135037762D01*
X124324268Y-135036267D01*
X124325063Y-135028193D01*
X124326252Y-135020154D01*
X124326013Y-135018549D01*
X124326382Y-135014807D01*
X124326382Y-134857664D01*
X124326013Y-134853921D01*
X124326252Y-134852317D01*
X124325063Y-134844277D01*
X124324268Y-134836204D01*
X124323648Y-134834708D01*
X124323098Y-134830985D01*
X124270717Y-134621461D01*
X124270150Y-134619874D01*
X124270094Y-134619086D01*
X124266679Y-134610162D01*
X124263461Y-134601155D01*
X124262989Y-134600519D01*
X124262388Y-134598946D01*
X124210007Y-134494185D01*
X124204194Y-134484951D01*
X124203082Y-134482266D01*
X124200599Y-134479240D01*
X124198519Y-134475936D01*
X124196327Y-134474035D01*
X124189402Y-134465596D01*
X124110041Y-134386235D01*
X125939715Y-134386235D01*
X125939715Y-135486235D01*
X125941829Y-135507695D01*
X125958253Y-135547348D01*
X125988602Y-135577697D01*
X126028255Y-135594121D01*
X126071175Y-135594121D01*
X126110828Y-135577697D01*
X126141177Y-135547348D01*
X126157601Y-135507695D01*
X126159715Y-135486235D01*
X126159715Y-134386235D01*
X126463525Y-134386235D01*
X126463525Y-135486235D01*
X126465639Y-135507695D01*
X126482063Y-135547348D01*
X126512412Y-135577697D01*
X126552065Y-135594121D01*
X126594985Y-135594121D01*
X126634638Y-135577697D01*
X126664987Y-135547348D01*
X126681411Y-135507695D01*
X126683525Y-135486235D01*
X126683525Y-135020045D01*
X126940192Y-135020045D01*
X126961652Y-135017931D01*
X127001305Y-135001507D01*
X127031654Y-134971158D01*
X127048078Y-134931505D01*
X127048078Y-134888585D01*
X127031654Y-134848932D01*
X127001305Y-134818583D01*
X126961652Y-134802159D01*
X126940192Y-134800045D01*
X126683525Y-134800045D01*
X126683525Y-134496235D01*
X127097335Y-134496235D01*
X127118795Y-134494121D01*
X127158448Y-134477697D01*
X127188797Y-134447348D01*
X127205221Y-134407695D01*
X127205221Y-134364775D01*
X127188797Y-134325122D01*
X127158448Y-134294773D01*
X127118795Y-134278349D01*
X127097335Y-134276235D01*
X126573525Y-134276235D01*
X126552065Y-134278349D01*
X126512412Y-134294773D01*
X126482063Y-134325122D01*
X126465639Y-134364775D01*
X126463525Y-134386235D01*
X126159715Y-134386235D01*
X126157601Y-134364775D01*
X126141177Y-134325122D01*
X126110828Y-134294773D01*
X126071175Y-134278349D01*
X126028255Y-134278349D01*
X125988602Y-134294773D01*
X125958253Y-134325122D01*
X125941829Y-134364775D01*
X125939715Y-134386235D01*
X124110041Y-134386235D01*
X124084640Y-134360834D01*
X124067970Y-134347155D01*
X124064318Y-134345642D01*
X124061333Y-134343053D01*
X124041643Y-134334261D01*
X123884500Y-134281880D01*
X123873858Y-134279460D01*
X123871175Y-134278349D01*
X123867285Y-134277965D01*
X123863473Y-134277099D01*
X123860575Y-134277304D01*
X123849715Y-134276235D01*
X123587810Y-134276235D01*
X123566350Y-134278349D01*
X123526697Y-134294773D01*
X123496348Y-134325122D01*
X123479924Y-134364775D01*
X123477810Y-134386235D01*
X123224268Y-134386235D01*
X123224268Y-134364775D01*
X123207844Y-134325122D01*
X123177495Y-134294773D01*
X123137842Y-134278349D01*
X123116382Y-134276235D01*
X122592572Y-134276235D01*
X122571112Y-134278349D01*
X122531459Y-134294773D01*
X122501110Y-134325122D01*
X122484686Y-134364775D01*
X122482572Y-134386235D01*
X121812096Y-134386235D01*
X121809982Y-134364775D01*
X121793558Y-134325122D01*
X121763209Y-134294773D01*
X121723556Y-134278349D01*
X121680636Y-134278349D01*
X121640983Y-134294773D01*
X121610634Y-134325122D01*
X121594210Y-134364775D01*
X121592096Y-134386235D01*
X121469874Y-134386235D01*
X121469874Y-134154013D01*
X127327443Y-134154013D01*
X127327443Y-135718457D01*
G37*
D10*
X120941319Y-117506657D02*
X120465129Y-117506657D01*
X120465129Y-117506657D02*
X120465129Y-116506657D01*
X121274653Y-116982847D02*
X121607986Y-116982847D01*
X121750843Y-117506657D02*
X121274653Y-117506657D01*
X121274653Y-117506657D02*
X121274653Y-116506657D01*
X121274653Y-116506657D02*
X121750843Y-116506657D01*
X122179415Y-117506657D02*
X122179415Y-116506657D01*
X122179415Y-116506657D02*
X122417510Y-116506657D01*
X122417510Y-116506657D02*
X122560367Y-116554276D01*
X122560367Y-116554276D02*
X122655605Y-116649514D01*
X122655605Y-116649514D02*
X122703224Y-116744752D01*
X122703224Y-116744752D02*
X122750843Y-116935228D01*
X122750843Y-116935228D02*
X122750843Y-117078085D01*
X122750843Y-117078085D02*
X122703224Y-117268561D01*
X122703224Y-117268561D02*
X122655605Y-117363799D01*
X122655605Y-117363799D02*
X122560367Y-117459038D01*
X122560367Y-117459038D02*
X122417510Y-117506657D01*
X122417510Y-117506657D02*
X122179415Y-117506657D01*
X123703224Y-117506657D02*
X123131796Y-117506657D01*
X123417510Y-117506657D02*
X123417510Y-116506657D01*
X123417510Y-116506657D02*
X123322272Y-116649514D01*
X123322272Y-116649514D02*
X123227034Y-116744752D01*
X123227034Y-116744752D02*
X123131796Y-116792371D01*
X156965129Y-125178085D02*
X156965129Y-124178085D01*
X156965129Y-124178085D02*
X157298462Y-124892370D01*
X157298462Y-124892370D02*
X157631795Y-124178085D01*
X157631795Y-124178085D02*
X157631795Y-125178085D01*
X158298462Y-124178085D02*
X158488938Y-124178085D01*
X158488938Y-124178085D02*
X158584176Y-124225704D01*
X158584176Y-124225704D02*
X158679414Y-124320942D01*
X158679414Y-124320942D02*
X158727033Y-124511418D01*
X158727033Y-124511418D02*
X158727033Y-124844751D01*
X158727033Y-124844751D02*
X158679414Y-125035227D01*
X158679414Y-125035227D02*
X158584176Y-125130466D01*
X158584176Y-125130466D02*
X158488938Y-125178085D01*
X158488938Y-125178085D02*
X158298462Y-125178085D01*
X158298462Y-125178085D02*
X158203224Y-125130466D01*
X158203224Y-125130466D02*
X158107986Y-125035227D01*
X158107986Y-125035227D02*
X158060367Y-124844751D01*
X158060367Y-124844751D02*
X158060367Y-124511418D01*
X158060367Y-124511418D02*
X158107986Y-124320942D01*
X158107986Y-124320942D02*
X158203224Y-124225704D01*
X158203224Y-124225704D02*
X158298462Y-124178085D01*
X159107986Y-125130466D02*
X159250843Y-125178085D01*
X159250843Y-125178085D02*
X159488938Y-125178085D01*
X159488938Y-125178085D02*
X159584176Y-125130466D01*
X159584176Y-125130466D02*
X159631795Y-125082846D01*
X159631795Y-125082846D02*
X159679414Y-124987608D01*
X159679414Y-124987608D02*
X159679414Y-124892370D01*
X159679414Y-124892370D02*
X159631795Y-124797132D01*
X159631795Y-124797132D02*
X159584176Y-124749513D01*
X159584176Y-124749513D02*
X159488938Y-124701894D01*
X159488938Y-124701894D02*
X159298462Y-124654275D01*
X159298462Y-124654275D02*
X159203224Y-124606656D01*
X159203224Y-124606656D02*
X159155605Y-124559037D01*
X159155605Y-124559037D02*
X159107986Y-124463799D01*
X159107986Y-124463799D02*
X159107986Y-124368561D01*
X159107986Y-124368561D02*
X159155605Y-124273323D01*
X159155605Y-124273323D02*
X159203224Y-124225704D01*
X159203224Y-124225704D02*
X159298462Y-124178085D01*
X159298462Y-124178085D02*
X159536557Y-124178085D01*
X159536557Y-124178085D02*
X159679414Y-124225704D01*
X160107986Y-125178085D02*
X160107986Y-124178085D01*
D11*
X138453789Y-52437114D02*
X138120456Y-51960923D01*
X137882361Y-52437114D02*
X137882361Y-51437114D01*
X137882361Y-51437114D02*
X138263313Y-51437114D01*
X138263313Y-51437114D02*
X138358551Y-51484733D01*
X138358551Y-51484733D02*
X138406170Y-51532352D01*
X138406170Y-51532352D02*
X138453789Y-51627590D01*
X138453789Y-51627590D02*
X138453789Y-51770447D01*
X138453789Y-51770447D02*
X138406170Y-51865685D01*
X138406170Y-51865685D02*
X138358551Y-51913304D01*
X138358551Y-51913304D02*
X138263313Y-51960923D01*
X138263313Y-51960923D02*
X137882361Y-51960923D01*
X138834742Y-51532352D02*
X138882361Y-51484733D01*
X138882361Y-51484733D02*
X138977599Y-51437114D01*
X138977599Y-51437114D02*
X139215694Y-51437114D01*
X139215694Y-51437114D02*
X139310932Y-51484733D01*
X139310932Y-51484733D02*
X139358551Y-51532352D01*
X139358551Y-51532352D02*
X139406170Y-51627590D01*
X139406170Y-51627590D02*
X139406170Y-51722828D01*
X139406170Y-51722828D02*
X139358551Y-51865685D01*
X139358551Y-51865685D02*
X138787123Y-52437114D01*
X138787123Y-52437114D02*
X139406170Y-52437114D01*
X145733789Y-130624614D02*
X145400456Y-130148423D01*
X145162361Y-130624614D02*
X145162361Y-129624614D01*
X145162361Y-129624614D02*
X145543313Y-129624614D01*
X145543313Y-129624614D02*
X145638551Y-129672233D01*
X145638551Y-129672233D02*
X145686170Y-129719852D01*
X145686170Y-129719852D02*
X145733789Y-129815090D01*
X145733789Y-129815090D02*
X145733789Y-129957947D01*
X145733789Y-129957947D02*
X145686170Y-130053185D01*
X145686170Y-130053185D02*
X145638551Y-130100804D01*
X145638551Y-130100804D02*
X145543313Y-130148423D01*
X145543313Y-130148423D02*
X145162361Y-130148423D01*
X146067123Y-129624614D02*
X146733789Y-129624614D01*
X146733789Y-129624614D02*
X146305218Y-130624614D01*
X145753789Y-124312114D02*
X145420456Y-123835923D01*
X145182361Y-124312114D02*
X145182361Y-123312114D01*
X145182361Y-123312114D02*
X145563313Y-123312114D01*
X145563313Y-123312114D02*
X145658551Y-123359733D01*
X145658551Y-123359733D02*
X145706170Y-123407352D01*
X145706170Y-123407352D02*
X145753789Y-123502590D01*
X145753789Y-123502590D02*
X145753789Y-123645447D01*
X145753789Y-123645447D02*
X145706170Y-123740685D01*
X145706170Y-123740685D02*
X145658551Y-123788304D01*
X145658551Y-123788304D02*
X145563313Y-123835923D01*
X145563313Y-123835923D02*
X145182361Y-123835923D01*
X146658551Y-123312114D02*
X146182361Y-123312114D01*
X146182361Y-123312114D02*
X146134742Y-123788304D01*
X146134742Y-123788304D02*
X146182361Y-123740685D01*
X146182361Y-123740685D02*
X146277599Y-123693066D01*
X146277599Y-123693066D02*
X146515694Y-123693066D01*
X146515694Y-123693066D02*
X146610932Y-123740685D01*
X146610932Y-123740685D02*
X146658551Y-123788304D01*
X146658551Y-123788304D02*
X146706170Y-123883542D01*
X146706170Y-123883542D02*
X146706170Y-124121637D01*
X146706170Y-124121637D02*
X146658551Y-124216875D01*
X146658551Y-124216875D02*
X146610932Y-124264495D01*
X146610932Y-124264495D02*
X146515694Y-124312114D01*
X146515694Y-124312114D02*
X146277599Y-124312114D01*
X146277599Y-124312114D02*
X146182361Y-124264495D01*
X146182361Y-124264495D02*
X146134742Y-124216875D01*
X145778789Y-121155864D02*
X145445456Y-120679673D01*
X145207361Y-121155864D02*
X145207361Y-120155864D01*
X145207361Y-120155864D02*
X145588313Y-120155864D01*
X145588313Y-120155864D02*
X145683551Y-120203483D01*
X145683551Y-120203483D02*
X145731170Y-120251102D01*
X145731170Y-120251102D02*
X145778789Y-120346340D01*
X145778789Y-120346340D02*
X145778789Y-120489197D01*
X145778789Y-120489197D02*
X145731170Y-120584435D01*
X145731170Y-120584435D02*
X145683551Y-120632054D01*
X145683551Y-120632054D02*
X145588313Y-120679673D01*
X145588313Y-120679673D02*
X145207361Y-120679673D01*
X146635932Y-120489197D02*
X146635932Y-121155864D01*
X146397837Y-120108245D02*
X146159742Y-120822530D01*
X146159742Y-120822530D02*
X146778789Y-120822530D01*
X120079979Y-95637114D02*
X119746646Y-95160923D01*
X119508551Y-95637114D02*
X119508551Y-94637114D01*
X119508551Y-94637114D02*
X119889503Y-94637114D01*
X119889503Y-94637114D02*
X119984741Y-94684733D01*
X119984741Y-94684733D02*
X120032360Y-94732352D01*
X120032360Y-94732352D02*
X120079979Y-94827590D01*
X120079979Y-94827590D02*
X120079979Y-94970447D01*
X120079979Y-94970447D02*
X120032360Y-95065685D01*
X120032360Y-95065685D02*
X119984741Y-95113304D01*
X119984741Y-95113304D02*
X119889503Y-95160923D01*
X119889503Y-95160923D02*
X119508551Y-95160923D01*
X120508551Y-95637114D02*
X120508551Y-94637114D01*
X120508551Y-94637114D02*
X121079979Y-95637114D01*
X121079979Y-95637114D02*
X121079979Y-94637114D01*
X122079979Y-95637114D02*
X121508551Y-95637114D01*
X121794265Y-95637114D02*
X121794265Y-94637114D01*
X121794265Y-94637114D02*
X121699027Y-94779971D01*
X121699027Y-94779971D02*
X121603789Y-94875209D01*
X121603789Y-94875209D02*
X121508551Y-94922828D01*
X149383551Y-60012114D02*
X149383551Y-60821637D01*
X149383551Y-60821637D02*
X149431170Y-60916875D01*
X149431170Y-60916875D02*
X149478789Y-60964495D01*
X149478789Y-60964495D02*
X149574027Y-61012114D01*
X149574027Y-61012114D02*
X149764503Y-61012114D01*
X149764503Y-61012114D02*
X149859741Y-60964495D01*
X149859741Y-60964495D02*
X149907360Y-60916875D01*
X149907360Y-60916875D02*
X149954979Y-60821637D01*
X149954979Y-60821637D02*
X149954979Y-60012114D01*
X150954979Y-61012114D02*
X150383551Y-61012114D01*
X150669265Y-61012114D02*
X150669265Y-60012114D01*
X150669265Y-60012114D02*
X150574027Y-60154971D01*
X150574027Y-60154971D02*
X150478789Y-60250209D01*
X150478789Y-60250209D02*
X150383551Y-60297828D01*
X148878789Y-99116875D02*
X148831170Y-99164495D01*
X148831170Y-99164495D02*
X148688313Y-99212114D01*
X148688313Y-99212114D02*
X148593075Y-99212114D01*
X148593075Y-99212114D02*
X148450218Y-99164495D01*
X148450218Y-99164495D02*
X148354980Y-99069256D01*
X148354980Y-99069256D02*
X148307361Y-98974018D01*
X148307361Y-98974018D02*
X148259742Y-98783542D01*
X148259742Y-98783542D02*
X148259742Y-98640685D01*
X148259742Y-98640685D02*
X148307361Y-98450209D01*
X148307361Y-98450209D02*
X148354980Y-98354971D01*
X148354980Y-98354971D02*
X148450218Y-98259733D01*
X148450218Y-98259733D02*
X148593075Y-98212114D01*
X148593075Y-98212114D02*
X148688313Y-98212114D01*
X148688313Y-98212114D02*
X148831170Y-98259733D01*
X148831170Y-98259733D02*
X148878789Y-98307352D01*
X149259742Y-98307352D02*
X149307361Y-98259733D01*
X149307361Y-98259733D02*
X149402599Y-98212114D01*
X149402599Y-98212114D02*
X149640694Y-98212114D01*
X149640694Y-98212114D02*
X149735932Y-98259733D01*
X149735932Y-98259733D02*
X149783551Y-98307352D01*
X149783551Y-98307352D02*
X149831170Y-98402590D01*
X149831170Y-98402590D02*
X149831170Y-98497828D01*
X149831170Y-98497828D02*
X149783551Y-98640685D01*
X149783551Y-98640685D02*
X149212123Y-99212114D01*
X149212123Y-99212114D02*
X149831170Y-99212114D01*
X159658551Y-110562114D02*
X159658551Y-111371637D01*
X159658551Y-111371637D02*
X159706170Y-111466875D01*
X159706170Y-111466875D02*
X159753789Y-111514495D01*
X159753789Y-111514495D02*
X159849027Y-111562114D01*
X159849027Y-111562114D02*
X160039503Y-111562114D01*
X160039503Y-111562114D02*
X160134741Y-111514495D01*
X160134741Y-111514495D02*
X160182360Y-111466875D01*
X160182360Y-111466875D02*
X160229979Y-111371637D01*
X160229979Y-111371637D02*
X160229979Y-110562114D01*
X160610932Y-110562114D02*
X161229979Y-110562114D01*
X161229979Y-110562114D02*
X160896646Y-110943066D01*
X160896646Y-110943066D02*
X161039503Y-110943066D01*
X161039503Y-110943066D02*
X161134741Y-110990685D01*
X161134741Y-110990685D02*
X161182360Y-111038304D01*
X161182360Y-111038304D02*
X161229979Y-111133542D01*
X161229979Y-111133542D02*
X161229979Y-111371637D01*
X161229979Y-111371637D02*
X161182360Y-111466875D01*
X161182360Y-111466875D02*
X161134741Y-111514495D01*
X161134741Y-111514495D02*
X161039503Y-111562114D01*
X161039503Y-111562114D02*
X160753789Y-111562114D01*
X160753789Y-111562114D02*
X160658551Y-111514495D01*
X160658551Y-111514495D02*
X160610932Y-111466875D01*
X144908551Y-96662114D02*
X144908551Y-97471637D01*
X144908551Y-97471637D02*
X144956170Y-97566875D01*
X144956170Y-97566875D02*
X145003789Y-97614495D01*
X145003789Y-97614495D02*
X145099027Y-97662114D01*
X145099027Y-97662114D02*
X145289503Y-97662114D01*
X145289503Y-97662114D02*
X145384741Y-97614495D01*
X145384741Y-97614495D02*
X145432360Y-97566875D01*
X145432360Y-97566875D02*
X145479979Y-97471637D01*
X145479979Y-97471637D02*
X145479979Y-96662114D01*
X145908551Y-96757352D02*
X145956170Y-96709733D01*
X145956170Y-96709733D02*
X146051408Y-96662114D01*
X146051408Y-96662114D02*
X146289503Y-96662114D01*
X146289503Y-96662114D02*
X146384741Y-96709733D01*
X146384741Y-96709733D02*
X146432360Y-96757352D01*
X146432360Y-96757352D02*
X146479979Y-96852590D01*
X146479979Y-96852590D02*
X146479979Y-96947828D01*
X146479979Y-96947828D02*
X146432360Y-97090685D01*
X146432360Y-97090685D02*
X145860932Y-97662114D01*
X145860932Y-97662114D02*
X146479979Y-97662114D01*
X160503789Y-108162114D02*
X160170456Y-107685923D01*
X159932361Y-108162114D02*
X159932361Y-107162114D01*
X159932361Y-107162114D02*
X160313313Y-107162114D01*
X160313313Y-107162114D02*
X160408551Y-107209733D01*
X160408551Y-107209733D02*
X160456170Y-107257352D01*
X160456170Y-107257352D02*
X160503789Y-107352590D01*
X160503789Y-107352590D02*
X160503789Y-107495447D01*
X160503789Y-107495447D02*
X160456170Y-107590685D01*
X160456170Y-107590685D02*
X160408551Y-107638304D01*
X160408551Y-107638304D02*
X160313313Y-107685923D01*
X160313313Y-107685923D02*
X159932361Y-107685923D01*
X161456170Y-108162114D02*
X160884742Y-108162114D01*
X161170456Y-108162114D02*
X161170456Y-107162114D01*
X161170456Y-107162114D02*
X161075218Y-107304971D01*
X161075218Y-107304971D02*
X160979980Y-107400209D01*
X160979980Y-107400209D02*
X160884742Y-107447828D01*
X128787122Y-62713304D02*
X128929979Y-62760923D01*
X128929979Y-62760923D02*
X128977598Y-62808542D01*
X128977598Y-62808542D02*
X129025217Y-62903780D01*
X129025217Y-62903780D02*
X129025217Y-63046637D01*
X129025217Y-63046637D02*
X128977598Y-63141875D01*
X128977598Y-63141875D02*
X128929979Y-63189495D01*
X128929979Y-63189495D02*
X128834741Y-63237114D01*
X128834741Y-63237114D02*
X128453789Y-63237114D01*
X128453789Y-63237114D02*
X128453789Y-62237114D01*
X128453789Y-62237114D02*
X128787122Y-62237114D01*
X128787122Y-62237114D02*
X128882360Y-62284733D01*
X128882360Y-62284733D02*
X128929979Y-62332352D01*
X128929979Y-62332352D02*
X128977598Y-62427590D01*
X128977598Y-62427590D02*
X128977598Y-62522828D01*
X128977598Y-62522828D02*
X128929979Y-62618066D01*
X128929979Y-62618066D02*
X128882360Y-62665685D01*
X128882360Y-62665685D02*
X128787122Y-62713304D01*
X128787122Y-62713304D02*
X128453789Y-62713304D01*
X129406170Y-62951399D02*
X129882360Y-62951399D01*
X129310932Y-63237114D02*
X129644265Y-62237114D01*
X129644265Y-62237114D02*
X129977598Y-63237114D01*
X130882360Y-63237114D02*
X130549027Y-62760923D01*
X130310932Y-63237114D02*
X130310932Y-62237114D01*
X130310932Y-62237114D02*
X130691884Y-62237114D01*
X130691884Y-62237114D02*
X130787122Y-62284733D01*
X130787122Y-62284733D02*
X130834741Y-62332352D01*
X130834741Y-62332352D02*
X130882360Y-62427590D01*
X130882360Y-62427590D02*
X130882360Y-62570447D01*
X130882360Y-62570447D02*
X130834741Y-62665685D01*
X130834741Y-62665685D02*
X130787122Y-62713304D01*
X130787122Y-62713304D02*
X130691884Y-62760923D01*
X130691884Y-62760923D02*
X130310932Y-62760923D01*
X131834741Y-63237114D02*
X131263313Y-63237114D01*
X131549027Y-63237114D02*
X131549027Y-62237114D01*
X131549027Y-62237114D02*
X131453789Y-62379971D01*
X131453789Y-62379971D02*
X131358551Y-62475209D01*
X131358551Y-62475209D02*
X131263313Y-62522828D01*
X151753789Y-108162114D02*
X151420456Y-107685923D01*
X151182361Y-108162114D02*
X151182361Y-107162114D01*
X151182361Y-107162114D02*
X151563313Y-107162114D01*
X151563313Y-107162114D02*
X151658551Y-107209733D01*
X151658551Y-107209733D02*
X151706170Y-107257352D01*
X151706170Y-107257352D02*
X151753789Y-107352590D01*
X151753789Y-107352590D02*
X151753789Y-107495447D01*
X151753789Y-107495447D02*
X151706170Y-107590685D01*
X151706170Y-107590685D02*
X151658551Y-107638304D01*
X151658551Y-107638304D02*
X151563313Y-107685923D01*
X151563313Y-107685923D02*
X151182361Y-107685923D01*
X152087123Y-107162114D02*
X152706170Y-107162114D01*
X152706170Y-107162114D02*
X152372837Y-107543066D01*
X152372837Y-107543066D02*
X152515694Y-107543066D01*
X152515694Y-107543066D02*
X152610932Y-107590685D01*
X152610932Y-107590685D02*
X152658551Y-107638304D01*
X152658551Y-107638304D02*
X152706170Y-107733542D01*
X152706170Y-107733542D02*
X152706170Y-107971637D01*
X152706170Y-107971637D02*
X152658551Y-108066875D01*
X152658551Y-108066875D02*
X152610932Y-108114495D01*
X152610932Y-108114495D02*
X152515694Y-108162114D01*
X152515694Y-108162114D02*
X152229980Y-108162114D01*
X152229980Y-108162114D02*
X152134742Y-108114495D01*
X152134742Y-108114495D02*
X152087123Y-108066875D01*
X120204979Y-65562114D02*
X119871646Y-65085923D01*
X119633551Y-65562114D02*
X119633551Y-64562114D01*
X119633551Y-64562114D02*
X120014503Y-64562114D01*
X120014503Y-64562114D02*
X120109741Y-64609733D01*
X120109741Y-64609733D02*
X120157360Y-64657352D01*
X120157360Y-64657352D02*
X120204979Y-64752590D01*
X120204979Y-64752590D02*
X120204979Y-64895447D01*
X120204979Y-64895447D02*
X120157360Y-64990685D01*
X120157360Y-64990685D02*
X120109741Y-65038304D01*
X120109741Y-65038304D02*
X120014503Y-65085923D01*
X120014503Y-65085923D02*
X119633551Y-65085923D01*
X120633551Y-65562114D02*
X120633551Y-64562114D01*
X120633551Y-64562114D02*
X121204979Y-65562114D01*
X121204979Y-65562114D02*
X121204979Y-64562114D01*
X121633551Y-64657352D02*
X121681170Y-64609733D01*
X121681170Y-64609733D02*
X121776408Y-64562114D01*
X121776408Y-64562114D02*
X122014503Y-64562114D01*
X122014503Y-64562114D02*
X122109741Y-64609733D01*
X122109741Y-64609733D02*
X122157360Y-64657352D01*
X122157360Y-64657352D02*
X122204979Y-64752590D01*
X122204979Y-64752590D02*
X122204979Y-64847828D01*
X122204979Y-64847828D02*
X122157360Y-64990685D01*
X122157360Y-64990685D02*
X121585932Y-65562114D01*
X121585932Y-65562114D02*
X122204979Y-65562114D01*
X145753789Y-133780864D02*
X145420456Y-133304673D01*
X145182361Y-133780864D02*
X145182361Y-132780864D01*
X145182361Y-132780864D02*
X145563313Y-132780864D01*
X145563313Y-132780864D02*
X145658551Y-132828483D01*
X145658551Y-132828483D02*
X145706170Y-132876102D01*
X145706170Y-132876102D02*
X145753789Y-132971340D01*
X145753789Y-132971340D02*
X145753789Y-133114197D01*
X145753789Y-133114197D02*
X145706170Y-133209435D01*
X145706170Y-133209435D02*
X145658551Y-133257054D01*
X145658551Y-133257054D02*
X145563313Y-133304673D01*
X145563313Y-133304673D02*
X145182361Y-133304673D01*
X146325218Y-133209435D02*
X146229980Y-133161816D01*
X146229980Y-133161816D02*
X146182361Y-133114197D01*
X146182361Y-133114197D02*
X146134742Y-133018959D01*
X146134742Y-133018959D02*
X146134742Y-132971340D01*
X146134742Y-132971340D02*
X146182361Y-132876102D01*
X146182361Y-132876102D02*
X146229980Y-132828483D01*
X146229980Y-132828483D02*
X146325218Y-132780864D01*
X146325218Y-132780864D02*
X146515694Y-132780864D01*
X146515694Y-132780864D02*
X146610932Y-132828483D01*
X146610932Y-132828483D02*
X146658551Y-132876102D01*
X146658551Y-132876102D02*
X146706170Y-132971340D01*
X146706170Y-132971340D02*
X146706170Y-133018959D01*
X146706170Y-133018959D02*
X146658551Y-133114197D01*
X146658551Y-133114197D02*
X146610932Y-133161816D01*
X146610932Y-133161816D02*
X146515694Y-133209435D01*
X146515694Y-133209435D02*
X146325218Y-133209435D01*
X146325218Y-133209435D02*
X146229980Y-133257054D01*
X146229980Y-133257054D02*
X146182361Y-133304673D01*
X146182361Y-133304673D02*
X146134742Y-133399911D01*
X146134742Y-133399911D02*
X146134742Y-133590387D01*
X146134742Y-133590387D02*
X146182361Y-133685625D01*
X146182361Y-133685625D02*
X146229980Y-133733245D01*
X146229980Y-133733245D02*
X146325218Y-133780864D01*
X146325218Y-133780864D02*
X146515694Y-133780864D01*
X146515694Y-133780864D02*
X146610932Y-133733245D01*
X146610932Y-133733245D02*
X146658551Y-133685625D01*
X146658551Y-133685625D02*
X146706170Y-133590387D01*
X146706170Y-133590387D02*
X146706170Y-133399911D01*
X146706170Y-133399911D02*
X146658551Y-133304673D01*
X146658551Y-133304673D02*
X146610932Y-133257054D01*
X146610932Y-133257054D02*
X146515694Y-133209435D01*
X135303789Y-109266875D02*
X135256170Y-109314495D01*
X135256170Y-109314495D02*
X135113313Y-109362114D01*
X135113313Y-109362114D02*
X135018075Y-109362114D01*
X135018075Y-109362114D02*
X134875218Y-109314495D01*
X134875218Y-109314495D02*
X134779980Y-109219256D01*
X134779980Y-109219256D02*
X134732361Y-109124018D01*
X134732361Y-109124018D02*
X134684742Y-108933542D01*
X134684742Y-108933542D02*
X134684742Y-108790685D01*
X134684742Y-108790685D02*
X134732361Y-108600209D01*
X134732361Y-108600209D02*
X134779980Y-108504971D01*
X134779980Y-108504971D02*
X134875218Y-108409733D01*
X134875218Y-108409733D02*
X135018075Y-108362114D01*
X135018075Y-108362114D02*
X135113313Y-108362114D01*
X135113313Y-108362114D02*
X135256170Y-108409733D01*
X135256170Y-108409733D02*
X135303789Y-108457352D01*
X135637123Y-108362114D02*
X136256170Y-108362114D01*
X136256170Y-108362114D02*
X135922837Y-108743066D01*
X135922837Y-108743066D02*
X136065694Y-108743066D01*
X136065694Y-108743066D02*
X136160932Y-108790685D01*
X136160932Y-108790685D02*
X136208551Y-108838304D01*
X136208551Y-108838304D02*
X136256170Y-108933542D01*
X136256170Y-108933542D02*
X136256170Y-109171637D01*
X136256170Y-109171637D02*
X136208551Y-109266875D01*
X136208551Y-109266875D02*
X136160932Y-109314495D01*
X136160932Y-109314495D02*
X136065694Y-109362114D01*
X136065694Y-109362114D02*
X135779980Y-109362114D01*
X135779980Y-109362114D02*
X135684742Y-109314495D01*
X135684742Y-109314495D02*
X135637123Y-109266875D01*
X155462123Y-107264495D02*
X155604980Y-107312114D01*
X155604980Y-107312114D02*
X155843075Y-107312114D01*
X155843075Y-107312114D02*
X155938313Y-107264495D01*
X155938313Y-107264495D02*
X155985932Y-107216875D01*
X155985932Y-107216875D02*
X156033551Y-107121637D01*
X156033551Y-107121637D02*
X156033551Y-107026399D01*
X156033551Y-107026399D02*
X155985932Y-106931161D01*
X155985932Y-106931161D02*
X155938313Y-106883542D01*
X155938313Y-106883542D02*
X155843075Y-106835923D01*
X155843075Y-106835923D02*
X155652599Y-106788304D01*
X155652599Y-106788304D02*
X155557361Y-106740685D01*
X155557361Y-106740685D02*
X155509742Y-106693066D01*
X155509742Y-106693066D02*
X155462123Y-106597828D01*
X155462123Y-106597828D02*
X155462123Y-106502590D01*
X155462123Y-106502590D02*
X155509742Y-106407352D01*
X155509742Y-106407352D02*
X155557361Y-106359733D01*
X155557361Y-106359733D02*
X155652599Y-106312114D01*
X155652599Y-106312114D02*
X155890694Y-106312114D01*
X155890694Y-106312114D02*
X156033551Y-106359733D01*
X156366885Y-106312114D02*
X156604980Y-107312114D01*
X156604980Y-107312114D02*
X156795456Y-106597828D01*
X156795456Y-106597828D02*
X156985932Y-107312114D01*
X156985932Y-107312114D02*
X157224028Y-106312114D01*
X158128789Y-107312114D02*
X157557361Y-107312114D01*
X157843075Y-107312114D02*
X157843075Y-106312114D01*
X157843075Y-106312114D02*
X157747837Y-106454971D01*
X157747837Y-106454971D02*
X157652599Y-106550209D01*
X157652599Y-106550209D02*
X157557361Y-106597828D01*
X134903789Y-53641875D02*
X134856170Y-53689495D01*
X134856170Y-53689495D02*
X134713313Y-53737114D01*
X134713313Y-53737114D02*
X134618075Y-53737114D01*
X134618075Y-53737114D02*
X134475218Y-53689495D01*
X134475218Y-53689495D02*
X134379980Y-53594256D01*
X134379980Y-53594256D02*
X134332361Y-53499018D01*
X134332361Y-53499018D02*
X134284742Y-53308542D01*
X134284742Y-53308542D02*
X134284742Y-53165685D01*
X134284742Y-53165685D02*
X134332361Y-52975209D01*
X134332361Y-52975209D02*
X134379980Y-52879971D01*
X134379980Y-52879971D02*
X134475218Y-52784733D01*
X134475218Y-52784733D02*
X134618075Y-52737114D01*
X134618075Y-52737114D02*
X134713313Y-52737114D01*
X134713313Y-52737114D02*
X134856170Y-52784733D01*
X134856170Y-52784733D02*
X134903789Y-52832352D01*
X135856170Y-53737114D02*
X135284742Y-53737114D01*
X135570456Y-53737114D02*
X135570456Y-52737114D01*
X135570456Y-52737114D02*
X135475218Y-52879971D01*
X135475218Y-52879971D02*
X135379980Y-52975209D01*
X135379980Y-52975209D02*
X135284742Y-53022828D01*
X147107361Y-56612114D02*
X147107361Y-55612114D01*
X147107361Y-55612114D02*
X147345456Y-55612114D01*
X147345456Y-55612114D02*
X147488313Y-55659733D01*
X147488313Y-55659733D02*
X147583551Y-55754971D01*
X147583551Y-55754971D02*
X147631170Y-55850209D01*
X147631170Y-55850209D02*
X147678789Y-56040685D01*
X147678789Y-56040685D02*
X147678789Y-56183542D01*
X147678789Y-56183542D02*
X147631170Y-56374018D01*
X147631170Y-56374018D02*
X147583551Y-56469256D01*
X147583551Y-56469256D02*
X147488313Y-56564495D01*
X147488313Y-56564495D02*
X147345456Y-56612114D01*
X147345456Y-56612114D02*
X147107361Y-56612114D01*
X148631170Y-56612114D02*
X148059742Y-56612114D01*
X148345456Y-56612114D02*
X148345456Y-55612114D01*
X148345456Y-55612114D02*
X148250218Y-55754971D01*
X148250218Y-55754971D02*
X148154980Y-55850209D01*
X148154980Y-55850209D02*
X148059742Y-55897828D01*
X130287122Y-50532114D02*
X130287122Y-51246399D01*
X130287122Y-51246399D02*
X130239503Y-51389256D01*
X130239503Y-51389256D02*
X130144265Y-51484495D01*
X130144265Y-51484495D02*
X130001408Y-51532114D01*
X130001408Y-51532114D02*
X129906170Y-51532114D01*
X130763313Y-51532114D02*
X130763313Y-50532114D01*
X130763313Y-50532114D02*
X131144265Y-50532114D01*
X131144265Y-50532114D02*
X131239503Y-50579733D01*
X131239503Y-50579733D02*
X131287122Y-50627352D01*
X131287122Y-50627352D02*
X131334741Y-50722590D01*
X131334741Y-50722590D02*
X131334741Y-50865447D01*
X131334741Y-50865447D02*
X131287122Y-50960685D01*
X131287122Y-50960685D02*
X131239503Y-51008304D01*
X131239503Y-51008304D02*
X131144265Y-51055923D01*
X131144265Y-51055923D02*
X130763313Y-51055923D01*
X132287122Y-51532114D02*
X131715694Y-51532114D01*
X132001408Y-51532114D02*
X132001408Y-50532114D01*
X132001408Y-50532114D02*
X131906170Y-50674971D01*
X131906170Y-50674971D02*
X131810932Y-50770209D01*
X131810932Y-50770209D02*
X131715694Y-50817828D01*
X145733789Y-127468364D02*
X145400456Y-126992173D01*
X145162361Y-127468364D02*
X145162361Y-126468364D01*
X145162361Y-126468364D02*
X145543313Y-126468364D01*
X145543313Y-126468364D02*
X145638551Y-126515983D01*
X145638551Y-126515983D02*
X145686170Y-126563602D01*
X145686170Y-126563602D02*
X145733789Y-126658840D01*
X145733789Y-126658840D02*
X145733789Y-126801697D01*
X145733789Y-126801697D02*
X145686170Y-126896935D01*
X145686170Y-126896935D02*
X145638551Y-126944554D01*
X145638551Y-126944554D02*
X145543313Y-126992173D01*
X145543313Y-126992173D02*
X145162361Y-126992173D01*
X146590932Y-126468364D02*
X146400456Y-126468364D01*
X146400456Y-126468364D02*
X146305218Y-126515983D01*
X146305218Y-126515983D02*
X146257599Y-126563602D01*
X146257599Y-126563602D02*
X146162361Y-126706459D01*
X146162361Y-126706459D02*
X146114742Y-126896935D01*
X146114742Y-126896935D02*
X146114742Y-127277887D01*
X146114742Y-127277887D02*
X146162361Y-127373125D01*
X146162361Y-127373125D02*
X146209980Y-127420745D01*
X146209980Y-127420745D02*
X146305218Y-127468364D01*
X146305218Y-127468364D02*
X146495694Y-127468364D01*
X146495694Y-127468364D02*
X146590932Y-127420745D01*
X146590932Y-127420745D02*
X146638551Y-127373125D01*
X146638551Y-127373125D02*
X146686170Y-127277887D01*
X146686170Y-127277887D02*
X146686170Y-127039792D01*
X146686170Y-127039792D02*
X146638551Y-126944554D01*
X146638551Y-126944554D02*
X146590932Y-126896935D01*
X146590932Y-126896935D02*
X146495694Y-126849316D01*
X146495694Y-126849316D02*
X146305218Y-126849316D01*
X146305218Y-126849316D02*
X146209980Y-126896935D01*
X146209980Y-126896935D02*
X146162361Y-126944554D01*
X146162361Y-126944554D02*
X146114742Y-127039792D01*
X136487122Y-118992114D02*
X136487122Y-119706399D01*
X136487122Y-119706399D02*
X136439503Y-119849256D01*
X136439503Y-119849256D02*
X136344265Y-119944495D01*
X136344265Y-119944495D02*
X136201408Y-119992114D01*
X136201408Y-119992114D02*
X136106170Y-119992114D01*
X137487122Y-119992114D02*
X136915694Y-119992114D01*
X137201408Y-119992114D02*
X137201408Y-118992114D01*
X137201408Y-118992114D02*
X137106170Y-119134971D01*
X137106170Y-119134971D02*
X137010932Y-119230209D01*
X137010932Y-119230209D02*
X136915694Y-119277828D01*
D15*
%TO.C,R2*%
X141955456Y-52882295D02*
X142725456Y-52882295D01*
X142725456Y-51512295D02*
X142725456Y-54252295D01*
X142725456Y-54252295D02*
X149265456Y-54252295D01*
X149265456Y-51512295D02*
X142725456Y-51512295D01*
X149265456Y-54252295D02*
X149265456Y-51512295D01*
X150035456Y-52882295D02*
X149265456Y-52882295D01*
%TO.C,R7*%
X141860456Y-130169795D02*
X142630456Y-130169795D01*
X142630456Y-128799795D02*
X142630456Y-131539795D01*
X142630456Y-131539795D02*
X149170456Y-131539795D01*
X149170456Y-128799795D02*
X142630456Y-128799795D01*
X149170456Y-131539795D02*
X149170456Y-128799795D01*
X149940456Y-130169795D02*
X149170456Y-130169795D01*
%TO.C,R5*%
X141880456Y-123857295D02*
X142650456Y-123857295D01*
X142650456Y-122487295D02*
X142650456Y-125227295D01*
X142650456Y-125227295D02*
X149190456Y-125227295D01*
X149190456Y-122487295D02*
X142650456Y-122487295D01*
X149190456Y-125227295D02*
X149190456Y-122487295D01*
X149960456Y-123857295D02*
X149190456Y-123857295D01*
%TO.C,R4*%
X141905456Y-120701045D02*
X142675456Y-120701045D01*
X142675456Y-119331045D02*
X142675456Y-122071045D01*
X142675456Y-122071045D02*
X149215456Y-122071045D01*
X149215456Y-119331045D02*
X142675456Y-119331045D01*
X149215456Y-122071045D02*
X149215456Y-119331045D01*
X149985456Y-120701045D02*
X149215456Y-120701045D01*
%TO.C,RN1*%
X122805456Y-93632295D02*
X122805456Y-96432295D01*
X122805456Y-96432295D02*
X143465456Y-96432295D01*
X140755456Y-96432295D02*
X140755456Y-93632295D01*
X143465456Y-93632295D02*
X122805456Y-93632295D01*
X143465456Y-96432295D02*
X143465456Y-93632295D01*
%TO.C,U1*%
X136640455Y-69577296D02*
X136640455Y-71577296D01*
D16*
X137110455Y-61552296D02*
X151130455Y-61552296D01*
X151130455Y-91702296D01*
X137110455Y-91702296D01*
X137110455Y-61552296D01*
D15*
%TO.C,C2*%
X147975456Y-101037295D02*
X147975456Y-105577295D01*
X147990456Y-101037295D02*
X147975456Y-101037295D01*
X147990456Y-105577295D02*
X147975456Y-105577295D01*
X150115456Y-101037295D02*
X150100456Y-101037295D01*
X150115456Y-101037295D02*
X150115456Y-105577295D01*
X150115456Y-105577295D02*
X150100456Y-105577295D01*
%TO.C,U3*%
X138715456Y-111172295D02*
X138715456Y-116472295D01*
X138715456Y-116472295D02*
X159155456Y-116472295D01*
X159155456Y-111172295D02*
X138715456Y-111172295D01*
X159155456Y-112822295D02*
X159155456Y-111172295D01*
X159155456Y-116472295D02*
X159155456Y-114822295D01*
X159155456Y-114822295D02*
G75*
G02*
X159155456Y-112822295I0J1000000D01*
G01*
%TO.C,U2*%
X120450456Y-100267295D02*
X120450456Y-105567295D01*
X120450456Y-105567295D02*
X145970456Y-105567295D01*
X145970456Y-100267295D02*
X120450456Y-100267295D01*
X145970456Y-101917295D02*
X145970456Y-100267295D01*
X145970456Y-105567295D02*
X145970456Y-103917295D01*
X145970456Y-103917295D02*
G75*
G02*
X145970456Y-101917295I0J1000000D01*
G01*
%TO.C,R1*%
X159300456Y-97462295D02*
X159300456Y-104002295D01*
X159300456Y-104002295D02*
X162040456Y-104002295D01*
X160670456Y-96692295D02*
X160670456Y-97462295D01*
X160670456Y-104772295D02*
X160670456Y-104002295D01*
X162040456Y-97462295D02*
X159300456Y-97462295D01*
X162040456Y-104002295D02*
X162040456Y-97462295D01*
%TO.C,BAR1*%
X124990456Y-63629796D02*
X135430456Y-63629796D01*
X124990456Y-89309796D02*
X124990456Y-63629796D01*
X134020456Y-89599796D02*
X135720456Y-89599796D01*
X135430456Y-63629796D02*
X135430456Y-89309796D01*
X135430456Y-89309796D02*
X124990456Y-89309796D01*
X135720456Y-89599796D02*
X135720456Y-87899796D01*
%TO.C,R3*%
X150550456Y-97462295D02*
X150550456Y-104002295D01*
X150550456Y-104002295D02*
X153290456Y-104002295D01*
X151920456Y-96692295D02*
X151920456Y-97462295D01*
X151920456Y-104772295D02*
X151920456Y-104002295D01*
X153290456Y-97462295D02*
X150550456Y-97462295D01*
X153290456Y-104002295D02*
X153290456Y-97462295D01*
%TO.C,RN2*%
X119645456Y-66257296D02*
X119645456Y-86917296D01*
X119645456Y-84207296D02*
X122445456Y-84207296D01*
X119645456Y-86917296D02*
X122445456Y-86917296D01*
X122445456Y-66257296D02*
X119645456Y-66257296D01*
X122445456Y-86917296D02*
X122445456Y-66257296D01*
%TO.C,R8*%
X141880456Y-133326045D02*
X142650456Y-133326045D01*
X142650456Y-131956045D02*
X142650456Y-134696045D01*
X142650456Y-134696045D02*
X149190456Y-134696045D01*
X149190456Y-131956045D02*
X142650456Y-131956045D01*
X149190456Y-134696045D02*
X149190456Y-131956045D01*
X149960456Y-133326045D02*
X149190456Y-133326045D01*
%TO.C,C3*%
X134450456Y-111037295D02*
X134450456Y-115577295D01*
X134465456Y-111037295D02*
X134450456Y-111037295D01*
X134465456Y-115577295D02*
X134450456Y-115577295D01*
X136590456Y-111037295D02*
X136575456Y-111037295D01*
X136590456Y-111037295D02*
X136590456Y-115577295D01*
X136590456Y-115577295D02*
X136575456Y-115577295D01*
%TO.C,SW1*%
X155410456Y-105842295D02*
X158130456Y-105842295D01*
X158130456Y-95622295D01*
X155410456Y-95622295D01*
X155410456Y-105842295D01*
%TO.C,C1*%
X133720215Y-55393295D02*
X134350215Y-55393295D01*
X134035215Y-55078295D02*
X134035215Y-55708295D01*
X137220456Y-54002295D02*
X137220456Y-60462295D01*
X137260456Y-54002295D02*
X137260456Y-60462295D01*
X137300456Y-54002295D02*
X137300456Y-60462295D01*
X137340456Y-54004295D02*
X137340456Y-60460295D01*
X137380456Y-54005295D02*
X137380456Y-60459295D01*
X137420456Y-54008295D02*
X137420456Y-60456295D01*
X137460456Y-54010295D02*
X137460456Y-56192295D01*
X137460456Y-58272295D02*
X137460456Y-60454295D01*
X137500456Y-54014295D02*
X137500456Y-56192295D01*
X137500456Y-58272295D02*
X137500456Y-60450295D01*
X137540456Y-54017295D02*
X137540456Y-56192295D01*
X137540456Y-58272295D02*
X137540456Y-60447295D01*
X137580456Y-54021295D02*
X137580456Y-56192295D01*
X137580456Y-58272295D02*
X137580456Y-60443295D01*
X137620456Y-54026295D02*
X137620456Y-56192295D01*
X137620456Y-58272295D02*
X137620456Y-60438295D01*
X137660456Y-54031295D02*
X137660456Y-56192295D01*
X137660456Y-58272295D02*
X137660456Y-60433295D01*
X137700456Y-54037295D02*
X137700456Y-56192295D01*
X137700456Y-58272295D02*
X137700456Y-60427295D01*
X137740456Y-54043295D02*
X137740456Y-56192295D01*
X137740456Y-58272295D02*
X137740456Y-60421295D01*
X137780456Y-54050295D02*
X137780456Y-56192295D01*
X137780456Y-58272295D02*
X137780456Y-60414295D01*
X137820456Y-54057295D02*
X137820456Y-56192295D01*
X137820456Y-58272295D02*
X137820456Y-60407295D01*
X137860456Y-54065295D02*
X137860456Y-56192295D01*
X137860456Y-58272295D02*
X137860456Y-60399295D01*
X137900456Y-54073295D02*
X137900456Y-56192295D01*
X137900456Y-58272295D02*
X137900456Y-60391295D01*
X137941456Y-54082295D02*
X137941456Y-56192295D01*
X137941456Y-58272295D02*
X137941456Y-60382295D01*
X137981456Y-54091295D02*
X137981456Y-56192295D01*
X137981456Y-58272295D02*
X137981456Y-60373295D01*
X138021456Y-54101295D02*
X138021456Y-56192295D01*
X138021456Y-58272295D02*
X138021456Y-60363295D01*
X138061456Y-54111295D02*
X138061456Y-56192295D01*
X138061456Y-58272295D02*
X138061456Y-60353295D01*
X138101456Y-54122295D02*
X138101456Y-56192295D01*
X138101456Y-58272295D02*
X138101456Y-60342295D01*
X138141456Y-54134295D02*
X138141456Y-56192295D01*
X138141456Y-58272295D02*
X138141456Y-60330295D01*
X138181456Y-54146295D02*
X138181456Y-56192295D01*
X138181456Y-58272295D02*
X138181456Y-60318295D01*
X138221456Y-54158295D02*
X138221456Y-56192295D01*
X138221456Y-58272295D02*
X138221456Y-60306295D01*
X138261456Y-54171295D02*
X138261456Y-56192295D01*
X138261456Y-58272295D02*
X138261456Y-60293295D01*
X138301456Y-54185295D02*
X138301456Y-56192295D01*
X138301456Y-58272295D02*
X138301456Y-60279295D01*
X138341456Y-54199295D02*
X138341456Y-56192295D01*
X138341456Y-58272295D02*
X138341456Y-60265295D01*
X138381456Y-54214295D02*
X138381456Y-56192295D01*
X138381456Y-58272295D02*
X138381456Y-60250295D01*
X138421456Y-54230295D02*
X138421456Y-56192295D01*
X138421456Y-58272295D02*
X138421456Y-60234295D01*
X138461456Y-54246295D02*
X138461456Y-56192295D01*
X138461456Y-58272295D02*
X138461456Y-60218295D01*
X138501456Y-54262295D02*
X138501456Y-56192295D01*
X138501456Y-58272295D02*
X138501456Y-60202295D01*
X138541456Y-54280295D02*
X138541456Y-56192295D01*
X138541456Y-58272295D02*
X138541456Y-60184295D01*
X138581456Y-54298295D02*
X138581456Y-56192295D01*
X138581456Y-58272295D02*
X138581456Y-60166295D01*
X138621456Y-54316295D02*
X138621456Y-56192295D01*
X138621456Y-58272295D02*
X138621456Y-60148295D01*
X138661456Y-54336295D02*
X138661456Y-56192295D01*
X138661456Y-58272295D02*
X138661456Y-60128295D01*
X138701456Y-54356295D02*
X138701456Y-56192295D01*
X138701456Y-58272295D02*
X138701456Y-60108295D01*
X138741456Y-54376295D02*
X138741456Y-56192295D01*
X138741456Y-58272295D02*
X138741456Y-60088295D01*
X138781456Y-54398295D02*
X138781456Y-56192295D01*
X138781456Y-58272295D02*
X138781456Y-60066295D01*
X138821456Y-54420295D02*
X138821456Y-56192295D01*
X138821456Y-58272295D02*
X138821456Y-60044295D01*
X138861456Y-54442295D02*
X138861456Y-56192295D01*
X138861456Y-58272295D02*
X138861456Y-60022295D01*
X138901456Y-54466295D02*
X138901456Y-56192295D01*
X138901456Y-58272295D02*
X138901456Y-59998295D01*
X138941456Y-54490295D02*
X138941456Y-56192295D01*
X138941456Y-58272295D02*
X138941456Y-59974295D01*
X138981456Y-54516295D02*
X138981456Y-56192295D01*
X138981456Y-58272295D02*
X138981456Y-59948295D01*
X139021456Y-54542295D02*
X139021456Y-56192295D01*
X139021456Y-58272295D02*
X139021456Y-59922295D01*
X139061456Y-54568295D02*
X139061456Y-56192295D01*
X139061456Y-58272295D02*
X139061456Y-59896295D01*
X139101456Y-54596295D02*
X139101456Y-56192295D01*
X139101456Y-58272295D02*
X139101456Y-59868295D01*
X139141456Y-54625295D02*
X139141456Y-56192295D01*
X139141456Y-58272295D02*
X139141456Y-59839295D01*
X139181456Y-54654295D02*
X139181456Y-56192295D01*
X139181456Y-58272295D02*
X139181456Y-59810295D01*
X139221456Y-54684295D02*
X139221456Y-56192295D01*
X139221456Y-58272295D02*
X139221456Y-59780295D01*
X139261456Y-54716295D02*
X139261456Y-56192295D01*
X139261456Y-58272295D02*
X139261456Y-59748295D01*
X139301456Y-54748295D02*
X139301456Y-56192295D01*
X139301456Y-58272295D02*
X139301456Y-59716295D01*
X139341456Y-54782295D02*
X139341456Y-56192295D01*
X139341456Y-58272295D02*
X139341456Y-59682295D01*
X139381456Y-54816295D02*
X139381456Y-56192295D01*
X139381456Y-58272295D02*
X139381456Y-59648295D01*
X139421456Y-54852295D02*
X139421456Y-56192295D01*
X139421456Y-58272295D02*
X139421456Y-59612295D01*
X139461456Y-54889295D02*
X139461456Y-56192295D01*
X139461456Y-58272295D02*
X139461456Y-59575295D01*
X139501456Y-54927295D02*
X139501456Y-56192295D01*
X139501456Y-58272295D02*
X139501456Y-59537295D01*
X139541456Y-54967295D02*
X139541456Y-59497295D01*
X139581456Y-55008295D02*
X139581456Y-59456295D01*
X139621456Y-55050295D02*
X139621456Y-59414295D01*
X139661456Y-55095295D02*
X139661456Y-59369295D01*
X139701456Y-55140295D02*
X139701456Y-59324295D01*
X139741456Y-55188295D02*
X139741456Y-59276295D01*
X139781456Y-55237295D02*
X139781456Y-59227295D01*
X139821456Y-55288295D02*
X139821456Y-59176295D01*
X139861456Y-55342295D02*
X139861456Y-59122295D01*
X139901456Y-55398295D02*
X139901456Y-59066295D01*
X139941456Y-55456295D02*
X139941456Y-59008295D01*
X139981456Y-55518295D02*
X139981456Y-58946295D01*
X140021456Y-55582295D02*
X140021456Y-58882295D01*
X140061456Y-55651295D02*
X140061456Y-58813295D01*
X140101456Y-55723295D02*
X140101456Y-58741295D01*
X140141456Y-55800295D02*
X140141456Y-58664295D01*
X140181456Y-55882295D02*
X140181456Y-58582295D01*
X140221456Y-55970295D02*
X140221456Y-58494295D01*
X140261456Y-56067295D02*
X140261456Y-58397295D01*
X140301456Y-56173295D02*
X140301456Y-58291295D01*
X140341456Y-56292295D02*
X140341456Y-58172295D01*
X140381456Y-56430295D02*
X140381456Y-58034295D01*
X140421456Y-56599295D02*
X140421456Y-57865295D01*
X140461456Y-56830295D02*
X140461456Y-57634295D01*
X140490456Y-57232295D02*
G75*
G02*
X133950456Y-57232295I-3270000J0D01*
G01*
X133950456Y-57232295D02*
G75*
G02*
X140490456Y-57232295I3270000J0D01*
G01*
%TO.C,D1*%
X145935456Y-56652295D02*
X145935456Y-56496295D01*
X145935456Y-58968295D02*
X145935456Y-58812295D01*
X142704059Y-56652234D02*
G75*
G02*
X145935456Y-56496779I1671397J-1080061D01*
G01*
X143334546Y-56652246D02*
G75*
G02*
X145416417Y-56652295I1040910J-1080049D01*
G01*
X145416417Y-58812295D02*
G75*
G02*
X143334546Y-58812344I-1040961J1080000D01*
G01*
X145935456Y-58967811D02*
G75*
G02*
X142704059Y-58812356I-1560000J1235516D01*
G01*
%TO.C,JP1*%
X129790456Y-52077295D02*
X131120456Y-52077295D01*
X129790456Y-53407295D02*
X129790456Y-52077295D01*
X129790456Y-54677295D02*
X129790456Y-57277295D01*
X129790456Y-54677295D02*
X132450456Y-54677295D01*
X129790456Y-57277295D02*
X132450456Y-57277295D01*
X132450456Y-54677295D02*
X132450456Y-57277295D01*
%TO.C,R6*%
X141860456Y-127013545D02*
X142630456Y-127013545D01*
X142630456Y-125643545D02*
X142630456Y-128383545D01*
X142630456Y-128383545D02*
X149170456Y-128383545D01*
X149170456Y-125643545D02*
X142630456Y-125643545D01*
X149170456Y-128383545D02*
X149170456Y-125643545D01*
X149940456Y-127013545D02*
X149170456Y-127013545D01*
D17*
%TO.C,G\u002A\u002A\u002A*%
G36*
X160672332Y-73757295D02*
G01*
X160672332Y-75556263D01*
X160505541Y-75556263D01*
X160338749Y-75556263D01*
X160338749Y-73757295D01*
X160338749Y-71958327D01*
X160505541Y-71958327D01*
X160672332Y-71958327D01*
X160672332Y-73757295D01*
G37*
G36*
X157158465Y-71958327D02*
G01*
X158294051Y-71958327D01*
X159743064Y-71958327D01*
X160243439Y-71958327D01*
X160243439Y-73757295D01*
X160243439Y-75556263D01*
X158299674Y-75556263D01*
X156355909Y-75556263D01*
X156288180Y-75488534D01*
X156267271Y-75462539D01*
X156244090Y-75422280D01*
X156216985Y-75363382D01*
X156184307Y-75281469D01*
X156144404Y-75172165D01*
X156095626Y-75031092D01*
X156036321Y-74853875D01*
X155964839Y-74636137D01*
X155953373Y-74600964D01*
X155908583Y-74463568D01*
X156410698Y-74463568D01*
X156412430Y-74598197D01*
X156427919Y-74711370D01*
X156431439Y-74725107D01*
X156487009Y-74853186D01*
X156572018Y-74959357D01*
X156677656Y-75036025D01*
X156795117Y-75075590D01*
X156842079Y-75079323D01*
X156900711Y-75076205D01*
X156925816Y-75058935D01*
X156931407Y-75016694D01*
X156931432Y-75010327D01*
X156926339Y-74965091D01*
X156902210Y-74941058D01*
X156845772Y-74926515D01*
X156834195Y-74924512D01*
X156717285Y-74882933D01*
X156627098Y-74806138D01*
X156567338Y-74700639D01*
X156541711Y-74572948D01*
X156553548Y-74431324D01*
X156600565Y-74317885D01*
X156685580Y-74229566D01*
X156805084Y-74168065D01*
X156955570Y-74135085D01*
X157133531Y-74132325D01*
X157164967Y-74134861D01*
X157324652Y-74165675D01*
X157446148Y-74224884D01*
X157529730Y-74312746D01*
X157575671Y-74429519D01*
X157585596Y-74531791D01*
X157568014Y-74660892D01*
X157518687Y-74770786D01*
X157443663Y-74853976D01*
X157348988Y-74902965D01*
X157278112Y-74912924D01*
X157237215Y-74918871D01*
X157220356Y-74946073D01*
X157217361Y-74997153D01*
X157217361Y-75081382D01*
X157461591Y-75074592D01*
X157571541Y-75070999D01*
X157642709Y-75066116D01*
X157683961Y-75057750D01*
X157704162Y-75043710D01*
X157712177Y-75021803D01*
X157713690Y-75012257D01*
X157701801Y-74951628D01*
X157678391Y-74925149D01*
X157654889Y-74904553D01*
X157647545Y-74879755D01*
X157656575Y-74837111D01*
X157680873Y-74766644D01*
X157721142Y-74595595D01*
X157723011Y-74423946D01*
X157689552Y-74259261D01*
X157623837Y-74109104D01*
X157528938Y-73981041D01*
X157407926Y-73882636D01*
X157301630Y-73832761D01*
X157136332Y-73797888D01*
X156971712Y-73802104D01*
X156815492Y-73841975D01*
X156675390Y-73914066D01*
X156559125Y-74014945D01*
X156474416Y-74141176D01*
X156446115Y-74213353D01*
X156422125Y-74328336D01*
X156410698Y-74463568D01*
X155908583Y-74463568D01*
X155891993Y-74412677D01*
X155835287Y-74238974D01*
X155784939Y-74084996D01*
X155742633Y-73955884D01*
X155710055Y-73856779D01*
X155688889Y-73792823D01*
X155680844Y-73769209D01*
X155686756Y-73744635D01*
X155705978Y-73679887D01*
X155736900Y-73580052D01*
X155777916Y-73450215D01*
X155827418Y-73295464D01*
X155883799Y-73120884D01*
X155896599Y-73081579D01*
X156410698Y-73081579D01*
X156412430Y-73216208D01*
X156427919Y-73329381D01*
X156431439Y-73343118D01*
X156487009Y-73471197D01*
X156572018Y-73577369D01*
X156677656Y-73654036D01*
X156795117Y-73693602D01*
X156842079Y-73697335D01*
X156900760Y-73694137D01*
X156925885Y-73676906D01*
X156931418Y-73635237D01*
X156931432Y-73630749D01*
X156926464Y-73589384D01*
X156903633Y-73563639D01*
X156851048Y-73543601D01*
X156815408Y-73534035D01*
X156693850Y-73482464D01*
X156607691Y-73399012D01*
X156556696Y-73283443D01*
X156553239Y-73268833D01*
X156540213Y-73121666D01*
X156568278Y-72995686D01*
X156634811Y-72893105D01*
X156737190Y-72816135D01*
X156872791Y-72766990D01*
X157038992Y-72747882D01*
X157136332Y-72751738D01*
X157164967Y-72752872D01*
X157324652Y-72783687D01*
X157446148Y-72842895D01*
X157529730Y-72930757D01*
X157575671Y-73047530D01*
X157585596Y-73149802D01*
X157568014Y-73278904D01*
X157518687Y-73388797D01*
X157443663Y-73471987D01*
X157348988Y-73520977D01*
X157278112Y-73530935D01*
X157237215Y-73536882D01*
X157220356Y-73564085D01*
X157217361Y-73615164D01*
X157217361Y-73699394D01*
X157461591Y-73692603D01*
X157571541Y-73689010D01*
X157642709Y-73684127D01*
X157683961Y-73675761D01*
X157704162Y-73661721D01*
X157712177Y-73639814D01*
X157713690Y-73630268D01*
X157701801Y-73569639D01*
X157678391Y-73543160D01*
X157654903Y-73522576D01*
X157647556Y-73497784D01*
X157656570Y-73455157D01*
X157680948Y-73384446D01*
X157721153Y-73212821D01*
X157723963Y-73036242D01*
X157690867Y-72866598D01*
X157635202Y-72742235D01*
X157865058Y-72742235D01*
X157866089Y-72826610D01*
X157872614Y-73209265D01*
X157961967Y-73216660D01*
X158051319Y-73224055D01*
X158051319Y-73117096D01*
X158051732Y-73065645D01*
X158056299Y-73024945D01*
X158070014Y-72993744D01*
X158097873Y-72970791D01*
X158144868Y-72954837D01*
X158215995Y-72944630D01*
X158316247Y-72938920D01*
X158450618Y-72936456D01*
X158624103Y-72935989D01*
X158773800Y-72936183D01*
X158965364Y-72936619D01*
X159113751Y-72937506D01*
X159223438Y-72939139D01*
X159298900Y-72941812D01*
X159344616Y-72945821D01*
X159365063Y-72951459D01*
X159364716Y-72959022D01*
X159348054Y-72968805D01*
X159337999Y-72973329D01*
X159295304Y-72991259D01*
X159214686Y-73024543D01*
X159102384Y-73070625D01*
X158964637Y-73126953D01*
X158807684Y-73190973D01*
X158637764Y-73260131D01*
X158575522Y-73285427D01*
X158406215Y-73354812D01*
X158251150Y-73419513D01*
X158115863Y-73477131D01*
X158005894Y-73525261D01*
X157926779Y-73561503D01*
X157884058Y-73583454D01*
X157878309Y-73587821D01*
X157867604Y-73628222D01*
X157866018Y-73690739D01*
X157866395Y-73696309D01*
X157872614Y-73778287D01*
X158647004Y-74089461D01*
X159421394Y-74400635D01*
X158769051Y-74406980D01*
X158550980Y-74408350D01*
X158377870Y-74407709D01*
X158247065Y-74404976D01*
X158155910Y-74400071D01*
X158101749Y-74392913D01*
X158084013Y-74386192D01*
X158062680Y-74343784D01*
X158051979Y-74268464D01*
X158051319Y-74241401D01*
X158051319Y-74123743D01*
X157961967Y-74131138D01*
X157872614Y-74138533D01*
X157872614Y-74603167D01*
X157872614Y-75067802D01*
X157961967Y-75075197D01*
X158051319Y-75082592D01*
X158051319Y-74975632D01*
X158051614Y-74925293D01*
X158055746Y-74885218D01*
X158068589Y-74854241D01*
X158095018Y-74831195D01*
X158139905Y-74814914D01*
X158208126Y-74804232D01*
X158304553Y-74797981D01*
X158434061Y-74794995D01*
X158601522Y-74794108D01*
X158809541Y-74794151D01*
X158986481Y-74794952D01*
X159148698Y-74797033D01*
X159289846Y-74800206D01*
X159403579Y-74804283D01*
X159483549Y-74809074D01*
X159523410Y-74814392D01*
X159525914Y-74815439D01*
X159547046Y-74849732D01*
X159564452Y-74914126D01*
X159570644Y-74958039D01*
X159579043Y-75029410D01*
X159592494Y-75065411D01*
X159620210Y-75078145D01*
X159663276Y-75079715D01*
X159744216Y-75079715D01*
X159737683Y-74683413D01*
X159731151Y-74287110D01*
X159081478Y-74031755D01*
X158916238Y-73966615D01*
X158765835Y-73906957D01*
X158635867Y-73855031D01*
X158531935Y-73813088D01*
X158459639Y-73783377D01*
X158424577Y-73768149D01*
X158422203Y-73766797D01*
X158439733Y-73755128D01*
X158494370Y-73729101D01*
X158578920Y-73691913D01*
X158686189Y-73646761D01*
X158762119Y-73615698D01*
X158917233Y-73552799D01*
X159090191Y-73482496D01*
X159261183Y-73412850D01*
X159410400Y-73351923D01*
X159427351Y-73344987D01*
X159743064Y-73215773D01*
X159743064Y-72813410D01*
X159743064Y-72411047D01*
X159659668Y-72411047D01*
X159605752Y-72414090D01*
X159582175Y-72432499D01*
X159576405Y-72480201D01*
X159576272Y-72503717D01*
X159561781Y-72592635D01*
X159530758Y-72652638D01*
X159515831Y-72669872D01*
X159498456Y-72683242D01*
X159472753Y-72693326D01*
X159432843Y-72700697D01*
X159372846Y-72705932D01*
X159286884Y-72709607D01*
X159169077Y-72712298D01*
X159013546Y-72714579D01*
X158881462Y-72716211D01*
X158712265Y-72717676D01*
X158555192Y-72717929D01*
X158417694Y-72717048D01*
X158307227Y-72715106D01*
X158231243Y-72712180D01*
X158201007Y-72709319D01*
X158117396Y-72680208D01*
X158069654Y-72626148D01*
X158051822Y-72539464D01*
X158051319Y-72516569D01*
X158049361Y-72451357D01*
X158036928Y-72420730D01*
X158004187Y-72411620D01*
X157971895Y-72411047D01*
X157912823Y-72415569D01*
X157877100Y-72426550D01*
X157876017Y-72427501D01*
X157870834Y-72455774D01*
X157867140Y-72523266D01*
X157865145Y-72621559D01*
X157865058Y-72742235D01*
X157635202Y-72742235D01*
X157623358Y-72715773D01*
X157591171Y-72668704D01*
X157468488Y-72544728D01*
X157322565Y-72460617D01*
X157158465Y-72417896D01*
X156981252Y-72418092D01*
X156849734Y-72445270D01*
X156714928Y-72505873D01*
X156594387Y-72600043D01*
X156499635Y-72716758D01*
X156446115Y-72831364D01*
X156422125Y-72946347D01*
X156410698Y-73081579D01*
X155896599Y-73081579D01*
X155945453Y-72931562D01*
X155948142Y-72923336D01*
X156025855Y-72687533D01*
X156091107Y-72493775D01*
X156145227Y-72338491D01*
X156189543Y-72218111D01*
X156225385Y-72129064D01*
X156254080Y-72067779D01*
X156276957Y-72030684D01*
X156282778Y-72023852D01*
X156344663Y-71958327D01*
X157158465Y-71958327D01*
G37*
D15*
%TO.C,J1*%
X135490456Y-120537295D02*
X136820456Y-120537295D01*
X135490456Y-121867295D02*
X135490456Y-120537295D01*
X135490456Y-123137295D02*
X135490456Y-133357295D01*
X135490456Y-123137295D02*
X138150456Y-123137295D01*
X135490456Y-133357295D02*
X138150456Y-133357295D01*
X138150456Y-123137295D02*
X138150456Y-133357295D01*
%TD*%
M02*
