%TF.GenerationSoftware,KiCad,Pcbnew,9.0.1+1*%
%TF.CreationDate,2026-04-07T17:50:24+00:00*%
%TF.ProjectId,CSC202_LED_MODULE,43534332-3032-45f4-9c45-445f4d4f4455,A*%
%TF.SameCoordinates,Original*%
%TF.FileFunction,AssemblyDrawing,Top*%
%FSLAX46Y46*%
G04 Gerber Fmt 4.6, Leading zero omitted, Abs format (unit mm)*
G04 Created by KiCad (PCBNEW 9.0.1+1) date 2026-04-07 17:50:24*
%MOMM*%
%LPD*%
G01*
G04 APERTURE LIST*
%ADD10C,0.150000*%
%ADD11C,0.129000*%
%ADD12C,0.100000*%
%ADD13C,0.120000*%
G04 APERTURE END LIST*
D10*
X132320476Y-59086292D02*
X132368095Y-59038673D01*
X132368095Y-59038673D02*
X132463333Y-58991054D01*
X132463333Y-58991054D02*
X132701428Y-58991054D01*
X132701428Y-58991054D02*
X132796666Y-59038673D01*
X132796666Y-59038673D02*
X132844285Y-59086292D01*
X132844285Y-59086292D02*
X132891904Y-59181530D01*
X132891904Y-59181530D02*
X132891904Y-59276768D01*
X132891904Y-59276768D02*
X132844285Y-59419625D01*
X132844285Y-59419625D02*
X132272857Y-59991054D01*
X132272857Y-59991054D02*
X132891904Y-59991054D01*
X133272857Y-59086292D02*
X133320476Y-59038673D01*
X133320476Y-59038673D02*
X133415714Y-58991054D01*
X133415714Y-58991054D02*
X133653809Y-58991054D01*
X133653809Y-58991054D02*
X133749047Y-59038673D01*
X133749047Y-59038673D02*
X133796666Y-59086292D01*
X133796666Y-59086292D02*
X133844285Y-59181530D01*
X133844285Y-59181530D02*
X133844285Y-59276768D01*
X133844285Y-59276768D02*
X133796666Y-59419625D01*
X133796666Y-59419625D02*
X133225238Y-59991054D01*
X133225238Y-59991054D02*
X133844285Y-59991054D01*
X134463333Y-58991054D02*
X134558571Y-58991054D01*
X134558571Y-58991054D02*
X134653809Y-59038673D01*
X134653809Y-59038673D02*
X134701428Y-59086292D01*
X134701428Y-59086292D02*
X134749047Y-59181530D01*
X134749047Y-59181530D02*
X134796666Y-59372006D01*
X134796666Y-59372006D02*
X134796666Y-59610101D01*
X134796666Y-59610101D02*
X134749047Y-59800577D01*
X134749047Y-59800577D02*
X134701428Y-59895815D01*
X134701428Y-59895815D02*
X134653809Y-59943435D01*
X134653809Y-59943435D02*
X134558571Y-59991054D01*
X134558571Y-59991054D02*
X134463333Y-59991054D01*
X134463333Y-59991054D02*
X134368095Y-59943435D01*
X134368095Y-59943435D02*
X134320476Y-59895815D01*
X134320476Y-59895815D02*
X134272857Y-59800577D01*
X134272857Y-59800577D02*
X134225238Y-59610101D01*
X134225238Y-59610101D02*
X134225238Y-59372006D01*
X134225238Y-59372006D02*
X134272857Y-59181530D01*
X134272857Y-59181530D02*
X134320476Y-59086292D01*
X134320476Y-59086292D02*
X134368095Y-59038673D01*
X134368095Y-59038673D02*
X134463333Y-58991054D01*
X135177619Y-59991054D02*
X135415714Y-59991054D01*
X135415714Y-59991054D02*
X135415714Y-59800577D01*
X135415714Y-59800577D02*
X135320476Y-59752958D01*
X135320476Y-59752958D02*
X135225238Y-59657720D01*
X135225238Y-59657720D02*
X135177619Y-59514863D01*
X135177619Y-59514863D02*
X135177619Y-59276768D01*
X135177619Y-59276768D02*
X135225238Y-59133911D01*
X135225238Y-59133911D02*
X135320476Y-59038673D01*
X135320476Y-59038673D02*
X135463333Y-58991054D01*
X135463333Y-58991054D02*
X135653809Y-58991054D01*
X135653809Y-58991054D02*
X135796666Y-59038673D01*
X135796666Y-59038673D02*
X135891904Y-59133911D01*
X135891904Y-59133911D02*
X135939523Y-59276768D01*
X135939523Y-59276768D02*
X135939523Y-59514863D01*
X135939523Y-59514863D02*
X135891904Y-59657720D01*
X135891904Y-59657720D02*
X135796666Y-59752958D01*
X135796666Y-59752958D02*
X135701428Y-59800577D01*
X135701428Y-59800577D02*
X135701428Y-59991054D01*
X135701428Y-59991054D02*
X135939523Y-59991054D01*
X126793287Y-59991054D02*
X126459954Y-59514863D01*
X126221859Y-59991054D02*
X126221859Y-58991054D01*
X126221859Y-58991054D02*
X126602811Y-58991054D01*
X126602811Y-58991054D02*
X126698049Y-59038673D01*
X126698049Y-59038673D02*
X126745668Y-59086292D01*
X126745668Y-59086292D02*
X126793287Y-59181530D01*
X126793287Y-59181530D02*
X126793287Y-59324387D01*
X126793287Y-59324387D02*
X126745668Y-59419625D01*
X126745668Y-59419625D02*
X126698049Y-59467244D01*
X126698049Y-59467244D02*
X126602811Y-59514863D01*
X126602811Y-59514863D02*
X126221859Y-59514863D01*
X127174240Y-59086292D02*
X127221859Y-59038673D01*
X127221859Y-59038673D02*
X127317097Y-58991054D01*
X127317097Y-58991054D02*
X127555192Y-58991054D01*
X127555192Y-58991054D02*
X127650430Y-59038673D01*
X127650430Y-59038673D02*
X127698049Y-59086292D01*
X127698049Y-59086292D02*
X127745668Y-59181530D01*
X127745668Y-59181530D02*
X127745668Y-59276768D01*
X127745668Y-59276768D02*
X127698049Y-59419625D01*
X127698049Y-59419625D02*
X127126621Y-59991054D01*
X127126621Y-59991054D02*
X127745668Y-59991054D01*
X145809048Y-132794819D02*
X146428095Y-132794819D01*
X146428095Y-132794819D02*
X146094762Y-133175771D01*
X146094762Y-133175771D02*
X146237619Y-133175771D01*
X146237619Y-133175771D02*
X146332857Y-133223390D01*
X146332857Y-133223390D02*
X146380476Y-133271009D01*
X146380476Y-133271009D02*
X146428095Y-133366247D01*
X146428095Y-133366247D02*
X146428095Y-133604342D01*
X146428095Y-133604342D02*
X146380476Y-133699580D01*
X146380476Y-133699580D02*
X146332857Y-133747200D01*
X146332857Y-133747200D02*
X146237619Y-133794819D01*
X146237619Y-133794819D02*
X145951905Y-133794819D01*
X145951905Y-133794819D02*
X145856667Y-133747200D01*
X145856667Y-133747200D02*
X145809048Y-133699580D01*
X146761429Y-132794819D02*
X147380476Y-132794819D01*
X147380476Y-132794819D02*
X147047143Y-133175771D01*
X147047143Y-133175771D02*
X147190000Y-133175771D01*
X147190000Y-133175771D02*
X147285238Y-133223390D01*
X147285238Y-133223390D02*
X147332857Y-133271009D01*
X147332857Y-133271009D02*
X147380476Y-133366247D01*
X147380476Y-133366247D02*
X147380476Y-133604342D01*
X147380476Y-133604342D02*
X147332857Y-133699580D01*
X147332857Y-133699580D02*
X147285238Y-133747200D01*
X147285238Y-133747200D02*
X147190000Y-133794819D01*
X147190000Y-133794819D02*
X146904286Y-133794819D01*
X146904286Y-133794819D02*
X146809048Y-133747200D01*
X146809048Y-133747200D02*
X146761429Y-133699580D01*
X147761429Y-133794819D02*
X147999524Y-133794819D01*
X147999524Y-133794819D02*
X147999524Y-133604342D01*
X147999524Y-133604342D02*
X147904286Y-133556723D01*
X147904286Y-133556723D02*
X147809048Y-133461485D01*
X147809048Y-133461485D02*
X147761429Y-133318628D01*
X147761429Y-133318628D02*
X147761429Y-133080533D01*
X147761429Y-133080533D02*
X147809048Y-132937676D01*
X147809048Y-132937676D02*
X147904286Y-132842438D01*
X147904286Y-132842438D02*
X148047143Y-132794819D01*
X148047143Y-132794819D02*
X148237619Y-132794819D01*
X148237619Y-132794819D02*
X148380476Y-132842438D01*
X148380476Y-132842438D02*
X148475714Y-132937676D01*
X148475714Y-132937676D02*
X148523333Y-133080533D01*
X148523333Y-133080533D02*
X148523333Y-133318628D01*
X148523333Y-133318628D02*
X148475714Y-133461485D01*
X148475714Y-133461485D02*
X148380476Y-133556723D01*
X148380476Y-133556723D02*
X148285238Y-133604342D01*
X148285238Y-133604342D02*
X148285238Y-133794819D01*
X148285238Y-133794819D02*
X148523333Y-133794819D01*
X143803333Y-130624614D02*
X143470000Y-130148423D01*
X143231905Y-130624614D02*
X143231905Y-129624614D01*
X143231905Y-129624614D02*
X143612857Y-129624614D01*
X143612857Y-129624614D02*
X143708095Y-129672233D01*
X143708095Y-129672233D02*
X143755714Y-129719852D01*
X143755714Y-129719852D02*
X143803333Y-129815090D01*
X143803333Y-129815090D02*
X143803333Y-129957947D01*
X143803333Y-129957947D02*
X143755714Y-130053185D01*
X143755714Y-130053185D02*
X143708095Y-130100804D01*
X143708095Y-130100804D02*
X143612857Y-130148423D01*
X143612857Y-130148423D02*
X143231905Y-130148423D01*
X144136667Y-129624614D02*
X144803333Y-129624614D01*
X144803333Y-129624614D02*
X144374762Y-130624614D01*
X145809048Y-126494819D02*
X146428095Y-126494819D01*
X146428095Y-126494819D02*
X146094762Y-126875771D01*
X146094762Y-126875771D02*
X146237619Y-126875771D01*
X146237619Y-126875771D02*
X146332857Y-126923390D01*
X146332857Y-126923390D02*
X146380476Y-126971009D01*
X146380476Y-126971009D02*
X146428095Y-127066247D01*
X146428095Y-127066247D02*
X146428095Y-127304342D01*
X146428095Y-127304342D02*
X146380476Y-127399580D01*
X146380476Y-127399580D02*
X146332857Y-127447200D01*
X146332857Y-127447200D02*
X146237619Y-127494819D01*
X146237619Y-127494819D02*
X145951905Y-127494819D01*
X145951905Y-127494819D02*
X145856667Y-127447200D01*
X145856667Y-127447200D02*
X145809048Y-127399580D01*
X146761429Y-126494819D02*
X147380476Y-126494819D01*
X147380476Y-126494819D02*
X147047143Y-126875771D01*
X147047143Y-126875771D02*
X147190000Y-126875771D01*
X147190000Y-126875771D02*
X147285238Y-126923390D01*
X147285238Y-126923390D02*
X147332857Y-126971009D01*
X147332857Y-126971009D02*
X147380476Y-127066247D01*
X147380476Y-127066247D02*
X147380476Y-127304342D01*
X147380476Y-127304342D02*
X147332857Y-127399580D01*
X147332857Y-127399580D02*
X147285238Y-127447200D01*
X147285238Y-127447200D02*
X147190000Y-127494819D01*
X147190000Y-127494819D02*
X146904286Y-127494819D01*
X146904286Y-127494819D02*
X146809048Y-127447200D01*
X146809048Y-127447200D02*
X146761429Y-127399580D01*
X147761429Y-127494819D02*
X147999524Y-127494819D01*
X147999524Y-127494819D02*
X147999524Y-127304342D01*
X147999524Y-127304342D02*
X147904286Y-127256723D01*
X147904286Y-127256723D02*
X147809048Y-127161485D01*
X147809048Y-127161485D02*
X147761429Y-127018628D01*
X147761429Y-127018628D02*
X147761429Y-126780533D01*
X147761429Y-126780533D02*
X147809048Y-126637676D01*
X147809048Y-126637676D02*
X147904286Y-126542438D01*
X147904286Y-126542438D02*
X148047143Y-126494819D01*
X148047143Y-126494819D02*
X148237619Y-126494819D01*
X148237619Y-126494819D02*
X148380476Y-126542438D01*
X148380476Y-126542438D02*
X148475714Y-126637676D01*
X148475714Y-126637676D02*
X148523333Y-126780533D01*
X148523333Y-126780533D02*
X148523333Y-127018628D01*
X148523333Y-127018628D02*
X148475714Y-127161485D01*
X148475714Y-127161485D02*
X148380476Y-127256723D01*
X148380476Y-127256723D02*
X148285238Y-127304342D01*
X148285238Y-127304342D02*
X148285238Y-127494819D01*
X148285238Y-127494819D02*
X148523333Y-127494819D01*
X143803333Y-124312114D02*
X143470000Y-123835923D01*
X143231905Y-124312114D02*
X143231905Y-123312114D01*
X143231905Y-123312114D02*
X143612857Y-123312114D01*
X143612857Y-123312114D02*
X143708095Y-123359733D01*
X143708095Y-123359733D02*
X143755714Y-123407352D01*
X143755714Y-123407352D02*
X143803333Y-123502590D01*
X143803333Y-123502590D02*
X143803333Y-123645447D01*
X143803333Y-123645447D02*
X143755714Y-123740685D01*
X143755714Y-123740685D02*
X143708095Y-123788304D01*
X143708095Y-123788304D02*
X143612857Y-123835923D01*
X143612857Y-123835923D02*
X143231905Y-123835923D01*
X144708095Y-123312114D02*
X144231905Y-123312114D01*
X144231905Y-123312114D02*
X144184286Y-123788304D01*
X144184286Y-123788304D02*
X144231905Y-123740685D01*
X144231905Y-123740685D02*
X144327143Y-123693066D01*
X144327143Y-123693066D02*
X144565238Y-123693066D01*
X144565238Y-123693066D02*
X144660476Y-123740685D01*
X144660476Y-123740685D02*
X144708095Y-123788304D01*
X144708095Y-123788304D02*
X144755714Y-123883542D01*
X144755714Y-123883542D02*
X144755714Y-124121637D01*
X144755714Y-124121637D02*
X144708095Y-124216875D01*
X144708095Y-124216875D02*
X144660476Y-124264495D01*
X144660476Y-124264495D02*
X144565238Y-124312114D01*
X144565238Y-124312114D02*
X144327143Y-124312114D01*
X144327143Y-124312114D02*
X144231905Y-124264495D01*
X144231905Y-124264495D02*
X144184286Y-124216875D01*
X145809048Y-123344819D02*
X146428095Y-123344819D01*
X146428095Y-123344819D02*
X146094762Y-123725771D01*
X146094762Y-123725771D02*
X146237619Y-123725771D01*
X146237619Y-123725771D02*
X146332857Y-123773390D01*
X146332857Y-123773390D02*
X146380476Y-123821009D01*
X146380476Y-123821009D02*
X146428095Y-123916247D01*
X146428095Y-123916247D02*
X146428095Y-124154342D01*
X146428095Y-124154342D02*
X146380476Y-124249580D01*
X146380476Y-124249580D02*
X146332857Y-124297200D01*
X146332857Y-124297200D02*
X146237619Y-124344819D01*
X146237619Y-124344819D02*
X145951905Y-124344819D01*
X145951905Y-124344819D02*
X145856667Y-124297200D01*
X145856667Y-124297200D02*
X145809048Y-124249580D01*
X146761429Y-123344819D02*
X147380476Y-123344819D01*
X147380476Y-123344819D02*
X147047143Y-123725771D01*
X147047143Y-123725771D02*
X147190000Y-123725771D01*
X147190000Y-123725771D02*
X147285238Y-123773390D01*
X147285238Y-123773390D02*
X147332857Y-123821009D01*
X147332857Y-123821009D02*
X147380476Y-123916247D01*
X147380476Y-123916247D02*
X147380476Y-124154342D01*
X147380476Y-124154342D02*
X147332857Y-124249580D01*
X147332857Y-124249580D02*
X147285238Y-124297200D01*
X147285238Y-124297200D02*
X147190000Y-124344819D01*
X147190000Y-124344819D02*
X146904286Y-124344819D01*
X146904286Y-124344819D02*
X146809048Y-124297200D01*
X146809048Y-124297200D02*
X146761429Y-124249580D01*
X147761429Y-124344819D02*
X147999524Y-124344819D01*
X147999524Y-124344819D02*
X147999524Y-124154342D01*
X147999524Y-124154342D02*
X147904286Y-124106723D01*
X147904286Y-124106723D02*
X147809048Y-124011485D01*
X147809048Y-124011485D02*
X147761429Y-123868628D01*
X147761429Y-123868628D02*
X147761429Y-123630533D01*
X147761429Y-123630533D02*
X147809048Y-123487676D01*
X147809048Y-123487676D02*
X147904286Y-123392438D01*
X147904286Y-123392438D02*
X148047143Y-123344819D01*
X148047143Y-123344819D02*
X148237619Y-123344819D01*
X148237619Y-123344819D02*
X148380476Y-123392438D01*
X148380476Y-123392438D02*
X148475714Y-123487676D01*
X148475714Y-123487676D02*
X148523333Y-123630533D01*
X148523333Y-123630533D02*
X148523333Y-123868628D01*
X148523333Y-123868628D02*
X148475714Y-124011485D01*
X148475714Y-124011485D02*
X148380476Y-124106723D01*
X148380476Y-124106723D02*
X148285238Y-124154342D01*
X148285238Y-124154342D02*
X148285238Y-124344819D01*
X148285238Y-124344819D02*
X148523333Y-124344819D01*
X143803333Y-121155864D02*
X143470000Y-120679673D01*
X143231905Y-121155864D02*
X143231905Y-120155864D01*
X143231905Y-120155864D02*
X143612857Y-120155864D01*
X143612857Y-120155864D02*
X143708095Y-120203483D01*
X143708095Y-120203483D02*
X143755714Y-120251102D01*
X143755714Y-120251102D02*
X143803333Y-120346340D01*
X143803333Y-120346340D02*
X143803333Y-120489197D01*
X143803333Y-120489197D02*
X143755714Y-120584435D01*
X143755714Y-120584435D02*
X143708095Y-120632054D01*
X143708095Y-120632054D02*
X143612857Y-120679673D01*
X143612857Y-120679673D02*
X143231905Y-120679673D01*
X144660476Y-120489197D02*
X144660476Y-121155864D01*
X144422381Y-120108245D02*
X144184286Y-120822530D01*
X144184286Y-120822530D02*
X144803333Y-120822530D01*
X131802122Y-94820447D02*
X131802122Y-95487114D01*
X131564027Y-94439495D02*
X131325932Y-95153780D01*
X131325932Y-95153780D02*
X131944979Y-95153780D01*
X132230694Y-94487114D02*
X132897360Y-94487114D01*
X132897360Y-94487114D02*
X132468789Y-95487114D01*
X133468789Y-94487114D02*
X133564027Y-94487114D01*
X133564027Y-94487114D02*
X133659265Y-94534733D01*
X133659265Y-94534733D02*
X133706884Y-94582352D01*
X133706884Y-94582352D02*
X133754503Y-94677590D01*
X133754503Y-94677590D02*
X133802122Y-94868066D01*
X133802122Y-94868066D02*
X133802122Y-95106161D01*
X133802122Y-95106161D02*
X133754503Y-95296637D01*
X133754503Y-95296637D02*
X133706884Y-95391875D01*
X133706884Y-95391875D02*
X133659265Y-95439495D01*
X133659265Y-95439495D02*
X133564027Y-95487114D01*
X133564027Y-95487114D02*
X133468789Y-95487114D01*
X133468789Y-95487114D02*
X133373551Y-95439495D01*
X133373551Y-95439495D02*
X133325932Y-95391875D01*
X133325932Y-95391875D02*
X133278313Y-95296637D01*
X133278313Y-95296637D02*
X133230694Y-95106161D01*
X133230694Y-95106161D02*
X133230694Y-94868066D01*
X133230694Y-94868066D02*
X133278313Y-94677590D01*
X133278313Y-94677590D02*
X133325932Y-94582352D01*
X133325932Y-94582352D02*
X133373551Y-94534733D01*
X133373551Y-94534733D02*
X133468789Y-94487114D01*
X134183075Y-95487114D02*
X134421170Y-95487114D01*
X134421170Y-95487114D02*
X134421170Y-95296637D01*
X134421170Y-95296637D02*
X134325932Y-95249018D01*
X134325932Y-95249018D02*
X134230694Y-95153780D01*
X134230694Y-95153780D02*
X134183075Y-95010923D01*
X134183075Y-95010923D02*
X134183075Y-94772828D01*
X134183075Y-94772828D02*
X134230694Y-94629971D01*
X134230694Y-94629971D02*
X134325932Y-94534733D01*
X134325932Y-94534733D02*
X134468789Y-94487114D01*
X134468789Y-94487114D02*
X134659265Y-94487114D01*
X134659265Y-94487114D02*
X134802122Y-94534733D01*
X134802122Y-94534733D02*
X134897360Y-94629971D01*
X134897360Y-94629971D02*
X134944979Y-94772828D01*
X134944979Y-94772828D02*
X134944979Y-95010923D01*
X134944979Y-95010923D02*
X134897360Y-95153780D01*
X134897360Y-95153780D02*
X134802122Y-95249018D01*
X134802122Y-95249018D02*
X134706884Y-95296637D01*
X134706884Y-95296637D02*
X134706884Y-95487114D01*
X134706884Y-95487114D02*
X134944979Y-95487114D01*
X132649523Y-93354819D02*
X132316190Y-92878628D01*
X132078095Y-93354819D02*
X132078095Y-92354819D01*
X132078095Y-92354819D02*
X132459047Y-92354819D01*
X132459047Y-92354819D02*
X132554285Y-92402438D01*
X132554285Y-92402438D02*
X132601904Y-92450057D01*
X132601904Y-92450057D02*
X132649523Y-92545295D01*
X132649523Y-92545295D02*
X132649523Y-92688152D01*
X132649523Y-92688152D02*
X132601904Y-92783390D01*
X132601904Y-92783390D02*
X132554285Y-92831009D01*
X132554285Y-92831009D02*
X132459047Y-92878628D01*
X132459047Y-92878628D02*
X132078095Y-92878628D01*
X133078095Y-93354819D02*
X133078095Y-92354819D01*
X133078095Y-92354819D02*
X133649523Y-93354819D01*
X133649523Y-93354819D02*
X133649523Y-92354819D01*
X134649523Y-93354819D02*
X134078095Y-93354819D01*
X134363809Y-93354819D02*
X134363809Y-92354819D01*
X134363809Y-92354819D02*
X134268571Y-92497676D01*
X134268571Y-92497676D02*
X134173333Y-92592914D01*
X134173333Y-92592914D02*
X134078095Y-92640533D01*
X138841526Y-78009580D02*
X138793907Y-78057200D01*
X138793907Y-78057200D02*
X138651050Y-78104819D01*
X138651050Y-78104819D02*
X138555812Y-78104819D01*
X138555812Y-78104819D02*
X138412955Y-78057200D01*
X138412955Y-78057200D02*
X138317717Y-77961961D01*
X138317717Y-77961961D02*
X138270098Y-77866723D01*
X138270098Y-77866723D02*
X138222479Y-77676247D01*
X138222479Y-77676247D02*
X138222479Y-77533390D01*
X138222479Y-77533390D02*
X138270098Y-77342914D01*
X138270098Y-77342914D02*
X138317717Y-77247676D01*
X138317717Y-77247676D02*
X138412955Y-77152438D01*
X138412955Y-77152438D02*
X138555812Y-77104819D01*
X138555812Y-77104819D02*
X138651050Y-77104819D01*
X138651050Y-77104819D02*
X138793907Y-77152438D01*
X138793907Y-77152438D02*
X138841526Y-77200057D01*
X139222479Y-77819104D02*
X139698669Y-77819104D01*
X139127241Y-78104819D02*
X139460574Y-77104819D01*
X139460574Y-77104819D02*
X139793907Y-78104819D01*
X140603431Y-77104819D02*
X140127241Y-77104819D01*
X140127241Y-77104819D02*
X140079622Y-77581009D01*
X140079622Y-77581009D02*
X140127241Y-77533390D01*
X140127241Y-77533390D02*
X140222479Y-77485771D01*
X140222479Y-77485771D02*
X140460574Y-77485771D01*
X140460574Y-77485771D02*
X140555812Y-77533390D01*
X140555812Y-77533390D02*
X140603431Y-77581009D01*
X140603431Y-77581009D02*
X140651050Y-77676247D01*
X140651050Y-77676247D02*
X140651050Y-77914342D01*
X140651050Y-77914342D02*
X140603431Y-78009580D01*
X140603431Y-78009580D02*
X140555812Y-78057200D01*
X140555812Y-78057200D02*
X140460574Y-78104819D01*
X140460574Y-78104819D02*
X140222479Y-78104819D01*
X140222479Y-78104819D02*
X140127241Y-78057200D01*
X140127241Y-78057200D02*
X140079622Y-78009580D01*
X141508193Y-77104819D02*
X141317717Y-77104819D01*
X141317717Y-77104819D02*
X141222479Y-77152438D01*
X141222479Y-77152438D02*
X141174860Y-77200057D01*
X141174860Y-77200057D02*
X141079622Y-77342914D01*
X141079622Y-77342914D02*
X141032003Y-77533390D01*
X141032003Y-77533390D02*
X141032003Y-77914342D01*
X141032003Y-77914342D02*
X141079622Y-78009580D01*
X141079622Y-78009580D02*
X141127241Y-78057200D01*
X141127241Y-78057200D02*
X141222479Y-78104819D01*
X141222479Y-78104819D02*
X141412955Y-78104819D01*
X141412955Y-78104819D02*
X141508193Y-78057200D01*
X141508193Y-78057200D02*
X141555812Y-78009580D01*
X141555812Y-78009580D02*
X141603431Y-77914342D01*
X141603431Y-77914342D02*
X141603431Y-77676247D01*
X141603431Y-77676247D02*
X141555812Y-77581009D01*
X141555812Y-77581009D02*
X141508193Y-77533390D01*
X141508193Y-77533390D02*
X141412955Y-77485771D01*
X141412955Y-77485771D02*
X141222479Y-77485771D01*
X141222479Y-77485771D02*
X141127241Y-77533390D01*
X141127241Y-77533390D02*
X141079622Y-77581009D01*
X141079622Y-77581009D02*
X141032003Y-77676247D01*
X142032003Y-77723866D02*
X142793908Y-77723866D01*
X143793907Y-78104819D02*
X143222479Y-78104819D01*
X143508193Y-78104819D02*
X143508193Y-77104819D01*
X143508193Y-77104819D02*
X143412955Y-77247676D01*
X143412955Y-77247676D02*
X143317717Y-77342914D01*
X143317717Y-77342914D02*
X143222479Y-77390533D01*
X144174860Y-77200057D02*
X144222479Y-77152438D01*
X144222479Y-77152438D02*
X144317717Y-77104819D01*
X144317717Y-77104819D02*
X144555812Y-77104819D01*
X144555812Y-77104819D02*
X144651050Y-77152438D01*
X144651050Y-77152438D02*
X144698669Y-77200057D01*
X144698669Y-77200057D02*
X144746288Y-77295295D01*
X144746288Y-77295295D02*
X144746288Y-77390533D01*
X144746288Y-77390533D02*
X144698669Y-77533390D01*
X144698669Y-77533390D02*
X144127241Y-78104819D01*
X144127241Y-78104819D02*
X144746288Y-78104819D01*
X145127241Y-78057200D02*
X145270098Y-78104819D01*
X145270098Y-78104819D02*
X145508193Y-78104819D01*
X145508193Y-78104819D02*
X145603431Y-78057200D01*
X145603431Y-78057200D02*
X145651050Y-78009580D01*
X145651050Y-78009580D02*
X145698669Y-77914342D01*
X145698669Y-77914342D02*
X145698669Y-77819104D01*
X145698669Y-77819104D02*
X145651050Y-77723866D01*
X145651050Y-77723866D02*
X145603431Y-77676247D01*
X145603431Y-77676247D02*
X145508193Y-77628628D01*
X145508193Y-77628628D02*
X145317717Y-77581009D01*
X145317717Y-77581009D02*
X145222479Y-77533390D01*
X145222479Y-77533390D02*
X145174860Y-77485771D01*
X145174860Y-77485771D02*
X145127241Y-77390533D01*
X145127241Y-77390533D02*
X145127241Y-77295295D01*
X145127241Y-77295295D02*
X145174860Y-77200057D01*
X145174860Y-77200057D02*
X145222479Y-77152438D01*
X145222479Y-77152438D02*
X145317717Y-77104819D01*
X145317717Y-77104819D02*
X145555812Y-77104819D01*
X145555812Y-77104819D02*
X145698669Y-77152438D01*
X146127241Y-77581009D02*
X146460574Y-77581009D01*
X146603431Y-78104819D02*
X146127241Y-78104819D01*
X146127241Y-78104819D02*
X146127241Y-77104819D01*
X146127241Y-77104819D02*
X146603431Y-77104819D01*
X147032003Y-78104819D02*
X147032003Y-77104819D01*
X147603431Y-78104819D02*
X147174860Y-77533390D01*
X147603431Y-77104819D02*
X147032003Y-77676247D01*
X147936765Y-77104819D02*
X148174860Y-78104819D01*
X148174860Y-78104819D02*
X148365336Y-77390533D01*
X148365336Y-77390533D02*
X148555812Y-78104819D01*
X148555812Y-78104819D02*
X148793908Y-77104819D01*
X149127241Y-77819104D02*
X149603431Y-77819104D01*
X149032003Y-78104819D02*
X149365336Y-77104819D01*
X149365336Y-77104819D02*
X149698669Y-78104819D01*
X143151050Y-75044819D02*
X143151050Y-75854342D01*
X143151050Y-75854342D02*
X143198669Y-75949580D01*
X143198669Y-75949580D02*
X143246288Y-75997200D01*
X143246288Y-75997200D02*
X143341526Y-76044819D01*
X143341526Y-76044819D02*
X143532002Y-76044819D01*
X143532002Y-76044819D02*
X143627240Y-75997200D01*
X143627240Y-75997200D02*
X143674859Y-75949580D01*
X143674859Y-75949580D02*
X143722478Y-75854342D01*
X143722478Y-75854342D02*
X143722478Y-75044819D01*
X144722478Y-76044819D02*
X144151050Y-76044819D01*
X144436764Y-76044819D02*
X144436764Y-75044819D01*
X144436764Y-75044819D02*
X144341526Y-75187676D01*
X144341526Y-75187676D02*
X144246288Y-75282914D01*
X144246288Y-75282914D02*
X144151050Y-75330533D01*
X149405036Y-104735865D02*
X149452656Y-104688246D01*
X149452656Y-104688246D02*
X149500275Y-104735865D01*
X149500275Y-104735865D02*
X149452656Y-104783484D01*
X149452656Y-104783484D02*
X149405036Y-104735865D01*
X149405036Y-104735865D02*
X149500275Y-104735865D01*
X149500275Y-103735866D02*
X149500275Y-104307294D01*
X149500275Y-104021580D02*
X148500275Y-104021580D01*
X148500275Y-104021580D02*
X148643132Y-104116818D01*
X148643132Y-104116818D02*
X148738370Y-104212056D01*
X148738370Y-104212056D02*
X148785989Y-104307294D01*
X148833608Y-103307294D02*
X149833608Y-103307294D01*
X149357417Y-102831104D02*
X149452656Y-102783485D01*
X149452656Y-102783485D02*
X149500275Y-102688247D01*
X149357417Y-103307294D02*
X149452656Y-103259675D01*
X149452656Y-103259675D02*
X149500275Y-103164437D01*
X149500275Y-103164437D02*
X149500275Y-102973961D01*
X149500275Y-102973961D02*
X149452656Y-102878723D01*
X149452656Y-102878723D02*
X149357417Y-102831104D01*
X149357417Y-102831104D02*
X148833608Y-102831104D01*
X148976465Y-101926342D02*
X148976465Y-102259675D01*
X149500275Y-102259675D02*
X148500275Y-102259675D01*
X148500275Y-102259675D02*
X148500275Y-101783485D01*
D11*
X148902122Y-99349240D02*
X148861170Y-99390193D01*
X148861170Y-99390193D02*
X148738312Y-99431145D01*
X148738312Y-99431145D02*
X148656408Y-99431145D01*
X148656408Y-99431145D02*
X148533551Y-99390193D01*
X148533551Y-99390193D02*
X148451646Y-99308288D01*
X148451646Y-99308288D02*
X148410693Y-99226383D01*
X148410693Y-99226383D02*
X148369741Y-99062573D01*
X148369741Y-99062573D02*
X148369741Y-98939716D01*
X148369741Y-98939716D02*
X148410693Y-98775907D01*
X148410693Y-98775907D02*
X148451646Y-98694002D01*
X148451646Y-98694002D02*
X148533551Y-98612097D01*
X148533551Y-98612097D02*
X148656408Y-98571145D01*
X148656408Y-98571145D02*
X148738312Y-98571145D01*
X148738312Y-98571145D02*
X148861170Y-98612097D01*
X148861170Y-98612097D02*
X148902122Y-98653050D01*
X149229741Y-98653050D02*
X149270693Y-98612097D01*
X149270693Y-98612097D02*
X149352598Y-98571145D01*
X149352598Y-98571145D02*
X149557360Y-98571145D01*
X149557360Y-98571145D02*
X149639265Y-98612097D01*
X149639265Y-98612097D02*
X149680217Y-98653050D01*
X149680217Y-98653050D02*
X149721170Y-98734954D01*
X149721170Y-98734954D02*
X149721170Y-98816859D01*
X149721170Y-98816859D02*
X149680217Y-98939716D01*
X149680217Y-98939716D02*
X149188789Y-99431145D01*
X149188789Y-99431145D02*
X149721170Y-99431145D01*
D10*
X145673551Y-114084819D02*
X146340217Y-114084819D01*
X146340217Y-114084819D02*
X145911646Y-115084819D01*
X147149741Y-114418152D02*
X147149741Y-115084819D01*
X146911646Y-114037200D02*
X146673551Y-114751485D01*
X146673551Y-114751485D02*
X147292598Y-114751485D01*
X147673551Y-115084819D02*
X147673551Y-114084819D01*
X147673551Y-114561009D02*
X148244979Y-114561009D01*
X148244979Y-115084819D02*
X148244979Y-114084819D01*
X149292598Y-114989580D02*
X149244979Y-115037200D01*
X149244979Y-115037200D02*
X149102122Y-115084819D01*
X149102122Y-115084819D02*
X149006884Y-115084819D01*
X149006884Y-115084819D02*
X148864027Y-115037200D01*
X148864027Y-115037200D02*
X148768789Y-114941961D01*
X148768789Y-114941961D02*
X148721170Y-114846723D01*
X148721170Y-114846723D02*
X148673551Y-114656247D01*
X148673551Y-114656247D02*
X148673551Y-114513390D01*
X148673551Y-114513390D02*
X148721170Y-114322914D01*
X148721170Y-114322914D02*
X148768789Y-114227676D01*
X148768789Y-114227676D02*
X148864027Y-114132438D01*
X148864027Y-114132438D02*
X149006884Y-114084819D01*
X149006884Y-114084819D02*
X149102122Y-114084819D01*
X149102122Y-114084819D02*
X149244979Y-114132438D01*
X149244979Y-114132438D02*
X149292598Y-114180057D01*
X150197360Y-114084819D02*
X149721170Y-114084819D01*
X149721170Y-114084819D02*
X149673551Y-114561009D01*
X149673551Y-114561009D02*
X149721170Y-114513390D01*
X149721170Y-114513390D02*
X149816408Y-114465771D01*
X149816408Y-114465771D02*
X150054503Y-114465771D01*
X150054503Y-114465771D02*
X150149741Y-114513390D01*
X150149741Y-114513390D02*
X150197360Y-114561009D01*
X150197360Y-114561009D02*
X150244979Y-114656247D01*
X150244979Y-114656247D02*
X150244979Y-114894342D01*
X150244979Y-114894342D02*
X150197360Y-114989580D01*
X150197360Y-114989580D02*
X150149741Y-115037200D01*
X150149741Y-115037200D02*
X150054503Y-115084819D01*
X150054503Y-115084819D02*
X149816408Y-115084819D01*
X149816408Y-115084819D02*
X149721170Y-115037200D01*
X149721170Y-115037200D02*
X149673551Y-114989580D01*
X150721170Y-115084819D02*
X150911646Y-115084819D01*
X150911646Y-115084819D02*
X151006884Y-115037200D01*
X151006884Y-115037200D02*
X151054503Y-114989580D01*
X151054503Y-114989580D02*
X151149741Y-114846723D01*
X151149741Y-114846723D02*
X151197360Y-114656247D01*
X151197360Y-114656247D02*
X151197360Y-114275295D01*
X151197360Y-114275295D02*
X151149741Y-114180057D01*
X151149741Y-114180057D02*
X151102122Y-114132438D01*
X151102122Y-114132438D02*
X151006884Y-114084819D01*
X151006884Y-114084819D02*
X150816408Y-114084819D01*
X150816408Y-114084819D02*
X150721170Y-114132438D01*
X150721170Y-114132438D02*
X150673551Y-114180057D01*
X150673551Y-114180057D02*
X150625932Y-114275295D01*
X150625932Y-114275295D02*
X150625932Y-114513390D01*
X150625932Y-114513390D02*
X150673551Y-114608628D01*
X150673551Y-114608628D02*
X150721170Y-114656247D01*
X150721170Y-114656247D02*
X150816408Y-114703866D01*
X150816408Y-114703866D02*
X151006884Y-114703866D01*
X151006884Y-114703866D02*
X151102122Y-114656247D01*
X151102122Y-114656247D02*
X151149741Y-114608628D01*
X151149741Y-114608628D02*
X151197360Y-114513390D01*
X152102122Y-114084819D02*
X151625932Y-114084819D01*
X151625932Y-114084819D02*
X151578313Y-114561009D01*
X151578313Y-114561009D02*
X151625932Y-114513390D01*
X151625932Y-114513390D02*
X151721170Y-114465771D01*
X151721170Y-114465771D02*
X151959265Y-114465771D01*
X151959265Y-114465771D02*
X152054503Y-114513390D01*
X152054503Y-114513390D02*
X152102122Y-114561009D01*
X152102122Y-114561009D02*
X152149741Y-114656247D01*
X152149741Y-114656247D02*
X152149741Y-114894342D01*
X152149741Y-114894342D02*
X152102122Y-114989580D01*
X152102122Y-114989580D02*
X152054503Y-115037200D01*
X152054503Y-115037200D02*
X151959265Y-115084819D01*
X151959265Y-115084819D02*
X151721170Y-115084819D01*
X151721170Y-115084819D02*
X151625932Y-115037200D01*
X151625932Y-115037200D02*
X151578313Y-114989580D01*
X148173551Y-112284819D02*
X148173551Y-113094342D01*
X148173551Y-113094342D02*
X148221170Y-113189580D01*
X148221170Y-113189580D02*
X148268789Y-113237200D01*
X148268789Y-113237200D02*
X148364027Y-113284819D01*
X148364027Y-113284819D02*
X148554503Y-113284819D01*
X148554503Y-113284819D02*
X148649741Y-113237200D01*
X148649741Y-113237200D02*
X148697360Y-113189580D01*
X148697360Y-113189580D02*
X148744979Y-113094342D01*
X148744979Y-113094342D02*
X148744979Y-112284819D01*
X149125932Y-112284819D02*
X149744979Y-112284819D01*
X149744979Y-112284819D02*
X149411646Y-112665771D01*
X149411646Y-112665771D02*
X149554503Y-112665771D01*
X149554503Y-112665771D02*
X149649741Y-112713390D01*
X149649741Y-112713390D02*
X149697360Y-112761009D01*
X149697360Y-112761009D02*
X149744979Y-112856247D01*
X149744979Y-112856247D02*
X149744979Y-113094342D01*
X149744979Y-113094342D02*
X149697360Y-113189580D01*
X149697360Y-113189580D02*
X149649741Y-113237200D01*
X149649741Y-113237200D02*
X149554503Y-113284819D01*
X149554503Y-113284819D02*
X149268789Y-113284819D01*
X149268789Y-113284819D02*
X149173551Y-113237200D01*
X149173551Y-113237200D02*
X149125932Y-113189580D01*
X129948551Y-103264819D02*
X130615217Y-103264819D01*
X130615217Y-103264819D02*
X130186646Y-104264819D01*
X131424741Y-103598152D02*
X131424741Y-104264819D01*
X131186646Y-103217200D02*
X130948551Y-103931485D01*
X130948551Y-103931485D02*
X131567598Y-103931485D01*
X131948551Y-104264819D02*
X131948551Y-103264819D01*
X131948551Y-103741009D02*
X132519979Y-103741009D01*
X132519979Y-104264819D02*
X132519979Y-103264819D01*
X133567598Y-104169580D02*
X133519979Y-104217200D01*
X133519979Y-104217200D02*
X133377122Y-104264819D01*
X133377122Y-104264819D02*
X133281884Y-104264819D01*
X133281884Y-104264819D02*
X133139027Y-104217200D01*
X133139027Y-104217200D02*
X133043789Y-104121961D01*
X133043789Y-104121961D02*
X132996170Y-104026723D01*
X132996170Y-104026723D02*
X132948551Y-103836247D01*
X132948551Y-103836247D02*
X132948551Y-103693390D01*
X132948551Y-103693390D02*
X132996170Y-103502914D01*
X132996170Y-103502914D02*
X133043789Y-103407676D01*
X133043789Y-103407676D02*
X133139027Y-103312438D01*
X133139027Y-103312438D02*
X133281884Y-103264819D01*
X133281884Y-103264819D02*
X133377122Y-103264819D01*
X133377122Y-103264819D02*
X133519979Y-103312438D01*
X133519979Y-103312438D02*
X133567598Y-103360057D01*
X133948551Y-103360057D02*
X133996170Y-103312438D01*
X133996170Y-103312438D02*
X134091408Y-103264819D01*
X134091408Y-103264819D02*
X134329503Y-103264819D01*
X134329503Y-103264819D02*
X134424741Y-103312438D01*
X134424741Y-103312438D02*
X134472360Y-103360057D01*
X134472360Y-103360057D02*
X134519979Y-103455295D01*
X134519979Y-103455295D02*
X134519979Y-103550533D01*
X134519979Y-103550533D02*
X134472360Y-103693390D01*
X134472360Y-103693390D02*
X133900932Y-104264819D01*
X133900932Y-104264819D02*
X134519979Y-104264819D01*
X135377122Y-103598152D02*
X135377122Y-104264819D01*
X135139027Y-103217200D02*
X134900932Y-103931485D01*
X134900932Y-103931485D02*
X135519979Y-103931485D01*
X136329503Y-103598152D02*
X136329503Y-104264819D01*
X136091408Y-103217200D02*
X135853313Y-103931485D01*
X135853313Y-103931485D02*
X136472360Y-103931485D01*
X132550222Y-101334819D02*
X132550222Y-102144342D01*
X132550222Y-102144342D02*
X132597841Y-102239580D01*
X132597841Y-102239580D02*
X132645460Y-102287200D01*
X132645460Y-102287200D02*
X132740698Y-102334819D01*
X132740698Y-102334819D02*
X132931174Y-102334819D01*
X132931174Y-102334819D02*
X133026412Y-102287200D01*
X133026412Y-102287200D02*
X133074031Y-102239580D01*
X133074031Y-102239580D02*
X133121650Y-102144342D01*
X133121650Y-102144342D02*
X133121650Y-101334819D01*
X133550222Y-101430057D02*
X133597841Y-101382438D01*
X133597841Y-101382438D02*
X133693079Y-101334819D01*
X133693079Y-101334819D02*
X133931174Y-101334819D01*
X133931174Y-101334819D02*
X134026412Y-101382438D01*
X134026412Y-101382438D02*
X134074031Y-101430057D01*
X134074031Y-101430057D02*
X134121650Y-101525295D01*
X134121650Y-101525295D02*
X134121650Y-101620533D01*
X134121650Y-101620533D02*
X134074031Y-101763390D01*
X134074031Y-101763390D02*
X133502603Y-102334819D01*
X133502603Y-102334819D02*
X134121650Y-102334819D01*
X161125275Y-101898961D02*
X161125275Y-102470389D01*
X161125275Y-102184675D02*
X160125275Y-102184675D01*
X160125275Y-102184675D02*
X160268132Y-102279913D01*
X160268132Y-102279913D02*
X160363370Y-102375151D01*
X160363370Y-102375151D02*
X160410989Y-102470389D01*
X160125275Y-101279913D02*
X160125275Y-101184675D01*
X160125275Y-101184675D02*
X160172894Y-101089437D01*
X160172894Y-101089437D02*
X160220513Y-101041818D01*
X160220513Y-101041818D02*
X160315751Y-100994199D01*
X160315751Y-100994199D02*
X160506227Y-100946580D01*
X160506227Y-100946580D02*
X160744322Y-100946580D01*
X160744322Y-100946580D02*
X160934798Y-100994199D01*
X160934798Y-100994199D02*
X161030036Y-101041818D01*
X161030036Y-101041818D02*
X161077656Y-101089437D01*
X161077656Y-101089437D02*
X161125275Y-101184675D01*
X161125275Y-101184675D02*
X161125275Y-101279913D01*
X161125275Y-101279913D02*
X161077656Y-101375151D01*
X161077656Y-101375151D02*
X161030036Y-101422770D01*
X161030036Y-101422770D02*
X160934798Y-101470389D01*
X160934798Y-101470389D02*
X160744322Y-101518008D01*
X160744322Y-101518008D02*
X160506227Y-101518008D01*
X160506227Y-101518008D02*
X160315751Y-101470389D01*
X160315751Y-101470389D02*
X160220513Y-101422770D01*
X160220513Y-101422770D02*
X160172894Y-101375151D01*
X160172894Y-101375151D02*
X160125275Y-101279913D01*
X161125275Y-100518008D02*
X160125275Y-100518008D01*
X160744322Y-100422770D02*
X161125275Y-100137056D01*
X160458608Y-100137056D02*
X160839560Y-100518008D01*
X161125275Y-99756103D02*
X161125275Y-99518008D01*
X161125275Y-99518008D02*
X160934798Y-99518008D01*
X160934798Y-99518008D02*
X160887179Y-99613246D01*
X160887179Y-99613246D02*
X160791941Y-99708484D01*
X160791941Y-99708484D02*
X160649084Y-99756103D01*
X160649084Y-99756103D02*
X160410989Y-99756103D01*
X160410989Y-99756103D02*
X160268132Y-99708484D01*
X160268132Y-99708484D02*
X160172894Y-99613246D01*
X160172894Y-99613246D02*
X160125275Y-99470389D01*
X160125275Y-99470389D02*
X160125275Y-99279913D01*
X160125275Y-99279913D02*
X160172894Y-99137056D01*
X160172894Y-99137056D02*
X160268132Y-99041818D01*
X160268132Y-99041818D02*
X160410989Y-98994199D01*
X160410989Y-98994199D02*
X160649084Y-98994199D01*
X160649084Y-98994199D02*
X160791941Y-99041818D01*
X160791941Y-99041818D02*
X160887179Y-99137056D01*
X160887179Y-99137056D02*
X160934798Y-99232294D01*
X160934798Y-99232294D02*
X161125275Y-99232294D01*
X161125275Y-99232294D02*
X161125275Y-98994199D01*
X160503789Y-94314819D02*
X160170456Y-93838628D01*
X159932361Y-94314819D02*
X159932361Y-93314819D01*
X159932361Y-93314819D02*
X160313313Y-93314819D01*
X160313313Y-93314819D02*
X160408551Y-93362438D01*
X160408551Y-93362438D02*
X160456170Y-93410057D01*
X160456170Y-93410057D02*
X160503789Y-93505295D01*
X160503789Y-93505295D02*
X160503789Y-93648152D01*
X160503789Y-93648152D02*
X160456170Y-93743390D01*
X160456170Y-93743390D02*
X160408551Y-93791009D01*
X160408551Y-93791009D02*
X160313313Y-93838628D01*
X160313313Y-93838628D02*
X159932361Y-93838628D01*
X161456170Y-94314819D02*
X160884742Y-94314819D01*
X161170456Y-94314819D02*
X161170456Y-93314819D01*
X161170456Y-93314819D02*
X161075218Y-93457676D01*
X161075218Y-93457676D02*
X160979980Y-93552914D01*
X160979980Y-93552914D02*
X160884742Y-93600533D01*
X130364819Y-83862856D02*
X129364819Y-83862856D01*
X129841009Y-83862856D02*
X129841009Y-83291428D01*
X130364819Y-83291428D02*
X129364819Y-83291428D01*
X130364819Y-82815237D02*
X129364819Y-82815237D01*
X129364819Y-82815237D02*
X129364819Y-82577142D01*
X129364819Y-82577142D02*
X129412438Y-82434285D01*
X129412438Y-82434285D02*
X129507676Y-82339047D01*
X129507676Y-82339047D02*
X129602914Y-82291428D01*
X129602914Y-82291428D02*
X129793390Y-82243809D01*
X129793390Y-82243809D02*
X129936247Y-82243809D01*
X129936247Y-82243809D02*
X130126723Y-82291428D01*
X130126723Y-82291428D02*
X130221961Y-82339047D01*
X130221961Y-82339047D02*
X130317200Y-82434285D01*
X130317200Y-82434285D02*
X130364819Y-82577142D01*
X130364819Y-82577142D02*
X130364819Y-82815237D01*
X130317200Y-81862856D02*
X130364819Y-81719999D01*
X130364819Y-81719999D02*
X130364819Y-81481904D01*
X130364819Y-81481904D02*
X130317200Y-81386666D01*
X130317200Y-81386666D02*
X130269580Y-81339047D01*
X130269580Y-81339047D02*
X130174342Y-81291428D01*
X130174342Y-81291428D02*
X130079104Y-81291428D01*
X130079104Y-81291428D02*
X129983866Y-81339047D01*
X129983866Y-81339047D02*
X129936247Y-81386666D01*
X129936247Y-81386666D02*
X129888628Y-81481904D01*
X129888628Y-81481904D02*
X129841009Y-81672380D01*
X129841009Y-81672380D02*
X129793390Y-81767618D01*
X129793390Y-81767618D02*
X129745771Y-81815237D01*
X129745771Y-81815237D02*
X129650533Y-81862856D01*
X129650533Y-81862856D02*
X129555295Y-81862856D01*
X129555295Y-81862856D02*
X129460057Y-81815237D01*
X129460057Y-81815237D02*
X129412438Y-81767618D01*
X129412438Y-81767618D02*
X129364819Y-81672380D01*
X129364819Y-81672380D02*
X129364819Y-81434285D01*
X129364819Y-81434285D02*
X129412438Y-81291428D01*
X130364819Y-80862856D02*
X129364819Y-80862856D01*
X129364819Y-80862856D02*
X129364819Y-80481904D01*
X129364819Y-80481904D02*
X129412438Y-80386666D01*
X129412438Y-80386666D02*
X129460057Y-80339047D01*
X129460057Y-80339047D02*
X129555295Y-80291428D01*
X129555295Y-80291428D02*
X129698152Y-80291428D01*
X129698152Y-80291428D02*
X129793390Y-80339047D01*
X129793390Y-80339047D02*
X129841009Y-80386666D01*
X129841009Y-80386666D02*
X129888628Y-80481904D01*
X129888628Y-80481904D02*
X129888628Y-80862856D01*
X129983866Y-79862856D02*
X129983866Y-79100952D01*
X129698152Y-78196190D02*
X130364819Y-78196190D01*
X129317200Y-78434285D02*
X130031485Y-78672380D01*
X130031485Y-78672380D02*
X130031485Y-78053333D01*
X129793390Y-77529523D02*
X129745771Y-77624761D01*
X129745771Y-77624761D02*
X129698152Y-77672380D01*
X129698152Y-77672380D02*
X129602914Y-77719999D01*
X129602914Y-77719999D02*
X129555295Y-77719999D01*
X129555295Y-77719999D02*
X129460057Y-77672380D01*
X129460057Y-77672380D02*
X129412438Y-77624761D01*
X129412438Y-77624761D02*
X129364819Y-77529523D01*
X129364819Y-77529523D02*
X129364819Y-77339047D01*
X129364819Y-77339047D02*
X129412438Y-77243809D01*
X129412438Y-77243809D02*
X129460057Y-77196190D01*
X129460057Y-77196190D02*
X129555295Y-77148571D01*
X129555295Y-77148571D02*
X129602914Y-77148571D01*
X129602914Y-77148571D02*
X129698152Y-77196190D01*
X129698152Y-77196190D02*
X129745771Y-77243809D01*
X129745771Y-77243809D02*
X129793390Y-77339047D01*
X129793390Y-77339047D02*
X129793390Y-77529523D01*
X129793390Y-77529523D02*
X129841009Y-77624761D01*
X129841009Y-77624761D02*
X129888628Y-77672380D01*
X129888628Y-77672380D02*
X129983866Y-77719999D01*
X129983866Y-77719999D02*
X130174342Y-77719999D01*
X130174342Y-77719999D02*
X130269580Y-77672380D01*
X130269580Y-77672380D02*
X130317200Y-77624761D01*
X130317200Y-77624761D02*
X130364819Y-77529523D01*
X130364819Y-77529523D02*
X130364819Y-77339047D01*
X130364819Y-77339047D02*
X130317200Y-77243809D01*
X130317200Y-77243809D02*
X130269580Y-77196190D01*
X130269580Y-77196190D02*
X130174342Y-77148571D01*
X130174342Y-77148571D02*
X129983866Y-77148571D01*
X129983866Y-77148571D02*
X129888628Y-77196190D01*
X129888628Y-77196190D02*
X129841009Y-77243809D01*
X129841009Y-77243809D02*
X129793390Y-77339047D01*
X129364819Y-76815237D02*
X129364819Y-76196190D01*
X129364819Y-76196190D02*
X129745771Y-76529523D01*
X129745771Y-76529523D02*
X129745771Y-76386666D01*
X129745771Y-76386666D02*
X129793390Y-76291428D01*
X129793390Y-76291428D02*
X129841009Y-76243809D01*
X129841009Y-76243809D02*
X129936247Y-76196190D01*
X129936247Y-76196190D02*
X130174342Y-76196190D01*
X130174342Y-76196190D02*
X130269580Y-76243809D01*
X130269580Y-76243809D02*
X130317200Y-76291428D01*
X130317200Y-76291428D02*
X130364819Y-76386666D01*
X130364819Y-76386666D02*
X130364819Y-76672380D01*
X130364819Y-76672380D02*
X130317200Y-76767618D01*
X130317200Y-76767618D02*
X130269580Y-76815237D01*
X129364819Y-75577142D02*
X129364819Y-75481904D01*
X129364819Y-75481904D02*
X129412438Y-75386666D01*
X129412438Y-75386666D02*
X129460057Y-75339047D01*
X129460057Y-75339047D02*
X129555295Y-75291428D01*
X129555295Y-75291428D02*
X129745771Y-75243809D01*
X129745771Y-75243809D02*
X129983866Y-75243809D01*
X129983866Y-75243809D02*
X130174342Y-75291428D01*
X130174342Y-75291428D02*
X130269580Y-75339047D01*
X130269580Y-75339047D02*
X130317200Y-75386666D01*
X130317200Y-75386666D02*
X130364819Y-75481904D01*
X130364819Y-75481904D02*
X130364819Y-75577142D01*
X130364819Y-75577142D02*
X130317200Y-75672380D01*
X130317200Y-75672380D02*
X130269580Y-75719999D01*
X130269580Y-75719999D02*
X130174342Y-75767618D01*
X130174342Y-75767618D02*
X129983866Y-75815237D01*
X129983866Y-75815237D02*
X129745771Y-75815237D01*
X129745771Y-75815237D02*
X129555295Y-75767618D01*
X129555295Y-75767618D02*
X129460057Y-75719999D01*
X129460057Y-75719999D02*
X129412438Y-75672380D01*
X129412438Y-75672380D02*
X129364819Y-75577142D01*
X130460057Y-75053333D02*
X130460057Y-74291428D01*
X129460057Y-74100951D02*
X129412438Y-74053332D01*
X129412438Y-74053332D02*
X129364819Y-73958094D01*
X129364819Y-73958094D02*
X129364819Y-73719999D01*
X129364819Y-73719999D02*
X129412438Y-73624761D01*
X129412438Y-73624761D02*
X129460057Y-73577142D01*
X129460057Y-73577142D02*
X129555295Y-73529523D01*
X129555295Y-73529523D02*
X129650533Y-73529523D01*
X129650533Y-73529523D02*
X129793390Y-73577142D01*
X129793390Y-73577142D02*
X130364819Y-74148570D01*
X130364819Y-74148570D02*
X130364819Y-73529523D01*
D12*
X128687122Y-71873609D02*
X128829979Y-71921228D01*
X128829979Y-71921228D02*
X128877598Y-71968847D01*
X128877598Y-71968847D02*
X128925217Y-72064085D01*
X128925217Y-72064085D02*
X128925217Y-72206942D01*
X128925217Y-72206942D02*
X128877598Y-72302180D01*
X128877598Y-72302180D02*
X128829979Y-72349800D01*
X128829979Y-72349800D02*
X128734741Y-72397419D01*
X128734741Y-72397419D02*
X128353789Y-72397419D01*
X128353789Y-72397419D02*
X128353789Y-71397419D01*
X128353789Y-71397419D02*
X128687122Y-71397419D01*
X128687122Y-71397419D02*
X128782360Y-71445038D01*
X128782360Y-71445038D02*
X128829979Y-71492657D01*
X128829979Y-71492657D02*
X128877598Y-71587895D01*
X128877598Y-71587895D02*
X128877598Y-71683133D01*
X128877598Y-71683133D02*
X128829979Y-71778371D01*
X128829979Y-71778371D02*
X128782360Y-71825990D01*
X128782360Y-71825990D02*
X128687122Y-71873609D01*
X128687122Y-71873609D02*
X128353789Y-71873609D01*
X129306170Y-72111704D02*
X129782360Y-72111704D01*
X129210932Y-72397419D02*
X129544265Y-71397419D01*
X129544265Y-71397419D02*
X129877598Y-72397419D01*
X130782360Y-72397419D02*
X130449027Y-71921228D01*
X130210932Y-72397419D02*
X130210932Y-71397419D01*
X130210932Y-71397419D02*
X130591884Y-71397419D01*
X130591884Y-71397419D02*
X130687122Y-71445038D01*
X130687122Y-71445038D02*
X130734741Y-71492657D01*
X130734741Y-71492657D02*
X130782360Y-71587895D01*
X130782360Y-71587895D02*
X130782360Y-71730752D01*
X130782360Y-71730752D02*
X130734741Y-71825990D01*
X130734741Y-71825990D02*
X130687122Y-71873609D01*
X130687122Y-71873609D02*
X130591884Y-71921228D01*
X130591884Y-71921228D02*
X130210932Y-71921228D01*
X131734741Y-72397419D02*
X131163313Y-72397419D01*
X131449027Y-72397419D02*
X131449027Y-71397419D01*
X131449027Y-71397419D02*
X131353789Y-71540276D01*
X131353789Y-71540276D02*
X131258551Y-71635514D01*
X131258551Y-71635514D02*
X131163313Y-71683133D01*
D10*
X152375275Y-101898961D02*
X152375275Y-102470389D01*
X152375275Y-102184675D02*
X151375275Y-102184675D01*
X151375275Y-102184675D02*
X151518132Y-102279913D01*
X151518132Y-102279913D02*
X151613370Y-102375151D01*
X151613370Y-102375151D02*
X151660989Y-102470389D01*
X151375275Y-101279913D02*
X151375275Y-101184675D01*
X151375275Y-101184675D02*
X151422894Y-101089437D01*
X151422894Y-101089437D02*
X151470513Y-101041818D01*
X151470513Y-101041818D02*
X151565751Y-100994199D01*
X151565751Y-100994199D02*
X151756227Y-100946580D01*
X151756227Y-100946580D02*
X151994322Y-100946580D01*
X151994322Y-100946580D02*
X152184798Y-100994199D01*
X152184798Y-100994199D02*
X152280036Y-101041818D01*
X152280036Y-101041818D02*
X152327656Y-101089437D01*
X152327656Y-101089437D02*
X152375275Y-101184675D01*
X152375275Y-101184675D02*
X152375275Y-101279913D01*
X152375275Y-101279913D02*
X152327656Y-101375151D01*
X152327656Y-101375151D02*
X152280036Y-101422770D01*
X152280036Y-101422770D02*
X152184798Y-101470389D01*
X152184798Y-101470389D02*
X151994322Y-101518008D01*
X151994322Y-101518008D02*
X151756227Y-101518008D01*
X151756227Y-101518008D02*
X151565751Y-101470389D01*
X151565751Y-101470389D02*
X151470513Y-101422770D01*
X151470513Y-101422770D02*
X151422894Y-101375151D01*
X151422894Y-101375151D02*
X151375275Y-101279913D01*
X152375275Y-100518008D02*
X151375275Y-100518008D01*
X151994322Y-100422770D02*
X152375275Y-100137056D01*
X151708608Y-100137056D02*
X152089560Y-100518008D01*
X152375275Y-99756103D02*
X152375275Y-99518008D01*
X152375275Y-99518008D02*
X152184798Y-99518008D01*
X152184798Y-99518008D02*
X152137179Y-99613246D01*
X152137179Y-99613246D02*
X152041941Y-99708484D01*
X152041941Y-99708484D02*
X151899084Y-99756103D01*
X151899084Y-99756103D02*
X151660989Y-99756103D01*
X151660989Y-99756103D02*
X151518132Y-99708484D01*
X151518132Y-99708484D02*
X151422894Y-99613246D01*
X151422894Y-99613246D02*
X151375275Y-99470389D01*
X151375275Y-99470389D02*
X151375275Y-99279913D01*
X151375275Y-99279913D02*
X151422894Y-99137056D01*
X151422894Y-99137056D02*
X151518132Y-99041818D01*
X151518132Y-99041818D02*
X151660989Y-98994199D01*
X151660989Y-98994199D02*
X151899084Y-98994199D01*
X151899084Y-98994199D02*
X152041941Y-99041818D01*
X152041941Y-99041818D02*
X152137179Y-99137056D01*
X152137179Y-99137056D02*
X152184798Y-99232294D01*
X152184798Y-99232294D02*
X152375275Y-99232294D01*
X152375275Y-99232294D02*
X152375275Y-98994199D01*
X151773333Y-94334819D02*
X151440000Y-93858628D01*
X151201905Y-94334819D02*
X151201905Y-93334819D01*
X151201905Y-93334819D02*
X151582857Y-93334819D01*
X151582857Y-93334819D02*
X151678095Y-93382438D01*
X151678095Y-93382438D02*
X151725714Y-93430057D01*
X151725714Y-93430057D02*
X151773333Y-93525295D01*
X151773333Y-93525295D02*
X151773333Y-93668152D01*
X151773333Y-93668152D02*
X151725714Y-93763390D01*
X151725714Y-93763390D02*
X151678095Y-93811009D01*
X151678095Y-93811009D02*
X151582857Y-93858628D01*
X151582857Y-93858628D02*
X151201905Y-93858628D01*
X152106667Y-93334819D02*
X152725714Y-93334819D01*
X152725714Y-93334819D02*
X152392381Y-93715771D01*
X152392381Y-93715771D02*
X152535238Y-93715771D01*
X152535238Y-93715771D02*
X152630476Y-93763390D01*
X152630476Y-93763390D02*
X152678095Y-93811009D01*
X152678095Y-93811009D02*
X152725714Y-93906247D01*
X152725714Y-93906247D02*
X152725714Y-94144342D01*
X152725714Y-94144342D02*
X152678095Y-94239580D01*
X152678095Y-94239580D02*
X152630476Y-94287200D01*
X152630476Y-94287200D02*
X152535238Y-94334819D01*
X152535238Y-94334819D02*
X152249524Y-94334819D01*
X152249524Y-94334819D02*
X152154286Y-94287200D01*
X152154286Y-94287200D02*
X152106667Y-94239580D01*
X134087142Y-56234819D02*
X133515714Y-56234819D01*
X133801428Y-56234819D02*
X133801428Y-55234819D01*
X133801428Y-55234819D02*
X133706190Y-55377676D01*
X133706190Y-55377676D02*
X133610952Y-55472914D01*
X133610952Y-55472914D02*
X133515714Y-55520533D01*
X134515714Y-56234819D02*
X134515714Y-55234819D01*
X134515714Y-55234819D02*
X135087142Y-56234819D01*
X135087142Y-56234819D02*
X135087142Y-55234819D01*
X136039523Y-55234819D02*
X135563333Y-55234819D01*
X135563333Y-55234819D02*
X135515714Y-55711009D01*
X135515714Y-55711009D02*
X135563333Y-55663390D01*
X135563333Y-55663390D02*
X135658571Y-55615771D01*
X135658571Y-55615771D02*
X135896666Y-55615771D01*
X135896666Y-55615771D02*
X135991904Y-55663390D01*
X135991904Y-55663390D02*
X136039523Y-55711009D01*
X136039523Y-55711009D02*
X136087142Y-55806247D01*
X136087142Y-55806247D02*
X136087142Y-56044342D01*
X136087142Y-56044342D02*
X136039523Y-56139580D01*
X136039523Y-56139580D02*
X135991904Y-56187200D01*
X135991904Y-56187200D02*
X135896666Y-56234819D01*
X135896666Y-56234819D02*
X135658571Y-56234819D01*
X135658571Y-56234819D02*
X135563333Y-56187200D01*
X135563333Y-56187200D02*
X135515714Y-56139580D01*
X136658571Y-55663390D02*
X136563333Y-55615771D01*
X136563333Y-55615771D02*
X136515714Y-55568152D01*
X136515714Y-55568152D02*
X136468095Y-55472914D01*
X136468095Y-55472914D02*
X136468095Y-55425295D01*
X136468095Y-55425295D02*
X136515714Y-55330057D01*
X136515714Y-55330057D02*
X136563333Y-55282438D01*
X136563333Y-55282438D02*
X136658571Y-55234819D01*
X136658571Y-55234819D02*
X136849047Y-55234819D01*
X136849047Y-55234819D02*
X136944285Y-55282438D01*
X136944285Y-55282438D02*
X136991904Y-55330057D01*
X136991904Y-55330057D02*
X137039523Y-55425295D01*
X137039523Y-55425295D02*
X137039523Y-55472914D01*
X137039523Y-55472914D02*
X136991904Y-55568152D01*
X136991904Y-55568152D02*
X136944285Y-55615771D01*
X136944285Y-55615771D02*
X136849047Y-55663390D01*
X136849047Y-55663390D02*
X136658571Y-55663390D01*
X136658571Y-55663390D02*
X136563333Y-55711009D01*
X136563333Y-55711009D02*
X136515714Y-55758628D01*
X136515714Y-55758628D02*
X136468095Y-55853866D01*
X136468095Y-55853866D02*
X136468095Y-56044342D01*
X136468095Y-56044342D02*
X136515714Y-56139580D01*
X136515714Y-56139580D02*
X136563333Y-56187200D01*
X136563333Y-56187200D02*
X136658571Y-56234819D01*
X136658571Y-56234819D02*
X136849047Y-56234819D01*
X136849047Y-56234819D02*
X136944285Y-56187200D01*
X136944285Y-56187200D02*
X136991904Y-56139580D01*
X136991904Y-56139580D02*
X137039523Y-56044342D01*
X137039523Y-56044342D02*
X137039523Y-55853866D01*
X137039523Y-55853866D02*
X136991904Y-55758628D01*
X136991904Y-55758628D02*
X136944285Y-55711009D01*
X136944285Y-55711009D02*
X136849047Y-55663390D01*
X137991904Y-56234819D02*
X137420476Y-56234819D01*
X137706190Y-56234819D02*
X137706190Y-55234819D01*
X137706190Y-55234819D02*
X137610952Y-55377676D01*
X137610952Y-55377676D02*
X137515714Y-55472914D01*
X137515714Y-55472914D02*
X137420476Y-55520533D01*
X138325238Y-55234819D02*
X138991904Y-55234819D01*
X138991904Y-55234819D02*
X138563333Y-56234819D01*
X142318095Y-55764819D02*
X142318095Y-54764819D01*
X142889523Y-55764819D02*
X142460952Y-55193390D01*
X142889523Y-54764819D02*
X142318095Y-55336247D01*
X135101905Y-53864819D02*
X135101905Y-52864819D01*
X135101905Y-52864819D02*
X135340000Y-52864819D01*
X135340000Y-52864819D02*
X135482857Y-52912438D01*
X135482857Y-52912438D02*
X135578095Y-53007676D01*
X135578095Y-53007676D02*
X135625714Y-53102914D01*
X135625714Y-53102914D02*
X135673333Y-53293390D01*
X135673333Y-53293390D02*
X135673333Y-53436247D01*
X135673333Y-53436247D02*
X135625714Y-53626723D01*
X135625714Y-53626723D02*
X135578095Y-53721961D01*
X135578095Y-53721961D02*
X135482857Y-53817200D01*
X135482857Y-53817200D02*
X135340000Y-53864819D01*
X135340000Y-53864819D02*
X135101905Y-53864819D01*
X136054286Y-52960057D02*
X136101905Y-52912438D01*
X136101905Y-52912438D02*
X136197143Y-52864819D01*
X136197143Y-52864819D02*
X136435238Y-52864819D01*
X136435238Y-52864819D02*
X136530476Y-52912438D01*
X136530476Y-52912438D02*
X136578095Y-52960057D01*
X136578095Y-52960057D02*
X136625714Y-53055295D01*
X136625714Y-53055295D02*
X136625714Y-53150533D01*
X136625714Y-53150533D02*
X136578095Y-53293390D01*
X136578095Y-53293390D02*
X136006667Y-53864819D01*
X136006667Y-53864819D02*
X136625714Y-53864819D01*
X120833608Y-77920629D02*
X121500275Y-77920629D01*
X120452656Y-78158724D02*
X121166941Y-78396819D01*
X121166941Y-78396819D02*
X121166941Y-77777772D01*
X120500275Y-77492057D02*
X120500275Y-76825391D01*
X120500275Y-76825391D02*
X121500275Y-77253962D01*
X120500275Y-76253962D02*
X120500275Y-76158724D01*
X120500275Y-76158724D02*
X120547894Y-76063486D01*
X120547894Y-76063486D02*
X120595513Y-76015867D01*
X120595513Y-76015867D02*
X120690751Y-75968248D01*
X120690751Y-75968248D02*
X120881227Y-75920629D01*
X120881227Y-75920629D02*
X121119322Y-75920629D01*
X121119322Y-75920629D02*
X121309798Y-75968248D01*
X121309798Y-75968248D02*
X121405036Y-76015867D01*
X121405036Y-76015867D02*
X121452656Y-76063486D01*
X121452656Y-76063486D02*
X121500275Y-76158724D01*
X121500275Y-76158724D02*
X121500275Y-76253962D01*
X121500275Y-76253962D02*
X121452656Y-76349200D01*
X121452656Y-76349200D02*
X121405036Y-76396819D01*
X121405036Y-76396819D02*
X121309798Y-76444438D01*
X121309798Y-76444438D02*
X121119322Y-76492057D01*
X121119322Y-76492057D02*
X120881227Y-76492057D01*
X120881227Y-76492057D02*
X120690751Y-76444438D01*
X120690751Y-76444438D02*
X120595513Y-76396819D01*
X120595513Y-76396819D02*
X120547894Y-76349200D01*
X120547894Y-76349200D02*
X120500275Y-76253962D01*
X121500275Y-75539676D02*
X121500275Y-75301581D01*
X121500275Y-75301581D02*
X121309798Y-75301581D01*
X121309798Y-75301581D02*
X121262179Y-75396819D01*
X121262179Y-75396819D02*
X121166941Y-75492057D01*
X121166941Y-75492057D02*
X121024084Y-75539676D01*
X121024084Y-75539676D02*
X120785989Y-75539676D01*
X120785989Y-75539676D02*
X120643132Y-75492057D01*
X120643132Y-75492057D02*
X120547894Y-75396819D01*
X120547894Y-75396819D02*
X120500275Y-75253962D01*
X120500275Y-75253962D02*
X120500275Y-75063486D01*
X120500275Y-75063486D02*
X120547894Y-74920629D01*
X120547894Y-74920629D02*
X120643132Y-74825391D01*
X120643132Y-74825391D02*
X120785989Y-74777772D01*
X120785989Y-74777772D02*
X121024084Y-74777772D01*
X121024084Y-74777772D02*
X121166941Y-74825391D01*
X121166941Y-74825391D02*
X121262179Y-74920629D01*
X121262179Y-74920629D02*
X121309798Y-75015867D01*
X121309798Y-75015867D02*
X121500275Y-75015867D01*
X121500275Y-75015867D02*
X121500275Y-74777772D01*
X120349523Y-65944819D02*
X120016190Y-65468628D01*
X119778095Y-65944819D02*
X119778095Y-64944819D01*
X119778095Y-64944819D02*
X120159047Y-64944819D01*
X120159047Y-64944819D02*
X120254285Y-64992438D01*
X120254285Y-64992438D02*
X120301904Y-65040057D01*
X120301904Y-65040057D02*
X120349523Y-65135295D01*
X120349523Y-65135295D02*
X120349523Y-65278152D01*
X120349523Y-65278152D02*
X120301904Y-65373390D01*
X120301904Y-65373390D02*
X120254285Y-65421009D01*
X120254285Y-65421009D02*
X120159047Y-65468628D01*
X120159047Y-65468628D02*
X119778095Y-65468628D01*
X120778095Y-65944819D02*
X120778095Y-64944819D01*
X120778095Y-64944819D02*
X121349523Y-65944819D01*
X121349523Y-65944819D02*
X121349523Y-64944819D01*
X121778095Y-65040057D02*
X121825714Y-64992438D01*
X121825714Y-64992438D02*
X121920952Y-64944819D01*
X121920952Y-64944819D02*
X122159047Y-64944819D01*
X122159047Y-64944819D02*
X122254285Y-64992438D01*
X122254285Y-64992438D02*
X122301904Y-65040057D01*
X122301904Y-65040057D02*
X122349523Y-65135295D01*
X122349523Y-65135295D02*
X122349523Y-65230533D01*
X122349523Y-65230533D02*
X122301904Y-65373390D01*
X122301904Y-65373390D02*
X121730476Y-65944819D01*
X121730476Y-65944819D02*
X122349523Y-65944819D01*
X145809048Y-120174819D02*
X146428095Y-120174819D01*
X146428095Y-120174819D02*
X146094762Y-120555771D01*
X146094762Y-120555771D02*
X146237619Y-120555771D01*
X146237619Y-120555771D02*
X146332857Y-120603390D01*
X146332857Y-120603390D02*
X146380476Y-120651009D01*
X146380476Y-120651009D02*
X146428095Y-120746247D01*
X146428095Y-120746247D02*
X146428095Y-120984342D01*
X146428095Y-120984342D02*
X146380476Y-121079580D01*
X146380476Y-121079580D02*
X146332857Y-121127200D01*
X146332857Y-121127200D02*
X146237619Y-121174819D01*
X146237619Y-121174819D02*
X145951905Y-121174819D01*
X145951905Y-121174819D02*
X145856667Y-121127200D01*
X145856667Y-121127200D02*
X145809048Y-121079580D01*
X146761429Y-120174819D02*
X147380476Y-120174819D01*
X147380476Y-120174819D02*
X147047143Y-120555771D01*
X147047143Y-120555771D02*
X147190000Y-120555771D01*
X147190000Y-120555771D02*
X147285238Y-120603390D01*
X147285238Y-120603390D02*
X147332857Y-120651009D01*
X147332857Y-120651009D02*
X147380476Y-120746247D01*
X147380476Y-120746247D02*
X147380476Y-120984342D01*
X147380476Y-120984342D02*
X147332857Y-121079580D01*
X147332857Y-121079580D02*
X147285238Y-121127200D01*
X147285238Y-121127200D02*
X147190000Y-121174819D01*
X147190000Y-121174819D02*
X146904286Y-121174819D01*
X146904286Y-121174819D02*
X146809048Y-121127200D01*
X146809048Y-121127200D02*
X146761429Y-121079580D01*
X147761429Y-121174819D02*
X147999524Y-121174819D01*
X147999524Y-121174819D02*
X147999524Y-120984342D01*
X147999524Y-120984342D02*
X147904286Y-120936723D01*
X147904286Y-120936723D02*
X147809048Y-120841485D01*
X147809048Y-120841485D02*
X147761429Y-120698628D01*
X147761429Y-120698628D02*
X147761429Y-120460533D01*
X147761429Y-120460533D02*
X147809048Y-120317676D01*
X147809048Y-120317676D02*
X147904286Y-120222438D01*
X147904286Y-120222438D02*
X148047143Y-120174819D01*
X148047143Y-120174819D02*
X148237619Y-120174819D01*
X148237619Y-120174819D02*
X148380476Y-120222438D01*
X148380476Y-120222438D02*
X148475714Y-120317676D01*
X148475714Y-120317676D02*
X148523333Y-120460533D01*
X148523333Y-120460533D02*
X148523333Y-120698628D01*
X148523333Y-120698628D02*
X148475714Y-120841485D01*
X148475714Y-120841485D02*
X148380476Y-120936723D01*
X148380476Y-120936723D02*
X148285238Y-120984342D01*
X148285238Y-120984342D02*
X148285238Y-121174819D01*
X148285238Y-121174819D02*
X148523333Y-121174819D01*
X143803333Y-133780864D02*
X143470000Y-133304673D01*
X143231905Y-133780864D02*
X143231905Y-132780864D01*
X143231905Y-132780864D02*
X143612857Y-132780864D01*
X143612857Y-132780864D02*
X143708095Y-132828483D01*
X143708095Y-132828483D02*
X143755714Y-132876102D01*
X143755714Y-132876102D02*
X143803333Y-132971340D01*
X143803333Y-132971340D02*
X143803333Y-133114197D01*
X143803333Y-133114197D02*
X143755714Y-133209435D01*
X143755714Y-133209435D02*
X143708095Y-133257054D01*
X143708095Y-133257054D02*
X143612857Y-133304673D01*
X143612857Y-133304673D02*
X143231905Y-133304673D01*
X144374762Y-133209435D02*
X144279524Y-133161816D01*
X144279524Y-133161816D02*
X144231905Y-133114197D01*
X144231905Y-133114197D02*
X144184286Y-133018959D01*
X144184286Y-133018959D02*
X144184286Y-132971340D01*
X144184286Y-132971340D02*
X144231905Y-132876102D01*
X144231905Y-132876102D02*
X144279524Y-132828483D01*
X144279524Y-132828483D02*
X144374762Y-132780864D01*
X144374762Y-132780864D02*
X144565238Y-132780864D01*
X144565238Y-132780864D02*
X144660476Y-132828483D01*
X144660476Y-132828483D02*
X144708095Y-132876102D01*
X144708095Y-132876102D02*
X144755714Y-132971340D01*
X144755714Y-132971340D02*
X144755714Y-133018959D01*
X144755714Y-133018959D02*
X144708095Y-133114197D01*
X144708095Y-133114197D02*
X144660476Y-133161816D01*
X144660476Y-133161816D02*
X144565238Y-133209435D01*
X144565238Y-133209435D02*
X144374762Y-133209435D01*
X144374762Y-133209435D02*
X144279524Y-133257054D01*
X144279524Y-133257054D02*
X144231905Y-133304673D01*
X144231905Y-133304673D02*
X144184286Y-133399911D01*
X144184286Y-133399911D02*
X144184286Y-133590387D01*
X144184286Y-133590387D02*
X144231905Y-133685625D01*
X144231905Y-133685625D02*
X144279524Y-133733245D01*
X144279524Y-133733245D02*
X144374762Y-133780864D01*
X144374762Y-133780864D02*
X144565238Y-133780864D01*
X144565238Y-133780864D02*
X144660476Y-133733245D01*
X144660476Y-133733245D02*
X144708095Y-133685625D01*
X144708095Y-133685625D02*
X144755714Y-133590387D01*
X144755714Y-133590387D02*
X144755714Y-133399911D01*
X144755714Y-133399911D02*
X144708095Y-133304673D01*
X144708095Y-133304673D02*
X144660476Y-133257054D01*
X144660476Y-133257054D02*
X144565238Y-133209435D01*
X135880036Y-114735865D02*
X135927656Y-114688246D01*
X135927656Y-114688246D02*
X135975275Y-114735865D01*
X135975275Y-114735865D02*
X135927656Y-114783484D01*
X135927656Y-114783484D02*
X135880036Y-114735865D01*
X135880036Y-114735865D02*
X135975275Y-114735865D01*
X135975275Y-113735866D02*
X135975275Y-114307294D01*
X135975275Y-114021580D02*
X134975275Y-114021580D01*
X134975275Y-114021580D02*
X135118132Y-114116818D01*
X135118132Y-114116818D02*
X135213370Y-114212056D01*
X135213370Y-114212056D02*
X135260989Y-114307294D01*
X135308608Y-113307294D02*
X136308608Y-113307294D01*
X135832417Y-112831104D02*
X135927656Y-112783485D01*
X135927656Y-112783485D02*
X135975275Y-112688247D01*
X135832417Y-113307294D02*
X135927656Y-113259675D01*
X135927656Y-113259675D02*
X135975275Y-113164437D01*
X135975275Y-113164437D02*
X135975275Y-112973961D01*
X135975275Y-112973961D02*
X135927656Y-112878723D01*
X135927656Y-112878723D02*
X135832417Y-112831104D01*
X135832417Y-112831104D02*
X135308608Y-112831104D01*
X135451465Y-111926342D02*
X135451465Y-112259675D01*
X135975275Y-112259675D02*
X134975275Y-112259675D01*
X134975275Y-112259675D02*
X134975275Y-111783485D01*
D11*
X135377122Y-109409240D02*
X135336170Y-109450193D01*
X135336170Y-109450193D02*
X135213312Y-109491145D01*
X135213312Y-109491145D02*
X135131408Y-109491145D01*
X135131408Y-109491145D02*
X135008551Y-109450193D01*
X135008551Y-109450193D02*
X134926646Y-109368288D01*
X134926646Y-109368288D02*
X134885693Y-109286383D01*
X134885693Y-109286383D02*
X134844741Y-109122573D01*
X134844741Y-109122573D02*
X134844741Y-108999716D01*
X134844741Y-108999716D02*
X134885693Y-108835907D01*
X134885693Y-108835907D02*
X134926646Y-108754002D01*
X134926646Y-108754002D02*
X135008551Y-108672097D01*
X135008551Y-108672097D02*
X135131408Y-108631145D01*
X135131408Y-108631145D02*
X135213312Y-108631145D01*
X135213312Y-108631145D02*
X135336170Y-108672097D01*
X135336170Y-108672097D02*
X135377122Y-108713050D01*
X135663789Y-108631145D02*
X136196170Y-108631145D01*
X136196170Y-108631145D02*
X135909503Y-108958764D01*
X135909503Y-108958764D02*
X136032360Y-108958764D01*
X136032360Y-108958764D02*
X136114265Y-108999716D01*
X136114265Y-108999716D02*
X136155217Y-109040669D01*
X136155217Y-109040669D02*
X136196170Y-109122573D01*
X136196170Y-109122573D02*
X136196170Y-109327335D01*
X136196170Y-109327335D02*
X136155217Y-109409240D01*
X136155217Y-109409240D02*
X136114265Y-109450193D01*
X136114265Y-109450193D02*
X136032360Y-109491145D01*
X136032360Y-109491145D02*
X135786646Y-109491145D01*
X135786646Y-109491145D02*
X135704741Y-109450193D01*
X135704741Y-109450193D02*
X135663789Y-109409240D01*
D10*
X156702172Y-103445873D02*
X156749791Y-103303016D01*
X156749791Y-103303016D02*
X156797410Y-103255397D01*
X156797410Y-103255397D02*
X156892648Y-103207778D01*
X156892648Y-103207778D02*
X157035505Y-103207778D01*
X157035505Y-103207778D02*
X157130743Y-103255397D01*
X157130743Y-103255397D02*
X157178363Y-103303016D01*
X157178363Y-103303016D02*
X157225982Y-103398254D01*
X157225982Y-103398254D02*
X157225982Y-103779206D01*
X157225982Y-103779206D02*
X156225982Y-103779206D01*
X156225982Y-103779206D02*
X156225982Y-103445873D01*
X156225982Y-103445873D02*
X156273601Y-103350635D01*
X156273601Y-103350635D02*
X156321220Y-103303016D01*
X156321220Y-103303016D02*
X156416458Y-103255397D01*
X156416458Y-103255397D02*
X156511696Y-103255397D01*
X156511696Y-103255397D02*
X156606934Y-103303016D01*
X156606934Y-103303016D02*
X156654553Y-103350635D01*
X156654553Y-103350635D02*
X156702172Y-103445873D01*
X156702172Y-103445873D02*
X156702172Y-103779206D01*
X156225982Y-102779206D02*
X157035505Y-102779206D01*
X157035505Y-102779206D02*
X157130743Y-102731587D01*
X157130743Y-102731587D02*
X157178363Y-102683968D01*
X157178363Y-102683968D02*
X157225982Y-102588730D01*
X157225982Y-102588730D02*
X157225982Y-102398254D01*
X157225982Y-102398254D02*
X157178363Y-102303016D01*
X157178363Y-102303016D02*
X157130743Y-102255397D01*
X157130743Y-102255397D02*
X157035505Y-102207778D01*
X157035505Y-102207778D02*
X156225982Y-102207778D01*
X156702172Y-101398254D02*
X156702172Y-101731587D01*
X157225982Y-101731587D02*
X156225982Y-101731587D01*
X156225982Y-101731587D02*
X156225982Y-101255397D01*
X156845029Y-100874444D02*
X156845029Y-100112540D01*
X157035505Y-100303016D02*
X156845029Y-100112540D01*
X156845029Y-100112540D02*
X156654553Y-100303016D01*
X156654553Y-100683968D02*
X156845029Y-100874444D01*
X156845029Y-100874444D02*
X157035505Y-100683968D01*
X157178363Y-99683968D02*
X157225982Y-99541111D01*
X157225982Y-99541111D02*
X157225982Y-99303016D01*
X157225982Y-99303016D02*
X157178363Y-99207778D01*
X157178363Y-99207778D02*
X157130743Y-99160159D01*
X157130743Y-99160159D02*
X157035505Y-99112540D01*
X157035505Y-99112540D02*
X156940267Y-99112540D01*
X156940267Y-99112540D02*
X156845029Y-99160159D01*
X156845029Y-99160159D02*
X156797410Y-99207778D01*
X156797410Y-99207778D02*
X156749791Y-99303016D01*
X156749791Y-99303016D02*
X156702172Y-99493492D01*
X156702172Y-99493492D02*
X156654553Y-99588730D01*
X156654553Y-99588730D02*
X156606934Y-99636349D01*
X156606934Y-99636349D02*
X156511696Y-99683968D01*
X156511696Y-99683968D02*
X156416458Y-99683968D01*
X156416458Y-99683968D02*
X156321220Y-99636349D01*
X156321220Y-99636349D02*
X156273601Y-99588730D01*
X156273601Y-99588730D02*
X156225982Y-99493492D01*
X156225982Y-99493492D02*
X156225982Y-99255397D01*
X156225982Y-99255397D02*
X156273601Y-99112540D01*
X157225982Y-98683968D02*
X156225982Y-98683968D01*
X156225982Y-98683968D02*
X156225982Y-98303016D01*
X156225982Y-98303016D02*
X156273601Y-98207778D01*
X156273601Y-98207778D02*
X156321220Y-98160159D01*
X156321220Y-98160159D02*
X156416458Y-98112540D01*
X156416458Y-98112540D02*
X156559315Y-98112540D01*
X156559315Y-98112540D02*
X156654553Y-98160159D01*
X156654553Y-98160159D02*
X156702172Y-98207778D01*
X156702172Y-98207778D02*
X156749791Y-98303016D01*
X156749791Y-98303016D02*
X156749791Y-98683968D01*
X157225982Y-97683968D02*
X156225982Y-97683968D01*
X155486667Y-95117200D02*
X155629524Y-95164819D01*
X155629524Y-95164819D02*
X155867619Y-95164819D01*
X155867619Y-95164819D02*
X155962857Y-95117200D01*
X155962857Y-95117200D02*
X156010476Y-95069580D01*
X156010476Y-95069580D02*
X156058095Y-94974342D01*
X156058095Y-94974342D02*
X156058095Y-94879104D01*
X156058095Y-94879104D02*
X156010476Y-94783866D01*
X156010476Y-94783866D02*
X155962857Y-94736247D01*
X155962857Y-94736247D02*
X155867619Y-94688628D01*
X155867619Y-94688628D02*
X155677143Y-94641009D01*
X155677143Y-94641009D02*
X155581905Y-94593390D01*
X155581905Y-94593390D02*
X155534286Y-94545771D01*
X155534286Y-94545771D02*
X155486667Y-94450533D01*
X155486667Y-94450533D02*
X155486667Y-94355295D01*
X155486667Y-94355295D02*
X155534286Y-94260057D01*
X155534286Y-94260057D02*
X155581905Y-94212438D01*
X155581905Y-94212438D02*
X155677143Y-94164819D01*
X155677143Y-94164819D02*
X155915238Y-94164819D01*
X155915238Y-94164819D02*
X156058095Y-94212438D01*
X156391429Y-94164819D02*
X156629524Y-95164819D01*
X156629524Y-95164819D02*
X156820000Y-94450533D01*
X156820000Y-94450533D02*
X157010476Y-95164819D01*
X157010476Y-95164819D02*
X157248572Y-94164819D01*
X158153333Y-95164819D02*
X157581905Y-95164819D01*
X157867619Y-95164819D02*
X157867619Y-94164819D01*
X157867619Y-94164819D02*
X157772381Y-94307676D01*
X157772381Y-94307676D02*
X157677143Y-94402914D01*
X157677143Y-94402914D02*
X157581905Y-94450533D01*
X157197142Y-72764819D02*
X156625714Y-72764819D01*
X156911428Y-72764819D02*
X156911428Y-71764819D01*
X156911428Y-71764819D02*
X156816190Y-71907676D01*
X156816190Y-71907676D02*
X156720952Y-72002914D01*
X156720952Y-72002914D02*
X156625714Y-72050533D01*
X157816190Y-71764819D02*
X157911428Y-71764819D01*
X157911428Y-71764819D02*
X158006666Y-71812438D01*
X158006666Y-71812438D02*
X158054285Y-71860057D01*
X158054285Y-71860057D02*
X158101904Y-71955295D01*
X158101904Y-71955295D02*
X158149523Y-72145771D01*
X158149523Y-72145771D02*
X158149523Y-72383866D01*
X158149523Y-72383866D02*
X158101904Y-72574342D01*
X158101904Y-72574342D02*
X158054285Y-72669580D01*
X158054285Y-72669580D02*
X158006666Y-72717200D01*
X158006666Y-72717200D02*
X157911428Y-72764819D01*
X157911428Y-72764819D02*
X157816190Y-72764819D01*
X157816190Y-72764819D02*
X157720952Y-72717200D01*
X157720952Y-72717200D02*
X157673333Y-72669580D01*
X157673333Y-72669580D02*
X157625714Y-72574342D01*
X157625714Y-72574342D02*
X157578095Y-72383866D01*
X157578095Y-72383866D02*
X157578095Y-72145771D01*
X157578095Y-72145771D02*
X157625714Y-71955295D01*
X157625714Y-71955295D02*
X157673333Y-71860057D01*
X157673333Y-71860057D02*
X157720952Y-71812438D01*
X157720952Y-71812438D02*
X157816190Y-71764819D01*
X158578095Y-72098152D02*
X158578095Y-73098152D01*
X159054285Y-72621961D02*
X159101904Y-72717200D01*
X159101904Y-72717200D02*
X159197142Y-72764819D01*
X158578095Y-72621961D02*
X158625714Y-72717200D01*
X158625714Y-72717200D02*
X158720952Y-72764819D01*
X158720952Y-72764819D02*
X158911428Y-72764819D01*
X158911428Y-72764819D02*
X159006666Y-72717200D01*
X159006666Y-72717200D02*
X159054285Y-72621961D01*
X159054285Y-72621961D02*
X159054285Y-72098152D01*
X159959047Y-72241009D02*
X159625714Y-72241009D01*
X159625714Y-72764819D02*
X159625714Y-71764819D01*
X159625714Y-71764819D02*
X160101904Y-71764819D01*
X158213333Y-70649580D02*
X158165714Y-70697200D01*
X158165714Y-70697200D02*
X158022857Y-70744819D01*
X158022857Y-70744819D02*
X157927619Y-70744819D01*
X157927619Y-70744819D02*
X157784762Y-70697200D01*
X157784762Y-70697200D02*
X157689524Y-70601961D01*
X157689524Y-70601961D02*
X157641905Y-70506723D01*
X157641905Y-70506723D02*
X157594286Y-70316247D01*
X157594286Y-70316247D02*
X157594286Y-70173390D01*
X157594286Y-70173390D02*
X157641905Y-69982914D01*
X157641905Y-69982914D02*
X157689524Y-69887676D01*
X157689524Y-69887676D02*
X157784762Y-69792438D01*
X157784762Y-69792438D02*
X157927619Y-69744819D01*
X157927619Y-69744819D02*
X158022857Y-69744819D01*
X158022857Y-69744819D02*
X158165714Y-69792438D01*
X158165714Y-69792438D02*
X158213333Y-69840057D01*
X159165714Y-70744819D02*
X158594286Y-70744819D01*
X158880000Y-70744819D02*
X158880000Y-69744819D01*
X158880000Y-69744819D02*
X158784762Y-69887676D01*
X158784762Y-69887676D02*
X158689524Y-69982914D01*
X158689524Y-69982914D02*
X158594286Y-70030533D01*
X145546667Y-59144819D02*
X145546667Y-58144819D01*
X145546667Y-58144819D02*
X145927619Y-58144819D01*
X145927619Y-58144819D02*
X146022857Y-58192438D01*
X146022857Y-58192438D02*
X146070476Y-58240057D01*
X146070476Y-58240057D02*
X146118095Y-58335295D01*
X146118095Y-58335295D02*
X146118095Y-58478152D01*
X146118095Y-58478152D02*
X146070476Y-58573390D01*
X146070476Y-58573390D02*
X146022857Y-58621009D01*
X146022857Y-58621009D02*
X145927619Y-58668628D01*
X145927619Y-58668628D02*
X145546667Y-58668628D01*
X146451429Y-58144819D02*
X146689524Y-59144819D01*
X146689524Y-59144819D02*
X146880000Y-58430533D01*
X146880000Y-58430533D02*
X147070476Y-59144819D01*
X147070476Y-59144819D02*
X147308572Y-58144819D01*
X148260952Y-59144819D02*
X147927619Y-58668628D01*
X147689524Y-59144819D02*
X147689524Y-58144819D01*
X147689524Y-58144819D02*
X148070476Y-58144819D01*
X148070476Y-58144819D02*
X148165714Y-58192438D01*
X148165714Y-58192438D02*
X148213333Y-58240057D01*
X148213333Y-58240057D02*
X148260952Y-58335295D01*
X148260952Y-58335295D02*
X148260952Y-58478152D01*
X148260952Y-58478152D02*
X148213333Y-58573390D01*
X148213333Y-58573390D02*
X148165714Y-58621009D01*
X148165714Y-58621009D02*
X148070476Y-58668628D01*
X148070476Y-58668628D02*
X147689524Y-58668628D01*
D13*
X142309524Y-59073855D02*
X142309524Y-58273855D01*
X142309524Y-58273855D02*
X142500000Y-58273855D01*
X142500000Y-58273855D02*
X142614286Y-58311950D01*
X142614286Y-58311950D02*
X142690476Y-58388140D01*
X142690476Y-58388140D02*
X142728571Y-58464331D01*
X142728571Y-58464331D02*
X142766667Y-58616712D01*
X142766667Y-58616712D02*
X142766667Y-58730998D01*
X142766667Y-58730998D02*
X142728571Y-58883379D01*
X142728571Y-58883379D02*
X142690476Y-58959569D01*
X142690476Y-58959569D02*
X142614286Y-59035760D01*
X142614286Y-59035760D02*
X142500000Y-59073855D01*
X142500000Y-59073855D02*
X142309524Y-59073855D01*
X143528571Y-59073855D02*
X143071428Y-59073855D01*
X143300000Y-59073855D02*
X143300000Y-58273855D01*
X143300000Y-58273855D02*
X143223809Y-58388140D01*
X143223809Y-58388140D02*
X143147619Y-58464331D01*
X143147619Y-58464331D02*
X143071428Y-58502426D01*
D10*
X145511083Y-55097007D02*
X146082511Y-55097007D01*
X145796797Y-56097007D02*
X145796797Y-55097007D01*
X146415845Y-55573197D02*
X146749178Y-55573197D01*
X146892035Y-56097007D02*
X146415845Y-56097007D01*
X146415845Y-56097007D02*
X146415845Y-55097007D01*
X146415845Y-55097007D02*
X146892035Y-55097007D01*
X147272988Y-56049388D02*
X147415845Y-56097007D01*
X147415845Y-56097007D02*
X147653940Y-56097007D01*
X147653940Y-56097007D02*
X147749178Y-56049388D01*
X147749178Y-56049388D02*
X147796797Y-56001768D01*
X147796797Y-56001768D02*
X147844416Y-55906530D01*
X147844416Y-55906530D02*
X147844416Y-55811292D01*
X147844416Y-55811292D02*
X147796797Y-55716054D01*
X147796797Y-55716054D02*
X147749178Y-55668435D01*
X147749178Y-55668435D02*
X147653940Y-55620816D01*
X147653940Y-55620816D02*
X147463464Y-55573197D01*
X147463464Y-55573197D02*
X147368226Y-55525578D01*
X147368226Y-55525578D02*
X147320607Y-55477959D01*
X147320607Y-55477959D02*
X147272988Y-55382721D01*
X147272988Y-55382721D02*
X147272988Y-55287483D01*
X147272988Y-55287483D02*
X147320607Y-55192245D01*
X147320607Y-55192245D02*
X147368226Y-55144626D01*
X147368226Y-55144626D02*
X147463464Y-55097007D01*
X147463464Y-55097007D02*
X147701559Y-55097007D01*
X147701559Y-55097007D02*
X147844416Y-55144626D01*
X148130131Y-55097007D02*
X148701559Y-55097007D01*
X148415845Y-56097007D02*
X148415845Y-55097007D01*
X149034893Y-55716054D02*
X149796798Y-55716054D01*
X150272988Y-56097007D02*
X150272988Y-55097007D01*
X150272988Y-55097007D02*
X150653940Y-55097007D01*
X150653940Y-55097007D02*
X150749178Y-55144626D01*
X150749178Y-55144626D02*
X150796797Y-55192245D01*
X150796797Y-55192245D02*
X150844416Y-55287483D01*
X150844416Y-55287483D02*
X150844416Y-55430340D01*
X150844416Y-55430340D02*
X150796797Y-55525578D01*
X150796797Y-55525578D02*
X150749178Y-55573197D01*
X150749178Y-55573197D02*
X150653940Y-55620816D01*
X150653940Y-55620816D02*
X150272988Y-55620816D01*
X151130131Y-55097007D02*
X151701559Y-55097007D01*
X151415845Y-56097007D02*
X151415845Y-55097007D01*
X147556666Y-52832114D02*
X147556666Y-53546399D01*
X147556666Y-53546399D02*
X147509047Y-53689256D01*
X147509047Y-53689256D02*
X147413809Y-53784495D01*
X147413809Y-53784495D02*
X147270952Y-53832114D01*
X147270952Y-53832114D02*
X147175714Y-53832114D01*
X148032857Y-53832114D02*
X148032857Y-52832114D01*
X148032857Y-52832114D02*
X148413809Y-52832114D01*
X148413809Y-52832114D02*
X148509047Y-52879733D01*
X148509047Y-52879733D02*
X148556666Y-52927352D01*
X148556666Y-52927352D02*
X148604285Y-53022590D01*
X148604285Y-53022590D02*
X148604285Y-53165447D01*
X148604285Y-53165447D02*
X148556666Y-53260685D01*
X148556666Y-53260685D02*
X148509047Y-53308304D01*
X148509047Y-53308304D02*
X148413809Y-53355923D01*
X148413809Y-53355923D02*
X148032857Y-53355923D01*
X149556666Y-53832114D02*
X148985238Y-53832114D01*
X149270952Y-53832114D02*
X149270952Y-52832114D01*
X149270952Y-52832114D02*
X149175714Y-52974971D01*
X149175714Y-52974971D02*
X149080476Y-53070209D01*
X149080476Y-53070209D02*
X148985238Y-53117828D01*
X145809048Y-129644819D02*
X146428095Y-129644819D01*
X146428095Y-129644819D02*
X146094762Y-130025771D01*
X146094762Y-130025771D02*
X146237619Y-130025771D01*
X146237619Y-130025771D02*
X146332857Y-130073390D01*
X146332857Y-130073390D02*
X146380476Y-130121009D01*
X146380476Y-130121009D02*
X146428095Y-130216247D01*
X146428095Y-130216247D02*
X146428095Y-130454342D01*
X146428095Y-130454342D02*
X146380476Y-130549580D01*
X146380476Y-130549580D02*
X146332857Y-130597200D01*
X146332857Y-130597200D02*
X146237619Y-130644819D01*
X146237619Y-130644819D02*
X145951905Y-130644819D01*
X145951905Y-130644819D02*
X145856667Y-130597200D01*
X145856667Y-130597200D02*
X145809048Y-130549580D01*
X146761429Y-129644819D02*
X147380476Y-129644819D01*
X147380476Y-129644819D02*
X147047143Y-130025771D01*
X147047143Y-130025771D02*
X147190000Y-130025771D01*
X147190000Y-130025771D02*
X147285238Y-130073390D01*
X147285238Y-130073390D02*
X147332857Y-130121009D01*
X147332857Y-130121009D02*
X147380476Y-130216247D01*
X147380476Y-130216247D02*
X147380476Y-130454342D01*
X147380476Y-130454342D02*
X147332857Y-130549580D01*
X147332857Y-130549580D02*
X147285238Y-130597200D01*
X147285238Y-130597200D02*
X147190000Y-130644819D01*
X147190000Y-130644819D02*
X146904286Y-130644819D01*
X146904286Y-130644819D02*
X146809048Y-130597200D01*
X146809048Y-130597200D02*
X146761429Y-130549580D01*
X147761429Y-130644819D02*
X147999524Y-130644819D01*
X147999524Y-130644819D02*
X147999524Y-130454342D01*
X147999524Y-130454342D02*
X147904286Y-130406723D01*
X147904286Y-130406723D02*
X147809048Y-130311485D01*
X147809048Y-130311485D02*
X147761429Y-130168628D01*
X147761429Y-130168628D02*
X147761429Y-129930533D01*
X147761429Y-129930533D02*
X147809048Y-129787676D01*
X147809048Y-129787676D02*
X147904286Y-129692438D01*
X147904286Y-129692438D02*
X148047143Y-129644819D01*
X148047143Y-129644819D02*
X148237619Y-129644819D01*
X148237619Y-129644819D02*
X148380476Y-129692438D01*
X148380476Y-129692438D02*
X148475714Y-129787676D01*
X148475714Y-129787676D02*
X148523333Y-129930533D01*
X148523333Y-129930533D02*
X148523333Y-130168628D01*
X148523333Y-130168628D02*
X148475714Y-130311485D01*
X148475714Y-130311485D02*
X148380476Y-130406723D01*
X148380476Y-130406723D02*
X148285238Y-130454342D01*
X148285238Y-130454342D02*
X148285238Y-130644819D01*
X148285238Y-130644819D02*
X148523333Y-130644819D01*
X143803333Y-127468364D02*
X143470000Y-126992173D01*
X143231905Y-127468364D02*
X143231905Y-126468364D01*
X143231905Y-126468364D02*
X143612857Y-126468364D01*
X143612857Y-126468364D02*
X143708095Y-126515983D01*
X143708095Y-126515983D02*
X143755714Y-126563602D01*
X143755714Y-126563602D02*
X143803333Y-126658840D01*
X143803333Y-126658840D02*
X143803333Y-126801697D01*
X143803333Y-126801697D02*
X143755714Y-126896935D01*
X143755714Y-126896935D02*
X143708095Y-126944554D01*
X143708095Y-126944554D02*
X143612857Y-126992173D01*
X143612857Y-126992173D02*
X143231905Y-126992173D01*
X144660476Y-126468364D02*
X144470000Y-126468364D01*
X144470000Y-126468364D02*
X144374762Y-126515983D01*
X144374762Y-126515983D02*
X144327143Y-126563602D01*
X144327143Y-126563602D02*
X144231905Y-126706459D01*
X144231905Y-126706459D02*
X144184286Y-126896935D01*
X144184286Y-126896935D02*
X144184286Y-127277887D01*
X144184286Y-127277887D02*
X144231905Y-127373125D01*
X144231905Y-127373125D02*
X144279524Y-127420745D01*
X144279524Y-127420745D02*
X144374762Y-127468364D01*
X144374762Y-127468364D02*
X144565238Y-127468364D01*
X144565238Y-127468364D02*
X144660476Y-127420745D01*
X144660476Y-127420745D02*
X144708095Y-127373125D01*
X144708095Y-127373125D02*
X144755714Y-127277887D01*
X144755714Y-127277887D02*
X144755714Y-127039792D01*
X144755714Y-127039792D02*
X144708095Y-126944554D01*
X144708095Y-126944554D02*
X144660476Y-126896935D01*
X144660476Y-126896935D02*
X144565238Y-126849316D01*
X144565238Y-126849316D02*
X144374762Y-126849316D01*
X144374762Y-126849316D02*
X144279524Y-126896935D01*
X144279524Y-126896935D02*
X144231905Y-126944554D01*
X144231905Y-126944554D02*
X144184286Y-127039792D01*
X137393483Y-130733342D02*
X137441102Y-130590485D01*
X137441102Y-130590485D02*
X137441102Y-130352390D01*
X137441102Y-130352390D02*
X137393483Y-130257152D01*
X137393483Y-130257152D02*
X137345863Y-130209533D01*
X137345863Y-130209533D02*
X137250625Y-130161914D01*
X137250625Y-130161914D02*
X137155387Y-130161914D01*
X137155387Y-130161914D02*
X137060149Y-130209533D01*
X137060149Y-130209533D02*
X137012530Y-130257152D01*
X137012530Y-130257152D02*
X136964911Y-130352390D01*
X136964911Y-130352390D02*
X136917292Y-130542866D01*
X136917292Y-130542866D02*
X136869673Y-130638104D01*
X136869673Y-130638104D02*
X136822054Y-130685723D01*
X136822054Y-130685723D02*
X136726816Y-130733342D01*
X136726816Y-130733342D02*
X136631578Y-130733342D01*
X136631578Y-130733342D02*
X136536340Y-130685723D01*
X136536340Y-130685723D02*
X136488721Y-130638104D01*
X136488721Y-130638104D02*
X136441102Y-130542866D01*
X136441102Y-130542866D02*
X136441102Y-130304771D01*
X136441102Y-130304771D02*
X136488721Y-130161914D01*
X137441102Y-129733342D02*
X136441102Y-129733342D01*
X136441102Y-129733342D02*
X136441102Y-129352390D01*
X136441102Y-129352390D02*
X136488721Y-129257152D01*
X136488721Y-129257152D02*
X136536340Y-129209533D01*
X136536340Y-129209533D02*
X136631578Y-129161914D01*
X136631578Y-129161914D02*
X136774435Y-129161914D01*
X136774435Y-129161914D02*
X136869673Y-129209533D01*
X136869673Y-129209533D02*
X136917292Y-129257152D01*
X136917292Y-129257152D02*
X136964911Y-129352390D01*
X136964911Y-129352390D02*
X136964911Y-129733342D01*
X137441102Y-128733342D02*
X136441102Y-128733342D01*
X137060149Y-128257152D02*
X137060149Y-127495248D01*
X136441102Y-127161914D02*
X136441102Y-126590486D01*
X137441102Y-126876200D02*
X136441102Y-126876200D01*
X137155387Y-126304771D02*
X137155387Y-125828581D01*
X137441102Y-126400009D02*
X136441102Y-126066676D01*
X136441102Y-126066676D02*
X137441102Y-125733343D01*
X137441102Y-125400009D02*
X136441102Y-125400009D01*
X136441102Y-125400009D02*
X136441102Y-125019057D01*
X136441102Y-125019057D02*
X136488721Y-124923819D01*
X136488721Y-124923819D02*
X136536340Y-124876200D01*
X136536340Y-124876200D02*
X136631578Y-124828581D01*
X136631578Y-124828581D02*
X136774435Y-124828581D01*
X136774435Y-124828581D02*
X136869673Y-124876200D01*
X136869673Y-124876200D02*
X136917292Y-124923819D01*
X136917292Y-124923819D02*
X136964911Y-125019057D01*
X136964911Y-125019057D02*
X136964911Y-125400009D01*
X136486122Y-121322114D02*
X136486122Y-122036399D01*
X136486122Y-122036399D02*
X136438503Y-122179256D01*
X136438503Y-122179256D02*
X136343265Y-122274495D01*
X136343265Y-122274495D02*
X136200408Y-122322114D01*
X136200408Y-122322114D02*
X136105170Y-122322114D01*
X137486122Y-122322114D02*
X136914694Y-122322114D01*
X137200408Y-122322114D02*
X137200408Y-121322114D01*
X137200408Y-121322114D02*
X137105170Y-121464971D01*
X137105170Y-121464971D02*
X137009932Y-121560209D01*
X137009932Y-121560209D02*
X136914694Y-121607828D01*
D12*
%TO.C,R2*%
X129050000Y-59536235D02*
X130980000Y-59536235D01*
X139210000Y-59536235D02*
X137280000Y-59536235D01*
X130980000Y-58286235D02*
X137280000Y-58286235D01*
X137280000Y-60786235D01*
X130980000Y-60786235D01*
X130980000Y-58286235D01*
%TO.C,R7*%
X140820456Y-130169795D02*
X142750456Y-130169795D01*
X150980456Y-130169795D02*
X149050456Y-130169795D01*
X142750456Y-128919795D02*
X149050456Y-128919795D01*
X149050456Y-131419795D01*
X142750456Y-131419795D01*
X142750456Y-128919795D01*
%TO.C,R5*%
X140840456Y-123857295D02*
X142770456Y-123857295D01*
X151000456Y-123857295D02*
X149070456Y-123857295D01*
X142770456Y-122607295D02*
X149070456Y-122607295D01*
X149070456Y-125107295D01*
X142770456Y-125107295D01*
X142770456Y-122607295D01*
%TO.C,R4*%
X140865456Y-120701045D02*
X142795456Y-120701045D01*
X151025456Y-120701045D02*
X149095456Y-120701045D01*
X142795456Y-119451045D02*
X149095456Y-119451045D01*
X149095456Y-121951045D01*
X142795456Y-121951045D01*
X142795456Y-119451045D01*
%TO.C,RN1*%
X140755456Y-96282295D02*
X140755456Y-93782295D01*
X143315456Y-96282295D02*
X122955456Y-96282295D01*
X122955456Y-93782295D01*
X143315456Y-93782295D01*
X143315456Y-96282295D01*
%TO.C,U1*%
X137140456Y-71577295D02*
X138140456Y-70577295D01*
X138140456Y-70577295D02*
X137140456Y-69577295D01*
X137120455Y-61452296D02*
X151140455Y-61452296D01*
X151140455Y-91602296D01*
X137120455Y-91602296D01*
X137120455Y-61452296D01*
%TO.C,C2*%
X149995456Y-101157295D02*
X148095456Y-101157295D01*
X148095456Y-105457295D01*
X149995456Y-105457295D01*
X149995456Y-101157295D01*
%TO.C,U3*%
X138775456Y-110647295D02*
X158095456Y-110647295D01*
X138775456Y-116997295D02*
X138775456Y-110647295D01*
X158095456Y-110647295D02*
X159095456Y-111647295D01*
X159095456Y-111647295D02*
X159095456Y-116997295D01*
X159095456Y-116997295D02*
X138775456Y-116997295D01*
%TO.C,U2*%
X120510456Y-99742295D02*
X144910456Y-99742295D01*
X120510456Y-106092295D02*
X120510456Y-99742295D01*
X144910456Y-99742295D02*
X145910456Y-100742295D01*
X145910456Y-100742295D02*
X145910456Y-106092295D01*
X145910456Y-106092295D02*
X120510456Y-106092295D01*
%TO.C,R1*%
X160670456Y-95652295D02*
X160670456Y-97582295D01*
X160670456Y-105812295D02*
X160670456Y-103882295D01*
X159420456Y-103882295D02*
X161920456Y-103882295D01*
X161920456Y-97582295D01*
X159420456Y-97582295D01*
X159420456Y-103882295D01*
%TO.C,BAR1*%
X125130456Y-89169796D02*
X125130456Y-63769796D01*
X134020456Y-89169796D02*
X125130456Y-89169796D01*
X134020456Y-89169796D02*
X135290456Y-87899796D01*
X135290456Y-63769796D02*
X125130456Y-63769796D01*
X135290456Y-87899796D02*
X135290456Y-63769796D01*
%TO.C,R3*%
X151920456Y-95652295D02*
X151920456Y-97582295D01*
X151920456Y-105812295D02*
X151920456Y-103882295D01*
X153170456Y-97582295D02*
X150670456Y-97582295D01*
X150670456Y-103882295D01*
X153170456Y-103882295D01*
X153170456Y-97582295D01*
%TO.C,D2*%
X129880000Y-53410000D02*
X133630000Y-53410000D01*
X137950000Y-54760000D02*
X137950000Y-52060000D01*
X138050000Y-54760000D02*
X138050000Y-52060000D01*
X138150000Y-54760000D02*
X138150000Y-52060000D01*
X142580000Y-53410000D02*
X138830000Y-53410000D01*
X138830000Y-54760000D02*
X133630000Y-54760000D01*
X133630000Y-52060000D01*
X138830000Y-52060000D01*
X138830000Y-54760000D01*
%TO.C,RN2*%
X119795456Y-84207296D02*
X122295456Y-84207296D01*
X119795456Y-86767296D02*
X122295456Y-86767296D01*
X122295456Y-66407296D01*
X119795456Y-66407296D01*
X119795456Y-86767296D01*
%TO.C,R8*%
X140840456Y-133326045D02*
X142770456Y-133326045D01*
X151000456Y-133326045D02*
X149070456Y-133326045D01*
X142770456Y-132076045D02*
X149070456Y-132076045D01*
X149070456Y-134576045D01*
X142770456Y-134576045D01*
X142770456Y-132076045D01*
%TO.C,C3*%
X136470456Y-111157295D02*
X134570456Y-111157295D01*
X134570456Y-115457295D01*
X136470456Y-115457295D01*
X136470456Y-111157295D01*
%TO.C,SW1*%
X155520456Y-105732295D02*
X158020456Y-105732295D01*
X158020456Y-95732295D01*
X155520456Y-95732295D01*
X155520456Y-105732295D01*
%TO.C,C1*%
X155706028Y-69996500D02*
X156336028Y-69996500D01*
X156021028Y-69681500D02*
X156021028Y-70311500D01*
X161550000Y-71370000D02*
G75*
G02*
X155250000Y-71370000I-3150000J0D01*
G01*
X155250000Y-71370000D02*
G75*
G02*
X161550000Y-71370000I3150000J0D01*
G01*
%TO.C,D1*%
X141400000Y-57543810D02*
X141400000Y-59876190D01*
X141400000Y-57543810D02*
G75*
G02*
X141400000Y-59876190I1500000J-1166190D01*
G01*
X144400000Y-58710000D02*
G75*
G02*
X141400000Y-58710000I-1500000J0D01*
G01*
X141400000Y-58710000D02*
G75*
G02*
X144400000Y-58710000I1500000J0D01*
G01*
%TO.C,JP1*%
X145850000Y-52107295D02*
X150930000Y-52107295D01*
X145850000Y-54012295D02*
X145850000Y-52107295D01*
X146485000Y-54647295D02*
X145850000Y-54012295D01*
X150930000Y-52107295D02*
X150930000Y-54647295D01*
X150930000Y-54647295D02*
X146485000Y-54647295D01*
%TO.C,R6*%
X140820456Y-127013545D02*
X142750456Y-127013545D01*
X150980456Y-127013545D02*
X149050456Y-127013545D01*
X142750456Y-125763545D02*
X149050456Y-125763545D01*
X149050456Y-128263545D01*
X142750456Y-128263545D01*
X142750456Y-125763545D01*
%TO.C,J1*%
X135550456Y-121232295D02*
X136185456Y-120597295D01*
X135550456Y-133297295D02*
X135550456Y-121232295D01*
X136185456Y-120597295D02*
X138090456Y-120597295D01*
X138090456Y-120597295D02*
X138090456Y-133297295D01*
X138090456Y-133297295D02*
X135550456Y-133297295D01*
%TD*%
M02*
