%TF.GenerationSoftware,KiCad,Pcbnew,9.0.1+1*%
%TF.CreationDate,2026-03-05T21:15:07+00:00*%
%TF.ProjectId,CSC202_LP_MSPM0G3507_3TERM_BREAKOUT,43534332-3032-45f4-9c50-5f4d53504d30,A*%
%TF.SameCoordinates,Original*%
%TF.FileFunction,AssemblyDrawing,Bot*%
%FSLAX46Y46*%
G04 Gerber Fmt 4.6, Leading zero omitted, Abs format (unit mm)*
G04 Created by KiCad (PCBNEW 9.0.1+1) date 2026-03-05 21:15:07*
%MOMM*%
%LPD*%
G01*
G04 APERTURE LIST*
%ADD10C,0.150000*%
%ADD11C,0.100000*%
G04 APERTURE END LIST*
D10*
X110212926Y-112176419D02*
X110212926Y-112890704D01*
X110212926Y-112890704D02*
X110260545Y-113033561D01*
X110260545Y-113033561D02*
X110355783Y-113128800D01*
X110355783Y-113128800D02*
X110498640Y-113176419D01*
X110498640Y-113176419D02*
X110593878Y-113176419D01*
X109974831Y-113271657D02*
X109212926Y-113271657D01*
X108784354Y-112176419D02*
X108593878Y-112176419D01*
X108593878Y-112176419D02*
X108498640Y-112224038D01*
X108498640Y-112224038D02*
X108403402Y-112319276D01*
X108403402Y-112319276D02*
X108355783Y-112509752D01*
X108355783Y-112509752D02*
X108355783Y-112843085D01*
X108355783Y-112843085D02*
X108403402Y-113033561D01*
X108403402Y-113033561D02*
X108498640Y-113128800D01*
X108498640Y-113128800D02*
X108593878Y-113176419D01*
X108593878Y-113176419D02*
X108784354Y-113176419D01*
X108784354Y-113176419D02*
X108879592Y-113128800D01*
X108879592Y-113128800D02*
X108974830Y-113033561D01*
X108974830Y-113033561D02*
X109022449Y-112843085D01*
X109022449Y-112843085D02*
X109022449Y-112509752D01*
X109022449Y-112509752D02*
X108974830Y-112319276D01*
X108974830Y-112319276D02*
X108879592Y-112224038D01*
X108879592Y-112224038D02*
X108784354Y-112176419D01*
X107927211Y-112176419D02*
X107927211Y-112985942D01*
X107927211Y-112985942D02*
X107879592Y-113081180D01*
X107879592Y-113081180D02*
X107831973Y-113128800D01*
X107831973Y-113128800D02*
X107736735Y-113176419D01*
X107736735Y-113176419D02*
X107546259Y-113176419D01*
X107546259Y-113176419D02*
X107451021Y-113128800D01*
X107451021Y-113128800D02*
X107403402Y-113081180D01*
X107403402Y-113081180D02*
X107355783Y-112985942D01*
X107355783Y-112985942D02*
X107355783Y-112176419D01*
X107022449Y-112176419D02*
X106451021Y-112176419D01*
X106736735Y-113176419D02*
X106736735Y-112176419D01*
X106212925Y-112176419D02*
X105593878Y-112176419D01*
X105593878Y-112176419D02*
X105927211Y-112557371D01*
X105927211Y-112557371D02*
X105784354Y-112557371D01*
X105784354Y-112557371D02*
X105689116Y-112604990D01*
X105689116Y-112604990D02*
X105641497Y-112652609D01*
X105641497Y-112652609D02*
X105593878Y-112747847D01*
X105593878Y-112747847D02*
X105593878Y-112985942D01*
X105593878Y-112985942D02*
X105641497Y-113081180D01*
X105641497Y-113081180D02*
X105689116Y-113128800D01*
X105689116Y-113128800D02*
X105784354Y-113176419D01*
X105784354Y-113176419D02*
X106070068Y-113176419D01*
X106070068Y-113176419D02*
X106165306Y-113128800D01*
X106165306Y-113128800D02*
X106212925Y-113081180D01*
X107541288Y-98316666D02*
X108255573Y-98316666D01*
X108255573Y-98316666D02*
X108398430Y-98269047D01*
X108398430Y-98269047D02*
X108493669Y-98173809D01*
X108493669Y-98173809D02*
X108541288Y-98030952D01*
X108541288Y-98030952D02*
X108541288Y-97935714D01*
X107874621Y-99221428D02*
X108541288Y-99221428D01*
X107493669Y-98983333D02*
X108207954Y-98745238D01*
X108207954Y-98745238D02*
X108207954Y-99364285D01*
X155979326Y-111864819D02*
X155979326Y-112579104D01*
X155979326Y-112579104D02*
X156026945Y-112721961D01*
X156026945Y-112721961D02*
X156122183Y-112817200D01*
X156122183Y-112817200D02*
X156265040Y-112864819D01*
X156265040Y-112864819D02*
X156360278Y-112864819D01*
X155741231Y-112960057D02*
X154979326Y-112960057D01*
X154550754Y-111864819D02*
X154360278Y-111864819D01*
X154360278Y-111864819D02*
X154265040Y-111912438D01*
X154265040Y-111912438D02*
X154169802Y-112007676D01*
X154169802Y-112007676D02*
X154122183Y-112198152D01*
X154122183Y-112198152D02*
X154122183Y-112531485D01*
X154122183Y-112531485D02*
X154169802Y-112721961D01*
X154169802Y-112721961D02*
X154265040Y-112817200D01*
X154265040Y-112817200D02*
X154360278Y-112864819D01*
X154360278Y-112864819D02*
X154550754Y-112864819D01*
X154550754Y-112864819D02*
X154645992Y-112817200D01*
X154645992Y-112817200D02*
X154741230Y-112721961D01*
X154741230Y-112721961D02*
X154788849Y-112531485D01*
X154788849Y-112531485D02*
X154788849Y-112198152D01*
X154788849Y-112198152D02*
X154741230Y-112007676D01*
X154741230Y-112007676D02*
X154645992Y-111912438D01*
X154645992Y-111912438D02*
X154550754Y-111864819D01*
X153693611Y-111864819D02*
X153693611Y-112674342D01*
X153693611Y-112674342D02*
X153645992Y-112769580D01*
X153645992Y-112769580D02*
X153598373Y-112817200D01*
X153598373Y-112817200D02*
X153503135Y-112864819D01*
X153503135Y-112864819D02*
X153312659Y-112864819D01*
X153312659Y-112864819D02*
X153217421Y-112817200D01*
X153217421Y-112817200D02*
X153169802Y-112769580D01*
X153169802Y-112769580D02*
X153122183Y-112674342D01*
X153122183Y-112674342D02*
X153122183Y-111864819D01*
X152788849Y-111864819D02*
X152217421Y-111864819D01*
X152503135Y-112864819D02*
X152503135Y-111864819D01*
X151931706Y-111960057D02*
X151884087Y-111912438D01*
X151884087Y-111912438D02*
X151788849Y-111864819D01*
X151788849Y-111864819D02*
X151550754Y-111864819D01*
X151550754Y-111864819D02*
X151455516Y-111912438D01*
X151455516Y-111912438D02*
X151407897Y-111960057D01*
X151407897Y-111960057D02*
X151360278Y-112055295D01*
X151360278Y-112055295D02*
X151360278Y-112150533D01*
X151360278Y-112150533D02*
X151407897Y-112293390D01*
X151407897Y-112293390D02*
X151979325Y-112864819D01*
X151979325Y-112864819D02*
X151360278Y-112864819D01*
X153291288Y-98316666D02*
X154005573Y-98316666D01*
X154005573Y-98316666D02*
X154148430Y-98269047D01*
X154148430Y-98269047D02*
X154243669Y-98173809D01*
X154243669Y-98173809D02*
X154291288Y-98030952D01*
X154291288Y-98030952D02*
X154291288Y-97935714D01*
X153291288Y-99221428D02*
X153291288Y-99030952D01*
X153291288Y-99030952D02*
X153338907Y-98935714D01*
X153338907Y-98935714D02*
X153386526Y-98888095D01*
X153386526Y-98888095D02*
X153529383Y-98792857D01*
X153529383Y-98792857D02*
X153719859Y-98745238D01*
X153719859Y-98745238D02*
X154100811Y-98745238D01*
X154100811Y-98745238D02*
X154196049Y-98792857D01*
X154196049Y-98792857D02*
X154243669Y-98840476D01*
X154243669Y-98840476D02*
X154291288Y-98935714D01*
X154291288Y-98935714D02*
X154291288Y-99126190D01*
X154291288Y-99126190D02*
X154243669Y-99221428D01*
X154243669Y-99221428D02*
X154196049Y-99269047D01*
X154196049Y-99269047D02*
X154100811Y-99316666D01*
X154100811Y-99316666D02*
X153862716Y-99316666D01*
X153862716Y-99316666D02*
X153767478Y-99269047D01*
X153767478Y-99269047D02*
X153719859Y-99221428D01*
X153719859Y-99221428D02*
X153672240Y-99126190D01*
X153672240Y-99126190D02*
X153672240Y-98935714D01*
X153672240Y-98935714D02*
X153719859Y-98840476D01*
X153719859Y-98840476D02*
X153767478Y-98792857D01*
X153767478Y-98792857D02*
X153862716Y-98745238D01*
X102950326Y-112155419D02*
X102950326Y-112869704D01*
X102950326Y-112869704D02*
X102997945Y-113012561D01*
X102997945Y-113012561D02*
X103093183Y-113107800D01*
X103093183Y-113107800D02*
X103236040Y-113155419D01*
X103236040Y-113155419D02*
X103331278Y-113155419D01*
X102712231Y-113250657D02*
X101950326Y-113250657D01*
X101521754Y-112155419D02*
X101331278Y-112155419D01*
X101331278Y-112155419D02*
X101236040Y-112203038D01*
X101236040Y-112203038D02*
X101140802Y-112298276D01*
X101140802Y-112298276D02*
X101093183Y-112488752D01*
X101093183Y-112488752D02*
X101093183Y-112822085D01*
X101093183Y-112822085D02*
X101140802Y-113012561D01*
X101140802Y-113012561D02*
X101236040Y-113107800D01*
X101236040Y-113107800D02*
X101331278Y-113155419D01*
X101331278Y-113155419D02*
X101521754Y-113155419D01*
X101521754Y-113155419D02*
X101616992Y-113107800D01*
X101616992Y-113107800D02*
X101712230Y-113012561D01*
X101712230Y-113012561D02*
X101759849Y-112822085D01*
X101759849Y-112822085D02*
X101759849Y-112488752D01*
X101759849Y-112488752D02*
X101712230Y-112298276D01*
X101712230Y-112298276D02*
X101616992Y-112203038D01*
X101616992Y-112203038D02*
X101521754Y-112155419D01*
X100664611Y-112155419D02*
X100664611Y-112964942D01*
X100664611Y-112964942D02*
X100616992Y-113060180D01*
X100616992Y-113060180D02*
X100569373Y-113107800D01*
X100569373Y-113107800D02*
X100474135Y-113155419D01*
X100474135Y-113155419D02*
X100283659Y-113155419D01*
X100283659Y-113155419D02*
X100188421Y-113107800D01*
X100188421Y-113107800D02*
X100140802Y-113060180D01*
X100140802Y-113060180D02*
X100093183Y-112964942D01*
X100093183Y-112964942D02*
X100093183Y-112155419D01*
X99759849Y-112155419D02*
X99188421Y-112155419D01*
X99474135Y-113155419D02*
X99474135Y-112155419D01*
X98331278Y-113155419D02*
X98902706Y-113155419D01*
X98616992Y-113155419D02*
X98616992Y-112155419D01*
X98616992Y-112155419D02*
X98712230Y-112298276D01*
X98712230Y-112298276D02*
X98807468Y-112393514D01*
X98807468Y-112393514D02*
X98902706Y-112441133D01*
X100291288Y-98316666D02*
X101005573Y-98316666D01*
X101005573Y-98316666D02*
X101148430Y-98269047D01*
X101148430Y-98269047D02*
X101243669Y-98173809D01*
X101243669Y-98173809D02*
X101291288Y-98030952D01*
X101291288Y-98030952D02*
X101291288Y-97935714D01*
X100291288Y-98697619D02*
X100291288Y-99316666D01*
X100291288Y-99316666D02*
X100672240Y-98983333D01*
X100672240Y-98983333D02*
X100672240Y-99126190D01*
X100672240Y-99126190D02*
X100719859Y-99221428D01*
X100719859Y-99221428D02*
X100767478Y-99269047D01*
X100767478Y-99269047D02*
X100862716Y-99316666D01*
X100862716Y-99316666D02*
X101100811Y-99316666D01*
X101100811Y-99316666D02*
X101196049Y-99269047D01*
X101196049Y-99269047D02*
X101243669Y-99221428D01*
X101243669Y-99221428D02*
X101291288Y-99126190D01*
X101291288Y-99126190D02*
X101291288Y-98840476D01*
X101291288Y-98840476D02*
X101243669Y-98745238D01*
X101243669Y-98745238D02*
X101196049Y-98697619D01*
X148729326Y-111864819D02*
X148729326Y-112579104D01*
X148729326Y-112579104D02*
X148776945Y-112721961D01*
X148776945Y-112721961D02*
X148872183Y-112817200D01*
X148872183Y-112817200D02*
X149015040Y-112864819D01*
X149015040Y-112864819D02*
X149110278Y-112864819D01*
X148491231Y-112960057D02*
X147729326Y-112960057D01*
X147300754Y-111864819D02*
X147110278Y-111864819D01*
X147110278Y-111864819D02*
X147015040Y-111912438D01*
X147015040Y-111912438D02*
X146919802Y-112007676D01*
X146919802Y-112007676D02*
X146872183Y-112198152D01*
X146872183Y-112198152D02*
X146872183Y-112531485D01*
X146872183Y-112531485D02*
X146919802Y-112721961D01*
X146919802Y-112721961D02*
X147015040Y-112817200D01*
X147015040Y-112817200D02*
X147110278Y-112864819D01*
X147110278Y-112864819D02*
X147300754Y-112864819D01*
X147300754Y-112864819D02*
X147395992Y-112817200D01*
X147395992Y-112817200D02*
X147491230Y-112721961D01*
X147491230Y-112721961D02*
X147538849Y-112531485D01*
X147538849Y-112531485D02*
X147538849Y-112198152D01*
X147538849Y-112198152D02*
X147491230Y-112007676D01*
X147491230Y-112007676D02*
X147395992Y-111912438D01*
X147395992Y-111912438D02*
X147300754Y-111864819D01*
X146443611Y-111864819D02*
X146443611Y-112674342D01*
X146443611Y-112674342D02*
X146395992Y-112769580D01*
X146395992Y-112769580D02*
X146348373Y-112817200D01*
X146348373Y-112817200D02*
X146253135Y-112864819D01*
X146253135Y-112864819D02*
X146062659Y-112864819D01*
X146062659Y-112864819D02*
X145967421Y-112817200D01*
X145967421Y-112817200D02*
X145919802Y-112769580D01*
X145919802Y-112769580D02*
X145872183Y-112674342D01*
X145872183Y-112674342D02*
X145872183Y-111864819D01*
X145538849Y-111864819D02*
X144967421Y-111864819D01*
X145253135Y-112864819D02*
X145253135Y-111864819D01*
X144205516Y-112198152D02*
X144205516Y-112864819D01*
X144443611Y-111817200D02*
X144681706Y-112531485D01*
X144681706Y-112531485D02*
X144062659Y-112531485D01*
X146041288Y-98316666D02*
X146755573Y-98316666D01*
X146755573Y-98316666D02*
X146898430Y-98269047D01*
X146898430Y-98269047D02*
X146993669Y-98173809D01*
X146993669Y-98173809D02*
X147041288Y-98030952D01*
X147041288Y-98030952D02*
X147041288Y-97935714D01*
X146041288Y-99269047D02*
X146041288Y-98792857D01*
X146041288Y-98792857D02*
X146517478Y-98745238D01*
X146517478Y-98745238D02*
X146469859Y-98792857D01*
X146469859Y-98792857D02*
X146422240Y-98888095D01*
X146422240Y-98888095D02*
X146422240Y-99126190D01*
X146422240Y-99126190D02*
X146469859Y-99221428D01*
X146469859Y-99221428D02*
X146517478Y-99269047D01*
X146517478Y-99269047D02*
X146612716Y-99316666D01*
X146612716Y-99316666D02*
X146850811Y-99316666D01*
X146850811Y-99316666D02*
X146946049Y-99269047D01*
X146946049Y-99269047D02*
X146993669Y-99221428D01*
X146993669Y-99221428D02*
X147041288Y-99126190D01*
X147041288Y-99126190D02*
X147041288Y-98888095D01*
X147041288Y-98888095D02*
X146993669Y-98792857D01*
X146993669Y-98792857D02*
X146946049Y-98745238D01*
D11*
%TO.C,J4*%
X106816469Y-85950000D02*
X106816469Y-111350000D01*
X106816469Y-111350000D02*
X109356469Y-111350000D01*
X108721469Y-85950000D02*
X106816469Y-85950000D01*
X109356469Y-86585000D02*
X108721469Y-85950000D01*
X109356469Y-111350000D02*
X109356469Y-86585000D01*
%TO.C,J6*%
X152566469Y-85950000D02*
X152566469Y-111350000D01*
X152566469Y-111350000D02*
X155106469Y-111350000D01*
X154471469Y-85950000D02*
X152566469Y-85950000D01*
X155106469Y-86585000D02*
X154471469Y-85950000D01*
X155106469Y-111350000D02*
X155106469Y-86585000D01*
%TO.C,J3*%
X99566469Y-85950000D02*
X99566469Y-111350000D01*
X99566469Y-111350000D02*
X102106469Y-111350000D01*
X101471469Y-85950000D02*
X99566469Y-85950000D01*
X102106469Y-86585000D02*
X101471469Y-85950000D01*
X102106469Y-111350000D02*
X102106469Y-86585000D01*
%TO.C,J5*%
X145316469Y-85950000D02*
X145316469Y-111350000D01*
X145316469Y-111350000D02*
X147856469Y-111350000D01*
X147221469Y-85950000D02*
X145316469Y-85950000D01*
X147856469Y-86585000D02*
X147221469Y-85950000D01*
X147856469Y-111350000D02*
X147856469Y-86585000D01*
%TD*%
M02*
