%TF.GenerationSoftware,KiCad,Pcbnew,9.0.0*%
%TF.CreationDate,2025-09-30T11:45:59-04:00*%
%TF.ProjectId,CSC202_LP_MSPM0G3507_3TERM_BREAKOUT,43534332-3032-45f4-9c50-5f4d53504d30,rev?*%
%TF.SameCoordinates,Original*%
%TF.FileFunction,Soldermask,Bot*%
%TF.FilePolarity,Negative*%
%FSLAX46Y46*%
G04 Gerber Fmt 4.6, Leading zero omitted, Abs format (unit mm)*
G04 Created by KiCad (PCBNEW 9.0.0) date 2025-09-30 11:45:59*
%MOMM*%
%LPD*%
G01*
G04 APERTURE LIST*
%ADD10O,1.700000X1.700000*%
%ADD11R,1.700000X1.700000*%
G04 APERTURE END LIST*
D10*
%TO.C,J2*%
X171225369Y-110124556D03*
X171225369Y-107584556D03*
X171225369Y-105044556D03*
X171225369Y-102504556D03*
X171225369Y-99964556D03*
X171225369Y-97424556D03*
X171225369Y-94884556D03*
X171225369Y-92344556D03*
X171225369Y-89804556D03*
X171225369Y-87264556D03*
X168685369Y-110124556D03*
X168685369Y-107584556D03*
X168685369Y-105044556D03*
X168685369Y-102504556D03*
X168685369Y-99964556D03*
X168685369Y-97424556D03*
X168685369Y-94884556D03*
X168685369Y-92344556D03*
X168685369Y-89804556D03*
D11*
X168685369Y-87264556D03*
%TD*%
%TO.C,J1*%
X126141369Y-87264556D03*
D10*
X126141369Y-89804556D03*
X126141369Y-92344556D03*
X126141369Y-94884556D03*
X126141369Y-97424556D03*
X126141369Y-99964556D03*
X126141369Y-102504556D03*
X126141369Y-105044556D03*
X126141369Y-107584556D03*
X126141369Y-110124556D03*
X128681369Y-87264556D03*
X128681369Y-89804556D03*
X128681369Y-92344556D03*
X128681369Y-94884556D03*
X128681369Y-97424556D03*
X128681369Y-99964556D03*
X128681369Y-102504556D03*
X128681369Y-105044556D03*
X128681369Y-107584556D03*
X128681369Y-110124556D03*
%TD*%
D11*
%TO.C,J4*%
X108086469Y-87220000D03*
D10*
X108086469Y-89760000D03*
X108086469Y-92300000D03*
X108086469Y-94840000D03*
X108086469Y-97380000D03*
X108086469Y-99920000D03*
X108086469Y-102460000D03*
X108086469Y-105000000D03*
X108086469Y-107540000D03*
X108086469Y-110080000D03*
%TD*%
D11*
%TO.C,J6*%
X153836469Y-87220000D03*
D10*
X153836469Y-89760000D03*
X153836469Y-92300000D03*
X153836469Y-94840000D03*
X153836469Y-97380000D03*
X153836469Y-99920000D03*
X153836469Y-102460000D03*
X153836469Y-105000000D03*
X153836469Y-107540000D03*
X153836469Y-110080000D03*
%TD*%
D11*
%TO.C,J3*%
X100836469Y-87220000D03*
D10*
X100836469Y-89760000D03*
X100836469Y-92300000D03*
X100836469Y-94840000D03*
X100836469Y-97380000D03*
X100836469Y-99920000D03*
X100836469Y-102460000D03*
X100836469Y-105000000D03*
X100836469Y-107540000D03*
X100836469Y-110080000D03*
%TD*%
D11*
%TO.C,J5*%
X146586469Y-87220000D03*
D10*
X146586469Y-89760000D03*
X146586469Y-92300000D03*
X146586469Y-94840000D03*
X146586469Y-97380000D03*
X146586469Y-99920000D03*
X146586469Y-102460000D03*
X146586469Y-105000000D03*
X146586469Y-107540000D03*
X146586469Y-110080000D03*
%TD*%
M02*
