%TF.GenerationSoftware,KiCad,Pcbnew,9.0.0*%
%TF.CreationDate,2025-09-23T12:44:31-04:00*%
%TF.ProjectId,CSC202_LP_MSPM0G3507_3TERM_BREAKOUT,43534332-3032-45f4-9c50-5f4d53504d30,rev?*%
%TF.SameCoordinates,Original*%
%TF.FileFunction,Copper,L1,Top*%
%TF.FilePolarity,Positive*%
%FSLAX46Y46*%
G04 Gerber Fmt 4.6, Leading zero omitted, Abs format (unit mm)*
G04 Created by KiCad (PCBNEW 9.0.0) date 2025-09-23 12:44:31*
%MOMM*%
%LPD*%
G01*
G04 APERTURE LIST*
%TA.AperFunction,Conductor*%
%ADD10C,1.000000*%
%TD*%
%ADD11C,0.100000*%
%ADD12C,0.200000*%
%TA.AperFunction,EtchedComponent*%
%ADD13C,0.200000*%
%TD*%
%TA.AperFunction,ComponentPad*%
%ADD14O,1.700000X1.700000*%
%TD*%
%TA.AperFunction,ComponentPad*%
%ADD15R,1.700000X1.700000*%
%TD*%
%TA.AperFunction,Conductor*%
%ADD16C,0.400000*%
%TD*%
%TA.AperFunction,Conductor*%
%ADD17C,1.500000*%
%TD*%
%TA.AperFunction,Conductor*%
%ADD18C,1.300000*%
%TD*%
%TA.AperFunction,Conductor*%
%ADD19C,0.200000*%
%TD*%
G04 APERTURE END LIST*
D10*
%TO.N,+5V*%
X128668927Y-87289798D02*
X127608927Y-88569798D01*
D11*
G36*
X176947498Y-81736902D02*
G01*
X177031534Y-81762188D01*
X177105992Y-81803507D01*
X177172482Y-81861831D01*
X177224810Y-81931754D01*
X177263553Y-82015721D01*
X177288221Y-82116544D01*
X177297037Y-82237804D01*
X177296048Y-82282070D01*
X176565701Y-82282070D01*
X176575822Y-82362754D01*
X176594996Y-82429284D01*
X176622161Y-82484028D01*
X176656953Y-82528871D01*
X176716210Y-82576416D01*
X176783583Y-82604701D01*
X176861714Y-82614435D01*
X176921018Y-82608850D01*
X176972459Y-82592806D01*
X177017593Y-82566625D01*
X177055671Y-82530767D01*
X177089902Y-82480935D01*
X177119973Y-82413961D01*
X177291514Y-82435063D01*
X177255724Y-82529989D01*
X177205691Y-82606896D01*
X177141158Y-82668593D01*
X177084640Y-82703831D01*
X177020062Y-82729691D01*
X176946023Y-82745906D01*
X176860807Y-82751602D01*
X176754878Y-82742623D01*
X176664553Y-82717106D01*
X176586967Y-82676126D01*
X176520034Y-82619299D01*
X176467005Y-82549891D01*
X176427875Y-82466847D01*
X176403026Y-82367446D01*
X176394160Y-82248190D01*
X176401682Y-82144903D01*
X176574933Y-82144903D01*
X177121787Y-82144903D01*
X177108582Y-82064489D01*
X177087151Y-82004554D01*
X177059056Y-81960667D01*
X177016073Y-81918630D01*
X176968253Y-81889250D01*
X176914578Y-81871444D01*
X176853471Y-81865294D01*
X176780295Y-81873987D01*
X176716972Y-81899207D01*
X176661157Y-81941378D01*
X176617770Y-81996428D01*
X176588900Y-82063280D01*
X176574933Y-82144903D01*
X176401682Y-82144903D01*
X176403164Y-82124561D01*
X176428361Y-82021723D01*
X176467948Y-81936033D01*
X176521435Y-81864634D01*
X176589393Y-81805195D01*
X176665818Y-81762999D01*
X176752405Y-81737122D01*
X176851575Y-81728127D01*
X176947498Y-81736902D01*
G37*
D12*
X177845216Y-82785000D02*
X177845206Y-82786370D01*
X177845176Y-82787736D01*
X177845126Y-82789098D01*
X177845057Y-82790456D01*
X177844858Y-82793160D01*
X177844581Y-82795851D01*
X177844224Y-82798528D01*
X177843789Y-82801194D01*
X177843274Y-82803849D01*
X177842680Y-82806495D01*
X177842006Y-82809132D01*
X177841252Y-82811762D01*
X177840416Y-82814385D01*
X177839498Y-82817003D01*
X177838497Y-82819617D01*
X177837412Y-82822228D01*
X177836241Y-82824836D01*
X177834983Y-82827442D01*
X177833637Y-82830047D01*
X177832201Y-82832653D01*
X177830673Y-82835258D01*
X177829052Y-82837866D01*
X177827336Y-82840475D01*
X177825521Y-82843087D01*
X177823608Y-82845701D01*
X177821592Y-82848320D01*
X177819473Y-82850942D01*
X177817247Y-82853569D01*
X177814911Y-82856201D01*
X177812464Y-82858838D01*
X177809903Y-82861481D01*
X177807225Y-82864130D01*
X177804427Y-82866784D01*
X177801506Y-82869444D01*
X177798459Y-82872111D01*
X177795284Y-82874784D01*
X177791977Y-82877464D01*
X177788534Y-82880150D01*
X177784953Y-82882842D01*
X177781231Y-82885541D01*
X177777364Y-82888246D01*
X177773348Y-82890957D01*
X177769180Y-82893674D01*
X177764858Y-82896397D01*
X177760376Y-82899125D01*
X177755731Y-82901859D01*
X177750921Y-82904597D01*
X177745940Y-82907340D01*
X177740786Y-82910088D01*
X177735455Y-82912839D01*
X177729942Y-82915594D01*
X177724245Y-82918352D01*
X177718358Y-82921112D01*
X177712278Y-82923875D01*
X177706002Y-82926639D01*
X177699525Y-82929405D01*
X177692843Y-82932171D01*
X177685953Y-82934937D01*
X177678849Y-82937702D01*
X177671529Y-82940465D01*
X177663988Y-82943227D01*
X177656222Y-82945986D01*
X177648228Y-82948742D01*
X177640000Y-82951493D01*
X177631535Y-82954240D01*
X177622830Y-82956981D01*
X177613879Y-82959715D01*
X177604680Y-82962442D01*
X177595228Y-82965161D01*
X177585518Y-82967870D01*
X177575549Y-82970570D01*
X177565315Y-82973258D01*
X177554812Y-82975935D01*
X177544038Y-82978598D01*
X177532989Y-82981248D01*
X177521661Y-82983882D01*
X177510050Y-82986501D01*
X177498154Y-82989102D01*
X177485970Y-82991685D01*
X177473494Y-82994249D01*
X177460724Y-82996791D01*
X177447657Y-82999312D01*
X177434291Y-83001810D01*
X177420623Y-83004283D01*
X177406653Y-83006730D01*
X177392378Y-83009151D01*
X177377797Y-83011542D01*
X177362910Y-83013904D01*
X177347716Y-83016234D01*
X177332216Y-83018531D01*
X177316410Y-83020793D01*
X177300300Y-83023019D01*
X177283888Y-83025207D01*
X177267176Y-83027355D01*
X177250170Y-83029461D01*
X177232874Y-83031524D01*
X177215293Y-83033542D01*
X177197437Y-83035512D01*
X177179314Y-83037433D01*
X177160936Y-83039302D01*
X177142316Y-83041117D01*
X177123472Y-83042875D01*
X177104422Y-83044574D01*
X177085190Y-83046211D01*
X177065806Y-83047784D01*
X177046302Y-83049288D01*
X177026722Y-83050721D01*
X177007116Y-83052079D01*
X176987549Y-83053358D01*
X176968102Y-83054553D01*
X176948876Y-83055659D01*
X176930011Y-83056670D01*
X176911692Y-83057579D01*
X176894189Y-83058376D01*
X176877918Y-83059048D01*
X176863606Y-83059576D01*
X176852847Y-83059921D01*
X176850000Y-83060000D01*
X175854784Y-82785000D02*
X175854794Y-82786370D01*
X175854824Y-82787736D01*
X175854874Y-82789098D01*
X175854943Y-82790456D01*
X175855142Y-82793160D01*
X175855419Y-82795851D01*
X175855776Y-82798528D01*
X175856211Y-82801194D01*
X175856726Y-82803849D01*
X175857320Y-82806495D01*
X175857994Y-82809132D01*
X175858748Y-82811762D01*
X175859584Y-82814385D01*
X175860502Y-82817003D01*
X175861503Y-82819617D01*
X175862588Y-82822228D01*
X175863759Y-82824836D01*
X175865017Y-82827442D01*
X175866363Y-82830047D01*
X175867799Y-82832653D01*
X175869327Y-82835258D01*
X175870948Y-82837866D01*
X175872664Y-82840475D01*
X175874479Y-82843087D01*
X175876392Y-82845701D01*
X175878408Y-82848320D01*
X175880527Y-82850942D01*
X175882753Y-82853569D01*
X175885089Y-82856201D01*
X175887536Y-82858838D01*
X175890097Y-82861481D01*
X175892775Y-82864130D01*
X175895573Y-82866784D01*
X175898494Y-82869444D01*
X175901541Y-82872111D01*
X175904716Y-82874784D01*
X175908023Y-82877464D01*
X175911466Y-82880150D01*
X175915047Y-82882842D01*
X175918769Y-82885541D01*
X175922636Y-82888246D01*
X175926652Y-82890957D01*
X175930820Y-82893674D01*
X175935142Y-82896397D01*
X175939624Y-82899125D01*
X175944269Y-82901859D01*
X175949079Y-82904597D01*
X175954060Y-82907340D01*
X175959214Y-82910088D01*
X175964545Y-82912839D01*
X175970058Y-82915594D01*
X175975755Y-82918352D01*
X175981642Y-82921112D01*
X175987722Y-82923875D01*
X175993998Y-82926639D01*
X176000475Y-82929405D01*
X176007157Y-82932171D01*
X176014047Y-82934937D01*
X176021151Y-82937702D01*
X176028471Y-82940465D01*
X176036012Y-82943227D01*
X176043778Y-82945986D01*
X176051772Y-82948742D01*
X176060000Y-82951493D01*
X176068465Y-82954240D01*
X176077170Y-82956981D01*
X176086121Y-82959715D01*
X176095320Y-82962442D01*
X176104772Y-82965161D01*
X176114482Y-82967870D01*
X176124451Y-82970570D01*
X176134685Y-82973258D01*
X176145188Y-82975935D01*
X176155962Y-82978598D01*
X176167011Y-82981248D01*
X176178339Y-82983882D01*
X176189950Y-82986501D01*
X176201846Y-82989102D01*
X176214030Y-82991685D01*
X176226506Y-82994249D01*
X176239276Y-82996791D01*
X176252343Y-82999312D01*
X176265709Y-83001810D01*
X176279377Y-83004283D01*
X176293347Y-83006730D01*
X176307622Y-83009151D01*
X176322203Y-83011542D01*
X176337090Y-83013904D01*
X176352284Y-83016234D01*
X176367784Y-83018531D01*
X176383590Y-83020793D01*
X176399700Y-83023019D01*
X176416112Y-83025207D01*
X176432824Y-83027355D01*
X176449830Y-83029461D01*
X176467126Y-83031524D01*
X176484707Y-83033542D01*
X176502563Y-83035512D01*
X176520686Y-83037433D01*
X176539064Y-83039302D01*
X176557684Y-83041117D01*
X176576528Y-83042875D01*
X176595578Y-83044574D01*
X176614810Y-83046211D01*
X176634194Y-83047784D01*
X176653698Y-83049288D01*
X176673278Y-83050721D01*
X176692884Y-83052079D01*
X176712451Y-83053358D01*
X176731898Y-83054553D01*
X176751124Y-83055659D01*
X176769989Y-83056670D01*
X176788308Y-83057579D01*
X176805811Y-83058376D01*
X176822082Y-83059048D01*
X176836394Y-83059576D01*
X176847153Y-83059921D01*
X176850000Y-83060000D01*
D13*
%TD*%
%TO.C,LOGO\u002A\u002A*%
X177845216Y-82785000D02*
G75*
G02*
X177624993Y-82360000I299984J425000D01*
G01*
%TO.C,LOGO\u002A\u002A*%
X176953078Y-83156922D02*
G75*
G02*
X176746922Y-83156922I-103078J0D01*
G01*
X176746922Y-81285000D02*
G75*
G02*
X176953078Y-81285000I103078J0D01*
G01*
X176075000Y-82360000D02*
G75*
G02*
X175854784Y-82785000I-520212J-3D01*
G01*
X176075000Y-82160000D02*
G75*
G02*
X177625000Y-82160000I775000J0D01*
G01*
X177625000Y-82360000D02*
X177625000Y-82160000D01*
X176075000Y-82160000D02*
X176075000Y-82360000D01*
%TD*%
D14*
%TO.P,J2,11,PB16*%
%TO.N,/KP_COL3*%
X171225369Y-110124556D03*
%TO.P,J2,12,PB0*%
%TO.N,/SPI_CS1*%
X171225369Y-107584556D03*
%TO.P,J2,13,PB6*%
%TO.N,/SPI_CS0*%
X171225369Y-105044556D03*
%TO.P,J2,14,PB7*%
%TO.N,/SPI_MISO*%
X171225369Y-102504556D03*
%TO.P,J2,15,PB8*%
%TO.N,/SPI_MOSI*%
X171225369Y-99964556D03*
%TO.P,J2,16,NRST*%
%TO.N,/NRST*%
X171225369Y-97424556D03*
%TO.P,J2,17,PB15*%
%TO.N,/KP_COL2*%
X171225369Y-94884556D03*
%TO.P,J2,18,PB17*%
%TO.N,/KP_COL1*%
X171225369Y-92344556D03*
%TO.P,J2,19,PB12*%
%TO.N,/KP_COL0*%
X171225369Y-89804556D03*
%TO.P,J2,20,GND*%
%TO.N,GND*%
X171225369Y-87264556D03*
%TO.P,J2,31,PA13*%
%TO.N,/LED5*%
X168685369Y-110124556D03*
%TO.P,J2,32,PA12*%
%TO.N,/LED4*%
X168685369Y-107584556D03*
%TO.P,J2,33,PA11*%
%TO.N,/LINRX*%
X168685369Y-105044556D03*
%TO.P,J2,34,PA10*%
%TO.N,/LINTX*%
X168685369Y-102504556D03*
%TO.P,J2,35,PB13*%
%TO.N,/LED3*%
X168685369Y-99964556D03*
%TO.P,J2,36,PB20*%
%TO.N,/LED2{slash}DIR_B*%
X168685369Y-97424556D03*
%TO.P,J2,37,PA31*%
%TO.N,/LED1{slash}DIR_A*%
X168685369Y-94884556D03*
%TO.P,J2,38,PA28*%
%TO.N,/LED0{slash}PWM*%
X168685369Y-92344556D03*
%TO.P,J2,39,PB1*%
%TO.N,/KP_ROW3*%
X168685369Y-89804556D03*
D15*
%TO.P,J2,40,PB4*%
%TO.N,/KP_ROW2*%
X168685369Y-87264556D03*
%TD*%
%TO.P,J1,1,3V3*%
%TO.N,+3V3*%
X126141369Y-87264556D03*
D14*
%TO.P,J1,2,PA25*%
%TO.N,/DIG1_EN*%
X126141369Y-89804556D03*
%TO.P,J1,3,PB23/A9*%
%TO.N,/KP_ROW0*%
X126141369Y-92344556D03*
%TO.P,J1,4,PA8*%
%TO.N,/KP_ROW1*%
X126141369Y-94884556D03*
%TO.P,J1,5,PA26*%
%TO.N,/DIG2_EN*%
X126141369Y-97424556D03*
%TO.P,J1,6,PB24*%
%TO.N,/ADC0.5*%
X126141369Y-99964556D03*
%TO.P,J1,7,PB9*%
%TO.N,/SPI_CLK*%
X126141369Y-102504556D03*
%TO.P,J1,8,PA27*%
%TO.N,/DIG3_EN*%
X126141369Y-105044556D03*
%TO.P,J1,9,PB2*%
%TO.N,/I2C_SCL*%
X126141369Y-107584556D03*
%TO.P,J1,10,PB3*%
%TO.N,/I2C_SDA*%
X126141369Y-110124556D03*
%TO.P,J1,21,5V*%
%TO.N,+5V*%
X128681369Y-87264556D03*
%TO.P,J1,22,GND*%
%TO.N,GND*%
X128681369Y-89804556D03*
%TO.P,J1,23,PB19*%
%TO.N,/SW1-1*%
X128681369Y-92344556D03*
%TO.P,J1,24,PA22*%
%TO.N,/SW1-2{slash}ADC0.7*%
X128681369Y-94884556D03*
%TO.P,J1,25,PB18*%
%TO.N,/SW1-3{slash}PB1*%
X128681369Y-97424556D03*
%TO.P,J1,26,PA18*%
%TO.N,/LED_EN*%
X128681369Y-99964556D03*
%TO.P,J1,27,PA24*%
%TO.N,/DIG0_EN*%
X128681369Y-102504556D03*
%TO.P,J1,28,PA17*%
%TO.N,/LED7*%
X128681369Y-105044556D03*
%TO.P,J1,29,PA16/A18*%
%TO.N,/LED6*%
X128681369Y-107584556D03*
%TO.P,J1,30,PA15*%
%TO.N,/SW1-4{slash}PB2*%
X128681369Y-110124556D03*
%TD*%
%TO.P,J4,10,Pin_10*%
%TO.N,/SW1-4{slash}PB2*%
X108086469Y-110080000D03*
%TO.P,J4,9,Pin_9*%
%TO.N,/LED6*%
X108086469Y-107540000D03*
%TO.P,J4,8,Pin_8*%
%TO.N,/LED7*%
X108086469Y-105000000D03*
%TO.P,J4,7,Pin_7*%
%TO.N,/DIG0_EN*%
X108086469Y-102460000D03*
%TO.P,J4,6,Pin_6*%
%TO.N,/LED_EN*%
X108086469Y-99920000D03*
%TO.P,J4,5,Pin_5*%
%TO.N,/SW1-3{slash}PB1*%
X108086469Y-97380000D03*
%TO.P,J4,4,Pin_4*%
%TO.N,/SW1-2{slash}ADC0.7*%
X108086469Y-94840000D03*
%TO.P,J4,3,Pin_3*%
%TO.N,/SW1-1*%
X108086469Y-92300000D03*
%TO.P,J4,2,Pin_2*%
%TO.N,GND*%
X108086469Y-89760000D03*
D15*
%TO.P,J4,1,Pin_1*%
%TO.N,+5V*%
X108086469Y-87220000D03*
%TD*%
D14*
%TO.P,J6,10,Pin_10*%
%TO.N,/KP_COL3*%
X153836469Y-110080000D03*
%TO.P,J6,9,Pin_9*%
%TO.N,/SPI_CS1*%
X153836469Y-107540000D03*
%TO.P,J6,8,Pin_8*%
%TO.N,/SPI_CS0*%
X153836469Y-105000000D03*
%TO.P,J6,7,Pin_7*%
%TO.N,/SPI_MISO*%
X153836469Y-102460000D03*
%TO.P,J6,6,Pin_6*%
%TO.N,/SPI_MOSI*%
X153836469Y-99920000D03*
%TO.P,J6,5,Pin_5*%
%TO.N,/NRST*%
X153836469Y-97380000D03*
%TO.P,J6,4,Pin_4*%
%TO.N,/KP_COL2*%
X153836469Y-94840000D03*
%TO.P,J6,3,Pin_3*%
%TO.N,/KP_COL1*%
X153836469Y-92300000D03*
%TO.P,J6,2,Pin_2*%
%TO.N,/KP_COL0*%
X153836469Y-89760000D03*
D15*
%TO.P,J6,1,Pin_1*%
%TO.N,GND*%
X153836469Y-87220000D03*
%TD*%
D14*
%TO.P,J3,10,Pin_10*%
%TO.N,/I2C_SDA*%
X100836469Y-110080000D03*
%TO.P,J3,9,Pin_9*%
%TO.N,/I2C_SCL*%
X100836469Y-107540000D03*
%TO.P,J3,8,Pin_8*%
%TO.N,/DIG3_EN*%
X100836469Y-105000000D03*
%TO.P,J3,7,Pin_7*%
%TO.N,/SPI_CLK*%
X100836469Y-102460000D03*
%TO.P,J3,6,Pin_6*%
%TO.N,/ADC0.5*%
X100836469Y-99920000D03*
%TO.P,J3,5,Pin_5*%
%TO.N,/DIG2_EN*%
X100836469Y-97380000D03*
%TO.P,J3,4,Pin_4*%
%TO.N,/KP_ROW1*%
X100836469Y-94840000D03*
%TO.P,J3,3,Pin_3*%
%TO.N,/KP_ROW0*%
X100836469Y-92300000D03*
%TO.P,J3,2,Pin_2*%
%TO.N,/DIG1_EN*%
X100836469Y-89760000D03*
D15*
%TO.P,J3,1,Pin_1*%
%TO.N,+3V3*%
X100836469Y-87220000D03*
%TD*%
D14*
%TO.P,J5,10,Pin_10*%
%TO.N,/LED5*%
X146586469Y-110080000D03*
%TO.P,J5,9,Pin_9*%
%TO.N,/LED4*%
X146586469Y-107540000D03*
%TO.P,J5,8,Pin_8*%
%TO.N,/LINRX*%
X146586469Y-105000000D03*
%TO.P,J5,7,Pin_7*%
%TO.N,/LINTX*%
X146586469Y-102460000D03*
%TO.P,J5,6,Pin_6*%
%TO.N,/LED3*%
X146586469Y-99920000D03*
%TO.P,J5,5,Pin_5*%
%TO.N,/LED2{slash}DIR_B*%
X146586469Y-97380000D03*
%TO.P,J5,4,Pin_4*%
%TO.N,/LED1{slash}DIR_A*%
X146586469Y-94840000D03*
%TO.P,J5,3,Pin_3*%
%TO.N,/LED0{slash}PWM*%
X146586469Y-92300000D03*
%TO.P,J5,2,Pin_2*%
%TO.N,/KP_ROW3*%
X146586469Y-89760000D03*
D15*
%TO.P,J5,1,Pin_1*%
%TO.N,/KP_ROW2*%
X146586469Y-87220000D03*
%TD*%
D16*
%TO.N,/ADC0.5*%
X104381385Y-98649596D02*
X103111183Y-99919798D01*
X103111183Y-99919798D02*
X100828927Y-99919798D01*
X104381587Y-98649798D02*
X104381385Y-98649596D01*
X122078927Y-98649798D02*
X104381587Y-98649798D01*
X123398927Y-99969798D02*
X122078927Y-98649798D01*
X126100127Y-99969798D02*
X123398927Y-99969798D01*
%TO.N,/DIG1_EN*%
X107558725Y-88489596D02*
X104381385Y-88489596D01*
X107558927Y-88489798D02*
X107558725Y-88489596D01*
X123398927Y-89809798D02*
X126100127Y-89809798D01*
X103111183Y-89759798D02*
X104381385Y-88489596D01*
X100828927Y-89759798D02*
X103111183Y-89759798D01*
X107558927Y-88489798D02*
X122078927Y-88489798D01*
X122078927Y-88489798D02*
X123398927Y-89809798D01*
%TO.N,/I2C_SDA*%
X103111183Y-110099798D02*
X100828927Y-110099798D01*
X126100127Y-110149798D02*
X123398927Y-110149798D01*
X104381385Y-108829596D02*
X103111183Y-110099798D01*
X122078927Y-108829798D02*
X104381587Y-108829798D01*
X123398927Y-110149798D02*
X122078927Y-108829798D01*
X104381587Y-108829798D02*
X104381385Y-108829596D01*
%TO.N,/DIG2_EN*%
X104381587Y-96109798D02*
X104381385Y-96109596D01*
X123398927Y-97429798D02*
X122078927Y-96109798D01*
X104381385Y-96109596D02*
X103111183Y-97379798D01*
X122078927Y-96109798D02*
X104381587Y-96109798D01*
X126100127Y-97429798D02*
X123398927Y-97429798D01*
X103111183Y-97379798D02*
X100828927Y-97379798D01*
%TO.N,/DIG3_EN*%
X122078927Y-103729798D02*
X104381587Y-103729798D01*
X104381587Y-103729798D02*
X104381385Y-103729596D01*
X123398927Y-105049798D02*
X122078927Y-103729798D01*
X126100127Y-105049798D02*
X123398927Y-105049798D01*
X103111183Y-104999798D02*
X100828927Y-104999798D01*
X104381385Y-103729596D02*
X103111183Y-104999798D01*
%TO.N,/KP_ROW1*%
X103111183Y-94839798D02*
X100828927Y-94839798D01*
X123398927Y-94889798D02*
X122078927Y-93569798D01*
X104381385Y-93569596D02*
X103111183Y-94839798D01*
X104381587Y-93569798D02*
X104381385Y-93569596D01*
X122078927Y-93569798D02*
X104381587Y-93569798D01*
X126100127Y-94889798D02*
X123398927Y-94889798D01*
D17*
%TO.N,+3V3*%
X103826671Y-84229798D02*
X100836469Y-87220000D01*
X125992969Y-87264556D02*
X122958211Y-84229798D01*
X122958211Y-84229798D02*
X103826671Y-84229798D01*
D18*
X126141369Y-87264556D02*
X125992969Y-87264556D01*
D16*
%TO.N,/KP_ROW0*%
X123398927Y-92349798D02*
X122078927Y-91029798D01*
X126100127Y-92349798D02*
X123398927Y-92349798D01*
X104381587Y-91029798D02*
X104381385Y-91029596D01*
X104381385Y-91029596D02*
X103111183Y-92299798D01*
X103111183Y-92299798D02*
X100828927Y-92299798D01*
X122078927Y-91029798D02*
X104381587Y-91029798D01*
%TO.N,/I2C_SCL*%
X104381385Y-106279596D02*
X103111183Y-107549798D01*
X123398927Y-107599798D02*
X122078927Y-106279798D01*
X104381587Y-106279798D02*
X104381385Y-106279596D01*
X126100127Y-107599798D02*
X123398927Y-107599798D01*
X103111183Y-107549798D02*
X100828927Y-107549798D01*
X122078927Y-106279798D02*
X104381587Y-106279798D01*
%TO.N,/SPI_CLK*%
X122078927Y-101189798D02*
X104381587Y-101189798D01*
X126100127Y-102509798D02*
X123398927Y-102509798D01*
X103111183Y-102459798D02*
X100828927Y-102459798D01*
X104381385Y-101189596D02*
X103111183Y-102459798D01*
X123398927Y-102509798D02*
X122078927Y-101189798D01*
X104381587Y-101189798D02*
X104381385Y-101189596D01*
%TO.N,/KP_COL3*%
X171338900Y-110145546D02*
X170074648Y-111409798D01*
X170074648Y-111409798D02*
X166063206Y-111409798D01*
X164753408Y-110100000D02*
X153950000Y-110100000D01*
X166063206Y-111409798D02*
X164753408Y-110100000D01*
%TO.N,/SPI_CS1*%
X164753408Y-107550000D02*
X153950000Y-107550000D01*
X166063206Y-108859798D02*
X164753408Y-107550000D01*
X171338900Y-107595546D02*
X170074648Y-108859798D01*
X170074648Y-108859798D02*
X166063206Y-108859798D01*
%TO.N,/KP_COL1*%
X170074648Y-93609798D02*
X166063206Y-93609798D01*
X166063206Y-93609798D02*
X164753408Y-92300000D01*
X171338900Y-92345546D02*
X170074648Y-93609798D01*
X164753408Y-92300000D02*
X153950000Y-92300000D01*
%TO.N,/KP_COL0*%
X171338900Y-89805546D02*
X170074648Y-91069798D01*
X164753408Y-89760000D02*
X153950000Y-89760000D01*
X166063206Y-91069798D02*
X164753408Y-89760000D01*
X171225369Y-89804556D02*
X171225369Y-89805546D01*
X170074648Y-91069798D02*
X166063206Y-91069798D01*
%TO.N,/SPI_MOSI*%
X164753408Y-99920000D02*
X153950000Y-99920000D01*
X166063206Y-101229798D02*
X164753408Y-99920000D01*
X171338900Y-99965546D02*
X170074648Y-101229798D01*
X170074648Y-101229798D02*
X166063206Y-101229798D01*
%TO.N,/KP_COL2*%
X166063206Y-96149798D02*
X164753408Y-94840000D01*
X171338900Y-94885546D02*
X170074648Y-96149798D01*
X164753408Y-94840000D02*
X153950000Y-94840000D01*
X170074648Y-96149798D02*
X166063206Y-96149798D01*
%TO.N,/SPI_MISO*%
X164753408Y-102460000D02*
X153950000Y-102460000D01*
X170074648Y-103769798D02*
X166063206Y-103769798D01*
X166063206Y-103769798D02*
X164753408Y-102460000D01*
X171338900Y-102505546D02*
X170074648Y-103769798D01*
%TO.N,/SPI_CS0*%
X171338900Y-105045546D02*
X170074648Y-106309798D01*
X164753408Y-105000000D02*
X153950000Y-105000000D01*
X170074648Y-106309798D02*
X166063206Y-106309798D01*
X166063206Y-106309798D02*
X164753408Y-105000000D01*
%TO.N,/NRST*%
X166063206Y-98689798D02*
X164753408Y-97380000D01*
X170074648Y-98689798D02*
X166063206Y-98689798D01*
X171338900Y-97425546D02*
X170074648Y-98689798D01*
X164753408Y-97380000D02*
X153950000Y-97380000D01*
%TO.N,/SW1-3{slash}PB1*%
X122059877Y-97380000D02*
X108086469Y-97380000D01*
X123369675Y-98689798D02*
X122059877Y-97380000D01*
X127381117Y-98689798D02*
X123369675Y-98689798D01*
X128645369Y-97425546D02*
X127381117Y-98689798D01*
%TO.N,/LED_EN*%
X127381117Y-101229798D02*
X123369675Y-101229798D01*
X123369675Y-101229798D02*
X122059877Y-99920000D01*
X128645369Y-99965546D02*
X127381117Y-101229798D01*
X122059877Y-99920000D02*
X108086469Y-99920000D01*
%TO.N,/LED7*%
X128645369Y-105045546D02*
X127381117Y-106309798D01*
X127381117Y-106309798D02*
X123369675Y-106309798D01*
X123369675Y-106309798D02*
X122059877Y-105000000D01*
X122059877Y-105000000D02*
X108086469Y-105000000D01*
%TO.N,+5V*%
X127578927Y-88539798D02*
X127608927Y-88569798D01*
D18*
X124214969Y-88559956D02*
X122875013Y-87220000D01*
D19*
X124224811Y-88569798D02*
X124214969Y-88559956D01*
D16*
X124214969Y-88559956D02*
X124235127Y-88539798D01*
X127579129Y-88540000D02*
X124254609Y-88540000D01*
D19*
X127339085Y-88559956D02*
X127478927Y-88699798D01*
D16*
X127608927Y-88569798D02*
X127579129Y-88540000D01*
X127348927Y-88569798D02*
X127339085Y-88559956D01*
X127608927Y-88569798D02*
X127348927Y-88569798D01*
X124254609Y-88540000D02*
X124224811Y-88569798D01*
D18*
X122875013Y-87220000D02*
X108086469Y-87220000D01*
D16*
%TO.N,/DIG0_EN*%
X127381117Y-103769798D02*
X123369675Y-103769798D01*
X123369675Y-103769798D02*
X122059877Y-102460000D01*
X122059877Y-102460000D02*
X108086469Y-102460000D01*
X128645369Y-102505546D02*
X127381117Y-103769798D01*
%TO.N,/SW1-4{slash}PB2*%
X127381117Y-111409798D02*
X123369675Y-111409798D01*
X108106469Y-110100000D02*
X108086469Y-110080000D01*
X128645369Y-110145546D02*
X127381117Y-111409798D01*
X123369675Y-111409798D02*
X122059877Y-110100000D01*
X122059877Y-110100000D02*
X108106469Y-110100000D01*
%TO.N,/SW1-2{slash}ADC0.7*%
X122059877Y-94840000D02*
X108086469Y-94840000D01*
X127381117Y-96149798D02*
X123369675Y-96149798D01*
X128645369Y-94885546D02*
X127381117Y-96149798D01*
X123369675Y-96149798D02*
X122059877Y-94840000D01*
%TO.N,/SW1-1*%
X123369675Y-93609798D02*
X122059877Y-92300000D01*
X128645369Y-92345546D02*
X127381117Y-93609798D01*
X127381117Y-93609798D02*
X123369675Y-93609798D01*
X122059877Y-92300000D02*
X108086469Y-92300000D01*
%TO.N,/LED6*%
X127381117Y-108859798D02*
X123369675Y-108859798D01*
X128645369Y-107595546D02*
X127381117Y-108859798D01*
X122059877Y-107550000D02*
X108096469Y-107550000D01*
X123369675Y-108859798D02*
X122059877Y-107550000D01*
X108096469Y-107550000D02*
X108086469Y-107540000D01*
%TO.N,/LED5*%
X146700000Y-110100000D02*
X148982256Y-110100000D01*
X164772458Y-108829798D02*
X166092458Y-110149798D01*
X166092458Y-110149798D02*
X168793658Y-110149798D01*
X148982256Y-110100000D02*
X150252458Y-108829798D01*
X150252458Y-108829798D02*
X164772458Y-108829798D01*
%TO.N,/KP_ROW3*%
X164772458Y-88489798D02*
X166092458Y-89809798D01*
X146700000Y-89760000D02*
X148982256Y-89760000D01*
X148982256Y-89760000D02*
X150252458Y-88489798D01*
X166092458Y-89809798D02*
X168793658Y-89809798D01*
X150252458Y-88489798D02*
X164772458Y-88489798D01*
%TO.N,/LED0{slash}PWM*%
X146700000Y-92300000D02*
X148982256Y-92300000D01*
X150252458Y-91029798D02*
X164772458Y-91029798D01*
X148982256Y-92300000D02*
X150252458Y-91029798D01*
X164772458Y-91029798D02*
X166092458Y-92349798D01*
X166092458Y-92349798D02*
X168793658Y-92349798D01*
%TO.N,/KP_ROW2*%
X148982256Y-87220000D02*
X151342256Y-84860000D01*
X166092458Y-87269798D02*
X168793658Y-87269798D01*
X151342256Y-84860000D02*
X163682660Y-84860000D01*
X163682660Y-84860000D02*
X166092458Y-87269798D01*
X146700000Y-87220000D02*
X148982256Y-87220000D01*
%TO.N,/LED2{slash}DIR_B*%
X150252458Y-96109798D02*
X164772458Y-96109798D01*
X166092458Y-97429798D02*
X168793658Y-97429798D01*
X148982256Y-97380000D02*
X150252458Y-96109798D01*
X146700000Y-97380000D02*
X148982256Y-97380000D01*
X164772458Y-96109798D02*
X166092458Y-97429798D01*
%TO.N,/LED4*%
X164772458Y-106279798D02*
X166092458Y-107599798D01*
X166092458Y-107599798D02*
X168793658Y-107599798D01*
X150252458Y-106279798D02*
X164772458Y-106279798D01*
X146700000Y-107550000D02*
X148982256Y-107550000D01*
X148982256Y-107550000D02*
X150252458Y-106279798D01*
%TO.N,/LINTX*%
X148982256Y-102460000D02*
X150252458Y-101189798D01*
X146700000Y-102460000D02*
X148982256Y-102460000D01*
X164772458Y-101189798D02*
X166092458Y-102509798D01*
X150252458Y-101189798D02*
X164772458Y-101189798D01*
X166092458Y-102509798D02*
X168793658Y-102509798D01*
%TO.N,/LED1{slash}DIR_A*%
X166092458Y-94889798D02*
X168793658Y-94889798D01*
X150252458Y-93569798D02*
X164772458Y-93569798D01*
X164772458Y-93569798D02*
X166092458Y-94889798D01*
X146700000Y-94840000D02*
X148982256Y-94840000D01*
X148982256Y-94840000D02*
X150252458Y-93569798D01*
%TO.N,/LED3*%
X150252458Y-98649798D02*
X164772458Y-98649798D01*
X148982256Y-99920000D02*
X150252458Y-98649798D01*
X166092458Y-99969798D02*
X168793658Y-99969798D01*
X146700000Y-99920000D02*
X148982256Y-99920000D01*
X164772458Y-98649798D02*
X166092458Y-99969798D01*
%TO.N,/LINRX*%
X146700000Y-105000000D02*
X148982256Y-105000000D01*
X148982256Y-105000000D02*
X150252458Y-103729798D01*
X164772458Y-103729798D02*
X166092458Y-105049798D01*
X166092458Y-105049798D02*
X168793658Y-105049798D01*
X150252458Y-103729798D02*
X164772458Y-103729798D01*
%TD*%
%TA.AperFunction,Conductor*%
%TO.N,+5V*%
G36*
X127495172Y-87967271D02*
G01*
X127506621Y-87968296D01*
X127521548Y-87981324D01*
X127539032Y-87990639D01*
X127547852Y-88001159D01*
X127651646Y-88144020D01*
X127801904Y-88294278D01*
X127973816Y-88419180D01*
X128127604Y-88497538D01*
X128170869Y-88540803D01*
X128180440Y-88601235D01*
X128164449Y-88641527D01*
X127820145Y-89146389D01*
X127806822Y-89156688D01*
X127797000Y-89170371D01*
X127783222Y-89174934D01*
X127771739Y-89183812D01*
X127738917Y-89189608D01*
X127649803Y-89190114D01*
X127591506Y-89171538D01*
X127575688Y-89157380D01*
X127513899Y-89088793D01*
X127463855Y-89053586D01*
X127463848Y-89053581D01*
X127456470Y-89049962D01*
X127453018Y-89048184D01*
X127339336Y-88986771D01*
X127323250Y-88975920D01*
X127318442Y-88971938D01*
X127315744Y-88970064D01*
X127289930Y-88952134D01*
X127289172Y-88951697D01*
X127261063Y-88935507D01*
X127256799Y-88933148D01*
X127254855Y-88932073D01*
X127254854Y-88932072D01*
X127254853Y-88932072D01*
X127166567Y-88908238D01*
X127166561Y-88908237D01*
X127142103Y-88907276D01*
X127105421Y-88905835D01*
X127105419Y-88905835D01*
X127105418Y-88905835D01*
X127068631Y-88907693D01*
X126983181Y-88940310D01*
X126932322Y-88974293D01*
X126932312Y-88974300D01*
X126924318Y-88980748D01*
X126867153Y-89002560D01*
X126808084Y-88986607D01*
X126807168Y-88986002D01*
X126638966Y-88873614D01*
X126447787Y-88794425D01*
X126244836Y-88754056D01*
X126244834Y-88754056D01*
X126037904Y-88754056D01*
X126037901Y-88754056D01*
X125834950Y-88794425D01*
X125643768Y-88873615D01*
X125602759Y-88901017D01*
X125584451Y-88909758D01*
X125584716Y-88910384D01*
X124903887Y-89198123D01*
X124865910Y-89205931D01*
X124211303Y-89209651D01*
X124153005Y-89191075D01*
X124122368Y-89155278D01*
X123716611Y-88351721D01*
X123707261Y-88291255D01*
X123735237Y-88236840D01*
X123789854Y-88209261D01*
X123809763Y-88208214D01*
X124260000Y-88230000D01*
X124260007Y-88230000D01*
X124747729Y-88230000D01*
X124805919Y-88248906D01*
X124840486Y-88274021D01*
X124872113Y-88292917D01*
X124961276Y-88313268D01*
X124961277Y-88313268D01*
X125022460Y-88313268D01*
X125022462Y-88313268D01*
X125022464Y-88313267D01*
X125022479Y-88313267D01*
X125049858Y-88310801D01*
X125059156Y-88309965D01*
X125109720Y-88288352D01*
X125170659Y-88282868D01*
X125203629Y-88297070D01*
X125213135Y-88303421D01*
X125213138Y-88303423D01*
X125271621Y-88315056D01*
X125271622Y-88315056D01*
X127011116Y-88315056D01*
X127011117Y-88315056D01*
X127069600Y-88303423D01*
X127135921Y-88259108D01*
X127180236Y-88192787D01*
X127191869Y-88134304D01*
X127191869Y-88099821D01*
X127210776Y-88041630D01*
X127260276Y-88005666D01*
X127268789Y-88003315D01*
X127282795Y-88000110D01*
X127302433Y-88001356D01*
X127339264Y-88000382D01*
X127425467Y-87969832D01*
X127431301Y-87966133D01*
X127445679Y-87962844D01*
X127465412Y-87964609D01*
X127485032Y-87961869D01*
X127495172Y-87967271D01*
G37*
%TD.AperFunction*%
%TD*%
%TA.AperFunction,Conductor*%
%TO.N,+3V3*%
G36*
X122464156Y-83985794D02*
G01*
X122760004Y-84108338D01*
X122800231Y-84135218D01*
X124229688Y-85564675D01*
X124263173Y-85625998D01*
X124258189Y-85695690D01*
X124216317Y-85751623D01*
X124150853Y-85776040D01*
X124142007Y-85776356D01*
X123643963Y-85776356D01*
X123576924Y-85756671D01*
X123556282Y-85740037D01*
X122809522Y-84993276D01*
X122791905Y-84976992D01*
X122791900Y-84976987D01*
X122780087Y-84966898D01*
X122780062Y-84966877D01*
X122774672Y-84962380D01*
X122774665Y-84962376D01*
X122676091Y-84908658D01*
X122676081Y-84908654D01*
X122617898Y-84889750D01*
X122617899Y-84889750D01*
X122541140Y-84877593D01*
X122523493Y-84874798D01*
X104261389Y-84874798D01*
X104261378Y-84874798D01*
X104237435Y-84875738D01*
X104221935Y-84876958D01*
X104214909Y-84877592D01*
X104107209Y-84909313D01*
X104052701Y-84937085D01*
X104052691Y-84937092D01*
X103975367Y-84993269D01*
X103228599Y-85740037D01*
X103201671Y-85754740D01*
X103175853Y-85771333D01*
X103169652Y-85772224D01*
X103167276Y-85773522D01*
X103140918Y-85776356D01*
X103040731Y-85776356D01*
X102973692Y-85756671D01*
X102927937Y-85703867D01*
X102917993Y-85634709D01*
X102947018Y-85571153D01*
X102953050Y-85564675D01*
X103642927Y-84874798D01*
X104382509Y-84135215D01*
X104422733Y-84108338D01*
X104570658Y-84047066D01*
X104718582Y-83985795D01*
X104766034Y-83976356D01*
X122416704Y-83976356D01*
X122464156Y-83985794D01*
G37*
%TD.AperFunction*%
%TD*%
%TA.AperFunction,Conductor*%
%TO.N,GND*%
G36*
X121930217Y-88909205D02*
G01*
X121942030Y-88919294D01*
X123153014Y-90130278D01*
X123153016Y-90130279D01*
X123153017Y-90130280D01*
X123153018Y-90130281D01*
X123244335Y-90183003D01*
X123244333Y-90183003D01*
X123244337Y-90183004D01*
X123244339Y-90183005D01*
X123346200Y-90210298D01*
X123451654Y-90210298D01*
X124385084Y-90210298D01*
X124422955Y-90217828D01*
X124519012Y-90257598D01*
X125586676Y-90699639D01*
X125603802Y-90708791D01*
X125643771Y-90735497D01*
X125834949Y-90814686D01*
X125894782Y-90826587D01*
X125902592Y-90829384D01*
X125904772Y-90830047D01*
X125913009Y-90832367D01*
X125925698Y-90832736D01*
X125933827Y-90834354D01*
X125933832Y-90834354D01*
X126037904Y-90855056D01*
X126037905Y-90855056D01*
X126244833Y-90855056D01*
X126244834Y-90855056D01*
X126447789Y-90814686D01*
X126638967Y-90735497D01*
X126811024Y-90620533D01*
X126957346Y-90474211D01*
X127072310Y-90302154D01*
X127151499Y-90110976D01*
X127161131Y-90062552D01*
X127191025Y-90009169D01*
X127246590Y-89983552D01*
X127306600Y-89995488D01*
X127348133Y-90040417D01*
X127356009Y-90066378D01*
X127364610Y-90120678D01*
X127430273Y-90322771D01*
X127526745Y-90512109D01*
X127526749Y-90512115D01*
X127566097Y-90566272D01*
X127566098Y-90566272D01*
X128198406Y-89933964D01*
X128215444Y-89997549D01*
X128281270Y-90111563D01*
X128374362Y-90204655D01*
X128488376Y-90270481D01*
X128551958Y-90287518D01*
X127919651Y-90919825D01*
X127919651Y-90919826D01*
X127973809Y-90959175D01*
X127973815Y-90959179D01*
X128163153Y-91055651D01*
X128365247Y-91121315D01*
X128419545Y-91129915D01*
X128474061Y-91157692D01*
X128501839Y-91212209D01*
X128492268Y-91272641D01*
X128449003Y-91315906D01*
X128423372Y-91324794D01*
X128374950Y-91334425D01*
X128183771Y-91413614D01*
X128011717Y-91528576D01*
X127865389Y-91674904D01*
X127750427Y-91846958D01*
X127671240Y-92038132D01*
X127671237Y-92038143D01*
X127665384Y-92067565D01*
X127659322Y-92087154D01*
X127251971Y-93040294D01*
X127218740Y-93118050D01*
X127205425Y-93149204D01*
X127165170Y-93195283D01*
X127114390Y-93209298D01*
X127001266Y-93209298D01*
X126943075Y-93190391D01*
X126907111Y-93140891D01*
X126907111Y-93079705D01*
X126931260Y-93040296D01*
X126957346Y-93014211D01*
X127072310Y-92842154D01*
X127151499Y-92650976D01*
X127191869Y-92448021D01*
X127191869Y-92241091D01*
X127151499Y-92038136D01*
X127072310Y-91846958D01*
X126957346Y-91674901D01*
X126811024Y-91528579D01*
X126811020Y-91528576D01*
X126638966Y-91413614D01*
X126447787Y-91334425D01*
X126244836Y-91294056D01*
X126244834Y-91294056D01*
X126037904Y-91294056D01*
X126037901Y-91294056D01*
X125834950Y-91334425D01*
X125643768Y-91413615D01*
X125602759Y-91441017D01*
X125584451Y-91449758D01*
X125584716Y-91450384D01*
X124422705Y-91941488D01*
X124384165Y-91949298D01*
X123605828Y-91949298D01*
X123547637Y-91930391D01*
X123535824Y-91920302D01*
X122931428Y-91315906D01*
X122324840Y-90709318D01*
X122324837Y-90709316D01*
X122324836Y-90709315D01*
X122324835Y-90709314D01*
X122233518Y-90656592D01*
X122233520Y-90656592D01*
X122172722Y-90640302D01*
X122131654Y-90629298D01*
X122131652Y-90629298D01*
X109317877Y-90629298D01*
X109259686Y-90610391D01*
X109223722Y-90560891D01*
X109223722Y-90499705D01*
X109237782Y-90472110D01*
X109241092Y-90467553D01*
X109337564Y-90278215D01*
X109403227Y-90076122D01*
X109413700Y-90010000D01*
X108519481Y-90010000D01*
X108552394Y-89952993D01*
X108586469Y-89825826D01*
X108586469Y-89694174D01*
X108552394Y-89567007D01*
X108519481Y-89510000D01*
X109413700Y-89510000D01*
X109413700Y-89509999D01*
X109403227Y-89443877D01*
X109337564Y-89241784D01*
X109241092Y-89052446D01*
X109241088Y-89052441D01*
X109237491Y-89047489D01*
X109218583Y-88989299D01*
X109237490Y-88931108D01*
X109286990Y-88895144D01*
X109317583Y-88890298D01*
X121872026Y-88890298D01*
X121930217Y-88909205D01*
G37*
%TD.AperFunction*%
%TA.AperFunction,Conductor*%
G36*
X178144440Y-80500921D02*
G01*
X178166241Y-80503377D01*
X178238976Y-80511574D01*
X178260585Y-80516506D01*
X178260654Y-80516531D01*
X178345104Y-80546083D01*
X178365076Y-80555701D01*
X178440899Y-80603345D01*
X178458227Y-80617165D01*
X178521546Y-80680485D01*
X178535359Y-80697806D01*
X178583004Y-80773635D01*
X178592620Y-80793604D01*
X178622193Y-80878118D01*
X178627126Y-80899731D01*
X178637804Y-80994493D01*
X178638427Y-81005578D01*
X178638427Y-113994235D01*
X178637804Y-114005320D01*
X178627150Y-114099869D01*
X178622218Y-114121481D01*
X178592642Y-114206007D01*
X178583024Y-114225979D01*
X178535386Y-114301798D01*
X178521563Y-114319132D01*
X178458244Y-114382452D01*
X178440913Y-114396273D01*
X178365089Y-114443919D01*
X178345115Y-114453539D01*
X178260593Y-114483116D01*
X178238981Y-114488049D01*
X178144698Y-114498675D01*
X178133611Y-114499298D01*
X90211717Y-114499298D01*
X90211688Y-114499296D01*
X90204806Y-114499296D01*
X90198189Y-114499296D01*
X90144473Y-114499297D01*
X90133390Y-114498675D01*
X90038845Y-114488025D01*
X90017231Y-114483092D01*
X89932714Y-114453520D01*
X89912740Y-114443902D01*
X89836917Y-114396261D01*
X89819584Y-114382438D01*
X89756267Y-114319122D01*
X89742445Y-114301791D01*
X89694800Y-114225966D01*
X89685186Y-114206003D01*
X89655607Y-114121472D01*
X89650677Y-114099865D01*
X89640050Y-114005549D01*
X89639427Y-113994464D01*
X89639427Y-86350253D01*
X99785969Y-86350253D01*
X99785969Y-88089746D01*
X99785970Y-88089758D01*
X99797601Y-88148227D01*
X99797603Y-88148233D01*
X99841914Y-88214548D01*
X99841917Y-88214552D01*
X99908238Y-88258867D01*
X99952700Y-88267711D01*
X99966710Y-88270498D01*
X99966715Y-88270498D01*
X99966721Y-88270500D01*
X99966722Y-88270500D01*
X101706216Y-88270500D01*
X101706217Y-88270500D01*
X101764700Y-88258867D01*
X101831021Y-88214552D01*
X101875336Y-88148231D01*
X101886969Y-88089748D01*
X101886969Y-87693478D01*
X101905876Y-87635287D01*
X101911975Y-87627706D01*
X101918354Y-87620530D01*
X102964103Y-86444062D01*
X102969427Y-86435278D01*
X102984077Y-86416600D01*
X104191385Y-85209294D01*
X104245902Y-85181517D01*
X104261389Y-85180298D01*
X122523493Y-85180298D01*
X122581684Y-85199205D01*
X122593497Y-85209294D01*
X124000623Y-86616420D01*
X124013415Y-86632149D01*
X124021534Y-86644535D01*
X124021536Y-86644537D01*
X125052082Y-87693478D01*
X125062489Y-87704070D01*
X125089783Y-87758830D01*
X125090869Y-87773452D01*
X125090869Y-88013613D01*
X125071962Y-88071804D01*
X125022462Y-88107768D01*
X124961276Y-88107768D01*
X124911776Y-88071804D01*
X124909554Y-88068615D01*
X124875596Y-88017794D01*
X123417178Y-86559376D01*
X123417175Y-86559373D01*
X123332565Y-86502838D01*
X123277882Y-86466299D01*
X123277871Y-86466293D01*
X123148572Y-86412737D01*
X123148571Y-86412736D01*
X123123095Y-86402184D01*
X122958782Y-86369500D01*
X122958780Y-86369500D01*
X109843060Y-86369500D01*
X109820386Y-86366868D01*
X108989870Y-86171453D01*
X108989854Y-86171449D01*
X108966543Y-86167366D01*
X108966532Y-86167365D01*
X108966533Y-86167365D01*
X108966521Y-86167363D01*
X108963853Y-86167053D01*
X108963844Y-86167052D01*
X108963825Y-86167050D01*
X108951804Y-86166010D01*
X108951801Y-86166011D01*
X108939377Y-86168113D01*
X108922863Y-86169500D01*
X107216721Y-86169500D01*
X107216720Y-86169500D01*
X107216710Y-86169501D01*
X107158241Y-86181132D01*
X107158235Y-86181134D01*
X107091920Y-86225445D01*
X107091914Y-86225451D01*
X107047603Y-86291766D01*
X107047601Y-86291772D01*
X107035970Y-86350241D01*
X107035969Y-86350253D01*
X107035969Y-87990096D01*
X107017062Y-88048287D01*
X106967562Y-88084251D01*
X106936969Y-88089096D01*
X104434112Y-88089096D01*
X104328658Y-88089096D01*
X104266314Y-88105800D01*
X104226792Y-88116390D01*
X104135476Y-88169112D01*
X102974286Y-89330302D01*
X102919769Y-89358079D01*
X102904282Y-89359298D01*
X102593194Y-89359298D01*
X102555003Y-89351635D01*
X101393480Y-88865957D01*
X101393656Y-88865535D01*
X101374905Y-88856346D01*
X101334073Y-88829062D01*
X101334065Y-88829058D01*
X101142887Y-88749869D01*
X100939936Y-88709500D01*
X100939934Y-88709500D01*
X100733004Y-88709500D01*
X100733001Y-88709500D01*
X100530050Y-88749869D01*
X100338871Y-88829058D01*
X100166817Y-88944020D01*
X100020489Y-89090348D01*
X99905527Y-89262402D01*
X99826338Y-89453581D01*
X99785969Y-89656532D01*
X99785969Y-89863467D01*
X99826338Y-90066418D01*
X99905527Y-90257597D01*
X99982545Y-90372863D01*
X100020492Y-90429655D01*
X100166814Y-90575977D01*
X100338871Y-90690941D01*
X100530049Y-90770130D01*
X100733004Y-90810500D01*
X100733005Y-90810500D01*
X100939933Y-90810500D01*
X100939934Y-90810500D01*
X101142889Y-90770130D01*
X101334067Y-90690941D01*
X101374725Y-90663774D01*
X101392737Y-90655218D01*
X101392429Y-90654481D01*
X102083798Y-90365161D01*
X102555009Y-90167971D01*
X102593226Y-90160298D01*
X103163908Y-90160298D01*
X103163910Y-90160298D01*
X103265771Y-90133005D01*
X103265773Y-90133003D01*
X103265775Y-90133003D01*
X103357091Y-90080281D01*
X103357091Y-90080280D01*
X103357096Y-90080278D01*
X104518282Y-88919092D01*
X104572799Y-88891315D01*
X104588286Y-88890096D01*
X106855502Y-88890096D01*
X106913693Y-88909003D01*
X106949657Y-88958503D01*
X106949657Y-89019689D01*
X106935593Y-89047289D01*
X106931846Y-89052445D01*
X106931845Y-89052446D01*
X106835373Y-89241784D01*
X106769710Y-89443877D01*
X106759237Y-89509999D01*
X106759238Y-89510000D01*
X107653457Y-89510000D01*
X107620544Y-89567007D01*
X107586469Y-89694174D01*
X107586469Y-89825826D01*
X107620544Y-89952993D01*
X107653457Y-90010000D01*
X106759238Y-90010000D01*
X106769710Y-90076122D01*
X106835373Y-90278215D01*
X106931845Y-90467553D01*
X106935156Y-90472110D01*
X106954061Y-90530301D01*
X106935152Y-90588491D01*
X106885651Y-90624454D01*
X106855061Y-90629298D01*
X104442135Y-90629298D01*
X104439051Y-90629096D01*
X104434112Y-90629096D01*
X104328658Y-90629096D01*
X104286836Y-90640302D01*
X104226792Y-90656390D01*
X104135476Y-90709112D01*
X102974286Y-91870302D01*
X102919769Y-91898079D01*
X102904282Y-91899298D01*
X102593194Y-91899298D01*
X102555003Y-91891635D01*
X101393480Y-91405957D01*
X101393656Y-91405535D01*
X101374905Y-91396346D01*
X101334073Y-91369062D01*
X101334065Y-91369058D01*
X101142887Y-91289869D01*
X100939936Y-91249500D01*
X100939934Y-91249500D01*
X100733004Y-91249500D01*
X100733001Y-91249500D01*
X100530050Y-91289869D01*
X100338871Y-91369058D01*
X100166817Y-91484020D01*
X100020489Y-91630348D01*
X99905527Y-91802402D01*
X99826338Y-91993581D01*
X99785969Y-92196532D01*
X99785969Y-92403467D01*
X99826338Y-92606418D01*
X99905527Y-92797597D01*
X99982545Y-92912863D01*
X100020492Y-92969655D01*
X100166814Y-93115977D01*
X100338871Y-93230941D01*
X100530049Y-93310130D01*
X100733004Y-93350500D01*
X100733005Y-93350500D01*
X100939933Y-93350500D01*
X100939934Y-93350500D01*
X101142889Y-93310130D01*
X101334067Y-93230941D01*
X101374725Y-93203774D01*
X101392737Y-93195218D01*
X101392429Y-93194481D01*
X102083798Y-92905161D01*
X102555009Y-92707971D01*
X102593226Y-92700298D01*
X103163908Y-92700298D01*
X103163910Y-92700298D01*
X103265771Y-92673005D01*
X103265773Y-92673003D01*
X103265775Y-92673003D01*
X103357091Y-92620281D01*
X103357091Y-92620280D01*
X103357096Y-92620278D01*
X104518080Y-91459294D01*
X104572597Y-91431517D01*
X104588084Y-91430298D01*
X107231532Y-91430298D01*
X107289723Y-91449205D01*
X107325687Y-91498705D01*
X107325687Y-91559891D01*
X107301537Y-91599299D01*
X107280208Y-91620629D01*
X107270489Y-91630348D01*
X107155527Y-91802402D01*
X107076338Y-91993581D01*
X107035969Y-92196532D01*
X107035969Y-92403467D01*
X107076338Y-92606418D01*
X107155527Y-92797597D01*
X107232545Y-92912863D01*
X107270492Y-92969655D01*
X107301133Y-93000296D01*
X107328909Y-93054811D01*
X107319338Y-93115243D01*
X107276073Y-93158508D01*
X107231128Y-93169298D01*
X104442135Y-93169298D01*
X104439051Y-93169096D01*
X104434112Y-93169096D01*
X104328658Y-93169096D01*
X104286836Y-93180302D01*
X104226792Y-93196390D01*
X104135476Y-93249112D01*
X102974286Y-94410302D01*
X102919769Y-94438079D01*
X102904282Y-94439298D01*
X102593194Y-94439298D01*
X102555003Y-94431635D01*
X101393480Y-93945957D01*
X101393656Y-93945535D01*
X101374905Y-93936346D01*
X101334073Y-93909062D01*
X101334065Y-93909058D01*
X101142887Y-93829869D01*
X100939936Y-93789500D01*
X100939934Y-93789500D01*
X100733004Y-93789500D01*
X100733001Y-93789500D01*
X100530050Y-93829869D01*
X100338871Y-93909058D01*
X100166817Y-94024020D01*
X100020489Y-94170348D01*
X99905527Y-94342402D01*
X99826338Y-94533581D01*
X99785969Y-94736532D01*
X99785969Y-94943467D01*
X99826338Y-95146418D01*
X99905527Y-95337597D01*
X99982545Y-95452863D01*
X100020492Y-95509655D01*
X100166814Y-95655977D01*
X100338871Y-95770941D01*
X100530049Y-95850130D01*
X100733004Y-95890500D01*
X100733005Y-95890500D01*
X100939933Y-95890500D01*
X100939934Y-95890500D01*
X101142889Y-95850130D01*
X101334067Y-95770941D01*
X101374725Y-95743774D01*
X101392737Y-95735218D01*
X101392429Y-95734481D01*
X102083798Y-95445161D01*
X102555009Y-95247971D01*
X102593226Y-95240298D01*
X103163908Y-95240298D01*
X103163910Y-95240298D01*
X103265771Y-95213005D01*
X103265773Y-95213003D01*
X103265775Y-95213003D01*
X103357091Y-95160281D01*
X103357091Y-95160280D01*
X103357096Y-95160278D01*
X104518080Y-93999294D01*
X104572597Y-93971517D01*
X104588084Y-93970298D01*
X107231532Y-93970298D01*
X107289723Y-93989205D01*
X107325687Y-94038705D01*
X107325687Y-94099891D01*
X107301537Y-94139299D01*
X107280208Y-94160629D01*
X107270489Y-94170348D01*
X107155527Y-94342402D01*
X107076338Y-94533581D01*
X107035969Y-94736532D01*
X107035969Y-94943467D01*
X107076338Y-95146418D01*
X107155527Y-95337597D01*
X107232545Y-95452863D01*
X107270492Y-95509655D01*
X107301133Y-95540296D01*
X107328909Y-95594811D01*
X107319338Y-95655243D01*
X107276073Y-95698508D01*
X107231128Y-95709298D01*
X104442135Y-95709298D01*
X104439051Y-95709096D01*
X104434112Y-95709096D01*
X104328658Y-95709096D01*
X104286836Y-95720302D01*
X104226792Y-95736390D01*
X104135476Y-95789112D01*
X102974286Y-96950302D01*
X102919769Y-96978079D01*
X102904282Y-96979298D01*
X102593194Y-96979298D01*
X102555003Y-96971635D01*
X101393480Y-96485957D01*
X101393656Y-96485535D01*
X101374905Y-96476346D01*
X101334073Y-96449062D01*
X101334065Y-96449058D01*
X101142887Y-96369869D01*
X100939936Y-96329500D01*
X100939934Y-96329500D01*
X100733004Y-96329500D01*
X100733001Y-96329500D01*
X100530050Y-96369869D01*
X100338871Y-96449058D01*
X100166817Y-96564020D01*
X100020489Y-96710348D01*
X99905527Y-96882402D01*
X99826338Y-97073581D01*
X99785969Y-97276532D01*
X99785969Y-97483467D01*
X99826338Y-97686418D01*
X99905527Y-97877597D01*
X99982545Y-97992863D01*
X100020492Y-98049655D01*
X100166814Y-98195977D01*
X100338871Y-98310941D01*
X100530049Y-98390130D01*
X100733004Y-98430500D01*
X100733005Y-98430500D01*
X100939933Y-98430500D01*
X100939934Y-98430500D01*
X101142889Y-98390130D01*
X101334067Y-98310941D01*
X101374725Y-98283774D01*
X101392737Y-98275218D01*
X101392429Y-98274481D01*
X102083798Y-97985161D01*
X102555009Y-97787971D01*
X102593226Y-97780298D01*
X103163908Y-97780298D01*
X103163910Y-97780298D01*
X103265771Y-97753005D01*
X103265773Y-97753003D01*
X103265775Y-97753003D01*
X103357091Y-97700281D01*
X103357091Y-97700280D01*
X103357096Y-97700278D01*
X104518080Y-96539294D01*
X104572597Y-96511517D01*
X104588084Y-96510298D01*
X107231532Y-96510298D01*
X107289723Y-96529205D01*
X107325687Y-96578705D01*
X107325687Y-96639891D01*
X107301537Y-96679299D01*
X107280208Y-96700629D01*
X107270489Y-96710348D01*
X107155527Y-96882402D01*
X107076338Y-97073581D01*
X107035969Y-97276532D01*
X107035969Y-97483467D01*
X107076338Y-97686418D01*
X107155527Y-97877597D01*
X107232545Y-97992863D01*
X107270492Y-98049655D01*
X107301133Y-98080296D01*
X107328909Y-98134811D01*
X107319338Y-98195243D01*
X107276073Y-98238508D01*
X107231128Y-98249298D01*
X104442135Y-98249298D01*
X104439051Y-98249096D01*
X104434112Y-98249096D01*
X104328658Y-98249096D01*
X104286836Y-98260302D01*
X104226792Y-98276390D01*
X104135476Y-98329112D01*
X102974286Y-99490302D01*
X102919769Y-99518079D01*
X102904282Y-99519298D01*
X102593194Y-99519298D01*
X102555003Y-99511635D01*
X101393480Y-99025957D01*
X101393656Y-99025535D01*
X101374905Y-99016346D01*
X101334073Y-98989062D01*
X101334065Y-98989058D01*
X101142887Y-98909869D01*
X100939936Y-98869500D01*
X100939934Y-98869500D01*
X100733004Y-98869500D01*
X100733001Y-98869500D01*
X100530050Y-98909869D01*
X100338871Y-98989058D01*
X100166817Y-99104020D01*
X100020489Y-99250348D01*
X99905527Y-99422402D01*
X99826338Y-99613581D01*
X99785969Y-99816532D01*
X99785969Y-100023467D01*
X99826338Y-100226418D01*
X99905527Y-100417597D01*
X99982545Y-100532863D01*
X100020492Y-100589655D01*
X100166814Y-100735977D01*
X100338871Y-100850941D01*
X100530049Y-100930130D01*
X100733004Y-100970500D01*
X100733005Y-100970500D01*
X100939933Y-100970500D01*
X100939934Y-100970500D01*
X101142889Y-100930130D01*
X101334067Y-100850941D01*
X101374725Y-100823774D01*
X101392737Y-100815218D01*
X101392429Y-100814481D01*
X102083798Y-100525161D01*
X102555009Y-100327971D01*
X102593226Y-100320298D01*
X103163908Y-100320298D01*
X103163910Y-100320298D01*
X103265771Y-100293005D01*
X103265773Y-100293003D01*
X103265775Y-100293003D01*
X103357091Y-100240281D01*
X103357091Y-100240280D01*
X103357096Y-100240278D01*
X104518080Y-99079294D01*
X104572597Y-99051517D01*
X104588084Y-99050298D01*
X107231532Y-99050298D01*
X107289723Y-99069205D01*
X107325687Y-99118705D01*
X107325687Y-99179891D01*
X107301537Y-99219299D01*
X107280208Y-99240629D01*
X107270489Y-99250348D01*
X107155527Y-99422402D01*
X107076338Y-99613581D01*
X107035969Y-99816532D01*
X107035969Y-100023467D01*
X107076338Y-100226418D01*
X107155527Y-100417597D01*
X107232545Y-100532863D01*
X107270492Y-100589655D01*
X107301133Y-100620296D01*
X107328909Y-100674811D01*
X107319338Y-100735243D01*
X107276073Y-100778508D01*
X107231128Y-100789298D01*
X104442135Y-100789298D01*
X104439051Y-100789096D01*
X104434112Y-100789096D01*
X104328658Y-100789096D01*
X104286836Y-100800302D01*
X104226792Y-100816390D01*
X104135476Y-100869112D01*
X102974286Y-102030302D01*
X102919769Y-102058079D01*
X102904282Y-102059298D01*
X102593194Y-102059298D01*
X102555003Y-102051635D01*
X101393480Y-101565957D01*
X101393656Y-101565535D01*
X101374905Y-101556346D01*
X101334073Y-101529062D01*
X101334065Y-101529058D01*
X101142887Y-101449869D01*
X100939936Y-101409500D01*
X100939934Y-101409500D01*
X100733004Y-101409500D01*
X100733001Y-101409500D01*
X100530050Y-101449869D01*
X100338871Y-101529058D01*
X100166817Y-101644020D01*
X100020489Y-101790348D01*
X99905527Y-101962402D01*
X99826338Y-102153581D01*
X99785969Y-102356532D01*
X99785969Y-102563467D01*
X99826338Y-102766418D01*
X99905527Y-102957597D01*
X99982545Y-103072863D01*
X100020492Y-103129655D01*
X100166814Y-103275977D01*
X100338871Y-103390941D01*
X100530049Y-103470130D01*
X100733004Y-103510500D01*
X100733005Y-103510500D01*
X100939933Y-103510500D01*
X100939934Y-103510500D01*
X101142889Y-103470130D01*
X101334067Y-103390941D01*
X101374725Y-103363774D01*
X101392737Y-103355218D01*
X101392429Y-103354481D01*
X102083798Y-103065161D01*
X102555009Y-102867971D01*
X102593226Y-102860298D01*
X103163908Y-102860298D01*
X103163910Y-102860298D01*
X103265771Y-102833005D01*
X103265773Y-102833003D01*
X103265775Y-102833003D01*
X103357091Y-102780281D01*
X103357091Y-102780280D01*
X103357096Y-102780278D01*
X104518080Y-101619294D01*
X104572597Y-101591517D01*
X104588084Y-101590298D01*
X107231532Y-101590298D01*
X107289723Y-101609205D01*
X107325687Y-101658705D01*
X107325687Y-101719891D01*
X107301537Y-101759299D01*
X107280208Y-101780629D01*
X107270489Y-101790348D01*
X107155527Y-101962402D01*
X107076338Y-102153581D01*
X107035969Y-102356532D01*
X107035969Y-102563467D01*
X107076338Y-102766418D01*
X107155527Y-102957597D01*
X107232545Y-103072863D01*
X107270492Y-103129655D01*
X107301133Y-103160296D01*
X107328909Y-103214811D01*
X107319338Y-103275243D01*
X107276073Y-103318508D01*
X107231128Y-103329298D01*
X104442135Y-103329298D01*
X104439051Y-103329096D01*
X104434112Y-103329096D01*
X104328658Y-103329096D01*
X104286836Y-103340302D01*
X104226792Y-103356390D01*
X104135476Y-103409112D01*
X102974286Y-104570302D01*
X102919769Y-104598079D01*
X102904282Y-104599298D01*
X102593194Y-104599298D01*
X102555003Y-104591635D01*
X101393480Y-104105957D01*
X101393656Y-104105535D01*
X101374905Y-104096346D01*
X101334073Y-104069062D01*
X101334065Y-104069058D01*
X101142887Y-103989869D01*
X100939936Y-103949500D01*
X100939934Y-103949500D01*
X100733004Y-103949500D01*
X100733001Y-103949500D01*
X100530050Y-103989869D01*
X100338871Y-104069058D01*
X100166817Y-104184020D01*
X100020489Y-104330348D01*
X99905527Y-104502402D01*
X99826338Y-104693581D01*
X99785969Y-104896532D01*
X99785969Y-105103467D01*
X99826338Y-105306418D01*
X99905527Y-105497597D01*
X99982545Y-105612863D01*
X100020492Y-105669655D01*
X100166814Y-105815977D01*
X100338871Y-105930941D01*
X100530049Y-106010130D01*
X100733004Y-106050500D01*
X100733005Y-106050500D01*
X100939933Y-106050500D01*
X100939934Y-106050500D01*
X101142889Y-106010130D01*
X101334067Y-105930941D01*
X101374725Y-105903774D01*
X101392737Y-105895218D01*
X101392429Y-105894481D01*
X102083798Y-105605161D01*
X102555009Y-105407971D01*
X102593226Y-105400298D01*
X103163908Y-105400298D01*
X103163910Y-105400298D01*
X103265771Y-105373005D01*
X103265773Y-105373003D01*
X103265775Y-105373003D01*
X103357091Y-105320281D01*
X103357091Y-105320280D01*
X103357096Y-105320278D01*
X104518080Y-104159294D01*
X104572597Y-104131517D01*
X104588084Y-104130298D01*
X107231532Y-104130298D01*
X107289723Y-104149205D01*
X107325687Y-104198705D01*
X107325687Y-104259891D01*
X107301537Y-104299299D01*
X107280208Y-104320629D01*
X107270489Y-104330348D01*
X107155527Y-104502402D01*
X107076338Y-104693581D01*
X107035969Y-104896532D01*
X107035969Y-105103467D01*
X107076338Y-105306418D01*
X107155527Y-105497597D01*
X107232545Y-105612863D01*
X107270492Y-105669655D01*
X107311133Y-105710296D01*
X107338909Y-105764811D01*
X107329338Y-105825243D01*
X107286073Y-105868508D01*
X107241128Y-105879298D01*
X104442135Y-105879298D01*
X104439051Y-105879096D01*
X104434112Y-105879096D01*
X104328658Y-105879096D01*
X104278200Y-105892616D01*
X104226792Y-105906390D01*
X104135476Y-105959112D01*
X102974286Y-107120302D01*
X102919769Y-107148079D01*
X102904282Y-107149298D01*
X102594072Y-107149298D01*
X102555242Y-107141365D01*
X102024135Y-106914904D01*
X101398223Y-106648019D01*
X101398222Y-106648018D01*
X101394815Y-106646566D01*
X101394915Y-106646330D01*
X101375502Y-106636745D01*
X101334066Y-106609058D01*
X101142887Y-106529869D01*
X100939936Y-106489500D01*
X100939934Y-106489500D01*
X100733004Y-106489500D01*
X100733001Y-106489500D01*
X100530050Y-106529869D01*
X100338871Y-106609058D01*
X100166817Y-106724020D01*
X100020489Y-106870348D01*
X99905527Y-107042402D01*
X99826338Y-107233581D01*
X99785969Y-107436532D01*
X99785969Y-107643467D01*
X99826338Y-107846418D01*
X99905527Y-108037597D01*
X100020489Y-108209651D01*
X100020492Y-108209655D01*
X100166814Y-108355977D01*
X100338871Y-108470941D01*
X100530049Y-108550130D01*
X100733004Y-108590500D01*
X100733005Y-108590500D01*
X100939933Y-108590500D01*
X100939934Y-108590500D01*
X101142889Y-108550130D01*
X101334067Y-108470941D01*
X101334072Y-108470938D01*
X101370407Y-108446659D01*
X101387770Y-108437407D01*
X102554801Y-107957731D01*
X102592437Y-107950298D01*
X103163908Y-107950298D01*
X103163910Y-107950298D01*
X103265771Y-107923005D01*
X103265773Y-107923003D01*
X103265775Y-107923003D01*
X103357091Y-107870281D01*
X103357091Y-107870280D01*
X103357096Y-107870278D01*
X104518080Y-106709294D01*
X104572597Y-106681517D01*
X104588084Y-106680298D01*
X107221532Y-106680298D01*
X107279723Y-106699205D01*
X107315687Y-106748705D01*
X107315687Y-106809891D01*
X107291537Y-106849299D01*
X107270492Y-106870345D01*
X107270489Y-106870348D01*
X107155527Y-107042402D01*
X107076338Y-107233581D01*
X107035969Y-107436532D01*
X107035969Y-107643467D01*
X107076338Y-107846418D01*
X107155527Y-108037597D01*
X107270489Y-108209651D01*
X107270492Y-108209655D01*
X107321133Y-108260296D01*
X107348909Y-108314811D01*
X107339338Y-108375243D01*
X107296073Y-108418508D01*
X107251128Y-108429298D01*
X104442135Y-108429298D01*
X104439051Y-108429096D01*
X104434112Y-108429096D01*
X104328658Y-108429096D01*
X104283227Y-108441269D01*
X104226792Y-108456390D01*
X104135476Y-108509112D01*
X102974286Y-109670302D01*
X102919769Y-109698079D01*
X102904282Y-109699298D01*
X102594953Y-109699298D01*
X102555489Y-109691092D01*
X102507657Y-109670302D01*
X101931986Y-109420087D01*
X101399564Y-109188670D01*
X101398576Y-109188327D01*
X101397211Y-109187648D01*
X101396135Y-109187180D01*
X101396159Y-109187124D01*
X101376087Y-109177134D01*
X101334068Y-109149059D01*
X101142887Y-109069869D01*
X100939936Y-109029500D01*
X100939934Y-109029500D01*
X100733004Y-109029500D01*
X100733001Y-109029500D01*
X100530050Y-109069869D01*
X100338871Y-109149058D01*
X100166817Y-109264020D01*
X100020489Y-109410348D01*
X99905527Y-109582402D01*
X99826338Y-109773581D01*
X99785969Y-109976532D01*
X99785969Y-110183467D01*
X99826338Y-110386418D01*
X99905527Y-110577597D01*
X100020489Y-110749651D01*
X100020492Y-110749655D01*
X100166814Y-110895977D01*
X100338871Y-111010941D01*
X100530049Y-111090130D01*
X100733004Y-111130500D01*
X100733005Y-111130500D01*
X100939933Y-111130500D01*
X100939934Y-111130500D01*
X101142889Y-111090130D01*
X101334067Y-111010941D01*
X101362717Y-110991796D01*
X101380584Y-110982343D01*
X102554623Y-110507519D01*
X102591741Y-110500298D01*
X103163908Y-110500298D01*
X103163910Y-110500298D01*
X103265771Y-110473005D01*
X103265773Y-110473003D01*
X103265775Y-110473003D01*
X103357091Y-110420281D01*
X103357091Y-110420280D01*
X103357096Y-110420278D01*
X104518080Y-109259294D01*
X104572597Y-109231517D01*
X104588084Y-109230298D01*
X107211532Y-109230298D01*
X107269723Y-109249205D01*
X107305687Y-109298705D01*
X107305687Y-109359891D01*
X107281537Y-109399299D01*
X107270492Y-109410345D01*
X107270489Y-109410348D01*
X107155527Y-109582402D01*
X107076338Y-109773581D01*
X107035969Y-109976532D01*
X107035969Y-110183467D01*
X107076338Y-110386418D01*
X107155527Y-110577597D01*
X107270489Y-110749651D01*
X107270492Y-110749655D01*
X107416814Y-110895977D01*
X107588871Y-111010941D01*
X107780049Y-111090130D01*
X107983004Y-111130500D01*
X107983005Y-111130500D01*
X108189933Y-111130500D01*
X108189934Y-111130500D01*
X108392889Y-111090130D01*
X108494649Y-111047979D01*
X108584061Y-111010944D01*
X108584063Y-111010942D01*
X108584067Y-111010941D01*
X108612566Y-110991897D01*
X108630445Y-110982438D01*
X109804619Y-110507718D01*
X109841727Y-110500500D01*
X121852976Y-110500500D01*
X121911167Y-110519407D01*
X121922980Y-110529496D01*
X123123762Y-111730278D01*
X123123764Y-111730279D01*
X123123765Y-111730280D01*
X123123766Y-111730281D01*
X123215083Y-111783003D01*
X123215081Y-111783003D01*
X123215085Y-111783004D01*
X123215087Y-111783005D01*
X123316948Y-111810298D01*
X123316950Y-111810298D01*
X127433842Y-111810298D01*
X127433844Y-111810298D01*
X127535705Y-111783005D01*
X127535707Y-111783003D01*
X127535709Y-111783003D01*
X127627030Y-111730278D01*
X127644729Y-111712579D01*
X127714200Y-111643106D01*
X127747316Y-111621240D01*
X128474219Y-111329406D01*
X128918200Y-111151159D01*
X128918289Y-111151383D01*
X128938848Y-111144420D01*
X128987789Y-111134686D01*
X129178967Y-111055497D01*
X129351024Y-110940533D01*
X129497346Y-110794211D01*
X129612310Y-110622154D01*
X129691499Y-110430976D01*
X129731869Y-110228021D01*
X129731869Y-110021091D01*
X129691499Y-109818136D01*
X129612310Y-109626958D01*
X129497346Y-109454901D01*
X129351024Y-109308579D01*
X129351020Y-109308576D01*
X129178966Y-109193614D01*
X128987787Y-109114425D01*
X128784836Y-109074056D01*
X128784834Y-109074056D01*
X128577904Y-109074056D01*
X128577901Y-109074056D01*
X128374950Y-109114425D01*
X128183771Y-109193614D01*
X128011717Y-109308576D01*
X127865389Y-109454904D01*
X127750427Y-109626958D01*
X127671238Y-109818137D01*
X127671236Y-109818143D01*
X127662863Y-109860237D01*
X127657109Y-109879099D01*
X127346551Y-110622153D01*
X127213484Y-110940535D01*
X127210165Y-110948475D01*
X127170280Y-110994874D01*
X127118822Y-111009298D01*
X126981266Y-111009298D01*
X126923075Y-110990391D01*
X126887111Y-110940891D01*
X126887111Y-110879705D01*
X126911260Y-110840296D01*
X126957346Y-110794211D01*
X127072310Y-110622154D01*
X127151499Y-110430976D01*
X127191869Y-110228021D01*
X127191869Y-110021091D01*
X127151499Y-109818136D01*
X127072310Y-109626958D01*
X126957346Y-109454901D01*
X126931744Y-109429299D01*
X126903969Y-109374785D01*
X126913540Y-109314353D01*
X126956805Y-109271088D01*
X127001750Y-109260298D01*
X127433842Y-109260298D01*
X127433844Y-109260298D01*
X127535705Y-109233005D01*
X127535707Y-109233003D01*
X127535709Y-109233003D01*
X127627030Y-109180278D01*
X127645312Y-109161996D01*
X127708757Y-109098549D01*
X127742325Y-109076502D01*
X128913755Y-108612890D01*
X128913768Y-108612882D01*
X128914385Y-108612583D01*
X128915363Y-108612253D01*
X128917233Y-108611514D01*
X128917271Y-108611611D01*
X128938364Y-108604516D01*
X128987789Y-108594686D01*
X129178967Y-108515497D01*
X129351024Y-108400533D01*
X129497346Y-108254211D01*
X129612310Y-108082154D01*
X129691499Y-107890976D01*
X129731869Y-107688021D01*
X129731869Y-107481091D01*
X129691499Y-107278136D01*
X129612310Y-107086958D01*
X129497346Y-106914901D01*
X129351024Y-106768579D01*
X129351020Y-106768576D01*
X129178966Y-106653614D01*
X128987787Y-106574425D01*
X128784836Y-106534056D01*
X128784834Y-106534056D01*
X128577904Y-106534056D01*
X128577901Y-106534056D01*
X128374950Y-106574425D01*
X128183771Y-106653614D01*
X128011717Y-106768576D01*
X127865389Y-106914904D01*
X127750427Y-107086958D01*
X127671238Y-107278137D01*
X127671236Y-107278143D01*
X127664144Y-107313798D01*
X127658237Y-107333024D01*
X127357695Y-108044120D01*
X127223813Y-108360891D01*
X127207774Y-108398839D01*
X127167704Y-108445078D01*
X127116584Y-108459298D01*
X126991266Y-108459298D01*
X126933075Y-108440391D01*
X126897111Y-108390891D01*
X126897111Y-108329705D01*
X126921260Y-108290296D01*
X126957346Y-108254211D01*
X127072310Y-108082154D01*
X127151499Y-107890976D01*
X127191869Y-107688021D01*
X127191869Y-107481091D01*
X127151499Y-107278136D01*
X127072310Y-107086958D01*
X126957346Y-106914901D01*
X126921744Y-106879299D01*
X126893969Y-106824785D01*
X126903540Y-106764353D01*
X126946805Y-106721088D01*
X126991750Y-106710298D01*
X127433842Y-106710298D01*
X127433844Y-106710298D01*
X127535705Y-106683005D01*
X127535707Y-106683003D01*
X127535709Y-106683003D01*
X127627030Y-106630278D01*
X127634069Y-106623239D01*
X127703315Y-106553991D01*
X127737335Y-106531766D01*
X128912754Y-106073231D01*
X128912772Y-106073220D01*
X128914284Y-106072494D01*
X128937880Y-106064613D01*
X128987789Y-106054686D01*
X129178967Y-105975497D01*
X129351024Y-105860533D01*
X129497346Y-105714211D01*
X129612310Y-105542154D01*
X129691499Y-105350976D01*
X129731869Y-105148021D01*
X129731869Y-104941091D01*
X129691499Y-104738136D01*
X129612310Y-104546958D01*
X129497346Y-104374901D01*
X129351024Y-104228579D01*
X129351020Y-104228576D01*
X129178966Y-104113614D01*
X128987787Y-104034425D01*
X128784836Y-103994056D01*
X128784834Y-103994056D01*
X128577904Y-103994056D01*
X128577901Y-103994056D01*
X128374950Y-104034425D01*
X128183771Y-104113614D01*
X128011717Y-104228576D01*
X127865389Y-104374904D01*
X127750427Y-104546958D01*
X127671240Y-104738132D01*
X127671237Y-104738143D01*
X127665384Y-104767565D01*
X127659322Y-104787154D01*
X127319960Y-105581210D01*
X127218740Y-105818050D01*
X127205425Y-105849204D01*
X127165170Y-105895283D01*
X127114390Y-105909298D01*
X127001266Y-105909298D01*
X126943075Y-105890391D01*
X126907111Y-105840891D01*
X126907111Y-105779705D01*
X126931260Y-105740296D01*
X126957346Y-105714211D01*
X127072310Y-105542154D01*
X127151499Y-105350976D01*
X127191869Y-105148021D01*
X127191869Y-104941091D01*
X127151499Y-104738136D01*
X127072310Y-104546958D01*
X126957346Y-104374901D01*
X126921744Y-104339299D01*
X126893969Y-104284785D01*
X126903540Y-104224353D01*
X126946805Y-104181088D01*
X126991750Y-104170298D01*
X127433842Y-104170298D01*
X127433844Y-104170298D01*
X127535705Y-104143005D01*
X127535707Y-104143003D01*
X127535709Y-104143003D01*
X127627030Y-104090278D01*
X127634069Y-104083239D01*
X127703315Y-104013991D01*
X127737335Y-103991766D01*
X128912754Y-103533231D01*
X128912772Y-103533220D01*
X128914284Y-103532494D01*
X128937880Y-103524613D01*
X128987789Y-103514686D01*
X129178967Y-103435497D01*
X129351024Y-103320533D01*
X129497346Y-103174211D01*
X129612310Y-103002154D01*
X129691499Y-102810976D01*
X129731869Y-102608021D01*
X129731869Y-102401091D01*
X129691499Y-102198136D01*
X129612310Y-102006958D01*
X129497346Y-101834901D01*
X129351024Y-101688579D01*
X129351020Y-101688576D01*
X129178966Y-101573614D01*
X128987787Y-101494425D01*
X128784836Y-101454056D01*
X128784834Y-101454056D01*
X128577904Y-101454056D01*
X128577901Y-101454056D01*
X128374950Y-101494425D01*
X128183771Y-101573614D01*
X128011717Y-101688576D01*
X127865389Y-101834904D01*
X127750427Y-102006958D01*
X127671240Y-102198132D01*
X127671237Y-102198143D01*
X127665384Y-102227565D01*
X127659322Y-102247154D01*
X127251971Y-103200294D01*
X127218740Y-103278050D01*
X127205425Y-103309204D01*
X127165170Y-103355283D01*
X127114390Y-103369298D01*
X127001266Y-103369298D01*
X126943075Y-103350391D01*
X126907111Y-103300891D01*
X126907111Y-103239705D01*
X126931260Y-103200296D01*
X126957346Y-103174211D01*
X127072310Y-103002154D01*
X127151499Y-102810976D01*
X127191869Y-102608021D01*
X127191869Y-102401091D01*
X127151499Y-102198136D01*
X127072310Y-102006958D01*
X126957346Y-101834901D01*
X126921744Y-101799299D01*
X126893969Y-101744785D01*
X126903540Y-101684353D01*
X126946805Y-101641088D01*
X126991750Y-101630298D01*
X127433842Y-101630298D01*
X127433844Y-101630298D01*
X127535705Y-101603005D01*
X127535707Y-101603003D01*
X127535709Y-101603003D01*
X127627030Y-101550278D01*
X127634069Y-101543239D01*
X127703315Y-101473991D01*
X127737335Y-101451766D01*
X128912754Y-100993231D01*
X128912772Y-100993220D01*
X128914284Y-100992494D01*
X128937880Y-100984613D01*
X128987789Y-100974686D01*
X129178967Y-100895497D01*
X129351024Y-100780533D01*
X129497346Y-100634211D01*
X129612310Y-100462154D01*
X129691499Y-100270976D01*
X129731869Y-100068021D01*
X129731869Y-99861091D01*
X129691499Y-99658136D01*
X129612310Y-99466958D01*
X129497346Y-99294901D01*
X129351024Y-99148579D01*
X129351020Y-99148576D01*
X129178966Y-99033614D01*
X128987787Y-98954425D01*
X128784836Y-98914056D01*
X128784834Y-98914056D01*
X128577904Y-98914056D01*
X128577901Y-98914056D01*
X128374950Y-98954425D01*
X128183771Y-99033614D01*
X128011717Y-99148576D01*
X127865389Y-99294904D01*
X127750427Y-99466958D01*
X127671240Y-99658132D01*
X127671237Y-99658143D01*
X127665384Y-99687565D01*
X127659322Y-99707154D01*
X127251971Y-100660294D01*
X127218740Y-100738050D01*
X127205425Y-100769204D01*
X127165170Y-100815283D01*
X127114390Y-100829298D01*
X127001266Y-100829298D01*
X126943075Y-100810391D01*
X126907111Y-100760891D01*
X126907111Y-100699705D01*
X126931260Y-100660296D01*
X126957346Y-100634211D01*
X127072310Y-100462154D01*
X127151499Y-100270976D01*
X127191869Y-100068021D01*
X127191869Y-99861091D01*
X127151499Y-99658136D01*
X127072310Y-99466958D01*
X126957346Y-99294901D01*
X126921744Y-99259299D01*
X126893969Y-99204785D01*
X126903540Y-99144353D01*
X126946805Y-99101088D01*
X126991750Y-99090298D01*
X127433842Y-99090298D01*
X127433844Y-99090298D01*
X127535705Y-99063005D01*
X127535707Y-99063003D01*
X127535709Y-99063003D01*
X127627030Y-99010278D01*
X127634069Y-99003239D01*
X127703315Y-98933991D01*
X127737335Y-98911766D01*
X128912754Y-98453231D01*
X128912772Y-98453220D01*
X128914284Y-98452494D01*
X128937880Y-98444613D01*
X128987789Y-98434686D01*
X129178967Y-98355497D01*
X129351024Y-98240533D01*
X129497346Y-98094211D01*
X129612310Y-97922154D01*
X129691499Y-97730976D01*
X129731869Y-97528021D01*
X129731869Y-97321091D01*
X129691499Y-97118136D01*
X129612310Y-96926958D01*
X129497346Y-96754901D01*
X129351024Y-96608579D01*
X129351020Y-96608576D01*
X129178966Y-96493614D01*
X128987787Y-96414425D01*
X128784836Y-96374056D01*
X128784834Y-96374056D01*
X128577904Y-96374056D01*
X128577901Y-96374056D01*
X128374950Y-96414425D01*
X128183771Y-96493614D01*
X128011717Y-96608576D01*
X127865389Y-96754904D01*
X127750427Y-96926958D01*
X127671240Y-97118132D01*
X127671237Y-97118143D01*
X127665384Y-97147565D01*
X127659322Y-97167154D01*
X127251971Y-98120294D01*
X127218740Y-98198050D01*
X127205425Y-98229204D01*
X127165170Y-98275283D01*
X127114390Y-98289298D01*
X127001266Y-98289298D01*
X126943075Y-98270391D01*
X126907111Y-98220891D01*
X126907111Y-98159705D01*
X126931260Y-98120296D01*
X126957346Y-98094211D01*
X127072310Y-97922154D01*
X127151499Y-97730976D01*
X127191869Y-97528021D01*
X127191869Y-97321091D01*
X127151499Y-97118136D01*
X127072310Y-96926958D01*
X126957346Y-96754901D01*
X126921744Y-96719299D01*
X126893969Y-96664785D01*
X126903540Y-96604353D01*
X126946805Y-96561088D01*
X126991750Y-96550298D01*
X127433842Y-96550298D01*
X127433844Y-96550298D01*
X127535705Y-96523005D01*
X127535707Y-96523003D01*
X127535709Y-96523003D01*
X127627030Y-96470278D01*
X127634069Y-96463239D01*
X127703315Y-96393991D01*
X127737335Y-96371766D01*
X128912754Y-95913231D01*
X128912772Y-95913220D01*
X128914284Y-95912494D01*
X128937880Y-95904613D01*
X128987789Y-95894686D01*
X129178967Y-95815497D01*
X129351024Y-95700533D01*
X129497346Y-95554211D01*
X129612310Y-95382154D01*
X129691499Y-95190976D01*
X129731869Y-94988021D01*
X129731869Y-94781091D01*
X129691499Y-94578136D01*
X129612310Y-94386958D01*
X129497346Y-94214901D01*
X129351024Y-94068579D01*
X129351020Y-94068576D01*
X129178966Y-93953614D01*
X128987787Y-93874425D01*
X128784836Y-93834056D01*
X128784834Y-93834056D01*
X128577904Y-93834056D01*
X128577901Y-93834056D01*
X128374950Y-93874425D01*
X128183771Y-93953614D01*
X128011717Y-94068576D01*
X127865389Y-94214904D01*
X127750427Y-94386958D01*
X127671240Y-94578132D01*
X127671237Y-94578143D01*
X127665384Y-94607565D01*
X127659322Y-94627154D01*
X127251971Y-95580294D01*
X127218740Y-95658050D01*
X127205425Y-95689204D01*
X127165170Y-95735283D01*
X127114390Y-95749298D01*
X127001266Y-95749298D01*
X126943075Y-95730391D01*
X126907111Y-95680891D01*
X126907111Y-95619705D01*
X126931260Y-95580296D01*
X126957346Y-95554211D01*
X127072310Y-95382154D01*
X127151499Y-95190976D01*
X127191869Y-94988021D01*
X127191869Y-94781091D01*
X127151499Y-94578136D01*
X127072310Y-94386958D01*
X126957346Y-94214901D01*
X126921744Y-94179299D01*
X126893969Y-94124785D01*
X126903540Y-94064353D01*
X126946805Y-94021088D01*
X126991750Y-94010298D01*
X127433842Y-94010298D01*
X127433844Y-94010298D01*
X127535705Y-93983005D01*
X127535707Y-93983003D01*
X127535709Y-93983003D01*
X127627030Y-93930278D01*
X127634069Y-93923239D01*
X127703315Y-93853991D01*
X127737335Y-93831766D01*
X128912754Y-93373231D01*
X128912772Y-93373220D01*
X128914284Y-93372494D01*
X128937880Y-93364613D01*
X128987789Y-93354686D01*
X129178967Y-93275497D01*
X129351024Y-93160533D01*
X129497346Y-93014211D01*
X129612310Y-92842154D01*
X129691499Y-92650976D01*
X129731869Y-92448021D01*
X129731869Y-92241091D01*
X129691499Y-92038136D01*
X129612310Y-91846958D01*
X129497346Y-91674901D01*
X129351024Y-91528579D01*
X129351020Y-91528576D01*
X129178966Y-91413614D01*
X128987787Y-91334425D01*
X128939365Y-91324794D01*
X128885981Y-91294897D01*
X128860365Y-91239332D01*
X128872302Y-91179322D01*
X128917232Y-91137790D01*
X128943192Y-91129915D01*
X128997490Y-91121315D01*
X129199584Y-91055651D01*
X129388925Y-90959176D01*
X129443085Y-90919826D01*
X128810777Y-90287518D01*
X128874362Y-90270481D01*
X128988376Y-90204655D01*
X129081468Y-90111563D01*
X129147294Y-89997549D01*
X129164331Y-89933964D01*
X129796639Y-90566272D01*
X129835989Y-90512112D01*
X129932464Y-90322771D01*
X129998128Y-90120677D01*
X130031369Y-89910806D01*
X130031369Y-89698304D01*
X130026436Y-89667157D01*
X129998128Y-89488434D01*
X129932464Y-89286340D01*
X129835992Y-89097002D01*
X129835988Y-89096996D01*
X129796639Y-89042838D01*
X129796638Y-89042838D01*
X129164331Y-89675145D01*
X129147294Y-89611563D01*
X129081468Y-89497549D01*
X128988376Y-89404457D01*
X128874362Y-89338631D01*
X128810777Y-89321593D01*
X129443085Y-88689285D01*
X129443085Y-88689284D01*
X129388928Y-88649936D01*
X129388922Y-88649932D01*
X129199584Y-88553460D01*
X128997491Y-88487797D01*
X128943191Y-88479196D01*
X128888675Y-88451418D01*
X128860898Y-88396901D01*
X128870470Y-88336469D01*
X128913735Y-88293205D01*
X128939362Y-88284318D01*
X128987789Y-88274686D01*
X129178967Y-88195497D01*
X129351024Y-88080533D01*
X129497346Y-87934211D01*
X129612310Y-87762154D01*
X129691499Y-87570976D01*
X129731869Y-87368021D01*
X129731869Y-87161091D01*
X129691499Y-86958136D01*
X129612310Y-86766958D01*
X129497346Y-86594901D01*
X129351024Y-86448579D01*
X129289847Y-86407702D01*
X129203868Y-86350253D01*
X145535969Y-86350253D01*
X145535969Y-88089746D01*
X145535970Y-88089758D01*
X145547601Y-88148227D01*
X145547603Y-88148233D01*
X145591914Y-88214548D01*
X145591917Y-88214552D01*
X145658238Y-88258867D01*
X145702700Y-88267711D01*
X145716710Y-88270498D01*
X145716715Y-88270498D01*
X145716721Y-88270500D01*
X145716722Y-88270500D01*
X147456214Y-88270500D01*
X147456217Y-88270500D01*
X147484803Y-88264813D01*
X147488801Y-88264671D01*
X147497454Y-88262368D01*
X147497695Y-88262249D01*
X147514700Y-88258867D01*
X147537286Y-88243773D01*
X147548651Y-88237225D01*
X147569431Y-88227022D01*
X147952343Y-87934207D01*
X148335954Y-87640859D01*
X148393663Y-87620530D01*
X148396091Y-87620500D01*
X149034981Y-87620500D01*
X149034983Y-87620500D01*
X149136844Y-87593207D01*
X149136846Y-87593205D01*
X149136848Y-87593205D01*
X149228164Y-87540483D01*
X149228164Y-87540482D01*
X149228169Y-87540480D01*
X151479153Y-85289496D01*
X151533670Y-85261719D01*
X151549157Y-85260500D01*
X163475759Y-85260500D01*
X163533950Y-85279407D01*
X163545763Y-85289496D01*
X165846545Y-87590278D01*
X165846547Y-87590279D01*
X165846548Y-87590280D01*
X165846549Y-87590281D01*
X165937866Y-87643003D01*
X165937864Y-87643003D01*
X165937868Y-87643004D01*
X165937870Y-87643005D01*
X166039731Y-87670298D01*
X166145185Y-87670298D01*
X166876356Y-87670298D01*
X166934547Y-87689205D01*
X166936183Y-87690420D01*
X167703051Y-88272119D01*
X167737884Y-88290557D01*
X167757138Y-88303423D01*
X167815621Y-88315056D01*
X167818082Y-88315056D01*
X167822667Y-88315941D01*
X167824769Y-88315585D01*
X167825844Y-88315927D01*
X167836218Y-88315056D01*
X169555116Y-88315056D01*
X169555117Y-88315056D01*
X169613600Y-88303423D01*
X169679921Y-88259108D01*
X169724236Y-88192787D01*
X169735869Y-88134304D01*
X169735869Y-87674099D01*
X169754776Y-87615908D01*
X169804276Y-87579944D01*
X169865462Y-87579944D01*
X169914962Y-87615908D01*
X169929024Y-87643507D01*
X169974272Y-87782769D01*
X170070745Y-87972109D01*
X170070749Y-87972115D01*
X170110097Y-88026272D01*
X170110098Y-88026272D01*
X170742406Y-87393963D01*
X170759444Y-87457549D01*
X170825270Y-87571563D01*
X170918362Y-87664655D01*
X171032376Y-87730481D01*
X171095958Y-87747518D01*
X170463651Y-88379825D01*
X170463651Y-88379826D01*
X170517809Y-88419175D01*
X170517815Y-88419179D01*
X170707153Y-88515651D01*
X170909247Y-88581315D01*
X170963545Y-88589915D01*
X171018061Y-88617692D01*
X171045839Y-88672209D01*
X171036268Y-88732641D01*
X170993003Y-88775906D01*
X170967372Y-88784794D01*
X170918950Y-88794425D01*
X170727771Y-88873614D01*
X170555717Y-88988576D01*
X170409389Y-89134904D01*
X170294427Y-89306958D01*
X170215238Y-89498137D01*
X170215237Y-89498141D01*
X170204335Y-89552946D01*
X170195474Y-89576272D01*
X170196237Y-89576624D01*
X170194204Y-89581033D01*
X170152584Y-89701092D01*
X169840656Y-90600891D01*
X169840020Y-90602725D01*
X169803096Y-90651512D01*
X169746481Y-90669298D01*
X169545266Y-90669298D01*
X169487075Y-90650391D01*
X169451111Y-90600891D01*
X169451111Y-90539705D01*
X169475260Y-90500296D01*
X169501346Y-90474211D01*
X169616310Y-90302154D01*
X169695499Y-90110976D01*
X169735869Y-89908021D01*
X169735869Y-89701091D01*
X169695499Y-89498136D01*
X169616310Y-89306958D01*
X169501346Y-89134901D01*
X169355024Y-88988579D01*
X169343960Y-88981186D01*
X169182966Y-88873614D01*
X168991787Y-88794425D01*
X168788836Y-88754056D01*
X168788834Y-88754056D01*
X168581904Y-88754056D01*
X168581901Y-88754056D01*
X168378950Y-88794425D01*
X168187768Y-88873615D01*
X168146759Y-88901017D01*
X168128451Y-88909758D01*
X168128716Y-88910384D01*
X166966705Y-89401488D01*
X166928165Y-89409298D01*
X166299359Y-89409298D01*
X166241168Y-89390391D01*
X166229355Y-89380302D01*
X165624959Y-88775906D01*
X165018371Y-88169318D01*
X165018368Y-88169316D01*
X165018367Y-88169315D01*
X165018366Y-88169314D01*
X164927049Y-88116592D01*
X164927051Y-88116592D01*
X164887528Y-88106002D01*
X164825185Y-88089298D01*
X155285469Y-88089298D01*
X155227278Y-88070391D01*
X155191314Y-88020891D01*
X155186469Y-87990298D01*
X155186469Y-87470001D01*
X155186468Y-87470000D01*
X154269481Y-87470000D01*
X154302394Y-87412993D01*
X154336469Y-87285826D01*
X154336469Y-87154174D01*
X154302394Y-87027007D01*
X154269481Y-86970000D01*
X155186468Y-86970000D01*
X155186469Y-86969999D01*
X155186469Y-86322175D01*
X155180067Y-86262629D01*
X155180065Y-86262618D01*
X155129822Y-86127911D01*
X155129821Y-86127909D01*
X155043661Y-86012815D01*
X155043653Y-86012807D01*
X154928559Y-85926647D01*
X154928557Y-85926646D01*
X154793850Y-85876403D01*
X154793839Y-85876401D01*
X154734293Y-85870000D01*
X154086470Y-85870000D01*
X154086469Y-85870001D01*
X154086469Y-86786988D01*
X154029462Y-86754075D01*
X153902295Y-86720000D01*
X153770643Y-86720000D01*
X153643476Y-86754075D01*
X153586469Y-86786988D01*
X153586469Y-85870001D01*
X153586468Y-85870000D01*
X152938645Y-85870000D01*
X152879098Y-85876401D01*
X152879087Y-85876403D01*
X152744380Y-85926646D01*
X152744378Y-85926647D01*
X152629284Y-86012807D01*
X152629276Y-86012815D01*
X152543116Y-86127909D01*
X152543115Y-86127911D01*
X152492872Y-86262618D01*
X152492870Y-86262629D01*
X152486469Y-86322175D01*
X152486469Y-86969999D01*
X152486470Y-86970000D01*
X153403457Y-86970000D01*
X153370544Y-87027007D01*
X153336469Y-87154174D01*
X153336469Y-87285826D01*
X153370544Y-87412993D01*
X153403457Y-87470000D01*
X152486470Y-87470000D01*
X152486469Y-87470001D01*
X152486469Y-87990298D01*
X152467562Y-88048489D01*
X152418062Y-88084453D01*
X152387469Y-88089298D01*
X150305185Y-88089298D01*
X150199731Y-88089298D01*
X150137387Y-88106002D01*
X150097865Y-88116592D01*
X150006549Y-88169314D01*
X148845359Y-89330504D01*
X148790842Y-89358281D01*
X148775355Y-89359500D01*
X148343211Y-89359500D01*
X148305007Y-89351831D01*
X147143506Y-88865968D01*
X147143680Y-88865550D01*
X147124919Y-88856355D01*
X147084066Y-88829058D01*
X146892887Y-88749869D01*
X146689936Y-88709500D01*
X146689934Y-88709500D01*
X146483004Y-88709500D01*
X146483001Y-88709500D01*
X146280050Y-88749869D01*
X146088871Y-88829058D01*
X145916817Y-88944020D01*
X145770489Y-89090348D01*
X145655527Y-89262402D01*
X145576338Y-89453581D01*
X145535969Y-89656532D01*
X145535969Y-89863467D01*
X145576338Y-90066418D01*
X145655527Y-90257597D01*
X145732545Y-90372863D01*
X145770492Y-90429655D01*
X145916814Y-90575977D01*
X146088871Y-90690941D01*
X146280049Y-90770130D01*
X146483004Y-90810500D01*
X146483005Y-90810500D01*
X146689933Y-90810500D01*
X146689934Y-90810500D01*
X146892889Y-90770130D01*
X147084067Y-90690941D01*
X147124717Y-90663778D01*
X147142710Y-90655238D01*
X147142399Y-90654494D01*
X148305004Y-90168169D01*
X148343208Y-90160500D01*
X149034981Y-90160500D01*
X149034983Y-90160500D01*
X149136844Y-90133207D01*
X149136846Y-90133205D01*
X149136848Y-90133205D01*
X149228164Y-90080483D01*
X149228164Y-90080482D01*
X149228169Y-90080480D01*
X150389355Y-88919294D01*
X150443872Y-88891517D01*
X150459359Y-88890298D01*
X152981532Y-88890298D01*
X153039723Y-88909205D01*
X153075687Y-88958705D01*
X153075687Y-89019891D01*
X153051537Y-89059299D01*
X153030208Y-89080629D01*
X153020489Y-89090348D01*
X152905527Y-89262402D01*
X152826338Y-89453581D01*
X152785969Y-89656532D01*
X152785969Y-89863467D01*
X152826338Y-90066418D01*
X152905527Y-90257597D01*
X152982545Y-90372863D01*
X153020492Y-90429655D01*
X153051133Y-90460296D01*
X153078909Y-90514811D01*
X153069338Y-90575243D01*
X153026073Y-90618508D01*
X152981128Y-90629298D01*
X150305185Y-90629298D01*
X150199731Y-90629298D01*
X150158663Y-90640302D01*
X150097865Y-90656592D01*
X150006549Y-90709314D01*
X148845359Y-91870504D01*
X148790842Y-91898281D01*
X148775355Y-91899500D01*
X148343211Y-91899500D01*
X148305007Y-91891831D01*
X147143506Y-91405968D01*
X147143680Y-91405550D01*
X147124919Y-91396355D01*
X147084066Y-91369058D01*
X146892887Y-91289869D01*
X146689936Y-91249500D01*
X146689934Y-91249500D01*
X146483004Y-91249500D01*
X146483001Y-91249500D01*
X146280050Y-91289869D01*
X146088871Y-91369058D01*
X145916817Y-91484020D01*
X145770489Y-91630348D01*
X145655527Y-91802402D01*
X145576338Y-91993581D01*
X145535969Y-92196532D01*
X145535969Y-92403467D01*
X145576338Y-92606418D01*
X145655527Y-92797597D01*
X145732545Y-92912863D01*
X145770492Y-92969655D01*
X145916814Y-93115977D01*
X146088871Y-93230941D01*
X146280049Y-93310130D01*
X146483004Y-93350500D01*
X146483005Y-93350500D01*
X146689933Y-93350500D01*
X146689934Y-93350500D01*
X146892889Y-93310130D01*
X147084067Y-93230941D01*
X147124717Y-93203778D01*
X147142710Y-93195238D01*
X147142399Y-93194494D01*
X148305004Y-92708169D01*
X148343208Y-92700500D01*
X149034981Y-92700500D01*
X149034983Y-92700500D01*
X149136844Y-92673207D01*
X149136846Y-92673205D01*
X149136848Y-92673205D01*
X149228164Y-92620483D01*
X149228164Y-92620482D01*
X149228169Y-92620480D01*
X150389355Y-91459294D01*
X150443872Y-91431517D01*
X150459359Y-91430298D01*
X152981532Y-91430298D01*
X153039723Y-91449205D01*
X153075687Y-91498705D01*
X153075687Y-91559891D01*
X153051537Y-91599299D01*
X153030208Y-91620629D01*
X153020489Y-91630348D01*
X152905527Y-91802402D01*
X152826338Y-91993581D01*
X152785969Y-92196532D01*
X152785969Y-92403467D01*
X152826338Y-92606418D01*
X152905527Y-92797597D01*
X152982545Y-92912863D01*
X153020492Y-92969655D01*
X153051133Y-93000296D01*
X153078909Y-93054811D01*
X153069338Y-93115243D01*
X153026073Y-93158508D01*
X152981128Y-93169298D01*
X150305185Y-93169298D01*
X150199731Y-93169298D01*
X150158663Y-93180302D01*
X150097865Y-93196592D01*
X150006549Y-93249314D01*
X148845359Y-94410504D01*
X148790842Y-94438281D01*
X148775355Y-94439500D01*
X148343211Y-94439500D01*
X148305007Y-94431831D01*
X147143506Y-93945968D01*
X147143680Y-93945550D01*
X147124919Y-93936355D01*
X147084066Y-93909058D01*
X146892887Y-93829869D01*
X146689936Y-93789500D01*
X146689934Y-93789500D01*
X146483004Y-93789500D01*
X146483001Y-93789500D01*
X146280050Y-93829869D01*
X146088871Y-93909058D01*
X145916817Y-94024020D01*
X145770489Y-94170348D01*
X145655527Y-94342402D01*
X145576338Y-94533581D01*
X145535969Y-94736532D01*
X145535969Y-94943467D01*
X145576338Y-95146418D01*
X145655527Y-95337597D01*
X145732545Y-95452863D01*
X145770492Y-95509655D01*
X145916814Y-95655977D01*
X146088871Y-95770941D01*
X146280049Y-95850130D01*
X146483004Y-95890500D01*
X146483005Y-95890500D01*
X146689933Y-95890500D01*
X146689934Y-95890500D01*
X146892889Y-95850130D01*
X147084067Y-95770941D01*
X147124717Y-95743778D01*
X147142710Y-95735238D01*
X147142399Y-95734494D01*
X148305004Y-95248169D01*
X148343208Y-95240500D01*
X149034981Y-95240500D01*
X149034983Y-95240500D01*
X149136844Y-95213207D01*
X149136846Y-95213205D01*
X149136848Y-95213205D01*
X149228164Y-95160483D01*
X149228164Y-95160482D01*
X149228169Y-95160480D01*
X150389355Y-93999294D01*
X150443872Y-93971517D01*
X150459359Y-93970298D01*
X152981532Y-93970298D01*
X153039723Y-93989205D01*
X153075687Y-94038705D01*
X153075687Y-94099891D01*
X153051537Y-94139299D01*
X153030208Y-94160629D01*
X153020489Y-94170348D01*
X152905527Y-94342402D01*
X152826338Y-94533581D01*
X152785969Y-94736532D01*
X152785969Y-94943467D01*
X152826338Y-95146418D01*
X152905527Y-95337597D01*
X152982545Y-95452863D01*
X153020492Y-95509655D01*
X153051133Y-95540296D01*
X153078909Y-95594811D01*
X153069338Y-95655243D01*
X153026073Y-95698508D01*
X152981128Y-95709298D01*
X150305185Y-95709298D01*
X150199731Y-95709298D01*
X150158663Y-95720302D01*
X150097865Y-95736592D01*
X150006549Y-95789314D01*
X148845359Y-96950504D01*
X148790842Y-96978281D01*
X148775355Y-96979500D01*
X148343211Y-96979500D01*
X148305007Y-96971831D01*
X147143506Y-96485968D01*
X147143680Y-96485550D01*
X147124919Y-96476355D01*
X147084066Y-96449058D01*
X146892887Y-96369869D01*
X146689936Y-96329500D01*
X146689934Y-96329500D01*
X146483004Y-96329500D01*
X146483001Y-96329500D01*
X146280050Y-96369869D01*
X146088871Y-96449058D01*
X145916817Y-96564020D01*
X145770489Y-96710348D01*
X145655527Y-96882402D01*
X145576338Y-97073581D01*
X145535969Y-97276532D01*
X145535969Y-97483467D01*
X145576338Y-97686418D01*
X145655527Y-97877597D01*
X145732545Y-97992863D01*
X145770492Y-98049655D01*
X145916814Y-98195977D01*
X146088871Y-98310941D01*
X146280049Y-98390130D01*
X146483004Y-98430500D01*
X146483005Y-98430500D01*
X146689933Y-98430500D01*
X146689934Y-98430500D01*
X146892889Y-98390130D01*
X147084067Y-98310941D01*
X147124717Y-98283778D01*
X147142710Y-98275238D01*
X147142399Y-98274494D01*
X148305004Y-97788169D01*
X148343208Y-97780500D01*
X149034981Y-97780500D01*
X149034983Y-97780500D01*
X149136844Y-97753207D01*
X149136846Y-97753205D01*
X149136848Y-97753205D01*
X149228164Y-97700483D01*
X149228164Y-97700482D01*
X149228169Y-97700480D01*
X150389355Y-96539294D01*
X150443872Y-96511517D01*
X150459359Y-96510298D01*
X152981532Y-96510298D01*
X153039723Y-96529205D01*
X153075687Y-96578705D01*
X153075687Y-96639891D01*
X153051537Y-96679299D01*
X153030208Y-96700629D01*
X153020489Y-96710348D01*
X152905527Y-96882402D01*
X152826338Y-97073581D01*
X152785969Y-97276532D01*
X152785969Y-97483467D01*
X152826338Y-97686418D01*
X152905527Y-97877597D01*
X152982545Y-97992863D01*
X153020492Y-98049655D01*
X153051133Y-98080296D01*
X153078909Y-98134811D01*
X153069338Y-98195243D01*
X153026073Y-98238508D01*
X152981128Y-98249298D01*
X150305185Y-98249298D01*
X150199731Y-98249298D01*
X150158663Y-98260302D01*
X150097865Y-98276592D01*
X150006549Y-98329314D01*
X148845359Y-99490504D01*
X148790842Y-99518281D01*
X148775355Y-99519500D01*
X148343211Y-99519500D01*
X148305007Y-99511831D01*
X147143506Y-99025968D01*
X147143680Y-99025550D01*
X147124919Y-99016355D01*
X147084066Y-98989058D01*
X146892887Y-98909869D01*
X146689936Y-98869500D01*
X146689934Y-98869500D01*
X146483004Y-98869500D01*
X146483001Y-98869500D01*
X146280050Y-98909869D01*
X146088871Y-98989058D01*
X145916817Y-99104020D01*
X145770489Y-99250348D01*
X145655527Y-99422402D01*
X145576338Y-99613581D01*
X145535969Y-99816532D01*
X145535969Y-100023467D01*
X145576338Y-100226418D01*
X145655527Y-100417597D01*
X145732545Y-100532863D01*
X145770492Y-100589655D01*
X145916814Y-100735977D01*
X146088871Y-100850941D01*
X146280049Y-100930130D01*
X146483004Y-100970500D01*
X146483005Y-100970500D01*
X146689933Y-100970500D01*
X146689934Y-100970500D01*
X146892889Y-100930130D01*
X147084067Y-100850941D01*
X147124717Y-100823778D01*
X147142710Y-100815238D01*
X147142399Y-100814494D01*
X148305004Y-100328169D01*
X148343208Y-100320500D01*
X149034981Y-100320500D01*
X149034983Y-100320500D01*
X149136844Y-100293207D01*
X149136846Y-100293205D01*
X149136848Y-100293205D01*
X149228164Y-100240483D01*
X149228164Y-100240482D01*
X149228169Y-100240480D01*
X150389355Y-99079294D01*
X150443872Y-99051517D01*
X150459359Y-99050298D01*
X152981532Y-99050298D01*
X153039723Y-99069205D01*
X153075687Y-99118705D01*
X153075687Y-99179891D01*
X153051537Y-99219299D01*
X153030208Y-99240629D01*
X153020489Y-99250348D01*
X152905527Y-99422402D01*
X152826338Y-99613581D01*
X152785969Y-99816532D01*
X152785969Y-100023467D01*
X152826338Y-100226418D01*
X152905527Y-100417597D01*
X152982545Y-100532863D01*
X153020492Y-100589655D01*
X153051133Y-100620296D01*
X153078909Y-100674811D01*
X153069338Y-100735243D01*
X153026073Y-100778508D01*
X152981128Y-100789298D01*
X150305185Y-100789298D01*
X150199731Y-100789298D01*
X150158663Y-100800302D01*
X150097865Y-100816592D01*
X150006549Y-100869314D01*
X148845359Y-102030504D01*
X148790842Y-102058281D01*
X148775355Y-102059500D01*
X148343211Y-102059500D01*
X148305007Y-102051831D01*
X147143506Y-101565968D01*
X147143680Y-101565550D01*
X147124919Y-101556355D01*
X147084066Y-101529058D01*
X146892887Y-101449869D01*
X146689936Y-101409500D01*
X146689934Y-101409500D01*
X146483004Y-101409500D01*
X146483001Y-101409500D01*
X146280050Y-101449869D01*
X146088871Y-101529058D01*
X145916817Y-101644020D01*
X145770489Y-101790348D01*
X145655527Y-101962402D01*
X145576338Y-102153581D01*
X145535969Y-102356532D01*
X145535969Y-102563467D01*
X145576338Y-102766418D01*
X145655527Y-102957597D01*
X145732545Y-103072863D01*
X145770492Y-103129655D01*
X145916814Y-103275977D01*
X146088871Y-103390941D01*
X146280049Y-103470130D01*
X146483004Y-103510500D01*
X146483005Y-103510500D01*
X146689933Y-103510500D01*
X146689934Y-103510500D01*
X146892889Y-103470130D01*
X147084067Y-103390941D01*
X147124717Y-103363778D01*
X147142710Y-103355238D01*
X147142399Y-103354494D01*
X148305004Y-102868169D01*
X148343208Y-102860500D01*
X149034981Y-102860500D01*
X149034983Y-102860500D01*
X149136844Y-102833207D01*
X149136846Y-102833205D01*
X149136848Y-102833205D01*
X149228164Y-102780483D01*
X149228164Y-102780482D01*
X149228169Y-102780480D01*
X150389355Y-101619294D01*
X150443872Y-101591517D01*
X150459359Y-101590298D01*
X152981532Y-101590298D01*
X153039723Y-101609205D01*
X153075687Y-101658705D01*
X153075687Y-101719891D01*
X153051537Y-101759299D01*
X153030208Y-101780629D01*
X153020489Y-101790348D01*
X152905527Y-101962402D01*
X152826338Y-102153581D01*
X152785969Y-102356532D01*
X152785969Y-102563467D01*
X152826338Y-102766418D01*
X152905527Y-102957597D01*
X152982545Y-103072863D01*
X153020492Y-103129655D01*
X153051133Y-103160296D01*
X153078909Y-103214811D01*
X153069338Y-103275243D01*
X153026073Y-103318508D01*
X152981128Y-103329298D01*
X150305185Y-103329298D01*
X150199731Y-103329298D01*
X150158663Y-103340302D01*
X150097865Y-103356592D01*
X150006549Y-103409314D01*
X148845359Y-104570504D01*
X148790842Y-104598281D01*
X148775355Y-104599500D01*
X148343211Y-104599500D01*
X148305007Y-104591831D01*
X147143506Y-104105968D01*
X147143680Y-104105550D01*
X147124919Y-104096355D01*
X147084066Y-104069058D01*
X146892887Y-103989869D01*
X146689936Y-103949500D01*
X146689934Y-103949500D01*
X146483004Y-103949500D01*
X146483001Y-103949500D01*
X146280050Y-103989869D01*
X146088871Y-104069058D01*
X145916817Y-104184020D01*
X145770489Y-104330348D01*
X145655527Y-104502402D01*
X145576338Y-104693581D01*
X145535969Y-104896532D01*
X145535969Y-105103467D01*
X145576338Y-105306418D01*
X145655527Y-105497597D01*
X145732545Y-105612863D01*
X145770492Y-105669655D01*
X145916814Y-105815977D01*
X146088871Y-105930941D01*
X146280049Y-106010130D01*
X146483004Y-106050500D01*
X146483005Y-106050500D01*
X146689933Y-106050500D01*
X146689934Y-106050500D01*
X146892889Y-106010130D01*
X147084067Y-105930941D01*
X147124717Y-105903778D01*
X147142710Y-105895238D01*
X147142399Y-105894494D01*
X148305004Y-105408169D01*
X148343208Y-105400500D01*
X149034981Y-105400500D01*
X149034983Y-105400500D01*
X149136844Y-105373207D01*
X149136846Y-105373205D01*
X149136848Y-105373205D01*
X149228164Y-105320483D01*
X149228164Y-105320482D01*
X149228169Y-105320480D01*
X150389355Y-104159294D01*
X150443872Y-104131517D01*
X150459359Y-104130298D01*
X152981532Y-104130298D01*
X153039723Y-104149205D01*
X153075687Y-104198705D01*
X153075687Y-104259891D01*
X153051537Y-104299299D01*
X153030208Y-104320629D01*
X153020489Y-104330348D01*
X152905527Y-104502402D01*
X152826338Y-104693581D01*
X152785969Y-104896532D01*
X152785969Y-105103467D01*
X152826338Y-105306418D01*
X152905527Y-105497597D01*
X152982545Y-105612863D01*
X153020492Y-105669655D01*
X153061133Y-105710296D01*
X153088909Y-105764811D01*
X153079338Y-105825243D01*
X153036073Y-105868508D01*
X152991128Y-105879298D01*
X150305185Y-105879298D01*
X150199731Y-105879298D01*
X150144104Y-105894203D01*
X150097865Y-105906592D01*
X150006549Y-105959314D01*
X148845359Y-107120504D01*
X148790842Y-107148281D01*
X148775355Y-107149500D01*
X148344092Y-107149500D01*
X148305249Y-107141562D01*
X147942749Y-106986934D01*
X147148250Y-106648032D01*
X147148246Y-106648031D01*
X147144840Y-106646578D01*
X147144938Y-106646347D01*
X147125515Y-106636752D01*
X147084069Y-106609059D01*
X146892887Y-106529869D01*
X146689936Y-106489500D01*
X146689934Y-106489500D01*
X146483004Y-106489500D01*
X146483001Y-106489500D01*
X146280050Y-106529869D01*
X146088871Y-106609058D01*
X145916817Y-106724020D01*
X145770489Y-106870348D01*
X145655527Y-107042402D01*
X145576338Y-107233581D01*
X145535969Y-107436532D01*
X145535969Y-107643467D01*
X145576338Y-107846418D01*
X145655527Y-108037597D01*
X145770489Y-108209651D01*
X145770492Y-108209655D01*
X145916814Y-108355977D01*
X146088871Y-108470941D01*
X146280049Y-108550130D01*
X146483004Y-108590500D01*
X146483005Y-108590500D01*
X146689933Y-108590500D01*
X146689934Y-108590500D01*
X146892889Y-108550130D01*
X147084067Y-108470941D01*
X147120254Y-108446760D01*
X147137620Y-108437510D01*
X148146938Y-108022792D01*
X148304798Y-107957929D01*
X148342424Y-107950500D01*
X149034981Y-107950500D01*
X149034983Y-107950500D01*
X149136844Y-107923207D01*
X149136846Y-107923205D01*
X149136848Y-107923205D01*
X149228164Y-107870483D01*
X149228164Y-107870482D01*
X149228169Y-107870480D01*
X150389355Y-106709294D01*
X150443872Y-106681517D01*
X150459359Y-106680298D01*
X152971532Y-106680298D01*
X153029723Y-106699205D01*
X153065687Y-106748705D01*
X153065687Y-106809891D01*
X153041537Y-106849299D01*
X153020492Y-106870345D01*
X153020489Y-106870348D01*
X152905527Y-107042402D01*
X152826338Y-107233581D01*
X152785969Y-107436532D01*
X152785969Y-107643467D01*
X152826338Y-107846418D01*
X152905527Y-108037597D01*
X153020489Y-108209651D01*
X153020492Y-108209655D01*
X153071133Y-108260296D01*
X153098909Y-108314811D01*
X153089338Y-108375243D01*
X153046073Y-108418508D01*
X153001128Y-108429298D01*
X150305185Y-108429298D01*
X150199731Y-108429298D01*
X150155054Y-108441269D01*
X150097865Y-108456592D01*
X150006549Y-108509314D01*
X148845359Y-109670504D01*
X148790842Y-109698281D01*
X148775355Y-109699500D01*
X148344972Y-109699500D01*
X148305496Y-109691289D01*
X147950506Y-109536934D01*
X147149599Y-109188687D01*
X147149596Y-109188686D01*
X147149589Y-109188683D01*
X147148588Y-109188335D01*
X147147200Y-109187644D01*
X147146160Y-109187192D01*
X147146183Y-109187138D01*
X147126097Y-109177141D01*
X147084069Y-109149059D01*
X146892887Y-109069869D01*
X146689936Y-109029500D01*
X146689934Y-109029500D01*
X146483004Y-109029500D01*
X146483001Y-109029500D01*
X146280050Y-109069869D01*
X146088871Y-109149058D01*
X145916817Y-109264020D01*
X145770489Y-109410348D01*
X145655527Y-109582402D01*
X145576338Y-109773581D01*
X145535969Y-109976532D01*
X145535969Y-110183467D01*
X145576338Y-110386418D01*
X145655527Y-110577597D01*
X145770489Y-110749651D01*
X145770492Y-110749655D01*
X145916814Y-110895977D01*
X146088871Y-111010941D01*
X146280049Y-111090130D01*
X146483004Y-111130500D01*
X146483005Y-111130500D01*
X146689933Y-111130500D01*
X146689934Y-111130500D01*
X146892889Y-111090130D01*
X146994649Y-111047979D01*
X147084061Y-111010944D01*
X147084063Y-111010942D01*
X147084067Y-111010941D01*
X147112566Y-110991897D01*
X147130445Y-110982438D01*
X148304619Y-110507718D01*
X148341727Y-110500500D01*
X149034981Y-110500500D01*
X149034983Y-110500500D01*
X149136844Y-110473207D01*
X149136846Y-110473205D01*
X149136848Y-110473205D01*
X149228164Y-110420483D01*
X149228164Y-110420482D01*
X149228169Y-110420480D01*
X150389355Y-109259294D01*
X150443872Y-109231517D01*
X150459359Y-109230298D01*
X152961532Y-109230298D01*
X153019723Y-109249205D01*
X153055687Y-109298705D01*
X153055687Y-109359891D01*
X153031537Y-109399299D01*
X153020492Y-109410345D01*
X153020489Y-109410348D01*
X152905527Y-109582402D01*
X152826338Y-109773581D01*
X152785969Y-109976532D01*
X152785969Y-110183467D01*
X152826338Y-110386418D01*
X152905527Y-110577597D01*
X153020489Y-110749651D01*
X153020492Y-110749655D01*
X153166814Y-110895977D01*
X153338871Y-111010941D01*
X153530049Y-111090130D01*
X153733004Y-111130500D01*
X153733005Y-111130500D01*
X153939933Y-111130500D01*
X153939934Y-111130500D01*
X154142889Y-111090130D01*
X154244649Y-111047979D01*
X154334061Y-111010944D01*
X154334063Y-111010942D01*
X154334067Y-111010941D01*
X154362566Y-110991897D01*
X154380445Y-110982438D01*
X155554619Y-110507718D01*
X155591727Y-110500500D01*
X164546507Y-110500500D01*
X164604698Y-110519407D01*
X164616511Y-110529496D01*
X165817293Y-111730278D01*
X165817295Y-111730279D01*
X165817296Y-111730280D01*
X165817297Y-111730281D01*
X165908614Y-111783003D01*
X165908612Y-111783003D01*
X165908616Y-111783004D01*
X165908618Y-111783005D01*
X166010479Y-111810298D01*
X166010481Y-111810298D01*
X170127373Y-111810298D01*
X170127375Y-111810298D01*
X170229236Y-111783005D01*
X170229238Y-111783003D01*
X170229240Y-111783003D01*
X170320556Y-111730281D01*
X170320559Y-111730279D01*
X170320558Y-111730279D01*
X170320561Y-111730278D01*
X170338262Y-111712575D01*
X170365695Y-111693199D01*
X171581055Y-111114419D01*
X171585633Y-111112382D01*
X171722967Y-111055497D01*
X171768073Y-111025358D01*
X171773760Y-111022650D01*
X171786740Y-111015891D01*
X171788199Y-111015064D01*
X171791063Y-111013410D01*
X171803473Y-111001704D01*
X171895024Y-110940533D01*
X172041346Y-110794211D01*
X172156310Y-110622154D01*
X172235499Y-110430976D01*
X172275869Y-110228021D01*
X172275869Y-110021091D01*
X172235499Y-109818136D01*
X172156310Y-109626958D01*
X172041346Y-109454901D01*
X171895024Y-109308579D01*
X171895020Y-109308576D01*
X171722966Y-109193614D01*
X171531787Y-109114425D01*
X171328836Y-109074056D01*
X171328834Y-109074056D01*
X171121904Y-109074056D01*
X171121901Y-109074056D01*
X170918949Y-109114426D01*
X170918947Y-109114426D01*
X170737561Y-109189559D01*
X170732132Y-109189986D01*
X170730443Y-109191829D01*
X170555717Y-109308576D01*
X170409389Y-109454904D01*
X170294427Y-109626958D01*
X170215240Y-109818132D01*
X170215239Y-109818135D01*
X170215239Y-109818136D01*
X170204931Y-109869958D01*
X170204027Y-109874502D01*
X170195103Y-109898321D01*
X170195631Y-109898559D01*
X170193638Y-109902990D01*
X169844416Y-110941843D01*
X169807952Y-110990976D01*
X169750576Y-111009298D01*
X169525266Y-111009298D01*
X169467075Y-110990391D01*
X169431111Y-110940891D01*
X169431111Y-110879705D01*
X169455260Y-110840296D01*
X169501346Y-110794211D01*
X169616310Y-110622154D01*
X169695499Y-110430976D01*
X169735869Y-110228021D01*
X169735869Y-110021091D01*
X169695499Y-109818136D01*
X169616310Y-109626958D01*
X169501346Y-109454901D01*
X169475744Y-109429299D01*
X169447969Y-109374785D01*
X169457540Y-109314353D01*
X169500805Y-109271088D01*
X169545750Y-109260298D01*
X170127373Y-109260298D01*
X170127375Y-109260298D01*
X170229236Y-109233005D01*
X170229238Y-109233003D01*
X170229240Y-109233003D01*
X170320555Y-109180282D01*
X170320556Y-109180280D01*
X170320561Y-109180278D01*
X170332932Y-109167905D01*
X170336337Y-109165511D01*
X170337406Y-109163701D01*
X170341336Y-109161996D01*
X170360740Y-109148350D01*
X170633247Y-109019955D01*
X170646632Y-109018258D01*
X170657479Y-109008538D01*
X171563273Y-108581762D01*
X171567476Y-108579902D01*
X171722967Y-108515497D01*
X171768520Y-108485059D01*
X171772919Y-108482987D01*
X171786361Y-108476037D01*
X171787863Y-108475189D01*
X171791032Y-108473363D01*
X171803196Y-108461889D01*
X171895024Y-108400533D01*
X172041346Y-108254211D01*
X172156310Y-108082154D01*
X172235499Y-107890976D01*
X172275869Y-107688021D01*
X172275869Y-107481091D01*
X172235499Y-107278136D01*
X172156310Y-107086958D01*
X172041346Y-106914901D01*
X171895024Y-106768579D01*
X171895020Y-106768576D01*
X171722966Y-106653614D01*
X171531787Y-106574425D01*
X171328836Y-106534056D01*
X171328834Y-106534056D01*
X171121904Y-106534056D01*
X171121901Y-106534056D01*
X170918950Y-106574425D01*
X170727771Y-106653614D01*
X170555717Y-106768576D01*
X170409389Y-106914904D01*
X170294427Y-107086958D01*
X170215240Y-107278132D01*
X170215236Y-107278146D01*
X170204181Y-107333721D01*
X170195289Y-107357293D01*
X170195933Y-107357586D01*
X170193920Y-107362007D01*
X169842191Y-108392283D01*
X169805497Y-108441245D01*
X169748500Y-108459298D01*
X169535266Y-108459298D01*
X169477075Y-108440391D01*
X169441111Y-108390891D01*
X169441111Y-108329705D01*
X169465260Y-108290296D01*
X169501346Y-108254211D01*
X169616310Y-108082154D01*
X169695499Y-107890976D01*
X169735869Y-107688021D01*
X169735869Y-107481091D01*
X169695499Y-107278136D01*
X169616310Y-107086958D01*
X169501346Y-106914901D01*
X169465744Y-106879299D01*
X169437969Y-106824785D01*
X169447540Y-106764353D01*
X169490805Y-106721088D01*
X169535750Y-106710298D01*
X170127373Y-106710298D01*
X170127375Y-106710298D01*
X170229236Y-106683005D01*
X170229238Y-106683003D01*
X170229240Y-106683003D01*
X170320555Y-106630282D01*
X170320559Y-106630279D01*
X170320558Y-106630279D01*
X170320561Y-106630278D01*
X170327603Y-106623235D01*
X170355778Y-106603508D01*
X171542203Y-106050470D01*
X171546068Y-106048770D01*
X171722967Y-105975497D01*
X171768931Y-105944784D01*
X171772076Y-105943319D01*
X171785860Y-105936250D01*
X171787406Y-105935382D01*
X171791000Y-105933316D01*
X171802916Y-105922077D01*
X171895024Y-105860533D01*
X172041346Y-105714211D01*
X172156310Y-105542154D01*
X172235499Y-105350976D01*
X172275869Y-105148021D01*
X172275869Y-104941091D01*
X172235499Y-104738136D01*
X172156310Y-104546958D01*
X172041346Y-104374901D01*
X171895024Y-104228579D01*
X171895020Y-104228576D01*
X171722966Y-104113614D01*
X171531787Y-104034425D01*
X171328836Y-103994056D01*
X171328834Y-103994056D01*
X171121904Y-103994056D01*
X171121901Y-103994056D01*
X170918950Y-104034425D01*
X170727771Y-104113614D01*
X170555717Y-104228576D01*
X170409389Y-104374904D01*
X170294427Y-104546958D01*
X170215238Y-104738137D01*
X170215237Y-104738141D01*
X170204335Y-104792946D01*
X170195474Y-104816272D01*
X170196237Y-104816624D01*
X170194204Y-104821033D01*
X170152584Y-104941092D01*
X169840656Y-105840891D01*
X169840020Y-105842725D01*
X169803096Y-105891512D01*
X169746481Y-105909298D01*
X169545266Y-105909298D01*
X169487075Y-105890391D01*
X169451111Y-105840891D01*
X169451111Y-105779705D01*
X169475260Y-105740296D01*
X169501346Y-105714211D01*
X169616310Y-105542154D01*
X169695499Y-105350976D01*
X169735869Y-105148021D01*
X169735869Y-104941091D01*
X169695499Y-104738136D01*
X169616310Y-104546958D01*
X169501346Y-104374901D01*
X169465744Y-104339299D01*
X169437969Y-104284785D01*
X169447540Y-104224353D01*
X169490805Y-104181088D01*
X169535750Y-104170298D01*
X170127373Y-104170298D01*
X170127375Y-104170298D01*
X170229236Y-104143005D01*
X170229238Y-104143003D01*
X170229240Y-104143003D01*
X170320555Y-104090282D01*
X170320559Y-104090279D01*
X170320558Y-104090279D01*
X170320561Y-104090278D01*
X170327603Y-104083235D01*
X170355778Y-104063508D01*
X171542203Y-103510470D01*
X171546068Y-103508770D01*
X171722967Y-103435497D01*
X171768931Y-103404784D01*
X171772076Y-103403319D01*
X171785860Y-103396250D01*
X171787406Y-103395382D01*
X171791000Y-103393316D01*
X171802916Y-103382077D01*
X171895024Y-103320533D01*
X172041346Y-103174211D01*
X172156310Y-103002154D01*
X172235499Y-102810976D01*
X172275869Y-102608021D01*
X172275869Y-102401091D01*
X172235499Y-102198136D01*
X172156310Y-102006958D01*
X172041346Y-101834901D01*
X171895024Y-101688579D01*
X171895020Y-101688576D01*
X171722966Y-101573614D01*
X171531787Y-101494425D01*
X171328836Y-101454056D01*
X171328834Y-101454056D01*
X171121904Y-101454056D01*
X171121901Y-101454056D01*
X170918950Y-101494425D01*
X170727771Y-101573614D01*
X170555717Y-101688576D01*
X170409389Y-101834904D01*
X170294427Y-102006958D01*
X170215238Y-102198137D01*
X170215237Y-102198141D01*
X170204335Y-102252946D01*
X170195474Y-102276272D01*
X170196237Y-102276624D01*
X170194204Y-102281033D01*
X170152584Y-102401092D01*
X169840656Y-103300891D01*
X169840020Y-103302725D01*
X169803096Y-103351512D01*
X169746481Y-103369298D01*
X169545266Y-103369298D01*
X169487075Y-103350391D01*
X169451111Y-103300891D01*
X169451111Y-103239705D01*
X169475260Y-103200296D01*
X169501346Y-103174211D01*
X169616310Y-103002154D01*
X169695499Y-102810976D01*
X169735869Y-102608021D01*
X169735869Y-102401091D01*
X169695499Y-102198136D01*
X169616310Y-102006958D01*
X169501346Y-101834901D01*
X169465744Y-101799299D01*
X169437969Y-101744785D01*
X169447540Y-101684353D01*
X169490805Y-101641088D01*
X169535750Y-101630298D01*
X170127373Y-101630298D01*
X170127375Y-101630298D01*
X170229236Y-101603005D01*
X170229238Y-101603003D01*
X170229240Y-101603003D01*
X170320555Y-101550282D01*
X170320559Y-101550279D01*
X170320558Y-101550279D01*
X170320561Y-101550278D01*
X170327603Y-101543235D01*
X170355778Y-101523508D01*
X171542203Y-100970470D01*
X171546068Y-100968770D01*
X171722967Y-100895497D01*
X171768931Y-100864784D01*
X171772076Y-100863319D01*
X171785860Y-100856250D01*
X171787406Y-100855382D01*
X171791000Y-100853316D01*
X171802916Y-100842077D01*
X171895024Y-100780533D01*
X172041346Y-100634211D01*
X172156310Y-100462154D01*
X172235499Y-100270976D01*
X172275869Y-100068021D01*
X172275869Y-99861091D01*
X172235499Y-99658136D01*
X172156310Y-99466958D01*
X172041346Y-99294901D01*
X171895024Y-99148579D01*
X171895020Y-99148576D01*
X171722966Y-99033614D01*
X171531787Y-98954425D01*
X171328836Y-98914056D01*
X171328834Y-98914056D01*
X171121904Y-98914056D01*
X171121901Y-98914056D01*
X170918950Y-98954425D01*
X170727771Y-99033614D01*
X170555717Y-99148576D01*
X170409389Y-99294904D01*
X170294427Y-99466958D01*
X170215238Y-99658137D01*
X170215237Y-99658141D01*
X170204335Y-99712946D01*
X170195474Y-99736272D01*
X170196237Y-99736624D01*
X170194204Y-99741033D01*
X170152584Y-99861092D01*
X169840656Y-100760891D01*
X169840020Y-100762725D01*
X169803096Y-100811512D01*
X169746481Y-100829298D01*
X169545266Y-100829298D01*
X169487075Y-100810391D01*
X169451111Y-100760891D01*
X169451111Y-100699705D01*
X169475260Y-100660296D01*
X169501346Y-100634211D01*
X169616310Y-100462154D01*
X169695499Y-100270976D01*
X169735869Y-100068021D01*
X169735869Y-99861091D01*
X169695499Y-99658136D01*
X169616310Y-99466958D01*
X169501346Y-99294901D01*
X169465744Y-99259299D01*
X169437969Y-99204785D01*
X169447540Y-99144353D01*
X169490805Y-99101088D01*
X169535750Y-99090298D01*
X170127373Y-99090298D01*
X170127375Y-99090298D01*
X170229236Y-99063005D01*
X170229238Y-99063003D01*
X170229240Y-99063003D01*
X170320555Y-99010282D01*
X170320559Y-99010279D01*
X170320558Y-99010279D01*
X170320561Y-99010278D01*
X170327603Y-99003235D01*
X170355778Y-98983508D01*
X171542203Y-98430470D01*
X171546068Y-98428770D01*
X171722967Y-98355497D01*
X171768931Y-98324784D01*
X171772076Y-98323319D01*
X171785860Y-98316250D01*
X171787406Y-98315382D01*
X171791000Y-98313316D01*
X171802916Y-98302077D01*
X171895024Y-98240533D01*
X172041346Y-98094211D01*
X172156310Y-97922154D01*
X172235499Y-97730976D01*
X172275869Y-97528021D01*
X172275869Y-97321091D01*
X172235499Y-97118136D01*
X172156310Y-96926958D01*
X172041346Y-96754901D01*
X171895024Y-96608579D01*
X171895020Y-96608576D01*
X171722966Y-96493614D01*
X171531787Y-96414425D01*
X171328836Y-96374056D01*
X171328834Y-96374056D01*
X171121904Y-96374056D01*
X171121901Y-96374056D01*
X170918950Y-96414425D01*
X170727771Y-96493614D01*
X170555717Y-96608576D01*
X170409389Y-96754904D01*
X170294427Y-96926958D01*
X170215238Y-97118137D01*
X170215237Y-97118141D01*
X170204335Y-97172946D01*
X170195474Y-97196272D01*
X170196237Y-97196624D01*
X170194204Y-97201033D01*
X170152584Y-97321092D01*
X169840656Y-98220891D01*
X169840020Y-98222725D01*
X169803096Y-98271512D01*
X169746481Y-98289298D01*
X169545266Y-98289298D01*
X169487075Y-98270391D01*
X169451111Y-98220891D01*
X169451111Y-98159705D01*
X169475260Y-98120296D01*
X169501346Y-98094211D01*
X169616310Y-97922154D01*
X169695499Y-97730976D01*
X169735869Y-97528021D01*
X169735869Y-97321091D01*
X169695499Y-97118136D01*
X169616310Y-96926958D01*
X169501346Y-96754901D01*
X169465744Y-96719299D01*
X169437969Y-96664785D01*
X169447540Y-96604353D01*
X169490805Y-96561088D01*
X169535750Y-96550298D01*
X170127373Y-96550298D01*
X170127375Y-96550298D01*
X170229236Y-96523005D01*
X170229238Y-96523003D01*
X170229240Y-96523003D01*
X170320555Y-96470282D01*
X170320559Y-96470279D01*
X170320558Y-96470279D01*
X170320561Y-96470278D01*
X170327603Y-96463235D01*
X170355778Y-96443508D01*
X171542203Y-95890470D01*
X171546068Y-95888770D01*
X171722967Y-95815497D01*
X171768931Y-95784784D01*
X171772076Y-95783319D01*
X171785860Y-95776250D01*
X171787406Y-95775382D01*
X171791000Y-95773316D01*
X171802916Y-95762077D01*
X171895024Y-95700533D01*
X172041346Y-95554211D01*
X172156310Y-95382154D01*
X172235499Y-95190976D01*
X172275869Y-94988021D01*
X172275869Y-94781091D01*
X172235499Y-94578136D01*
X172156310Y-94386958D01*
X172041346Y-94214901D01*
X171895024Y-94068579D01*
X171895020Y-94068576D01*
X171722966Y-93953614D01*
X171531787Y-93874425D01*
X171328836Y-93834056D01*
X171328834Y-93834056D01*
X171121904Y-93834056D01*
X171121901Y-93834056D01*
X170918950Y-93874425D01*
X170727771Y-93953614D01*
X170555717Y-94068576D01*
X170409389Y-94214904D01*
X170294427Y-94386958D01*
X170215238Y-94578137D01*
X170215237Y-94578141D01*
X170204335Y-94632946D01*
X170195474Y-94656272D01*
X170196237Y-94656624D01*
X170194204Y-94661033D01*
X170152584Y-94781092D01*
X169840656Y-95680891D01*
X169840020Y-95682725D01*
X169803096Y-95731512D01*
X169746481Y-95749298D01*
X169545266Y-95749298D01*
X169487075Y-95730391D01*
X169451111Y-95680891D01*
X169451111Y-95619705D01*
X169475260Y-95580296D01*
X169501346Y-95554211D01*
X169616310Y-95382154D01*
X169695499Y-95190976D01*
X169735869Y-94988021D01*
X169735869Y-94781091D01*
X169695499Y-94578136D01*
X169616310Y-94386958D01*
X169501346Y-94214901D01*
X169465744Y-94179299D01*
X169437969Y-94124785D01*
X169447540Y-94064353D01*
X169490805Y-94021088D01*
X169535750Y-94010298D01*
X170127373Y-94010298D01*
X170127375Y-94010298D01*
X170229236Y-93983005D01*
X170229238Y-93983003D01*
X170229240Y-93983003D01*
X170320555Y-93930282D01*
X170320559Y-93930279D01*
X170320558Y-93930279D01*
X170320561Y-93930278D01*
X170327603Y-93923235D01*
X170355778Y-93903508D01*
X171542203Y-93350470D01*
X171546068Y-93348770D01*
X171722967Y-93275497D01*
X171768931Y-93244784D01*
X171772076Y-93243319D01*
X171785860Y-93236250D01*
X171787406Y-93235382D01*
X171791000Y-93233316D01*
X171802916Y-93222077D01*
X171895024Y-93160533D01*
X172041346Y-93014211D01*
X172156310Y-92842154D01*
X172235499Y-92650976D01*
X172275869Y-92448021D01*
X172275869Y-92241091D01*
X172235499Y-92038136D01*
X172156310Y-91846958D01*
X172041346Y-91674901D01*
X171895024Y-91528579D01*
X171895020Y-91528576D01*
X171722966Y-91413614D01*
X171531787Y-91334425D01*
X171328836Y-91294056D01*
X171328834Y-91294056D01*
X171121904Y-91294056D01*
X171121901Y-91294056D01*
X170918950Y-91334425D01*
X170727771Y-91413614D01*
X170555717Y-91528576D01*
X170409389Y-91674904D01*
X170294427Y-91846958D01*
X170215238Y-92038137D01*
X170215237Y-92038141D01*
X170204335Y-92092946D01*
X170195474Y-92116272D01*
X170196237Y-92116624D01*
X170194204Y-92121033D01*
X170152584Y-92241092D01*
X169840656Y-93140891D01*
X169840020Y-93142725D01*
X169803096Y-93191512D01*
X169746481Y-93209298D01*
X169545266Y-93209298D01*
X169487075Y-93190391D01*
X169451111Y-93140891D01*
X169451111Y-93079705D01*
X169475260Y-93040296D01*
X169501346Y-93014211D01*
X169616310Y-92842154D01*
X169695499Y-92650976D01*
X169735869Y-92448021D01*
X169735869Y-92241091D01*
X169695499Y-92038136D01*
X169616310Y-91846958D01*
X169501346Y-91674901D01*
X169465744Y-91639299D01*
X169437969Y-91584785D01*
X169447540Y-91524353D01*
X169490805Y-91481088D01*
X169535750Y-91470298D01*
X170127373Y-91470298D01*
X170127375Y-91470298D01*
X170229236Y-91443005D01*
X170229238Y-91443003D01*
X170229240Y-91443003D01*
X170320555Y-91390282D01*
X170320559Y-91390279D01*
X170320558Y-91390279D01*
X170320561Y-91390278D01*
X170327603Y-91383235D01*
X170355778Y-91363508D01*
X171542203Y-90810470D01*
X171546068Y-90808770D01*
X171722967Y-90735497D01*
X171768931Y-90704784D01*
X171772076Y-90703319D01*
X171785860Y-90696250D01*
X171787406Y-90695382D01*
X171791000Y-90693316D01*
X171802916Y-90682077D01*
X171895024Y-90620533D01*
X172041346Y-90474211D01*
X172156310Y-90302154D01*
X172235499Y-90110976D01*
X172275869Y-89908021D01*
X172275869Y-89701091D01*
X172235499Y-89498136D01*
X172156310Y-89306958D01*
X172041346Y-89134901D01*
X171895024Y-88988579D01*
X171883960Y-88981186D01*
X171722966Y-88873614D01*
X171531787Y-88794425D01*
X171483365Y-88784794D01*
X171429981Y-88754897D01*
X171404365Y-88699332D01*
X171416302Y-88639322D01*
X171461232Y-88597790D01*
X171487192Y-88589915D01*
X171541490Y-88581315D01*
X171743584Y-88515651D01*
X171932925Y-88419176D01*
X171987085Y-88379826D01*
X171354777Y-87747518D01*
X171418362Y-87730481D01*
X171532376Y-87664655D01*
X171625468Y-87571563D01*
X171691294Y-87457549D01*
X171708331Y-87393964D01*
X172340639Y-88026272D01*
X172379989Y-87972112D01*
X172476464Y-87782771D01*
X172542128Y-87580677D01*
X172575369Y-87370806D01*
X172575369Y-87158305D01*
X172542128Y-86948434D01*
X172476464Y-86746340D01*
X172379992Y-86557002D01*
X172379988Y-86556996D01*
X172340639Y-86502838D01*
X172340638Y-86502838D01*
X171708331Y-87135145D01*
X171691294Y-87071563D01*
X171625468Y-86957549D01*
X171532376Y-86864457D01*
X171418362Y-86798631D01*
X171354776Y-86781593D01*
X171987085Y-86149285D01*
X171987085Y-86149284D01*
X171932928Y-86109936D01*
X171932922Y-86109932D01*
X171743584Y-86013460D01*
X171541490Y-85947796D01*
X171331619Y-85914556D01*
X171119119Y-85914556D01*
X170909247Y-85947796D01*
X170707153Y-86013460D01*
X170517815Y-86109932D01*
X170517811Y-86109934D01*
X170463651Y-86149284D01*
X171095960Y-86781593D01*
X171032376Y-86798631D01*
X170918362Y-86864457D01*
X170825270Y-86957549D01*
X170759444Y-87071563D01*
X170742406Y-87135147D01*
X170110097Y-86502838D01*
X170070747Y-86556998D01*
X170070745Y-86557002D01*
X169974273Y-86746340D01*
X169929024Y-86885605D01*
X169893060Y-86935105D01*
X169834869Y-86954012D01*
X169776678Y-86935105D01*
X169740714Y-86885605D01*
X169735869Y-86855012D01*
X169735869Y-86394809D01*
X169735867Y-86394797D01*
X169727004Y-86350241D01*
X169724236Y-86336325D01*
X169679921Y-86270004D01*
X169668867Y-86262618D01*
X169613602Y-86225690D01*
X169613600Y-86225689D01*
X169613597Y-86225688D01*
X169613596Y-86225688D01*
X169555127Y-86214057D01*
X169555117Y-86214056D01*
X167815621Y-86214056D01*
X167815618Y-86214056D01*
X167757138Y-86225688D01*
X167719229Y-86251018D01*
X167708048Y-86257476D01*
X167702098Y-86260412D01*
X167329873Y-86546204D01*
X166935733Y-86848822D01*
X166878066Y-86869263D01*
X166875445Y-86869298D01*
X166299359Y-86869298D01*
X166241168Y-86850391D01*
X166229355Y-86840302D01*
X165259053Y-85870000D01*
X163928573Y-84539520D01*
X163928570Y-84539518D01*
X163928569Y-84539517D01*
X163928568Y-84539516D01*
X163837251Y-84486794D01*
X163837253Y-84486794D01*
X163797730Y-84476204D01*
X163735387Y-84459500D01*
X151394983Y-84459500D01*
X151289529Y-84459500D01*
X151227185Y-84476204D01*
X151187663Y-84486794D01*
X151096347Y-84539516D01*
X148845359Y-86790504D01*
X148790842Y-86818281D01*
X148775355Y-86819500D01*
X148396091Y-86819500D01*
X148337900Y-86800593D01*
X148335953Y-86799141D01*
X148022410Y-86559373D01*
X147569431Y-86212977D01*
X147534438Y-86194322D01*
X147514700Y-86181133D01*
X147456217Y-86169500D01*
X147453580Y-86169500D01*
X147449166Y-86168643D01*
X147446972Y-86169014D01*
X147445848Y-86168655D01*
X147435786Y-86169500D01*
X145716721Y-86169500D01*
X145716720Y-86169500D01*
X145716710Y-86169501D01*
X145658241Y-86181132D01*
X145658235Y-86181134D01*
X145591920Y-86225445D01*
X145591914Y-86225451D01*
X145547603Y-86291766D01*
X145547601Y-86291772D01*
X145535970Y-86350241D01*
X145535969Y-86350253D01*
X129203868Y-86350253D01*
X129178966Y-86333614D01*
X128987787Y-86254425D01*
X128784836Y-86214056D01*
X128784834Y-86214056D01*
X128577904Y-86214056D01*
X128577901Y-86214056D01*
X128374950Y-86254425D01*
X128183771Y-86333614D01*
X128011717Y-86448576D01*
X127865389Y-86594904D01*
X127750427Y-86766958D01*
X127671238Y-86958137D01*
X127630869Y-87161088D01*
X127630869Y-87368022D01*
X127634031Y-87383917D01*
X127626839Y-87444678D01*
X127613182Y-87466374D01*
X127367118Y-87763509D01*
X127315441Y-87796268D01*
X127254378Y-87792395D01*
X127207254Y-87753371D01*
X127191869Y-87700366D01*
X127191869Y-86394809D01*
X127191867Y-86394797D01*
X127183004Y-86350241D01*
X127180236Y-86336325D01*
X127135921Y-86270004D01*
X127124884Y-86262629D01*
X127069602Y-86225690D01*
X127069600Y-86225689D01*
X127069597Y-86225688D01*
X127069596Y-86225688D01*
X127011127Y-86214057D01*
X127011117Y-86214056D01*
X127011116Y-86214056D01*
X126578842Y-86214056D01*
X126520651Y-86195149D01*
X126517531Y-86192786D01*
X126180121Y-85926647D01*
X125356091Y-85276677D01*
X125356086Y-85276674D01*
X125353518Y-85275268D01*
X125331060Y-85258437D01*
X123564122Y-83491499D01*
X123564119Y-83491496D01*
X123519770Y-83461862D01*
X123408448Y-83387478D01*
X123408436Y-83387472D01*
X123296838Y-83341248D01*
X123296837Y-83341247D01*
X123291080Y-83338863D01*
X123235462Y-83315825D01*
X123123045Y-83293464D01*
X123119623Y-83292783D01*
X123119622Y-83292783D01*
X123051830Y-83279298D01*
X123051828Y-83279298D01*
X123051827Y-83279298D01*
X103920288Y-83279298D01*
X103733054Y-83279298D01*
X103733051Y-83279298D01*
X103661837Y-83293464D01*
X103549420Y-83315825D01*
X103549418Y-83315825D01*
X103474463Y-83346872D01*
X103474464Y-83346873D01*
X103376440Y-83387475D01*
X103220762Y-83491497D01*
X103220758Y-83491500D01*
X101639481Y-85072776D01*
X101619551Y-85088175D01*
X101612413Y-85092359D01*
X100428761Y-86144494D01*
X100372707Y-86169022D01*
X100362989Y-86169500D01*
X99966721Y-86169500D01*
X99966720Y-86169500D01*
X99966710Y-86169501D01*
X99908241Y-86181132D01*
X99908235Y-86181134D01*
X99841920Y-86225445D01*
X99841914Y-86225451D01*
X99797603Y-86291766D01*
X99797601Y-86291772D01*
X99785970Y-86350241D01*
X99785969Y-86350253D01*
X89639427Y-86350253D01*
X89639427Y-82763123D01*
X175552482Y-82763123D01*
X175552628Y-82765614D01*
X175552628Y-82765616D01*
X175553953Y-82788181D01*
X175554114Y-82795334D01*
X175553661Y-82828479D01*
X175556941Y-82839064D01*
X175557120Y-82842110D01*
X175568633Y-82876801D01*
X175568933Y-82877767D01*
X175581900Y-82919613D01*
X175586855Y-82931703D01*
X175588538Y-82936774D01*
X175588558Y-82936898D01*
X175588577Y-82936892D01*
X175600783Y-82973825D01*
X175600951Y-82974174D01*
X175600953Y-82974178D01*
X175622739Y-83007267D01*
X175644211Y-83039970D01*
X175644357Y-83040100D01*
X175644465Y-83040264D01*
X175673942Y-83066471D01*
X175698450Y-83088316D01*
X175701436Y-83090978D01*
X175708834Y-83099172D01*
X175709037Y-83098981D01*
X175713492Y-83103698D01*
X175737211Y-83123000D01*
X175740594Y-83125881D01*
X175763432Y-83146238D01*
X175763434Y-83146239D01*
X175769551Y-83149317D01*
X175774863Y-83153640D01*
X175804809Y-83167059D01*
X175834111Y-83181804D01*
X175834112Y-83181804D01*
X175834116Y-83181806D01*
X175840238Y-83183939D01*
X175840145Y-83184204D01*
X175850654Y-83187602D01*
X175879054Y-83200329D01*
X175904442Y-83216769D01*
X175933849Y-83242981D01*
X176054556Y-83297071D01*
X176261045Y-83348336D01*
X176469991Y-83376512D01*
X176525132Y-83403026D01*
X176540046Y-83421104D01*
X176541860Y-83423928D01*
X176629563Y-83499923D01*
X176629564Y-83499923D01*
X176629566Y-83499925D01*
X176735130Y-83548134D01*
X176735132Y-83548134D01*
X176736627Y-83548817D01*
X176757291Y-83564955D01*
X176758649Y-83563253D01*
X176804142Y-83599534D01*
X176849999Y-83610000D01*
X176850000Y-83610000D01*
X176850001Y-83610000D01*
X176895857Y-83599534D01*
X176941351Y-83563253D01*
X176942711Y-83564958D01*
X176963373Y-83548817D01*
X176964867Y-83548134D01*
X176964870Y-83548134D01*
X177070434Y-83499925D01*
X177158140Y-83423927D01*
X177159953Y-83421104D01*
X177162123Y-83419330D01*
X177162777Y-83418576D01*
X177162907Y-83418689D01*
X177207316Y-83382372D01*
X177230006Y-83376512D01*
X177438955Y-83348336D01*
X177645444Y-83297071D01*
X177766151Y-83242981D01*
X177795558Y-83216768D01*
X177820945Y-83200329D01*
X177825939Y-83198090D01*
X177849344Y-83187602D01*
X177859850Y-83184206D01*
X177859758Y-83183941D01*
X177865886Y-83181805D01*
X177865889Y-83181805D01*
X177895202Y-83167054D01*
X177925137Y-83153640D01*
X177930448Y-83149317D01*
X177936568Y-83146238D01*
X177961067Y-83124400D01*
X177986507Y-83103698D01*
X177990518Y-83098149D01*
X178026057Y-83066471D01*
X178026058Y-83066470D01*
X178026073Y-83066487D01*
X178026149Y-83066388D01*
X178055535Y-83040264D01*
X178055542Y-83040253D01*
X178055673Y-83040103D01*
X178055781Y-83039976D01*
X178055789Y-83039970D01*
X178055795Y-83039961D01*
X178077261Y-83007267D01*
X178077265Y-83007270D01*
X178077326Y-83007166D01*
X178099047Y-82974178D01*
X178099109Y-82973989D01*
X178099215Y-82973829D01*
X178111421Y-82936893D01*
X178113149Y-82931686D01*
X178118102Y-82919605D01*
X178131066Y-82877767D01*
X178131360Y-82876817D01*
X178142880Y-82842110D01*
X178143058Y-82839064D01*
X178146339Y-82828479D01*
X178145836Y-82791756D01*
X178147518Y-82763123D01*
X178145297Y-82752342D01*
X178145037Y-82733299D01*
X178135752Y-82705999D01*
X178131556Y-82685628D01*
X178123068Y-82668707D01*
X178114386Y-82643180D01*
X178114384Y-82643177D01*
X178107119Y-82633460D01*
X178107119Y-82633459D01*
X178101854Y-82626418D01*
X178096079Y-82614903D01*
X178078257Y-82594858D01*
X178057387Y-82566943D01*
X178056094Y-82566030D01*
X178055335Y-82565488D01*
X178046469Y-82559102D01*
X178043508Y-82555772D01*
X178024145Y-82543023D01*
X178022445Y-82541799D01*
X178021732Y-82540826D01*
X178011102Y-82532263D01*
X177980017Y-82501878D01*
X177961319Y-82476629D01*
X177943879Y-82442972D01*
X177934033Y-82413135D01*
X177926754Y-82367845D01*
X177925500Y-82352135D01*
X177925500Y-82060339D01*
X177888876Y-81864416D01*
X177888876Y-81864414D01*
X177816873Y-81678554D01*
X177711945Y-81509090D01*
X177577664Y-81361791D01*
X177418604Y-81241674D01*
X177268561Y-81166961D01*
X177224899Y-81124098D01*
X177222636Y-81119465D01*
X177220883Y-81115627D01*
X177220882Y-81115624D01*
X177158140Y-81017995D01*
X177143810Y-81005578D01*
X177070436Y-80941998D01*
X176977883Y-80899731D01*
X176964870Y-80893788D01*
X176964868Y-80893787D01*
X176964867Y-80893787D01*
X176964864Y-80893786D01*
X176850003Y-80877272D01*
X176849997Y-80877272D01*
X176735135Y-80893786D01*
X176735132Y-80893787D01*
X176629563Y-80941998D01*
X176541860Y-81017994D01*
X176541859Y-81017994D01*
X176479119Y-81115621D01*
X176477360Y-81119473D01*
X176435984Y-81164547D01*
X176431438Y-81166961D01*
X176281399Y-81241672D01*
X176281387Y-81241680D01*
X176122338Y-81361789D01*
X176122336Y-81361790D01*
X176122336Y-81361791D01*
X175988055Y-81509090D01*
X175988053Y-81509092D01*
X175988052Y-81509094D01*
X175883130Y-81678548D01*
X175883127Y-81678553D01*
X175811123Y-81864416D01*
X175774500Y-82060339D01*
X175774500Y-82352098D01*
X175773245Y-82367809D01*
X175765960Y-82413133D01*
X175756115Y-82442970D01*
X175738676Y-82476624D01*
X175719977Y-82501873D01*
X175688864Y-82532285D01*
X175674108Y-82544172D01*
X175656495Y-82555769D01*
X175651585Y-82560016D01*
X175651205Y-82559577D01*
X175643905Y-82566030D01*
X175642615Y-82566940D01*
X175642614Y-82566941D01*
X175624256Y-82591494D01*
X175621734Y-82594866D01*
X175603921Y-82614903D01*
X175598145Y-82626415D01*
X175592884Y-82633453D01*
X175592883Y-82633456D01*
X175585613Y-82643180D01*
X175579119Y-82662270D01*
X175579120Y-82662271D01*
X175576931Y-82668707D01*
X175568444Y-82685628D01*
X175564247Y-82705997D01*
X175562258Y-82711846D01*
X175554963Y-82733294D01*
X175554962Y-82733300D01*
X175554830Y-82742946D01*
X175553819Y-82752236D01*
X175554098Y-82753671D01*
X175553607Y-82757657D01*
X175552482Y-82763123D01*
X89639427Y-82763123D01*
X89639427Y-81005352D01*
X89640048Y-80994285D01*
X89650702Y-80899725D01*
X89655631Y-80878134D01*
X89685209Y-80793607D01*
X89694827Y-80773637D01*
X89694831Y-80773632D01*
X89742465Y-80697823D01*
X89756287Y-80680492D01*
X89756750Y-80680029D01*
X89819604Y-80617175D01*
X89836931Y-80603358D01*
X89912753Y-80555718D01*
X89932721Y-80546103D01*
X90017243Y-80516529D01*
X90038848Y-80511598D01*
X90133649Y-80500920D01*
X90144729Y-80500298D01*
X90204806Y-80500300D01*
X90204809Y-80500298D01*
X90211688Y-80500299D01*
X90211717Y-80500298D01*
X178133354Y-80500298D01*
X178144440Y-80500921D01*
G37*
%TD.AperFunction*%
%TD*%
%TA.AperFunction,Conductor*%
%TO.N,/ADC0.5*%
G36*
X101317583Y-99216963D02*
G01*
X102512950Y-99716793D01*
X102519260Y-99723146D01*
X102520136Y-99727587D01*
X102520136Y-100112010D01*
X102516709Y-100120283D01*
X102512953Y-100122803D01*
X101317586Y-100623032D01*
X101308631Y-100623065D01*
X101303347Y-100618749D01*
X100969252Y-100119798D01*
X100839827Y-99926509D01*
X100838073Y-99917729D01*
X100839828Y-99913490D01*
X101303350Y-99221246D01*
X101310799Y-99216281D01*
X101317583Y-99216963D01*
G37*
%TD.AperFunction*%
%TD*%
%TA.AperFunction,Conductor*%
%TO.N,/ADC0.5*%
G36*
X125674510Y-99265835D02*
G01*
X126139664Y-99960516D01*
X126141419Y-99969297D01*
X126141415Y-99969322D01*
X125978335Y-100784262D01*
X125973351Y-100791702D01*
X125964566Y-100793439D01*
X125962386Y-100792776D01*
X124464926Y-100172788D01*
X124458593Y-100166457D01*
X124457702Y-100161978D01*
X124457702Y-99777555D01*
X124461129Y-99769282D01*
X124464845Y-99766778D01*
X125660235Y-99261567D01*
X125669188Y-99261504D01*
X125674510Y-99265835D01*
G37*
%TD.AperFunction*%
%TD*%
%TA.AperFunction,Conductor*%
%TO.N,/DIG1_EN*%
G36*
X125674510Y-89105835D02*
G01*
X126139664Y-89800516D01*
X126141419Y-89809297D01*
X126141415Y-89809322D01*
X125978335Y-90624262D01*
X125973351Y-90631702D01*
X125964566Y-90633439D01*
X125962386Y-90632776D01*
X124464926Y-90012788D01*
X124458593Y-90006457D01*
X124457702Y-90001978D01*
X124457702Y-89617555D01*
X124461129Y-89609282D01*
X124464845Y-89606778D01*
X125660235Y-89101567D01*
X125669188Y-89101504D01*
X125674510Y-89105835D01*
G37*
%TD.AperFunction*%
%TD*%
%TA.AperFunction,Conductor*%
%TO.N,/DIG1_EN*%
G36*
X101317583Y-89056963D02*
G01*
X102512950Y-89556793D01*
X102519260Y-89563146D01*
X102520136Y-89567587D01*
X102520136Y-89952010D01*
X102516709Y-89960283D01*
X102512953Y-89962803D01*
X101317586Y-90463032D01*
X101308631Y-90463065D01*
X101303347Y-90458749D01*
X100969252Y-89959798D01*
X100839827Y-89766509D01*
X100838073Y-89757729D01*
X100839828Y-89753490D01*
X101303350Y-89061246D01*
X101310799Y-89056281D01*
X101317583Y-89056963D01*
G37*
%TD.AperFunction*%
%TD*%
%TA.AperFunction,Conductor*%
%TO.N,/I2C_SDA*%
G36*
X101317655Y-109377141D02*
G01*
X102513101Y-109896740D01*
X102519321Y-109903179D01*
X102520136Y-109907469D01*
X102520136Y-110291908D01*
X102516709Y-110300181D01*
X102512823Y-110302755D01*
X101015385Y-110908373D01*
X101006430Y-110908298D01*
X101000151Y-110901913D01*
X100999525Y-110899822D01*
X100836422Y-110084764D01*
X100838158Y-110075983D01*
X101303273Y-109381360D01*
X101310723Y-109376395D01*
X101317655Y-109377141D01*
G37*
%TD.AperFunction*%
%TD*%
%TA.AperFunction,Conductor*%
%TO.N,/I2C_SDA*%
G36*
X125674586Y-109425950D02*
G01*
X126139664Y-110120516D01*
X126141419Y-110129297D01*
X126141415Y-110129322D01*
X125978303Y-110944422D01*
X125973319Y-110951862D01*
X125964534Y-110953599D01*
X125962477Y-110952986D01*
X125941112Y-110944422D01*
X124465049Y-110352743D01*
X124458645Y-110346484D01*
X124457702Y-110341883D01*
X124457702Y-109957438D01*
X124461129Y-109949165D01*
X124464694Y-109946727D01*
X125660162Y-109421746D01*
X125669112Y-109421559D01*
X125674586Y-109425950D01*
G37*
%TD.AperFunction*%
%TD*%
%TA.AperFunction,Conductor*%
%TO.N,/DIG2_EN*%
G36*
X125674510Y-96725835D02*
G01*
X126139664Y-97420516D01*
X126141419Y-97429297D01*
X126141415Y-97429322D01*
X125978335Y-98244262D01*
X125973351Y-98251702D01*
X125964566Y-98253439D01*
X125962386Y-98252776D01*
X124464926Y-97632788D01*
X124458593Y-97626457D01*
X124457702Y-97621978D01*
X124457702Y-97237555D01*
X124461129Y-97229282D01*
X124464845Y-97226778D01*
X125660235Y-96721567D01*
X125669188Y-96721504D01*
X125674510Y-96725835D01*
G37*
%TD.AperFunction*%
%TD*%
%TA.AperFunction,Conductor*%
%TO.N,/DIG2_EN*%
G36*
X101317583Y-96676963D02*
G01*
X102512950Y-97176793D01*
X102519260Y-97183146D01*
X102520136Y-97187587D01*
X102520136Y-97572010D01*
X102516709Y-97580283D01*
X102512953Y-97582803D01*
X101317586Y-98083032D01*
X101308631Y-98083065D01*
X101303347Y-98078749D01*
X100969252Y-97579798D01*
X100839827Y-97386509D01*
X100838073Y-97377729D01*
X100839828Y-97373490D01*
X101303350Y-96681246D01*
X101310799Y-96676281D01*
X101317583Y-96676963D01*
G37*
%TD.AperFunction*%
%TD*%
%TA.AperFunction,Conductor*%
%TO.N,/DIG3_EN*%
G36*
X125674510Y-104345835D02*
G01*
X126139664Y-105040516D01*
X126141419Y-105049297D01*
X126141415Y-105049322D01*
X125978335Y-105864262D01*
X125973351Y-105871702D01*
X125964566Y-105873439D01*
X125962386Y-105872776D01*
X124464926Y-105252788D01*
X124458593Y-105246457D01*
X124457702Y-105241978D01*
X124457702Y-104857555D01*
X124461129Y-104849282D01*
X124464845Y-104846778D01*
X125660235Y-104341567D01*
X125669188Y-104341504D01*
X125674510Y-104345835D01*
G37*
%TD.AperFunction*%
%TD*%
%TA.AperFunction,Conductor*%
%TO.N,/DIG3_EN*%
G36*
X101317583Y-104296963D02*
G01*
X102512950Y-104796793D01*
X102519260Y-104803146D01*
X102520136Y-104807587D01*
X102520136Y-105192010D01*
X102516709Y-105200283D01*
X102512953Y-105202803D01*
X101317586Y-105703032D01*
X101308631Y-105703065D01*
X101303347Y-105698749D01*
X100969252Y-105199798D01*
X100839827Y-105006509D01*
X100838073Y-104997729D01*
X100839828Y-104993490D01*
X101303350Y-104301246D01*
X101310799Y-104296281D01*
X101317583Y-104296963D01*
G37*
%TD.AperFunction*%
%TD*%
%TA.AperFunction,Conductor*%
%TO.N,/KP_ROW1*%
G36*
X101317583Y-94136963D02*
G01*
X102512950Y-94636793D01*
X102519260Y-94643146D01*
X102520136Y-94647587D01*
X102520136Y-95032010D01*
X102516709Y-95040283D01*
X102512953Y-95042803D01*
X101317586Y-95543032D01*
X101308631Y-95543065D01*
X101303347Y-95538749D01*
X100969252Y-95039798D01*
X100839827Y-94846509D01*
X100838073Y-94837729D01*
X100839828Y-94833490D01*
X101303350Y-94141246D01*
X101310799Y-94136281D01*
X101317583Y-94136963D01*
G37*
%TD.AperFunction*%
%TD*%
%TA.AperFunction,Conductor*%
%TO.N,/KP_ROW1*%
G36*
X125674510Y-94185835D02*
G01*
X126139664Y-94880516D01*
X126141419Y-94889297D01*
X126141415Y-94889322D01*
X125978335Y-95704262D01*
X125973351Y-95711702D01*
X125964566Y-95713439D01*
X125962386Y-95712776D01*
X124464926Y-95092788D01*
X124458593Y-95086457D01*
X124457702Y-95081978D01*
X124457702Y-94697555D01*
X124461129Y-94689282D01*
X124464845Y-94686778D01*
X125660235Y-94181567D01*
X125669188Y-94181504D01*
X125674510Y-94185835D01*
G37*
%TD.AperFunction*%
%TD*%
%TA.AperFunction,Conductor*%
%TO.N,+3V3*%
G36*
X101764979Y-85246430D02*
G01*
X102810038Y-86291489D01*
X102813465Y-86299762D01*
X102810510Y-86307535D01*
X101691994Y-87565866D01*
X101683936Y-87569773D01*
X101678782Y-87568907D01*
X100840252Y-87222561D01*
X100833915Y-87216236D01*
X100487561Y-86377684D01*
X100487570Y-86368731D01*
X100490598Y-86364478D01*
X101748936Y-85245956D01*
X101757393Y-85243023D01*
X101764979Y-85246430D01*
G37*
%TD.AperFunction*%
%TD*%
%TA.AperFunction,Conductor*%
%TO.N,+3V3*%
G36*
X125228824Y-85438026D02*
G01*
X126460113Y-86409230D01*
X126464486Y-86417044D01*
X126463797Y-86422589D01*
X126143809Y-87260722D01*
X126137657Y-87267229D01*
X126137636Y-87267238D01*
X125298784Y-87640511D01*
X125289832Y-87640744D01*
X125285682Y-87638022D01*
X124168126Y-86500518D01*
X124164772Y-86492215D01*
X124168198Y-86484046D01*
X125213306Y-85438938D01*
X125221578Y-85435512D01*
X125228824Y-85438026D01*
G37*
%TD.AperFunction*%
%TD*%
%TA.AperFunction,Conductor*%
%TO.N,/KP_ROW0*%
G36*
X125674510Y-91645835D02*
G01*
X126139664Y-92340516D01*
X126141419Y-92349297D01*
X126141415Y-92349322D01*
X125978335Y-93164262D01*
X125973351Y-93171702D01*
X125964566Y-93173439D01*
X125962386Y-93172776D01*
X124464926Y-92552788D01*
X124458593Y-92546457D01*
X124457702Y-92541978D01*
X124457702Y-92157555D01*
X124461129Y-92149282D01*
X124464845Y-92146778D01*
X125660235Y-91641567D01*
X125669188Y-91641504D01*
X125674510Y-91645835D01*
G37*
%TD.AperFunction*%
%TD*%
%TA.AperFunction,Conductor*%
%TO.N,/KP_ROW0*%
G36*
X101317583Y-91596963D02*
G01*
X102512950Y-92096793D01*
X102519260Y-92103146D01*
X102520136Y-92107587D01*
X102520136Y-92492010D01*
X102516709Y-92500283D01*
X102512953Y-92502803D01*
X101317586Y-93003032D01*
X101308631Y-93003065D01*
X101303347Y-92998749D01*
X100969252Y-92499798D01*
X100839827Y-92306509D01*
X100838073Y-92297729D01*
X100839828Y-92293490D01*
X101303350Y-91601246D01*
X101310799Y-91596281D01*
X101317583Y-91596963D01*
G37*
%TD.AperFunction*%
%TD*%
%TA.AperFunction,Conductor*%
%TO.N,/I2C_SCL*%
G36*
X125674548Y-106885893D02*
G01*
X126139664Y-107580516D01*
X126141419Y-107589297D01*
X126141415Y-107589322D01*
X125978319Y-108404342D01*
X125973335Y-108411782D01*
X125964550Y-108413519D01*
X125962431Y-108412881D01*
X124464987Y-107802766D01*
X124458619Y-107796471D01*
X124457702Y-107791931D01*
X124457702Y-107407496D01*
X124461129Y-107399223D01*
X124464769Y-107396752D01*
X125660196Y-106881657D01*
X125669150Y-106881531D01*
X125674548Y-106885893D01*
G37*
%TD.AperFunction*%
%TD*%
%TA.AperFunction,Conductor*%
%TO.N,/I2C_SCL*%
G36*
X101317620Y-106837052D02*
G01*
X102513026Y-107346766D01*
X102519291Y-107353162D01*
X102520136Y-107357527D01*
X102520136Y-107741956D01*
X102516709Y-107750229D01*
X102512884Y-107752778D01*
X101015430Y-108368268D01*
X101006475Y-108368243D01*
X101000160Y-108361894D01*
X100999509Y-108359742D01*
X100877538Y-107750229D01*
X100836422Y-107544764D01*
X100838158Y-107535983D01*
X101303311Y-106841303D01*
X101310761Y-106836338D01*
X101317620Y-106837052D01*
G37*
%TD.AperFunction*%
%TD*%
%TA.AperFunction,Conductor*%
%TO.N,/SPI_CLK*%
G36*
X125674510Y-101805835D02*
G01*
X126139664Y-102500516D01*
X126141419Y-102509297D01*
X126141415Y-102509322D01*
X125978335Y-103324262D01*
X125973351Y-103331702D01*
X125964566Y-103333439D01*
X125962386Y-103332776D01*
X124464926Y-102712788D01*
X124458593Y-102706457D01*
X124457702Y-102701978D01*
X124457702Y-102317555D01*
X124461129Y-102309282D01*
X124464845Y-102306778D01*
X125660235Y-101801567D01*
X125669188Y-101801504D01*
X125674510Y-101805835D01*
G37*
%TD.AperFunction*%
%TD*%
%TA.AperFunction,Conductor*%
%TO.N,/SPI_CLK*%
G36*
X101317583Y-101756963D02*
G01*
X102512950Y-102256793D01*
X102519260Y-102263146D01*
X102520136Y-102267587D01*
X102520136Y-102652010D01*
X102516709Y-102660283D01*
X102512953Y-102662803D01*
X101317586Y-103163032D01*
X101308631Y-103163065D01*
X101303347Y-103158749D01*
X100969252Y-102659798D01*
X100839827Y-102466509D01*
X100838073Y-102457729D01*
X100839828Y-102453490D01*
X101303350Y-101761246D01*
X101310799Y-101756281D01*
X101317583Y-101756963D01*
G37*
%TD.AperFunction*%
%TD*%
%TA.AperFunction,Conductor*%
%TO.N,/KP_COL3*%
G36*
X171221306Y-110122905D02*
G01*
X171228757Y-110127872D01*
X171228771Y-110127893D01*
X171690110Y-110820062D01*
X171691847Y-110828847D01*
X171686863Y-110836287D01*
X171685404Y-110837114D01*
X170250978Y-111520218D01*
X170242036Y-111520682D01*
X170237675Y-111517928D01*
X169965802Y-111246055D01*
X169962375Y-111237782D01*
X169962984Y-111234058D01*
X170388426Y-109968472D01*
X170394310Y-109961723D01*
X170401784Y-109960724D01*
X171221306Y-110122905D01*
G37*
%TD.AperFunction*%
%TD*%
%TA.AperFunction,Conductor*%
%TO.N,/KP_COL3*%
G36*
X154317656Y-109377143D02*
G01*
X154327363Y-109381364D01*
X155513101Y-109896941D01*
X155519322Y-109903383D01*
X155520136Y-109907671D01*
X155520136Y-110292110D01*
X155516709Y-110300383D01*
X155512821Y-110302957D01*
X154015383Y-110908375D01*
X154006429Y-110908299D01*
X154000151Y-110901913D01*
X153999527Y-110899832D01*
X153836422Y-110084764D01*
X153838158Y-110075983D01*
X154303272Y-109381363D01*
X154310722Y-109376397D01*
X154317656Y-109377143D01*
G37*
%TD.AperFunction*%
%TD*%
%TA.AperFunction,Conductor*%
%TO.N,/SPI_CS1*%
G36*
X154317621Y-106837054D02*
G01*
X155513027Y-107346967D01*
X155519292Y-107353365D01*
X155520136Y-107357729D01*
X155520136Y-107742158D01*
X155516709Y-107750431D01*
X155512883Y-107752980D01*
X154015429Y-108368270D01*
X154006474Y-108368245D01*
X154000160Y-108361895D01*
X153999511Y-108359752D01*
X153836422Y-107544764D01*
X153838158Y-107535983D01*
X154303310Y-106841306D01*
X154310760Y-106836340D01*
X154317621Y-106837054D01*
G37*
%TD.AperFunction*%
%TD*%
%TA.AperFunction,Conductor*%
%TO.N,/SPI_CS1*%
G36*
X171221306Y-107582905D02*
G01*
X171228757Y-107587872D01*
X171228771Y-107587893D01*
X171690079Y-108280015D01*
X171691816Y-108288800D01*
X171686832Y-108296240D01*
X171685330Y-108297088D01*
X170245960Y-108975264D01*
X170237015Y-108975690D01*
X170232700Y-108972953D01*
X169960829Y-108701082D01*
X169957402Y-108692809D01*
X169958027Y-108689036D01*
X170388396Y-107428411D01*
X170394312Y-107421690D01*
X170401738Y-107420715D01*
X171221306Y-107582905D01*
G37*
%TD.AperFunction*%
%TD*%
%TA.AperFunction,Conductor*%
%TO.N,/KP_COL1*%
G36*
X171221306Y-92342905D02*
G01*
X171228757Y-92347872D01*
X171228771Y-92347893D01*
X171690047Y-93039968D01*
X171691784Y-93048753D01*
X171686800Y-93056193D01*
X171685254Y-93057061D01*
X170240942Y-93730310D01*
X170231996Y-93730700D01*
X170227726Y-93727979D01*
X169955856Y-93456109D01*
X169952429Y-93447836D01*
X169953072Y-93444011D01*
X170388366Y-92188350D01*
X170394314Y-92181656D01*
X170401692Y-92180706D01*
X171221306Y-92342905D01*
G37*
%TD.AperFunction*%
%TD*%
%TA.AperFunction,Conductor*%
%TO.N,/KP_COL1*%
G36*
X154317582Y-91596964D02*
G01*
X155512951Y-92096994D01*
X155519261Y-92103348D01*
X155520136Y-92107788D01*
X155520136Y-92492211D01*
X155516709Y-92500484D01*
X155512951Y-92503005D01*
X154317584Y-93003034D01*
X154308629Y-93003065D01*
X154303349Y-92998751D01*
X153839827Y-92306509D01*
X153838073Y-92297729D01*
X153839828Y-92293490D01*
X153967146Y-92103348D01*
X154303349Y-91601247D01*
X154310798Y-91596282D01*
X154317582Y-91596964D01*
G37*
%TD.AperFunction*%
%TD*%
%TA.AperFunction,Conductor*%
%TO.N,/KP_COL0*%
G36*
X171221306Y-89802905D02*
G01*
X171228757Y-89807872D01*
X171228771Y-89807893D01*
X171690047Y-90499968D01*
X171691784Y-90508753D01*
X171686800Y-90516193D01*
X171685254Y-90517061D01*
X170240942Y-91190310D01*
X170231996Y-91190700D01*
X170227726Y-91187979D01*
X169955856Y-90916109D01*
X169952429Y-90907836D01*
X169953072Y-90904011D01*
X170388366Y-89648350D01*
X170394314Y-89641656D01*
X170401692Y-89640706D01*
X171221306Y-89802905D01*
G37*
%TD.AperFunction*%
%TD*%
%TA.AperFunction,Conductor*%
%TO.N,/KP_COL0*%
G36*
X154317582Y-89056964D02*
G01*
X155512951Y-89556994D01*
X155519261Y-89563348D01*
X155520136Y-89567788D01*
X155520136Y-89952211D01*
X155516709Y-89960484D01*
X155512951Y-89963005D01*
X154317584Y-90463034D01*
X154308629Y-90463065D01*
X154303349Y-90458751D01*
X153839827Y-89766509D01*
X153838073Y-89757729D01*
X153839828Y-89753490D01*
X153967146Y-89563348D01*
X154303349Y-89061247D01*
X154310798Y-89056282D01*
X154317582Y-89056964D01*
G37*
%TD.AperFunction*%
%TD*%
%TA.AperFunction,Conductor*%
%TO.N,/SPI_MOSI*%
G36*
X154317582Y-99216964D02*
G01*
X155512951Y-99716994D01*
X155519261Y-99723348D01*
X155520136Y-99727788D01*
X155520136Y-100112211D01*
X155516709Y-100120484D01*
X155512951Y-100123005D01*
X154317584Y-100623034D01*
X154308629Y-100623065D01*
X154303349Y-100618751D01*
X153839827Y-99926509D01*
X153838073Y-99917729D01*
X153839828Y-99913490D01*
X153967146Y-99723348D01*
X154303349Y-99221247D01*
X154310798Y-99216282D01*
X154317582Y-99216964D01*
G37*
%TD.AperFunction*%
%TD*%
%TA.AperFunction,Conductor*%
%TO.N,/SPI_MOSI*%
G36*
X171221306Y-99962905D02*
G01*
X171228757Y-99967872D01*
X171228771Y-99967893D01*
X171690047Y-100659968D01*
X171691784Y-100668753D01*
X171686800Y-100676193D01*
X171685254Y-100677061D01*
X170240942Y-101350310D01*
X170231996Y-101350700D01*
X170227726Y-101347979D01*
X169955856Y-101076109D01*
X169952429Y-101067836D01*
X169953072Y-101064011D01*
X170388366Y-99808350D01*
X170394314Y-99801656D01*
X170401692Y-99800706D01*
X171221306Y-99962905D01*
G37*
%TD.AperFunction*%
%TD*%
%TA.AperFunction,Conductor*%
%TO.N,/KP_COL2*%
G36*
X171221306Y-94882905D02*
G01*
X171228757Y-94887872D01*
X171228771Y-94887893D01*
X171690047Y-95579968D01*
X171691784Y-95588753D01*
X171686800Y-95596193D01*
X171685254Y-95597061D01*
X170240942Y-96270310D01*
X170231996Y-96270700D01*
X170227726Y-96267979D01*
X169955856Y-95996109D01*
X169952429Y-95987836D01*
X169953072Y-95984011D01*
X170388366Y-94728350D01*
X170394314Y-94721656D01*
X170401692Y-94720706D01*
X171221306Y-94882905D01*
G37*
%TD.AperFunction*%
%TD*%
%TA.AperFunction,Conductor*%
%TO.N,/KP_COL2*%
G36*
X154317582Y-94136964D02*
G01*
X155512951Y-94636994D01*
X155519261Y-94643348D01*
X155520136Y-94647788D01*
X155520136Y-95032211D01*
X155516709Y-95040484D01*
X155512951Y-95043005D01*
X154317584Y-95543034D01*
X154308629Y-95543065D01*
X154303349Y-95538751D01*
X153839827Y-94846509D01*
X153838073Y-94837729D01*
X153839828Y-94833490D01*
X153967146Y-94643348D01*
X154303349Y-94141247D01*
X154310798Y-94136282D01*
X154317582Y-94136964D01*
G37*
%TD.AperFunction*%
%TD*%
%TA.AperFunction,Conductor*%
%TO.N,/SPI_MISO*%
G36*
X154317582Y-101756964D02*
G01*
X155512951Y-102256994D01*
X155519261Y-102263348D01*
X155520136Y-102267788D01*
X155520136Y-102652211D01*
X155516709Y-102660484D01*
X155512951Y-102663005D01*
X154317584Y-103163034D01*
X154308629Y-103163065D01*
X154303349Y-103158751D01*
X153839827Y-102466509D01*
X153838073Y-102457729D01*
X153839828Y-102453490D01*
X153967146Y-102263348D01*
X154303349Y-101761247D01*
X154310798Y-101756282D01*
X154317582Y-101756964D01*
G37*
%TD.AperFunction*%
%TD*%
%TA.AperFunction,Conductor*%
%TO.N,/SPI_MISO*%
G36*
X171221306Y-102502905D02*
G01*
X171228757Y-102507872D01*
X171228771Y-102507893D01*
X171690047Y-103199968D01*
X171691784Y-103208753D01*
X171686800Y-103216193D01*
X171685254Y-103217061D01*
X170240942Y-103890310D01*
X170231996Y-103890700D01*
X170227726Y-103887979D01*
X169955856Y-103616109D01*
X169952429Y-103607836D01*
X169953072Y-103604011D01*
X170388366Y-102348350D01*
X170394314Y-102341656D01*
X170401692Y-102340706D01*
X171221306Y-102502905D01*
G37*
%TD.AperFunction*%
%TD*%
%TA.AperFunction,Conductor*%
%TO.N,/SPI_CS0*%
G36*
X171221306Y-105042905D02*
G01*
X171228757Y-105047872D01*
X171228771Y-105047893D01*
X171690047Y-105739968D01*
X171691784Y-105748753D01*
X171686800Y-105756193D01*
X171685254Y-105757061D01*
X170240942Y-106430310D01*
X170231996Y-106430700D01*
X170227726Y-106427979D01*
X169955856Y-106156109D01*
X169952429Y-106147836D01*
X169953072Y-106144011D01*
X170388366Y-104888350D01*
X170394314Y-104881656D01*
X170401692Y-104880706D01*
X171221306Y-105042905D01*
G37*
%TD.AperFunction*%
%TD*%
%TA.AperFunction,Conductor*%
%TO.N,/SPI_CS0*%
G36*
X154317582Y-104296964D02*
G01*
X155512951Y-104796994D01*
X155519261Y-104803348D01*
X155520136Y-104807788D01*
X155520136Y-105192211D01*
X155516709Y-105200484D01*
X155512951Y-105203005D01*
X154317584Y-105703034D01*
X154308629Y-105703065D01*
X154303349Y-105698751D01*
X153839827Y-105006509D01*
X153838073Y-104997729D01*
X153839828Y-104993490D01*
X153967146Y-104803348D01*
X154303349Y-104301247D01*
X154310798Y-104296282D01*
X154317582Y-104296964D01*
G37*
%TD.AperFunction*%
%TD*%
%TA.AperFunction,Conductor*%
%TO.N,/NRST*%
G36*
X171221306Y-97422905D02*
G01*
X171228757Y-97427872D01*
X171228771Y-97427893D01*
X171690047Y-98119968D01*
X171691784Y-98128753D01*
X171686800Y-98136193D01*
X171685254Y-98137061D01*
X170240942Y-98810310D01*
X170231996Y-98810700D01*
X170227726Y-98807979D01*
X169955856Y-98536109D01*
X169952429Y-98527836D01*
X169953072Y-98524011D01*
X170388366Y-97268350D01*
X170394314Y-97261656D01*
X170401692Y-97260706D01*
X171221306Y-97422905D01*
G37*
%TD.AperFunction*%
%TD*%
%TA.AperFunction,Conductor*%
%TO.N,/NRST*%
G36*
X154317582Y-96676964D02*
G01*
X155512951Y-97176994D01*
X155519261Y-97183348D01*
X155520136Y-97187788D01*
X155520136Y-97572211D01*
X155516709Y-97580484D01*
X155512951Y-97583005D01*
X154317584Y-98083034D01*
X154308629Y-98083065D01*
X154303349Y-98078751D01*
X153839827Y-97386509D01*
X153838073Y-97377729D01*
X153839828Y-97373490D01*
X153967146Y-97183348D01*
X154303349Y-96681247D01*
X154310798Y-96676282D01*
X154317582Y-96676964D01*
G37*
%TD.AperFunction*%
%TD*%
%TA.AperFunction,Conductor*%
%TO.N,/SW1-3{slash}PB1*%
G36*
X108567582Y-96676964D02*
G01*
X109762951Y-97176994D01*
X109769261Y-97183348D01*
X109770136Y-97187788D01*
X109770136Y-97572211D01*
X109766709Y-97580484D01*
X109762951Y-97583005D01*
X108567584Y-98083034D01*
X108558629Y-98083065D01*
X108553349Y-98078751D01*
X108089827Y-97386509D01*
X108088073Y-97377729D01*
X108089828Y-97373490D01*
X108217146Y-97183348D01*
X108553349Y-96681247D01*
X108560798Y-96676282D01*
X108567582Y-96676964D01*
G37*
%TD.AperFunction*%
%TD*%
%TA.AperFunction,Conductor*%
%TO.N,/SW1-3{slash}PB1*%
G36*
X127984444Y-96959106D02*
G01*
X127986335Y-96960129D01*
X128678031Y-97421153D01*
X128683015Y-97428593D01*
X128683019Y-97428618D01*
X128845294Y-98248612D01*
X128843539Y-98257393D01*
X128838069Y-98261783D01*
X127621873Y-98736227D01*
X127612920Y-98736041D01*
X127609348Y-98733600D01*
X127337505Y-98461757D01*
X127334078Y-98453484D01*
X127335018Y-98448888D01*
X127969087Y-96965266D01*
X127975490Y-96959006D01*
X127984444Y-96959106D01*
G37*
%TD.AperFunction*%
%TD*%
%TA.AperFunction,Conductor*%
%TO.N,/LED_EN*%
G36*
X127984444Y-99499106D02*
G01*
X127986335Y-99500129D01*
X128678031Y-99961153D01*
X128683015Y-99968593D01*
X128683019Y-99968618D01*
X128845294Y-100788612D01*
X128843539Y-100797393D01*
X128838069Y-100801783D01*
X127621873Y-101276227D01*
X127612920Y-101276041D01*
X127609348Y-101273600D01*
X127337505Y-101001757D01*
X127334078Y-100993484D01*
X127335018Y-100988888D01*
X127969087Y-99505266D01*
X127975490Y-99499006D01*
X127984444Y-99499106D01*
G37*
%TD.AperFunction*%
%TD*%
%TA.AperFunction,Conductor*%
%TO.N,/LED_EN*%
G36*
X108567582Y-99216964D02*
G01*
X109762951Y-99716994D01*
X109769261Y-99723348D01*
X109770136Y-99727788D01*
X109770136Y-100112211D01*
X109766709Y-100120484D01*
X109762951Y-100123005D01*
X108567584Y-100623034D01*
X108558629Y-100623065D01*
X108553349Y-100618751D01*
X108089827Y-99926509D01*
X108088073Y-99917729D01*
X108089828Y-99913490D01*
X108217146Y-99723348D01*
X108553349Y-99221247D01*
X108560798Y-99216282D01*
X108567582Y-99216964D01*
G37*
%TD.AperFunction*%
%TD*%
%TA.AperFunction,Conductor*%
%TO.N,/LED7*%
G36*
X127984444Y-104579106D02*
G01*
X127986335Y-104580129D01*
X128678031Y-105041153D01*
X128683015Y-105048593D01*
X128683019Y-105048618D01*
X128845294Y-105868612D01*
X128843539Y-105877393D01*
X128838069Y-105881783D01*
X127621873Y-106356227D01*
X127612920Y-106356041D01*
X127609348Y-106353600D01*
X127337505Y-106081757D01*
X127334078Y-106073484D01*
X127335018Y-106068888D01*
X127969087Y-104585266D01*
X127975490Y-104579006D01*
X127984444Y-104579106D01*
G37*
%TD.AperFunction*%
%TD*%
%TA.AperFunction,Conductor*%
%TO.N,/LED7*%
G36*
X108567582Y-104296964D02*
G01*
X109762951Y-104796994D01*
X109769261Y-104803348D01*
X109770136Y-104807788D01*
X109770136Y-105192211D01*
X109766709Y-105200484D01*
X109762951Y-105203005D01*
X108567584Y-105703034D01*
X108558629Y-105703065D01*
X108553349Y-105698751D01*
X108089827Y-105006509D01*
X108088073Y-104997729D01*
X108089828Y-104993490D01*
X108217146Y-104803348D01*
X108553349Y-104301247D01*
X108560798Y-104296282D01*
X108567582Y-104296964D01*
G37*
%TD.AperFunction*%
%TD*%
%TA.AperFunction,Conductor*%
%TO.N,+5V*%
G36*
X108942803Y-86371490D02*
G01*
X109777450Y-86567877D01*
X109784717Y-86573108D01*
X109786469Y-86579266D01*
X109786469Y-87860733D01*
X109783042Y-87869006D01*
X109777449Y-87872122D01*
X108942808Y-88068508D01*
X108933970Y-88067067D01*
X108931862Y-88065399D01*
X108093755Y-87228276D01*
X108090324Y-87220007D01*
X108093745Y-87211733D01*
X108931862Y-86374600D01*
X108940135Y-86371180D01*
X108942803Y-86371490D01*
G37*
%TD.AperFunction*%
%TD*%
%TA.AperFunction,Conductor*%
%TO.N,/DIG0_EN*%
G36*
X108567582Y-101756964D02*
G01*
X109762951Y-102256994D01*
X109769261Y-102263348D01*
X109770136Y-102267788D01*
X109770136Y-102652211D01*
X109766709Y-102660484D01*
X109762951Y-102663005D01*
X108567584Y-103163034D01*
X108558629Y-103163065D01*
X108553349Y-103158751D01*
X108089827Y-102466509D01*
X108088073Y-102457729D01*
X108089828Y-102453490D01*
X108217146Y-102263348D01*
X108553349Y-101761247D01*
X108560798Y-101756282D01*
X108567582Y-101756964D01*
G37*
%TD.AperFunction*%
%TD*%
%TA.AperFunction,Conductor*%
%TO.N,/DIG0_EN*%
G36*
X127984444Y-102039106D02*
G01*
X127986335Y-102040129D01*
X128678031Y-102501153D01*
X128683015Y-102508593D01*
X128683019Y-102508618D01*
X128845294Y-103328612D01*
X128843539Y-103337393D01*
X128838069Y-103341783D01*
X127621873Y-103816227D01*
X127612920Y-103816041D01*
X127609348Y-103813600D01*
X127337505Y-103541757D01*
X127334078Y-103533484D01*
X127335018Y-103528888D01*
X127969087Y-102045266D01*
X127975490Y-102039006D01*
X127984444Y-102039106D01*
G37*
%TD.AperFunction*%
%TD*%
%TA.AperFunction,Conductor*%
%TO.N,/SW1-4{slash}PB2*%
G36*
X127984453Y-109659133D02*
G01*
X127986426Y-109660189D01*
X128625774Y-110086323D01*
X128678031Y-110121153D01*
X128683015Y-110128593D01*
X128683019Y-110128618D01*
X128845312Y-110948707D01*
X128843557Y-110957488D01*
X128838194Y-110961836D01*
X127631921Y-111446126D01*
X127622967Y-111446028D01*
X127619289Y-111443541D01*
X127347457Y-111171709D01*
X127344030Y-111163436D01*
X127344935Y-111158924D01*
X127432795Y-110948707D01*
X127969147Y-109665414D01*
X127975498Y-109659104D01*
X127984453Y-109659133D01*
G37*
%TD.AperFunction*%
%TD*%
%TA.AperFunction,Conductor*%
%TO.N,/SW1-4{slash}PB2*%
G36*
X108567656Y-109377143D02*
G01*
X108577363Y-109381364D01*
X109763101Y-109896941D01*
X109769322Y-109903383D01*
X109770136Y-109907671D01*
X109770136Y-110292110D01*
X109766709Y-110300383D01*
X109762821Y-110302957D01*
X108265383Y-110908375D01*
X108256429Y-110908299D01*
X108250151Y-110901913D01*
X108249527Y-110899832D01*
X108086422Y-110084764D01*
X108088158Y-110075983D01*
X108553272Y-109381363D01*
X108560722Y-109376397D01*
X108567656Y-109377143D01*
G37*
%TD.AperFunction*%
%TD*%
%TA.AperFunction,Conductor*%
%TO.N,/SW1-2{slash}ADC0.7*%
G36*
X108567582Y-94136964D02*
G01*
X109762951Y-94636994D01*
X109769261Y-94643348D01*
X109770136Y-94647788D01*
X109770136Y-95032211D01*
X109766709Y-95040484D01*
X109762951Y-95043005D01*
X108567584Y-95543034D01*
X108558629Y-95543065D01*
X108553349Y-95538751D01*
X108089827Y-94846509D01*
X108088073Y-94837729D01*
X108089828Y-94833490D01*
X108217146Y-94643348D01*
X108553349Y-94141247D01*
X108560798Y-94136282D01*
X108567582Y-94136964D01*
G37*
%TD.AperFunction*%
%TD*%
%TA.AperFunction,Conductor*%
%TO.N,/SW1-2{slash}ADC0.7*%
G36*
X127984444Y-94419106D02*
G01*
X127986335Y-94420129D01*
X128678031Y-94881153D01*
X128683015Y-94888593D01*
X128683019Y-94888618D01*
X128845294Y-95708612D01*
X128843539Y-95717393D01*
X128838069Y-95721783D01*
X127621873Y-96196227D01*
X127612920Y-96196041D01*
X127609348Y-96193600D01*
X127337505Y-95921757D01*
X127334078Y-95913484D01*
X127335018Y-95908888D01*
X127969087Y-94425266D01*
X127975490Y-94419006D01*
X127984444Y-94419106D01*
G37*
%TD.AperFunction*%
%TD*%
%TA.AperFunction,Conductor*%
%TO.N,/SW1-1*%
G36*
X127984444Y-91879106D02*
G01*
X127986335Y-91880129D01*
X128678031Y-92341153D01*
X128683015Y-92348593D01*
X128683019Y-92348618D01*
X128845294Y-93168612D01*
X128843539Y-93177393D01*
X128838069Y-93181783D01*
X127621873Y-93656227D01*
X127612920Y-93656041D01*
X127609348Y-93653600D01*
X127337505Y-93381757D01*
X127334078Y-93373484D01*
X127335018Y-93368888D01*
X127969087Y-91885266D01*
X127975490Y-91879006D01*
X127984444Y-91879106D01*
G37*
%TD.AperFunction*%
%TD*%
%TA.AperFunction,Conductor*%
%TO.N,/SW1-1*%
G36*
X108567582Y-91596964D02*
G01*
X109762951Y-92096994D01*
X109769261Y-92103348D01*
X109770136Y-92107788D01*
X109770136Y-92492211D01*
X109766709Y-92500484D01*
X109762951Y-92503005D01*
X108567584Y-93003034D01*
X108558629Y-93003065D01*
X108553349Y-92998751D01*
X108089827Y-92306509D01*
X108088073Y-92297729D01*
X108089828Y-92293490D01*
X108217146Y-92103348D01*
X108553349Y-91601247D01*
X108560798Y-91596282D01*
X108567582Y-91596964D01*
G37*
%TD.AperFunction*%
%TD*%
%TA.AperFunction,Conductor*%
%TO.N,/LED6*%
G36*
X127984448Y-107119119D02*
G01*
X127986377Y-107120157D01*
X127994155Y-107125341D01*
X128678031Y-107581153D01*
X128683015Y-107588593D01*
X128683019Y-107588618D01*
X128845303Y-108408660D01*
X128843548Y-108417441D01*
X128838132Y-108421810D01*
X127626898Y-108901177D01*
X127617944Y-108901035D01*
X127614319Y-108898571D01*
X127342481Y-108626733D01*
X127339054Y-108618460D01*
X127339977Y-108613905D01*
X127423012Y-108417441D01*
X127969117Y-107125339D01*
X127975493Y-107119055D01*
X127984448Y-107119119D01*
G37*
%TD.AperFunction*%
%TD*%
%TA.AperFunction,Conductor*%
%TO.N,/LED6*%
G36*
X108567621Y-106837054D02*
G01*
X109763027Y-107346967D01*
X109769292Y-107353365D01*
X109770136Y-107357729D01*
X109770136Y-107742158D01*
X109766709Y-107750431D01*
X109762883Y-107752980D01*
X108265429Y-108368270D01*
X108256474Y-108368245D01*
X108250160Y-108361895D01*
X108249511Y-108359752D01*
X108086422Y-107544764D01*
X108088158Y-107535983D01*
X108553310Y-106841306D01*
X108560760Y-106836340D01*
X108567621Y-106837054D01*
G37*
%TD.AperFunction*%
%TD*%
%TA.AperFunction,Conductor*%
%TO.N,/LED5*%
G36*
X147067656Y-109377143D02*
G01*
X147077363Y-109381364D01*
X148263101Y-109896941D01*
X148269322Y-109903383D01*
X148270136Y-109907671D01*
X148270136Y-110292110D01*
X148266709Y-110300383D01*
X148262821Y-110302957D01*
X146765383Y-110908375D01*
X146756429Y-110908299D01*
X146750151Y-110901913D01*
X146749527Y-110899832D01*
X146586422Y-110084764D01*
X146588158Y-110075983D01*
X147053272Y-109381363D01*
X147060722Y-109376397D01*
X147067656Y-109377143D01*
G37*
%TD.AperFunction*%
%TD*%
%TA.AperFunction,Conductor*%
%TO.N,/LED5*%
G36*
X168218586Y-109425950D02*
G01*
X168683664Y-110120516D01*
X168685419Y-110129297D01*
X168685415Y-110129322D01*
X168522303Y-110944422D01*
X168517319Y-110951862D01*
X168508534Y-110953599D01*
X168506477Y-110952986D01*
X168485112Y-110944422D01*
X167009049Y-110352743D01*
X167002645Y-110346484D01*
X167001702Y-110341883D01*
X167001702Y-109957438D01*
X167005129Y-109949165D01*
X167008694Y-109946727D01*
X168204162Y-109421746D01*
X168213112Y-109421559D01*
X168218586Y-109425950D01*
G37*
%TD.AperFunction*%
%TD*%
%TA.AperFunction,Conductor*%
%TO.N,/KP_ROW3*%
G36*
X147067582Y-89056964D02*
G01*
X148262951Y-89556994D01*
X148269261Y-89563348D01*
X148270136Y-89567788D01*
X148270136Y-89952211D01*
X148266709Y-89960484D01*
X148262951Y-89963005D01*
X147067584Y-90463034D01*
X147058629Y-90463065D01*
X147053349Y-90458751D01*
X146589827Y-89766509D01*
X146588073Y-89757729D01*
X146589828Y-89753490D01*
X146717146Y-89563348D01*
X147053349Y-89061247D01*
X147060798Y-89056282D01*
X147067582Y-89056964D01*
G37*
%TD.AperFunction*%
%TD*%
%TA.AperFunction,Conductor*%
%TO.N,/KP_ROW3*%
G36*
X168218510Y-89105835D02*
G01*
X168683664Y-89800516D01*
X168685419Y-89809297D01*
X168685415Y-89809322D01*
X168522335Y-90624262D01*
X168517351Y-90631702D01*
X168508566Y-90633439D01*
X168506386Y-90632776D01*
X167008926Y-90012788D01*
X167002593Y-90006457D01*
X167001702Y-90001978D01*
X167001702Y-89617555D01*
X167005129Y-89609282D01*
X167008845Y-89606778D01*
X168204235Y-89101567D01*
X168213188Y-89101504D01*
X168218510Y-89105835D01*
G37*
%TD.AperFunction*%
%TD*%
%TA.AperFunction,Conductor*%
%TO.N,/LED0{slash}PWM*%
G36*
X147067582Y-91596964D02*
G01*
X148262951Y-92096994D01*
X148269261Y-92103348D01*
X148270136Y-92107788D01*
X148270136Y-92492211D01*
X148266709Y-92500484D01*
X148262951Y-92503005D01*
X147067584Y-93003034D01*
X147058629Y-93003065D01*
X147053349Y-92998751D01*
X146589827Y-92306509D01*
X146588073Y-92297729D01*
X146589828Y-92293490D01*
X146717146Y-92103348D01*
X147053349Y-91601247D01*
X147060798Y-91596282D01*
X147067582Y-91596964D01*
G37*
%TD.AperFunction*%
%TD*%
%TA.AperFunction,Conductor*%
%TO.N,/LED0{slash}PWM*%
G36*
X168218510Y-91645835D02*
G01*
X168683664Y-92340516D01*
X168685419Y-92349297D01*
X168685415Y-92349322D01*
X168522335Y-93164262D01*
X168517351Y-93171702D01*
X168508566Y-93173439D01*
X168506386Y-93172776D01*
X167008926Y-92552788D01*
X167002593Y-92546457D01*
X167001702Y-92541978D01*
X167001702Y-92157555D01*
X167005129Y-92149282D01*
X167008845Y-92146778D01*
X168204235Y-91641567D01*
X168213188Y-91641504D01*
X168218510Y-91645835D01*
G37*
%TD.AperFunction*%
%TD*%
%TA.AperFunction,Conductor*%
%TO.N,/KP_ROW2*%
G36*
X167842626Y-86424400D02*
G01*
X168678055Y-87256278D01*
X168681499Y-87264544D01*
X168678090Y-87272825D01*
X168678067Y-87272847D01*
X167842583Y-88107349D01*
X167834308Y-88110771D01*
X167827244Y-88108393D01*
X166989998Y-87473309D01*
X166985478Y-87465579D01*
X166985369Y-87463987D01*
X166985369Y-87075565D01*
X166988796Y-87067292D01*
X166989944Y-87066285D01*
X167827246Y-86423410D01*
X167835894Y-86421091D01*
X167842626Y-86424400D01*
G37*
%TD.AperFunction*%
%TD*%
%TA.AperFunction,Conductor*%
%TO.N,/KP_ROW2*%
G36*
X147444600Y-86376218D02*
G01*
X148281876Y-87016488D01*
X148286366Y-87024235D01*
X148286469Y-87025781D01*
X148286469Y-87414218D01*
X148283042Y-87422491D01*
X148281876Y-87423512D01*
X147444600Y-88063781D01*
X147435947Y-88066084D01*
X147429225Y-88062765D01*
X146779915Y-87414218D01*
X146593755Y-87228276D01*
X146590324Y-87220007D01*
X146593745Y-87211733D01*
X147429227Y-86377232D01*
X147437500Y-86373812D01*
X147444600Y-86376218D01*
G37*
%TD.AperFunction*%
%TD*%
%TA.AperFunction,Conductor*%
%TO.N,/LED2{slash}DIR_B*%
G36*
X168218510Y-96725835D02*
G01*
X168683664Y-97420516D01*
X168685419Y-97429297D01*
X168685415Y-97429322D01*
X168522335Y-98244262D01*
X168517351Y-98251702D01*
X168508566Y-98253439D01*
X168506386Y-98252776D01*
X167008926Y-97632788D01*
X167002593Y-97626457D01*
X167001702Y-97621978D01*
X167001702Y-97237555D01*
X167005129Y-97229282D01*
X167008845Y-97226778D01*
X168204235Y-96721567D01*
X168213188Y-96721504D01*
X168218510Y-96725835D01*
G37*
%TD.AperFunction*%
%TD*%
%TA.AperFunction,Conductor*%
%TO.N,/LED2{slash}DIR_B*%
G36*
X147067582Y-96676964D02*
G01*
X148262951Y-97176994D01*
X148269261Y-97183348D01*
X148270136Y-97187788D01*
X148270136Y-97572211D01*
X148266709Y-97580484D01*
X148262951Y-97583005D01*
X147067584Y-98083034D01*
X147058629Y-98083065D01*
X147053349Y-98078751D01*
X146589827Y-97386509D01*
X146588073Y-97377729D01*
X146589828Y-97373490D01*
X146717146Y-97183348D01*
X147053349Y-96681247D01*
X147060798Y-96676282D01*
X147067582Y-96676964D01*
G37*
%TD.AperFunction*%
%TD*%
%TA.AperFunction,Conductor*%
%TO.N,/LED4*%
G36*
X168218548Y-106885893D02*
G01*
X168683664Y-107580516D01*
X168685419Y-107589297D01*
X168685415Y-107589322D01*
X168522319Y-108404342D01*
X168517335Y-108411782D01*
X168508550Y-108413519D01*
X168506431Y-108412881D01*
X167008987Y-107802766D01*
X167002619Y-107796471D01*
X167001702Y-107791931D01*
X167001702Y-107407496D01*
X167005129Y-107399223D01*
X167008769Y-107396752D01*
X168204196Y-106881657D01*
X168213150Y-106881531D01*
X168218548Y-106885893D01*
G37*
%TD.AperFunction*%
%TD*%
%TA.AperFunction,Conductor*%
%TO.N,/LED4*%
G36*
X147067621Y-106837054D02*
G01*
X148263027Y-107346967D01*
X148269292Y-107353365D01*
X148270136Y-107357729D01*
X148270136Y-107742158D01*
X148266709Y-107750431D01*
X148262883Y-107752980D01*
X146765429Y-108368270D01*
X146756474Y-108368245D01*
X146750160Y-108361895D01*
X146749511Y-108359752D01*
X146586422Y-107544764D01*
X146588158Y-107535983D01*
X147053310Y-106841306D01*
X147060760Y-106836340D01*
X147067621Y-106837054D01*
G37*
%TD.AperFunction*%
%TD*%
%TA.AperFunction,Conductor*%
%TO.N,/LINTX*%
G36*
X147067582Y-101756964D02*
G01*
X148262951Y-102256994D01*
X148269261Y-102263348D01*
X148270136Y-102267788D01*
X148270136Y-102652211D01*
X148266709Y-102660484D01*
X148262951Y-102663005D01*
X147067584Y-103163034D01*
X147058629Y-103163065D01*
X147053349Y-103158751D01*
X146589827Y-102466509D01*
X146588073Y-102457729D01*
X146589828Y-102453490D01*
X146717146Y-102263348D01*
X147053349Y-101761247D01*
X147060798Y-101756282D01*
X147067582Y-101756964D01*
G37*
%TD.AperFunction*%
%TD*%
%TA.AperFunction,Conductor*%
%TO.N,/LINTX*%
G36*
X168218510Y-101805835D02*
G01*
X168683664Y-102500516D01*
X168685419Y-102509297D01*
X168685415Y-102509322D01*
X168522335Y-103324262D01*
X168517351Y-103331702D01*
X168508566Y-103333439D01*
X168506386Y-103332776D01*
X167008926Y-102712788D01*
X167002593Y-102706457D01*
X167001702Y-102701978D01*
X167001702Y-102317555D01*
X167005129Y-102309282D01*
X167008845Y-102306778D01*
X168204235Y-101801567D01*
X168213188Y-101801504D01*
X168218510Y-101805835D01*
G37*
%TD.AperFunction*%
%TD*%
%TA.AperFunction,Conductor*%
%TO.N,/LED1{slash}DIR_A*%
G36*
X168218510Y-94185835D02*
G01*
X168683664Y-94880516D01*
X168685419Y-94889297D01*
X168685415Y-94889322D01*
X168522335Y-95704262D01*
X168517351Y-95711702D01*
X168508566Y-95713439D01*
X168506386Y-95712776D01*
X167008926Y-95092788D01*
X167002593Y-95086457D01*
X167001702Y-95081978D01*
X167001702Y-94697555D01*
X167005129Y-94689282D01*
X167008845Y-94686778D01*
X168204235Y-94181567D01*
X168213188Y-94181504D01*
X168218510Y-94185835D01*
G37*
%TD.AperFunction*%
%TD*%
%TA.AperFunction,Conductor*%
%TO.N,/LED1{slash}DIR_A*%
G36*
X147067582Y-94136964D02*
G01*
X148262951Y-94636994D01*
X148269261Y-94643348D01*
X148270136Y-94647788D01*
X148270136Y-95032211D01*
X148266709Y-95040484D01*
X148262951Y-95043005D01*
X147067584Y-95543034D01*
X147058629Y-95543065D01*
X147053349Y-95538751D01*
X146589827Y-94846509D01*
X146588073Y-94837729D01*
X146589828Y-94833490D01*
X146717146Y-94643348D01*
X147053349Y-94141247D01*
X147060798Y-94136282D01*
X147067582Y-94136964D01*
G37*
%TD.AperFunction*%
%TD*%
%TA.AperFunction,Conductor*%
%TO.N,/LED3*%
G36*
X168218510Y-99265835D02*
G01*
X168683664Y-99960516D01*
X168685419Y-99969297D01*
X168685415Y-99969322D01*
X168522335Y-100784262D01*
X168517351Y-100791702D01*
X168508566Y-100793439D01*
X168506386Y-100792776D01*
X167008926Y-100172788D01*
X167002593Y-100166457D01*
X167001702Y-100161978D01*
X167001702Y-99777555D01*
X167005129Y-99769282D01*
X167008845Y-99766778D01*
X168204235Y-99261567D01*
X168213188Y-99261504D01*
X168218510Y-99265835D01*
G37*
%TD.AperFunction*%
%TD*%
%TA.AperFunction,Conductor*%
%TO.N,/LED3*%
G36*
X147067582Y-99216964D02*
G01*
X148262951Y-99716994D01*
X148269261Y-99723348D01*
X148270136Y-99727788D01*
X148270136Y-100112211D01*
X148266709Y-100120484D01*
X148262951Y-100123005D01*
X147067584Y-100623034D01*
X147058629Y-100623065D01*
X147053349Y-100618751D01*
X146589827Y-99926509D01*
X146588073Y-99917729D01*
X146589828Y-99913490D01*
X146717146Y-99723348D01*
X147053349Y-99221247D01*
X147060798Y-99216282D01*
X147067582Y-99216964D01*
G37*
%TD.AperFunction*%
%TD*%
%TA.AperFunction,Conductor*%
%TO.N,/LINRX*%
G36*
X147067582Y-104296964D02*
G01*
X148262951Y-104796994D01*
X148269261Y-104803348D01*
X148270136Y-104807788D01*
X148270136Y-105192211D01*
X148266709Y-105200484D01*
X148262951Y-105203005D01*
X147067584Y-105703034D01*
X147058629Y-105703065D01*
X147053349Y-105698751D01*
X146589827Y-105006509D01*
X146588073Y-104997729D01*
X146589828Y-104993490D01*
X146717146Y-104803348D01*
X147053349Y-104301247D01*
X147060798Y-104296282D01*
X147067582Y-104296964D01*
G37*
%TD.AperFunction*%
%TD*%
%TA.AperFunction,Conductor*%
%TO.N,/LINRX*%
G36*
X168218510Y-104345835D02*
G01*
X168683664Y-105040516D01*
X168685419Y-105049297D01*
X168685415Y-105049322D01*
X168522335Y-105864262D01*
X168517351Y-105871702D01*
X168508566Y-105873439D01*
X168506386Y-105872776D01*
X167008926Y-105252788D01*
X167002593Y-105246457D01*
X167001702Y-105241978D01*
X167001702Y-104857555D01*
X167005129Y-104849282D01*
X167008845Y-104846778D01*
X168204235Y-104341567D01*
X168213188Y-104341504D01*
X168218510Y-104345835D01*
G37*
%TD.AperFunction*%
%TD*%
M02*
