%TF.GenerationSoftware,KiCad,Pcbnew,9.0.0*%
%TF.CreationDate,2025-09-30T11:45:59-04:00*%
%TF.ProjectId,CSC202_LP_MSPM0G3507_3TERM_BREAKOUT,43534332-3032-45f4-9c50-5f4d53504d30,rev?*%
%TF.SameCoordinates,Original*%
%TF.FileFunction,Legend,Bot*%
%TF.FilePolarity,Positive*%
%FSLAX46Y46*%
G04 Gerber Fmt 4.6, Leading zero omitted, Abs format (unit mm)*
G04 Created by KiCad (PCBNEW 9.0.0) date 2025-09-30 11:45:59*
%MOMM*%
%LPD*%
G01*
G04 APERTURE LIST*
%ADD10C,0.100000*%
%ADD11C,0.150000*%
%ADD12C,0.000000*%
%ADD13C,0.120000*%
G04 APERTURE END LIST*
D10*
X130844859Y-101610000D02*
X139595142Y-101610000D01*
X139595142Y-111450283D01*
X130844859Y-111450283D01*
X130844859Y-101610000D01*
X143551694Y-105326197D02*
X144027884Y-105326197D01*
X144027884Y-105326197D02*
X144027884Y-104326197D01*
X143218360Y-105326197D02*
X143218360Y-104326197D01*
X142742170Y-105326197D02*
X142742170Y-104326197D01*
X142742170Y-104326197D02*
X142170742Y-105326197D01*
X142170742Y-105326197D02*
X142170742Y-104326197D01*
X141123123Y-105326197D02*
X141456456Y-104850006D01*
X141694551Y-105326197D02*
X141694551Y-104326197D01*
X141694551Y-104326197D02*
X141313599Y-104326197D01*
X141313599Y-104326197D02*
X141218361Y-104373816D01*
X141218361Y-104373816D02*
X141170742Y-104421435D01*
X141170742Y-104421435D02*
X141123123Y-104516673D01*
X141123123Y-104516673D02*
X141123123Y-104659530D01*
X141123123Y-104659530D02*
X141170742Y-104754768D01*
X141170742Y-104754768D02*
X141218361Y-104802387D01*
X141218361Y-104802387D02*
X141313599Y-104850006D01*
X141313599Y-104850006D02*
X141694551Y-104850006D01*
X140789789Y-104326197D02*
X140123123Y-105326197D01*
X140123123Y-104326197D02*
X140789789Y-105326197D01*
X158443472Y-86633327D02*
X158538710Y-86585708D01*
X158538710Y-86585708D02*
X158681567Y-86585708D01*
X158681567Y-86585708D02*
X158824424Y-86633327D01*
X158824424Y-86633327D02*
X158919662Y-86728565D01*
X158919662Y-86728565D02*
X158967281Y-86823803D01*
X158967281Y-86823803D02*
X159014900Y-87014279D01*
X159014900Y-87014279D02*
X159014900Y-87157136D01*
X159014900Y-87157136D02*
X158967281Y-87347612D01*
X158967281Y-87347612D02*
X158919662Y-87442850D01*
X158919662Y-87442850D02*
X158824424Y-87538089D01*
X158824424Y-87538089D02*
X158681567Y-87585708D01*
X158681567Y-87585708D02*
X158586329Y-87585708D01*
X158586329Y-87585708D02*
X158443472Y-87538089D01*
X158443472Y-87538089D02*
X158395853Y-87490469D01*
X158395853Y-87490469D02*
X158395853Y-87157136D01*
X158395853Y-87157136D02*
X158586329Y-87157136D01*
X157967281Y-87585708D02*
X157967281Y-86585708D01*
X157967281Y-86585708D02*
X157395853Y-87585708D01*
X157395853Y-87585708D02*
X157395853Y-86585708D01*
X156919662Y-87585708D02*
X156919662Y-86585708D01*
X156919662Y-86585708D02*
X156681567Y-86585708D01*
X156681567Y-86585708D02*
X156538710Y-86633327D01*
X156538710Y-86633327D02*
X156443472Y-86728565D01*
X156443472Y-86728565D02*
X156395853Y-86823803D01*
X156395853Y-86823803D02*
X156348234Y-87014279D01*
X156348234Y-87014279D02*
X156348234Y-87157136D01*
X156348234Y-87157136D02*
X156395853Y-87347612D01*
X156395853Y-87347612D02*
X156443472Y-87442850D01*
X156443472Y-87442850D02*
X156538710Y-87538089D01*
X156538710Y-87538089D02*
X156681567Y-87585708D01*
X156681567Y-87585708D02*
X156919662Y-87585708D01*
X144027884Y-87585708D02*
X144027884Y-86585708D01*
X143456456Y-87585708D02*
X143885027Y-87014279D01*
X143456456Y-86585708D02*
X144027884Y-87157136D01*
X143027884Y-87585708D02*
X143027884Y-86585708D01*
X143027884Y-86585708D02*
X142646932Y-86585708D01*
X142646932Y-86585708D02*
X142551694Y-86633327D01*
X142551694Y-86633327D02*
X142504075Y-86680946D01*
X142504075Y-86680946D02*
X142456456Y-86776184D01*
X142456456Y-86776184D02*
X142456456Y-86919041D01*
X142456456Y-86919041D02*
X142504075Y-87014279D01*
X142504075Y-87014279D02*
X142551694Y-87061898D01*
X142551694Y-87061898D02*
X142646932Y-87109517D01*
X142646932Y-87109517D02*
X143027884Y-87109517D01*
X142265980Y-87680946D02*
X141504075Y-87680946D01*
X140694551Y-87585708D02*
X141027884Y-87109517D01*
X141265979Y-87585708D02*
X141265979Y-86585708D01*
X141265979Y-86585708D02*
X140885027Y-86585708D01*
X140885027Y-86585708D02*
X140789789Y-86633327D01*
X140789789Y-86633327D02*
X140742170Y-86680946D01*
X140742170Y-86680946D02*
X140694551Y-86776184D01*
X140694551Y-86776184D02*
X140694551Y-86919041D01*
X140694551Y-86919041D02*
X140742170Y-87014279D01*
X140742170Y-87014279D02*
X140789789Y-87061898D01*
X140789789Y-87061898D02*
X140885027Y-87109517D01*
X140885027Y-87109517D02*
X141265979Y-87109517D01*
X140075503Y-86585708D02*
X139885027Y-86585708D01*
X139885027Y-86585708D02*
X139789789Y-86633327D01*
X139789789Y-86633327D02*
X139694551Y-86728565D01*
X139694551Y-86728565D02*
X139646932Y-86919041D01*
X139646932Y-86919041D02*
X139646932Y-87252374D01*
X139646932Y-87252374D02*
X139694551Y-87442850D01*
X139694551Y-87442850D02*
X139789789Y-87538089D01*
X139789789Y-87538089D02*
X139885027Y-87585708D01*
X139885027Y-87585708D02*
X140075503Y-87585708D01*
X140075503Y-87585708D02*
X140170741Y-87538089D01*
X140170741Y-87538089D02*
X140265979Y-87442850D01*
X140265979Y-87442850D02*
X140313598Y-87252374D01*
X140313598Y-87252374D02*
X140313598Y-86919041D01*
X140313598Y-86919041D02*
X140265979Y-86728565D01*
X140265979Y-86728565D02*
X140170741Y-86633327D01*
X140170741Y-86633327D02*
X140075503Y-86585708D01*
X139313598Y-86585708D02*
X139075503Y-87585708D01*
X139075503Y-87585708D02*
X138885027Y-86871422D01*
X138885027Y-86871422D02*
X138694551Y-87585708D01*
X138694551Y-87585708D02*
X138456456Y-86585708D01*
X138123122Y-86680946D02*
X138075503Y-86633327D01*
X138075503Y-86633327D02*
X137980265Y-86585708D01*
X137980265Y-86585708D02*
X137742170Y-86585708D01*
X137742170Y-86585708D02*
X137646932Y-86633327D01*
X137646932Y-86633327D02*
X137599313Y-86680946D01*
X137599313Y-86680946D02*
X137551694Y-86776184D01*
X137551694Y-86776184D02*
X137551694Y-86871422D01*
X137551694Y-86871422D02*
X137599313Y-87014279D01*
X137599313Y-87014279D02*
X138170741Y-87585708D01*
X138170741Y-87585708D02*
X137551694Y-87585708D01*
X113390139Y-107860552D02*
X113866329Y-107860552D01*
X113866329Y-107860552D02*
X113866329Y-106860552D01*
X113056805Y-107336742D02*
X112723472Y-107336742D01*
X112580615Y-107860552D02*
X113056805Y-107860552D01*
X113056805Y-107860552D02*
X113056805Y-106860552D01*
X113056805Y-106860552D02*
X112580615Y-106860552D01*
X112152043Y-107860552D02*
X112152043Y-106860552D01*
X112152043Y-106860552D02*
X111913948Y-106860552D01*
X111913948Y-106860552D02*
X111771091Y-106908171D01*
X111771091Y-106908171D02*
X111675853Y-107003409D01*
X111675853Y-107003409D02*
X111628234Y-107098647D01*
X111628234Y-107098647D02*
X111580615Y-107289123D01*
X111580615Y-107289123D02*
X111580615Y-107431980D01*
X111580615Y-107431980D02*
X111628234Y-107622456D01*
X111628234Y-107622456D02*
X111675853Y-107717694D01*
X111675853Y-107717694D02*
X111771091Y-107812933D01*
X111771091Y-107812933D02*
X111913948Y-107860552D01*
X111913948Y-107860552D02*
X112152043Y-107860552D01*
X110723472Y-106860552D02*
X110913948Y-106860552D01*
X110913948Y-106860552D02*
X111009186Y-106908171D01*
X111009186Y-106908171D02*
X111056805Y-106955790D01*
X111056805Y-106955790D02*
X111152043Y-107098647D01*
X111152043Y-107098647D02*
X111199662Y-107289123D01*
X111199662Y-107289123D02*
X111199662Y-107670075D01*
X111199662Y-107670075D02*
X111152043Y-107765313D01*
X111152043Y-107765313D02*
X111104424Y-107812933D01*
X111104424Y-107812933D02*
X111009186Y-107860552D01*
X111009186Y-107860552D02*
X110818710Y-107860552D01*
X110818710Y-107860552D02*
X110723472Y-107812933D01*
X110723472Y-107812933D02*
X110675853Y-107765313D01*
X110675853Y-107765313D02*
X110628234Y-107670075D01*
X110628234Y-107670075D02*
X110628234Y-107431980D01*
X110628234Y-107431980D02*
X110675853Y-107336742D01*
X110675853Y-107336742D02*
X110723472Y-107289123D01*
X110723472Y-107289123D02*
X110818710Y-107241504D01*
X110818710Y-107241504D02*
X111009186Y-107241504D01*
X111009186Y-107241504D02*
X111104424Y-107289123D01*
X111104424Y-107289123D02*
X111152043Y-107336742D01*
X111152043Y-107336742D02*
X111199662Y-107431980D01*
X143551694Y-110394908D02*
X144027884Y-110394908D01*
X144027884Y-110394908D02*
X144027884Y-109394908D01*
X143218360Y-109871098D02*
X142885027Y-109871098D01*
X142742170Y-110394908D02*
X143218360Y-110394908D01*
X143218360Y-110394908D02*
X143218360Y-109394908D01*
X143218360Y-109394908D02*
X142742170Y-109394908D01*
X142313598Y-110394908D02*
X142313598Y-109394908D01*
X142313598Y-109394908D02*
X142075503Y-109394908D01*
X142075503Y-109394908D02*
X141932646Y-109442527D01*
X141932646Y-109442527D02*
X141837408Y-109537765D01*
X141837408Y-109537765D02*
X141789789Y-109633003D01*
X141789789Y-109633003D02*
X141742170Y-109823479D01*
X141742170Y-109823479D02*
X141742170Y-109966336D01*
X141742170Y-109966336D02*
X141789789Y-110156812D01*
X141789789Y-110156812D02*
X141837408Y-110252050D01*
X141837408Y-110252050D02*
X141932646Y-110347289D01*
X141932646Y-110347289D02*
X142075503Y-110394908D01*
X142075503Y-110394908D02*
X142313598Y-110394908D01*
X140837408Y-109394908D02*
X141313598Y-109394908D01*
X141313598Y-109394908D02*
X141361217Y-109871098D01*
X141361217Y-109871098D02*
X141313598Y-109823479D01*
X141313598Y-109823479D02*
X141218360Y-109775860D01*
X141218360Y-109775860D02*
X140980265Y-109775860D01*
X140980265Y-109775860D02*
X140885027Y-109823479D01*
X140885027Y-109823479D02*
X140837408Y-109871098D01*
X140837408Y-109871098D02*
X140789789Y-109966336D01*
X140789789Y-109966336D02*
X140789789Y-110204431D01*
X140789789Y-110204431D02*
X140837408Y-110299669D01*
X140837408Y-110299669D02*
X140885027Y-110347289D01*
X140885027Y-110347289D02*
X140980265Y-110394908D01*
X140980265Y-110394908D02*
X141218360Y-110394908D01*
X141218360Y-110394908D02*
X141313598Y-110347289D01*
X141313598Y-110347289D02*
X141361217Y-110299669D01*
X115152044Y-100257486D02*
X115628234Y-100257486D01*
X115628234Y-100257486D02*
X115628234Y-99257486D01*
X114818710Y-99733676D02*
X114485377Y-99733676D01*
X114342520Y-100257486D02*
X114818710Y-100257486D01*
X114818710Y-100257486D02*
X114818710Y-99257486D01*
X114818710Y-99257486D02*
X114342520Y-99257486D01*
X113913948Y-100257486D02*
X113913948Y-99257486D01*
X113913948Y-99257486D02*
X113675853Y-99257486D01*
X113675853Y-99257486D02*
X113532996Y-99305105D01*
X113532996Y-99305105D02*
X113437758Y-99400343D01*
X113437758Y-99400343D02*
X113390139Y-99495581D01*
X113390139Y-99495581D02*
X113342520Y-99686057D01*
X113342520Y-99686057D02*
X113342520Y-99828914D01*
X113342520Y-99828914D02*
X113390139Y-100019390D01*
X113390139Y-100019390D02*
X113437758Y-100114628D01*
X113437758Y-100114628D02*
X113532996Y-100209867D01*
X113532996Y-100209867D02*
X113675853Y-100257486D01*
X113675853Y-100257486D02*
X113913948Y-100257486D01*
X113152044Y-100352724D02*
X112390139Y-100352724D01*
X112152043Y-99733676D02*
X111818710Y-99733676D01*
X111675853Y-100257486D02*
X112152043Y-100257486D01*
X112152043Y-100257486D02*
X112152043Y-99257486D01*
X112152043Y-99257486D02*
X111675853Y-99257486D01*
X111247281Y-100257486D02*
X111247281Y-99257486D01*
X111247281Y-99257486D02*
X110675853Y-100257486D01*
X110675853Y-100257486D02*
X110675853Y-99257486D01*
X98231684Y-97723130D02*
X98231684Y-96723130D01*
X98231684Y-96723130D02*
X97993589Y-96723130D01*
X97993589Y-96723130D02*
X97850732Y-96770749D01*
X97850732Y-96770749D02*
X97755494Y-96865987D01*
X97755494Y-96865987D02*
X97707875Y-96961225D01*
X97707875Y-96961225D02*
X97660256Y-97151701D01*
X97660256Y-97151701D02*
X97660256Y-97294558D01*
X97660256Y-97294558D02*
X97707875Y-97485034D01*
X97707875Y-97485034D02*
X97755494Y-97580272D01*
X97755494Y-97580272D02*
X97850732Y-97675511D01*
X97850732Y-97675511D02*
X97993589Y-97723130D01*
X97993589Y-97723130D02*
X98231684Y-97723130D01*
X97231684Y-97723130D02*
X97231684Y-96723130D01*
X96231685Y-96770749D02*
X96326923Y-96723130D01*
X96326923Y-96723130D02*
X96469780Y-96723130D01*
X96469780Y-96723130D02*
X96612637Y-96770749D01*
X96612637Y-96770749D02*
X96707875Y-96865987D01*
X96707875Y-96865987D02*
X96755494Y-96961225D01*
X96755494Y-96961225D02*
X96803113Y-97151701D01*
X96803113Y-97151701D02*
X96803113Y-97294558D01*
X96803113Y-97294558D02*
X96755494Y-97485034D01*
X96755494Y-97485034D02*
X96707875Y-97580272D01*
X96707875Y-97580272D02*
X96612637Y-97675511D01*
X96612637Y-97675511D02*
X96469780Y-97723130D01*
X96469780Y-97723130D02*
X96374542Y-97723130D01*
X96374542Y-97723130D02*
X96231685Y-97675511D01*
X96231685Y-97675511D02*
X96184066Y-97627891D01*
X96184066Y-97627891D02*
X96184066Y-97294558D01*
X96184066Y-97294558D02*
X96374542Y-97294558D01*
X95803113Y-96818368D02*
X95755494Y-96770749D01*
X95755494Y-96770749D02*
X95660256Y-96723130D01*
X95660256Y-96723130D02*
X95422161Y-96723130D01*
X95422161Y-96723130D02*
X95326923Y-96770749D01*
X95326923Y-96770749D02*
X95279304Y-96818368D01*
X95279304Y-96818368D02*
X95231685Y-96913606D01*
X95231685Y-96913606D02*
X95231685Y-97008844D01*
X95231685Y-97008844D02*
X95279304Y-97151701D01*
X95279304Y-97151701D02*
X95850732Y-97723130D01*
X95850732Y-97723130D02*
X95231685Y-97723130D01*
X95041209Y-97818368D02*
X94279304Y-97818368D01*
X94041208Y-97199320D02*
X93707875Y-97199320D01*
X93565018Y-97723130D02*
X94041208Y-97723130D01*
X94041208Y-97723130D02*
X94041208Y-96723130D01*
X94041208Y-96723130D02*
X93565018Y-96723130D01*
X93136446Y-97723130D02*
X93136446Y-96723130D01*
X93136446Y-96723130D02*
X92565018Y-97723130D01*
X92565018Y-97723130D02*
X92565018Y-96723130D01*
X162776804Y-102744222D02*
X162633947Y-102791841D01*
X162633947Y-102791841D02*
X162395852Y-102791841D01*
X162395852Y-102791841D02*
X162300614Y-102744222D01*
X162300614Y-102744222D02*
X162252995Y-102696602D01*
X162252995Y-102696602D02*
X162205376Y-102601364D01*
X162205376Y-102601364D02*
X162205376Y-102506126D01*
X162205376Y-102506126D02*
X162252995Y-102410888D01*
X162252995Y-102410888D02*
X162300614Y-102363269D01*
X162300614Y-102363269D02*
X162395852Y-102315650D01*
X162395852Y-102315650D02*
X162586328Y-102268031D01*
X162586328Y-102268031D02*
X162681566Y-102220412D01*
X162681566Y-102220412D02*
X162729185Y-102172793D01*
X162729185Y-102172793D02*
X162776804Y-102077555D01*
X162776804Y-102077555D02*
X162776804Y-101982317D01*
X162776804Y-101982317D02*
X162729185Y-101887079D01*
X162729185Y-101887079D02*
X162681566Y-101839460D01*
X162681566Y-101839460D02*
X162586328Y-101791841D01*
X162586328Y-101791841D02*
X162348233Y-101791841D01*
X162348233Y-101791841D02*
X162205376Y-101839460D01*
X161776804Y-102791841D02*
X161776804Y-101791841D01*
X161776804Y-101791841D02*
X161395852Y-101791841D01*
X161395852Y-101791841D02*
X161300614Y-101839460D01*
X161300614Y-101839460D02*
X161252995Y-101887079D01*
X161252995Y-101887079D02*
X161205376Y-101982317D01*
X161205376Y-101982317D02*
X161205376Y-102125174D01*
X161205376Y-102125174D02*
X161252995Y-102220412D01*
X161252995Y-102220412D02*
X161300614Y-102268031D01*
X161300614Y-102268031D02*
X161395852Y-102315650D01*
X161395852Y-102315650D02*
X161776804Y-102315650D01*
X160776804Y-102791841D02*
X160776804Y-101791841D01*
X160538710Y-102887079D02*
X159776805Y-102887079D01*
X159538709Y-102791841D02*
X159538709Y-101791841D01*
X159538709Y-101791841D02*
X159205376Y-102506126D01*
X159205376Y-102506126D02*
X158872043Y-101791841D01*
X158872043Y-101791841D02*
X158872043Y-102791841D01*
X158395852Y-102791841D02*
X158395852Y-101791841D01*
X157967281Y-102744222D02*
X157824424Y-102791841D01*
X157824424Y-102791841D02*
X157586329Y-102791841D01*
X157586329Y-102791841D02*
X157491091Y-102744222D01*
X157491091Y-102744222D02*
X157443472Y-102696602D01*
X157443472Y-102696602D02*
X157395853Y-102601364D01*
X157395853Y-102601364D02*
X157395853Y-102506126D01*
X157395853Y-102506126D02*
X157443472Y-102410888D01*
X157443472Y-102410888D02*
X157491091Y-102363269D01*
X157491091Y-102363269D02*
X157586329Y-102315650D01*
X157586329Y-102315650D02*
X157776805Y-102268031D01*
X157776805Y-102268031D02*
X157872043Y-102220412D01*
X157872043Y-102220412D02*
X157919662Y-102172793D01*
X157919662Y-102172793D02*
X157967281Y-102077555D01*
X157967281Y-102077555D02*
X157967281Y-101982317D01*
X157967281Y-101982317D02*
X157919662Y-101887079D01*
X157919662Y-101887079D02*
X157872043Y-101839460D01*
X157872043Y-101839460D02*
X157776805Y-101791841D01*
X157776805Y-101791841D02*
X157538710Y-101791841D01*
X157538710Y-101791841D02*
X157395853Y-101839460D01*
X156776805Y-101791841D02*
X156586329Y-101791841D01*
X156586329Y-101791841D02*
X156491091Y-101839460D01*
X156491091Y-101839460D02*
X156395853Y-101934698D01*
X156395853Y-101934698D02*
X156348234Y-102125174D01*
X156348234Y-102125174D02*
X156348234Y-102458507D01*
X156348234Y-102458507D02*
X156395853Y-102648983D01*
X156395853Y-102648983D02*
X156491091Y-102744222D01*
X156491091Y-102744222D02*
X156586329Y-102791841D01*
X156586329Y-102791841D02*
X156776805Y-102791841D01*
X156776805Y-102791841D02*
X156872043Y-102744222D01*
X156872043Y-102744222D02*
X156967281Y-102648983D01*
X156967281Y-102648983D02*
X157014900Y-102458507D01*
X157014900Y-102458507D02*
X157014900Y-102125174D01*
X157014900Y-102125174D02*
X156967281Y-101934698D01*
X156967281Y-101934698D02*
X156872043Y-101839460D01*
X156872043Y-101839460D02*
X156776805Y-101791841D01*
D11*
X110657897Y-112474742D02*
X110657897Y-113331885D01*
X110657897Y-113331885D02*
X110715040Y-113503314D01*
X110715040Y-113503314D02*
X110829326Y-113617600D01*
X110829326Y-113617600D02*
X111000754Y-113674742D01*
X111000754Y-113674742D02*
X111115040Y-113674742D01*
X110372183Y-113789028D02*
X109457897Y-113789028D01*
X108943611Y-112474742D02*
X108715039Y-112474742D01*
X108715039Y-112474742D02*
X108600754Y-112531885D01*
X108600754Y-112531885D02*
X108486468Y-112646171D01*
X108486468Y-112646171D02*
X108429325Y-112874742D01*
X108429325Y-112874742D02*
X108429325Y-113274742D01*
X108429325Y-113274742D02*
X108486468Y-113503314D01*
X108486468Y-113503314D02*
X108600754Y-113617600D01*
X108600754Y-113617600D02*
X108715039Y-113674742D01*
X108715039Y-113674742D02*
X108943611Y-113674742D01*
X108943611Y-113674742D02*
X109057897Y-113617600D01*
X109057897Y-113617600D02*
X109172182Y-113503314D01*
X109172182Y-113503314D02*
X109229325Y-113274742D01*
X109229325Y-113274742D02*
X109229325Y-112874742D01*
X109229325Y-112874742D02*
X109172182Y-112646171D01*
X109172182Y-112646171D02*
X109057897Y-112531885D01*
X109057897Y-112531885D02*
X108943611Y-112474742D01*
X107915039Y-112474742D02*
X107915039Y-113446171D01*
X107915039Y-113446171D02*
X107857896Y-113560457D01*
X107857896Y-113560457D02*
X107800754Y-113617600D01*
X107800754Y-113617600D02*
X107686468Y-113674742D01*
X107686468Y-113674742D02*
X107457896Y-113674742D01*
X107457896Y-113674742D02*
X107343611Y-113617600D01*
X107343611Y-113617600D02*
X107286468Y-113560457D01*
X107286468Y-113560457D02*
X107229325Y-113446171D01*
X107229325Y-113446171D02*
X107229325Y-112474742D01*
X106829325Y-112474742D02*
X106143611Y-112474742D01*
X106486468Y-113674742D02*
X106486468Y-112474742D01*
X105115039Y-113674742D02*
X105800753Y-113674742D01*
X105457896Y-113674742D02*
X105457896Y-112474742D01*
X105457896Y-112474742D02*
X105572182Y-112646171D01*
X105572182Y-112646171D02*
X105686467Y-112760457D01*
X105686467Y-112760457D02*
X105800753Y-112817600D01*
D10*
X162491091Y-95188775D02*
X162491091Y-94188775D01*
X161919663Y-95188775D02*
X162348234Y-94617346D01*
X161919663Y-94188775D02*
X162491091Y-94760203D01*
X161491091Y-95188775D02*
X161491091Y-94188775D01*
X161491091Y-94188775D02*
X161110139Y-94188775D01*
X161110139Y-94188775D02*
X161014901Y-94236394D01*
X161014901Y-94236394D02*
X160967282Y-94284013D01*
X160967282Y-94284013D02*
X160919663Y-94379251D01*
X160919663Y-94379251D02*
X160919663Y-94522108D01*
X160919663Y-94522108D02*
X160967282Y-94617346D01*
X160967282Y-94617346D02*
X161014901Y-94664965D01*
X161014901Y-94664965D02*
X161110139Y-94712584D01*
X161110139Y-94712584D02*
X161491091Y-94712584D01*
X160729187Y-95284013D02*
X159967282Y-95284013D01*
X159157758Y-95093536D02*
X159205377Y-95141156D01*
X159205377Y-95141156D02*
X159348234Y-95188775D01*
X159348234Y-95188775D02*
X159443472Y-95188775D01*
X159443472Y-95188775D02*
X159586329Y-95141156D01*
X159586329Y-95141156D02*
X159681567Y-95045917D01*
X159681567Y-95045917D02*
X159729186Y-94950679D01*
X159729186Y-94950679D02*
X159776805Y-94760203D01*
X159776805Y-94760203D02*
X159776805Y-94617346D01*
X159776805Y-94617346D02*
X159729186Y-94426870D01*
X159729186Y-94426870D02*
X159681567Y-94331632D01*
X159681567Y-94331632D02*
X159586329Y-94236394D01*
X159586329Y-94236394D02*
X159443472Y-94188775D01*
X159443472Y-94188775D02*
X159348234Y-94188775D01*
X159348234Y-94188775D02*
X159205377Y-94236394D01*
X159205377Y-94236394D02*
X159157758Y-94284013D01*
X158538710Y-94188775D02*
X158348234Y-94188775D01*
X158348234Y-94188775D02*
X158252996Y-94236394D01*
X158252996Y-94236394D02*
X158157758Y-94331632D01*
X158157758Y-94331632D02*
X158110139Y-94522108D01*
X158110139Y-94522108D02*
X158110139Y-94855441D01*
X158110139Y-94855441D02*
X158157758Y-95045917D01*
X158157758Y-95045917D02*
X158252996Y-95141156D01*
X158252996Y-95141156D02*
X158348234Y-95188775D01*
X158348234Y-95188775D02*
X158538710Y-95188775D01*
X158538710Y-95188775D02*
X158633948Y-95141156D01*
X158633948Y-95141156D02*
X158729186Y-95045917D01*
X158729186Y-95045917D02*
X158776805Y-94855441D01*
X158776805Y-94855441D02*
X158776805Y-94522108D01*
X158776805Y-94522108D02*
X158729186Y-94331632D01*
X158729186Y-94331632D02*
X158633948Y-94236394D01*
X158633948Y-94236394D02*
X158538710Y-94188775D01*
X157205377Y-95188775D02*
X157681567Y-95188775D01*
X157681567Y-95188775D02*
X157681567Y-94188775D01*
X156919662Y-94284013D02*
X156872043Y-94236394D01*
X156872043Y-94236394D02*
X156776805Y-94188775D01*
X156776805Y-94188775D02*
X156538710Y-94188775D01*
X156538710Y-94188775D02*
X156443472Y-94236394D01*
X156443472Y-94236394D02*
X156395853Y-94284013D01*
X156395853Y-94284013D02*
X156348234Y-94379251D01*
X156348234Y-94379251D02*
X156348234Y-94474489D01*
X156348234Y-94474489D02*
X156395853Y-94617346D01*
X156395853Y-94617346D02*
X156967281Y-95188775D01*
X156967281Y-95188775D02*
X156348234Y-95188775D01*
X159681567Y-97723130D02*
X159681567Y-96723130D01*
X159681567Y-96723130D02*
X159110139Y-97723130D01*
X159110139Y-97723130D02*
X159110139Y-96723130D01*
X158062520Y-97723130D02*
X158395853Y-97246939D01*
X158633948Y-97723130D02*
X158633948Y-96723130D01*
X158633948Y-96723130D02*
X158252996Y-96723130D01*
X158252996Y-96723130D02*
X158157758Y-96770749D01*
X158157758Y-96770749D02*
X158110139Y-96818368D01*
X158110139Y-96818368D02*
X158062520Y-96913606D01*
X158062520Y-96913606D02*
X158062520Y-97056463D01*
X158062520Y-97056463D02*
X158110139Y-97151701D01*
X158110139Y-97151701D02*
X158157758Y-97199320D01*
X158157758Y-97199320D02*
X158252996Y-97246939D01*
X158252996Y-97246939D02*
X158633948Y-97246939D01*
X157681567Y-97675511D02*
X157538710Y-97723130D01*
X157538710Y-97723130D02*
X157300615Y-97723130D01*
X157300615Y-97723130D02*
X157205377Y-97675511D01*
X157205377Y-97675511D02*
X157157758Y-97627891D01*
X157157758Y-97627891D02*
X157110139Y-97532653D01*
X157110139Y-97532653D02*
X157110139Y-97437415D01*
X157110139Y-97437415D02*
X157157758Y-97342177D01*
X157157758Y-97342177D02*
X157205377Y-97294558D01*
X157205377Y-97294558D02*
X157300615Y-97246939D01*
X157300615Y-97246939D02*
X157491091Y-97199320D01*
X157491091Y-97199320D02*
X157586329Y-97151701D01*
X157586329Y-97151701D02*
X157633948Y-97104082D01*
X157633948Y-97104082D02*
X157681567Y-97008844D01*
X157681567Y-97008844D02*
X157681567Y-96913606D01*
X157681567Y-96913606D02*
X157633948Y-96818368D01*
X157633948Y-96818368D02*
X157586329Y-96770749D01*
X157586329Y-96770749D02*
X157491091Y-96723130D01*
X157491091Y-96723130D02*
X157252996Y-96723130D01*
X157252996Y-96723130D02*
X157110139Y-96770749D01*
X156824424Y-96723130D02*
X156252996Y-96723130D01*
X156538710Y-97723130D02*
X156538710Y-96723130D01*
X98231684Y-110394908D02*
X98231684Y-109394908D01*
X97803113Y-109490146D02*
X97755494Y-109442527D01*
X97755494Y-109442527D02*
X97660256Y-109394908D01*
X97660256Y-109394908D02*
X97422161Y-109394908D01*
X97422161Y-109394908D02*
X97326923Y-109442527D01*
X97326923Y-109442527D02*
X97279304Y-109490146D01*
X97279304Y-109490146D02*
X97231685Y-109585384D01*
X97231685Y-109585384D02*
X97231685Y-109680622D01*
X97231685Y-109680622D02*
X97279304Y-109823479D01*
X97279304Y-109823479D02*
X97850732Y-110394908D01*
X97850732Y-110394908D02*
X97231685Y-110394908D01*
X96231685Y-110299669D02*
X96279304Y-110347289D01*
X96279304Y-110347289D02*
X96422161Y-110394908D01*
X96422161Y-110394908D02*
X96517399Y-110394908D01*
X96517399Y-110394908D02*
X96660256Y-110347289D01*
X96660256Y-110347289D02*
X96755494Y-110252050D01*
X96755494Y-110252050D02*
X96803113Y-110156812D01*
X96803113Y-110156812D02*
X96850732Y-109966336D01*
X96850732Y-109966336D02*
X96850732Y-109823479D01*
X96850732Y-109823479D02*
X96803113Y-109633003D01*
X96803113Y-109633003D02*
X96755494Y-109537765D01*
X96755494Y-109537765D02*
X96660256Y-109442527D01*
X96660256Y-109442527D02*
X96517399Y-109394908D01*
X96517399Y-109394908D02*
X96422161Y-109394908D01*
X96422161Y-109394908D02*
X96279304Y-109442527D01*
X96279304Y-109442527D02*
X96231685Y-109490146D01*
X96041209Y-110490146D02*
X95279304Y-110490146D01*
X95088827Y-110347289D02*
X94945970Y-110394908D01*
X94945970Y-110394908D02*
X94707875Y-110394908D01*
X94707875Y-110394908D02*
X94612637Y-110347289D01*
X94612637Y-110347289D02*
X94565018Y-110299669D01*
X94565018Y-110299669D02*
X94517399Y-110204431D01*
X94517399Y-110204431D02*
X94517399Y-110109193D01*
X94517399Y-110109193D02*
X94565018Y-110013955D01*
X94565018Y-110013955D02*
X94612637Y-109966336D01*
X94612637Y-109966336D02*
X94707875Y-109918717D01*
X94707875Y-109918717D02*
X94898351Y-109871098D01*
X94898351Y-109871098D02*
X94993589Y-109823479D01*
X94993589Y-109823479D02*
X95041208Y-109775860D01*
X95041208Y-109775860D02*
X95088827Y-109680622D01*
X95088827Y-109680622D02*
X95088827Y-109585384D01*
X95088827Y-109585384D02*
X95041208Y-109490146D01*
X95041208Y-109490146D02*
X94993589Y-109442527D01*
X94993589Y-109442527D02*
X94898351Y-109394908D01*
X94898351Y-109394908D02*
X94660256Y-109394908D01*
X94660256Y-109394908D02*
X94517399Y-109442527D01*
X94088827Y-110394908D02*
X94088827Y-109394908D01*
X94088827Y-109394908D02*
X93850732Y-109394908D01*
X93850732Y-109394908D02*
X93707875Y-109442527D01*
X93707875Y-109442527D02*
X93612637Y-109537765D01*
X93612637Y-109537765D02*
X93565018Y-109633003D01*
X93565018Y-109633003D02*
X93517399Y-109823479D01*
X93517399Y-109823479D02*
X93517399Y-109966336D01*
X93517399Y-109966336D02*
X93565018Y-110156812D01*
X93565018Y-110156812D02*
X93612637Y-110252050D01*
X93612637Y-110252050D02*
X93707875Y-110347289D01*
X93707875Y-110347289D02*
X93850732Y-110394908D01*
X93850732Y-110394908D02*
X94088827Y-110394908D01*
X93136446Y-110109193D02*
X92660256Y-110109193D01*
X93231684Y-110394908D02*
X92898351Y-109394908D01*
X92898351Y-109394908D02*
X92565018Y-110394908D01*
X98279303Y-99971771D02*
X97803113Y-99971771D01*
X98374541Y-100257486D02*
X98041208Y-99257486D01*
X98041208Y-99257486D02*
X97707875Y-100257486D01*
X97374541Y-100257486D02*
X97374541Y-99257486D01*
X97374541Y-99257486D02*
X97136446Y-99257486D01*
X97136446Y-99257486D02*
X96993589Y-99305105D01*
X96993589Y-99305105D02*
X96898351Y-99400343D01*
X96898351Y-99400343D02*
X96850732Y-99495581D01*
X96850732Y-99495581D02*
X96803113Y-99686057D01*
X96803113Y-99686057D02*
X96803113Y-99828914D01*
X96803113Y-99828914D02*
X96850732Y-100019390D01*
X96850732Y-100019390D02*
X96898351Y-100114628D01*
X96898351Y-100114628D02*
X96993589Y-100209867D01*
X96993589Y-100209867D02*
X97136446Y-100257486D01*
X97136446Y-100257486D02*
X97374541Y-100257486D01*
X95803113Y-100162247D02*
X95850732Y-100209867D01*
X95850732Y-100209867D02*
X95993589Y-100257486D01*
X95993589Y-100257486D02*
X96088827Y-100257486D01*
X96088827Y-100257486D02*
X96231684Y-100209867D01*
X96231684Y-100209867D02*
X96326922Y-100114628D01*
X96326922Y-100114628D02*
X96374541Y-100019390D01*
X96374541Y-100019390D02*
X96422160Y-99828914D01*
X96422160Y-99828914D02*
X96422160Y-99686057D01*
X96422160Y-99686057D02*
X96374541Y-99495581D01*
X96374541Y-99495581D02*
X96326922Y-99400343D01*
X96326922Y-99400343D02*
X96231684Y-99305105D01*
X96231684Y-99305105D02*
X96088827Y-99257486D01*
X96088827Y-99257486D02*
X95993589Y-99257486D01*
X95993589Y-99257486D02*
X95850732Y-99305105D01*
X95850732Y-99305105D02*
X95803113Y-99352724D01*
X95184065Y-99257486D02*
X95088827Y-99257486D01*
X95088827Y-99257486D02*
X94993589Y-99305105D01*
X94993589Y-99305105D02*
X94945970Y-99352724D01*
X94945970Y-99352724D02*
X94898351Y-99447962D01*
X94898351Y-99447962D02*
X94850732Y-99638438D01*
X94850732Y-99638438D02*
X94850732Y-99876533D01*
X94850732Y-99876533D02*
X94898351Y-100067009D01*
X94898351Y-100067009D02*
X94945970Y-100162247D01*
X94945970Y-100162247D02*
X94993589Y-100209867D01*
X94993589Y-100209867D02*
X95088827Y-100257486D01*
X95088827Y-100257486D02*
X95184065Y-100257486D01*
X95184065Y-100257486D02*
X95279303Y-100209867D01*
X95279303Y-100209867D02*
X95326922Y-100162247D01*
X95326922Y-100162247D02*
X95374541Y-100067009D01*
X95374541Y-100067009D02*
X95422160Y-99876533D01*
X95422160Y-99876533D02*
X95422160Y-99638438D01*
X95422160Y-99638438D02*
X95374541Y-99447962D01*
X95374541Y-99447962D02*
X95326922Y-99352724D01*
X95326922Y-99352724D02*
X95279303Y-99305105D01*
X95279303Y-99305105D02*
X95184065Y-99257486D01*
X94422160Y-100162247D02*
X94374541Y-100209867D01*
X94374541Y-100209867D02*
X94422160Y-100257486D01*
X94422160Y-100257486D02*
X94469779Y-100209867D01*
X94469779Y-100209867D02*
X94422160Y-100162247D01*
X94422160Y-100162247D02*
X94422160Y-100257486D01*
X93469780Y-99257486D02*
X93945970Y-99257486D01*
X93945970Y-99257486D02*
X93993589Y-99733676D01*
X93993589Y-99733676D02*
X93945970Y-99686057D01*
X93945970Y-99686057D02*
X93850732Y-99638438D01*
X93850732Y-99638438D02*
X93612637Y-99638438D01*
X93612637Y-99638438D02*
X93517399Y-99686057D01*
X93517399Y-99686057D02*
X93469780Y-99733676D01*
X93469780Y-99733676D02*
X93422161Y-99828914D01*
X93422161Y-99828914D02*
X93422161Y-100067009D01*
X93422161Y-100067009D02*
X93469780Y-100162247D01*
X93469780Y-100162247D02*
X93517399Y-100209867D01*
X93517399Y-100209867D02*
X93612637Y-100257486D01*
X93612637Y-100257486D02*
X93850732Y-100257486D01*
X93850732Y-100257486D02*
X93945970Y-100209867D01*
X93945970Y-100209867D02*
X93993589Y-100162247D01*
X121771090Y-95141156D02*
X121628233Y-95188775D01*
X121628233Y-95188775D02*
X121390138Y-95188775D01*
X121390138Y-95188775D02*
X121294900Y-95141156D01*
X121294900Y-95141156D02*
X121247281Y-95093536D01*
X121247281Y-95093536D02*
X121199662Y-94998298D01*
X121199662Y-94998298D02*
X121199662Y-94903060D01*
X121199662Y-94903060D02*
X121247281Y-94807822D01*
X121247281Y-94807822D02*
X121294900Y-94760203D01*
X121294900Y-94760203D02*
X121390138Y-94712584D01*
X121390138Y-94712584D02*
X121580614Y-94664965D01*
X121580614Y-94664965D02*
X121675852Y-94617346D01*
X121675852Y-94617346D02*
X121723471Y-94569727D01*
X121723471Y-94569727D02*
X121771090Y-94474489D01*
X121771090Y-94474489D02*
X121771090Y-94379251D01*
X121771090Y-94379251D02*
X121723471Y-94284013D01*
X121723471Y-94284013D02*
X121675852Y-94236394D01*
X121675852Y-94236394D02*
X121580614Y-94188775D01*
X121580614Y-94188775D02*
X121342519Y-94188775D01*
X121342519Y-94188775D02*
X121199662Y-94236394D01*
X120866328Y-94188775D02*
X120628233Y-95188775D01*
X120628233Y-95188775D02*
X120437757Y-94474489D01*
X120437757Y-94474489D02*
X120247281Y-95188775D01*
X120247281Y-95188775D02*
X120009186Y-94188775D01*
X119104424Y-95188775D02*
X119675852Y-95188775D01*
X119390138Y-95188775D02*
X119390138Y-94188775D01*
X119390138Y-94188775D02*
X119485376Y-94331632D01*
X119485376Y-94331632D02*
X119580614Y-94426870D01*
X119580614Y-94426870D02*
X119675852Y-94474489D01*
X118675852Y-94807822D02*
X117913948Y-94807822D01*
X117485376Y-94284013D02*
X117437757Y-94236394D01*
X117437757Y-94236394D02*
X117342519Y-94188775D01*
X117342519Y-94188775D02*
X117104424Y-94188775D01*
X117104424Y-94188775D02*
X117009186Y-94236394D01*
X117009186Y-94236394D02*
X116961567Y-94284013D01*
X116961567Y-94284013D02*
X116913948Y-94379251D01*
X116913948Y-94379251D02*
X116913948Y-94474489D01*
X116913948Y-94474489D02*
X116961567Y-94617346D01*
X116961567Y-94617346D02*
X117532995Y-95188775D01*
X117532995Y-95188775D02*
X116913948Y-95188775D01*
X115771091Y-94141156D02*
X116628233Y-95426870D01*
X115485376Y-94903060D02*
X115009186Y-94903060D01*
X115580614Y-95188775D02*
X115247281Y-94188775D01*
X115247281Y-94188775D02*
X114913948Y-95188775D01*
X114580614Y-95188775D02*
X114580614Y-94188775D01*
X114580614Y-94188775D02*
X114342519Y-94188775D01*
X114342519Y-94188775D02*
X114199662Y-94236394D01*
X114199662Y-94236394D02*
X114104424Y-94331632D01*
X114104424Y-94331632D02*
X114056805Y-94426870D01*
X114056805Y-94426870D02*
X114009186Y-94617346D01*
X114009186Y-94617346D02*
X114009186Y-94760203D01*
X114009186Y-94760203D02*
X114056805Y-94950679D01*
X114056805Y-94950679D02*
X114104424Y-95045917D01*
X114104424Y-95045917D02*
X114199662Y-95141156D01*
X114199662Y-95141156D02*
X114342519Y-95188775D01*
X114342519Y-95188775D02*
X114580614Y-95188775D01*
X113009186Y-95093536D02*
X113056805Y-95141156D01*
X113056805Y-95141156D02*
X113199662Y-95188775D01*
X113199662Y-95188775D02*
X113294900Y-95188775D01*
X113294900Y-95188775D02*
X113437757Y-95141156D01*
X113437757Y-95141156D02*
X113532995Y-95045917D01*
X113532995Y-95045917D02*
X113580614Y-94950679D01*
X113580614Y-94950679D02*
X113628233Y-94760203D01*
X113628233Y-94760203D02*
X113628233Y-94617346D01*
X113628233Y-94617346D02*
X113580614Y-94426870D01*
X113580614Y-94426870D02*
X113532995Y-94331632D01*
X113532995Y-94331632D02*
X113437757Y-94236394D01*
X113437757Y-94236394D02*
X113294900Y-94188775D01*
X113294900Y-94188775D02*
X113199662Y-94188775D01*
X113199662Y-94188775D02*
X113056805Y-94236394D01*
X113056805Y-94236394D02*
X113009186Y-94284013D01*
X112390138Y-94188775D02*
X112294900Y-94188775D01*
X112294900Y-94188775D02*
X112199662Y-94236394D01*
X112199662Y-94236394D02*
X112152043Y-94284013D01*
X112152043Y-94284013D02*
X112104424Y-94379251D01*
X112104424Y-94379251D02*
X112056805Y-94569727D01*
X112056805Y-94569727D02*
X112056805Y-94807822D01*
X112056805Y-94807822D02*
X112104424Y-94998298D01*
X112104424Y-94998298D02*
X112152043Y-95093536D01*
X112152043Y-95093536D02*
X112199662Y-95141156D01*
X112199662Y-95141156D02*
X112294900Y-95188775D01*
X112294900Y-95188775D02*
X112390138Y-95188775D01*
X112390138Y-95188775D02*
X112485376Y-95141156D01*
X112485376Y-95141156D02*
X112532995Y-95093536D01*
X112532995Y-95093536D02*
X112580614Y-94998298D01*
X112580614Y-94998298D02*
X112628233Y-94807822D01*
X112628233Y-94807822D02*
X112628233Y-94569727D01*
X112628233Y-94569727D02*
X112580614Y-94379251D01*
X112580614Y-94379251D02*
X112532995Y-94284013D01*
X112532995Y-94284013D02*
X112485376Y-94236394D01*
X112485376Y-94236394D02*
X112390138Y-94188775D01*
X111628233Y-95093536D02*
X111580614Y-95141156D01*
X111580614Y-95141156D02*
X111628233Y-95188775D01*
X111628233Y-95188775D02*
X111675852Y-95141156D01*
X111675852Y-95141156D02*
X111628233Y-95093536D01*
X111628233Y-95093536D02*
X111628233Y-95188775D01*
X111247281Y-94188775D02*
X110580615Y-94188775D01*
X110580615Y-94188775D02*
X111009186Y-95188775D01*
X162776804Y-100209867D02*
X162633947Y-100257486D01*
X162633947Y-100257486D02*
X162395852Y-100257486D01*
X162395852Y-100257486D02*
X162300614Y-100209867D01*
X162300614Y-100209867D02*
X162252995Y-100162247D01*
X162252995Y-100162247D02*
X162205376Y-100067009D01*
X162205376Y-100067009D02*
X162205376Y-99971771D01*
X162205376Y-99971771D02*
X162252995Y-99876533D01*
X162252995Y-99876533D02*
X162300614Y-99828914D01*
X162300614Y-99828914D02*
X162395852Y-99781295D01*
X162395852Y-99781295D02*
X162586328Y-99733676D01*
X162586328Y-99733676D02*
X162681566Y-99686057D01*
X162681566Y-99686057D02*
X162729185Y-99638438D01*
X162729185Y-99638438D02*
X162776804Y-99543200D01*
X162776804Y-99543200D02*
X162776804Y-99447962D01*
X162776804Y-99447962D02*
X162729185Y-99352724D01*
X162729185Y-99352724D02*
X162681566Y-99305105D01*
X162681566Y-99305105D02*
X162586328Y-99257486D01*
X162586328Y-99257486D02*
X162348233Y-99257486D01*
X162348233Y-99257486D02*
X162205376Y-99305105D01*
X161776804Y-100257486D02*
X161776804Y-99257486D01*
X161776804Y-99257486D02*
X161395852Y-99257486D01*
X161395852Y-99257486D02*
X161300614Y-99305105D01*
X161300614Y-99305105D02*
X161252995Y-99352724D01*
X161252995Y-99352724D02*
X161205376Y-99447962D01*
X161205376Y-99447962D02*
X161205376Y-99590819D01*
X161205376Y-99590819D02*
X161252995Y-99686057D01*
X161252995Y-99686057D02*
X161300614Y-99733676D01*
X161300614Y-99733676D02*
X161395852Y-99781295D01*
X161395852Y-99781295D02*
X161776804Y-99781295D01*
X160776804Y-100257486D02*
X160776804Y-99257486D01*
X160538710Y-100352724D02*
X159776805Y-100352724D01*
X159538709Y-100257486D02*
X159538709Y-99257486D01*
X159538709Y-99257486D02*
X159205376Y-99971771D01*
X159205376Y-99971771D02*
X158872043Y-99257486D01*
X158872043Y-99257486D02*
X158872043Y-100257486D01*
X158205376Y-99257486D02*
X158014900Y-99257486D01*
X158014900Y-99257486D02*
X157919662Y-99305105D01*
X157919662Y-99305105D02*
X157824424Y-99400343D01*
X157824424Y-99400343D02*
X157776805Y-99590819D01*
X157776805Y-99590819D02*
X157776805Y-99924152D01*
X157776805Y-99924152D02*
X157824424Y-100114628D01*
X157824424Y-100114628D02*
X157919662Y-100209867D01*
X157919662Y-100209867D02*
X158014900Y-100257486D01*
X158014900Y-100257486D02*
X158205376Y-100257486D01*
X158205376Y-100257486D02*
X158300614Y-100209867D01*
X158300614Y-100209867D02*
X158395852Y-100114628D01*
X158395852Y-100114628D02*
X158443471Y-99924152D01*
X158443471Y-99924152D02*
X158443471Y-99590819D01*
X158443471Y-99590819D02*
X158395852Y-99400343D01*
X158395852Y-99400343D02*
X158300614Y-99305105D01*
X158300614Y-99305105D02*
X158205376Y-99257486D01*
X157395852Y-100209867D02*
X157252995Y-100257486D01*
X157252995Y-100257486D02*
X157014900Y-100257486D01*
X157014900Y-100257486D02*
X156919662Y-100209867D01*
X156919662Y-100209867D02*
X156872043Y-100162247D01*
X156872043Y-100162247D02*
X156824424Y-100067009D01*
X156824424Y-100067009D02*
X156824424Y-99971771D01*
X156824424Y-99971771D02*
X156872043Y-99876533D01*
X156872043Y-99876533D02*
X156919662Y-99828914D01*
X156919662Y-99828914D02*
X157014900Y-99781295D01*
X157014900Y-99781295D02*
X157205376Y-99733676D01*
X157205376Y-99733676D02*
X157300614Y-99686057D01*
X157300614Y-99686057D02*
X157348233Y-99638438D01*
X157348233Y-99638438D02*
X157395852Y-99543200D01*
X157395852Y-99543200D02*
X157395852Y-99447962D01*
X157395852Y-99447962D02*
X157348233Y-99352724D01*
X157348233Y-99352724D02*
X157300614Y-99305105D01*
X157300614Y-99305105D02*
X157205376Y-99257486D01*
X157205376Y-99257486D02*
X156967281Y-99257486D01*
X156967281Y-99257486D02*
X156824424Y-99305105D01*
X156395852Y-100257486D02*
X156395852Y-99257486D01*
X119485376Y-110347289D02*
X119342519Y-110394908D01*
X119342519Y-110394908D02*
X119104424Y-110394908D01*
X119104424Y-110394908D02*
X119009186Y-110347289D01*
X119009186Y-110347289D02*
X118961567Y-110299669D01*
X118961567Y-110299669D02*
X118913948Y-110204431D01*
X118913948Y-110204431D02*
X118913948Y-110109193D01*
X118913948Y-110109193D02*
X118961567Y-110013955D01*
X118961567Y-110013955D02*
X119009186Y-109966336D01*
X119009186Y-109966336D02*
X119104424Y-109918717D01*
X119104424Y-109918717D02*
X119294900Y-109871098D01*
X119294900Y-109871098D02*
X119390138Y-109823479D01*
X119390138Y-109823479D02*
X119437757Y-109775860D01*
X119437757Y-109775860D02*
X119485376Y-109680622D01*
X119485376Y-109680622D02*
X119485376Y-109585384D01*
X119485376Y-109585384D02*
X119437757Y-109490146D01*
X119437757Y-109490146D02*
X119390138Y-109442527D01*
X119390138Y-109442527D02*
X119294900Y-109394908D01*
X119294900Y-109394908D02*
X119056805Y-109394908D01*
X119056805Y-109394908D02*
X118913948Y-109442527D01*
X118580614Y-109394908D02*
X118342519Y-110394908D01*
X118342519Y-110394908D02*
X118152043Y-109680622D01*
X118152043Y-109680622D02*
X117961567Y-110394908D01*
X117961567Y-110394908D02*
X117723472Y-109394908D01*
X116818710Y-110394908D02*
X117390138Y-110394908D01*
X117104424Y-110394908D02*
X117104424Y-109394908D01*
X117104424Y-109394908D02*
X117199662Y-109537765D01*
X117199662Y-109537765D02*
X117294900Y-109633003D01*
X117294900Y-109633003D02*
X117390138Y-109680622D01*
X116390138Y-110013955D02*
X115628234Y-110013955D01*
X114723472Y-109728241D02*
X114723472Y-110394908D01*
X114961567Y-109347289D02*
X115199662Y-110061574D01*
X115199662Y-110061574D02*
X114580615Y-110061574D01*
X113485377Y-109347289D02*
X114342519Y-110633003D01*
X113152043Y-110394908D02*
X113152043Y-109394908D01*
X113152043Y-109394908D02*
X112771091Y-109394908D01*
X112771091Y-109394908D02*
X112675853Y-109442527D01*
X112675853Y-109442527D02*
X112628234Y-109490146D01*
X112628234Y-109490146D02*
X112580615Y-109585384D01*
X112580615Y-109585384D02*
X112580615Y-109728241D01*
X112580615Y-109728241D02*
X112628234Y-109823479D01*
X112628234Y-109823479D02*
X112675853Y-109871098D01*
X112675853Y-109871098D02*
X112771091Y-109918717D01*
X112771091Y-109918717D02*
X113152043Y-109918717D01*
X111818710Y-109871098D02*
X111675853Y-109918717D01*
X111675853Y-109918717D02*
X111628234Y-109966336D01*
X111628234Y-109966336D02*
X111580615Y-110061574D01*
X111580615Y-110061574D02*
X111580615Y-110204431D01*
X111580615Y-110204431D02*
X111628234Y-110299669D01*
X111628234Y-110299669D02*
X111675853Y-110347289D01*
X111675853Y-110347289D02*
X111771091Y-110394908D01*
X111771091Y-110394908D02*
X112152043Y-110394908D01*
X112152043Y-110394908D02*
X112152043Y-109394908D01*
X112152043Y-109394908D02*
X111818710Y-109394908D01*
X111818710Y-109394908D02*
X111723472Y-109442527D01*
X111723472Y-109442527D02*
X111675853Y-109490146D01*
X111675853Y-109490146D02*
X111628234Y-109585384D01*
X111628234Y-109585384D02*
X111628234Y-109680622D01*
X111628234Y-109680622D02*
X111675853Y-109775860D01*
X111675853Y-109775860D02*
X111723472Y-109823479D01*
X111723472Y-109823479D02*
X111818710Y-109871098D01*
X111818710Y-109871098D02*
X112152043Y-109871098D01*
X111199662Y-109490146D02*
X111152043Y-109442527D01*
X111152043Y-109442527D02*
X111056805Y-109394908D01*
X111056805Y-109394908D02*
X110818710Y-109394908D01*
X110818710Y-109394908D02*
X110723472Y-109442527D01*
X110723472Y-109442527D02*
X110675853Y-109490146D01*
X110675853Y-109490146D02*
X110628234Y-109585384D01*
X110628234Y-109585384D02*
X110628234Y-109680622D01*
X110628234Y-109680622D02*
X110675853Y-109823479D01*
X110675853Y-109823479D02*
X111247281Y-110394908D01*
X111247281Y-110394908D02*
X110628234Y-110394908D01*
X162491091Y-110394908D02*
X162491091Y-109394908D01*
X161919663Y-110394908D02*
X162348234Y-109823479D01*
X161919663Y-109394908D02*
X162491091Y-109966336D01*
X161491091Y-110394908D02*
X161491091Y-109394908D01*
X161491091Y-109394908D02*
X161110139Y-109394908D01*
X161110139Y-109394908D02*
X161014901Y-109442527D01*
X161014901Y-109442527D02*
X160967282Y-109490146D01*
X160967282Y-109490146D02*
X160919663Y-109585384D01*
X160919663Y-109585384D02*
X160919663Y-109728241D01*
X160919663Y-109728241D02*
X160967282Y-109823479D01*
X160967282Y-109823479D02*
X161014901Y-109871098D01*
X161014901Y-109871098D02*
X161110139Y-109918717D01*
X161110139Y-109918717D02*
X161491091Y-109918717D01*
X160729187Y-110490146D02*
X159967282Y-110490146D01*
X159157758Y-110299669D02*
X159205377Y-110347289D01*
X159205377Y-110347289D02*
X159348234Y-110394908D01*
X159348234Y-110394908D02*
X159443472Y-110394908D01*
X159443472Y-110394908D02*
X159586329Y-110347289D01*
X159586329Y-110347289D02*
X159681567Y-110252050D01*
X159681567Y-110252050D02*
X159729186Y-110156812D01*
X159729186Y-110156812D02*
X159776805Y-109966336D01*
X159776805Y-109966336D02*
X159776805Y-109823479D01*
X159776805Y-109823479D02*
X159729186Y-109633003D01*
X159729186Y-109633003D02*
X159681567Y-109537765D01*
X159681567Y-109537765D02*
X159586329Y-109442527D01*
X159586329Y-109442527D02*
X159443472Y-109394908D01*
X159443472Y-109394908D02*
X159348234Y-109394908D01*
X159348234Y-109394908D02*
X159205377Y-109442527D01*
X159205377Y-109442527D02*
X159157758Y-109490146D01*
X158538710Y-109394908D02*
X158348234Y-109394908D01*
X158348234Y-109394908D02*
X158252996Y-109442527D01*
X158252996Y-109442527D02*
X158157758Y-109537765D01*
X158157758Y-109537765D02*
X158110139Y-109728241D01*
X158110139Y-109728241D02*
X158110139Y-110061574D01*
X158110139Y-110061574D02*
X158157758Y-110252050D01*
X158157758Y-110252050D02*
X158252996Y-110347289D01*
X158252996Y-110347289D02*
X158348234Y-110394908D01*
X158348234Y-110394908D02*
X158538710Y-110394908D01*
X158538710Y-110394908D02*
X158633948Y-110347289D01*
X158633948Y-110347289D02*
X158729186Y-110252050D01*
X158729186Y-110252050D02*
X158776805Y-110061574D01*
X158776805Y-110061574D02*
X158776805Y-109728241D01*
X158776805Y-109728241D02*
X158729186Y-109537765D01*
X158729186Y-109537765D02*
X158633948Y-109442527D01*
X158633948Y-109442527D02*
X158538710Y-109394908D01*
X157205377Y-110394908D02*
X157681567Y-110394908D01*
X157681567Y-110394908D02*
X157681567Y-109394908D01*
X156967281Y-109394908D02*
X156348234Y-109394908D01*
X156348234Y-109394908D02*
X156681567Y-109775860D01*
X156681567Y-109775860D02*
X156538710Y-109775860D01*
X156538710Y-109775860D02*
X156443472Y-109823479D01*
X156443472Y-109823479D02*
X156395853Y-109871098D01*
X156395853Y-109871098D02*
X156348234Y-109966336D01*
X156348234Y-109966336D02*
X156348234Y-110204431D01*
X156348234Y-110204431D02*
X156395853Y-110299669D01*
X156395853Y-110299669D02*
X156443472Y-110347289D01*
X156443472Y-110347289D02*
X156538710Y-110394908D01*
X156538710Y-110394908D02*
X156824424Y-110394908D01*
X156824424Y-110394908D02*
X156919662Y-110347289D01*
X156919662Y-110347289D02*
X156967281Y-110299669D01*
X98231684Y-92654419D02*
X98231684Y-91654419D01*
X97660256Y-92654419D02*
X98088827Y-92082990D01*
X97660256Y-91654419D02*
X98231684Y-92225847D01*
X97231684Y-92654419D02*
X97231684Y-91654419D01*
X97231684Y-91654419D02*
X96850732Y-91654419D01*
X96850732Y-91654419D02*
X96755494Y-91702038D01*
X96755494Y-91702038D02*
X96707875Y-91749657D01*
X96707875Y-91749657D02*
X96660256Y-91844895D01*
X96660256Y-91844895D02*
X96660256Y-91987752D01*
X96660256Y-91987752D02*
X96707875Y-92082990D01*
X96707875Y-92082990D02*
X96755494Y-92130609D01*
X96755494Y-92130609D02*
X96850732Y-92178228D01*
X96850732Y-92178228D02*
X97231684Y-92178228D01*
X96469780Y-92749657D02*
X95707875Y-92749657D01*
X94898351Y-92654419D02*
X95231684Y-92178228D01*
X95469779Y-92654419D02*
X95469779Y-91654419D01*
X95469779Y-91654419D02*
X95088827Y-91654419D01*
X95088827Y-91654419D02*
X94993589Y-91702038D01*
X94993589Y-91702038D02*
X94945970Y-91749657D01*
X94945970Y-91749657D02*
X94898351Y-91844895D01*
X94898351Y-91844895D02*
X94898351Y-91987752D01*
X94898351Y-91987752D02*
X94945970Y-92082990D01*
X94945970Y-92082990D02*
X94993589Y-92130609D01*
X94993589Y-92130609D02*
X95088827Y-92178228D01*
X95088827Y-92178228D02*
X95469779Y-92178228D01*
X94279303Y-91654419D02*
X94088827Y-91654419D01*
X94088827Y-91654419D02*
X93993589Y-91702038D01*
X93993589Y-91702038D02*
X93898351Y-91797276D01*
X93898351Y-91797276D02*
X93850732Y-91987752D01*
X93850732Y-91987752D02*
X93850732Y-92321085D01*
X93850732Y-92321085D02*
X93898351Y-92511561D01*
X93898351Y-92511561D02*
X93993589Y-92606800D01*
X93993589Y-92606800D02*
X94088827Y-92654419D01*
X94088827Y-92654419D02*
X94279303Y-92654419D01*
X94279303Y-92654419D02*
X94374541Y-92606800D01*
X94374541Y-92606800D02*
X94469779Y-92511561D01*
X94469779Y-92511561D02*
X94517398Y-92321085D01*
X94517398Y-92321085D02*
X94517398Y-91987752D01*
X94517398Y-91987752D02*
X94469779Y-91797276D01*
X94469779Y-91797276D02*
X94374541Y-91702038D01*
X94374541Y-91702038D02*
X94279303Y-91654419D01*
X93517398Y-91654419D02*
X93279303Y-92654419D01*
X93279303Y-92654419D02*
X93088827Y-91940133D01*
X93088827Y-91940133D02*
X92898351Y-92654419D01*
X92898351Y-92654419D02*
X92660256Y-91654419D01*
X92088827Y-91654419D02*
X91993589Y-91654419D01*
X91993589Y-91654419D02*
X91898351Y-91702038D01*
X91898351Y-91702038D02*
X91850732Y-91749657D01*
X91850732Y-91749657D02*
X91803113Y-91844895D01*
X91803113Y-91844895D02*
X91755494Y-92035371D01*
X91755494Y-92035371D02*
X91755494Y-92273466D01*
X91755494Y-92273466D02*
X91803113Y-92463942D01*
X91803113Y-92463942D02*
X91850732Y-92559180D01*
X91850732Y-92559180D02*
X91898351Y-92606800D01*
X91898351Y-92606800D02*
X91993589Y-92654419D01*
X91993589Y-92654419D02*
X92088827Y-92654419D01*
X92088827Y-92654419D02*
X92184065Y-92606800D01*
X92184065Y-92606800D02*
X92231684Y-92559180D01*
X92231684Y-92559180D02*
X92279303Y-92463942D01*
X92279303Y-92463942D02*
X92326922Y-92273466D01*
X92326922Y-92273466D02*
X92326922Y-92035371D01*
X92326922Y-92035371D02*
X92279303Y-91844895D01*
X92279303Y-91844895D02*
X92231684Y-91749657D01*
X92231684Y-91749657D02*
X92184065Y-91702038D01*
X92184065Y-91702038D02*
X92088827Y-91654419D01*
X143551694Y-102791841D02*
X144027884Y-102791841D01*
X144027884Y-102791841D02*
X144027884Y-101791841D01*
X143218360Y-102791841D02*
X143218360Y-101791841D01*
X142742170Y-102791841D02*
X142742170Y-101791841D01*
X142742170Y-101791841D02*
X142170742Y-102791841D01*
X142170742Y-102791841D02*
X142170742Y-101791841D01*
X141837408Y-101791841D02*
X141265980Y-101791841D01*
X141551694Y-102791841D02*
X141551694Y-101791841D01*
X141027884Y-101791841D02*
X140361218Y-102791841D01*
X140361218Y-101791841D02*
X141027884Y-102791841D01*
X162062519Y-107812933D02*
X161919662Y-107860552D01*
X161919662Y-107860552D02*
X161681567Y-107860552D01*
X161681567Y-107860552D02*
X161586329Y-107812933D01*
X161586329Y-107812933D02*
X161538710Y-107765313D01*
X161538710Y-107765313D02*
X161491091Y-107670075D01*
X161491091Y-107670075D02*
X161491091Y-107574837D01*
X161491091Y-107574837D02*
X161538710Y-107479599D01*
X161538710Y-107479599D02*
X161586329Y-107431980D01*
X161586329Y-107431980D02*
X161681567Y-107384361D01*
X161681567Y-107384361D02*
X161872043Y-107336742D01*
X161872043Y-107336742D02*
X161967281Y-107289123D01*
X161967281Y-107289123D02*
X162014900Y-107241504D01*
X162014900Y-107241504D02*
X162062519Y-107146266D01*
X162062519Y-107146266D02*
X162062519Y-107051028D01*
X162062519Y-107051028D02*
X162014900Y-106955790D01*
X162014900Y-106955790D02*
X161967281Y-106908171D01*
X161967281Y-106908171D02*
X161872043Y-106860552D01*
X161872043Y-106860552D02*
X161633948Y-106860552D01*
X161633948Y-106860552D02*
X161491091Y-106908171D01*
X161062519Y-107860552D02*
X161062519Y-106860552D01*
X161062519Y-106860552D02*
X160681567Y-106860552D01*
X160681567Y-106860552D02*
X160586329Y-106908171D01*
X160586329Y-106908171D02*
X160538710Y-106955790D01*
X160538710Y-106955790D02*
X160491091Y-107051028D01*
X160491091Y-107051028D02*
X160491091Y-107193885D01*
X160491091Y-107193885D02*
X160538710Y-107289123D01*
X160538710Y-107289123D02*
X160586329Y-107336742D01*
X160586329Y-107336742D02*
X160681567Y-107384361D01*
X160681567Y-107384361D02*
X161062519Y-107384361D01*
X160062519Y-107860552D02*
X160062519Y-106860552D01*
X159824425Y-107955790D02*
X159062520Y-107955790D01*
X158252996Y-107765313D02*
X158300615Y-107812933D01*
X158300615Y-107812933D02*
X158443472Y-107860552D01*
X158443472Y-107860552D02*
X158538710Y-107860552D01*
X158538710Y-107860552D02*
X158681567Y-107812933D01*
X158681567Y-107812933D02*
X158776805Y-107717694D01*
X158776805Y-107717694D02*
X158824424Y-107622456D01*
X158824424Y-107622456D02*
X158872043Y-107431980D01*
X158872043Y-107431980D02*
X158872043Y-107289123D01*
X158872043Y-107289123D02*
X158824424Y-107098647D01*
X158824424Y-107098647D02*
X158776805Y-107003409D01*
X158776805Y-107003409D02*
X158681567Y-106908171D01*
X158681567Y-106908171D02*
X158538710Y-106860552D01*
X158538710Y-106860552D02*
X158443472Y-106860552D01*
X158443472Y-106860552D02*
X158300615Y-106908171D01*
X158300615Y-106908171D02*
X158252996Y-106955790D01*
X157872043Y-107812933D02*
X157729186Y-107860552D01*
X157729186Y-107860552D02*
X157491091Y-107860552D01*
X157491091Y-107860552D02*
X157395853Y-107812933D01*
X157395853Y-107812933D02*
X157348234Y-107765313D01*
X157348234Y-107765313D02*
X157300615Y-107670075D01*
X157300615Y-107670075D02*
X157300615Y-107574837D01*
X157300615Y-107574837D02*
X157348234Y-107479599D01*
X157348234Y-107479599D02*
X157395853Y-107431980D01*
X157395853Y-107431980D02*
X157491091Y-107384361D01*
X157491091Y-107384361D02*
X157681567Y-107336742D01*
X157681567Y-107336742D02*
X157776805Y-107289123D01*
X157776805Y-107289123D02*
X157824424Y-107241504D01*
X157824424Y-107241504D02*
X157872043Y-107146266D01*
X157872043Y-107146266D02*
X157872043Y-107051028D01*
X157872043Y-107051028D02*
X157824424Y-106955790D01*
X157824424Y-106955790D02*
X157776805Y-106908171D01*
X157776805Y-106908171D02*
X157681567Y-106860552D01*
X157681567Y-106860552D02*
X157443472Y-106860552D01*
X157443472Y-106860552D02*
X157300615Y-106908171D01*
X156348234Y-107860552D02*
X156919662Y-107860552D01*
X156633948Y-107860552D02*
X156633948Y-106860552D01*
X156633948Y-106860552D02*
X156729186Y-107003409D01*
X156729186Y-107003409D02*
X156824424Y-107098647D01*
X156824424Y-107098647D02*
X156919662Y-107146266D01*
X119485376Y-97675511D02*
X119342519Y-97723130D01*
X119342519Y-97723130D02*
X119104424Y-97723130D01*
X119104424Y-97723130D02*
X119009186Y-97675511D01*
X119009186Y-97675511D02*
X118961567Y-97627891D01*
X118961567Y-97627891D02*
X118913948Y-97532653D01*
X118913948Y-97532653D02*
X118913948Y-97437415D01*
X118913948Y-97437415D02*
X118961567Y-97342177D01*
X118961567Y-97342177D02*
X119009186Y-97294558D01*
X119009186Y-97294558D02*
X119104424Y-97246939D01*
X119104424Y-97246939D02*
X119294900Y-97199320D01*
X119294900Y-97199320D02*
X119390138Y-97151701D01*
X119390138Y-97151701D02*
X119437757Y-97104082D01*
X119437757Y-97104082D02*
X119485376Y-97008844D01*
X119485376Y-97008844D02*
X119485376Y-96913606D01*
X119485376Y-96913606D02*
X119437757Y-96818368D01*
X119437757Y-96818368D02*
X119390138Y-96770749D01*
X119390138Y-96770749D02*
X119294900Y-96723130D01*
X119294900Y-96723130D02*
X119056805Y-96723130D01*
X119056805Y-96723130D02*
X118913948Y-96770749D01*
X118580614Y-96723130D02*
X118342519Y-97723130D01*
X118342519Y-97723130D02*
X118152043Y-97008844D01*
X118152043Y-97008844D02*
X117961567Y-97723130D01*
X117961567Y-97723130D02*
X117723472Y-96723130D01*
X116818710Y-97723130D02*
X117390138Y-97723130D01*
X117104424Y-97723130D02*
X117104424Y-96723130D01*
X117104424Y-96723130D02*
X117199662Y-96865987D01*
X117199662Y-96865987D02*
X117294900Y-96961225D01*
X117294900Y-96961225D02*
X117390138Y-97008844D01*
X116390138Y-97342177D02*
X115628234Y-97342177D01*
X115247281Y-96723130D02*
X114628234Y-96723130D01*
X114628234Y-96723130D02*
X114961567Y-97104082D01*
X114961567Y-97104082D02*
X114818710Y-97104082D01*
X114818710Y-97104082D02*
X114723472Y-97151701D01*
X114723472Y-97151701D02*
X114675853Y-97199320D01*
X114675853Y-97199320D02*
X114628234Y-97294558D01*
X114628234Y-97294558D02*
X114628234Y-97532653D01*
X114628234Y-97532653D02*
X114675853Y-97627891D01*
X114675853Y-97627891D02*
X114723472Y-97675511D01*
X114723472Y-97675511D02*
X114818710Y-97723130D01*
X114818710Y-97723130D02*
X115104424Y-97723130D01*
X115104424Y-97723130D02*
X115199662Y-97675511D01*
X115199662Y-97675511D02*
X115247281Y-97627891D01*
X113485377Y-96675511D02*
X114342519Y-97961225D01*
X113152043Y-97723130D02*
X113152043Y-96723130D01*
X113152043Y-96723130D02*
X112771091Y-96723130D01*
X112771091Y-96723130D02*
X112675853Y-96770749D01*
X112675853Y-96770749D02*
X112628234Y-96818368D01*
X112628234Y-96818368D02*
X112580615Y-96913606D01*
X112580615Y-96913606D02*
X112580615Y-97056463D01*
X112580615Y-97056463D02*
X112628234Y-97151701D01*
X112628234Y-97151701D02*
X112675853Y-97199320D01*
X112675853Y-97199320D02*
X112771091Y-97246939D01*
X112771091Y-97246939D02*
X113152043Y-97246939D01*
X111818710Y-97199320D02*
X111675853Y-97246939D01*
X111675853Y-97246939D02*
X111628234Y-97294558D01*
X111628234Y-97294558D02*
X111580615Y-97389796D01*
X111580615Y-97389796D02*
X111580615Y-97532653D01*
X111580615Y-97532653D02*
X111628234Y-97627891D01*
X111628234Y-97627891D02*
X111675853Y-97675511D01*
X111675853Y-97675511D02*
X111771091Y-97723130D01*
X111771091Y-97723130D02*
X112152043Y-97723130D01*
X112152043Y-97723130D02*
X112152043Y-96723130D01*
X112152043Y-96723130D02*
X111818710Y-96723130D01*
X111818710Y-96723130D02*
X111723472Y-96770749D01*
X111723472Y-96770749D02*
X111675853Y-96818368D01*
X111675853Y-96818368D02*
X111628234Y-96913606D01*
X111628234Y-96913606D02*
X111628234Y-97008844D01*
X111628234Y-97008844D02*
X111675853Y-97104082D01*
X111675853Y-97104082D02*
X111723472Y-97151701D01*
X111723472Y-97151701D02*
X111818710Y-97199320D01*
X111818710Y-97199320D02*
X112152043Y-97199320D01*
X110628234Y-97723130D02*
X111199662Y-97723130D01*
X110913948Y-97723130D02*
X110913948Y-96723130D01*
X110913948Y-96723130D02*
X111009186Y-96865987D01*
X111009186Y-96865987D02*
X111104424Y-96961225D01*
X111104424Y-96961225D02*
X111199662Y-97008844D01*
X115485376Y-92606800D02*
X115342519Y-92654419D01*
X115342519Y-92654419D02*
X115104424Y-92654419D01*
X115104424Y-92654419D02*
X115009186Y-92606800D01*
X115009186Y-92606800D02*
X114961567Y-92559180D01*
X114961567Y-92559180D02*
X114913948Y-92463942D01*
X114913948Y-92463942D02*
X114913948Y-92368704D01*
X114913948Y-92368704D02*
X114961567Y-92273466D01*
X114961567Y-92273466D02*
X115009186Y-92225847D01*
X115009186Y-92225847D02*
X115104424Y-92178228D01*
X115104424Y-92178228D02*
X115294900Y-92130609D01*
X115294900Y-92130609D02*
X115390138Y-92082990D01*
X115390138Y-92082990D02*
X115437757Y-92035371D01*
X115437757Y-92035371D02*
X115485376Y-91940133D01*
X115485376Y-91940133D02*
X115485376Y-91844895D01*
X115485376Y-91844895D02*
X115437757Y-91749657D01*
X115437757Y-91749657D02*
X115390138Y-91702038D01*
X115390138Y-91702038D02*
X115294900Y-91654419D01*
X115294900Y-91654419D02*
X115056805Y-91654419D01*
X115056805Y-91654419D02*
X114913948Y-91702038D01*
X114580614Y-91654419D02*
X114342519Y-92654419D01*
X114342519Y-92654419D02*
X114152043Y-91940133D01*
X114152043Y-91940133D02*
X113961567Y-92654419D01*
X113961567Y-92654419D02*
X113723472Y-91654419D01*
X112818710Y-92654419D02*
X113390138Y-92654419D01*
X113104424Y-92654419D02*
X113104424Y-91654419D01*
X113104424Y-91654419D02*
X113199662Y-91797276D01*
X113199662Y-91797276D02*
X113294900Y-91892514D01*
X113294900Y-91892514D02*
X113390138Y-91940133D01*
X112390138Y-92273466D02*
X111628234Y-92273466D01*
X110628234Y-92654419D02*
X111199662Y-92654419D01*
X110913948Y-92654419D02*
X110913948Y-91654419D01*
X110913948Y-91654419D02*
X111009186Y-91797276D01*
X111009186Y-91797276D02*
X111104424Y-91892514D01*
X111104424Y-91892514D02*
X111199662Y-91940133D01*
D11*
X103469697Y-112474742D02*
X103469697Y-113331885D01*
X103469697Y-113331885D02*
X103526840Y-113503314D01*
X103526840Y-113503314D02*
X103641126Y-113617600D01*
X103641126Y-113617600D02*
X103812554Y-113674742D01*
X103812554Y-113674742D02*
X103926840Y-113674742D01*
X103183983Y-113789028D02*
X102269697Y-113789028D01*
X101755411Y-112474742D02*
X101526839Y-112474742D01*
X101526839Y-112474742D02*
X101412554Y-112531885D01*
X101412554Y-112531885D02*
X101298268Y-112646171D01*
X101298268Y-112646171D02*
X101241125Y-112874742D01*
X101241125Y-112874742D02*
X101241125Y-113274742D01*
X101241125Y-113274742D02*
X101298268Y-113503314D01*
X101298268Y-113503314D02*
X101412554Y-113617600D01*
X101412554Y-113617600D02*
X101526839Y-113674742D01*
X101526839Y-113674742D02*
X101755411Y-113674742D01*
X101755411Y-113674742D02*
X101869697Y-113617600D01*
X101869697Y-113617600D02*
X101983982Y-113503314D01*
X101983982Y-113503314D02*
X102041125Y-113274742D01*
X102041125Y-113274742D02*
X102041125Y-112874742D01*
X102041125Y-112874742D02*
X101983982Y-112646171D01*
X101983982Y-112646171D02*
X101869697Y-112531885D01*
X101869697Y-112531885D02*
X101755411Y-112474742D01*
X100726839Y-112474742D02*
X100726839Y-113446171D01*
X100726839Y-113446171D02*
X100669696Y-113560457D01*
X100669696Y-113560457D02*
X100612554Y-113617600D01*
X100612554Y-113617600D02*
X100498268Y-113674742D01*
X100498268Y-113674742D02*
X100269696Y-113674742D01*
X100269696Y-113674742D02*
X100155411Y-113617600D01*
X100155411Y-113617600D02*
X100098268Y-113560457D01*
X100098268Y-113560457D02*
X100041125Y-113446171D01*
X100041125Y-113446171D02*
X100041125Y-112474742D01*
X99641125Y-112474742D02*
X98955411Y-112474742D01*
X99298268Y-113674742D02*
X99298268Y-112474742D01*
X98669696Y-112474742D02*
X97926839Y-112474742D01*
X97926839Y-112474742D02*
X98326839Y-112931885D01*
X98326839Y-112931885D02*
X98155410Y-112931885D01*
X98155410Y-112931885D02*
X98041125Y-112989028D01*
X98041125Y-112989028D02*
X97983982Y-113046171D01*
X97983982Y-113046171D02*
X97926839Y-113160457D01*
X97926839Y-113160457D02*
X97926839Y-113446171D01*
X97926839Y-113446171D02*
X97983982Y-113560457D01*
X97983982Y-113560457D02*
X98041125Y-113617600D01*
X98041125Y-113617600D02*
X98155410Y-113674742D01*
X98155410Y-113674742D02*
X98498267Y-113674742D01*
X98498267Y-113674742D02*
X98612553Y-113617600D01*
X98612553Y-113617600D02*
X98669696Y-113560457D01*
D10*
X113247281Y-87204755D02*
X112485377Y-87204755D01*
X112866329Y-87585708D02*
X112866329Y-86823803D01*
X111532996Y-86585708D02*
X112009186Y-86585708D01*
X112009186Y-86585708D02*
X112056805Y-87061898D01*
X112056805Y-87061898D02*
X112009186Y-87014279D01*
X112009186Y-87014279D02*
X111913948Y-86966660D01*
X111913948Y-86966660D02*
X111675853Y-86966660D01*
X111675853Y-86966660D02*
X111580615Y-87014279D01*
X111580615Y-87014279D02*
X111532996Y-87061898D01*
X111532996Y-87061898D02*
X111485377Y-87157136D01*
X111485377Y-87157136D02*
X111485377Y-87395231D01*
X111485377Y-87395231D02*
X111532996Y-87490469D01*
X111532996Y-87490469D02*
X111580615Y-87538089D01*
X111580615Y-87538089D02*
X111675853Y-87585708D01*
X111675853Y-87585708D02*
X111913948Y-87585708D01*
X111913948Y-87585708D02*
X112009186Y-87538089D01*
X112009186Y-87538089D02*
X112056805Y-87490469D01*
X111199662Y-86585708D02*
X110866329Y-87585708D01*
X110866329Y-87585708D02*
X110532996Y-86585708D01*
X98231684Y-107860552D02*
X98231684Y-106860552D01*
X97803113Y-106955790D02*
X97755494Y-106908171D01*
X97755494Y-106908171D02*
X97660256Y-106860552D01*
X97660256Y-106860552D02*
X97422161Y-106860552D01*
X97422161Y-106860552D02*
X97326923Y-106908171D01*
X97326923Y-106908171D02*
X97279304Y-106955790D01*
X97279304Y-106955790D02*
X97231685Y-107051028D01*
X97231685Y-107051028D02*
X97231685Y-107146266D01*
X97231685Y-107146266D02*
X97279304Y-107289123D01*
X97279304Y-107289123D02*
X97850732Y-107860552D01*
X97850732Y-107860552D02*
X97231685Y-107860552D01*
X96231685Y-107765313D02*
X96279304Y-107812933D01*
X96279304Y-107812933D02*
X96422161Y-107860552D01*
X96422161Y-107860552D02*
X96517399Y-107860552D01*
X96517399Y-107860552D02*
X96660256Y-107812933D01*
X96660256Y-107812933D02*
X96755494Y-107717694D01*
X96755494Y-107717694D02*
X96803113Y-107622456D01*
X96803113Y-107622456D02*
X96850732Y-107431980D01*
X96850732Y-107431980D02*
X96850732Y-107289123D01*
X96850732Y-107289123D02*
X96803113Y-107098647D01*
X96803113Y-107098647D02*
X96755494Y-107003409D01*
X96755494Y-107003409D02*
X96660256Y-106908171D01*
X96660256Y-106908171D02*
X96517399Y-106860552D01*
X96517399Y-106860552D02*
X96422161Y-106860552D01*
X96422161Y-106860552D02*
X96279304Y-106908171D01*
X96279304Y-106908171D02*
X96231685Y-106955790D01*
X96041209Y-107955790D02*
X95279304Y-107955790D01*
X95088827Y-107812933D02*
X94945970Y-107860552D01*
X94945970Y-107860552D02*
X94707875Y-107860552D01*
X94707875Y-107860552D02*
X94612637Y-107812933D01*
X94612637Y-107812933D02*
X94565018Y-107765313D01*
X94565018Y-107765313D02*
X94517399Y-107670075D01*
X94517399Y-107670075D02*
X94517399Y-107574837D01*
X94517399Y-107574837D02*
X94565018Y-107479599D01*
X94565018Y-107479599D02*
X94612637Y-107431980D01*
X94612637Y-107431980D02*
X94707875Y-107384361D01*
X94707875Y-107384361D02*
X94898351Y-107336742D01*
X94898351Y-107336742D02*
X94993589Y-107289123D01*
X94993589Y-107289123D02*
X95041208Y-107241504D01*
X95041208Y-107241504D02*
X95088827Y-107146266D01*
X95088827Y-107146266D02*
X95088827Y-107051028D01*
X95088827Y-107051028D02*
X95041208Y-106955790D01*
X95041208Y-106955790D02*
X94993589Y-106908171D01*
X94993589Y-106908171D02*
X94898351Y-106860552D01*
X94898351Y-106860552D02*
X94660256Y-106860552D01*
X94660256Y-106860552D02*
X94517399Y-106908171D01*
X93517399Y-107765313D02*
X93565018Y-107812933D01*
X93565018Y-107812933D02*
X93707875Y-107860552D01*
X93707875Y-107860552D02*
X93803113Y-107860552D01*
X93803113Y-107860552D02*
X93945970Y-107812933D01*
X93945970Y-107812933D02*
X94041208Y-107717694D01*
X94041208Y-107717694D02*
X94088827Y-107622456D01*
X94088827Y-107622456D02*
X94136446Y-107431980D01*
X94136446Y-107431980D02*
X94136446Y-107289123D01*
X94136446Y-107289123D02*
X94088827Y-107098647D01*
X94088827Y-107098647D02*
X94041208Y-107003409D01*
X94041208Y-107003409D02*
X93945970Y-106908171D01*
X93945970Y-106908171D02*
X93803113Y-106860552D01*
X93803113Y-106860552D02*
X93707875Y-106860552D01*
X93707875Y-106860552D02*
X93565018Y-106908171D01*
X93565018Y-106908171D02*
X93517399Y-106955790D01*
X92612637Y-107860552D02*
X93088827Y-107860552D01*
X93088827Y-107860552D02*
X93088827Y-106860552D01*
D11*
X149214597Y-112474742D02*
X149214597Y-113331885D01*
X149214597Y-113331885D02*
X149271740Y-113503314D01*
X149271740Y-113503314D02*
X149386026Y-113617600D01*
X149386026Y-113617600D02*
X149557454Y-113674742D01*
X149557454Y-113674742D02*
X149671740Y-113674742D01*
X148928883Y-113789028D02*
X148014597Y-113789028D01*
X147500311Y-112474742D02*
X147271739Y-112474742D01*
X147271739Y-112474742D02*
X147157454Y-112531885D01*
X147157454Y-112531885D02*
X147043168Y-112646171D01*
X147043168Y-112646171D02*
X146986025Y-112874742D01*
X146986025Y-112874742D02*
X146986025Y-113274742D01*
X146986025Y-113274742D02*
X147043168Y-113503314D01*
X147043168Y-113503314D02*
X147157454Y-113617600D01*
X147157454Y-113617600D02*
X147271739Y-113674742D01*
X147271739Y-113674742D02*
X147500311Y-113674742D01*
X147500311Y-113674742D02*
X147614597Y-113617600D01*
X147614597Y-113617600D02*
X147728882Y-113503314D01*
X147728882Y-113503314D02*
X147786025Y-113274742D01*
X147786025Y-113274742D02*
X147786025Y-112874742D01*
X147786025Y-112874742D02*
X147728882Y-112646171D01*
X147728882Y-112646171D02*
X147614597Y-112531885D01*
X147614597Y-112531885D02*
X147500311Y-112474742D01*
X146471739Y-112474742D02*
X146471739Y-113446171D01*
X146471739Y-113446171D02*
X146414596Y-113560457D01*
X146414596Y-113560457D02*
X146357454Y-113617600D01*
X146357454Y-113617600D02*
X146243168Y-113674742D01*
X146243168Y-113674742D02*
X146014596Y-113674742D01*
X146014596Y-113674742D02*
X145900311Y-113617600D01*
X145900311Y-113617600D02*
X145843168Y-113560457D01*
X145843168Y-113560457D02*
X145786025Y-113446171D01*
X145786025Y-113446171D02*
X145786025Y-112474742D01*
X145386025Y-112474742D02*
X144700311Y-112474742D01*
X145043168Y-113674742D02*
X145043168Y-112474742D01*
X144357453Y-112589028D02*
X144300310Y-112531885D01*
X144300310Y-112531885D02*
X144186025Y-112474742D01*
X144186025Y-112474742D02*
X143900310Y-112474742D01*
X143900310Y-112474742D02*
X143786025Y-112531885D01*
X143786025Y-112531885D02*
X143728882Y-112589028D01*
X143728882Y-112589028D02*
X143671739Y-112703314D01*
X143671739Y-112703314D02*
X143671739Y-112817600D01*
X143671739Y-112817600D02*
X143728882Y-112989028D01*
X143728882Y-112989028D02*
X144414596Y-113674742D01*
X144414596Y-113674742D02*
X143671739Y-113674742D01*
D10*
X112723472Y-89167683D02*
X112818710Y-89120064D01*
X112818710Y-89120064D02*
X112961567Y-89120064D01*
X112961567Y-89120064D02*
X113104424Y-89167683D01*
X113104424Y-89167683D02*
X113199662Y-89262921D01*
X113199662Y-89262921D02*
X113247281Y-89358159D01*
X113247281Y-89358159D02*
X113294900Y-89548635D01*
X113294900Y-89548635D02*
X113294900Y-89691492D01*
X113294900Y-89691492D02*
X113247281Y-89881968D01*
X113247281Y-89881968D02*
X113199662Y-89977206D01*
X113199662Y-89977206D02*
X113104424Y-90072445D01*
X113104424Y-90072445D02*
X112961567Y-90120064D01*
X112961567Y-90120064D02*
X112866329Y-90120064D01*
X112866329Y-90120064D02*
X112723472Y-90072445D01*
X112723472Y-90072445D02*
X112675853Y-90024825D01*
X112675853Y-90024825D02*
X112675853Y-89691492D01*
X112675853Y-89691492D02*
X112866329Y-89691492D01*
X112247281Y-90120064D02*
X112247281Y-89120064D01*
X112247281Y-89120064D02*
X111675853Y-90120064D01*
X111675853Y-90120064D02*
X111675853Y-89120064D01*
X111199662Y-90120064D02*
X111199662Y-89120064D01*
X111199662Y-89120064D02*
X110961567Y-89120064D01*
X110961567Y-89120064D02*
X110818710Y-89167683D01*
X110818710Y-89167683D02*
X110723472Y-89262921D01*
X110723472Y-89262921D02*
X110675853Y-89358159D01*
X110675853Y-89358159D02*
X110628234Y-89548635D01*
X110628234Y-89548635D02*
X110628234Y-89691492D01*
X110628234Y-89691492D02*
X110675853Y-89881968D01*
X110675853Y-89881968D02*
X110723472Y-89977206D01*
X110723472Y-89977206D02*
X110818710Y-90072445D01*
X110818710Y-90072445D02*
X110961567Y-90120064D01*
X110961567Y-90120064D02*
X111199662Y-90120064D01*
X143551694Y-92654419D02*
X144027884Y-92654419D01*
X144027884Y-92654419D02*
X144027884Y-91654419D01*
X143218360Y-92130609D02*
X142885027Y-92130609D01*
X142742170Y-92654419D02*
X143218360Y-92654419D01*
X143218360Y-92654419D02*
X143218360Y-91654419D01*
X143218360Y-91654419D02*
X142742170Y-91654419D01*
X142313598Y-92654419D02*
X142313598Y-91654419D01*
X142313598Y-91654419D02*
X142075503Y-91654419D01*
X142075503Y-91654419D02*
X141932646Y-91702038D01*
X141932646Y-91702038D02*
X141837408Y-91797276D01*
X141837408Y-91797276D02*
X141789789Y-91892514D01*
X141789789Y-91892514D02*
X141742170Y-92082990D01*
X141742170Y-92082990D02*
X141742170Y-92225847D01*
X141742170Y-92225847D02*
X141789789Y-92416323D01*
X141789789Y-92416323D02*
X141837408Y-92511561D01*
X141837408Y-92511561D02*
X141932646Y-92606800D01*
X141932646Y-92606800D02*
X142075503Y-92654419D01*
X142075503Y-92654419D02*
X142313598Y-92654419D01*
X141123122Y-91654419D02*
X141027884Y-91654419D01*
X141027884Y-91654419D02*
X140932646Y-91702038D01*
X140932646Y-91702038D02*
X140885027Y-91749657D01*
X140885027Y-91749657D02*
X140837408Y-91844895D01*
X140837408Y-91844895D02*
X140789789Y-92035371D01*
X140789789Y-92035371D02*
X140789789Y-92273466D01*
X140789789Y-92273466D02*
X140837408Y-92463942D01*
X140837408Y-92463942D02*
X140885027Y-92559180D01*
X140885027Y-92559180D02*
X140932646Y-92606800D01*
X140932646Y-92606800D02*
X141027884Y-92654419D01*
X141027884Y-92654419D02*
X141123122Y-92654419D01*
X141123122Y-92654419D02*
X141218360Y-92606800D01*
X141218360Y-92606800D02*
X141265979Y-92559180D01*
X141265979Y-92559180D02*
X141313598Y-92463942D01*
X141313598Y-92463942D02*
X141361217Y-92273466D01*
X141361217Y-92273466D02*
X141361217Y-92035371D01*
X141361217Y-92035371D02*
X141313598Y-91844895D01*
X141313598Y-91844895D02*
X141265979Y-91749657D01*
X141265979Y-91749657D02*
X141218360Y-91702038D01*
X141218360Y-91702038D02*
X141123122Y-91654419D01*
X139646932Y-91606800D02*
X140504074Y-92892514D01*
X139313598Y-92654419D02*
X139313598Y-91654419D01*
X139313598Y-91654419D02*
X138932646Y-91654419D01*
X138932646Y-91654419D02*
X138837408Y-91702038D01*
X138837408Y-91702038D02*
X138789789Y-91749657D01*
X138789789Y-91749657D02*
X138742170Y-91844895D01*
X138742170Y-91844895D02*
X138742170Y-91987752D01*
X138742170Y-91987752D02*
X138789789Y-92082990D01*
X138789789Y-92082990D02*
X138837408Y-92130609D01*
X138837408Y-92130609D02*
X138932646Y-92178228D01*
X138932646Y-92178228D02*
X139313598Y-92178228D01*
X138408836Y-91654419D02*
X138170741Y-92654419D01*
X138170741Y-92654419D02*
X137980265Y-91940133D01*
X137980265Y-91940133D02*
X137789789Y-92654419D01*
X137789789Y-92654419D02*
X137551694Y-91654419D01*
X137170741Y-92654419D02*
X137170741Y-91654419D01*
X137170741Y-91654419D02*
X136837408Y-92368704D01*
X136837408Y-92368704D02*
X136504075Y-91654419D01*
X136504075Y-91654419D02*
X136504075Y-92654419D01*
X98231684Y-90120064D02*
X98231684Y-89120064D01*
X98231684Y-89120064D02*
X97993589Y-89120064D01*
X97993589Y-89120064D02*
X97850732Y-89167683D01*
X97850732Y-89167683D02*
X97755494Y-89262921D01*
X97755494Y-89262921D02*
X97707875Y-89358159D01*
X97707875Y-89358159D02*
X97660256Y-89548635D01*
X97660256Y-89548635D02*
X97660256Y-89691492D01*
X97660256Y-89691492D02*
X97707875Y-89881968D01*
X97707875Y-89881968D02*
X97755494Y-89977206D01*
X97755494Y-89977206D02*
X97850732Y-90072445D01*
X97850732Y-90072445D02*
X97993589Y-90120064D01*
X97993589Y-90120064D02*
X98231684Y-90120064D01*
X97231684Y-90120064D02*
X97231684Y-89120064D01*
X96231685Y-89167683D02*
X96326923Y-89120064D01*
X96326923Y-89120064D02*
X96469780Y-89120064D01*
X96469780Y-89120064D02*
X96612637Y-89167683D01*
X96612637Y-89167683D02*
X96707875Y-89262921D01*
X96707875Y-89262921D02*
X96755494Y-89358159D01*
X96755494Y-89358159D02*
X96803113Y-89548635D01*
X96803113Y-89548635D02*
X96803113Y-89691492D01*
X96803113Y-89691492D02*
X96755494Y-89881968D01*
X96755494Y-89881968D02*
X96707875Y-89977206D01*
X96707875Y-89977206D02*
X96612637Y-90072445D01*
X96612637Y-90072445D02*
X96469780Y-90120064D01*
X96469780Y-90120064D02*
X96374542Y-90120064D01*
X96374542Y-90120064D02*
X96231685Y-90072445D01*
X96231685Y-90072445D02*
X96184066Y-90024825D01*
X96184066Y-90024825D02*
X96184066Y-89691492D01*
X96184066Y-89691492D02*
X96374542Y-89691492D01*
X95231685Y-90120064D02*
X95803113Y-90120064D01*
X95517399Y-90120064D02*
X95517399Y-89120064D01*
X95517399Y-89120064D02*
X95612637Y-89262921D01*
X95612637Y-89262921D02*
X95707875Y-89358159D01*
X95707875Y-89358159D02*
X95803113Y-89405778D01*
X95041209Y-90215302D02*
X94279304Y-90215302D01*
X94041208Y-89596254D02*
X93707875Y-89596254D01*
X93565018Y-90120064D02*
X94041208Y-90120064D01*
X94041208Y-90120064D02*
X94041208Y-89120064D01*
X94041208Y-89120064D02*
X93565018Y-89120064D01*
X93136446Y-90120064D02*
X93136446Y-89120064D01*
X93136446Y-89120064D02*
X92565018Y-90120064D01*
X92565018Y-90120064D02*
X92565018Y-89120064D01*
X143551694Y-95188775D02*
X144027884Y-95188775D01*
X144027884Y-95188775D02*
X144027884Y-94188775D01*
X143218360Y-94664965D02*
X142885027Y-94664965D01*
X142742170Y-95188775D02*
X143218360Y-95188775D01*
X143218360Y-95188775D02*
X143218360Y-94188775D01*
X143218360Y-94188775D02*
X142742170Y-94188775D01*
X142313598Y-95188775D02*
X142313598Y-94188775D01*
X142313598Y-94188775D02*
X142075503Y-94188775D01*
X142075503Y-94188775D02*
X141932646Y-94236394D01*
X141932646Y-94236394D02*
X141837408Y-94331632D01*
X141837408Y-94331632D02*
X141789789Y-94426870D01*
X141789789Y-94426870D02*
X141742170Y-94617346D01*
X141742170Y-94617346D02*
X141742170Y-94760203D01*
X141742170Y-94760203D02*
X141789789Y-94950679D01*
X141789789Y-94950679D02*
X141837408Y-95045917D01*
X141837408Y-95045917D02*
X141932646Y-95141156D01*
X141932646Y-95141156D02*
X142075503Y-95188775D01*
X142075503Y-95188775D02*
X142313598Y-95188775D01*
X140789789Y-95188775D02*
X141361217Y-95188775D01*
X141075503Y-95188775D02*
X141075503Y-94188775D01*
X141075503Y-94188775D02*
X141170741Y-94331632D01*
X141170741Y-94331632D02*
X141265979Y-94426870D01*
X141265979Y-94426870D02*
X141361217Y-94474489D01*
X139646932Y-94141156D02*
X140504074Y-95426870D01*
X139313598Y-95188775D02*
X139313598Y-94188775D01*
X139313598Y-94188775D02*
X139075503Y-94188775D01*
X139075503Y-94188775D02*
X138932646Y-94236394D01*
X138932646Y-94236394D02*
X138837408Y-94331632D01*
X138837408Y-94331632D02*
X138789789Y-94426870D01*
X138789789Y-94426870D02*
X138742170Y-94617346D01*
X138742170Y-94617346D02*
X138742170Y-94760203D01*
X138742170Y-94760203D02*
X138789789Y-94950679D01*
X138789789Y-94950679D02*
X138837408Y-95045917D01*
X138837408Y-95045917D02*
X138932646Y-95141156D01*
X138932646Y-95141156D02*
X139075503Y-95188775D01*
X139075503Y-95188775D02*
X139313598Y-95188775D01*
X138313598Y-95188775D02*
X138313598Y-94188775D01*
X137265980Y-95188775D02*
X137599313Y-94712584D01*
X137837408Y-95188775D02*
X137837408Y-94188775D01*
X137837408Y-94188775D02*
X137456456Y-94188775D01*
X137456456Y-94188775D02*
X137361218Y-94236394D01*
X137361218Y-94236394D02*
X137313599Y-94284013D01*
X137313599Y-94284013D02*
X137265980Y-94379251D01*
X137265980Y-94379251D02*
X137265980Y-94522108D01*
X137265980Y-94522108D02*
X137313599Y-94617346D01*
X137313599Y-94617346D02*
X137361218Y-94664965D01*
X137361218Y-94664965D02*
X137456456Y-94712584D01*
X137456456Y-94712584D02*
X137837408Y-94712584D01*
X137075504Y-95284013D02*
X136313599Y-95284013D01*
X136123122Y-94903060D02*
X135646932Y-94903060D01*
X136218360Y-95188775D02*
X135885027Y-94188775D01*
X135885027Y-94188775D02*
X135551694Y-95188775D01*
X143551694Y-100257486D02*
X144027884Y-100257486D01*
X144027884Y-100257486D02*
X144027884Y-99257486D01*
X143218360Y-99733676D02*
X142885027Y-99733676D01*
X142742170Y-100257486D02*
X143218360Y-100257486D01*
X143218360Y-100257486D02*
X143218360Y-99257486D01*
X143218360Y-99257486D02*
X142742170Y-99257486D01*
X142313598Y-100257486D02*
X142313598Y-99257486D01*
X142313598Y-99257486D02*
X142075503Y-99257486D01*
X142075503Y-99257486D02*
X141932646Y-99305105D01*
X141932646Y-99305105D02*
X141837408Y-99400343D01*
X141837408Y-99400343D02*
X141789789Y-99495581D01*
X141789789Y-99495581D02*
X141742170Y-99686057D01*
X141742170Y-99686057D02*
X141742170Y-99828914D01*
X141742170Y-99828914D02*
X141789789Y-100019390D01*
X141789789Y-100019390D02*
X141837408Y-100114628D01*
X141837408Y-100114628D02*
X141932646Y-100209867D01*
X141932646Y-100209867D02*
X142075503Y-100257486D01*
X142075503Y-100257486D02*
X142313598Y-100257486D01*
X141408836Y-99257486D02*
X140789789Y-99257486D01*
X140789789Y-99257486D02*
X141123122Y-99638438D01*
X141123122Y-99638438D02*
X140980265Y-99638438D01*
X140980265Y-99638438D02*
X140885027Y-99686057D01*
X140885027Y-99686057D02*
X140837408Y-99733676D01*
X140837408Y-99733676D02*
X140789789Y-99828914D01*
X140789789Y-99828914D02*
X140789789Y-100067009D01*
X140789789Y-100067009D02*
X140837408Y-100162247D01*
X140837408Y-100162247D02*
X140885027Y-100209867D01*
X140885027Y-100209867D02*
X140980265Y-100257486D01*
X140980265Y-100257486D02*
X141265979Y-100257486D01*
X141265979Y-100257486D02*
X141361217Y-100209867D01*
X141361217Y-100209867D02*
X141408836Y-100162247D01*
X98231684Y-87204755D02*
X97469780Y-87204755D01*
X97850732Y-87585708D02*
X97850732Y-86823803D01*
X97088827Y-86585708D02*
X96469780Y-86585708D01*
X96469780Y-86585708D02*
X96803113Y-86966660D01*
X96803113Y-86966660D02*
X96660256Y-86966660D01*
X96660256Y-86966660D02*
X96565018Y-87014279D01*
X96565018Y-87014279D02*
X96517399Y-87061898D01*
X96517399Y-87061898D02*
X96469780Y-87157136D01*
X96469780Y-87157136D02*
X96469780Y-87395231D01*
X96469780Y-87395231D02*
X96517399Y-87490469D01*
X96517399Y-87490469D02*
X96565018Y-87538089D01*
X96565018Y-87538089D02*
X96660256Y-87585708D01*
X96660256Y-87585708D02*
X96945970Y-87585708D01*
X96945970Y-87585708D02*
X97041208Y-87538089D01*
X97041208Y-87538089D02*
X97088827Y-87490469D01*
X96184065Y-86585708D02*
X95850732Y-87585708D01*
X95850732Y-87585708D02*
X95517399Y-86585708D01*
X95279303Y-86585708D02*
X94660256Y-86585708D01*
X94660256Y-86585708D02*
X94993589Y-86966660D01*
X94993589Y-86966660D02*
X94850732Y-86966660D01*
X94850732Y-86966660D02*
X94755494Y-87014279D01*
X94755494Y-87014279D02*
X94707875Y-87061898D01*
X94707875Y-87061898D02*
X94660256Y-87157136D01*
X94660256Y-87157136D02*
X94660256Y-87395231D01*
X94660256Y-87395231D02*
X94707875Y-87490469D01*
X94707875Y-87490469D02*
X94755494Y-87538089D01*
X94755494Y-87538089D02*
X94850732Y-87585708D01*
X94850732Y-87585708D02*
X95136446Y-87585708D01*
X95136446Y-87585708D02*
X95231684Y-87538089D01*
X95231684Y-87538089D02*
X95279303Y-87490469D01*
X144027884Y-90120064D02*
X144027884Y-89120064D01*
X143456456Y-90120064D02*
X143885027Y-89548635D01*
X143456456Y-89120064D02*
X144027884Y-89691492D01*
X143027884Y-90120064D02*
X143027884Y-89120064D01*
X143027884Y-89120064D02*
X142646932Y-89120064D01*
X142646932Y-89120064D02*
X142551694Y-89167683D01*
X142551694Y-89167683D02*
X142504075Y-89215302D01*
X142504075Y-89215302D02*
X142456456Y-89310540D01*
X142456456Y-89310540D02*
X142456456Y-89453397D01*
X142456456Y-89453397D02*
X142504075Y-89548635D01*
X142504075Y-89548635D02*
X142551694Y-89596254D01*
X142551694Y-89596254D02*
X142646932Y-89643873D01*
X142646932Y-89643873D02*
X143027884Y-89643873D01*
X142265980Y-90215302D02*
X141504075Y-90215302D01*
X140694551Y-90120064D02*
X141027884Y-89643873D01*
X141265979Y-90120064D02*
X141265979Y-89120064D01*
X141265979Y-89120064D02*
X140885027Y-89120064D01*
X140885027Y-89120064D02*
X140789789Y-89167683D01*
X140789789Y-89167683D02*
X140742170Y-89215302D01*
X140742170Y-89215302D02*
X140694551Y-89310540D01*
X140694551Y-89310540D02*
X140694551Y-89453397D01*
X140694551Y-89453397D02*
X140742170Y-89548635D01*
X140742170Y-89548635D02*
X140789789Y-89596254D01*
X140789789Y-89596254D02*
X140885027Y-89643873D01*
X140885027Y-89643873D02*
X141265979Y-89643873D01*
X140075503Y-89120064D02*
X139885027Y-89120064D01*
X139885027Y-89120064D02*
X139789789Y-89167683D01*
X139789789Y-89167683D02*
X139694551Y-89262921D01*
X139694551Y-89262921D02*
X139646932Y-89453397D01*
X139646932Y-89453397D02*
X139646932Y-89786730D01*
X139646932Y-89786730D02*
X139694551Y-89977206D01*
X139694551Y-89977206D02*
X139789789Y-90072445D01*
X139789789Y-90072445D02*
X139885027Y-90120064D01*
X139885027Y-90120064D02*
X140075503Y-90120064D01*
X140075503Y-90120064D02*
X140170741Y-90072445D01*
X140170741Y-90072445D02*
X140265979Y-89977206D01*
X140265979Y-89977206D02*
X140313598Y-89786730D01*
X140313598Y-89786730D02*
X140313598Y-89453397D01*
X140313598Y-89453397D02*
X140265979Y-89262921D01*
X140265979Y-89262921D02*
X140170741Y-89167683D01*
X140170741Y-89167683D02*
X140075503Y-89120064D01*
X139313598Y-89120064D02*
X139075503Y-90120064D01*
X139075503Y-90120064D02*
X138885027Y-89405778D01*
X138885027Y-89405778D02*
X138694551Y-90120064D01*
X138694551Y-90120064D02*
X138456456Y-89120064D01*
X138170741Y-89120064D02*
X137551694Y-89120064D01*
X137551694Y-89120064D02*
X137885027Y-89501016D01*
X137885027Y-89501016D02*
X137742170Y-89501016D01*
X137742170Y-89501016D02*
X137646932Y-89548635D01*
X137646932Y-89548635D02*
X137599313Y-89596254D01*
X137599313Y-89596254D02*
X137551694Y-89691492D01*
X137551694Y-89691492D02*
X137551694Y-89929587D01*
X137551694Y-89929587D02*
X137599313Y-90024825D01*
X137599313Y-90024825D02*
X137646932Y-90072445D01*
X137646932Y-90072445D02*
X137742170Y-90120064D01*
X137742170Y-90120064D02*
X138027884Y-90120064D01*
X138027884Y-90120064D02*
X138123122Y-90072445D01*
X138123122Y-90072445D02*
X138170741Y-90024825D01*
X98279303Y-102744222D02*
X98136446Y-102791841D01*
X98136446Y-102791841D02*
X97898351Y-102791841D01*
X97898351Y-102791841D02*
X97803113Y-102744222D01*
X97803113Y-102744222D02*
X97755494Y-102696602D01*
X97755494Y-102696602D02*
X97707875Y-102601364D01*
X97707875Y-102601364D02*
X97707875Y-102506126D01*
X97707875Y-102506126D02*
X97755494Y-102410888D01*
X97755494Y-102410888D02*
X97803113Y-102363269D01*
X97803113Y-102363269D02*
X97898351Y-102315650D01*
X97898351Y-102315650D02*
X98088827Y-102268031D01*
X98088827Y-102268031D02*
X98184065Y-102220412D01*
X98184065Y-102220412D02*
X98231684Y-102172793D01*
X98231684Y-102172793D02*
X98279303Y-102077555D01*
X98279303Y-102077555D02*
X98279303Y-101982317D01*
X98279303Y-101982317D02*
X98231684Y-101887079D01*
X98231684Y-101887079D02*
X98184065Y-101839460D01*
X98184065Y-101839460D02*
X98088827Y-101791841D01*
X98088827Y-101791841D02*
X97850732Y-101791841D01*
X97850732Y-101791841D02*
X97707875Y-101839460D01*
X97279303Y-102791841D02*
X97279303Y-101791841D01*
X97279303Y-101791841D02*
X96898351Y-101791841D01*
X96898351Y-101791841D02*
X96803113Y-101839460D01*
X96803113Y-101839460D02*
X96755494Y-101887079D01*
X96755494Y-101887079D02*
X96707875Y-101982317D01*
X96707875Y-101982317D02*
X96707875Y-102125174D01*
X96707875Y-102125174D02*
X96755494Y-102220412D01*
X96755494Y-102220412D02*
X96803113Y-102268031D01*
X96803113Y-102268031D02*
X96898351Y-102315650D01*
X96898351Y-102315650D02*
X97279303Y-102315650D01*
X96279303Y-102791841D02*
X96279303Y-101791841D01*
X96041209Y-102887079D02*
X95279304Y-102887079D01*
X94469780Y-102696602D02*
X94517399Y-102744222D01*
X94517399Y-102744222D02*
X94660256Y-102791841D01*
X94660256Y-102791841D02*
X94755494Y-102791841D01*
X94755494Y-102791841D02*
X94898351Y-102744222D01*
X94898351Y-102744222D02*
X94993589Y-102648983D01*
X94993589Y-102648983D02*
X95041208Y-102553745D01*
X95041208Y-102553745D02*
X95088827Y-102363269D01*
X95088827Y-102363269D02*
X95088827Y-102220412D01*
X95088827Y-102220412D02*
X95041208Y-102029936D01*
X95041208Y-102029936D02*
X94993589Y-101934698D01*
X94993589Y-101934698D02*
X94898351Y-101839460D01*
X94898351Y-101839460D02*
X94755494Y-101791841D01*
X94755494Y-101791841D02*
X94660256Y-101791841D01*
X94660256Y-101791841D02*
X94517399Y-101839460D01*
X94517399Y-101839460D02*
X94469780Y-101887079D01*
X93565018Y-102791841D02*
X94041208Y-102791841D01*
X94041208Y-102791841D02*
X94041208Y-101791841D01*
X93231684Y-102791841D02*
X93231684Y-101791841D01*
X92660256Y-102791841D02*
X93088827Y-102220412D01*
X92660256Y-101791841D02*
X93231684Y-102363269D01*
X138180402Y-103162419D02*
X138513735Y-102686228D01*
X138751830Y-103162419D02*
X138751830Y-102162419D01*
X138751830Y-102162419D02*
X138370878Y-102162419D01*
X138370878Y-102162419D02*
X138275640Y-102210038D01*
X138275640Y-102210038D02*
X138228021Y-102257657D01*
X138228021Y-102257657D02*
X138180402Y-102352895D01*
X138180402Y-102352895D02*
X138180402Y-102495752D01*
X138180402Y-102495752D02*
X138228021Y-102590990D01*
X138228021Y-102590990D02*
X138275640Y-102638609D01*
X138275640Y-102638609D02*
X138370878Y-102686228D01*
X138370878Y-102686228D02*
X138751830Y-102686228D01*
X137751830Y-102638609D02*
X137418497Y-102638609D01*
X137275640Y-103162419D02*
X137751830Y-103162419D01*
X137751830Y-103162419D02*
X137751830Y-102162419D01*
X137751830Y-102162419D02*
X137275640Y-102162419D01*
X136847068Y-103162419D02*
X136847068Y-102162419D01*
X136847068Y-102162419D02*
X136466116Y-102162419D01*
X136466116Y-102162419D02*
X136370878Y-102210038D01*
X136370878Y-102210038D02*
X136323259Y-102257657D01*
X136323259Y-102257657D02*
X136275640Y-102352895D01*
X136275640Y-102352895D02*
X136275640Y-102495752D01*
X136275640Y-102495752D02*
X136323259Y-102590990D01*
X136323259Y-102590990D02*
X136370878Y-102638609D01*
X136370878Y-102638609D02*
X136466116Y-102686228D01*
X136466116Y-102686228D02*
X136847068Y-102686228D01*
X135656592Y-102162419D02*
X135466116Y-102162419D01*
X135466116Y-102162419D02*
X135370878Y-102210038D01*
X135370878Y-102210038D02*
X135275640Y-102305276D01*
X135275640Y-102305276D02*
X135228021Y-102495752D01*
X135228021Y-102495752D02*
X135228021Y-102829085D01*
X135228021Y-102829085D02*
X135275640Y-103019561D01*
X135275640Y-103019561D02*
X135370878Y-103114800D01*
X135370878Y-103114800D02*
X135466116Y-103162419D01*
X135466116Y-103162419D02*
X135656592Y-103162419D01*
X135656592Y-103162419D02*
X135751830Y-103114800D01*
X135751830Y-103114800D02*
X135847068Y-103019561D01*
X135847068Y-103019561D02*
X135894687Y-102829085D01*
X135894687Y-102829085D02*
X135894687Y-102495752D01*
X135894687Y-102495752D02*
X135847068Y-102305276D01*
X135847068Y-102305276D02*
X135751830Y-102210038D01*
X135751830Y-102210038D02*
X135656592Y-102162419D01*
X134037544Y-102162419D02*
X134037544Y-102971942D01*
X134037544Y-102971942D02*
X133989925Y-103067180D01*
X133989925Y-103067180D02*
X133942306Y-103114800D01*
X133942306Y-103114800D02*
X133847068Y-103162419D01*
X133847068Y-103162419D02*
X133656592Y-103162419D01*
X133656592Y-103162419D02*
X133561354Y-103114800D01*
X133561354Y-103114800D02*
X133513735Y-103067180D01*
X133513735Y-103067180D02*
X133466116Y-102971942D01*
X133466116Y-102971942D02*
X133466116Y-102162419D01*
X132418497Y-103162419D02*
X132751830Y-102686228D01*
X132989925Y-103162419D02*
X132989925Y-102162419D01*
X132989925Y-102162419D02*
X132608973Y-102162419D01*
X132608973Y-102162419D02*
X132513735Y-102210038D01*
X132513735Y-102210038D02*
X132466116Y-102257657D01*
X132466116Y-102257657D02*
X132418497Y-102352895D01*
X132418497Y-102352895D02*
X132418497Y-102495752D01*
X132418497Y-102495752D02*
X132466116Y-102590990D01*
X132466116Y-102590990D02*
X132513735Y-102638609D01*
X132513735Y-102638609D02*
X132608973Y-102686228D01*
X132608973Y-102686228D02*
X132989925Y-102686228D01*
X131513735Y-103162419D02*
X131989925Y-103162419D01*
X131989925Y-103162419D02*
X131989925Y-102162419D01*
X113390139Y-105326197D02*
X113866329Y-105326197D01*
X113866329Y-105326197D02*
X113866329Y-104326197D01*
X113056805Y-104802387D02*
X112723472Y-104802387D01*
X112580615Y-105326197D02*
X113056805Y-105326197D01*
X113056805Y-105326197D02*
X113056805Y-104326197D01*
X113056805Y-104326197D02*
X112580615Y-104326197D01*
X112152043Y-105326197D02*
X112152043Y-104326197D01*
X112152043Y-104326197D02*
X111913948Y-104326197D01*
X111913948Y-104326197D02*
X111771091Y-104373816D01*
X111771091Y-104373816D02*
X111675853Y-104469054D01*
X111675853Y-104469054D02*
X111628234Y-104564292D01*
X111628234Y-104564292D02*
X111580615Y-104754768D01*
X111580615Y-104754768D02*
X111580615Y-104897625D01*
X111580615Y-104897625D02*
X111628234Y-105088101D01*
X111628234Y-105088101D02*
X111675853Y-105183339D01*
X111675853Y-105183339D02*
X111771091Y-105278578D01*
X111771091Y-105278578D02*
X111913948Y-105326197D01*
X111913948Y-105326197D02*
X112152043Y-105326197D01*
X111247281Y-104326197D02*
X110580615Y-104326197D01*
X110580615Y-104326197D02*
X111009186Y-105326197D01*
X162491091Y-90120064D02*
X162491091Y-89120064D01*
X161919663Y-90120064D02*
X162348234Y-89548635D01*
X161919663Y-89120064D02*
X162491091Y-89691492D01*
X161491091Y-90120064D02*
X161491091Y-89120064D01*
X161491091Y-89120064D02*
X161110139Y-89120064D01*
X161110139Y-89120064D02*
X161014901Y-89167683D01*
X161014901Y-89167683D02*
X160967282Y-89215302D01*
X160967282Y-89215302D02*
X160919663Y-89310540D01*
X160919663Y-89310540D02*
X160919663Y-89453397D01*
X160919663Y-89453397D02*
X160967282Y-89548635D01*
X160967282Y-89548635D02*
X161014901Y-89596254D01*
X161014901Y-89596254D02*
X161110139Y-89643873D01*
X161110139Y-89643873D02*
X161491091Y-89643873D01*
X160729187Y-90215302D02*
X159967282Y-90215302D01*
X159157758Y-90024825D02*
X159205377Y-90072445D01*
X159205377Y-90072445D02*
X159348234Y-90120064D01*
X159348234Y-90120064D02*
X159443472Y-90120064D01*
X159443472Y-90120064D02*
X159586329Y-90072445D01*
X159586329Y-90072445D02*
X159681567Y-89977206D01*
X159681567Y-89977206D02*
X159729186Y-89881968D01*
X159729186Y-89881968D02*
X159776805Y-89691492D01*
X159776805Y-89691492D02*
X159776805Y-89548635D01*
X159776805Y-89548635D02*
X159729186Y-89358159D01*
X159729186Y-89358159D02*
X159681567Y-89262921D01*
X159681567Y-89262921D02*
X159586329Y-89167683D01*
X159586329Y-89167683D02*
X159443472Y-89120064D01*
X159443472Y-89120064D02*
X159348234Y-89120064D01*
X159348234Y-89120064D02*
X159205377Y-89167683D01*
X159205377Y-89167683D02*
X159157758Y-89215302D01*
X158538710Y-89120064D02*
X158348234Y-89120064D01*
X158348234Y-89120064D02*
X158252996Y-89167683D01*
X158252996Y-89167683D02*
X158157758Y-89262921D01*
X158157758Y-89262921D02*
X158110139Y-89453397D01*
X158110139Y-89453397D02*
X158110139Y-89786730D01*
X158110139Y-89786730D02*
X158157758Y-89977206D01*
X158157758Y-89977206D02*
X158252996Y-90072445D01*
X158252996Y-90072445D02*
X158348234Y-90120064D01*
X158348234Y-90120064D02*
X158538710Y-90120064D01*
X158538710Y-90120064D02*
X158633948Y-90072445D01*
X158633948Y-90072445D02*
X158729186Y-89977206D01*
X158729186Y-89977206D02*
X158776805Y-89786730D01*
X158776805Y-89786730D02*
X158776805Y-89453397D01*
X158776805Y-89453397D02*
X158729186Y-89262921D01*
X158729186Y-89262921D02*
X158633948Y-89167683D01*
X158633948Y-89167683D02*
X158538710Y-89120064D01*
X157205377Y-90120064D02*
X157681567Y-90120064D01*
X157681567Y-90120064D02*
X157681567Y-89120064D01*
X156681567Y-89120064D02*
X156586329Y-89120064D01*
X156586329Y-89120064D02*
X156491091Y-89167683D01*
X156491091Y-89167683D02*
X156443472Y-89215302D01*
X156443472Y-89215302D02*
X156395853Y-89310540D01*
X156395853Y-89310540D02*
X156348234Y-89501016D01*
X156348234Y-89501016D02*
X156348234Y-89739111D01*
X156348234Y-89739111D02*
X156395853Y-89929587D01*
X156395853Y-89929587D02*
X156443472Y-90024825D01*
X156443472Y-90024825D02*
X156491091Y-90072445D01*
X156491091Y-90072445D02*
X156586329Y-90120064D01*
X156586329Y-90120064D02*
X156681567Y-90120064D01*
X156681567Y-90120064D02*
X156776805Y-90072445D01*
X156776805Y-90072445D02*
X156824424Y-90024825D01*
X156824424Y-90024825D02*
X156872043Y-89929587D01*
X156872043Y-89929587D02*
X156919662Y-89739111D01*
X156919662Y-89739111D02*
X156919662Y-89501016D01*
X156919662Y-89501016D02*
X156872043Y-89310540D01*
X156872043Y-89310540D02*
X156824424Y-89215302D01*
X156824424Y-89215302D02*
X156776805Y-89167683D01*
X156776805Y-89167683D02*
X156681567Y-89120064D01*
X162062519Y-105278578D02*
X161919662Y-105326197D01*
X161919662Y-105326197D02*
X161681567Y-105326197D01*
X161681567Y-105326197D02*
X161586329Y-105278578D01*
X161586329Y-105278578D02*
X161538710Y-105230958D01*
X161538710Y-105230958D02*
X161491091Y-105135720D01*
X161491091Y-105135720D02*
X161491091Y-105040482D01*
X161491091Y-105040482D02*
X161538710Y-104945244D01*
X161538710Y-104945244D02*
X161586329Y-104897625D01*
X161586329Y-104897625D02*
X161681567Y-104850006D01*
X161681567Y-104850006D02*
X161872043Y-104802387D01*
X161872043Y-104802387D02*
X161967281Y-104754768D01*
X161967281Y-104754768D02*
X162014900Y-104707149D01*
X162014900Y-104707149D02*
X162062519Y-104611911D01*
X162062519Y-104611911D02*
X162062519Y-104516673D01*
X162062519Y-104516673D02*
X162014900Y-104421435D01*
X162014900Y-104421435D02*
X161967281Y-104373816D01*
X161967281Y-104373816D02*
X161872043Y-104326197D01*
X161872043Y-104326197D02*
X161633948Y-104326197D01*
X161633948Y-104326197D02*
X161491091Y-104373816D01*
X161062519Y-105326197D02*
X161062519Y-104326197D01*
X161062519Y-104326197D02*
X160681567Y-104326197D01*
X160681567Y-104326197D02*
X160586329Y-104373816D01*
X160586329Y-104373816D02*
X160538710Y-104421435D01*
X160538710Y-104421435D02*
X160491091Y-104516673D01*
X160491091Y-104516673D02*
X160491091Y-104659530D01*
X160491091Y-104659530D02*
X160538710Y-104754768D01*
X160538710Y-104754768D02*
X160586329Y-104802387D01*
X160586329Y-104802387D02*
X160681567Y-104850006D01*
X160681567Y-104850006D02*
X161062519Y-104850006D01*
X160062519Y-105326197D02*
X160062519Y-104326197D01*
X159824425Y-105421435D02*
X159062520Y-105421435D01*
X158252996Y-105230958D02*
X158300615Y-105278578D01*
X158300615Y-105278578D02*
X158443472Y-105326197D01*
X158443472Y-105326197D02*
X158538710Y-105326197D01*
X158538710Y-105326197D02*
X158681567Y-105278578D01*
X158681567Y-105278578D02*
X158776805Y-105183339D01*
X158776805Y-105183339D02*
X158824424Y-105088101D01*
X158824424Y-105088101D02*
X158872043Y-104897625D01*
X158872043Y-104897625D02*
X158872043Y-104754768D01*
X158872043Y-104754768D02*
X158824424Y-104564292D01*
X158824424Y-104564292D02*
X158776805Y-104469054D01*
X158776805Y-104469054D02*
X158681567Y-104373816D01*
X158681567Y-104373816D02*
X158538710Y-104326197D01*
X158538710Y-104326197D02*
X158443472Y-104326197D01*
X158443472Y-104326197D02*
X158300615Y-104373816D01*
X158300615Y-104373816D02*
X158252996Y-104421435D01*
X157872043Y-105278578D02*
X157729186Y-105326197D01*
X157729186Y-105326197D02*
X157491091Y-105326197D01*
X157491091Y-105326197D02*
X157395853Y-105278578D01*
X157395853Y-105278578D02*
X157348234Y-105230958D01*
X157348234Y-105230958D02*
X157300615Y-105135720D01*
X157300615Y-105135720D02*
X157300615Y-105040482D01*
X157300615Y-105040482D02*
X157348234Y-104945244D01*
X157348234Y-104945244D02*
X157395853Y-104897625D01*
X157395853Y-104897625D02*
X157491091Y-104850006D01*
X157491091Y-104850006D02*
X157681567Y-104802387D01*
X157681567Y-104802387D02*
X157776805Y-104754768D01*
X157776805Y-104754768D02*
X157824424Y-104707149D01*
X157824424Y-104707149D02*
X157872043Y-104611911D01*
X157872043Y-104611911D02*
X157872043Y-104516673D01*
X157872043Y-104516673D02*
X157824424Y-104421435D01*
X157824424Y-104421435D02*
X157776805Y-104373816D01*
X157776805Y-104373816D02*
X157681567Y-104326197D01*
X157681567Y-104326197D02*
X157443472Y-104326197D01*
X157443472Y-104326197D02*
X157300615Y-104373816D01*
X156681567Y-104326197D02*
X156586329Y-104326197D01*
X156586329Y-104326197D02*
X156491091Y-104373816D01*
X156491091Y-104373816D02*
X156443472Y-104421435D01*
X156443472Y-104421435D02*
X156395853Y-104516673D01*
X156395853Y-104516673D02*
X156348234Y-104707149D01*
X156348234Y-104707149D02*
X156348234Y-104945244D01*
X156348234Y-104945244D02*
X156395853Y-105135720D01*
X156395853Y-105135720D02*
X156443472Y-105230958D01*
X156443472Y-105230958D02*
X156491091Y-105278578D01*
X156491091Y-105278578D02*
X156586329Y-105326197D01*
X156586329Y-105326197D02*
X156681567Y-105326197D01*
X156681567Y-105326197D02*
X156776805Y-105278578D01*
X156776805Y-105278578D02*
X156824424Y-105230958D01*
X156824424Y-105230958D02*
X156872043Y-105135720D01*
X156872043Y-105135720D02*
X156919662Y-104945244D01*
X156919662Y-104945244D02*
X156919662Y-104707149D01*
X156919662Y-104707149D02*
X156872043Y-104516673D01*
X156872043Y-104516673D02*
X156824424Y-104421435D01*
X156824424Y-104421435D02*
X156776805Y-104373816D01*
X156776805Y-104373816D02*
X156681567Y-104326197D01*
X143551694Y-97723130D02*
X144027884Y-97723130D01*
X144027884Y-97723130D02*
X144027884Y-96723130D01*
X143218360Y-97199320D02*
X142885027Y-97199320D01*
X142742170Y-97723130D02*
X143218360Y-97723130D01*
X143218360Y-97723130D02*
X143218360Y-96723130D01*
X143218360Y-96723130D02*
X142742170Y-96723130D01*
X142313598Y-97723130D02*
X142313598Y-96723130D01*
X142313598Y-96723130D02*
X142075503Y-96723130D01*
X142075503Y-96723130D02*
X141932646Y-96770749D01*
X141932646Y-96770749D02*
X141837408Y-96865987D01*
X141837408Y-96865987D02*
X141789789Y-96961225D01*
X141789789Y-96961225D02*
X141742170Y-97151701D01*
X141742170Y-97151701D02*
X141742170Y-97294558D01*
X141742170Y-97294558D02*
X141789789Y-97485034D01*
X141789789Y-97485034D02*
X141837408Y-97580272D01*
X141837408Y-97580272D02*
X141932646Y-97675511D01*
X141932646Y-97675511D02*
X142075503Y-97723130D01*
X142075503Y-97723130D02*
X142313598Y-97723130D01*
X141361217Y-96818368D02*
X141313598Y-96770749D01*
X141313598Y-96770749D02*
X141218360Y-96723130D01*
X141218360Y-96723130D02*
X140980265Y-96723130D01*
X140980265Y-96723130D02*
X140885027Y-96770749D01*
X140885027Y-96770749D02*
X140837408Y-96818368D01*
X140837408Y-96818368D02*
X140789789Y-96913606D01*
X140789789Y-96913606D02*
X140789789Y-97008844D01*
X140789789Y-97008844D02*
X140837408Y-97151701D01*
X140837408Y-97151701D02*
X141408836Y-97723130D01*
X141408836Y-97723130D02*
X140789789Y-97723130D01*
X139646932Y-96675511D02*
X140504074Y-97961225D01*
X139313598Y-97723130D02*
X139313598Y-96723130D01*
X139313598Y-96723130D02*
X139075503Y-96723130D01*
X139075503Y-96723130D02*
X138932646Y-96770749D01*
X138932646Y-96770749D02*
X138837408Y-96865987D01*
X138837408Y-96865987D02*
X138789789Y-96961225D01*
X138789789Y-96961225D02*
X138742170Y-97151701D01*
X138742170Y-97151701D02*
X138742170Y-97294558D01*
X138742170Y-97294558D02*
X138789789Y-97485034D01*
X138789789Y-97485034D02*
X138837408Y-97580272D01*
X138837408Y-97580272D02*
X138932646Y-97675511D01*
X138932646Y-97675511D02*
X139075503Y-97723130D01*
X139075503Y-97723130D02*
X139313598Y-97723130D01*
X138313598Y-97723130D02*
X138313598Y-96723130D01*
X137265980Y-97723130D02*
X137599313Y-97246939D01*
X137837408Y-97723130D02*
X137837408Y-96723130D01*
X137837408Y-96723130D02*
X137456456Y-96723130D01*
X137456456Y-96723130D02*
X137361218Y-96770749D01*
X137361218Y-96770749D02*
X137313599Y-96818368D01*
X137313599Y-96818368D02*
X137265980Y-96913606D01*
X137265980Y-96913606D02*
X137265980Y-97056463D01*
X137265980Y-97056463D02*
X137313599Y-97151701D01*
X137313599Y-97151701D02*
X137361218Y-97199320D01*
X137361218Y-97199320D02*
X137456456Y-97246939D01*
X137456456Y-97246939D02*
X137837408Y-97246939D01*
X137075504Y-97818368D02*
X136313599Y-97818368D01*
X135742170Y-97199320D02*
X135599313Y-97246939D01*
X135599313Y-97246939D02*
X135551694Y-97294558D01*
X135551694Y-97294558D02*
X135504075Y-97389796D01*
X135504075Y-97389796D02*
X135504075Y-97532653D01*
X135504075Y-97532653D02*
X135551694Y-97627891D01*
X135551694Y-97627891D02*
X135599313Y-97675511D01*
X135599313Y-97675511D02*
X135694551Y-97723130D01*
X135694551Y-97723130D02*
X136075503Y-97723130D01*
X136075503Y-97723130D02*
X136075503Y-96723130D01*
X136075503Y-96723130D02*
X135742170Y-96723130D01*
X135742170Y-96723130D02*
X135646932Y-96770749D01*
X135646932Y-96770749D02*
X135599313Y-96818368D01*
X135599313Y-96818368D02*
X135551694Y-96913606D01*
X135551694Y-96913606D02*
X135551694Y-97008844D01*
X135551694Y-97008844D02*
X135599313Y-97104082D01*
X135599313Y-97104082D02*
X135646932Y-97151701D01*
X135646932Y-97151701D02*
X135742170Y-97199320D01*
X135742170Y-97199320D02*
X136075503Y-97199320D01*
X98231684Y-95188775D02*
X98231684Y-94188775D01*
X97660256Y-95188775D02*
X98088827Y-94617346D01*
X97660256Y-94188775D02*
X98231684Y-94760203D01*
X97231684Y-95188775D02*
X97231684Y-94188775D01*
X97231684Y-94188775D02*
X96850732Y-94188775D01*
X96850732Y-94188775D02*
X96755494Y-94236394D01*
X96755494Y-94236394D02*
X96707875Y-94284013D01*
X96707875Y-94284013D02*
X96660256Y-94379251D01*
X96660256Y-94379251D02*
X96660256Y-94522108D01*
X96660256Y-94522108D02*
X96707875Y-94617346D01*
X96707875Y-94617346D02*
X96755494Y-94664965D01*
X96755494Y-94664965D02*
X96850732Y-94712584D01*
X96850732Y-94712584D02*
X97231684Y-94712584D01*
X96469780Y-95284013D02*
X95707875Y-95284013D01*
X94898351Y-95188775D02*
X95231684Y-94712584D01*
X95469779Y-95188775D02*
X95469779Y-94188775D01*
X95469779Y-94188775D02*
X95088827Y-94188775D01*
X95088827Y-94188775D02*
X94993589Y-94236394D01*
X94993589Y-94236394D02*
X94945970Y-94284013D01*
X94945970Y-94284013D02*
X94898351Y-94379251D01*
X94898351Y-94379251D02*
X94898351Y-94522108D01*
X94898351Y-94522108D02*
X94945970Y-94617346D01*
X94945970Y-94617346D02*
X94993589Y-94664965D01*
X94993589Y-94664965D02*
X95088827Y-94712584D01*
X95088827Y-94712584D02*
X95469779Y-94712584D01*
X94279303Y-94188775D02*
X94088827Y-94188775D01*
X94088827Y-94188775D02*
X93993589Y-94236394D01*
X93993589Y-94236394D02*
X93898351Y-94331632D01*
X93898351Y-94331632D02*
X93850732Y-94522108D01*
X93850732Y-94522108D02*
X93850732Y-94855441D01*
X93850732Y-94855441D02*
X93898351Y-95045917D01*
X93898351Y-95045917D02*
X93993589Y-95141156D01*
X93993589Y-95141156D02*
X94088827Y-95188775D01*
X94088827Y-95188775D02*
X94279303Y-95188775D01*
X94279303Y-95188775D02*
X94374541Y-95141156D01*
X94374541Y-95141156D02*
X94469779Y-95045917D01*
X94469779Y-95045917D02*
X94517398Y-94855441D01*
X94517398Y-94855441D02*
X94517398Y-94522108D01*
X94517398Y-94522108D02*
X94469779Y-94331632D01*
X94469779Y-94331632D02*
X94374541Y-94236394D01*
X94374541Y-94236394D02*
X94279303Y-94188775D01*
X93517398Y-94188775D02*
X93279303Y-95188775D01*
X93279303Y-95188775D02*
X93088827Y-94474489D01*
X93088827Y-94474489D02*
X92898351Y-95188775D01*
X92898351Y-95188775D02*
X92660256Y-94188775D01*
X91755494Y-95188775D02*
X92326922Y-95188775D01*
X92041208Y-95188775D02*
X92041208Y-94188775D01*
X92041208Y-94188775D02*
X92136446Y-94331632D01*
X92136446Y-94331632D02*
X92231684Y-94426870D01*
X92231684Y-94426870D02*
X92326922Y-94474489D01*
X143551694Y-107860552D02*
X144027884Y-107860552D01*
X144027884Y-107860552D02*
X144027884Y-106860552D01*
X143218360Y-107336742D02*
X142885027Y-107336742D01*
X142742170Y-107860552D02*
X143218360Y-107860552D01*
X143218360Y-107860552D02*
X143218360Y-106860552D01*
X143218360Y-106860552D02*
X142742170Y-106860552D01*
X142313598Y-107860552D02*
X142313598Y-106860552D01*
X142313598Y-106860552D02*
X142075503Y-106860552D01*
X142075503Y-106860552D02*
X141932646Y-106908171D01*
X141932646Y-106908171D02*
X141837408Y-107003409D01*
X141837408Y-107003409D02*
X141789789Y-107098647D01*
X141789789Y-107098647D02*
X141742170Y-107289123D01*
X141742170Y-107289123D02*
X141742170Y-107431980D01*
X141742170Y-107431980D02*
X141789789Y-107622456D01*
X141789789Y-107622456D02*
X141837408Y-107717694D01*
X141837408Y-107717694D02*
X141932646Y-107812933D01*
X141932646Y-107812933D02*
X142075503Y-107860552D01*
X142075503Y-107860552D02*
X142313598Y-107860552D01*
X140885027Y-107193885D02*
X140885027Y-107860552D01*
X141123122Y-106812933D02*
X141361217Y-107527218D01*
X141361217Y-107527218D02*
X140742170Y-107527218D01*
D11*
X156402797Y-112474742D02*
X156402797Y-113331885D01*
X156402797Y-113331885D02*
X156459940Y-113503314D01*
X156459940Y-113503314D02*
X156574226Y-113617600D01*
X156574226Y-113617600D02*
X156745654Y-113674742D01*
X156745654Y-113674742D02*
X156859940Y-113674742D01*
X156117083Y-113789028D02*
X155202797Y-113789028D01*
X154688511Y-112474742D02*
X154459939Y-112474742D01*
X154459939Y-112474742D02*
X154345654Y-112531885D01*
X154345654Y-112531885D02*
X154231368Y-112646171D01*
X154231368Y-112646171D02*
X154174225Y-112874742D01*
X154174225Y-112874742D02*
X154174225Y-113274742D01*
X154174225Y-113274742D02*
X154231368Y-113503314D01*
X154231368Y-113503314D02*
X154345654Y-113617600D01*
X154345654Y-113617600D02*
X154459939Y-113674742D01*
X154459939Y-113674742D02*
X154688511Y-113674742D01*
X154688511Y-113674742D02*
X154802797Y-113617600D01*
X154802797Y-113617600D02*
X154917082Y-113503314D01*
X154917082Y-113503314D02*
X154974225Y-113274742D01*
X154974225Y-113274742D02*
X154974225Y-112874742D01*
X154974225Y-112874742D02*
X154917082Y-112646171D01*
X154917082Y-112646171D02*
X154802797Y-112531885D01*
X154802797Y-112531885D02*
X154688511Y-112474742D01*
X153659939Y-112474742D02*
X153659939Y-113446171D01*
X153659939Y-113446171D02*
X153602796Y-113560457D01*
X153602796Y-113560457D02*
X153545654Y-113617600D01*
X153545654Y-113617600D02*
X153431368Y-113674742D01*
X153431368Y-113674742D02*
X153202796Y-113674742D01*
X153202796Y-113674742D02*
X153088511Y-113617600D01*
X153088511Y-113617600D02*
X153031368Y-113560457D01*
X153031368Y-113560457D02*
X152974225Y-113446171D01*
X152974225Y-113446171D02*
X152974225Y-112474742D01*
X152574225Y-112474742D02*
X151888511Y-112474742D01*
X152231368Y-113674742D02*
X152231368Y-112474742D01*
X150974225Y-112874742D02*
X150974225Y-113674742D01*
X151259939Y-112417600D02*
X151545653Y-113274742D01*
X151545653Y-113274742D02*
X150802796Y-113274742D01*
D10*
X162491091Y-92654419D02*
X162491091Y-91654419D01*
X161919663Y-92654419D02*
X162348234Y-92082990D01*
X161919663Y-91654419D02*
X162491091Y-92225847D01*
X161491091Y-92654419D02*
X161491091Y-91654419D01*
X161491091Y-91654419D02*
X161110139Y-91654419D01*
X161110139Y-91654419D02*
X161014901Y-91702038D01*
X161014901Y-91702038D02*
X160967282Y-91749657D01*
X160967282Y-91749657D02*
X160919663Y-91844895D01*
X160919663Y-91844895D02*
X160919663Y-91987752D01*
X160919663Y-91987752D02*
X160967282Y-92082990D01*
X160967282Y-92082990D02*
X161014901Y-92130609D01*
X161014901Y-92130609D02*
X161110139Y-92178228D01*
X161110139Y-92178228D02*
X161491091Y-92178228D01*
X160729187Y-92749657D02*
X159967282Y-92749657D01*
X159157758Y-92559180D02*
X159205377Y-92606800D01*
X159205377Y-92606800D02*
X159348234Y-92654419D01*
X159348234Y-92654419D02*
X159443472Y-92654419D01*
X159443472Y-92654419D02*
X159586329Y-92606800D01*
X159586329Y-92606800D02*
X159681567Y-92511561D01*
X159681567Y-92511561D02*
X159729186Y-92416323D01*
X159729186Y-92416323D02*
X159776805Y-92225847D01*
X159776805Y-92225847D02*
X159776805Y-92082990D01*
X159776805Y-92082990D02*
X159729186Y-91892514D01*
X159729186Y-91892514D02*
X159681567Y-91797276D01*
X159681567Y-91797276D02*
X159586329Y-91702038D01*
X159586329Y-91702038D02*
X159443472Y-91654419D01*
X159443472Y-91654419D02*
X159348234Y-91654419D01*
X159348234Y-91654419D02*
X159205377Y-91702038D01*
X159205377Y-91702038D02*
X159157758Y-91749657D01*
X158538710Y-91654419D02*
X158348234Y-91654419D01*
X158348234Y-91654419D02*
X158252996Y-91702038D01*
X158252996Y-91702038D02*
X158157758Y-91797276D01*
X158157758Y-91797276D02*
X158110139Y-91987752D01*
X158110139Y-91987752D02*
X158110139Y-92321085D01*
X158110139Y-92321085D02*
X158157758Y-92511561D01*
X158157758Y-92511561D02*
X158252996Y-92606800D01*
X158252996Y-92606800D02*
X158348234Y-92654419D01*
X158348234Y-92654419D02*
X158538710Y-92654419D01*
X158538710Y-92654419D02*
X158633948Y-92606800D01*
X158633948Y-92606800D02*
X158729186Y-92511561D01*
X158729186Y-92511561D02*
X158776805Y-92321085D01*
X158776805Y-92321085D02*
X158776805Y-91987752D01*
X158776805Y-91987752D02*
X158729186Y-91797276D01*
X158729186Y-91797276D02*
X158633948Y-91702038D01*
X158633948Y-91702038D02*
X158538710Y-91654419D01*
X157205377Y-92654419D02*
X157681567Y-92654419D01*
X157681567Y-92654419D02*
X157681567Y-91654419D01*
X156348234Y-92654419D02*
X156919662Y-92654419D01*
X156633948Y-92654419D02*
X156633948Y-91654419D01*
X156633948Y-91654419D02*
X156729186Y-91797276D01*
X156729186Y-91797276D02*
X156824424Y-91892514D01*
X156824424Y-91892514D02*
X156919662Y-91940133D01*
X98231684Y-105326197D02*
X98231684Y-104326197D01*
X98231684Y-104326197D02*
X97993589Y-104326197D01*
X97993589Y-104326197D02*
X97850732Y-104373816D01*
X97850732Y-104373816D02*
X97755494Y-104469054D01*
X97755494Y-104469054D02*
X97707875Y-104564292D01*
X97707875Y-104564292D02*
X97660256Y-104754768D01*
X97660256Y-104754768D02*
X97660256Y-104897625D01*
X97660256Y-104897625D02*
X97707875Y-105088101D01*
X97707875Y-105088101D02*
X97755494Y-105183339D01*
X97755494Y-105183339D02*
X97850732Y-105278578D01*
X97850732Y-105278578D02*
X97993589Y-105326197D01*
X97993589Y-105326197D02*
X98231684Y-105326197D01*
X97231684Y-105326197D02*
X97231684Y-104326197D01*
X96231685Y-104373816D02*
X96326923Y-104326197D01*
X96326923Y-104326197D02*
X96469780Y-104326197D01*
X96469780Y-104326197D02*
X96612637Y-104373816D01*
X96612637Y-104373816D02*
X96707875Y-104469054D01*
X96707875Y-104469054D02*
X96755494Y-104564292D01*
X96755494Y-104564292D02*
X96803113Y-104754768D01*
X96803113Y-104754768D02*
X96803113Y-104897625D01*
X96803113Y-104897625D02*
X96755494Y-105088101D01*
X96755494Y-105088101D02*
X96707875Y-105183339D01*
X96707875Y-105183339D02*
X96612637Y-105278578D01*
X96612637Y-105278578D02*
X96469780Y-105326197D01*
X96469780Y-105326197D02*
X96374542Y-105326197D01*
X96374542Y-105326197D02*
X96231685Y-105278578D01*
X96231685Y-105278578D02*
X96184066Y-105230958D01*
X96184066Y-105230958D02*
X96184066Y-104897625D01*
X96184066Y-104897625D02*
X96374542Y-104897625D01*
X95850732Y-104326197D02*
X95231685Y-104326197D01*
X95231685Y-104326197D02*
X95565018Y-104707149D01*
X95565018Y-104707149D02*
X95422161Y-104707149D01*
X95422161Y-104707149D02*
X95326923Y-104754768D01*
X95326923Y-104754768D02*
X95279304Y-104802387D01*
X95279304Y-104802387D02*
X95231685Y-104897625D01*
X95231685Y-104897625D02*
X95231685Y-105135720D01*
X95231685Y-105135720D02*
X95279304Y-105230958D01*
X95279304Y-105230958D02*
X95326923Y-105278578D01*
X95326923Y-105278578D02*
X95422161Y-105326197D01*
X95422161Y-105326197D02*
X95707875Y-105326197D01*
X95707875Y-105326197D02*
X95803113Y-105278578D01*
X95803113Y-105278578D02*
X95850732Y-105230958D01*
X95041209Y-105421435D02*
X94279304Y-105421435D01*
X94041208Y-104802387D02*
X93707875Y-104802387D01*
X93565018Y-105326197D02*
X94041208Y-105326197D01*
X94041208Y-105326197D02*
X94041208Y-104326197D01*
X94041208Y-104326197D02*
X93565018Y-104326197D01*
X93136446Y-105326197D02*
X93136446Y-104326197D01*
X93136446Y-104326197D02*
X92565018Y-105326197D01*
X92565018Y-105326197D02*
X92565018Y-104326197D01*
X116342519Y-102791841D02*
X116342519Y-101791841D01*
X116342519Y-101791841D02*
X116104424Y-101791841D01*
X116104424Y-101791841D02*
X115961567Y-101839460D01*
X115961567Y-101839460D02*
X115866329Y-101934698D01*
X115866329Y-101934698D02*
X115818710Y-102029936D01*
X115818710Y-102029936D02*
X115771091Y-102220412D01*
X115771091Y-102220412D02*
X115771091Y-102363269D01*
X115771091Y-102363269D02*
X115818710Y-102553745D01*
X115818710Y-102553745D02*
X115866329Y-102648983D01*
X115866329Y-102648983D02*
X115961567Y-102744222D01*
X115961567Y-102744222D02*
X116104424Y-102791841D01*
X116104424Y-102791841D02*
X116342519Y-102791841D01*
X115342519Y-102791841D02*
X115342519Y-101791841D01*
X114342520Y-101839460D02*
X114437758Y-101791841D01*
X114437758Y-101791841D02*
X114580615Y-101791841D01*
X114580615Y-101791841D02*
X114723472Y-101839460D01*
X114723472Y-101839460D02*
X114818710Y-101934698D01*
X114818710Y-101934698D02*
X114866329Y-102029936D01*
X114866329Y-102029936D02*
X114913948Y-102220412D01*
X114913948Y-102220412D02*
X114913948Y-102363269D01*
X114913948Y-102363269D02*
X114866329Y-102553745D01*
X114866329Y-102553745D02*
X114818710Y-102648983D01*
X114818710Y-102648983D02*
X114723472Y-102744222D01*
X114723472Y-102744222D02*
X114580615Y-102791841D01*
X114580615Y-102791841D02*
X114485377Y-102791841D01*
X114485377Y-102791841D02*
X114342520Y-102744222D01*
X114342520Y-102744222D02*
X114294901Y-102696602D01*
X114294901Y-102696602D02*
X114294901Y-102363269D01*
X114294901Y-102363269D02*
X114485377Y-102363269D01*
X113675853Y-101791841D02*
X113580615Y-101791841D01*
X113580615Y-101791841D02*
X113485377Y-101839460D01*
X113485377Y-101839460D02*
X113437758Y-101887079D01*
X113437758Y-101887079D02*
X113390139Y-101982317D01*
X113390139Y-101982317D02*
X113342520Y-102172793D01*
X113342520Y-102172793D02*
X113342520Y-102410888D01*
X113342520Y-102410888D02*
X113390139Y-102601364D01*
X113390139Y-102601364D02*
X113437758Y-102696602D01*
X113437758Y-102696602D02*
X113485377Y-102744222D01*
X113485377Y-102744222D02*
X113580615Y-102791841D01*
X113580615Y-102791841D02*
X113675853Y-102791841D01*
X113675853Y-102791841D02*
X113771091Y-102744222D01*
X113771091Y-102744222D02*
X113818710Y-102696602D01*
X113818710Y-102696602D02*
X113866329Y-102601364D01*
X113866329Y-102601364D02*
X113913948Y-102410888D01*
X113913948Y-102410888D02*
X113913948Y-102172793D01*
X113913948Y-102172793D02*
X113866329Y-101982317D01*
X113866329Y-101982317D02*
X113818710Y-101887079D01*
X113818710Y-101887079D02*
X113771091Y-101839460D01*
X113771091Y-101839460D02*
X113675853Y-101791841D01*
X113152044Y-102887079D02*
X112390139Y-102887079D01*
X112152043Y-102268031D02*
X111818710Y-102268031D01*
X111675853Y-102791841D02*
X112152043Y-102791841D01*
X112152043Y-102791841D02*
X112152043Y-101791841D01*
X112152043Y-101791841D02*
X111675853Y-101791841D01*
X111247281Y-102791841D02*
X111247281Y-101791841D01*
X111247281Y-101791841D02*
X110675853Y-102791841D01*
X110675853Y-102791841D02*
X110675853Y-101791841D01*
D11*
X108419802Y-84344819D02*
X108419802Y-85059104D01*
X108419802Y-85059104D02*
X108467421Y-85201961D01*
X108467421Y-85201961D02*
X108562659Y-85297200D01*
X108562659Y-85297200D02*
X108705516Y-85344819D01*
X108705516Y-85344819D02*
X108800754Y-85344819D01*
X107515040Y-84678152D02*
X107515040Y-85344819D01*
X107753135Y-84297200D02*
X107991230Y-85011485D01*
X107991230Y-85011485D02*
X107372183Y-85011485D01*
X154169802Y-84344819D02*
X154169802Y-85059104D01*
X154169802Y-85059104D02*
X154217421Y-85201961D01*
X154217421Y-85201961D02*
X154312659Y-85297200D01*
X154312659Y-85297200D02*
X154455516Y-85344819D01*
X154455516Y-85344819D02*
X154550754Y-85344819D01*
X153265040Y-84344819D02*
X153455516Y-84344819D01*
X153455516Y-84344819D02*
X153550754Y-84392438D01*
X153550754Y-84392438D02*
X153598373Y-84440057D01*
X153598373Y-84440057D02*
X153693611Y-84582914D01*
X153693611Y-84582914D02*
X153741230Y-84773390D01*
X153741230Y-84773390D02*
X153741230Y-85154342D01*
X153741230Y-85154342D02*
X153693611Y-85249580D01*
X153693611Y-85249580D02*
X153645992Y-85297200D01*
X153645992Y-85297200D02*
X153550754Y-85344819D01*
X153550754Y-85344819D02*
X153360278Y-85344819D01*
X153360278Y-85344819D02*
X153265040Y-85297200D01*
X153265040Y-85297200D02*
X153217421Y-85249580D01*
X153217421Y-85249580D02*
X153169802Y-85154342D01*
X153169802Y-85154342D02*
X153169802Y-84916247D01*
X153169802Y-84916247D02*
X153217421Y-84821009D01*
X153217421Y-84821009D02*
X153265040Y-84773390D01*
X153265040Y-84773390D02*
X153360278Y-84725771D01*
X153360278Y-84725771D02*
X153550754Y-84725771D01*
X153550754Y-84725771D02*
X153645992Y-84773390D01*
X153645992Y-84773390D02*
X153693611Y-84821009D01*
X153693611Y-84821009D02*
X153741230Y-84916247D01*
X101169802Y-84344819D02*
X101169802Y-85059104D01*
X101169802Y-85059104D02*
X101217421Y-85201961D01*
X101217421Y-85201961D02*
X101312659Y-85297200D01*
X101312659Y-85297200D02*
X101455516Y-85344819D01*
X101455516Y-85344819D02*
X101550754Y-85344819D01*
X100788849Y-84344819D02*
X100169802Y-84344819D01*
X100169802Y-84344819D02*
X100503135Y-84725771D01*
X100503135Y-84725771D02*
X100360278Y-84725771D01*
X100360278Y-84725771D02*
X100265040Y-84773390D01*
X100265040Y-84773390D02*
X100217421Y-84821009D01*
X100217421Y-84821009D02*
X100169802Y-84916247D01*
X100169802Y-84916247D02*
X100169802Y-85154342D01*
X100169802Y-85154342D02*
X100217421Y-85249580D01*
X100217421Y-85249580D02*
X100265040Y-85297200D01*
X100265040Y-85297200D02*
X100360278Y-85344819D01*
X100360278Y-85344819D02*
X100645992Y-85344819D01*
X100645992Y-85344819D02*
X100741230Y-85297200D01*
X100741230Y-85297200D02*
X100788849Y-85249580D01*
X146919802Y-84344819D02*
X146919802Y-85059104D01*
X146919802Y-85059104D02*
X146967421Y-85201961D01*
X146967421Y-85201961D02*
X147062659Y-85297200D01*
X147062659Y-85297200D02*
X147205516Y-85344819D01*
X147205516Y-85344819D02*
X147300754Y-85344819D01*
X145967421Y-84344819D02*
X146443611Y-84344819D01*
X146443611Y-84344819D02*
X146491230Y-84821009D01*
X146491230Y-84821009D02*
X146443611Y-84773390D01*
X146443611Y-84773390D02*
X146348373Y-84725771D01*
X146348373Y-84725771D02*
X146110278Y-84725771D01*
X146110278Y-84725771D02*
X146015040Y-84773390D01*
X146015040Y-84773390D02*
X145967421Y-84821009D01*
X145967421Y-84821009D02*
X145919802Y-84916247D01*
X145919802Y-84916247D02*
X145919802Y-85154342D01*
X145919802Y-85154342D02*
X145967421Y-85249580D01*
X145967421Y-85249580D02*
X146015040Y-85297200D01*
X146015040Y-85297200D02*
X146110278Y-85344819D01*
X146110278Y-85344819D02*
X146348373Y-85344819D01*
X146348373Y-85344819D02*
X146443611Y-85297200D01*
X146443611Y-85297200D02*
X146491230Y-85249580D01*
D12*
%TO.C,G2*%
G36*
X131817733Y-105539362D02*
G01*
X131817733Y-105831885D01*
X131718725Y-105831885D01*
X131619718Y-105831885D01*
X131619718Y-105539362D01*
X131619718Y-105246839D01*
X131718725Y-105246839D01*
X131817733Y-105246839D01*
X131817733Y-105539362D01*
G37*
G36*
X131817733Y-107483515D02*
G01*
X131817733Y-107578023D01*
X131718725Y-107578023D01*
X131619718Y-107578023D01*
X131619718Y-107483515D01*
X131619718Y-107389008D01*
X131718725Y-107389008D01*
X131817733Y-107389008D01*
X131817733Y-107483515D01*
G37*
G36*
X131817733Y-108460092D02*
G01*
X131817733Y-108559100D01*
X131718725Y-108559100D01*
X131619718Y-108559100D01*
X131619718Y-108460092D01*
X131619718Y-108361084D01*
X131718725Y-108361084D01*
X131817733Y-108361084D01*
X131817733Y-108460092D01*
G37*
G36*
X132591794Y-104369270D02*
G01*
X132591794Y-104661793D01*
X132299271Y-104661793D01*
X132006748Y-104661793D01*
X132006748Y-104369270D01*
X132006748Y-104076747D01*
X132299271Y-104076747D01*
X132591794Y-104076747D01*
X132591794Y-104369270D01*
G37*
G36*
X132591794Y-105732877D02*
G01*
X132591794Y-105831885D01*
X132492786Y-105831885D01*
X132393778Y-105831885D01*
X132393778Y-105732877D01*
X132393778Y-105633870D01*
X132492786Y-105633870D01*
X132591794Y-105633870D01*
X132591794Y-105732877D01*
G37*
G36*
X132978825Y-109625684D02*
G01*
X132978825Y-109720191D01*
X132884317Y-109720191D01*
X132789810Y-109720191D01*
X132789810Y-109625684D01*
X132789810Y-109531176D01*
X132884317Y-109531176D01*
X132978825Y-109531176D01*
X132978825Y-109625684D01*
G37*
G36*
X133761886Y-106704954D02*
G01*
X133761886Y-106803962D01*
X133662878Y-106803962D01*
X133563871Y-106803962D01*
X133563871Y-106704954D01*
X133563871Y-106605946D01*
X133662878Y-106605946D01*
X133761886Y-106605946D01*
X133761886Y-106704954D01*
G37*
G36*
X134535947Y-110791276D02*
G01*
X134535947Y-110890283D01*
X134342432Y-110890283D01*
X134148917Y-110890283D01*
X134148917Y-110791276D01*
X134148917Y-110692268D01*
X134342432Y-110692268D01*
X134535947Y-110692268D01*
X134535947Y-110791276D01*
G37*
G36*
X134931978Y-104954316D02*
G01*
X134931978Y-105048824D01*
X134832971Y-105048824D01*
X134733963Y-105048824D01*
X134733963Y-104954316D01*
X134733963Y-104859809D01*
X134832971Y-104859809D01*
X134931978Y-104859809D01*
X134931978Y-104954316D01*
G37*
G36*
X135319009Y-110791276D02*
G01*
X135319009Y-110890283D01*
X135125494Y-110890283D01*
X134931978Y-110890283D01*
X134931978Y-110791276D01*
X134931978Y-110692268D01*
X135125494Y-110692268D01*
X135319009Y-110692268D01*
X135319009Y-110791276D01*
G37*
G36*
X135319009Y-110017215D02*
G01*
X135319009Y-110116223D01*
X135220001Y-110116223D01*
X135120993Y-110116223D01*
X135120993Y-110017215D01*
X135120993Y-109918207D01*
X135220001Y-109918207D01*
X135319009Y-109918207D01*
X135319009Y-110017215D01*
G37*
G36*
X136489101Y-104954316D02*
G01*
X136489101Y-105048824D01*
X136390093Y-105048824D01*
X136291085Y-105048824D01*
X136291085Y-104954316D01*
X136291085Y-104859809D01*
X136390093Y-104859809D01*
X136489101Y-104859809D01*
X136489101Y-104954316D01*
G37*
G36*
X136489101Y-105345847D02*
G01*
X136489101Y-105444855D01*
X136390093Y-105444855D01*
X136291085Y-105444855D01*
X136291085Y-105345847D01*
X136291085Y-105246839D01*
X136390093Y-105246839D01*
X136489101Y-105246839D01*
X136489101Y-105345847D01*
G37*
G36*
X137650192Y-106119908D02*
G01*
X137650192Y-106218916D01*
X137555685Y-106218916D01*
X137461177Y-106218916D01*
X137461177Y-106119908D01*
X137461177Y-106020900D01*
X137555685Y-106020900D01*
X137650192Y-106020900D01*
X137650192Y-106119908D01*
G37*
G36*
X138433254Y-104369270D02*
G01*
X138433254Y-104661793D01*
X138140731Y-104661793D01*
X137848208Y-104661793D01*
X137848208Y-104369270D01*
X137848208Y-104076747D01*
X138140731Y-104076747D01*
X138433254Y-104076747D01*
X138433254Y-104369270D01*
G37*
G36*
X138433254Y-110210730D02*
G01*
X138433254Y-110503253D01*
X138140731Y-110503253D01*
X137848208Y-110503253D01*
X137848208Y-110210730D01*
X137848208Y-109918207D01*
X138140731Y-109918207D01*
X138433254Y-109918207D01*
X138433254Y-110210730D01*
G37*
G36*
X138433254Y-106511439D02*
G01*
X138433254Y-106605946D01*
X138334246Y-106605946D01*
X138235238Y-106605946D01*
X138235238Y-106511439D01*
X138235238Y-106416931D01*
X138334246Y-106416931D01*
X138433254Y-106416931D01*
X138433254Y-106511439D01*
G37*
G36*
X132299271Y-106020900D02*
G01*
X132393778Y-106020900D01*
X132393778Y-106119908D01*
X132393778Y-106218916D01*
X132299271Y-106218916D01*
X132204764Y-106218916D01*
X132204764Y-106119908D01*
X132204764Y-106020900D01*
X132299271Y-106020900D01*
G37*
G36*
X132204764Y-105827385D02*
G01*
X132204764Y-106020900D01*
X132105756Y-106020900D01*
X132006748Y-106020900D01*
X132006748Y-105827385D01*
X132006748Y-105633870D01*
X132105756Y-105633870D01*
X132204764Y-105633870D01*
X132204764Y-105827385D01*
G37*
G36*
X136777124Y-108163069D02*
G01*
X136876131Y-108163069D01*
X136876131Y-108262077D01*
X136876131Y-108361084D01*
X136777124Y-108361084D01*
X136678116Y-108361084D01*
X136678116Y-108262077D01*
X136678116Y-108163069D01*
X136777124Y-108163069D01*
G37*
G36*
X136678116Y-108068561D02*
G01*
X136678116Y-108163069D01*
X136583608Y-108163069D01*
X136489101Y-108163069D01*
X136489101Y-108068561D01*
X136489101Y-107974054D01*
X136583608Y-107974054D01*
X136678116Y-107974054D01*
X136678116Y-108068561D01*
G37*
G36*
X132978825Y-105048824D02*
G01*
X132299271Y-105048824D01*
X131619718Y-105048824D01*
X131619718Y-104369270D01*
X131619718Y-103887732D01*
X131817733Y-103887732D01*
X131817733Y-104373770D01*
X131817733Y-104859809D01*
X132303771Y-104859809D01*
X132789810Y-104859809D01*
X132789810Y-104373770D01*
X132789810Y-103887732D01*
X132303771Y-103887732D01*
X131817733Y-103887732D01*
X131619718Y-103887732D01*
X131619718Y-103689717D01*
X132299271Y-103689717D01*
X132978825Y-103689717D01*
X132978825Y-104369270D01*
X132978825Y-104373770D01*
X132978825Y-105048824D01*
G37*
G36*
X138820284Y-105048824D02*
G01*
X138140731Y-105048824D01*
X137461177Y-105048824D01*
X137461177Y-104369270D01*
X137461177Y-103887732D01*
X137650192Y-103887732D01*
X137650192Y-104373770D01*
X137650192Y-104859809D01*
X138136231Y-104859809D01*
X138622269Y-104859809D01*
X138622269Y-104373770D01*
X138622269Y-103887732D01*
X138136231Y-103887732D01*
X137650192Y-103887732D01*
X137461177Y-103887732D01*
X137461177Y-103689717D01*
X138140731Y-103689717D01*
X138820284Y-103689717D01*
X138820284Y-104369270D01*
X138820284Y-104373770D01*
X138820284Y-105048824D01*
G37*
G36*
X138820284Y-110210730D02*
G01*
X138820284Y-110890283D01*
X138140731Y-110890283D01*
X137461177Y-110890283D01*
X137461177Y-110210730D01*
X137461177Y-109720191D01*
X137650192Y-109720191D01*
X137650192Y-110206230D01*
X137650192Y-110692268D01*
X138136231Y-110692268D01*
X138622269Y-110692268D01*
X138622269Y-110206230D01*
X138622269Y-109720191D01*
X138136231Y-109720191D01*
X137650192Y-109720191D01*
X137461177Y-109720191D01*
X137461177Y-109531176D01*
X138140731Y-109531176D01*
X138820284Y-109531176D01*
X138820284Y-110206230D01*
X138820284Y-110210730D01*
G37*
G36*
X132105756Y-107190992D02*
G01*
X132204764Y-107190992D01*
X132204764Y-107290000D01*
X132204764Y-107389008D01*
X132105756Y-107389008D01*
X132006748Y-107389008D01*
X132006748Y-107290000D01*
X132006748Y-107190992D01*
X132105756Y-107190992D01*
G37*
G36*
X131912241Y-107001977D02*
G01*
X132006748Y-107001977D01*
X132006748Y-107096485D01*
X132006748Y-107190992D01*
X131912241Y-107190992D01*
X131817733Y-107190992D01*
X131817733Y-107096485D01*
X131817733Y-107001977D01*
X131912241Y-107001977D01*
G37*
G36*
X131817733Y-106902970D02*
G01*
X131817733Y-107001977D01*
X131718725Y-107001977D01*
X131619718Y-107001977D01*
X131619718Y-106902970D01*
X131619718Y-106803962D01*
X131718725Y-106803962D01*
X131817733Y-106803962D01*
X131817733Y-106902970D01*
G37*
G36*
X135706039Y-107195493D02*
G01*
X135706039Y-107389008D01*
X135805047Y-107389008D01*
X135904055Y-107389008D01*
X135904055Y-107290000D01*
X135904055Y-107190992D01*
X136196578Y-107190992D01*
X136489101Y-107190992D01*
X136489101Y-107290000D01*
X136489101Y-107389008D01*
X136291085Y-107389008D01*
X136093070Y-107389008D01*
X136093070Y-107582523D01*
X136093070Y-107776038D01*
X135998562Y-107776038D01*
X135904055Y-107776038D01*
X135904055Y-107677030D01*
X135904055Y-107578023D01*
X135706039Y-107578023D01*
X135508024Y-107578023D01*
X135508024Y-107290000D01*
X135508024Y-107001977D01*
X135607031Y-107001977D01*
X135706039Y-107001977D01*
X135706039Y-107195493D01*
G37*
G36*
X133662878Y-104859809D02*
G01*
X133761886Y-104859809D01*
X133761886Y-105152332D01*
X133761886Y-105444855D01*
X133662878Y-105444855D01*
X133563871Y-105444855D01*
X133563871Y-105152332D01*
X133563871Y-104859809D01*
X133662878Y-104859809D01*
G37*
G36*
X133374856Y-104468278D02*
G01*
X133374856Y-104661793D01*
X133469363Y-104661793D01*
X133563871Y-104661793D01*
X133563871Y-104562785D01*
X133563871Y-104463777D01*
X133662878Y-104463777D01*
X133761886Y-104463777D01*
X133761886Y-104562785D01*
X133761886Y-104661793D01*
X133662878Y-104661793D01*
X133563871Y-104661793D01*
X133563871Y-104760801D01*
X133563871Y-104859809D01*
X133469363Y-104859809D01*
X133374856Y-104859809D01*
X133374856Y-104954316D01*
X133374856Y-105048824D01*
X133275848Y-105048824D01*
X133176840Y-105048824D01*
X133176840Y-104661793D01*
X133176840Y-104274763D01*
X133275848Y-104274763D01*
X133374856Y-104274763D01*
X133374856Y-104468278D01*
G37*
G36*
X132011248Y-109918207D02*
G01*
X132204764Y-109918207D01*
X132204764Y-110017215D01*
X132204764Y-110116223D01*
X132105756Y-110116223D01*
X132006748Y-110116223D01*
X132006748Y-110210730D01*
X132006748Y-110305237D01*
X132200263Y-110305237D01*
X132393778Y-110305237D01*
X132393778Y-110404245D01*
X132393778Y-110503253D01*
X132200263Y-110503253D01*
X132006748Y-110503253D01*
X132006748Y-110597760D01*
X132006748Y-110692268D01*
X132299271Y-110692268D01*
X132591794Y-110692268D01*
X132591794Y-110791276D01*
X132591794Y-110890283D01*
X132105756Y-110890283D01*
X131619718Y-110890283D01*
X131619718Y-110791276D01*
X131619718Y-110692268D01*
X131718725Y-110692268D01*
X131817733Y-110692268D01*
X131817733Y-110305237D01*
X131817733Y-109918207D01*
X132011248Y-109918207D01*
G37*
G36*
X132006748Y-109625684D02*
G01*
X132006748Y-109720191D01*
X131912241Y-109720191D01*
X131817733Y-109720191D01*
X131817733Y-109819199D01*
X131817733Y-109918207D01*
X131718725Y-109918207D01*
X131619718Y-109918207D01*
X131619718Y-109724692D01*
X131619718Y-109531176D01*
X131813233Y-109531176D01*
X132006748Y-109531176D01*
X132006748Y-109625684D01*
G37*
G36*
X135319009Y-105926393D02*
G01*
X135319009Y-106020900D01*
X135413516Y-106020900D01*
X135508024Y-106020900D01*
X135508024Y-105926393D01*
X135508024Y-105831885D01*
X135607031Y-105831885D01*
X135706039Y-105831885D01*
X135706039Y-106025400D01*
X135706039Y-106218916D01*
X135607031Y-106218916D01*
X135508024Y-106218916D01*
X135508024Y-106412431D01*
X135508024Y-106605946D01*
X135314508Y-106605946D01*
X135120993Y-106605946D01*
X135120993Y-106704954D01*
X135120993Y-106803962D01*
X135220001Y-106803962D01*
X135319009Y-106803962D01*
X135319009Y-106997477D01*
X135319009Y-107190992D01*
X135220001Y-107190992D01*
X135120993Y-107190992D01*
X135120993Y-107096485D01*
X135120993Y-107001977D01*
X135026486Y-107001977D01*
X134931978Y-107001977D01*
X134931978Y-106803962D01*
X134931978Y-106605946D01*
X134832971Y-106605946D01*
X134733963Y-106605946D01*
X134733963Y-106511439D01*
X134733963Y-106416931D01*
X134832971Y-106416931D01*
X134931978Y-106416931D01*
X134931978Y-106511439D01*
X134931978Y-106605946D01*
X135026486Y-106605946D01*
X135120993Y-106605946D01*
X135120993Y-106412431D01*
X135120993Y-106218916D01*
X134927478Y-106218916D01*
X134733963Y-106218916D01*
X134733963Y-106119908D01*
X134733963Y-106020900D01*
X134927478Y-106020900D01*
X135120993Y-106020900D01*
X135120993Y-106119908D01*
X135120993Y-106218916D01*
X135220001Y-106218916D01*
X135319009Y-106218916D01*
X135319009Y-106119908D01*
X135319009Y-106020900D01*
X135220001Y-106020900D01*
X135120993Y-106020900D01*
X135120993Y-105926393D01*
X135120993Y-105831885D01*
X135220001Y-105831885D01*
X135319009Y-105831885D01*
X135319009Y-105926393D01*
G37*
G36*
X135607031Y-106605946D02*
G01*
X135706039Y-106605946D01*
X135706039Y-106704954D01*
X135706039Y-106803962D01*
X135607031Y-106803962D01*
X135508024Y-106803962D01*
X135508024Y-106704954D01*
X135508024Y-106605946D01*
X135607031Y-106605946D01*
G37*
G36*
X136876131Y-106704954D02*
G01*
X136876131Y-106803962D01*
X136970639Y-106803962D01*
X137065146Y-106803962D01*
X137065146Y-106704954D01*
X137065146Y-106605946D01*
X137164154Y-106605946D01*
X137263162Y-106605946D01*
X137263162Y-106704954D01*
X137263162Y-106803962D01*
X137654693Y-106803962D01*
X138046224Y-106803962D01*
X138046224Y-106704954D01*
X138046224Y-106605946D01*
X138140731Y-106605946D01*
X138235238Y-106605946D01*
X138235238Y-106898469D01*
X138235238Y-107190992D01*
X138140731Y-107190992D01*
X138046224Y-107190992D01*
X138046224Y-107096485D01*
X138046224Y-107001977D01*
X137753701Y-107001977D01*
X137461177Y-107001977D01*
X137461177Y-107096485D01*
X137461177Y-107190992D01*
X137555685Y-107190992D01*
X137650192Y-107190992D01*
X137650192Y-107290000D01*
X137650192Y-107389008D01*
X137555685Y-107389008D01*
X137461177Y-107389008D01*
X137461177Y-107483515D01*
X137461177Y-107578023D01*
X137654693Y-107578023D01*
X137848208Y-107578023D01*
X137848208Y-107384507D01*
X137848208Y-107190992D01*
X137947216Y-107190992D01*
X138046224Y-107190992D01*
X138046224Y-107384507D01*
X138046224Y-107578023D01*
X137947216Y-107578023D01*
X137848208Y-107578023D01*
X137848208Y-107677030D01*
X137848208Y-107776038D01*
X137654693Y-107776038D01*
X137461177Y-107776038D01*
X137461177Y-107677030D01*
X137461177Y-107578023D01*
X137362170Y-107578023D01*
X137263162Y-107578023D01*
X137263162Y-107190992D01*
X137263162Y-106803962D01*
X137164154Y-106803962D01*
X137065146Y-106803962D01*
X137065146Y-106902970D01*
X137065146Y-107001977D01*
X136871631Y-107001977D01*
X136678116Y-107001977D01*
X136678116Y-107096485D01*
X136678116Y-107190992D01*
X136583608Y-107190992D01*
X136489101Y-107190992D01*
X136489101Y-106997477D01*
X136489101Y-106803962D01*
X136583608Y-106803962D01*
X136678116Y-106803962D01*
X136678116Y-106704954D01*
X136678116Y-106605946D01*
X136777124Y-106605946D01*
X136876131Y-106605946D01*
X136876131Y-106704954D01*
G37*
G36*
X135904055Y-108068561D02*
G01*
X135904055Y-108361084D01*
X135805047Y-108361084D01*
X135706039Y-108361084D01*
X135706039Y-108262077D01*
X135706039Y-108163069D01*
X135512524Y-108163069D01*
X135319009Y-108163069D01*
X135319009Y-108361084D01*
X135319009Y-108559100D01*
X135512524Y-108559100D01*
X135706039Y-108559100D01*
X135706039Y-108653607D01*
X135706039Y-108748115D01*
X135319009Y-108748115D01*
X134931978Y-108748115D01*
X134931978Y-108653607D01*
X134931978Y-108559100D01*
X134832971Y-108559100D01*
X134733963Y-108559100D01*
X134733963Y-108460092D01*
X134733963Y-108361084D01*
X134832971Y-108361084D01*
X134931978Y-108361084D01*
X134931978Y-108460092D01*
X134931978Y-108559100D01*
X135026486Y-108559100D01*
X135120993Y-108559100D01*
X135120993Y-108361084D01*
X135120993Y-108163069D01*
X135026486Y-108163069D01*
X134931978Y-108163069D01*
X134931978Y-108068561D01*
X134931978Y-107974054D01*
X135220001Y-107974054D01*
X135508024Y-107974054D01*
X135508024Y-107875046D01*
X135508024Y-107776038D01*
X135706039Y-107776038D01*
X135904055Y-107776038D01*
X135904055Y-108068561D01*
G37*
G36*
X134049909Y-107578023D02*
G01*
X134148917Y-107578023D01*
X134148917Y-107870546D01*
X134148917Y-108163069D01*
X134342432Y-108163069D01*
X134535947Y-108163069D01*
X134535947Y-108068561D01*
X134535947Y-107974054D01*
X134634955Y-107974054D01*
X134733963Y-107974054D01*
X134733963Y-108167569D01*
X134733963Y-108361084D01*
X134247924Y-108361084D01*
X133761886Y-108361084D01*
X133761886Y-108167569D01*
X133761886Y-107974054D01*
X133662878Y-107974054D01*
X133563871Y-107974054D01*
X133563871Y-107875046D01*
X133563871Y-107776038D01*
X133757386Y-107776038D01*
X133950901Y-107776038D01*
X133950901Y-107677030D01*
X133950901Y-107578023D01*
X134049909Y-107578023D01*
G37*
G36*
X133761886Y-107096485D02*
G01*
X133761886Y-107190992D01*
X133856394Y-107190992D01*
X133950901Y-107190992D01*
X133950901Y-107096485D01*
X133950901Y-107001977D01*
X134049909Y-107001977D01*
X134148917Y-107001977D01*
X134148917Y-107096485D01*
X134148917Y-107190992D01*
X134049909Y-107190992D01*
X133950901Y-107190992D01*
X133950901Y-107384507D01*
X133950901Y-107578023D01*
X133856394Y-107578023D01*
X133761886Y-107578023D01*
X133761886Y-107483515D01*
X133761886Y-107389008D01*
X133662878Y-107389008D01*
X133563871Y-107389008D01*
X133563871Y-107195493D01*
X133563871Y-107001977D01*
X133662878Y-107001977D01*
X133761886Y-107001977D01*
X133761886Y-107096485D01*
G37*
G36*
X134247924Y-107190992D02*
G01*
X134346932Y-107190992D01*
X134346932Y-107290000D01*
X134346932Y-107389008D01*
X134247924Y-107389008D01*
X134148917Y-107389008D01*
X134148917Y-107290000D01*
X134148917Y-107190992D01*
X134247924Y-107190992D01*
G37*
G36*
X134346932Y-104076747D02*
G01*
X134441440Y-104076747D01*
X134535947Y-104076747D01*
X134535947Y-103982240D01*
X134535947Y-103887732D01*
X134634955Y-103887732D01*
X134733963Y-103887732D01*
X134733963Y-103982240D01*
X134733963Y-104175755D01*
X134733963Y-104463777D01*
X134832971Y-104463777D01*
X134931978Y-104463777D01*
X134931978Y-104076747D01*
X134931978Y-103689717D01*
X135319009Y-103689717D01*
X135706039Y-103689717D01*
X135706039Y-103883232D01*
X135706039Y-104076747D01*
X135607031Y-104076747D01*
X135508024Y-104076747D01*
X135508024Y-104175755D01*
X135508024Y-104274763D01*
X135706039Y-104274763D01*
X135904055Y-104274763D01*
X135904055Y-104369270D01*
X135904055Y-104463777D01*
X135998562Y-104463777D01*
X136093070Y-104463777D01*
X136093070Y-104270262D01*
X136093070Y-104076747D01*
X135998562Y-104076747D01*
X135904055Y-104076747D01*
X135904055Y-103982240D01*
X135904055Y-103887732D01*
X135998562Y-103887732D01*
X136093070Y-103887732D01*
X136093070Y-103982240D01*
X136093070Y-104076747D01*
X136192078Y-104076747D01*
X136291085Y-104076747D01*
X136291085Y-103883232D01*
X136291085Y-103689717D01*
X136777124Y-103689717D01*
X137263162Y-103689717D01*
X137263162Y-103788724D01*
X137263162Y-103887732D01*
X136970639Y-103887732D01*
X136678116Y-103887732D01*
X136678116Y-103982240D01*
X136678116Y-104076747D01*
X136583608Y-104076747D01*
X136489101Y-104076747D01*
X136489101Y-104369270D01*
X136489101Y-104661793D01*
X136682616Y-104661793D01*
X136876131Y-104661793D01*
X136876131Y-104369270D01*
X136876131Y-104076747D01*
X136970639Y-104076747D01*
X137065146Y-104076747D01*
X137065146Y-104175755D01*
X137065146Y-104274763D01*
X137164154Y-104274763D01*
X137263162Y-104274763D01*
X137263162Y-104859809D01*
X137263162Y-105444855D01*
X137362170Y-105444855D01*
X137461177Y-105444855D01*
X137461177Y-105345847D01*
X137461177Y-105246839D01*
X137555685Y-105246839D01*
X137650192Y-105246839D01*
X137650192Y-105345847D01*
X137650192Y-105444855D01*
X137555685Y-105444855D01*
X137461177Y-105444855D01*
X137461177Y-105539362D01*
X137461177Y-105633870D01*
X137362170Y-105633870D01*
X137263162Y-105633870D01*
X137263162Y-105926393D01*
X137263162Y-106218916D01*
X137362170Y-106218916D01*
X137461177Y-106218916D01*
X137461177Y-106317923D01*
X137461177Y-106416931D01*
X137555685Y-106416931D01*
X137650192Y-106416931D01*
X137650192Y-106317923D01*
X137650192Y-106218916D01*
X137848208Y-106218916D01*
X138046224Y-106218916D01*
X138046224Y-106119908D01*
X138046224Y-106020900D01*
X138140731Y-106020900D01*
X138235238Y-106020900D01*
X138235238Y-105926393D01*
X138235238Y-105831885D01*
X138334246Y-105831885D01*
X138433254Y-105831885D01*
X138433254Y-105732877D01*
X138433254Y-105633870D01*
X138239739Y-105633870D01*
X138046224Y-105633870D01*
X138046224Y-105539362D01*
X138046224Y-105444855D01*
X137947216Y-105444855D01*
X137848208Y-105444855D01*
X137848208Y-105345847D01*
X137848208Y-105246839D01*
X137947216Y-105246839D01*
X138046224Y-105246839D01*
X138046224Y-105345847D01*
X138046224Y-105444855D01*
X138140731Y-105444855D01*
X138235238Y-105444855D01*
X138235238Y-105345847D01*
X138235238Y-105246839D01*
X138527761Y-105246839D01*
X138820284Y-105246839D01*
X138820284Y-105440354D01*
X138820284Y-105633870D01*
X138721277Y-105633870D01*
X138622269Y-105633870D01*
X138622269Y-105827385D01*
X138622269Y-106020900D01*
X138721277Y-106020900D01*
X138820284Y-106020900D01*
X138820284Y-106605946D01*
X138820284Y-107190992D01*
X138721277Y-107190992D01*
X138622269Y-107190992D01*
X138622269Y-107290000D01*
X138622269Y-107389008D01*
X138721277Y-107389008D01*
X138820284Y-107389008D01*
X138820284Y-107875046D01*
X138820284Y-108068561D01*
X138820284Y-108361084D01*
X138721277Y-108361084D01*
X138622269Y-108361084D01*
X138622269Y-108460092D01*
X138622269Y-108559100D01*
X138527761Y-108559100D01*
X138433254Y-108559100D01*
X138433254Y-108460092D01*
X138433254Y-108361084D01*
X138334246Y-108361084D01*
X138235238Y-108361084D01*
X138235238Y-108455592D01*
X138235238Y-108460092D01*
X138235238Y-108559100D01*
X138334246Y-108559100D01*
X138433254Y-108559100D01*
X138433254Y-108653607D01*
X138433254Y-108748115D01*
X138527761Y-108748115D01*
X138622269Y-108748115D01*
X138622269Y-108653607D01*
X138622269Y-108559100D01*
X138721277Y-108559100D01*
X138820284Y-108559100D01*
X138820284Y-108653607D01*
X138820284Y-108748115D01*
X138721277Y-108748115D01*
X138622269Y-108748115D01*
X138622269Y-108847123D01*
X138622269Y-108946130D01*
X138428754Y-108946130D01*
X138235238Y-108946130D01*
X138235238Y-108847123D01*
X138235238Y-108748115D01*
X138140731Y-108748115D01*
X138046224Y-108748115D01*
X138046224Y-108847123D01*
X138046224Y-108946130D01*
X137947216Y-108946130D01*
X137848208Y-108946130D01*
X137848208Y-108847123D01*
X137848208Y-108748115D01*
X137749200Y-108748115D01*
X137650192Y-108748115D01*
X137650192Y-108847123D01*
X137650192Y-108946130D01*
X137555685Y-108946130D01*
X137461177Y-108946130D01*
X137461177Y-109040638D01*
X137461177Y-109135145D01*
X137947216Y-109135145D01*
X138433254Y-109135145D01*
X138433254Y-109234153D01*
X138433254Y-109333161D01*
X137848208Y-109333161D01*
X137263162Y-109333161D01*
X137263162Y-109432169D01*
X137263162Y-109531176D01*
X137164154Y-109531176D01*
X137065146Y-109531176D01*
X137065146Y-109333161D01*
X137065146Y-109135145D01*
X136970639Y-109135145D01*
X136876131Y-109135145D01*
X136876131Y-109234153D01*
X136876131Y-109333161D01*
X136777124Y-109333161D01*
X136678116Y-109333161D01*
X136678116Y-109139646D01*
X136678116Y-108946130D01*
X136583608Y-108946130D01*
X136489101Y-108946130D01*
X136489101Y-108847123D01*
X136489101Y-108748115D01*
X136583608Y-108748115D01*
X136678116Y-108748115D01*
X136678116Y-108847123D01*
X136678116Y-108946130D01*
X136777124Y-108946130D01*
X136876131Y-108946130D01*
X137065146Y-108946130D01*
X137065146Y-109040638D01*
X137065146Y-109135145D01*
X137164154Y-109135145D01*
X137263162Y-109135145D01*
X137263162Y-109040638D01*
X137263162Y-108946130D01*
X137164154Y-108946130D01*
X137065146Y-108946130D01*
X136876131Y-108946130D01*
X136876131Y-108847123D01*
X136876131Y-108748115D01*
X136777124Y-108748115D01*
X136678116Y-108748115D01*
X136678116Y-108653607D01*
X136678116Y-108559100D01*
X136484601Y-108559100D01*
X136291085Y-108559100D01*
X136291085Y-108847123D01*
X136291085Y-109135145D01*
X136192078Y-109135145D01*
X136093070Y-109135145D01*
X136093070Y-109427668D01*
X136093070Y-109625684D01*
X136093070Y-109720191D01*
X135998562Y-109720191D01*
X135904055Y-109720191D01*
X135904055Y-109819199D01*
X135904055Y-109918207D01*
X135706039Y-109918207D01*
X135508024Y-109918207D01*
X135508024Y-109625684D01*
X135508024Y-109531176D01*
X135706039Y-109531176D01*
X135706039Y-109625684D01*
X135706039Y-109720191D01*
X135805047Y-109720191D01*
X135904055Y-109720191D01*
X135904055Y-109625684D01*
X135904055Y-109531176D01*
X135805047Y-109531176D01*
X135706039Y-109531176D01*
X135508024Y-109531176D01*
X135508024Y-109333161D01*
X135607031Y-109333161D01*
X135706039Y-109333161D01*
X135706039Y-109234153D01*
X135706039Y-109135145D01*
X135607031Y-109135145D01*
X135508024Y-109135145D01*
X135508024Y-109234153D01*
X135508024Y-109333161D01*
X135413516Y-109333161D01*
X135319009Y-109333161D01*
X135319009Y-109234153D01*
X135319009Y-109135145D01*
X135220001Y-109135145D01*
X135120993Y-109135145D01*
X135120993Y-109234153D01*
X135120993Y-109333161D01*
X135220001Y-109333161D01*
X135319009Y-109333161D01*
X135319009Y-109432169D01*
X135319009Y-109531176D01*
X135220001Y-109531176D01*
X135120993Y-109531176D01*
X135120993Y-109625684D01*
X135120993Y-109720191D01*
X135026486Y-109720191D01*
X134931978Y-109720191D01*
X134931978Y-109724692D01*
X134931978Y-109918207D01*
X134931978Y-110116223D01*
X135026486Y-110116223D01*
X135120993Y-110116223D01*
X135120993Y-110210730D01*
X135120993Y-110305237D01*
X135220001Y-110305237D01*
X135319009Y-110305237D01*
X135319009Y-110210730D01*
X135319009Y-110116223D01*
X135413516Y-110116223D01*
X135508024Y-110116223D01*
X135508024Y-110210730D01*
X135508024Y-110305237D01*
X135607031Y-110305237D01*
X135706039Y-110305237D01*
X136093070Y-110305237D01*
X136093070Y-110404245D01*
X136093070Y-110503253D01*
X136192078Y-110503253D01*
X136291085Y-110503253D01*
X136291085Y-110597760D01*
X136291085Y-110692268D01*
X136390093Y-110692268D01*
X136489101Y-110692268D01*
X136489101Y-110498753D01*
X136489101Y-110305237D01*
X136291085Y-110305237D01*
X136093070Y-110305237D01*
X135706039Y-110305237D01*
X135706039Y-110210730D01*
X135706039Y-110116223D01*
X135805047Y-110116223D01*
X135904055Y-110116223D01*
X135904055Y-110017215D01*
X135904055Y-109918207D01*
X136097570Y-109918207D01*
X136291085Y-109918207D01*
X136291085Y-109724692D01*
X136291085Y-109531176D01*
X136390093Y-109531176D01*
X136489101Y-109531176D01*
X136489101Y-109724692D01*
X136489101Y-109918207D01*
X136390093Y-109918207D01*
X136291085Y-109918207D01*
X136291085Y-110017215D01*
X136291085Y-110116223D01*
X136390093Y-110116223D01*
X136489101Y-110116223D01*
X136489101Y-110210730D01*
X136489101Y-110305237D01*
X136583608Y-110305237D01*
X136678116Y-110305237D01*
X136678116Y-110111722D01*
X136678116Y-109918207D01*
X136777124Y-109918207D01*
X136876131Y-109918207D01*
X136876131Y-109819199D01*
X136876131Y-109720191D01*
X136970639Y-109720191D01*
X137065146Y-109720191D01*
X137065146Y-109819199D01*
X137065146Y-109918207D01*
X137164154Y-109918207D01*
X137263162Y-109918207D01*
X137263162Y-110017215D01*
X137263162Y-110116223D01*
X137069647Y-110116223D01*
X136876131Y-110116223D01*
X136876131Y-110210730D01*
X136876131Y-110305237D01*
X136777124Y-110305237D01*
X136678116Y-110305237D01*
X136678116Y-110498753D01*
X136678116Y-110692268D01*
X136777124Y-110692268D01*
X136876131Y-110692268D01*
X136876131Y-110498753D01*
X136876131Y-110305237D01*
X137069647Y-110305237D01*
X137263162Y-110305237D01*
X137263162Y-110498753D01*
X137263162Y-110597760D01*
X137263162Y-110890283D01*
X137164154Y-110890283D01*
X137065146Y-110890283D01*
X137065146Y-110791276D01*
X137065146Y-110692268D01*
X136970639Y-110692268D01*
X136876131Y-110692268D01*
X136876131Y-110791276D01*
X136876131Y-110890283D01*
X136583608Y-110890283D01*
X136291085Y-110890283D01*
X136291085Y-110791276D01*
X136291085Y-110692268D01*
X136192078Y-110692268D01*
X136093070Y-110692268D01*
X136093070Y-110791276D01*
X136093070Y-110890283D01*
X135899555Y-110890283D01*
X135706039Y-110890283D01*
X135706039Y-110791276D01*
X135706039Y-110692268D01*
X135805047Y-110692268D01*
X135904055Y-110692268D01*
X135904055Y-110597760D01*
X135904055Y-110503253D01*
X135706039Y-110503253D01*
X135508024Y-110503253D01*
X135508024Y-110404245D01*
X135508024Y-110305237D01*
X135413516Y-110305237D01*
X135319009Y-110305237D01*
X135319009Y-110404245D01*
X135319009Y-110503253D01*
X135220001Y-110503253D01*
X135120993Y-110503253D01*
X135120993Y-110404245D01*
X135120993Y-110305237D01*
X134927478Y-110305237D01*
X134733963Y-110305237D01*
X134733963Y-110404245D01*
X134733963Y-110503253D01*
X134634955Y-110503253D01*
X134535947Y-110503253D01*
X134535947Y-110404245D01*
X134535947Y-110305237D01*
X134441440Y-110305237D01*
X134346932Y-110305237D01*
X134346932Y-110404245D01*
X134346932Y-110503253D01*
X134247924Y-110503253D01*
X134148917Y-110503253D01*
X134148917Y-110210730D01*
X134148917Y-109918207D01*
X134346932Y-109918207D01*
X134346932Y-110017215D01*
X134346932Y-110116223D01*
X134441440Y-110116223D01*
X134535947Y-110116223D01*
X134535947Y-110210730D01*
X134535947Y-110305237D01*
X134634955Y-110305237D01*
X134733963Y-110305237D01*
X134733963Y-110210730D01*
X134733963Y-110116223D01*
X134634955Y-110116223D01*
X134535947Y-110116223D01*
X134535947Y-110017215D01*
X134535947Y-109918207D01*
X134441440Y-109918207D01*
X134346932Y-109918207D01*
X134148917Y-109918207D01*
X134049909Y-109918207D01*
X133950901Y-109918207D01*
X133950901Y-109724692D01*
X133950901Y-109531176D01*
X133856394Y-109531176D01*
X133761886Y-109531176D01*
X133761886Y-109625684D01*
X133761886Y-109724692D01*
X133761886Y-109918207D01*
X133662878Y-109918207D01*
X133563871Y-109918207D01*
X133563871Y-109819199D01*
X133563871Y-109720191D01*
X133469363Y-109720191D01*
X133374856Y-109720191D01*
X133374856Y-109819199D01*
X133374856Y-109918207D01*
X133469363Y-109918207D01*
X133563871Y-109918207D01*
X133563871Y-110111722D01*
X133563871Y-110305237D01*
X133662878Y-110305237D01*
X133761886Y-110305237D01*
X133761886Y-110111722D01*
X133761886Y-109918207D01*
X133856394Y-109918207D01*
X133950901Y-109918207D01*
X133950901Y-110210730D01*
X133950901Y-110503253D01*
X133856394Y-110503253D01*
X133761886Y-110503253D01*
X133761886Y-110696768D01*
X133761886Y-110890283D01*
X133662878Y-110890283D01*
X133563871Y-110890283D01*
X133563871Y-110696768D01*
X133563871Y-110503253D01*
X133469363Y-110503253D01*
X133374856Y-110503253D01*
X133374856Y-110696768D01*
X133374856Y-110890283D01*
X133275848Y-110890283D01*
X133176840Y-110890283D01*
X133176840Y-110791276D01*
X133176840Y-110692268D01*
X133077832Y-110692268D01*
X132978825Y-110692268D01*
X132978825Y-110791276D01*
X132978825Y-110890283D01*
X132884317Y-110890283D01*
X132789810Y-110890283D01*
X132789810Y-110696768D01*
X132789810Y-110503253D01*
X132884317Y-110503253D01*
X132978825Y-110503253D01*
X132978825Y-110404245D01*
X132978825Y-110305237D01*
X133176840Y-110305237D01*
X133374856Y-110305237D01*
X133374856Y-110210730D01*
X133374856Y-110116223D01*
X132884317Y-110116223D01*
X132393778Y-110116223D01*
X132393778Y-109918207D01*
X132393778Y-109720191D01*
X132299271Y-109720191D01*
X132204764Y-109720191D01*
X132204764Y-109625684D01*
X132204764Y-109531176D01*
X132105756Y-109531176D01*
X132006748Y-109531176D01*
X132006748Y-109333161D01*
X132591794Y-109333161D01*
X132591794Y-109625684D01*
X132591794Y-109918207D01*
X132884317Y-109918207D01*
X133176840Y-109918207D01*
X133176840Y-109625684D01*
X133176840Y-109333161D01*
X133374856Y-109333161D01*
X133374856Y-109432169D01*
X133374856Y-109531176D01*
X133469363Y-109531176D01*
X133563871Y-109531176D01*
X133563871Y-109432169D01*
X133563871Y-109333161D01*
X133469363Y-109333161D01*
X133374856Y-109333161D01*
X133176840Y-109333161D01*
X132884317Y-109333161D01*
X132591794Y-109333161D01*
X132006748Y-109333161D01*
X132006748Y-109135145D01*
X131912241Y-109135145D01*
X131817733Y-109135145D01*
X131817733Y-109234153D01*
X131817733Y-109333161D01*
X131718725Y-109333161D01*
X131619718Y-109333161D01*
X131619718Y-109139646D01*
X131619718Y-108946130D01*
X131912241Y-108946130D01*
X132204764Y-108946130D01*
X132204764Y-109040638D01*
X132204764Y-109135145D01*
X132299271Y-109135145D01*
X132393778Y-109135145D01*
X132393778Y-109040638D01*
X132789810Y-109040638D01*
X132789810Y-109135145D01*
X132884317Y-109135145D01*
X132978825Y-109135145D01*
X132978825Y-109040638D01*
X132978825Y-108946130D01*
X132884317Y-108946130D01*
X132789810Y-108946130D01*
X132789810Y-109040638D01*
X132393778Y-109040638D01*
X132393778Y-108946130D01*
X132299271Y-108946130D01*
X132204764Y-108946130D01*
X132204764Y-108847123D01*
X132204764Y-108748115D01*
X132398279Y-108748115D01*
X132591794Y-108748115D01*
X132591794Y-108847123D01*
X132591794Y-108946130D01*
X132690802Y-108946130D01*
X132789810Y-108946130D01*
X132789810Y-108847123D01*
X132789810Y-108748115D01*
X132690802Y-108748115D01*
X132591794Y-108748115D01*
X132591794Y-108554600D01*
X132591794Y-108361084D01*
X132299271Y-108361084D01*
X132006748Y-108361084D01*
X132006748Y-108167569D01*
X132006748Y-107974054D01*
X132105756Y-107974054D01*
X132204764Y-107974054D01*
X132204764Y-107776038D01*
X132204764Y-107677030D01*
X132591794Y-107677030D01*
X132591794Y-107776038D01*
X132690802Y-107776038D01*
X132789810Y-107776038D01*
X132789810Y-107677030D01*
X132789810Y-107578023D01*
X132690802Y-107578023D01*
X132591794Y-107578023D01*
X132591794Y-107677030D01*
X132204764Y-107677030D01*
X132204764Y-107578023D01*
X132299271Y-107578023D01*
X132393778Y-107578023D01*
X132393778Y-107384507D01*
X132393778Y-107190992D01*
X132492786Y-107190992D01*
X132591794Y-107190992D01*
X132591794Y-107290000D01*
X132591794Y-107389008D01*
X132690802Y-107389008D01*
X132789810Y-107389008D01*
X132789810Y-107195493D01*
X132789810Y-107001977D01*
X132884317Y-107001977D01*
X132978825Y-107001977D01*
X132978825Y-106902970D01*
X132978825Y-106803962D01*
X132785309Y-106803962D01*
X132591794Y-106803962D01*
X132591794Y-106902970D01*
X132591794Y-107001977D01*
X132492786Y-107001977D01*
X132393778Y-107001977D01*
X132393778Y-106803962D01*
X132393778Y-106605946D01*
X132200263Y-106605946D01*
X132006748Y-106605946D01*
X132006748Y-106704954D01*
X132006748Y-106803962D01*
X131912241Y-106803962D01*
X131817733Y-106803962D01*
X131817733Y-106704954D01*
X131817733Y-106605946D01*
X131718725Y-106605946D01*
X131619718Y-106605946D01*
X131619718Y-106313423D01*
X131619718Y-106020900D01*
X131813233Y-106020900D01*
X132006748Y-106020900D01*
X132006748Y-106218916D01*
X132006748Y-106416931D01*
X132299271Y-106416931D01*
X132591794Y-106416931D01*
X132591794Y-106511439D01*
X132591794Y-106605946D01*
X132690802Y-106605946D01*
X132789810Y-106605946D01*
X132789810Y-106511439D01*
X132789810Y-106416931D01*
X132690802Y-106416931D01*
X132591794Y-106416931D01*
X132591794Y-106317923D01*
X132591794Y-106218916D01*
X132690802Y-106218916D01*
X132789810Y-106218916D01*
X132789810Y-105831885D01*
X132789810Y-105444855D01*
X132497287Y-105444855D01*
X132204764Y-105444855D01*
X132204764Y-105345847D01*
X132204764Y-105246839D01*
X132690802Y-105246839D01*
X133176840Y-105246839D01*
X133176840Y-105345847D01*
X133176840Y-105444855D01*
X133077832Y-105444855D01*
X132978825Y-105444855D01*
X132978825Y-105539362D01*
X132978825Y-105633870D01*
X133077832Y-105633870D01*
X133176840Y-105633870D01*
X133176840Y-105539362D01*
X133176840Y-105444855D01*
X133275848Y-105444855D01*
X133374856Y-105444855D01*
X133374856Y-105539362D01*
X133374856Y-105633870D01*
X133275848Y-105633870D01*
X133176840Y-105633870D01*
X133176840Y-105827385D01*
X133176840Y-106020900D01*
X133077832Y-106020900D01*
X132978825Y-106020900D01*
X132978825Y-106218916D01*
X132978825Y-106416931D01*
X133077832Y-106416931D01*
X133176840Y-106416931D01*
X133176840Y-106317923D01*
X133176840Y-106218916D01*
X133275848Y-106218916D01*
X133374856Y-106218916D01*
X133374856Y-106317923D01*
X133374856Y-106416931D01*
X133275848Y-106416931D01*
X133176840Y-106416931D01*
X133176840Y-106511439D01*
X133176840Y-106605946D01*
X133275848Y-106605946D01*
X133374856Y-106605946D01*
X133374856Y-106704954D01*
X133374856Y-106803962D01*
X133469363Y-106803962D01*
X133563871Y-106803962D01*
X133563871Y-106902970D01*
X133563871Y-107001977D01*
X133370355Y-107001977D01*
X133176840Y-107001977D01*
X133176840Y-107096485D01*
X133176840Y-107190992D01*
X133077832Y-107190992D01*
X132978825Y-107190992D01*
X132978825Y-107290000D01*
X132978825Y-107389008D01*
X133271348Y-107389008D01*
X133563871Y-107389008D01*
X133563871Y-107483515D01*
X133563871Y-107578023D01*
X133469363Y-107578023D01*
X133374856Y-107578023D01*
X133374856Y-107677030D01*
X133374856Y-107776038D01*
X133275848Y-107776038D01*
X133176840Y-107776038D01*
X133176840Y-107875046D01*
X133176840Y-107974054D01*
X133370355Y-107974054D01*
X133563871Y-107974054D01*
X133563871Y-108068561D01*
X133563871Y-108163069D01*
X133469363Y-108163069D01*
X133374856Y-108163069D01*
X133374856Y-108262077D01*
X133374856Y-108361084D01*
X133275848Y-108361084D01*
X133176840Y-108361084D01*
X133176840Y-108262077D01*
X133176840Y-108163069D01*
X133077832Y-108163069D01*
X132978825Y-108163069D01*
X132978825Y-107969553D01*
X132978825Y-107776038D01*
X132884317Y-107776038D01*
X132789810Y-107776038D01*
X132789810Y-107875046D01*
X132789810Y-107974054D01*
X132591794Y-107974054D01*
X132393778Y-107974054D01*
X132393778Y-108068561D01*
X132393778Y-108163069D01*
X132492786Y-108163069D01*
X132591794Y-108163069D01*
X132591794Y-108262077D01*
X132591794Y-108361084D01*
X132690802Y-108361084D01*
X132789810Y-108361084D01*
X132789810Y-108262077D01*
X132789810Y-108163069D01*
X132884317Y-108163069D01*
X132978825Y-108163069D01*
X132978825Y-108361084D01*
X132978825Y-108559100D01*
X132884317Y-108559100D01*
X132789810Y-108559100D01*
X132789810Y-108653607D01*
X132789810Y-108748115D01*
X132884317Y-108748115D01*
X132978825Y-108748115D01*
X132978825Y-108653607D01*
X132978825Y-108559100D01*
X133077832Y-108559100D01*
X133176840Y-108559100D01*
X133176840Y-108653607D01*
X133176840Y-108752615D01*
X133176840Y-108946130D01*
X133275848Y-108946130D01*
X133374856Y-108946130D01*
X133374856Y-109040638D01*
X133374856Y-109135145D01*
X133469363Y-109135145D01*
X133563871Y-109135145D01*
X133761886Y-109135145D01*
X133761886Y-109234153D01*
X133761886Y-109333161D01*
X133955401Y-109333161D01*
X134148917Y-109333161D01*
X134148917Y-109432169D01*
X134148917Y-109526676D01*
X134148917Y-109720191D01*
X134247924Y-109720191D01*
X134346932Y-109720191D01*
X134346932Y-109531176D01*
X134535947Y-109531176D01*
X134535947Y-109724692D01*
X134535947Y-109918207D01*
X134634955Y-109918207D01*
X134733963Y-109918207D01*
X134733963Y-109724692D01*
X134733963Y-109531176D01*
X134634955Y-109531176D01*
X134535947Y-109531176D01*
X134346932Y-109531176D01*
X134346932Y-109333161D01*
X134346932Y-109135145D01*
X134535947Y-109135145D01*
X134535947Y-109234153D01*
X134535947Y-109333161D01*
X134634955Y-109333161D01*
X134733963Y-109333161D01*
X134733963Y-109234153D01*
X134733963Y-109135145D01*
X134634955Y-109135145D01*
X134535947Y-109135145D01*
X134346932Y-109135145D01*
X134346932Y-108946130D01*
X134247924Y-108946130D01*
X134148917Y-108946130D01*
X134148917Y-109040638D01*
X134148917Y-109135145D01*
X133955401Y-109135145D01*
X133761886Y-109135145D01*
X133563871Y-109135145D01*
X133563871Y-108941630D01*
X133563871Y-108748115D01*
X133757386Y-108748115D01*
X133950901Y-108748115D01*
X133950901Y-108847123D01*
X133950901Y-108946130D01*
X134049909Y-108946130D01*
X134148917Y-108946130D01*
X134148917Y-108847123D01*
X134148917Y-108748115D01*
X134441440Y-108748115D01*
X134733963Y-108748115D01*
X134733963Y-108847123D01*
X134733963Y-108946130D01*
X135319009Y-108946130D01*
X135904055Y-108946130D01*
X135904055Y-108653607D01*
X135904055Y-108361084D01*
X135998562Y-108361084D01*
X136093070Y-108361084D01*
X136093070Y-108460092D01*
X136093070Y-108559100D01*
X136192078Y-108559100D01*
X136291085Y-108559100D01*
X136291085Y-108460092D01*
X136291085Y-108361084D01*
X136192078Y-108361084D01*
X136093070Y-108361084D01*
X136093070Y-108068561D01*
X136093070Y-107776038D01*
X136192078Y-107776038D01*
X136291085Y-107776038D01*
X136291085Y-107677030D01*
X136291085Y-107578023D01*
X136390093Y-107578023D01*
X136489101Y-107578023D01*
X136489101Y-107483515D01*
X136489101Y-107389008D01*
X136583608Y-107389008D01*
X136678116Y-107389008D01*
X136678116Y-107290000D01*
X136678116Y-107190992D01*
X136871631Y-107190992D01*
X137065146Y-107190992D01*
X137065146Y-107290000D01*
X137065146Y-107389008D01*
X136970639Y-107389008D01*
X136876131Y-107389008D01*
X136876131Y-107582523D01*
X136876131Y-107776038D01*
X136682616Y-107776038D01*
X136489101Y-107776038D01*
X136489101Y-107875046D01*
X136489101Y-107974054D01*
X136390093Y-107974054D01*
X136291085Y-107974054D01*
X136291085Y-108068561D01*
X136291085Y-108163069D01*
X136390093Y-108163069D01*
X136489101Y-108163069D01*
X136489101Y-108262077D01*
X136489101Y-108361084D01*
X136583608Y-108361084D01*
X136678116Y-108361084D01*
X136678116Y-108460092D01*
X136678116Y-108559100D01*
X136777124Y-108559100D01*
X136876131Y-108559100D01*
X136876131Y-108460092D01*
X136876131Y-108361084D01*
X137069647Y-108361084D01*
X137263162Y-108361084D01*
X137263162Y-108460092D01*
X137263162Y-108559100D01*
X137164154Y-108559100D01*
X137065146Y-108559100D01*
X137065146Y-108653607D01*
X137065146Y-108748115D01*
X137164154Y-108748115D01*
X137263162Y-108748115D01*
X137461177Y-108748115D01*
X137555685Y-108748115D01*
X137650192Y-108748115D01*
X137650192Y-108653607D01*
X137650192Y-108559100D01*
X137555685Y-108559100D01*
X137461177Y-108559100D01*
X137461177Y-108653607D01*
X137461177Y-108748115D01*
X137263162Y-108748115D01*
X137263162Y-108653607D01*
X137263162Y-108559100D01*
X137362170Y-108559100D01*
X137461177Y-108559100D01*
X137461177Y-108460092D01*
X137461177Y-108361084D01*
X137555685Y-108361084D01*
X137650192Y-108361084D01*
X137650192Y-108262077D01*
X137650192Y-108163069D01*
X137848208Y-108163069D01*
X137848208Y-108455592D01*
X137848208Y-108748115D01*
X137947216Y-108748115D01*
X138046224Y-108748115D01*
X138046224Y-108455592D01*
X138046224Y-108163069D01*
X137947216Y-108163069D01*
X137848208Y-108163069D01*
X137650192Y-108163069D01*
X137357669Y-108163069D01*
X137065146Y-108163069D01*
X137065146Y-107969553D01*
X137065146Y-107776038D01*
X137164154Y-107776038D01*
X137263162Y-107776038D01*
X137263162Y-107875046D01*
X137263162Y-107974054D01*
X137555685Y-107974054D01*
X137848208Y-107974054D01*
X138046224Y-107974054D01*
X138046224Y-108068561D01*
X138046224Y-108163069D01*
X138239739Y-108163069D01*
X138433254Y-108163069D01*
X138433254Y-108068561D01*
X138433254Y-107974054D01*
X138239739Y-107974054D01*
X138046224Y-107974054D01*
X137848208Y-107974054D01*
X137848208Y-107875046D01*
X137848208Y-107776038D01*
X137947216Y-107776038D01*
X138046224Y-107776038D01*
X138046224Y-107677030D01*
X138046224Y-107578023D01*
X138140731Y-107578023D01*
X138235238Y-107578023D01*
X138235238Y-107677030D01*
X138235238Y-107776038D01*
X138334246Y-107776038D01*
X138433254Y-107776038D01*
X138433254Y-107875046D01*
X138433254Y-107974054D01*
X138527761Y-107974054D01*
X138622269Y-107974054D01*
X138622269Y-107776038D01*
X138622269Y-107578023D01*
X138428754Y-107578023D01*
X138235238Y-107578023D01*
X138235238Y-107483515D01*
X138235238Y-107389008D01*
X138334246Y-107389008D01*
X138433254Y-107389008D01*
X138433254Y-106997477D01*
X138433254Y-106605946D01*
X138527761Y-106605946D01*
X138622269Y-106605946D01*
X138622269Y-106412431D01*
X138622269Y-106218916D01*
X138428754Y-106218916D01*
X138235238Y-106218916D01*
X138235238Y-106317923D01*
X138235238Y-106416931D01*
X138140731Y-106416931D01*
X138046224Y-106416931D01*
X138046224Y-106511439D01*
X138046224Y-106605946D01*
X137753701Y-106605946D01*
X137461177Y-106605946D01*
X137461177Y-106511439D01*
X137461177Y-106416931D01*
X137263162Y-106416931D01*
X137065146Y-106416931D01*
X137065146Y-106511439D01*
X137065146Y-106605946D01*
X136970639Y-106605946D01*
X136876131Y-106605946D01*
X136876131Y-106313423D01*
X136876131Y-106020900D01*
X136970639Y-106020900D01*
X137065146Y-106020900D01*
X137065146Y-105827385D01*
X137065146Y-105633870D01*
X136970639Y-105633870D01*
X136876131Y-105633870D01*
X136876131Y-105539362D01*
X136876131Y-105444855D01*
X136970639Y-105444855D01*
X137065146Y-105444855D01*
X137065146Y-105053324D01*
X137065146Y-104661793D01*
X136970639Y-104661793D01*
X136876131Y-104661793D01*
X136876131Y-104954316D01*
X136876131Y-105246839D01*
X136682616Y-105246839D01*
X136489101Y-105246839D01*
X136489101Y-105147831D01*
X136489101Y-105048824D01*
X136583608Y-105048824D01*
X136678116Y-105048824D01*
X136678116Y-104954316D01*
X136678116Y-104859809D01*
X136583608Y-104859809D01*
X136489101Y-104859809D01*
X136489101Y-104760801D01*
X136489101Y-104661793D01*
X136390093Y-104661793D01*
X136291085Y-104661793D01*
X136291085Y-104562785D01*
X136291085Y-104463777D01*
X136192078Y-104463777D01*
X136093070Y-104463777D01*
X136093070Y-104756300D01*
X136093070Y-104954316D01*
X136093070Y-105048824D01*
X136192078Y-105048824D01*
X136291085Y-105048824D01*
X136291085Y-105147831D01*
X136291085Y-105246839D01*
X136192078Y-105246839D01*
X136093070Y-105246839D01*
X136093070Y-105345847D01*
X136093070Y-105444855D01*
X136192078Y-105444855D01*
X136291085Y-105444855D01*
X136291085Y-105638370D01*
X136291085Y-105831885D01*
X136484601Y-105831885D01*
X136678116Y-105831885D01*
X136678116Y-106218916D01*
X136678116Y-106605946D01*
X136583608Y-106605946D01*
X136489101Y-106605946D01*
X136489101Y-106704954D01*
X136489101Y-106803962D01*
X136291085Y-106803962D01*
X136093070Y-106803962D01*
X136093070Y-106902970D01*
X136093070Y-107001977D01*
X135899555Y-107001977D01*
X135706039Y-107001977D01*
X135706039Y-106902970D01*
X135706039Y-106803962D01*
X135805047Y-106803962D01*
X135904055Y-106803962D01*
X135904055Y-106704954D01*
X135904055Y-106605946D01*
X135998562Y-106605946D01*
X136093070Y-106605946D01*
X136093070Y-106511439D01*
X136093070Y-106416931D01*
X136291085Y-106416931D01*
X136489101Y-106416931D01*
X136489101Y-106218916D01*
X136489101Y-106020900D01*
X136390093Y-106020900D01*
X136291085Y-106020900D01*
X136291085Y-106119908D01*
X136291085Y-106218916D01*
X136192078Y-106218916D01*
X136093070Y-106218916D01*
X136093070Y-106025400D01*
X136093070Y-105831885D01*
X135998562Y-105831885D01*
X135904055Y-105831885D01*
X135904055Y-105638370D01*
X135904055Y-105444855D01*
X135805047Y-105444855D01*
X135706039Y-105444855D01*
X135706039Y-105345847D01*
X135706039Y-105246839D01*
X135607031Y-105246839D01*
X135508024Y-105246839D01*
X135508024Y-105539362D01*
X135508024Y-105831885D01*
X135413516Y-105831885D01*
X135319009Y-105831885D01*
X135319009Y-105638370D01*
X135319009Y-105444855D01*
X135220001Y-105444855D01*
X135120993Y-105444855D01*
X135120993Y-105539362D01*
X135120993Y-105633870D01*
X135026486Y-105633870D01*
X134931978Y-105633870D01*
X134931978Y-105341347D01*
X134931978Y-105053324D01*
X135319009Y-105053324D01*
X135319009Y-105246839D01*
X135413516Y-105246839D01*
X135508024Y-105246839D01*
X135508024Y-105053324D01*
X135508024Y-104859809D01*
X135706039Y-104859809D01*
X135706039Y-104954316D01*
X135706039Y-105048824D01*
X135805047Y-105048824D01*
X135904055Y-105048824D01*
X135904055Y-104954316D01*
X135904055Y-104859809D01*
X135805047Y-104859809D01*
X135706039Y-104859809D01*
X135508024Y-104859809D01*
X135413516Y-104859809D01*
X135319009Y-104859809D01*
X135319009Y-105053324D01*
X134931978Y-105053324D01*
X134931978Y-105048824D01*
X135026486Y-105048824D01*
X135120993Y-105048824D01*
X135120993Y-104855308D01*
X135120993Y-104661793D01*
X135220001Y-104661793D01*
X135319009Y-104661793D01*
X135319009Y-104369270D01*
X135319009Y-104076747D01*
X135220001Y-104076747D01*
X135120993Y-104076747D01*
X135120993Y-104270262D01*
X135120993Y-104463777D01*
X135026486Y-104463777D01*
X134931978Y-104463777D01*
X134931978Y-104562785D01*
X134931978Y-104661793D01*
X134832971Y-104661793D01*
X134733963Y-104661793D01*
X134733963Y-104562785D01*
X134733963Y-104463777D01*
X134634955Y-104463777D01*
X134535947Y-104463777D01*
X134535947Y-104562785D01*
X134535947Y-104661793D01*
X134634955Y-104661793D01*
X134733963Y-104661793D01*
X134733963Y-104760801D01*
X134733963Y-104859809D01*
X134634955Y-104859809D01*
X134535947Y-104859809D01*
X134535947Y-104954316D01*
X134535947Y-105048824D01*
X134634955Y-105048824D01*
X134733963Y-105048824D01*
X134733963Y-105246839D01*
X134733963Y-105444855D01*
X134634955Y-105444855D01*
X134535947Y-105444855D01*
X134535947Y-105345847D01*
X134535947Y-105246839D01*
X134441440Y-105246839D01*
X134346932Y-105246839D01*
X134346932Y-105345847D01*
X134346932Y-105444855D01*
X134441440Y-105444855D01*
X134535947Y-105444855D01*
X134535947Y-105638370D01*
X134535947Y-105831885D01*
X134634955Y-105831885D01*
X134733963Y-105831885D01*
X134733963Y-105926393D01*
X134733963Y-106020900D01*
X134634955Y-106020900D01*
X134535947Y-106020900D01*
X134535947Y-106218916D01*
X134535947Y-106317923D01*
X134535947Y-106416931D01*
X134441440Y-106416931D01*
X134346932Y-106416931D01*
X134346932Y-106511439D01*
X134346932Y-106605946D01*
X134540448Y-106605946D01*
X134733963Y-106605946D01*
X134733963Y-106803962D01*
X134733963Y-107001977D01*
X134832971Y-107001977D01*
X134931978Y-107001977D01*
X134931978Y-107096485D01*
X134931978Y-107190992D01*
X134832971Y-107190992D01*
X134733963Y-107190992D01*
X134733963Y-107290000D01*
X134733963Y-107389008D01*
X135026486Y-107389008D01*
X135319009Y-107389008D01*
X135319009Y-107483515D01*
X135319009Y-107578023D01*
X135220001Y-107578023D01*
X135120993Y-107578023D01*
X135120993Y-107677030D01*
X135120993Y-107776038D01*
X135026486Y-107776038D01*
X134931978Y-107776038D01*
X134931978Y-107677030D01*
X134931978Y-107578023D01*
X134832971Y-107578023D01*
X134733963Y-107578023D01*
X134733963Y-107677030D01*
X134733963Y-107776038D01*
X134634955Y-107776038D01*
X134535947Y-107776038D01*
X134535947Y-107875046D01*
X134535947Y-107974054D01*
X134441440Y-107974054D01*
X134346932Y-107974054D01*
X134346932Y-107776038D01*
X134346932Y-107578023D01*
X134441440Y-107578023D01*
X134535947Y-107578023D01*
X134535947Y-107190992D01*
X134535947Y-106803962D01*
X134441440Y-106803962D01*
X134346932Y-106803962D01*
X134346932Y-106902970D01*
X134346932Y-107001977D01*
X134247924Y-107001977D01*
X134148917Y-107001977D01*
X134148917Y-106902970D01*
X134148917Y-106803962D01*
X134049909Y-106803962D01*
X133950901Y-106803962D01*
X133950901Y-106704954D01*
X133950901Y-106605946D01*
X133856394Y-106605946D01*
X133761886Y-106605946D01*
X133761886Y-106511439D01*
X133761886Y-106416931D01*
X133662878Y-106416931D01*
X133563871Y-106416931D01*
X133563871Y-106317923D01*
X133563871Y-106218916D01*
X133469363Y-106218916D01*
X133374856Y-106218916D01*
X133374856Y-106119908D01*
X133374856Y-106020900D01*
X133469363Y-106020900D01*
X133563871Y-106020900D01*
X133563871Y-105827385D01*
X133563871Y-105633870D01*
X133662878Y-105633870D01*
X133761886Y-105633870D01*
X133761886Y-105926393D01*
X133761886Y-106218916D01*
X133856394Y-106218916D01*
X133950901Y-106218916D01*
X133950901Y-106317923D01*
X133950901Y-106416931D01*
X134049909Y-106416931D01*
X134148917Y-106416931D01*
X134148917Y-106317923D01*
X134148917Y-106218916D01*
X134049909Y-106218916D01*
X133950901Y-106218916D01*
X133950901Y-105831885D01*
X133950901Y-105633870D01*
X134148917Y-105633870D01*
X134148917Y-105926393D01*
X134148917Y-106218916D01*
X134247924Y-106218916D01*
X134346932Y-106218916D01*
X134346932Y-105926393D01*
X134346932Y-105633870D01*
X134247924Y-105633870D01*
X134148917Y-105633870D01*
X133950901Y-105633870D01*
X133950901Y-105444855D01*
X134049909Y-105444855D01*
X134148917Y-105444855D01*
X134148917Y-105246839D01*
X134148917Y-105048824D01*
X134049909Y-105048824D01*
X133950901Y-105048824D01*
X133950901Y-104954316D01*
X133950901Y-104859809D01*
X134049909Y-104859809D01*
X134148917Y-104859809D01*
X134148917Y-104954316D01*
X134148917Y-105048824D01*
X134247924Y-105048824D01*
X134346932Y-105048824D01*
X134346932Y-104954316D01*
X134346932Y-104859809D01*
X134247924Y-104859809D01*
X134148917Y-104859809D01*
X134148917Y-104760801D01*
X134148917Y-104661793D01*
X134049909Y-104661793D01*
X133950901Y-104661793D01*
X133950901Y-104562785D01*
X133950901Y-104463777D01*
X133856394Y-104463777D01*
X133761886Y-104463777D01*
X133761886Y-104369270D01*
X133761886Y-104274763D01*
X133568371Y-104274763D01*
X133374856Y-104274763D01*
X133374856Y-104175755D01*
X133374856Y-104076747D01*
X133469363Y-104076747D01*
X133563871Y-104076747D01*
X133563871Y-103982240D01*
X133563871Y-103887732D01*
X133761886Y-103887732D01*
X133761886Y-103982240D01*
X133761886Y-104076747D01*
X133856394Y-104076747D01*
X133950901Y-104076747D01*
X133950901Y-103982240D01*
X133950901Y-103887732D01*
X133856394Y-103887732D01*
X133761886Y-103887732D01*
X133563871Y-103887732D01*
X133370355Y-103887732D01*
X133176840Y-103887732D01*
X133176840Y-103788724D01*
X133176840Y-103689717D01*
X133563871Y-103689717D01*
X133950901Y-103689717D01*
X133950901Y-103788724D01*
X133950901Y-103887732D01*
X134148917Y-103887732D01*
X134346932Y-103887732D01*
X134346932Y-103788724D01*
X134346932Y-103689717D01*
X134441440Y-103689717D01*
X134535947Y-103689717D01*
X134535947Y-103788724D01*
X134535947Y-103887732D01*
X134441440Y-103887732D01*
X134346932Y-103887732D01*
X134346932Y-103982240D01*
X134346932Y-104076747D01*
G37*
G36*
X136876131Y-109625684D02*
G01*
X136876131Y-109720191D01*
X136777124Y-109720191D01*
X136678116Y-109720191D01*
X136678116Y-109625684D01*
X136678116Y-109531176D01*
X136777124Y-109531176D01*
X136876131Y-109531176D01*
X136876131Y-109625684D01*
G37*
G36*
X136390093Y-109135145D02*
G01*
X136489101Y-109135145D01*
X136489101Y-109234153D01*
X136489101Y-109333161D01*
X136390093Y-109333161D01*
X136291085Y-109333161D01*
X136291085Y-109234153D01*
X136291085Y-109135145D01*
X136390093Y-109135145D01*
G37*
G36*
X137555685Y-105633870D02*
G01*
X137650192Y-105633870D01*
X137650192Y-105732877D01*
X137650192Y-105831885D01*
X137749200Y-105831885D01*
X137848208Y-105831885D01*
X137848208Y-105732877D01*
X137848208Y-105633870D01*
X137947216Y-105633870D01*
X138046224Y-105633870D01*
X138046224Y-105732877D01*
X138046224Y-105831885D01*
X137947216Y-105831885D01*
X137848208Y-105831885D01*
X137848208Y-105926393D01*
X137848208Y-106020900D01*
X137749200Y-106020900D01*
X137650192Y-106020900D01*
X137650192Y-105926393D01*
X137650192Y-105831885D01*
X137555685Y-105831885D01*
X137461177Y-105831885D01*
X137461177Y-105732877D01*
X137461177Y-105633870D01*
X137555685Y-105633870D01*
G37*
D13*
%TO.C,J4*%
X106756469Y-88490000D02*
X106756469Y-111410000D01*
X109416469Y-85890000D02*
X108086469Y-85890000D01*
X109416469Y-87220000D02*
X109416469Y-85890000D01*
X109416469Y-88490000D02*
X106756469Y-88490000D01*
X109416469Y-88490000D02*
X109416469Y-111410000D01*
X109416469Y-111410000D02*
X106756469Y-111410000D01*
%TO.C,J6*%
X152506469Y-88490000D02*
X152506469Y-111410000D01*
X155166469Y-85890000D02*
X153836469Y-85890000D01*
X155166469Y-87220000D02*
X155166469Y-85890000D01*
X155166469Y-88490000D02*
X152506469Y-88490000D01*
X155166469Y-88490000D02*
X155166469Y-111410000D01*
X155166469Y-111410000D02*
X152506469Y-111410000D01*
%TO.C,J3*%
X99506469Y-88490000D02*
X99506469Y-111410000D01*
X102166469Y-85890000D02*
X100836469Y-85890000D01*
X102166469Y-87220000D02*
X102166469Y-85890000D01*
X102166469Y-88490000D02*
X99506469Y-88490000D01*
X102166469Y-88490000D02*
X102166469Y-111410000D01*
X102166469Y-111410000D02*
X99506469Y-111410000D01*
%TO.C,J5*%
X145256469Y-88490000D02*
X145256469Y-111410000D01*
X147916469Y-85890000D02*
X146586469Y-85890000D01*
X147916469Y-87220000D02*
X147916469Y-85890000D01*
X147916469Y-88490000D02*
X145256469Y-88490000D01*
X147916469Y-88490000D02*
X147916469Y-111410000D01*
X147916469Y-111410000D02*
X145256469Y-111410000D01*
%TD*%
M02*
