M48
; DRILL file {KiCad 9.0.0} date 2025-09-23T12:45:56-0400
; FORMAT={-:-/ absolute / metric / decimal}
; #@! TF.CreationDate,2025-09-23T12:45:56-04:00
; #@! TF.GenerationSoftware,Kicad,Pcbnew,9.0.0
; #@! TF.FileFunction,MixedPlating,1,2
FMAT,2
METRIC
; #@! TA.AperFunction,Plated,PTH,ComponentDrill
T1C1.000
%
G90
G05
T1
X100.836Y-87.22
X100.836Y-89.76
X100.836Y-92.3
X100.836Y-94.84
X100.836Y-97.38
X100.836Y-99.92
X100.836Y-102.46
X100.836Y-105.0
X100.836Y-107.54
X100.836Y-110.08
X108.086Y-87.22
X108.086Y-89.76
X108.086Y-92.3
X108.086Y-94.84
X108.086Y-97.38
X108.086Y-99.92
X108.086Y-102.46
X108.086Y-105.0
X108.086Y-107.54
X108.086Y-110.08
X126.141Y-87.265
X126.141Y-89.805
X126.141Y-92.345
X126.141Y-94.885
X126.141Y-97.425
X126.141Y-99.965
X126.141Y-102.505
X126.141Y-105.045
X126.141Y-107.585
X126.141Y-110.125
X128.681Y-87.265
X128.681Y-89.805
X128.681Y-92.345
X128.681Y-94.885
X128.681Y-97.425
X128.681Y-99.965
X128.681Y-102.505
X128.681Y-105.045
X128.681Y-107.585
X128.681Y-110.125
X146.586Y-87.22
X146.586Y-89.76
X146.586Y-92.3
X146.586Y-94.84
X146.586Y-97.38
X146.586Y-99.92
X146.586Y-102.46
X146.586Y-105.0
X146.586Y-107.54
X146.586Y-110.08
X153.836Y-87.22
X153.836Y-89.76
X153.836Y-92.3
X153.836Y-94.84
X153.836Y-97.38
X153.836Y-99.92
X153.836Y-102.46
X153.836Y-105.0
X153.836Y-107.54
X153.836Y-110.08
X168.685Y-87.265
X168.685Y-89.805
X168.685Y-92.345
X168.685Y-94.885
X168.685Y-97.425
X168.685Y-99.965
X168.685Y-102.505
X168.685Y-105.045
X168.685Y-107.585
X168.685Y-110.125
X171.225Y-87.265
X171.225Y-89.805
X171.225Y-92.345
X171.225Y-94.885
X171.225Y-97.425
X171.225Y-99.965
X171.225Y-102.505
X171.225Y-105.045
X171.225Y-107.585
X171.225Y-110.125
M30
