%TF.GenerationSoftware,KiCad,Pcbnew,9.0.1+1*%
%TF.CreationDate,2026-03-06T03:29:57+00:00*%
%TF.ProjectId,CSC202_LP_MSPM0G3507_2TERM_BREAKOUT,43534332-3032-45f4-9c50-5f4d53504d30,A*%
%TF.SameCoordinates,Original*%
%TF.FileFunction,OtherDrawing,Comment*%
%FSLAX46Y46*%
G04 Gerber Fmt 4.6, Leading zero omitted, Abs format (unit mm)*
G04 Created by KiCad (PCBNEW 9.0.1+1) date 2026-03-06 03:29:57*
%MOMM*%
%LPD*%
G01*
G04 APERTURE LIST*
%ADD10C,0.150000*%
%ADD11C,0.100000*%
G04 APERTURE END LIST*
D10*
X88149279Y-125762319D02*
X88149279Y-124762319D01*
X88149279Y-124762319D02*
X88387374Y-124762319D01*
X88387374Y-124762319D02*
X88530231Y-124809938D01*
X88530231Y-124809938D02*
X88625469Y-124905176D01*
X88625469Y-124905176D02*
X88673088Y-125000414D01*
X88673088Y-125000414D02*
X88720707Y-125190890D01*
X88720707Y-125190890D02*
X88720707Y-125333747D01*
X88720707Y-125333747D02*
X88673088Y-125524223D01*
X88673088Y-125524223D02*
X88625469Y-125619461D01*
X88625469Y-125619461D02*
X88530231Y-125714700D01*
X88530231Y-125714700D02*
X88387374Y-125762319D01*
X88387374Y-125762319D02*
X88149279Y-125762319D01*
X89149279Y-125762319D02*
X89149279Y-124762319D01*
X89625469Y-125762319D02*
X89625469Y-124762319D01*
X89625469Y-124762319D02*
X89958802Y-125476604D01*
X89958802Y-125476604D02*
X90292135Y-124762319D01*
X90292135Y-124762319D02*
X90292135Y-125762319D01*
X90768326Y-125238509D02*
X91101659Y-125238509D01*
X91244516Y-125762319D02*
X90768326Y-125762319D01*
X90768326Y-125762319D02*
X90768326Y-124762319D01*
X90768326Y-124762319D02*
X91244516Y-124762319D01*
X91673088Y-125762319D02*
X91673088Y-124762319D01*
X91673088Y-124762319D02*
X92244516Y-125762319D01*
X92244516Y-125762319D02*
X92244516Y-124762319D01*
X92673088Y-125714700D02*
X92815945Y-125762319D01*
X92815945Y-125762319D02*
X93054040Y-125762319D01*
X93054040Y-125762319D02*
X93149278Y-125714700D01*
X93149278Y-125714700D02*
X93196897Y-125667080D01*
X93196897Y-125667080D02*
X93244516Y-125571842D01*
X93244516Y-125571842D02*
X93244516Y-125476604D01*
X93244516Y-125476604D02*
X93196897Y-125381366D01*
X93196897Y-125381366D02*
X93149278Y-125333747D01*
X93149278Y-125333747D02*
X93054040Y-125286128D01*
X93054040Y-125286128D02*
X92863564Y-125238509D01*
X92863564Y-125238509D02*
X92768326Y-125190890D01*
X92768326Y-125190890D02*
X92720707Y-125143271D01*
X92720707Y-125143271D02*
X92673088Y-125048033D01*
X92673088Y-125048033D02*
X92673088Y-124952795D01*
X92673088Y-124952795D02*
X92720707Y-124857557D01*
X92720707Y-124857557D02*
X92768326Y-124809938D01*
X92768326Y-124809938D02*
X92863564Y-124762319D01*
X92863564Y-124762319D02*
X93101659Y-124762319D01*
X93101659Y-124762319D02*
X93244516Y-124809938D01*
X93673088Y-125762319D02*
X93673088Y-124762319D01*
X94339754Y-124762319D02*
X94530230Y-124762319D01*
X94530230Y-124762319D02*
X94625468Y-124809938D01*
X94625468Y-124809938D02*
X94720706Y-124905176D01*
X94720706Y-124905176D02*
X94768325Y-125095652D01*
X94768325Y-125095652D02*
X94768325Y-125428985D01*
X94768325Y-125428985D02*
X94720706Y-125619461D01*
X94720706Y-125619461D02*
X94625468Y-125714700D01*
X94625468Y-125714700D02*
X94530230Y-125762319D01*
X94530230Y-125762319D02*
X94339754Y-125762319D01*
X94339754Y-125762319D02*
X94244516Y-125714700D01*
X94244516Y-125714700D02*
X94149278Y-125619461D01*
X94149278Y-125619461D02*
X94101659Y-125428985D01*
X94101659Y-125428985D02*
X94101659Y-125095652D01*
X94101659Y-125095652D02*
X94149278Y-124905176D01*
X94149278Y-124905176D02*
X94244516Y-124809938D01*
X94244516Y-124809938D02*
X94339754Y-124762319D01*
X95196897Y-125762319D02*
X95196897Y-124762319D01*
X95196897Y-124762319D02*
X95768325Y-125762319D01*
X95768325Y-125762319D02*
X95768325Y-124762319D01*
X96196897Y-125714700D02*
X96339754Y-125762319D01*
X96339754Y-125762319D02*
X96577849Y-125762319D01*
X96577849Y-125762319D02*
X96673087Y-125714700D01*
X96673087Y-125714700D02*
X96720706Y-125667080D01*
X96720706Y-125667080D02*
X96768325Y-125571842D01*
X96768325Y-125571842D02*
X96768325Y-125476604D01*
X96768325Y-125476604D02*
X96720706Y-125381366D01*
X96720706Y-125381366D02*
X96673087Y-125333747D01*
X96673087Y-125333747D02*
X96577849Y-125286128D01*
X96577849Y-125286128D02*
X96387373Y-125238509D01*
X96387373Y-125238509D02*
X96292135Y-125190890D01*
X96292135Y-125190890D02*
X96244516Y-125143271D01*
X96244516Y-125143271D02*
X96196897Y-125048033D01*
X96196897Y-125048033D02*
X96196897Y-124952795D01*
X96196897Y-124952795D02*
X96244516Y-124857557D01*
X96244516Y-124857557D02*
X96292135Y-124809938D01*
X96292135Y-124809938D02*
X96387373Y-124762319D01*
X96387373Y-124762319D02*
X96625468Y-124762319D01*
X96625468Y-124762319D02*
X96768325Y-124809938D01*
X97911183Y-125476604D02*
X98387373Y-125476604D01*
X97815945Y-125762319D02*
X98149278Y-124762319D01*
X98149278Y-124762319D02*
X98482611Y-125762319D01*
X99387373Y-125762319D02*
X99054040Y-125286128D01*
X98815945Y-125762319D02*
X98815945Y-124762319D01*
X98815945Y-124762319D02*
X99196897Y-124762319D01*
X99196897Y-124762319D02*
X99292135Y-124809938D01*
X99292135Y-124809938D02*
X99339754Y-124857557D01*
X99339754Y-124857557D02*
X99387373Y-124952795D01*
X99387373Y-124952795D02*
X99387373Y-125095652D01*
X99387373Y-125095652D02*
X99339754Y-125190890D01*
X99339754Y-125190890D02*
X99292135Y-125238509D01*
X99292135Y-125238509D02*
X99196897Y-125286128D01*
X99196897Y-125286128D02*
X98815945Y-125286128D01*
X99815945Y-125238509D02*
X100149278Y-125238509D01*
X100292135Y-125762319D02*
X99815945Y-125762319D01*
X99815945Y-125762319D02*
X99815945Y-124762319D01*
X99815945Y-124762319D02*
X100292135Y-124762319D01*
X101482612Y-125762319D02*
X101482612Y-124762319D01*
X101958802Y-125762319D02*
X101958802Y-124762319D01*
X101958802Y-124762319D02*
X102530230Y-125762319D01*
X102530230Y-125762319D02*
X102530230Y-124762319D01*
X103768326Y-125762319D02*
X103768326Y-124762319D01*
X103768326Y-124762319D02*
X104101659Y-125476604D01*
X104101659Y-125476604D02*
X104434992Y-124762319D01*
X104434992Y-124762319D02*
X104434992Y-125762319D01*
X104911183Y-125762319D02*
X104911183Y-124762319D01*
X105863563Y-125762319D02*
X105387373Y-125762319D01*
X105387373Y-125762319D02*
X105387373Y-124762319D01*
X106673087Y-125762319D02*
X106196897Y-125762319D01*
X106196897Y-125762319D02*
X106196897Y-124762319D01*
X107006421Y-125762319D02*
X107006421Y-124762319D01*
X107482611Y-125762319D02*
X107482611Y-124762319D01*
X107482611Y-124762319D02*
X107815944Y-125476604D01*
X107815944Y-125476604D02*
X108149277Y-124762319D01*
X108149277Y-124762319D02*
X108149277Y-125762319D01*
X108625468Y-125238509D02*
X108958801Y-125238509D01*
X109101658Y-125762319D02*
X108625468Y-125762319D01*
X108625468Y-125762319D02*
X108625468Y-124762319D01*
X108625468Y-124762319D02*
X109101658Y-124762319D01*
X109387373Y-124762319D02*
X109958801Y-124762319D01*
X109673087Y-125762319D02*
X109673087Y-124762319D01*
X110292135Y-125238509D02*
X110625468Y-125238509D01*
X110768325Y-125762319D02*
X110292135Y-125762319D01*
X110292135Y-125762319D02*
X110292135Y-124762319D01*
X110292135Y-124762319D02*
X110768325Y-124762319D01*
X111768325Y-125762319D02*
X111434992Y-125286128D01*
X111196897Y-125762319D02*
X111196897Y-124762319D01*
X111196897Y-124762319D02*
X111577849Y-124762319D01*
X111577849Y-124762319D02*
X111673087Y-124809938D01*
X111673087Y-124809938D02*
X111720706Y-124857557D01*
X111720706Y-124857557D02*
X111768325Y-124952795D01*
X111768325Y-124952795D02*
X111768325Y-125095652D01*
X111768325Y-125095652D02*
X111720706Y-125190890D01*
X111720706Y-125190890D02*
X111673087Y-125238509D01*
X111673087Y-125238509D02*
X111577849Y-125286128D01*
X111577849Y-125286128D02*
X111196897Y-125286128D01*
X112149278Y-125714700D02*
X112292135Y-125762319D01*
X112292135Y-125762319D02*
X112530230Y-125762319D01*
X112530230Y-125762319D02*
X112625468Y-125714700D01*
X112625468Y-125714700D02*
X112673087Y-125667080D01*
X112673087Y-125667080D02*
X112720706Y-125571842D01*
X112720706Y-125571842D02*
X112720706Y-125476604D01*
X112720706Y-125476604D02*
X112673087Y-125381366D01*
X112673087Y-125381366D02*
X112625468Y-125333747D01*
X112625468Y-125333747D02*
X112530230Y-125286128D01*
X112530230Y-125286128D02*
X112339754Y-125238509D01*
X112339754Y-125238509D02*
X112244516Y-125190890D01*
X112244516Y-125190890D02*
X112196897Y-125143271D01*
X112196897Y-125143271D02*
X112149278Y-125048033D01*
X112149278Y-125048033D02*
X112149278Y-124952795D01*
X112149278Y-124952795D02*
X112196897Y-124857557D01*
X112196897Y-124857557D02*
X112244516Y-124809938D01*
X112244516Y-124809938D02*
X112339754Y-124762319D01*
X112339754Y-124762319D02*
X112577849Y-124762319D01*
X112577849Y-124762319D02*
X112720706Y-124809938D01*
X88006422Y-126372263D02*
X88577850Y-126372263D01*
X88292136Y-127372263D02*
X88292136Y-126372263D01*
X89101660Y-126372263D02*
X89292136Y-126372263D01*
X89292136Y-126372263D02*
X89387374Y-126419882D01*
X89387374Y-126419882D02*
X89482612Y-126515120D01*
X89482612Y-126515120D02*
X89530231Y-126705596D01*
X89530231Y-126705596D02*
X89530231Y-127038929D01*
X89530231Y-127038929D02*
X89482612Y-127229405D01*
X89482612Y-127229405D02*
X89387374Y-127324644D01*
X89387374Y-127324644D02*
X89292136Y-127372263D01*
X89292136Y-127372263D02*
X89101660Y-127372263D01*
X89101660Y-127372263D02*
X89006422Y-127324644D01*
X89006422Y-127324644D02*
X88911184Y-127229405D01*
X88911184Y-127229405D02*
X88863565Y-127038929D01*
X88863565Y-127038929D02*
X88863565Y-126705596D01*
X88863565Y-126705596D02*
X88911184Y-126515120D01*
X88911184Y-126515120D02*
X89006422Y-126419882D01*
X89006422Y-126419882D02*
X89101660Y-126372263D01*
X90434993Y-127372263D02*
X89958803Y-127372263D01*
X89958803Y-127372263D02*
X89958803Y-126372263D01*
X90768327Y-126848453D02*
X91101660Y-126848453D01*
X91244517Y-127372263D02*
X90768327Y-127372263D01*
X90768327Y-127372263D02*
X90768327Y-126372263D01*
X90768327Y-126372263D02*
X91244517Y-126372263D01*
X92244517Y-127372263D02*
X91911184Y-126896072D01*
X91673089Y-127372263D02*
X91673089Y-126372263D01*
X91673089Y-126372263D02*
X92054041Y-126372263D01*
X92054041Y-126372263D02*
X92149279Y-126419882D01*
X92149279Y-126419882D02*
X92196898Y-126467501D01*
X92196898Y-126467501D02*
X92244517Y-126562739D01*
X92244517Y-126562739D02*
X92244517Y-126705596D01*
X92244517Y-126705596D02*
X92196898Y-126800834D01*
X92196898Y-126800834D02*
X92149279Y-126848453D01*
X92149279Y-126848453D02*
X92054041Y-126896072D01*
X92054041Y-126896072D02*
X91673089Y-126896072D01*
X92625470Y-127086548D02*
X93101660Y-127086548D01*
X92530232Y-127372263D02*
X92863565Y-126372263D01*
X92863565Y-126372263D02*
X93196898Y-127372263D01*
X93530232Y-127372263D02*
X93530232Y-126372263D01*
X93530232Y-126372263D02*
X94101660Y-127372263D01*
X94101660Y-127372263D02*
X94101660Y-126372263D01*
X95149279Y-127277024D02*
X95101660Y-127324644D01*
X95101660Y-127324644D02*
X94958803Y-127372263D01*
X94958803Y-127372263D02*
X94863565Y-127372263D01*
X94863565Y-127372263D02*
X94720708Y-127324644D01*
X94720708Y-127324644D02*
X94625470Y-127229405D01*
X94625470Y-127229405D02*
X94577851Y-127134167D01*
X94577851Y-127134167D02*
X94530232Y-126943691D01*
X94530232Y-126943691D02*
X94530232Y-126800834D01*
X94530232Y-126800834D02*
X94577851Y-126610358D01*
X94577851Y-126610358D02*
X94625470Y-126515120D01*
X94625470Y-126515120D02*
X94720708Y-126419882D01*
X94720708Y-126419882D02*
X94863565Y-126372263D01*
X94863565Y-126372263D02*
X94958803Y-126372263D01*
X94958803Y-126372263D02*
X95101660Y-126419882D01*
X95101660Y-126419882D02*
X95149279Y-126467501D01*
X95577851Y-126848453D02*
X95911184Y-126848453D01*
X96054041Y-127372263D02*
X95577851Y-127372263D01*
X95577851Y-127372263D02*
X95577851Y-126372263D01*
X95577851Y-126372263D02*
X96054041Y-126372263D01*
X97244518Y-126800834D02*
X98006423Y-126800834D01*
X97625470Y-127181786D02*
X97625470Y-126419882D01*
X98006423Y-127372263D02*
X97244518Y-127372263D01*
X98673089Y-126372263D02*
X98768327Y-126372263D01*
X98768327Y-126372263D02*
X98863565Y-126419882D01*
X98863565Y-126419882D02*
X98911184Y-126467501D01*
X98911184Y-126467501D02*
X98958803Y-126562739D01*
X98958803Y-126562739D02*
X99006422Y-126753215D01*
X99006422Y-126753215D02*
X99006422Y-126991310D01*
X99006422Y-126991310D02*
X98958803Y-127181786D01*
X98958803Y-127181786D02*
X98911184Y-127277024D01*
X98911184Y-127277024D02*
X98863565Y-127324644D01*
X98863565Y-127324644D02*
X98768327Y-127372263D01*
X98768327Y-127372263D02*
X98673089Y-127372263D01*
X98673089Y-127372263D02*
X98577851Y-127324644D01*
X98577851Y-127324644D02*
X98530232Y-127277024D01*
X98530232Y-127277024D02*
X98482613Y-127181786D01*
X98482613Y-127181786D02*
X98434994Y-126991310D01*
X98434994Y-126991310D02*
X98434994Y-126753215D01*
X98434994Y-126753215D02*
X98482613Y-126562739D01*
X98482613Y-126562739D02*
X98530232Y-126467501D01*
X98530232Y-126467501D02*
X98577851Y-126419882D01*
X98577851Y-126419882D02*
X98673089Y-126372263D01*
X99434994Y-127277024D02*
X99482613Y-127324644D01*
X99482613Y-127324644D02*
X99434994Y-127372263D01*
X99434994Y-127372263D02*
X99387375Y-127324644D01*
X99387375Y-127324644D02*
X99434994Y-127277024D01*
X99434994Y-127277024D02*
X99434994Y-127372263D01*
X100434993Y-127372263D02*
X99863565Y-127372263D01*
X100149279Y-127372263D02*
X100149279Y-126372263D01*
X100149279Y-126372263D02*
X100054041Y-126515120D01*
X100054041Y-126515120D02*
X99958803Y-126610358D01*
X99958803Y-126610358D02*
X99863565Y-126657977D01*
X101625470Y-127372263D02*
X101625470Y-126705596D01*
X101625470Y-126800834D02*
X101673089Y-126753215D01*
X101673089Y-126753215D02*
X101768327Y-126705596D01*
X101768327Y-126705596D02*
X101911184Y-126705596D01*
X101911184Y-126705596D02*
X102006422Y-126753215D01*
X102006422Y-126753215D02*
X102054041Y-126848453D01*
X102054041Y-126848453D02*
X102054041Y-127372263D01*
X102054041Y-126848453D02*
X102101660Y-126753215D01*
X102101660Y-126753215D02*
X102196898Y-126705596D01*
X102196898Y-126705596D02*
X102339755Y-126705596D01*
X102339755Y-126705596D02*
X102434994Y-126753215D01*
X102434994Y-126753215D02*
X102482613Y-126848453D01*
X102482613Y-126848453D02*
X102482613Y-127372263D01*
X102958803Y-127372263D02*
X102958803Y-126705596D01*
X102958803Y-126800834D02*
X103006422Y-126753215D01*
X103006422Y-126753215D02*
X103101660Y-126705596D01*
X103101660Y-126705596D02*
X103244517Y-126705596D01*
X103244517Y-126705596D02*
X103339755Y-126753215D01*
X103339755Y-126753215D02*
X103387374Y-126848453D01*
X103387374Y-126848453D02*
X103387374Y-127372263D01*
X103387374Y-126848453D02*
X103434993Y-126753215D01*
X103434993Y-126753215D02*
X103530231Y-126705596D01*
X103530231Y-126705596D02*
X103673088Y-126705596D01*
X103673088Y-126705596D02*
X103768327Y-126753215D01*
X103768327Y-126753215D02*
X103815946Y-126848453D01*
X103815946Y-126848453D02*
X103815946Y-127372263D01*
D11*
X86860000Y-123770000D02*
X114080000Y-123770000D01*
X114080000Y-128490000D01*
X86860000Y-128490000D01*
X86860000Y-123770000D01*
D10*
X85084819Y-98264422D02*
X85084819Y-97645375D01*
X85084819Y-97645375D02*
X85465771Y-97978708D01*
X85465771Y-97978708D02*
X85465771Y-97835851D01*
X85465771Y-97835851D02*
X85513390Y-97740613D01*
X85513390Y-97740613D02*
X85561009Y-97692994D01*
X85561009Y-97692994D02*
X85656247Y-97645375D01*
X85656247Y-97645375D02*
X85894342Y-97645375D01*
X85894342Y-97645375D02*
X85989580Y-97692994D01*
X85989580Y-97692994D02*
X86037200Y-97740613D01*
X86037200Y-97740613D02*
X86084819Y-97835851D01*
X86084819Y-97835851D02*
X86084819Y-98121565D01*
X86084819Y-98121565D02*
X86037200Y-98216803D01*
X86037200Y-98216803D02*
X85989580Y-98264422D01*
X85084819Y-96740613D02*
X85084819Y-97216803D01*
X85084819Y-97216803D02*
X85561009Y-97264422D01*
X85561009Y-97264422D02*
X85513390Y-97216803D01*
X85513390Y-97216803D02*
X85465771Y-97121565D01*
X85465771Y-97121565D02*
X85465771Y-96883470D01*
X85465771Y-96883470D02*
X85513390Y-96788232D01*
X85513390Y-96788232D02*
X85561009Y-96740613D01*
X85561009Y-96740613D02*
X85656247Y-96692994D01*
X85656247Y-96692994D02*
X85894342Y-96692994D01*
X85894342Y-96692994D02*
X85989580Y-96740613D01*
X85989580Y-96740613D02*
X86037200Y-96788232D01*
X86037200Y-96788232D02*
X86084819Y-96883470D01*
X86084819Y-96883470D02*
X86084819Y-97121565D01*
X86084819Y-97121565D02*
X86037200Y-97216803D01*
X86037200Y-97216803D02*
X85989580Y-97264422D01*
D11*
X177708927Y-79979798D02*
X86193580Y-79979798D01*
X86193580Y-114930000D02*
X177708927Y-114930000D01*
X86780000Y-79979798D02*
X86780000Y-114930000D01*
X86780000Y-79979798D02*
X87366421Y-81106302D01*
X86780000Y-79979798D02*
X86193579Y-81106302D01*
X86780000Y-114930000D02*
X86193579Y-113803496D01*
X86780000Y-114930000D02*
X87366421Y-113803496D01*
D10*
X138508333Y-76914819D02*
X137936905Y-76914819D01*
X138222619Y-76914819D02*
X138222619Y-75914819D01*
X138222619Y-75914819D02*
X138127381Y-76057676D01*
X138127381Y-76057676D02*
X138032143Y-76152914D01*
X138032143Y-76152914D02*
X137936905Y-76200533D01*
X139127381Y-75914819D02*
X139222619Y-75914819D01*
X139222619Y-75914819D02*
X139317857Y-75962438D01*
X139317857Y-75962438D02*
X139365476Y-76010057D01*
X139365476Y-76010057D02*
X139413095Y-76105295D01*
X139413095Y-76105295D02*
X139460714Y-76295771D01*
X139460714Y-76295771D02*
X139460714Y-76533866D01*
X139460714Y-76533866D02*
X139413095Y-76724342D01*
X139413095Y-76724342D02*
X139365476Y-76819580D01*
X139365476Y-76819580D02*
X139317857Y-76867200D01*
X139317857Y-76867200D02*
X139222619Y-76914819D01*
X139222619Y-76914819D02*
X139127381Y-76914819D01*
X139127381Y-76914819D02*
X139032143Y-76867200D01*
X139032143Y-76867200D02*
X138984524Y-76819580D01*
X138984524Y-76819580D02*
X138936905Y-76724342D01*
X138936905Y-76724342D02*
X138889286Y-76533866D01*
X138889286Y-76533866D02*
X138889286Y-76295771D01*
X138889286Y-76295771D02*
X138936905Y-76105295D01*
X138936905Y-76105295D02*
X138984524Y-76010057D01*
X138984524Y-76010057D02*
X139032143Y-75962438D01*
X139032143Y-75962438D02*
X139127381Y-75914819D01*
X140079762Y-75914819D02*
X140175000Y-75914819D01*
X140175000Y-75914819D02*
X140270238Y-75962438D01*
X140270238Y-75962438D02*
X140317857Y-76010057D01*
X140317857Y-76010057D02*
X140365476Y-76105295D01*
X140365476Y-76105295D02*
X140413095Y-76295771D01*
X140413095Y-76295771D02*
X140413095Y-76533866D01*
X140413095Y-76533866D02*
X140365476Y-76724342D01*
X140365476Y-76724342D02*
X140317857Y-76819580D01*
X140317857Y-76819580D02*
X140270238Y-76867200D01*
X140270238Y-76867200D02*
X140175000Y-76914819D01*
X140175000Y-76914819D02*
X140079762Y-76914819D01*
X140079762Y-76914819D02*
X139984524Y-76867200D01*
X139984524Y-76867200D02*
X139936905Y-76819580D01*
X139936905Y-76819580D02*
X139889286Y-76724342D01*
X139889286Y-76724342D02*
X139841667Y-76533866D01*
X139841667Y-76533866D02*
X139841667Y-76295771D01*
X139841667Y-76295771D02*
X139889286Y-76105295D01*
X139889286Y-76105295D02*
X139936905Y-76010057D01*
X139936905Y-76010057D02*
X139984524Y-75962438D01*
X139984524Y-75962438D02*
X140079762Y-75914819D01*
D11*
X89150000Y-82740000D02*
X89150000Y-77023580D01*
X189200000Y-77023580D02*
X189200000Y-82810000D01*
X89150000Y-77610000D02*
X189200000Y-77610000D01*
X89150000Y-77610000D02*
X90276504Y-77023579D01*
X89150000Y-77610000D02*
X90276504Y-78196421D01*
X189200000Y-77610000D02*
X188073496Y-78196421D01*
X189200000Y-77610000D02*
X188073496Y-77023579D01*
M02*
