M48
; DRILL file {KiCad 9.0.0} date 2025-09-30T11:44:21-0400
; FORMAT={-:-/ absolute / metric / decimal}
; #@! TF.CreationDate,2025-09-30T11:44:21-04:00
; #@! TF.GenerationSoftware,Kicad,Pcbnew,9.0.0
; #@! TF.FileFunction,MixedPlating,1,2
FMAT,2
METRIC
; #@! TA.AperFunction,Plated,PTH,ComponentDrill
T1C1.000
%
G90
G05
T1
X100.283Y-87.431
X100.283Y-89.971
X100.283Y-92.511
X100.283Y-95.051
X100.283Y-97.591
X100.283Y-100.131
X100.283Y-102.671
X100.283Y-105.211
X100.283Y-107.751
X100.283Y-110.291
X107.533Y-87.431
X107.533Y-89.971
X107.533Y-92.511
X107.533Y-95.051
X107.533Y-97.591
X107.533Y-100.131
X107.533Y-102.671
X107.533Y-105.211
X107.533Y-107.751
X107.533Y-110.291
X138.383Y-87.451
X138.383Y-89.991
X138.383Y-92.531
X138.383Y-95.071
X138.383Y-97.611
X138.383Y-100.151
X138.383Y-102.691
X138.383Y-105.231
X138.383Y-107.771
X138.383Y-110.311
X140.923Y-87.451
X140.923Y-89.991
X140.923Y-92.531
X140.923Y-95.071
X140.923Y-97.611
X140.923Y-100.151
X140.923Y-102.691
X140.923Y-105.231
X140.923Y-107.771
X140.923Y-110.311
X155.032Y-87.431
X155.032Y-89.971
X155.032Y-92.511
X155.032Y-95.051
X155.032Y-97.591
X155.032Y-100.131
X155.032Y-102.671
X155.032Y-105.211
X155.032Y-107.751
X155.032Y-110.291
X162.282Y-87.431
X162.282Y-89.971
X162.282Y-92.511
X162.282Y-95.051
X162.282Y-97.591
X162.282Y-100.131
X162.282Y-102.671
X162.282Y-105.211
X162.282Y-107.751
X162.282Y-110.291
X180.927Y-87.451
X180.927Y-89.991
X180.927Y-92.531
X180.927Y-95.071
X180.927Y-97.611
X180.927Y-100.151
X180.927Y-102.691
X180.927Y-105.231
X180.927Y-107.771
X180.927Y-110.311
X183.467Y-87.451
X183.467Y-89.991
X183.467Y-92.531
X183.467Y-95.071
X183.467Y-97.611
X183.467Y-100.151
X183.467Y-102.691
X183.467Y-105.231
X183.467Y-107.771
X183.467Y-110.311
M30
