%TF.GenerationSoftware,KiCad,Pcbnew,9.0.0*%
%TF.CreationDate,2025-09-30T11:44:18-04:00*%
%TF.ProjectId,CSC202_LP_MSPM0G3507_2TERM_BREAKOUT,43534332-3032-45f4-9c50-5f4d53504d30,rev?*%
%TF.SameCoordinates,Original*%
%TF.FileFunction,Copper,L2,Bot*%
%TF.FilePolarity,Positive*%
%FSLAX46Y46*%
G04 Gerber Fmt 4.6, Leading zero omitted, Abs format (unit mm)*
G04 Created by KiCad (PCBNEW 9.0.0) date 2025-09-30 11:44:18*
%MOMM*%
%LPD*%
G01*
G04 APERTURE LIST*
%TA.AperFunction,ComponentPad*%
%ADD10O,1.700000X1.700000*%
%TD*%
%TA.AperFunction,ComponentPad*%
%ADD11R,1.700000X1.700000*%
%TD*%
G04 APERTURE END LIST*
D10*
%TO.P,J2,11,PB16*%
%TO.N,/KP_COL3*%
X183466827Y-110311000D03*
%TO.P,J2,12,PB0*%
%TO.N,/SPI_CS1*%
X183466827Y-107771000D03*
%TO.P,J2,13,PB6*%
%TO.N,/SPI_CS0*%
X183466827Y-105231000D03*
%TO.P,J2,14,PB7*%
%TO.N,/SPI_MISO*%
X183466827Y-102691000D03*
%TO.P,J2,15,PB8*%
%TO.N,/SPI_MOSI*%
X183466827Y-100151000D03*
%TO.P,J2,16,NRST*%
%TO.N,/NRST*%
X183466827Y-97611000D03*
%TO.P,J2,17,PB15*%
%TO.N,/KP_COL2*%
X183466827Y-95071000D03*
%TO.P,J2,18,PB17*%
%TO.N,/KP_COL1*%
X183466827Y-92531000D03*
%TO.P,J2,19,PB12*%
%TO.N,/KP_COL0*%
X183466827Y-89991000D03*
%TO.P,J2,20,GND*%
%TO.N,GND*%
X183466827Y-87451000D03*
%TO.P,J2,31,PA13*%
%TO.N,/LED5*%
X180926827Y-110311000D03*
%TO.P,J2,32,PA12*%
%TO.N,/LED4*%
X180926827Y-107771000D03*
%TO.P,J2,33,PA11*%
%TO.N,/LINRX*%
X180926827Y-105231000D03*
%TO.P,J2,34,PA10*%
%TO.N,/LINTX*%
X180926827Y-102691000D03*
%TO.P,J2,35,PB13*%
%TO.N,/LED3*%
X180926827Y-100151000D03*
%TO.P,J2,36,PB20*%
%TO.N,/LED2{slash}DIR_B*%
X180926827Y-97611000D03*
%TO.P,J2,37,PA31*%
%TO.N,/LED1{slash}DIR_A*%
X180926827Y-95071000D03*
%TO.P,J2,38,PA28*%
%TO.N,/LED0{slash}PWM*%
X180926827Y-92531000D03*
%TO.P,J2,39,PB1*%
%TO.N,/KP_ROW3*%
X180926827Y-89991000D03*
D11*
%TO.P,J2,40,PB4*%
%TO.N,/KP_ROW2*%
X180926827Y-87451000D03*
%TD*%
%TO.P,J1,1,3V3*%
%TO.N,+3V3*%
X138382827Y-87451000D03*
D10*
%TO.P,J1,2,PA25*%
%TO.N,/DIG1_EN*%
X138382827Y-89991000D03*
%TO.P,J1,3,PB23/A9*%
%TO.N,/KP_ROW0*%
X138382827Y-92531000D03*
%TO.P,J1,4,PA8*%
%TO.N,/KP_ROW1*%
X138382827Y-95071000D03*
%TO.P,J1,5,PA26*%
%TO.N,/DIG2_EN*%
X138382827Y-97611000D03*
%TO.P,J1,6,PB24*%
%TO.N,/ADC0.5*%
X138382827Y-100151000D03*
%TO.P,J1,7,PB9*%
%TO.N,/SPI_CLK*%
X138382827Y-102691000D03*
%TO.P,J1,8,PA27*%
%TO.N,/DIG3_EN*%
X138382827Y-105231000D03*
%TO.P,J1,9,PB2*%
%TO.N,/I2C_SCL*%
X138382827Y-107771000D03*
%TO.P,J1,10,PB3*%
%TO.N,/I2C_SDA*%
X138382827Y-110311000D03*
%TO.P,J1,21,5V*%
%TO.N,+5V*%
X140922827Y-87451000D03*
%TO.P,J1,22,GND*%
%TO.N,GND*%
X140922827Y-89991000D03*
%TO.P,J1,23,PB19*%
%TO.N,/SW1-1*%
X140922827Y-92531000D03*
%TO.P,J1,24,PA22*%
%TO.N,/SW1-2{slash}ADC0.7*%
X140922827Y-95071000D03*
%TO.P,J1,25,PB18*%
%TO.N,/SW1-3{slash}PB1*%
X140922827Y-97611000D03*
%TO.P,J1,26,PA18*%
%TO.N,/LED_EN*%
X140922827Y-100151000D03*
%TO.P,J1,27,PA24*%
%TO.N,/DIG0_EN*%
X140922827Y-102691000D03*
%TO.P,J1,28,PA17*%
%TO.N,/LED7*%
X140922827Y-105231000D03*
%TO.P,J1,29,PA16/A18*%
%TO.N,/LED6*%
X140922827Y-107771000D03*
%TO.P,J1,30,PA15*%
%TO.N,/SW1-4{slash}PB2*%
X140922827Y-110311000D03*
%TD*%
D11*
%TO.P,J4,1,Pin_1*%
%TO.N,+5V*%
X107533296Y-87431000D03*
D10*
%TO.P,J4,2,Pin_2*%
%TO.N,GND*%
X107533296Y-89971000D03*
%TO.P,J4,3,Pin_3*%
%TO.N,/SW1-1*%
X107533296Y-92511000D03*
%TO.P,J4,4,Pin_4*%
%TO.N,/SW1-2{slash}ADC0.7*%
X107533296Y-95051000D03*
%TO.P,J4,5,Pin_5*%
%TO.N,/SW1-3{slash}PB1*%
X107533296Y-97591000D03*
%TO.P,J4,6,Pin_6*%
%TO.N,/LED_EN*%
X107533296Y-100131000D03*
%TO.P,J4,7,Pin_7*%
%TO.N,/DIG0_EN*%
X107533296Y-102671000D03*
%TO.P,J4,8,Pin_8*%
%TO.N,/LED7*%
X107533296Y-105211000D03*
%TO.P,J4,9,Pin_9*%
%TO.N,/LED6*%
X107533296Y-107751000D03*
%TO.P,J4,10,Pin_10*%
%TO.N,/SW1-4{slash}PB2*%
X107533296Y-110291000D03*
%TD*%
D11*
%TO.P,J6,1,Pin_1*%
%TO.N,GND*%
X162282296Y-87431000D03*
D10*
%TO.P,J6,2,Pin_2*%
%TO.N,/KP_COL0*%
X162282296Y-89971000D03*
%TO.P,J6,3,Pin_3*%
%TO.N,/KP_COL1*%
X162282296Y-92511000D03*
%TO.P,J6,4,Pin_4*%
%TO.N,/KP_COL2*%
X162282296Y-95051000D03*
%TO.P,J6,5,Pin_5*%
%TO.N,/NRST*%
X162282296Y-97591000D03*
%TO.P,J6,6,Pin_6*%
%TO.N,/SPI_MOSI*%
X162282296Y-100131000D03*
%TO.P,J6,7,Pin_7*%
%TO.N,/SPI_MISO*%
X162282296Y-102671000D03*
%TO.P,J6,8,Pin_8*%
%TO.N,/SPI_CS0*%
X162282296Y-105211000D03*
%TO.P,J6,9,Pin_9*%
%TO.N,/SPI_CS1*%
X162282296Y-107751000D03*
%TO.P,J6,10,Pin_10*%
%TO.N,/KP_COL3*%
X162282296Y-110291000D03*
%TD*%
D11*
%TO.P,J3,1,Pin_1*%
%TO.N,+3V3*%
X100283296Y-87431000D03*
D10*
%TO.P,J3,2,Pin_2*%
%TO.N,/DIG1_EN*%
X100283296Y-89971000D03*
%TO.P,J3,3,Pin_3*%
%TO.N,/KP_ROW0*%
X100283296Y-92511000D03*
%TO.P,J3,4,Pin_4*%
%TO.N,/KP_ROW1*%
X100283296Y-95051000D03*
%TO.P,J3,5,Pin_5*%
%TO.N,/DIG2_EN*%
X100283296Y-97591000D03*
%TO.P,J3,6,Pin_6*%
%TO.N,/ADC0.5*%
X100283296Y-100131000D03*
%TO.P,J3,7,Pin_7*%
%TO.N,/SPI_CLK*%
X100283296Y-102671000D03*
%TO.P,J3,8,Pin_8*%
%TO.N,/DIG3_EN*%
X100283296Y-105211000D03*
%TO.P,J3,9,Pin_9*%
%TO.N,/I2C_SCL*%
X100283296Y-107751000D03*
%TO.P,J3,10,Pin_10*%
%TO.N,/I2C_SDA*%
X100283296Y-110291000D03*
%TD*%
D11*
%TO.P,J5,1,Pin_1*%
%TO.N,/KP_ROW2*%
X155032296Y-87431000D03*
D10*
%TO.P,J5,2,Pin_2*%
%TO.N,/KP_ROW3*%
X155032296Y-89971000D03*
%TO.P,J5,3,Pin_3*%
%TO.N,/LED0{slash}PWM*%
X155032296Y-92511000D03*
%TO.P,J5,4,Pin_4*%
%TO.N,/LED1{slash}DIR_A*%
X155032296Y-95051000D03*
%TO.P,J5,5,Pin_5*%
%TO.N,/LED2{slash}DIR_B*%
X155032296Y-97591000D03*
%TO.P,J5,6,Pin_6*%
%TO.N,/LED3*%
X155032296Y-100131000D03*
%TO.P,J5,7,Pin_7*%
%TO.N,/LINTX*%
X155032296Y-102671000D03*
%TO.P,J5,8,Pin_8*%
%TO.N,/LINRX*%
X155032296Y-105211000D03*
%TO.P,J5,9,Pin_9*%
%TO.N,/LED4*%
X155032296Y-107751000D03*
%TO.P,J5,10,Pin_10*%
%TO.N,/LED5*%
X155032296Y-110291000D03*
%TD*%
%TA.AperFunction,Conductor*%
%TO.N,GND*%
G36*
X188145512Y-80491121D02*
G01*
X188240073Y-80501775D01*
X188261669Y-80506705D01*
X188346202Y-80536283D01*
X188366168Y-80545899D01*
X188404079Y-80569720D01*
X188441987Y-80593540D01*
X188459319Y-80607361D01*
X188522638Y-80670680D01*
X188536459Y-80688012D01*
X188584098Y-80763828D01*
X188593718Y-80783803D01*
X188623293Y-80868326D01*
X188628225Y-80889938D01*
X188638877Y-80984470D01*
X188639500Y-80995555D01*
X188639500Y-113984444D01*
X188638877Y-113995528D01*
X188638877Y-113995529D01*
X188628225Y-114090061D01*
X188623293Y-114111673D01*
X188593718Y-114196196D01*
X188584098Y-114216171D01*
X188536459Y-114291987D01*
X188522638Y-114309319D01*
X188459319Y-114372638D01*
X188441987Y-114386459D01*
X188366171Y-114434098D01*
X188346196Y-114443718D01*
X188261673Y-114473293D01*
X188240061Y-114478225D01*
X188145529Y-114488877D01*
X188134444Y-114489500D01*
X90145556Y-114489500D01*
X90134471Y-114488877D01*
X90039938Y-114478225D01*
X90018326Y-114473293D01*
X89933803Y-114443718D01*
X89913828Y-114434098D01*
X89838012Y-114386459D01*
X89820680Y-114372638D01*
X89757361Y-114309319D01*
X89743540Y-114291987D01*
X89695901Y-114216171D01*
X89686283Y-114196202D01*
X89656705Y-114111669D01*
X89651775Y-114090073D01*
X89641121Y-113995512D01*
X89640500Y-113984444D01*
X89640500Y-110187532D01*
X99232796Y-110187532D01*
X99232796Y-110394467D01*
X99273165Y-110597418D01*
X99352354Y-110788597D01*
X99365718Y-110808598D01*
X99467319Y-110960655D01*
X99613641Y-111106977D01*
X99785698Y-111221941D01*
X99976876Y-111301130D01*
X100179831Y-111341500D01*
X100179832Y-111341500D01*
X100386760Y-111341500D01*
X100386761Y-111341500D01*
X100589716Y-111301130D01*
X100780894Y-111221941D01*
X100952951Y-111106977D01*
X101099273Y-110960655D01*
X101214237Y-110788598D01*
X101293426Y-110597420D01*
X101333796Y-110394465D01*
X101333796Y-110187535D01*
X101333795Y-110187532D01*
X106482796Y-110187532D01*
X106482796Y-110394467D01*
X106523165Y-110597418D01*
X106602354Y-110788597D01*
X106615718Y-110808598D01*
X106717319Y-110960655D01*
X106863641Y-111106977D01*
X107035698Y-111221941D01*
X107226876Y-111301130D01*
X107429831Y-111341500D01*
X107429832Y-111341500D01*
X107636760Y-111341500D01*
X107636761Y-111341500D01*
X107839716Y-111301130D01*
X108030894Y-111221941D01*
X108202951Y-111106977D01*
X108349273Y-110960655D01*
X108464237Y-110788598D01*
X108543426Y-110597420D01*
X108583796Y-110394465D01*
X108583796Y-110207532D01*
X137332327Y-110207532D01*
X137332327Y-110414467D01*
X137372696Y-110617418D01*
X137451885Y-110808597D01*
X137566847Y-110980651D01*
X137566850Y-110980655D01*
X137713172Y-111126977D01*
X137885229Y-111241941D01*
X138076407Y-111321130D01*
X138279362Y-111361500D01*
X138279363Y-111361500D01*
X138486291Y-111361500D01*
X138486292Y-111361500D01*
X138689247Y-111321130D01*
X138880425Y-111241941D01*
X139052482Y-111126977D01*
X139198804Y-110980655D01*
X139313768Y-110808598D01*
X139392957Y-110617420D01*
X139433327Y-110414465D01*
X139433327Y-110207535D01*
X139433326Y-110207532D01*
X139872327Y-110207532D01*
X139872327Y-110414467D01*
X139912696Y-110617418D01*
X139991885Y-110808597D01*
X140106847Y-110980651D01*
X140106850Y-110980655D01*
X140253172Y-111126977D01*
X140425229Y-111241941D01*
X140616407Y-111321130D01*
X140819362Y-111361500D01*
X140819363Y-111361500D01*
X141026291Y-111361500D01*
X141026292Y-111361500D01*
X141229247Y-111321130D01*
X141420425Y-111241941D01*
X141592482Y-111126977D01*
X141738804Y-110980655D01*
X141853768Y-110808598D01*
X141932957Y-110617420D01*
X141973327Y-110414465D01*
X141973327Y-110207535D01*
X141973326Y-110207533D01*
X141973326Y-110207527D01*
X141972224Y-110201987D01*
X141972223Y-110201985D01*
X141969348Y-110187532D01*
X153981796Y-110187532D01*
X153981796Y-110394467D01*
X154022165Y-110597418D01*
X154101354Y-110788597D01*
X154114718Y-110808598D01*
X154216319Y-110960655D01*
X154362641Y-111106977D01*
X154534698Y-111221941D01*
X154725876Y-111301130D01*
X154928831Y-111341500D01*
X154928832Y-111341500D01*
X155135760Y-111341500D01*
X155135761Y-111341500D01*
X155338716Y-111301130D01*
X155529894Y-111221941D01*
X155701951Y-111106977D01*
X155848273Y-110960655D01*
X155963237Y-110788598D01*
X156042426Y-110597420D01*
X156082796Y-110394465D01*
X156082796Y-110187535D01*
X156082795Y-110187532D01*
X161231796Y-110187532D01*
X161231796Y-110394467D01*
X161272165Y-110597418D01*
X161351354Y-110788597D01*
X161364718Y-110808598D01*
X161466319Y-110960655D01*
X161612641Y-111106977D01*
X161784698Y-111221941D01*
X161975876Y-111301130D01*
X162178831Y-111341500D01*
X162178832Y-111341500D01*
X162385760Y-111341500D01*
X162385761Y-111341500D01*
X162588716Y-111301130D01*
X162779894Y-111221941D01*
X162951951Y-111106977D01*
X163098273Y-110960655D01*
X163213237Y-110788598D01*
X163292426Y-110597420D01*
X163332796Y-110394465D01*
X163332796Y-110207532D01*
X179876327Y-110207532D01*
X179876327Y-110414467D01*
X179916696Y-110617418D01*
X179995885Y-110808597D01*
X180110847Y-110980651D01*
X180110850Y-110980655D01*
X180257172Y-111126977D01*
X180429229Y-111241941D01*
X180620407Y-111321130D01*
X180823362Y-111361500D01*
X180823363Y-111361500D01*
X181030291Y-111361500D01*
X181030292Y-111361500D01*
X181233247Y-111321130D01*
X181424425Y-111241941D01*
X181596482Y-111126977D01*
X181742804Y-110980655D01*
X181857768Y-110808598D01*
X181936957Y-110617420D01*
X181977327Y-110414465D01*
X181977327Y-110207535D01*
X181977326Y-110207532D01*
X182416327Y-110207532D01*
X182416327Y-110414467D01*
X182456696Y-110617418D01*
X182535885Y-110808597D01*
X182650847Y-110980651D01*
X182650850Y-110980655D01*
X182797172Y-111126977D01*
X182969229Y-111241941D01*
X183160407Y-111321130D01*
X183363362Y-111361500D01*
X183363363Y-111361500D01*
X183570291Y-111361500D01*
X183570292Y-111361500D01*
X183773247Y-111321130D01*
X183964425Y-111241941D01*
X184136482Y-111126977D01*
X184282804Y-110980655D01*
X184397768Y-110808598D01*
X184476957Y-110617420D01*
X184517327Y-110414465D01*
X184517327Y-110207535D01*
X184476957Y-110004580D01*
X184397768Y-109813402D01*
X184282804Y-109641345D01*
X184136482Y-109495023D01*
X184106550Y-109475023D01*
X183964424Y-109380058D01*
X183773245Y-109300869D01*
X183570294Y-109260500D01*
X183570292Y-109260500D01*
X183363362Y-109260500D01*
X183363359Y-109260500D01*
X183160408Y-109300869D01*
X182969229Y-109380058D01*
X182797175Y-109495020D01*
X182650847Y-109641348D01*
X182535885Y-109813402D01*
X182456696Y-110004581D01*
X182416327Y-110207532D01*
X181977326Y-110207532D01*
X181936957Y-110004580D01*
X181857768Y-109813402D01*
X181742804Y-109641345D01*
X181596482Y-109495023D01*
X181566550Y-109475023D01*
X181424424Y-109380058D01*
X181233245Y-109300869D01*
X181030294Y-109260500D01*
X181030292Y-109260500D01*
X180823362Y-109260500D01*
X180823359Y-109260500D01*
X180620408Y-109300869D01*
X180429229Y-109380058D01*
X180257175Y-109495020D01*
X180110847Y-109641348D01*
X179995885Y-109813402D01*
X179916696Y-110004581D01*
X179876327Y-110207532D01*
X163332796Y-110207532D01*
X163332796Y-110187535D01*
X163292426Y-109984580D01*
X163213237Y-109793402D01*
X163098273Y-109621345D01*
X162951951Y-109475023D01*
X162951947Y-109475020D01*
X162779893Y-109360058D01*
X162588714Y-109280869D01*
X162385763Y-109240500D01*
X162385761Y-109240500D01*
X162178831Y-109240500D01*
X162178828Y-109240500D01*
X161975877Y-109280869D01*
X161784698Y-109360058D01*
X161612644Y-109475020D01*
X161466316Y-109621348D01*
X161351354Y-109793402D01*
X161272165Y-109984581D01*
X161231796Y-110187532D01*
X156082795Y-110187532D01*
X156042426Y-109984580D01*
X155963237Y-109793402D01*
X155848273Y-109621345D01*
X155701951Y-109475023D01*
X155701947Y-109475020D01*
X155529893Y-109360058D01*
X155338714Y-109280869D01*
X155135763Y-109240500D01*
X155135761Y-109240500D01*
X154928831Y-109240500D01*
X154928828Y-109240500D01*
X154725877Y-109280869D01*
X154534698Y-109360058D01*
X154362644Y-109475020D01*
X154216316Y-109621348D01*
X154101354Y-109793402D01*
X154022165Y-109984581D01*
X153981796Y-110187532D01*
X141969348Y-110187532D01*
X141932957Y-110004581D01*
X141924672Y-109984580D01*
X141853768Y-109813402D01*
X141738804Y-109641345D01*
X141592482Y-109495023D01*
X141562550Y-109475023D01*
X141420424Y-109380058D01*
X141229245Y-109300869D01*
X141026294Y-109260500D01*
X141026292Y-109260500D01*
X140819362Y-109260500D01*
X140819359Y-109260500D01*
X140616408Y-109300869D01*
X140425229Y-109380058D01*
X140253175Y-109495020D01*
X140106847Y-109641348D01*
X139991885Y-109813402D01*
X139912696Y-110004581D01*
X139872327Y-110207532D01*
X139433326Y-110207532D01*
X139392957Y-110004580D01*
X139313768Y-109813402D01*
X139198804Y-109641345D01*
X139052482Y-109495023D01*
X139022550Y-109475023D01*
X138880424Y-109380058D01*
X138689245Y-109300869D01*
X138486294Y-109260500D01*
X138486292Y-109260500D01*
X138279362Y-109260500D01*
X138279359Y-109260500D01*
X138076408Y-109300869D01*
X137885229Y-109380058D01*
X137713175Y-109495020D01*
X137566847Y-109641348D01*
X137451885Y-109813402D01*
X137372696Y-110004581D01*
X137332327Y-110207532D01*
X108583796Y-110207532D01*
X108583796Y-110187535D01*
X108543426Y-109984580D01*
X108464237Y-109793402D01*
X108349273Y-109621345D01*
X108202951Y-109475023D01*
X108202947Y-109475020D01*
X108030893Y-109360058D01*
X107839714Y-109280869D01*
X107636763Y-109240500D01*
X107636761Y-109240500D01*
X107429831Y-109240500D01*
X107429828Y-109240500D01*
X107226877Y-109280869D01*
X107035698Y-109360058D01*
X106863644Y-109475020D01*
X106717316Y-109621348D01*
X106602354Y-109793402D01*
X106523165Y-109984581D01*
X106482796Y-110187532D01*
X101333795Y-110187532D01*
X101293426Y-109984580D01*
X101214237Y-109793402D01*
X101099273Y-109621345D01*
X100952951Y-109475023D01*
X100952947Y-109475020D01*
X100780893Y-109360058D01*
X100589714Y-109280869D01*
X100386763Y-109240500D01*
X100386761Y-109240500D01*
X100179831Y-109240500D01*
X100179828Y-109240500D01*
X99976877Y-109280869D01*
X99785698Y-109360058D01*
X99613644Y-109475020D01*
X99467316Y-109621348D01*
X99352354Y-109793402D01*
X99273165Y-109984581D01*
X99232796Y-110187532D01*
X89640500Y-110187532D01*
X89640500Y-107647532D01*
X99232796Y-107647532D01*
X99232796Y-107854467D01*
X99273165Y-108057418D01*
X99352354Y-108248597D01*
X99365718Y-108268598D01*
X99467319Y-108420655D01*
X99613641Y-108566977D01*
X99785698Y-108681941D01*
X99976876Y-108761130D01*
X100179831Y-108801500D01*
X100179832Y-108801500D01*
X100386760Y-108801500D01*
X100386761Y-108801500D01*
X100589716Y-108761130D01*
X100780894Y-108681941D01*
X100952951Y-108566977D01*
X101099273Y-108420655D01*
X101214237Y-108248598D01*
X101293426Y-108057420D01*
X101333796Y-107854465D01*
X101333796Y-107647535D01*
X101333795Y-107647532D01*
X106482796Y-107647532D01*
X106482796Y-107854467D01*
X106523165Y-108057418D01*
X106602354Y-108248597D01*
X106615718Y-108268598D01*
X106717319Y-108420655D01*
X106863641Y-108566977D01*
X107035698Y-108681941D01*
X107226876Y-108761130D01*
X107429831Y-108801500D01*
X107429832Y-108801500D01*
X107636760Y-108801500D01*
X107636761Y-108801500D01*
X107839716Y-108761130D01*
X108030894Y-108681941D01*
X108202951Y-108566977D01*
X108349273Y-108420655D01*
X108464237Y-108248598D01*
X108543426Y-108057420D01*
X108583796Y-107854465D01*
X108583796Y-107667532D01*
X137332327Y-107667532D01*
X137332327Y-107874467D01*
X137372696Y-108077418D01*
X137451885Y-108268597D01*
X137566847Y-108440651D01*
X137566850Y-108440655D01*
X137713172Y-108586977D01*
X137885229Y-108701941D01*
X138076407Y-108781130D01*
X138279362Y-108821500D01*
X138279363Y-108821500D01*
X138486291Y-108821500D01*
X138486292Y-108821500D01*
X138689247Y-108781130D01*
X138880425Y-108701941D01*
X139052482Y-108586977D01*
X139198804Y-108440655D01*
X139313768Y-108268598D01*
X139392957Y-108077420D01*
X139433327Y-107874465D01*
X139433327Y-107667535D01*
X139433326Y-107667532D01*
X139872327Y-107667532D01*
X139872327Y-107874467D01*
X139912696Y-108077418D01*
X139991885Y-108268597D01*
X140106847Y-108440651D01*
X140106850Y-108440655D01*
X140253172Y-108586977D01*
X140425229Y-108701941D01*
X140616407Y-108781130D01*
X140819362Y-108821500D01*
X140819363Y-108821500D01*
X141026291Y-108821500D01*
X141026292Y-108821500D01*
X141229247Y-108781130D01*
X141420425Y-108701941D01*
X141592482Y-108586977D01*
X141738804Y-108440655D01*
X141853768Y-108268598D01*
X141932957Y-108077420D01*
X141973327Y-107874465D01*
X141973327Y-107667535D01*
X141973326Y-107667533D01*
X141973326Y-107667527D01*
X141972224Y-107661987D01*
X141972223Y-107661985D01*
X141969348Y-107647532D01*
X153981796Y-107647532D01*
X153981796Y-107854467D01*
X154022165Y-108057418D01*
X154101354Y-108248597D01*
X154114718Y-108268598D01*
X154216319Y-108420655D01*
X154362641Y-108566977D01*
X154534698Y-108681941D01*
X154725876Y-108761130D01*
X154928831Y-108801500D01*
X154928832Y-108801500D01*
X155135760Y-108801500D01*
X155135761Y-108801500D01*
X155338716Y-108761130D01*
X155529894Y-108681941D01*
X155701951Y-108566977D01*
X155848273Y-108420655D01*
X155963237Y-108248598D01*
X156042426Y-108057420D01*
X156082796Y-107854465D01*
X156082796Y-107647535D01*
X156082795Y-107647532D01*
X161231796Y-107647532D01*
X161231796Y-107854467D01*
X161272165Y-108057418D01*
X161351354Y-108248597D01*
X161364718Y-108268598D01*
X161466319Y-108420655D01*
X161612641Y-108566977D01*
X161784698Y-108681941D01*
X161975876Y-108761130D01*
X162178831Y-108801500D01*
X162178832Y-108801500D01*
X162385760Y-108801500D01*
X162385761Y-108801500D01*
X162588716Y-108761130D01*
X162779894Y-108681941D01*
X162951951Y-108566977D01*
X163098273Y-108420655D01*
X163213237Y-108248598D01*
X163292426Y-108057420D01*
X163332796Y-107854465D01*
X163332796Y-107667532D01*
X179876327Y-107667532D01*
X179876327Y-107874467D01*
X179916696Y-108077418D01*
X179995885Y-108268597D01*
X180110847Y-108440651D01*
X180110850Y-108440655D01*
X180257172Y-108586977D01*
X180429229Y-108701941D01*
X180620407Y-108781130D01*
X180823362Y-108821500D01*
X180823363Y-108821500D01*
X181030291Y-108821500D01*
X181030292Y-108821500D01*
X181233247Y-108781130D01*
X181424425Y-108701941D01*
X181596482Y-108586977D01*
X181742804Y-108440655D01*
X181857768Y-108268598D01*
X181936957Y-108077420D01*
X181977327Y-107874465D01*
X181977327Y-107667535D01*
X181977326Y-107667532D01*
X182416327Y-107667532D01*
X182416327Y-107874467D01*
X182456696Y-108077418D01*
X182535885Y-108268597D01*
X182650847Y-108440651D01*
X182650850Y-108440655D01*
X182797172Y-108586977D01*
X182969229Y-108701941D01*
X183160407Y-108781130D01*
X183363362Y-108821500D01*
X183363363Y-108821500D01*
X183570291Y-108821500D01*
X183570292Y-108821500D01*
X183773247Y-108781130D01*
X183964425Y-108701941D01*
X184136482Y-108586977D01*
X184282804Y-108440655D01*
X184397768Y-108268598D01*
X184476957Y-108077420D01*
X184517327Y-107874465D01*
X184517327Y-107667535D01*
X184476957Y-107464580D01*
X184397768Y-107273402D01*
X184282804Y-107101345D01*
X184136482Y-106955023D01*
X184106550Y-106935023D01*
X183964424Y-106840058D01*
X183773245Y-106760869D01*
X183570294Y-106720500D01*
X183570292Y-106720500D01*
X183363362Y-106720500D01*
X183363359Y-106720500D01*
X183160408Y-106760869D01*
X182969229Y-106840058D01*
X182797175Y-106955020D01*
X182650847Y-107101348D01*
X182535885Y-107273402D01*
X182456696Y-107464581D01*
X182416327Y-107667532D01*
X181977326Y-107667532D01*
X181936957Y-107464580D01*
X181857768Y-107273402D01*
X181742804Y-107101345D01*
X181596482Y-106955023D01*
X181566550Y-106935023D01*
X181424424Y-106840058D01*
X181233245Y-106760869D01*
X181030294Y-106720500D01*
X181030292Y-106720500D01*
X180823362Y-106720500D01*
X180823359Y-106720500D01*
X180620408Y-106760869D01*
X180429229Y-106840058D01*
X180257175Y-106955020D01*
X180110847Y-107101348D01*
X179995885Y-107273402D01*
X179916696Y-107464581D01*
X179876327Y-107667532D01*
X163332796Y-107667532D01*
X163332796Y-107647535D01*
X163292426Y-107444580D01*
X163213237Y-107253402D01*
X163098273Y-107081345D01*
X162951951Y-106935023D01*
X162951947Y-106935020D01*
X162779893Y-106820058D01*
X162588714Y-106740869D01*
X162385763Y-106700500D01*
X162385761Y-106700500D01*
X162178831Y-106700500D01*
X162178828Y-106700500D01*
X161975877Y-106740869D01*
X161784698Y-106820058D01*
X161612644Y-106935020D01*
X161466316Y-107081348D01*
X161351354Y-107253402D01*
X161272165Y-107444581D01*
X161231796Y-107647532D01*
X156082795Y-107647532D01*
X156042426Y-107444580D01*
X155963237Y-107253402D01*
X155848273Y-107081345D01*
X155701951Y-106935023D01*
X155701947Y-106935020D01*
X155529893Y-106820058D01*
X155338714Y-106740869D01*
X155135763Y-106700500D01*
X155135761Y-106700500D01*
X154928831Y-106700500D01*
X154928828Y-106700500D01*
X154725877Y-106740869D01*
X154534698Y-106820058D01*
X154362644Y-106935020D01*
X154216316Y-107081348D01*
X154101354Y-107253402D01*
X154022165Y-107444581D01*
X153981796Y-107647532D01*
X141969348Y-107647532D01*
X141932957Y-107464581D01*
X141924672Y-107444580D01*
X141853768Y-107273402D01*
X141738804Y-107101345D01*
X141592482Y-106955023D01*
X141562550Y-106935023D01*
X141420424Y-106840058D01*
X141229245Y-106760869D01*
X141026294Y-106720500D01*
X141026292Y-106720500D01*
X140819362Y-106720500D01*
X140819359Y-106720500D01*
X140616408Y-106760869D01*
X140425229Y-106840058D01*
X140253175Y-106955020D01*
X140106847Y-107101348D01*
X139991885Y-107273402D01*
X139912696Y-107464581D01*
X139872327Y-107667532D01*
X139433326Y-107667532D01*
X139392957Y-107464580D01*
X139313768Y-107273402D01*
X139198804Y-107101345D01*
X139052482Y-106955023D01*
X139022550Y-106935023D01*
X138880424Y-106840058D01*
X138689245Y-106760869D01*
X138486294Y-106720500D01*
X138486292Y-106720500D01*
X138279362Y-106720500D01*
X138279359Y-106720500D01*
X138076408Y-106760869D01*
X137885229Y-106840058D01*
X137713175Y-106955020D01*
X137566847Y-107101348D01*
X137451885Y-107273402D01*
X137372696Y-107464581D01*
X137332327Y-107667532D01*
X108583796Y-107667532D01*
X108583796Y-107647535D01*
X108543426Y-107444580D01*
X108464237Y-107253402D01*
X108349273Y-107081345D01*
X108202951Y-106935023D01*
X108202947Y-106935020D01*
X108030893Y-106820058D01*
X107839714Y-106740869D01*
X107636763Y-106700500D01*
X107636761Y-106700500D01*
X107429831Y-106700500D01*
X107429828Y-106700500D01*
X107226877Y-106740869D01*
X107035698Y-106820058D01*
X106863644Y-106935020D01*
X106717316Y-107081348D01*
X106602354Y-107253402D01*
X106523165Y-107444581D01*
X106482796Y-107647532D01*
X101333795Y-107647532D01*
X101293426Y-107444580D01*
X101214237Y-107253402D01*
X101099273Y-107081345D01*
X100952951Y-106935023D01*
X100952947Y-106935020D01*
X100780893Y-106820058D01*
X100589714Y-106740869D01*
X100386763Y-106700500D01*
X100386761Y-106700500D01*
X100179831Y-106700500D01*
X100179828Y-106700500D01*
X99976877Y-106740869D01*
X99785698Y-106820058D01*
X99613644Y-106935020D01*
X99467316Y-107081348D01*
X99352354Y-107253402D01*
X99273165Y-107444581D01*
X99232796Y-107647532D01*
X89640500Y-107647532D01*
X89640500Y-105107532D01*
X99232796Y-105107532D01*
X99232796Y-105314467D01*
X99273165Y-105517418D01*
X99352354Y-105708597D01*
X99365718Y-105728598D01*
X99467319Y-105880655D01*
X99613641Y-106026977D01*
X99785698Y-106141941D01*
X99976876Y-106221130D01*
X100179831Y-106261500D01*
X100179832Y-106261500D01*
X100386760Y-106261500D01*
X100386761Y-106261500D01*
X100589716Y-106221130D01*
X100780894Y-106141941D01*
X100952951Y-106026977D01*
X101099273Y-105880655D01*
X101214237Y-105708598D01*
X101293426Y-105517420D01*
X101333796Y-105314465D01*
X101333796Y-105107535D01*
X101333795Y-105107532D01*
X106482796Y-105107532D01*
X106482796Y-105314467D01*
X106523165Y-105517418D01*
X106602354Y-105708597D01*
X106615718Y-105728598D01*
X106717319Y-105880655D01*
X106863641Y-106026977D01*
X107035698Y-106141941D01*
X107226876Y-106221130D01*
X107429831Y-106261500D01*
X107429832Y-106261500D01*
X107636760Y-106261500D01*
X107636761Y-106261500D01*
X107839716Y-106221130D01*
X108030894Y-106141941D01*
X108202951Y-106026977D01*
X108349273Y-105880655D01*
X108464237Y-105708598D01*
X108543426Y-105517420D01*
X108583796Y-105314465D01*
X108583796Y-105127532D01*
X137332327Y-105127532D01*
X137332327Y-105334467D01*
X137372696Y-105537418D01*
X137451885Y-105728597D01*
X137566847Y-105900651D01*
X137566850Y-105900655D01*
X137713172Y-106046977D01*
X137885229Y-106161941D01*
X138076407Y-106241130D01*
X138279362Y-106281500D01*
X138279363Y-106281500D01*
X138486291Y-106281500D01*
X138486292Y-106281500D01*
X138689247Y-106241130D01*
X138880425Y-106161941D01*
X139052482Y-106046977D01*
X139198804Y-105900655D01*
X139313768Y-105728598D01*
X139392957Y-105537420D01*
X139433327Y-105334465D01*
X139433327Y-105127535D01*
X139433326Y-105127532D01*
X139872327Y-105127532D01*
X139872327Y-105334467D01*
X139912696Y-105537418D01*
X139991885Y-105728597D01*
X140106847Y-105900651D01*
X140106850Y-105900655D01*
X140253172Y-106046977D01*
X140425229Y-106161941D01*
X140616407Y-106241130D01*
X140819362Y-106281500D01*
X140819363Y-106281500D01*
X141026291Y-106281500D01*
X141026292Y-106281500D01*
X141229247Y-106241130D01*
X141420425Y-106161941D01*
X141592482Y-106046977D01*
X141738804Y-105900655D01*
X141853768Y-105728598D01*
X141932957Y-105537420D01*
X141973327Y-105334465D01*
X141973327Y-105127535D01*
X141973326Y-105127533D01*
X141973326Y-105127527D01*
X141972224Y-105121987D01*
X141972223Y-105121985D01*
X141969348Y-105107532D01*
X153981796Y-105107532D01*
X153981796Y-105314467D01*
X154022165Y-105517418D01*
X154101354Y-105708597D01*
X154114718Y-105728598D01*
X154216319Y-105880655D01*
X154362641Y-106026977D01*
X154534698Y-106141941D01*
X154725876Y-106221130D01*
X154928831Y-106261500D01*
X154928832Y-106261500D01*
X155135760Y-106261500D01*
X155135761Y-106261500D01*
X155338716Y-106221130D01*
X155529894Y-106141941D01*
X155701951Y-106026977D01*
X155848273Y-105880655D01*
X155963237Y-105708598D01*
X156042426Y-105517420D01*
X156082796Y-105314465D01*
X156082796Y-105107535D01*
X156082795Y-105107532D01*
X161231796Y-105107532D01*
X161231796Y-105314467D01*
X161272165Y-105517418D01*
X161351354Y-105708597D01*
X161364718Y-105728598D01*
X161466319Y-105880655D01*
X161612641Y-106026977D01*
X161784698Y-106141941D01*
X161975876Y-106221130D01*
X162178831Y-106261500D01*
X162178832Y-106261500D01*
X162385760Y-106261500D01*
X162385761Y-106261500D01*
X162588716Y-106221130D01*
X162779894Y-106141941D01*
X162951951Y-106026977D01*
X163098273Y-105880655D01*
X163213237Y-105708598D01*
X163292426Y-105517420D01*
X163332796Y-105314465D01*
X163332796Y-105127532D01*
X179876327Y-105127532D01*
X179876327Y-105334467D01*
X179916696Y-105537418D01*
X179995885Y-105728597D01*
X180110847Y-105900651D01*
X180110850Y-105900655D01*
X180257172Y-106046977D01*
X180429229Y-106161941D01*
X180620407Y-106241130D01*
X180823362Y-106281500D01*
X180823363Y-106281500D01*
X181030291Y-106281500D01*
X181030292Y-106281500D01*
X181233247Y-106241130D01*
X181424425Y-106161941D01*
X181596482Y-106046977D01*
X181742804Y-105900655D01*
X181857768Y-105728598D01*
X181936957Y-105537420D01*
X181977327Y-105334465D01*
X181977327Y-105127535D01*
X181977326Y-105127532D01*
X182416327Y-105127532D01*
X182416327Y-105334467D01*
X182456696Y-105537418D01*
X182535885Y-105728597D01*
X182650847Y-105900651D01*
X182650850Y-105900655D01*
X182797172Y-106046977D01*
X182969229Y-106161941D01*
X183160407Y-106241130D01*
X183363362Y-106281500D01*
X183363363Y-106281500D01*
X183570291Y-106281500D01*
X183570292Y-106281500D01*
X183773247Y-106241130D01*
X183964425Y-106161941D01*
X184136482Y-106046977D01*
X184282804Y-105900655D01*
X184397768Y-105728598D01*
X184476957Y-105537420D01*
X184517327Y-105334465D01*
X184517327Y-105127535D01*
X184476957Y-104924580D01*
X184397768Y-104733402D01*
X184282804Y-104561345D01*
X184136482Y-104415023D01*
X184106550Y-104395023D01*
X183964424Y-104300058D01*
X183773245Y-104220869D01*
X183570294Y-104180500D01*
X183570292Y-104180500D01*
X183363362Y-104180500D01*
X183363359Y-104180500D01*
X183160408Y-104220869D01*
X182969229Y-104300058D01*
X182797175Y-104415020D01*
X182650847Y-104561348D01*
X182535885Y-104733402D01*
X182456696Y-104924581D01*
X182416327Y-105127532D01*
X181977326Y-105127532D01*
X181936957Y-104924580D01*
X181857768Y-104733402D01*
X181742804Y-104561345D01*
X181596482Y-104415023D01*
X181566550Y-104395023D01*
X181424424Y-104300058D01*
X181233245Y-104220869D01*
X181030294Y-104180500D01*
X181030292Y-104180500D01*
X180823362Y-104180500D01*
X180823359Y-104180500D01*
X180620408Y-104220869D01*
X180429229Y-104300058D01*
X180257175Y-104415020D01*
X180110847Y-104561348D01*
X179995885Y-104733402D01*
X179916696Y-104924581D01*
X179876327Y-105127532D01*
X163332796Y-105127532D01*
X163332796Y-105107535D01*
X163292426Y-104904580D01*
X163213237Y-104713402D01*
X163098273Y-104541345D01*
X162951951Y-104395023D01*
X162951947Y-104395020D01*
X162779893Y-104280058D01*
X162588714Y-104200869D01*
X162385763Y-104160500D01*
X162385761Y-104160500D01*
X162178831Y-104160500D01*
X162178828Y-104160500D01*
X161975877Y-104200869D01*
X161784698Y-104280058D01*
X161612644Y-104395020D01*
X161466316Y-104541348D01*
X161351354Y-104713402D01*
X161272165Y-104904581D01*
X161231796Y-105107532D01*
X156082795Y-105107532D01*
X156042426Y-104904580D01*
X155963237Y-104713402D01*
X155848273Y-104541345D01*
X155701951Y-104395023D01*
X155701947Y-104395020D01*
X155529893Y-104280058D01*
X155338714Y-104200869D01*
X155135763Y-104160500D01*
X155135761Y-104160500D01*
X154928831Y-104160500D01*
X154928828Y-104160500D01*
X154725877Y-104200869D01*
X154534698Y-104280058D01*
X154362644Y-104395020D01*
X154216316Y-104541348D01*
X154101354Y-104713402D01*
X154022165Y-104904581D01*
X153981796Y-105107532D01*
X141969348Y-105107532D01*
X141932957Y-104924581D01*
X141924672Y-104904580D01*
X141853768Y-104733402D01*
X141738804Y-104561345D01*
X141592482Y-104415023D01*
X141562550Y-104395023D01*
X141420424Y-104300058D01*
X141229245Y-104220869D01*
X141026294Y-104180500D01*
X141026292Y-104180500D01*
X140819362Y-104180500D01*
X140819359Y-104180500D01*
X140616408Y-104220869D01*
X140425229Y-104300058D01*
X140253175Y-104415020D01*
X140106847Y-104561348D01*
X139991885Y-104733402D01*
X139912696Y-104924581D01*
X139872327Y-105127532D01*
X139433326Y-105127532D01*
X139392957Y-104924580D01*
X139313768Y-104733402D01*
X139198804Y-104561345D01*
X139052482Y-104415023D01*
X139022550Y-104395023D01*
X138880424Y-104300058D01*
X138689245Y-104220869D01*
X138486294Y-104180500D01*
X138486292Y-104180500D01*
X138279362Y-104180500D01*
X138279359Y-104180500D01*
X138076408Y-104220869D01*
X137885229Y-104300058D01*
X137713175Y-104415020D01*
X137566847Y-104561348D01*
X137451885Y-104733402D01*
X137372696Y-104924581D01*
X137332327Y-105127532D01*
X108583796Y-105127532D01*
X108583796Y-105107535D01*
X108543426Y-104904580D01*
X108464237Y-104713402D01*
X108349273Y-104541345D01*
X108202951Y-104395023D01*
X108202947Y-104395020D01*
X108030893Y-104280058D01*
X107839714Y-104200869D01*
X107636763Y-104160500D01*
X107636761Y-104160500D01*
X107429831Y-104160500D01*
X107429828Y-104160500D01*
X107226877Y-104200869D01*
X107035698Y-104280058D01*
X106863644Y-104395020D01*
X106717316Y-104541348D01*
X106602354Y-104713402D01*
X106523165Y-104904581D01*
X106482796Y-105107532D01*
X101333795Y-105107532D01*
X101293426Y-104904580D01*
X101214237Y-104713402D01*
X101099273Y-104541345D01*
X100952951Y-104395023D01*
X100952947Y-104395020D01*
X100780893Y-104280058D01*
X100589714Y-104200869D01*
X100386763Y-104160500D01*
X100386761Y-104160500D01*
X100179831Y-104160500D01*
X100179828Y-104160500D01*
X99976877Y-104200869D01*
X99785698Y-104280058D01*
X99613644Y-104395020D01*
X99467316Y-104541348D01*
X99352354Y-104713402D01*
X99273165Y-104904581D01*
X99232796Y-105107532D01*
X89640500Y-105107532D01*
X89640500Y-102567532D01*
X99232796Y-102567532D01*
X99232796Y-102774467D01*
X99273165Y-102977418D01*
X99352354Y-103168597D01*
X99365718Y-103188598D01*
X99467319Y-103340655D01*
X99613641Y-103486977D01*
X99785698Y-103601941D01*
X99976876Y-103681130D01*
X100179831Y-103721500D01*
X100179832Y-103721500D01*
X100386760Y-103721500D01*
X100386761Y-103721500D01*
X100589716Y-103681130D01*
X100780894Y-103601941D01*
X100952951Y-103486977D01*
X101099273Y-103340655D01*
X101214237Y-103168598D01*
X101293426Y-102977420D01*
X101333796Y-102774465D01*
X101333796Y-102567535D01*
X101333795Y-102567532D01*
X106482796Y-102567532D01*
X106482796Y-102774467D01*
X106523165Y-102977418D01*
X106602354Y-103168597D01*
X106615718Y-103188598D01*
X106717319Y-103340655D01*
X106863641Y-103486977D01*
X107035698Y-103601941D01*
X107226876Y-103681130D01*
X107429831Y-103721500D01*
X107429832Y-103721500D01*
X107636760Y-103721500D01*
X107636761Y-103721500D01*
X107839716Y-103681130D01*
X108030894Y-103601941D01*
X108202951Y-103486977D01*
X108349273Y-103340655D01*
X108464237Y-103168598D01*
X108543426Y-102977420D01*
X108583796Y-102774465D01*
X108583796Y-102587532D01*
X137332327Y-102587532D01*
X137332327Y-102794467D01*
X137372696Y-102997418D01*
X137451885Y-103188597D01*
X137566847Y-103360651D01*
X137566850Y-103360655D01*
X137713172Y-103506977D01*
X137885229Y-103621941D01*
X138076407Y-103701130D01*
X138279362Y-103741500D01*
X138279363Y-103741500D01*
X138486291Y-103741500D01*
X138486292Y-103741500D01*
X138689247Y-103701130D01*
X138880425Y-103621941D01*
X139052482Y-103506977D01*
X139198804Y-103360655D01*
X139313768Y-103188598D01*
X139392957Y-102997420D01*
X139433327Y-102794465D01*
X139433327Y-102587535D01*
X139433326Y-102587532D01*
X139872327Y-102587532D01*
X139872327Y-102794467D01*
X139912696Y-102997418D01*
X139991885Y-103188597D01*
X140106847Y-103360651D01*
X140106850Y-103360655D01*
X140253172Y-103506977D01*
X140425229Y-103621941D01*
X140616407Y-103701130D01*
X140819362Y-103741500D01*
X140819363Y-103741500D01*
X141026291Y-103741500D01*
X141026292Y-103741500D01*
X141229247Y-103701130D01*
X141420425Y-103621941D01*
X141592482Y-103506977D01*
X141738804Y-103360655D01*
X141853768Y-103188598D01*
X141932957Y-102997420D01*
X141973327Y-102794465D01*
X141973327Y-102587535D01*
X141973326Y-102587533D01*
X141973326Y-102587527D01*
X141972224Y-102581987D01*
X141972223Y-102581985D01*
X141969348Y-102567532D01*
X153981796Y-102567532D01*
X153981796Y-102774467D01*
X154022165Y-102977418D01*
X154101354Y-103168597D01*
X154114718Y-103188598D01*
X154216319Y-103340655D01*
X154362641Y-103486977D01*
X154534698Y-103601941D01*
X154725876Y-103681130D01*
X154928831Y-103721500D01*
X154928832Y-103721500D01*
X155135760Y-103721500D01*
X155135761Y-103721500D01*
X155338716Y-103681130D01*
X155529894Y-103601941D01*
X155701951Y-103486977D01*
X155848273Y-103340655D01*
X155963237Y-103168598D01*
X156042426Y-102977420D01*
X156082796Y-102774465D01*
X156082796Y-102567535D01*
X156082795Y-102567532D01*
X161231796Y-102567532D01*
X161231796Y-102774467D01*
X161272165Y-102977418D01*
X161351354Y-103168597D01*
X161364718Y-103188598D01*
X161466319Y-103340655D01*
X161612641Y-103486977D01*
X161784698Y-103601941D01*
X161975876Y-103681130D01*
X162178831Y-103721500D01*
X162178832Y-103721500D01*
X162385760Y-103721500D01*
X162385761Y-103721500D01*
X162588716Y-103681130D01*
X162779894Y-103601941D01*
X162951951Y-103486977D01*
X163098273Y-103340655D01*
X163213237Y-103168598D01*
X163292426Y-102977420D01*
X163332796Y-102774465D01*
X163332796Y-102587532D01*
X179876327Y-102587532D01*
X179876327Y-102794467D01*
X179916696Y-102997418D01*
X179995885Y-103188597D01*
X180110847Y-103360651D01*
X180110850Y-103360655D01*
X180257172Y-103506977D01*
X180429229Y-103621941D01*
X180620407Y-103701130D01*
X180823362Y-103741500D01*
X180823363Y-103741500D01*
X181030291Y-103741500D01*
X181030292Y-103741500D01*
X181233247Y-103701130D01*
X181424425Y-103621941D01*
X181596482Y-103506977D01*
X181742804Y-103360655D01*
X181857768Y-103188598D01*
X181936957Y-102997420D01*
X181977327Y-102794465D01*
X181977327Y-102587535D01*
X181977326Y-102587532D01*
X182416327Y-102587532D01*
X182416327Y-102794467D01*
X182456696Y-102997418D01*
X182535885Y-103188597D01*
X182650847Y-103360651D01*
X182650850Y-103360655D01*
X182797172Y-103506977D01*
X182969229Y-103621941D01*
X183160407Y-103701130D01*
X183363362Y-103741500D01*
X183363363Y-103741500D01*
X183570291Y-103741500D01*
X183570292Y-103741500D01*
X183773247Y-103701130D01*
X183964425Y-103621941D01*
X184136482Y-103506977D01*
X184282804Y-103360655D01*
X184397768Y-103188598D01*
X184476957Y-102997420D01*
X184517327Y-102794465D01*
X184517327Y-102587535D01*
X184476957Y-102384580D01*
X184397768Y-102193402D01*
X184282804Y-102021345D01*
X184136482Y-101875023D01*
X184106550Y-101855023D01*
X183964424Y-101760058D01*
X183773245Y-101680869D01*
X183570294Y-101640500D01*
X183570292Y-101640500D01*
X183363362Y-101640500D01*
X183363359Y-101640500D01*
X183160408Y-101680869D01*
X182969229Y-101760058D01*
X182797175Y-101875020D01*
X182650847Y-102021348D01*
X182535885Y-102193402D01*
X182456696Y-102384581D01*
X182416327Y-102587532D01*
X181977326Y-102587532D01*
X181936957Y-102384580D01*
X181857768Y-102193402D01*
X181742804Y-102021345D01*
X181596482Y-101875023D01*
X181566550Y-101855023D01*
X181424424Y-101760058D01*
X181233245Y-101680869D01*
X181030294Y-101640500D01*
X181030292Y-101640500D01*
X180823362Y-101640500D01*
X180823359Y-101640500D01*
X180620408Y-101680869D01*
X180429229Y-101760058D01*
X180257175Y-101875020D01*
X180110847Y-102021348D01*
X179995885Y-102193402D01*
X179916696Y-102384581D01*
X179876327Y-102587532D01*
X163332796Y-102587532D01*
X163332796Y-102567535D01*
X163292426Y-102364580D01*
X163213237Y-102173402D01*
X163098273Y-102001345D01*
X162951951Y-101855023D01*
X162951947Y-101855020D01*
X162779893Y-101740058D01*
X162588714Y-101660869D01*
X162385763Y-101620500D01*
X162385761Y-101620500D01*
X162178831Y-101620500D01*
X162178828Y-101620500D01*
X161975877Y-101660869D01*
X161784698Y-101740058D01*
X161612644Y-101855020D01*
X161466316Y-102001348D01*
X161351354Y-102173402D01*
X161272165Y-102364581D01*
X161231796Y-102567532D01*
X156082795Y-102567532D01*
X156042426Y-102364580D01*
X155963237Y-102173402D01*
X155848273Y-102001345D01*
X155701951Y-101855023D01*
X155701947Y-101855020D01*
X155529893Y-101740058D01*
X155338714Y-101660869D01*
X155135763Y-101620500D01*
X155135761Y-101620500D01*
X154928831Y-101620500D01*
X154928828Y-101620500D01*
X154725877Y-101660869D01*
X154534698Y-101740058D01*
X154362644Y-101855020D01*
X154216316Y-102001348D01*
X154101354Y-102173402D01*
X154022165Y-102364581D01*
X153981796Y-102567532D01*
X141969348Y-102567532D01*
X141932957Y-102384581D01*
X141924672Y-102364580D01*
X141853768Y-102193402D01*
X141738804Y-102021345D01*
X141592482Y-101875023D01*
X141562550Y-101855023D01*
X141420424Y-101760058D01*
X141229245Y-101680869D01*
X141026294Y-101640500D01*
X141026292Y-101640500D01*
X140819362Y-101640500D01*
X140819359Y-101640500D01*
X140616408Y-101680869D01*
X140425229Y-101760058D01*
X140253175Y-101875020D01*
X140106847Y-102021348D01*
X139991885Y-102193402D01*
X139912696Y-102384581D01*
X139872327Y-102587532D01*
X139433326Y-102587532D01*
X139392957Y-102384580D01*
X139313768Y-102193402D01*
X139198804Y-102021345D01*
X139052482Y-101875023D01*
X139022550Y-101855023D01*
X138880424Y-101760058D01*
X138689245Y-101680869D01*
X138486294Y-101640500D01*
X138486292Y-101640500D01*
X138279362Y-101640500D01*
X138279359Y-101640500D01*
X138076408Y-101680869D01*
X137885229Y-101760058D01*
X137713175Y-101875020D01*
X137566847Y-102021348D01*
X137451885Y-102193402D01*
X137372696Y-102384581D01*
X137332327Y-102587532D01*
X108583796Y-102587532D01*
X108583796Y-102567535D01*
X108543426Y-102364580D01*
X108464237Y-102173402D01*
X108349273Y-102001345D01*
X108202951Y-101855023D01*
X108202947Y-101855020D01*
X108030893Y-101740058D01*
X107839714Y-101660869D01*
X107636763Y-101620500D01*
X107636761Y-101620500D01*
X107429831Y-101620500D01*
X107429828Y-101620500D01*
X107226877Y-101660869D01*
X107035698Y-101740058D01*
X106863644Y-101855020D01*
X106717316Y-102001348D01*
X106602354Y-102173402D01*
X106523165Y-102364581D01*
X106482796Y-102567532D01*
X101333795Y-102567532D01*
X101293426Y-102364580D01*
X101214237Y-102173402D01*
X101099273Y-102001345D01*
X100952951Y-101855023D01*
X100952947Y-101855020D01*
X100780893Y-101740058D01*
X100589714Y-101660869D01*
X100386763Y-101620500D01*
X100386761Y-101620500D01*
X100179831Y-101620500D01*
X100179828Y-101620500D01*
X99976877Y-101660869D01*
X99785698Y-101740058D01*
X99613644Y-101855020D01*
X99467316Y-102001348D01*
X99352354Y-102173402D01*
X99273165Y-102364581D01*
X99232796Y-102567532D01*
X89640500Y-102567532D01*
X89640500Y-100027532D01*
X99232796Y-100027532D01*
X99232796Y-100234467D01*
X99273165Y-100437418D01*
X99352354Y-100628597D01*
X99365718Y-100648598D01*
X99467319Y-100800655D01*
X99613641Y-100946977D01*
X99785698Y-101061941D01*
X99976876Y-101141130D01*
X100179831Y-101181500D01*
X100179832Y-101181500D01*
X100386760Y-101181500D01*
X100386761Y-101181500D01*
X100589716Y-101141130D01*
X100780894Y-101061941D01*
X100952951Y-100946977D01*
X101099273Y-100800655D01*
X101214237Y-100628598D01*
X101293426Y-100437420D01*
X101333796Y-100234465D01*
X101333796Y-100027535D01*
X101333795Y-100027532D01*
X106482796Y-100027532D01*
X106482796Y-100234467D01*
X106523165Y-100437418D01*
X106602354Y-100628597D01*
X106615718Y-100648598D01*
X106717319Y-100800655D01*
X106863641Y-100946977D01*
X107035698Y-101061941D01*
X107226876Y-101141130D01*
X107429831Y-101181500D01*
X107429832Y-101181500D01*
X107636760Y-101181500D01*
X107636761Y-101181500D01*
X107839716Y-101141130D01*
X108030894Y-101061941D01*
X108202951Y-100946977D01*
X108349273Y-100800655D01*
X108464237Y-100628598D01*
X108543426Y-100437420D01*
X108583796Y-100234465D01*
X108583796Y-100047532D01*
X137332327Y-100047532D01*
X137332327Y-100254467D01*
X137372696Y-100457418D01*
X137451885Y-100648597D01*
X137566847Y-100820651D01*
X137566850Y-100820655D01*
X137713172Y-100966977D01*
X137885229Y-101081941D01*
X138076407Y-101161130D01*
X138279362Y-101201500D01*
X138279363Y-101201500D01*
X138486291Y-101201500D01*
X138486292Y-101201500D01*
X138689247Y-101161130D01*
X138880425Y-101081941D01*
X139052482Y-100966977D01*
X139198804Y-100820655D01*
X139313768Y-100648598D01*
X139392957Y-100457420D01*
X139433327Y-100254465D01*
X139433327Y-100047535D01*
X139433326Y-100047532D01*
X139872327Y-100047532D01*
X139872327Y-100254467D01*
X139912696Y-100457418D01*
X139991885Y-100648597D01*
X140106847Y-100820651D01*
X140106850Y-100820655D01*
X140253172Y-100966977D01*
X140425229Y-101081941D01*
X140616407Y-101161130D01*
X140819362Y-101201500D01*
X140819363Y-101201500D01*
X141026291Y-101201500D01*
X141026292Y-101201500D01*
X141229247Y-101161130D01*
X141420425Y-101081941D01*
X141592482Y-100966977D01*
X141738804Y-100820655D01*
X141853768Y-100648598D01*
X141932957Y-100457420D01*
X141973327Y-100254465D01*
X141973327Y-100047535D01*
X141973326Y-100047533D01*
X141973326Y-100047527D01*
X141972224Y-100041987D01*
X141972223Y-100041985D01*
X141969348Y-100027532D01*
X153981796Y-100027532D01*
X153981796Y-100234467D01*
X154022165Y-100437418D01*
X154101354Y-100628597D01*
X154114718Y-100648598D01*
X154216319Y-100800655D01*
X154362641Y-100946977D01*
X154534698Y-101061941D01*
X154725876Y-101141130D01*
X154928831Y-101181500D01*
X154928832Y-101181500D01*
X155135760Y-101181500D01*
X155135761Y-101181500D01*
X155338716Y-101141130D01*
X155529894Y-101061941D01*
X155701951Y-100946977D01*
X155848273Y-100800655D01*
X155963237Y-100628598D01*
X156042426Y-100437420D01*
X156082796Y-100234465D01*
X156082796Y-100027535D01*
X156082795Y-100027532D01*
X161231796Y-100027532D01*
X161231796Y-100234467D01*
X161272165Y-100437418D01*
X161351354Y-100628597D01*
X161364718Y-100648598D01*
X161466319Y-100800655D01*
X161612641Y-100946977D01*
X161784698Y-101061941D01*
X161975876Y-101141130D01*
X162178831Y-101181500D01*
X162178832Y-101181500D01*
X162385760Y-101181500D01*
X162385761Y-101181500D01*
X162588716Y-101141130D01*
X162779894Y-101061941D01*
X162951951Y-100946977D01*
X163098273Y-100800655D01*
X163213237Y-100628598D01*
X163292426Y-100437420D01*
X163332796Y-100234465D01*
X163332796Y-100047532D01*
X179876327Y-100047532D01*
X179876327Y-100254467D01*
X179916696Y-100457418D01*
X179995885Y-100648597D01*
X180110847Y-100820651D01*
X180110850Y-100820655D01*
X180257172Y-100966977D01*
X180429229Y-101081941D01*
X180620407Y-101161130D01*
X180823362Y-101201500D01*
X180823363Y-101201500D01*
X181030291Y-101201500D01*
X181030292Y-101201500D01*
X181233247Y-101161130D01*
X181424425Y-101081941D01*
X181596482Y-100966977D01*
X181742804Y-100820655D01*
X181857768Y-100648598D01*
X181936957Y-100457420D01*
X181977327Y-100254465D01*
X181977327Y-100047535D01*
X181977326Y-100047532D01*
X182416327Y-100047532D01*
X182416327Y-100254467D01*
X182456696Y-100457418D01*
X182535885Y-100648597D01*
X182650847Y-100820651D01*
X182650850Y-100820655D01*
X182797172Y-100966977D01*
X182969229Y-101081941D01*
X183160407Y-101161130D01*
X183363362Y-101201500D01*
X183363363Y-101201500D01*
X183570291Y-101201500D01*
X183570292Y-101201500D01*
X183773247Y-101161130D01*
X183964425Y-101081941D01*
X184136482Y-100966977D01*
X184282804Y-100820655D01*
X184397768Y-100648598D01*
X184476957Y-100457420D01*
X184517327Y-100254465D01*
X184517327Y-100047535D01*
X184476957Y-99844580D01*
X184397768Y-99653402D01*
X184282804Y-99481345D01*
X184136482Y-99335023D01*
X184106550Y-99315023D01*
X183964424Y-99220058D01*
X183773245Y-99140869D01*
X183570294Y-99100500D01*
X183570292Y-99100500D01*
X183363362Y-99100500D01*
X183363359Y-99100500D01*
X183160408Y-99140869D01*
X182969229Y-99220058D01*
X182797175Y-99335020D01*
X182650847Y-99481348D01*
X182535885Y-99653402D01*
X182456696Y-99844581D01*
X182416327Y-100047532D01*
X181977326Y-100047532D01*
X181936957Y-99844580D01*
X181857768Y-99653402D01*
X181742804Y-99481345D01*
X181596482Y-99335023D01*
X181566550Y-99315023D01*
X181424424Y-99220058D01*
X181233245Y-99140869D01*
X181030294Y-99100500D01*
X181030292Y-99100500D01*
X180823362Y-99100500D01*
X180823359Y-99100500D01*
X180620408Y-99140869D01*
X180429229Y-99220058D01*
X180257175Y-99335020D01*
X180110847Y-99481348D01*
X179995885Y-99653402D01*
X179916696Y-99844581D01*
X179876327Y-100047532D01*
X163332796Y-100047532D01*
X163332796Y-100027535D01*
X163292426Y-99824580D01*
X163213237Y-99633402D01*
X163098273Y-99461345D01*
X162951951Y-99315023D01*
X162951947Y-99315020D01*
X162779893Y-99200058D01*
X162588714Y-99120869D01*
X162385763Y-99080500D01*
X162385761Y-99080500D01*
X162178831Y-99080500D01*
X162178828Y-99080500D01*
X161975877Y-99120869D01*
X161784698Y-99200058D01*
X161612644Y-99315020D01*
X161466316Y-99461348D01*
X161351354Y-99633402D01*
X161272165Y-99824581D01*
X161231796Y-100027532D01*
X156082795Y-100027532D01*
X156042426Y-99824580D01*
X155963237Y-99633402D01*
X155848273Y-99461345D01*
X155701951Y-99315023D01*
X155701947Y-99315020D01*
X155529893Y-99200058D01*
X155338714Y-99120869D01*
X155135763Y-99080500D01*
X155135761Y-99080500D01*
X154928831Y-99080500D01*
X154928828Y-99080500D01*
X154725877Y-99120869D01*
X154534698Y-99200058D01*
X154362644Y-99315020D01*
X154216316Y-99461348D01*
X154101354Y-99633402D01*
X154022165Y-99824581D01*
X153981796Y-100027532D01*
X141969348Y-100027532D01*
X141932957Y-99844581D01*
X141924672Y-99824580D01*
X141853768Y-99653402D01*
X141738804Y-99481345D01*
X141592482Y-99335023D01*
X141562550Y-99315023D01*
X141420424Y-99220058D01*
X141229245Y-99140869D01*
X141026294Y-99100500D01*
X141026292Y-99100500D01*
X140819362Y-99100500D01*
X140819359Y-99100500D01*
X140616408Y-99140869D01*
X140425229Y-99220058D01*
X140253175Y-99335020D01*
X140106847Y-99481348D01*
X139991885Y-99653402D01*
X139912696Y-99844581D01*
X139872327Y-100047532D01*
X139433326Y-100047532D01*
X139392957Y-99844580D01*
X139313768Y-99653402D01*
X139198804Y-99481345D01*
X139052482Y-99335023D01*
X139022550Y-99315023D01*
X138880424Y-99220058D01*
X138689245Y-99140869D01*
X138486294Y-99100500D01*
X138486292Y-99100500D01*
X138279362Y-99100500D01*
X138279359Y-99100500D01*
X138076408Y-99140869D01*
X137885229Y-99220058D01*
X137713175Y-99335020D01*
X137566847Y-99481348D01*
X137451885Y-99653402D01*
X137372696Y-99844581D01*
X137332327Y-100047532D01*
X108583796Y-100047532D01*
X108583796Y-100027535D01*
X108543426Y-99824580D01*
X108464237Y-99633402D01*
X108349273Y-99461345D01*
X108202951Y-99315023D01*
X108202947Y-99315020D01*
X108030893Y-99200058D01*
X107839714Y-99120869D01*
X107636763Y-99080500D01*
X107636761Y-99080500D01*
X107429831Y-99080500D01*
X107429828Y-99080500D01*
X107226877Y-99120869D01*
X107035698Y-99200058D01*
X106863644Y-99315020D01*
X106717316Y-99461348D01*
X106602354Y-99633402D01*
X106523165Y-99824581D01*
X106482796Y-100027532D01*
X101333795Y-100027532D01*
X101293426Y-99824580D01*
X101214237Y-99633402D01*
X101099273Y-99461345D01*
X100952951Y-99315023D01*
X100952947Y-99315020D01*
X100780893Y-99200058D01*
X100589714Y-99120869D01*
X100386763Y-99080500D01*
X100386761Y-99080500D01*
X100179831Y-99080500D01*
X100179828Y-99080500D01*
X99976877Y-99120869D01*
X99785698Y-99200058D01*
X99613644Y-99315020D01*
X99467316Y-99461348D01*
X99352354Y-99633402D01*
X99273165Y-99824581D01*
X99232796Y-100027532D01*
X89640500Y-100027532D01*
X89640500Y-97487532D01*
X99232796Y-97487532D01*
X99232796Y-97694467D01*
X99273165Y-97897418D01*
X99352354Y-98088597D01*
X99365718Y-98108598D01*
X99467319Y-98260655D01*
X99613641Y-98406977D01*
X99785698Y-98521941D01*
X99976876Y-98601130D01*
X100179831Y-98641500D01*
X100179832Y-98641500D01*
X100386760Y-98641500D01*
X100386761Y-98641500D01*
X100589716Y-98601130D01*
X100780894Y-98521941D01*
X100952951Y-98406977D01*
X101099273Y-98260655D01*
X101214237Y-98088598D01*
X101293426Y-97897420D01*
X101333796Y-97694465D01*
X101333796Y-97487535D01*
X101333795Y-97487532D01*
X106482796Y-97487532D01*
X106482796Y-97694467D01*
X106523165Y-97897418D01*
X106602354Y-98088597D01*
X106615718Y-98108598D01*
X106717319Y-98260655D01*
X106863641Y-98406977D01*
X107035698Y-98521941D01*
X107226876Y-98601130D01*
X107429831Y-98641500D01*
X107429832Y-98641500D01*
X107636760Y-98641500D01*
X107636761Y-98641500D01*
X107839716Y-98601130D01*
X108030894Y-98521941D01*
X108202951Y-98406977D01*
X108349273Y-98260655D01*
X108464237Y-98088598D01*
X108543426Y-97897420D01*
X108583796Y-97694465D01*
X108583796Y-97507532D01*
X137332327Y-97507532D01*
X137332327Y-97714467D01*
X137372696Y-97917418D01*
X137451885Y-98108597D01*
X137566847Y-98280651D01*
X137566850Y-98280655D01*
X137713172Y-98426977D01*
X137885229Y-98541941D01*
X138076407Y-98621130D01*
X138279362Y-98661500D01*
X138279363Y-98661500D01*
X138486291Y-98661500D01*
X138486292Y-98661500D01*
X138689247Y-98621130D01*
X138880425Y-98541941D01*
X139052482Y-98426977D01*
X139198804Y-98280655D01*
X139313768Y-98108598D01*
X139392957Y-97917420D01*
X139433327Y-97714465D01*
X139433327Y-97507535D01*
X139433326Y-97507532D01*
X139872327Y-97507532D01*
X139872327Y-97714467D01*
X139912696Y-97917418D01*
X139991885Y-98108597D01*
X140106847Y-98280651D01*
X140106850Y-98280655D01*
X140253172Y-98426977D01*
X140425229Y-98541941D01*
X140616407Y-98621130D01*
X140819362Y-98661500D01*
X140819363Y-98661500D01*
X141026291Y-98661500D01*
X141026292Y-98661500D01*
X141229247Y-98621130D01*
X141420425Y-98541941D01*
X141592482Y-98426977D01*
X141738804Y-98280655D01*
X141853768Y-98108598D01*
X141932957Y-97917420D01*
X141973327Y-97714465D01*
X141973327Y-97507535D01*
X141973326Y-97507533D01*
X141973326Y-97507527D01*
X141972224Y-97501987D01*
X141972223Y-97501985D01*
X141969348Y-97487532D01*
X153981796Y-97487532D01*
X153981796Y-97694467D01*
X154022165Y-97897418D01*
X154101354Y-98088597D01*
X154114718Y-98108598D01*
X154216319Y-98260655D01*
X154362641Y-98406977D01*
X154534698Y-98521941D01*
X154725876Y-98601130D01*
X154928831Y-98641500D01*
X154928832Y-98641500D01*
X155135760Y-98641500D01*
X155135761Y-98641500D01*
X155338716Y-98601130D01*
X155529894Y-98521941D01*
X155701951Y-98406977D01*
X155848273Y-98260655D01*
X155963237Y-98088598D01*
X156042426Y-97897420D01*
X156082796Y-97694465D01*
X156082796Y-97487535D01*
X156082795Y-97487532D01*
X161231796Y-97487532D01*
X161231796Y-97694467D01*
X161272165Y-97897418D01*
X161351354Y-98088597D01*
X161364718Y-98108598D01*
X161466319Y-98260655D01*
X161612641Y-98406977D01*
X161784698Y-98521941D01*
X161975876Y-98601130D01*
X162178831Y-98641500D01*
X162178832Y-98641500D01*
X162385760Y-98641500D01*
X162385761Y-98641500D01*
X162588716Y-98601130D01*
X162779894Y-98521941D01*
X162951951Y-98406977D01*
X163098273Y-98260655D01*
X163213237Y-98088598D01*
X163292426Y-97897420D01*
X163332796Y-97694465D01*
X163332796Y-97507532D01*
X179876327Y-97507532D01*
X179876327Y-97714467D01*
X179916696Y-97917418D01*
X179995885Y-98108597D01*
X180110847Y-98280651D01*
X180110850Y-98280655D01*
X180257172Y-98426977D01*
X180429229Y-98541941D01*
X180620407Y-98621130D01*
X180823362Y-98661500D01*
X180823363Y-98661500D01*
X181030291Y-98661500D01*
X181030292Y-98661500D01*
X181233247Y-98621130D01*
X181424425Y-98541941D01*
X181596482Y-98426977D01*
X181742804Y-98280655D01*
X181857768Y-98108598D01*
X181936957Y-97917420D01*
X181977327Y-97714465D01*
X181977327Y-97507535D01*
X181977326Y-97507532D01*
X182416327Y-97507532D01*
X182416327Y-97714467D01*
X182456696Y-97917418D01*
X182535885Y-98108597D01*
X182650847Y-98280651D01*
X182650850Y-98280655D01*
X182797172Y-98426977D01*
X182969229Y-98541941D01*
X183160407Y-98621130D01*
X183363362Y-98661500D01*
X183363363Y-98661500D01*
X183570291Y-98661500D01*
X183570292Y-98661500D01*
X183773247Y-98621130D01*
X183964425Y-98541941D01*
X184136482Y-98426977D01*
X184282804Y-98280655D01*
X184397768Y-98108598D01*
X184476957Y-97917420D01*
X184517327Y-97714465D01*
X184517327Y-97507535D01*
X184476957Y-97304580D01*
X184397768Y-97113402D01*
X184282804Y-96941345D01*
X184136482Y-96795023D01*
X184106550Y-96775023D01*
X183964424Y-96680058D01*
X183773245Y-96600869D01*
X183570294Y-96560500D01*
X183570292Y-96560500D01*
X183363362Y-96560500D01*
X183363359Y-96560500D01*
X183160408Y-96600869D01*
X182969229Y-96680058D01*
X182797175Y-96795020D01*
X182650847Y-96941348D01*
X182535885Y-97113402D01*
X182456696Y-97304581D01*
X182416327Y-97507532D01*
X181977326Y-97507532D01*
X181936957Y-97304580D01*
X181857768Y-97113402D01*
X181742804Y-96941345D01*
X181596482Y-96795023D01*
X181566550Y-96775023D01*
X181424424Y-96680058D01*
X181233245Y-96600869D01*
X181030294Y-96560500D01*
X181030292Y-96560500D01*
X180823362Y-96560500D01*
X180823359Y-96560500D01*
X180620408Y-96600869D01*
X180429229Y-96680058D01*
X180257175Y-96795020D01*
X180110847Y-96941348D01*
X179995885Y-97113402D01*
X179916696Y-97304581D01*
X179876327Y-97507532D01*
X163332796Y-97507532D01*
X163332796Y-97487535D01*
X163292426Y-97284580D01*
X163213237Y-97093402D01*
X163098273Y-96921345D01*
X162951951Y-96775023D01*
X162951947Y-96775020D01*
X162779893Y-96660058D01*
X162588714Y-96580869D01*
X162385763Y-96540500D01*
X162385761Y-96540500D01*
X162178831Y-96540500D01*
X162178828Y-96540500D01*
X161975877Y-96580869D01*
X161784698Y-96660058D01*
X161612644Y-96775020D01*
X161466316Y-96921348D01*
X161351354Y-97093402D01*
X161272165Y-97284581D01*
X161231796Y-97487532D01*
X156082795Y-97487532D01*
X156042426Y-97284580D01*
X155963237Y-97093402D01*
X155848273Y-96921345D01*
X155701951Y-96775023D01*
X155701947Y-96775020D01*
X155529893Y-96660058D01*
X155338714Y-96580869D01*
X155135763Y-96540500D01*
X155135761Y-96540500D01*
X154928831Y-96540500D01*
X154928828Y-96540500D01*
X154725877Y-96580869D01*
X154534698Y-96660058D01*
X154362644Y-96775020D01*
X154216316Y-96921348D01*
X154101354Y-97093402D01*
X154022165Y-97284581D01*
X153981796Y-97487532D01*
X141969348Y-97487532D01*
X141932957Y-97304581D01*
X141924672Y-97284580D01*
X141853768Y-97113402D01*
X141738804Y-96941345D01*
X141592482Y-96795023D01*
X141562550Y-96775023D01*
X141420424Y-96680058D01*
X141229245Y-96600869D01*
X141026294Y-96560500D01*
X141026292Y-96560500D01*
X140819362Y-96560500D01*
X140819359Y-96560500D01*
X140616408Y-96600869D01*
X140425229Y-96680058D01*
X140253175Y-96795020D01*
X140106847Y-96941348D01*
X139991885Y-97113402D01*
X139912696Y-97304581D01*
X139872327Y-97507532D01*
X139433326Y-97507532D01*
X139392957Y-97304580D01*
X139313768Y-97113402D01*
X139198804Y-96941345D01*
X139052482Y-96795023D01*
X139022550Y-96775023D01*
X138880424Y-96680058D01*
X138689245Y-96600869D01*
X138486294Y-96560500D01*
X138486292Y-96560500D01*
X138279362Y-96560500D01*
X138279359Y-96560500D01*
X138076408Y-96600869D01*
X137885229Y-96680058D01*
X137713175Y-96795020D01*
X137566847Y-96941348D01*
X137451885Y-97113402D01*
X137372696Y-97304581D01*
X137332327Y-97507532D01*
X108583796Y-97507532D01*
X108583796Y-97487535D01*
X108543426Y-97284580D01*
X108464237Y-97093402D01*
X108349273Y-96921345D01*
X108202951Y-96775023D01*
X108202947Y-96775020D01*
X108030893Y-96660058D01*
X107839714Y-96580869D01*
X107636763Y-96540500D01*
X107636761Y-96540500D01*
X107429831Y-96540500D01*
X107429828Y-96540500D01*
X107226877Y-96580869D01*
X107035698Y-96660058D01*
X106863644Y-96775020D01*
X106717316Y-96921348D01*
X106602354Y-97093402D01*
X106523165Y-97284581D01*
X106482796Y-97487532D01*
X101333795Y-97487532D01*
X101293426Y-97284580D01*
X101214237Y-97093402D01*
X101099273Y-96921345D01*
X100952951Y-96775023D01*
X100952947Y-96775020D01*
X100780893Y-96660058D01*
X100589714Y-96580869D01*
X100386763Y-96540500D01*
X100386761Y-96540500D01*
X100179831Y-96540500D01*
X100179828Y-96540500D01*
X99976877Y-96580869D01*
X99785698Y-96660058D01*
X99613644Y-96775020D01*
X99467316Y-96921348D01*
X99352354Y-97093402D01*
X99273165Y-97284581D01*
X99232796Y-97487532D01*
X89640500Y-97487532D01*
X89640500Y-94947532D01*
X99232796Y-94947532D01*
X99232796Y-95154467D01*
X99273165Y-95357418D01*
X99352354Y-95548597D01*
X99365718Y-95568598D01*
X99467319Y-95720655D01*
X99613641Y-95866977D01*
X99785698Y-95981941D01*
X99976876Y-96061130D01*
X100179831Y-96101500D01*
X100179832Y-96101500D01*
X100386760Y-96101500D01*
X100386761Y-96101500D01*
X100589716Y-96061130D01*
X100780894Y-95981941D01*
X100952951Y-95866977D01*
X101099273Y-95720655D01*
X101214237Y-95548598D01*
X101293426Y-95357420D01*
X101333796Y-95154465D01*
X101333796Y-94947535D01*
X101333795Y-94947532D01*
X106482796Y-94947532D01*
X106482796Y-95154467D01*
X106523165Y-95357418D01*
X106602354Y-95548597D01*
X106615718Y-95568598D01*
X106717319Y-95720655D01*
X106863641Y-95866977D01*
X107035698Y-95981941D01*
X107226876Y-96061130D01*
X107429831Y-96101500D01*
X107429832Y-96101500D01*
X107636760Y-96101500D01*
X107636761Y-96101500D01*
X107839716Y-96061130D01*
X108030894Y-95981941D01*
X108202951Y-95866977D01*
X108349273Y-95720655D01*
X108464237Y-95548598D01*
X108543426Y-95357420D01*
X108583796Y-95154465D01*
X108583796Y-94967532D01*
X137332327Y-94967532D01*
X137332327Y-95174467D01*
X137372696Y-95377418D01*
X137451885Y-95568597D01*
X137566847Y-95740651D01*
X137566850Y-95740655D01*
X137713172Y-95886977D01*
X137885229Y-96001941D01*
X138076407Y-96081130D01*
X138279362Y-96121500D01*
X138279363Y-96121500D01*
X138486291Y-96121500D01*
X138486292Y-96121500D01*
X138689247Y-96081130D01*
X138880425Y-96001941D01*
X139052482Y-95886977D01*
X139198804Y-95740655D01*
X139313768Y-95568598D01*
X139392957Y-95377420D01*
X139433327Y-95174465D01*
X139433327Y-94967535D01*
X139433326Y-94967532D01*
X139872327Y-94967532D01*
X139872327Y-95174467D01*
X139912696Y-95377418D01*
X139991885Y-95568597D01*
X140106847Y-95740651D01*
X140106850Y-95740655D01*
X140253172Y-95886977D01*
X140425229Y-96001941D01*
X140616407Y-96081130D01*
X140819362Y-96121500D01*
X140819363Y-96121500D01*
X141026291Y-96121500D01*
X141026292Y-96121500D01*
X141229247Y-96081130D01*
X141420425Y-96001941D01*
X141592482Y-95886977D01*
X141738804Y-95740655D01*
X141853768Y-95568598D01*
X141932957Y-95377420D01*
X141973327Y-95174465D01*
X141973327Y-94967535D01*
X141973326Y-94967533D01*
X141973326Y-94967527D01*
X141972224Y-94961987D01*
X141972223Y-94961985D01*
X141969348Y-94947532D01*
X153981796Y-94947532D01*
X153981796Y-95154467D01*
X154022165Y-95357418D01*
X154101354Y-95548597D01*
X154114718Y-95568598D01*
X154216319Y-95720655D01*
X154362641Y-95866977D01*
X154534698Y-95981941D01*
X154725876Y-96061130D01*
X154928831Y-96101500D01*
X154928832Y-96101500D01*
X155135760Y-96101500D01*
X155135761Y-96101500D01*
X155338716Y-96061130D01*
X155529894Y-95981941D01*
X155701951Y-95866977D01*
X155848273Y-95720655D01*
X155963237Y-95548598D01*
X156042426Y-95357420D01*
X156082796Y-95154465D01*
X156082796Y-94947535D01*
X156082795Y-94947532D01*
X161231796Y-94947532D01*
X161231796Y-95154467D01*
X161272165Y-95357418D01*
X161351354Y-95548597D01*
X161364718Y-95568598D01*
X161466319Y-95720655D01*
X161612641Y-95866977D01*
X161784698Y-95981941D01*
X161975876Y-96061130D01*
X162178831Y-96101500D01*
X162178832Y-96101500D01*
X162385760Y-96101500D01*
X162385761Y-96101500D01*
X162588716Y-96061130D01*
X162779894Y-95981941D01*
X162951951Y-95866977D01*
X163098273Y-95720655D01*
X163213237Y-95548598D01*
X163292426Y-95357420D01*
X163332796Y-95154465D01*
X163332796Y-94967532D01*
X179876327Y-94967532D01*
X179876327Y-95174467D01*
X179916696Y-95377418D01*
X179995885Y-95568597D01*
X180110847Y-95740651D01*
X180110850Y-95740655D01*
X180257172Y-95886977D01*
X180429229Y-96001941D01*
X180620407Y-96081130D01*
X180823362Y-96121500D01*
X180823363Y-96121500D01*
X181030291Y-96121500D01*
X181030292Y-96121500D01*
X181233247Y-96081130D01*
X181424425Y-96001941D01*
X181596482Y-95886977D01*
X181742804Y-95740655D01*
X181857768Y-95568598D01*
X181936957Y-95377420D01*
X181977327Y-95174465D01*
X181977327Y-94967535D01*
X181977326Y-94967532D01*
X182416327Y-94967532D01*
X182416327Y-95174467D01*
X182456696Y-95377418D01*
X182535885Y-95568597D01*
X182650847Y-95740651D01*
X182650850Y-95740655D01*
X182797172Y-95886977D01*
X182969229Y-96001941D01*
X183160407Y-96081130D01*
X183363362Y-96121500D01*
X183363363Y-96121500D01*
X183570291Y-96121500D01*
X183570292Y-96121500D01*
X183773247Y-96081130D01*
X183964425Y-96001941D01*
X184136482Y-95886977D01*
X184282804Y-95740655D01*
X184397768Y-95568598D01*
X184476957Y-95377420D01*
X184517327Y-95174465D01*
X184517327Y-94967535D01*
X184476957Y-94764580D01*
X184397768Y-94573402D01*
X184282804Y-94401345D01*
X184136482Y-94255023D01*
X184106550Y-94235023D01*
X183964424Y-94140058D01*
X183773245Y-94060869D01*
X183570294Y-94020500D01*
X183570292Y-94020500D01*
X183363362Y-94020500D01*
X183363359Y-94020500D01*
X183160408Y-94060869D01*
X182969229Y-94140058D01*
X182797175Y-94255020D01*
X182650847Y-94401348D01*
X182535885Y-94573402D01*
X182456696Y-94764581D01*
X182416327Y-94967532D01*
X181977326Y-94967532D01*
X181936957Y-94764580D01*
X181857768Y-94573402D01*
X181742804Y-94401345D01*
X181596482Y-94255023D01*
X181566550Y-94235023D01*
X181424424Y-94140058D01*
X181233245Y-94060869D01*
X181030294Y-94020500D01*
X181030292Y-94020500D01*
X180823362Y-94020500D01*
X180823359Y-94020500D01*
X180620408Y-94060869D01*
X180429229Y-94140058D01*
X180257175Y-94255020D01*
X180110847Y-94401348D01*
X179995885Y-94573402D01*
X179916696Y-94764581D01*
X179876327Y-94967532D01*
X163332796Y-94967532D01*
X163332796Y-94947535D01*
X163292426Y-94744580D01*
X163213237Y-94553402D01*
X163098273Y-94381345D01*
X162951951Y-94235023D01*
X162951947Y-94235020D01*
X162779893Y-94120058D01*
X162588714Y-94040869D01*
X162385763Y-94000500D01*
X162385761Y-94000500D01*
X162178831Y-94000500D01*
X162178828Y-94000500D01*
X161975877Y-94040869D01*
X161784698Y-94120058D01*
X161612644Y-94235020D01*
X161466316Y-94381348D01*
X161351354Y-94553402D01*
X161272165Y-94744581D01*
X161231796Y-94947532D01*
X156082795Y-94947532D01*
X156042426Y-94744580D01*
X155963237Y-94553402D01*
X155848273Y-94381345D01*
X155701951Y-94235023D01*
X155701947Y-94235020D01*
X155529893Y-94120058D01*
X155338714Y-94040869D01*
X155135763Y-94000500D01*
X155135761Y-94000500D01*
X154928831Y-94000500D01*
X154928828Y-94000500D01*
X154725877Y-94040869D01*
X154534698Y-94120058D01*
X154362644Y-94235020D01*
X154216316Y-94381348D01*
X154101354Y-94553402D01*
X154022165Y-94744581D01*
X153981796Y-94947532D01*
X141969348Y-94947532D01*
X141932957Y-94764581D01*
X141924672Y-94744580D01*
X141853768Y-94573402D01*
X141738804Y-94401345D01*
X141592482Y-94255023D01*
X141562550Y-94235023D01*
X141420424Y-94140058D01*
X141229245Y-94060869D01*
X141026294Y-94020500D01*
X141026292Y-94020500D01*
X140819362Y-94020500D01*
X140819359Y-94020500D01*
X140616408Y-94060869D01*
X140425229Y-94140058D01*
X140253175Y-94255020D01*
X140106847Y-94401348D01*
X139991885Y-94573402D01*
X139912696Y-94764581D01*
X139872327Y-94967532D01*
X139433326Y-94967532D01*
X139392957Y-94764580D01*
X139313768Y-94573402D01*
X139198804Y-94401345D01*
X139052482Y-94255023D01*
X139022550Y-94235023D01*
X138880424Y-94140058D01*
X138689245Y-94060869D01*
X138486294Y-94020500D01*
X138486292Y-94020500D01*
X138279362Y-94020500D01*
X138279359Y-94020500D01*
X138076408Y-94060869D01*
X137885229Y-94140058D01*
X137713175Y-94255020D01*
X137566847Y-94401348D01*
X137451885Y-94573402D01*
X137372696Y-94764581D01*
X137332327Y-94967532D01*
X108583796Y-94967532D01*
X108583796Y-94947535D01*
X108543426Y-94744580D01*
X108464237Y-94553402D01*
X108349273Y-94381345D01*
X108202951Y-94235023D01*
X108202947Y-94235020D01*
X108030893Y-94120058D01*
X107839714Y-94040869D01*
X107636763Y-94000500D01*
X107636761Y-94000500D01*
X107429831Y-94000500D01*
X107429828Y-94000500D01*
X107226877Y-94040869D01*
X107035698Y-94120058D01*
X106863644Y-94235020D01*
X106717316Y-94381348D01*
X106602354Y-94553402D01*
X106523165Y-94744581D01*
X106482796Y-94947532D01*
X101333795Y-94947532D01*
X101293426Y-94744580D01*
X101214237Y-94553402D01*
X101099273Y-94381345D01*
X100952951Y-94235023D01*
X100952947Y-94235020D01*
X100780893Y-94120058D01*
X100589714Y-94040869D01*
X100386763Y-94000500D01*
X100386761Y-94000500D01*
X100179831Y-94000500D01*
X100179828Y-94000500D01*
X99976877Y-94040869D01*
X99785698Y-94120058D01*
X99613644Y-94235020D01*
X99467316Y-94381348D01*
X99352354Y-94553402D01*
X99273165Y-94744581D01*
X99232796Y-94947532D01*
X89640500Y-94947532D01*
X89640500Y-92407532D01*
X99232796Y-92407532D01*
X99232796Y-92614467D01*
X99273165Y-92817418D01*
X99352354Y-93008597D01*
X99365718Y-93028598D01*
X99467319Y-93180655D01*
X99613641Y-93326977D01*
X99785698Y-93441941D01*
X99976876Y-93521130D01*
X100179831Y-93561500D01*
X100179832Y-93561500D01*
X100386760Y-93561500D01*
X100386761Y-93561500D01*
X100589716Y-93521130D01*
X100780894Y-93441941D01*
X100952951Y-93326977D01*
X101099273Y-93180655D01*
X101214237Y-93008598D01*
X101293426Y-92817420D01*
X101333796Y-92614465D01*
X101333796Y-92407535D01*
X101293426Y-92204580D01*
X101214237Y-92013402D01*
X101099273Y-91841345D01*
X100952951Y-91695023D01*
X100952947Y-91695020D01*
X100780893Y-91580058D01*
X100589714Y-91500869D01*
X100386763Y-91460500D01*
X100386761Y-91460500D01*
X100179831Y-91460500D01*
X100179828Y-91460500D01*
X99976877Y-91500869D01*
X99785698Y-91580058D01*
X99613644Y-91695020D01*
X99467316Y-91841348D01*
X99352354Y-92013402D01*
X99273165Y-92204581D01*
X99232796Y-92407532D01*
X89640500Y-92407532D01*
X89640500Y-89867532D01*
X99232796Y-89867532D01*
X99232796Y-90074467D01*
X99273165Y-90277418D01*
X99352354Y-90468597D01*
X99367323Y-90491000D01*
X99467319Y-90640655D01*
X99613641Y-90786977D01*
X99785698Y-90901941D01*
X99976876Y-90981130D01*
X100179831Y-91021500D01*
X100179832Y-91021500D01*
X100386760Y-91021500D01*
X100386761Y-91021500D01*
X100589716Y-90981130D01*
X100780894Y-90901941D01*
X100952951Y-90786977D01*
X101099273Y-90640655D01*
X101214237Y-90468598D01*
X101293426Y-90277420D01*
X101333796Y-90074465D01*
X101333796Y-89867535D01*
X101304648Y-89720999D01*
X106206064Y-89720999D01*
X106206065Y-89721000D01*
X107100284Y-89721000D01*
X107067371Y-89778007D01*
X107033296Y-89905174D01*
X107033296Y-90036826D01*
X107067371Y-90163993D01*
X107100284Y-90221000D01*
X106206065Y-90221000D01*
X106216537Y-90287122D01*
X106282200Y-90489215D01*
X106378671Y-90678552D01*
X106503573Y-90850464D01*
X106653831Y-91000722D01*
X106825743Y-91125624D01*
X107015080Y-91222095D01*
X107217174Y-91287759D01*
X107271472Y-91296359D01*
X107325988Y-91324136D01*
X107353766Y-91378653D01*
X107344195Y-91439085D01*
X107300930Y-91482350D01*
X107275299Y-91491238D01*
X107226877Y-91500869D01*
X107035698Y-91580058D01*
X106863644Y-91695020D01*
X106717316Y-91841348D01*
X106602354Y-92013402D01*
X106523165Y-92204581D01*
X106482796Y-92407532D01*
X106482796Y-92614467D01*
X106523165Y-92817418D01*
X106602354Y-93008597D01*
X106615718Y-93028598D01*
X106717319Y-93180655D01*
X106863641Y-93326977D01*
X107035698Y-93441941D01*
X107226876Y-93521130D01*
X107429831Y-93561500D01*
X107429832Y-93561500D01*
X107636760Y-93561500D01*
X107636761Y-93561500D01*
X107839716Y-93521130D01*
X108030894Y-93441941D01*
X108202951Y-93326977D01*
X108349273Y-93180655D01*
X108464237Y-93008598D01*
X108543426Y-92817420D01*
X108583796Y-92614465D01*
X108583796Y-92427532D01*
X137332327Y-92427532D01*
X137332327Y-92634467D01*
X137372696Y-92837418D01*
X137451885Y-93028597D01*
X137566847Y-93200651D01*
X137566850Y-93200655D01*
X137713172Y-93346977D01*
X137885229Y-93461941D01*
X138076407Y-93541130D01*
X138279362Y-93581500D01*
X138279363Y-93581500D01*
X138486291Y-93581500D01*
X138486292Y-93581500D01*
X138689247Y-93541130D01*
X138880425Y-93461941D01*
X139052482Y-93346977D01*
X139198804Y-93200655D01*
X139313768Y-93028598D01*
X139392957Y-92837420D01*
X139433327Y-92634465D01*
X139433327Y-92427535D01*
X139392957Y-92224580D01*
X139313768Y-92033402D01*
X139198804Y-91861345D01*
X139052482Y-91715023D01*
X139022550Y-91695023D01*
X138880424Y-91600058D01*
X138689245Y-91520869D01*
X138486294Y-91480500D01*
X138486292Y-91480500D01*
X138279362Y-91480500D01*
X138279359Y-91480500D01*
X138076408Y-91520869D01*
X137885229Y-91600058D01*
X137713175Y-91715020D01*
X137566847Y-91861348D01*
X137451885Y-92033402D01*
X137372696Y-92224581D01*
X137332327Y-92427532D01*
X108583796Y-92427532D01*
X108583796Y-92407535D01*
X108543426Y-92204580D01*
X108464237Y-92013402D01*
X108349273Y-91841345D01*
X108202951Y-91695023D01*
X108202947Y-91695020D01*
X108030893Y-91580058D01*
X107839714Y-91500869D01*
X107791292Y-91491238D01*
X107737908Y-91461341D01*
X107712292Y-91405776D01*
X107724229Y-91345766D01*
X107769159Y-91304234D01*
X107795119Y-91296359D01*
X107849417Y-91287759D01*
X108051511Y-91222095D01*
X108240848Y-91125624D01*
X108412760Y-91000722D01*
X108563018Y-90850464D01*
X108687920Y-90678552D01*
X108784391Y-90489215D01*
X108850054Y-90287122D01*
X108860527Y-90221000D01*
X107966308Y-90221000D01*
X107999221Y-90163993D01*
X108033296Y-90036826D01*
X108033296Y-89905174D01*
X108028569Y-89887532D01*
X137332327Y-89887532D01*
X137332327Y-90094467D01*
X137372696Y-90297418D01*
X137451885Y-90488597D01*
X137566847Y-90660651D01*
X137566850Y-90660655D01*
X137713172Y-90806977D01*
X137885229Y-90921941D01*
X138076407Y-91001130D01*
X138279362Y-91041500D01*
X138279363Y-91041500D01*
X138486291Y-91041500D01*
X138486292Y-91041500D01*
X138689247Y-91001130D01*
X138880425Y-90921941D01*
X139052482Y-90806977D01*
X139198804Y-90660655D01*
X139313768Y-90488598D01*
X139392957Y-90297420D01*
X139402589Y-90248996D01*
X139432483Y-90195613D01*
X139488048Y-90169996D01*
X139548058Y-90181932D01*
X139589591Y-90226861D01*
X139597467Y-90252822D01*
X139606068Y-90307122D01*
X139671731Y-90509215D01*
X139768203Y-90698553D01*
X139768207Y-90698559D01*
X139807555Y-90752716D01*
X139807556Y-90752716D01*
X140439864Y-90120407D01*
X140456902Y-90183993D01*
X140522728Y-90298007D01*
X140615820Y-90391099D01*
X140729834Y-90456925D01*
X140793416Y-90473962D01*
X140161109Y-91106269D01*
X140161109Y-91106270D01*
X140215267Y-91145619D01*
X140215273Y-91145623D01*
X140404611Y-91242095D01*
X140606705Y-91307759D01*
X140661003Y-91316359D01*
X140715519Y-91344136D01*
X140743297Y-91398653D01*
X140733726Y-91459085D01*
X140690461Y-91502350D01*
X140664830Y-91511238D01*
X140616408Y-91520869D01*
X140425229Y-91600058D01*
X140253175Y-91715020D01*
X140106847Y-91861348D01*
X139991885Y-92033402D01*
X139912696Y-92224581D01*
X139872327Y-92427532D01*
X139872327Y-92634467D01*
X139912696Y-92837418D01*
X139991885Y-93028597D01*
X140106847Y-93200651D01*
X140106850Y-93200655D01*
X140253172Y-93346977D01*
X140425229Y-93461941D01*
X140616407Y-93541130D01*
X140819362Y-93581500D01*
X140819363Y-93581500D01*
X141026291Y-93581500D01*
X141026292Y-93581500D01*
X141229247Y-93541130D01*
X141420425Y-93461941D01*
X141592482Y-93346977D01*
X141738804Y-93200655D01*
X141853768Y-93028598D01*
X141932957Y-92837420D01*
X141973327Y-92634465D01*
X141973327Y-92427535D01*
X141973326Y-92427533D01*
X141973326Y-92427527D01*
X141972224Y-92421987D01*
X141972223Y-92421985D01*
X141969348Y-92407532D01*
X153981796Y-92407532D01*
X153981796Y-92614467D01*
X154022165Y-92817418D01*
X154101354Y-93008597D01*
X154114718Y-93028598D01*
X154216319Y-93180655D01*
X154362641Y-93326977D01*
X154534698Y-93441941D01*
X154725876Y-93521130D01*
X154928831Y-93561500D01*
X154928832Y-93561500D01*
X155135760Y-93561500D01*
X155135761Y-93561500D01*
X155338716Y-93521130D01*
X155529894Y-93441941D01*
X155701951Y-93326977D01*
X155848273Y-93180655D01*
X155963237Y-93008598D01*
X156042426Y-92817420D01*
X156082796Y-92614465D01*
X156082796Y-92407535D01*
X156082795Y-92407532D01*
X161231796Y-92407532D01*
X161231796Y-92614467D01*
X161272165Y-92817418D01*
X161351354Y-93008597D01*
X161364718Y-93028598D01*
X161466319Y-93180655D01*
X161612641Y-93326977D01*
X161784698Y-93441941D01*
X161975876Y-93521130D01*
X162178831Y-93561500D01*
X162178832Y-93561500D01*
X162385760Y-93561500D01*
X162385761Y-93561500D01*
X162588716Y-93521130D01*
X162779894Y-93441941D01*
X162951951Y-93326977D01*
X163098273Y-93180655D01*
X163213237Y-93008598D01*
X163292426Y-92817420D01*
X163332796Y-92614465D01*
X163332796Y-92427532D01*
X179876327Y-92427532D01*
X179876327Y-92634467D01*
X179916696Y-92837418D01*
X179995885Y-93028597D01*
X180110847Y-93200651D01*
X180110850Y-93200655D01*
X180257172Y-93346977D01*
X180429229Y-93461941D01*
X180620407Y-93541130D01*
X180823362Y-93581500D01*
X180823363Y-93581500D01*
X181030291Y-93581500D01*
X181030292Y-93581500D01*
X181233247Y-93541130D01*
X181424425Y-93461941D01*
X181596482Y-93346977D01*
X181742804Y-93200655D01*
X181857768Y-93028598D01*
X181936957Y-92837420D01*
X181977327Y-92634465D01*
X181977327Y-92427535D01*
X181977326Y-92427532D01*
X182416327Y-92427532D01*
X182416327Y-92634467D01*
X182456696Y-92837418D01*
X182535885Y-93028597D01*
X182650847Y-93200651D01*
X182650850Y-93200655D01*
X182797172Y-93346977D01*
X182969229Y-93461941D01*
X183160407Y-93541130D01*
X183363362Y-93581500D01*
X183363363Y-93581500D01*
X183570291Y-93581500D01*
X183570292Y-93581500D01*
X183773247Y-93541130D01*
X183964425Y-93461941D01*
X184136482Y-93346977D01*
X184282804Y-93200655D01*
X184397768Y-93028598D01*
X184476957Y-92837420D01*
X184517327Y-92634465D01*
X184517327Y-92427535D01*
X184476957Y-92224580D01*
X184397768Y-92033402D01*
X184282804Y-91861345D01*
X184136482Y-91715023D01*
X184106550Y-91695023D01*
X183964424Y-91600058D01*
X183773245Y-91520869D01*
X183570294Y-91480500D01*
X183570292Y-91480500D01*
X183363362Y-91480500D01*
X183363359Y-91480500D01*
X183160408Y-91520869D01*
X182969229Y-91600058D01*
X182797175Y-91715020D01*
X182650847Y-91861348D01*
X182535885Y-92033402D01*
X182456696Y-92224581D01*
X182416327Y-92427532D01*
X181977326Y-92427532D01*
X181936957Y-92224580D01*
X181857768Y-92033402D01*
X181742804Y-91861345D01*
X181596482Y-91715023D01*
X181566550Y-91695023D01*
X181424424Y-91600058D01*
X181233245Y-91520869D01*
X181030294Y-91480500D01*
X181030292Y-91480500D01*
X180823362Y-91480500D01*
X180823359Y-91480500D01*
X180620408Y-91520869D01*
X180429229Y-91600058D01*
X180257175Y-91715020D01*
X180110847Y-91861348D01*
X179995885Y-92033402D01*
X179916696Y-92224581D01*
X179876327Y-92427532D01*
X163332796Y-92427532D01*
X163332796Y-92407535D01*
X163292426Y-92204580D01*
X163213237Y-92013402D01*
X163098273Y-91841345D01*
X162951951Y-91695023D01*
X162951947Y-91695020D01*
X162779893Y-91580058D01*
X162588714Y-91500869D01*
X162385763Y-91460500D01*
X162385761Y-91460500D01*
X162178831Y-91460500D01*
X162178828Y-91460500D01*
X161975877Y-91500869D01*
X161784698Y-91580058D01*
X161612644Y-91695020D01*
X161466316Y-91841348D01*
X161351354Y-92013402D01*
X161272165Y-92204581D01*
X161231796Y-92407532D01*
X156082795Y-92407532D01*
X156042426Y-92204580D01*
X155963237Y-92013402D01*
X155848273Y-91841345D01*
X155701951Y-91695023D01*
X155701947Y-91695020D01*
X155529893Y-91580058D01*
X155338714Y-91500869D01*
X155135763Y-91460500D01*
X155135761Y-91460500D01*
X154928831Y-91460500D01*
X154928828Y-91460500D01*
X154725877Y-91500869D01*
X154534698Y-91580058D01*
X154362644Y-91695020D01*
X154216316Y-91841348D01*
X154101354Y-92013402D01*
X154022165Y-92204581D01*
X153981796Y-92407532D01*
X141969348Y-92407532D01*
X141932957Y-92224581D01*
X141924672Y-92204580D01*
X141853768Y-92033402D01*
X141738804Y-91861345D01*
X141592482Y-91715023D01*
X141562550Y-91695023D01*
X141420424Y-91600058D01*
X141229245Y-91520869D01*
X141180823Y-91511238D01*
X141127439Y-91481341D01*
X141101823Y-91425776D01*
X141113760Y-91365766D01*
X141158690Y-91324234D01*
X141184650Y-91316359D01*
X141238948Y-91307759D01*
X141441042Y-91242095D01*
X141630383Y-91145620D01*
X141684543Y-91106270D01*
X141052235Y-90473962D01*
X141115820Y-90456925D01*
X141229834Y-90391099D01*
X141322926Y-90298007D01*
X141388752Y-90183993D01*
X141405789Y-90120408D01*
X142038097Y-90752716D01*
X142077447Y-90698556D01*
X142173922Y-90509215D01*
X142239586Y-90307121D01*
X142272827Y-90097250D01*
X142272827Y-89884748D01*
X142271783Y-89878157D01*
X142270100Y-89867532D01*
X153981796Y-89867532D01*
X153981796Y-90074467D01*
X154022165Y-90277418D01*
X154101354Y-90468597D01*
X154116323Y-90491000D01*
X154216319Y-90640655D01*
X154362641Y-90786977D01*
X154534698Y-90901941D01*
X154725876Y-90981130D01*
X154928831Y-91021500D01*
X154928832Y-91021500D01*
X155135760Y-91021500D01*
X155135761Y-91021500D01*
X155338716Y-90981130D01*
X155529894Y-90901941D01*
X155701951Y-90786977D01*
X155848273Y-90640655D01*
X155963237Y-90468598D01*
X156042426Y-90277420D01*
X156082796Y-90074465D01*
X156082796Y-89867535D01*
X156042426Y-89664580D01*
X155963237Y-89473402D01*
X155848273Y-89301345D01*
X155701951Y-89155023D01*
X155606934Y-89091535D01*
X155529893Y-89040058D01*
X155338714Y-88960869D01*
X155135763Y-88920500D01*
X155135761Y-88920500D01*
X154928831Y-88920500D01*
X154928828Y-88920500D01*
X154725877Y-88960869D01*
X154534698Y-89040058D01*
X154362644Y-89155020D01*
X154216316Y-89301348D01*
X154101354Y-89473402D01*
X154022165Y-89664581D01*
X153981796Y-89867532D01*
X142270100Y-89867532D01*
X142239586Y-89674878D01*
X142173922Y-89472784D01*
X142077450Y-89283446D01*
X142077446Y-89283440D01*
X142038097Y-89229282D01*
X142038096Y-89229282D01*
X141405789Y-89861589D01*
X141388752Y-89798007D01*
X141322926Y-89683993D01*
X141229834Y-89590901D01*
X141115820Y-89525075D01*
X141052234Y-89508037D01*
X141684543Y-88875729D01*
X141684543Y-88875728D01*
X141630386Y-88836380D01*
X141630380Y-88836376D01*
X141441042Y-88739904D01*
X141238949Y-88674241D01*
X141184649Y-88665640D01*
X141130133Y-88637862D01*
X141102356Y-88583345D01*
X141111928Y-88522913D01*
X141155193Y-88479649D01*
X141180820Y-88470762D01*
X141229247Y-88461130D01*
X141420425Y-88381941D01*
X141592482Y-88266977D01*
X141738804Y-88120655D01*
X141853768Y-87948598D01*
X141932957Y-87757420D01*
X141973327Y-87554465D01*
X141973327Y-87347535D01*
X141932957Y-87144580D01*
X141853768Y-86953402D01*
X141738804Y-86781345D01*
X141592482Y-86635023D01*
X141512009Y-86581253D01*
X141482077Y-86561253D01*
X153981796Y-86561253D01*
X153981796Y-88300746D01*
X153981797Y-88300758D01*
X153993428Y-88359227D01*
X153993430Y-88359233D01*
X154037741Y-88425548D01*
X154037744Y-88425552D01*
X154104065Y-88469867D01*
X154148527Y-88478711D01*
X154162537Y-88481498D01*
X154162542Y-88481498D01*
X154162548Y-88481500D01*
X154162549Y-88481500D01*
X155902043Y-88481500D01*
X155902044Y-88481500D01*
X155960527Y-88469867D01*
X156026848Y-88425552D01*
X156071163Y-88359231D01*
X156077211Y-88328824D01*
X160932295Y-88328824D01*
X160938697Y-88388370D01*
X160938699Y-88388381D01*
X160988942Y-88523088D01*
X160988943Y-88523090D01*
X161075103Y-88638184D01*
X161075111Y-88638192D01*
X161190205Y-88724352D01*
X161190207Y-88724353D01*
X161324914Y-88774596D01*
X161324925Y-88774598D01*
X161384472Y-88781000D01*
X161912415Y-88781000D01*
X161970606Y-88799907D01*
X162006570Y-88849407D01*
X162006570Y-88910593D01*
X161970606Y-88960093D01*
X161950303Y-88971462D01*
X161900993Y-88991887D01*
X161784698Y-89040058D01*
X161612644Y-89155020D01*
X161466316Y-89301348D01*
X161351354Y-89473402D01*
X161272165Y-89664581D01*
X161231796Y-89867532D01*
X161231796Y-90074467D01*
X161272165Y-90277418D01*
X161351354Y-90468597D01*
X161366323Y-90491000D01*
X161466319Y-90640655D01*
X161612641Y-90786977D01*
X161784698Y-90901941D01*
X161975876Y-90981130D01*
X162178831Y-91021500D01*
X162178832Y-91021500D01*
X162385760Y-91021500D01*
X162385761Y-91021500D01*
X162588716Y-90981130D01*
X162779894Y-90901941D01*
X162951951Y-90786977D01*
X163098273Y-90640655D01*
X163213237Y-90468598D01*
X163292426Y-90277420D01*
X163332796Y-90074465D01*
X163332796Y-89887532D01*
X179876327Y-89887532D01*
X179876327Y-90094467D01*
X179916696Y-90297418D01*
X179995885Y-90488597D01*
X180110847Y-90660651D01*
X180110850Y-90660655D01*
X180257172Y-90806977D01*
X180429229Y-90921941D01*
X180620407Y-91001130D01*
X180823362Y-91041500D01*
X180823363Y-91041500D01*
X181030291Y-91041500D01*
X181030292Y-91041500D01*
X181233247Y-91001130D01*
X181424425Y-90921941D01*
X181596482Y-90806977D01*
X181742804Y-90660655D01*
X181857768Y-90488598D01*
X181936957Y-90297420D01*
X181977327Y-90094465D01*
X181977327Y-89887535D01*
X181936957Y-89684580D01*
X181857768Y-89493402D01*
X181742804Y-89321345D01*
X181596482Y-89175023D01*
X181566550Y-89155023D01*
X181424424Y-89060058D01*
X181233245Y-88980869D01*
X181030294Y-88940500D01*
X181030292Y-88940500D01*
X180823362Y-88940500D01*
X180823359Y-88940500D01*
X180620408Y-88980869D01*
X180429229Y-89060058D01*
X180257175Y-89175020D01*
X180110847Y-89321348D01*
X179995885Y-89493402D01*
X179916696Y-89684581D01*
X179876327Y-89887532D01*
X163332796Y-89887532D01*
X163332796Y-89867535D01*
X163292426Y-89664580D01*
X163213237Y-89473402D01*
X163098273Y-89301345D01*
X162951951Y-89155023D01*
X162856934Y-89091535D01*
X162779893Y-89040058D01*
X162683824Y-89000265D01*
X162614290Y-88971463D01*
X162567766Y-88931727D01*
X162553482Y-88872233D01*
X162576897Y-88815705D01*
X162629066Y-88783735D01*
X162652177Y-88781000D01*
X163180120Y-88781000D01*
X163239666Y-88774598D01*
X163239677Y-88774596D01*
X163374384Y-88724353D01*
X163374386Y-88724352D01*
X163489480Y-88638192D01*
X163489488Y-88638184D01*
X163575648Y-88523090D01*
X163575649Y-88523088D01*
X163625892Y-88388381D01*
X163625894Y-88388370D01*
X163632296Y-88328824D01*
X163632296Y-87681001D01*
X163632295Y-87681000D01*
X162715308Y-87681000D01*
X162748221Y-87623993D01*
X162782296Y-87496826D01*
X162782296Y-87365174D01*
X162748221Y-87238007D01*
X162715308Y-87181000D01*
X163632295Y-87181000D01*
X163632296Y-87180999D01*
X163632296Y-86581253D01*
X179876327Y-86581253D01*
X179876327Y-88320746D01*
X179876328Y-88320758D01*
X179887959Y-88379227D01*
X179887961Y-88379233D01*
X179932272Y-88445548D01*
X179932275Y-88445552D01*
X179998596Y-88489867D01*
X180043058Y-88498711D01*
X180057068Y-88501498D01*
X180057073Y-88501498D01*
X180057079Y-88501500D01*
X180057080Y-88501500D01*
X181796574Y-88501500D01*
X181796575Y-88501500D01*
X181855058Y-88489867D01*
X181921379Y-88445552D01*
X181965694Y-88379231D01*
X181977327Y-88320748D01*
X181977327Y-87860543D01*
X181996234Y-87802352D01*
X182045734Y-87766388D01*
X182106920Y-87766388D01*
X182156420Y-87802352D01*
X182170482Y-87829951D01*
X182215730Y-87969213D01*
X182312203Y-88158553D01*
X182312207Y-88158559D01*
X182351555Y-88212716D01*
X182351556Y-88212716D01*
X182983864Y-87580407D01*
X183000902Y-87643993D01*
X183066728Y-87758007D01*
X183159820Y-87851099D01*
X183273834Y-87916925D01*
X183337416Y-87933962D01*
X182705109Y-88566269D01*
X182705109Y-88566270D01*
X182759267Y-88605619D01*
X182759273Y-88605623D01*
X182948611Y-88702095D01*
X183150705Y-88767759D01*
X183205003Y-88776359D01*
X183259519Y-88804136D01*
X183287297Y-88858653D01*
X183277726Y-88919085D01*
X183234461Y-88962350D01*
X183208830Y-88971238D01*
X183160408Y-88980869D01*
X182969229Y-89060058D01*
X182797175Y-89175020D01*
X182650847Y-89321348D01*
X182535885Y-89493402D01*
X182456696Y-89684581D01*
X182416327Y-89887532D01*
X182416327Y-90094467D01*
X182456696Y-90297418D01*
X182535885Y-90488597D01*
X182650847Y-90660651D01*
X182650850Y-90660655D01*
X182797172Y-90806977D01*
X182969229Y-90921941D01*
X183160407Y-91001130D01*
X183363362Y-91041500D01*
X183363363Y-91041500D01*
X183570291Y-91041500D01*
X183570292Y-91041500D01*
X183773247Y-91001130D01*
X183964425Y-90921941D01*
X184136482Y-90806977D01*
X184282804Y-90660655D01*
X184397768Y-90488598D01*
X184476957Y-90297420D01*
X184517327Y-90094465D01*
X184517327Y-89887535D01*
X184476957Y-89684580D01*
X184397768Y-89493402D01*
X184282804Y-89321345D01*
X184136482Y-89175023D01*
X184106550Y-89155023D01*
X183964424Y-89060058D01*
X183773245Y-88980869D01*
X183729901Y-88972248D01*
X183724822Y-88971237D01*
X183671439Y-88941341D01*
X183645823Y-88885776D01*
X183657760Y-88825766D01*
X183702690Y-88784234D01*
X183728650Y-88776359D01*
X183782948Y-88767759D01*
X183985042Y-88702095D01*
X184174383Y-88605620D01*
X184228543Y-88566270D01*
X183596235Y-87933962D01*
X183659820Y-87916925D01*
X183773834Y-87851099D01*
X183866926Y-87758007D01*
X183932752Y-87643993D01*
X183949789Y-87580408D01*
X184582097Y-88212716D01*
X184621447Y-88158556D01*
X184717922Y-87969215D01*
X184783586Y-87767121D01*
X184816827Y-87557250D01*
X184816827Y-87344749D01*
X184783586Y-87134878D01*
X184717922Y-86932784D01*
X184621450Y-86743446D01*
X184621446Y-86743440D01*
X184582097Y-86689282D01*
X184582096Y-86689282D01*
X183949789Y-87321589D01*
X183932752Y-87258007D01*
X183866926Y-87143993D01*
X183773834Y-87050901D01*
X183659820Y-86985075D01*
X183596234Y-86968037D01*
X184228543Y-86335729D01*
X184228543Y-86335728D01*
X184174386Y-86296380D01*
X184174380Y-86296376D01*
X183985042Y-86199904D01*
X183782948Y-86134240D01*
X183573077Y-86101000D01*
X183360577Y-86101000D01*
X183150705Y-86134240D01*
X182948611Y-86199904D01*
X182759273Y-86296376D01*
X182759269Y-86296378D01*
X182705109Y-86335728D01*
X183337418Y-86968037D01*
X183273834Y-86985075D01*
X183159820Y-87050901D01*
X183066728Y-87143993D01*
X183000902Y-87258007D01*
X182983864Y-87321591D01*
X182351555Y-86689282D01*
X182312205Y-86743442D01*
X182312203Y-86743446D01*
X182215731Y-86932784D01*
X182170482Y-87072049D01*
X182134518Y-87121549D01*
X182076327Y-87140456D01*
X182018136Y-87121549D01*
X181982172Y-87072049D01*
X181977327Y-87041456D01*
X181977327Y-86581253D01*
X181977325Y-86581241D01*
X181973349Y-86561252D01*
X181965694Y-86522769D01*
X181921379Y-86456448D01*
X181920369Y-86455773D01*
X181855060Y-86412134D01*
X181855058Y-86412133D01*
X181855055Y-86412132D01*
X181855054Y-86412132D01*
X181796585Y-86400501D01*
X181796575Y-86400500D01*
X180057079Y-86400500D01*
X180057078Y-86400500D01*
X180057068Y-86400501D01*
X179998599Y-86412132D01*
X179998593Y-86412134D01*
X179932278Y-86456445D01*
X179932272Y-86456451D01*
X179887961Y-86522766D01*
X179887959Y-86522772D01*
X179876328Y-86581241D01*
X179876327Y-86581253D01*
X163632296Y-86581253D01*
X163632296Y-86533175D01*
X163625894Y-86473629D01*
X163625892Y-86473618D01*
X163575649Y-86338911D01*
X163575648Y-86338909D01*
X163489488Y-86223815D01*
X163489480Y-86223807D01*
X163374386Y-86137647D01*
X163374384Y-86137646D01*
X163239677Y-86087403D01*
X163239666Y-86087401D01*
X163180120Y-86081000D01*
X162532297Y-86081000D01*
X162532296Y-86081001D01*
X162532296Y-86997988D01*
X162475289Y-86965075D01*
X162348122Y-86931000D01*
X162216470Y-86931000D01*
X162089303Y-86965075D01*
X162032296Y-86997988D01*
X162032296Y-86081001D01*
X162032295Y-86081000D01*
X161384472Y-86081000D01*
X161324925Y-86087401D01*
X161324914Y-86087403D01*
X161190207Y-86137646D01*
X161190205Y-86137647D01*
X161075111Y-86223807D01*
X161075103Y-86223815D01*
X160988943Y-86338909D01*
X160988942Y-86338911D01*
X160938699Y-86473618D01*
X160938697Y-86473629D01*
X160932296Y-86533175D01*
X160932296Y-87180999D01*
X160932297Y-87181000D01*
X161849284Y-87181000D01*
X161816371Y-87238007D01*
X161782296Y-87365174D01*
X161782296Y-87496826D01*
X161816371Y-87623993D01*
X161849284Y-87681000D01*
X160932297Y-87681000D01*
X160932296Y-87681001D01*
X160932296Y-88328824D01*
X160932295Y-88328824D01*
X156077211Y-88328824D01*
X156082796Y-88300748D01*
X156082796Y-86561252D01*
X156080525Y-86549834D01*
X156080525Y-86549832D01*
X156074602Y-86520058D01*
X156071163Y-86502769D01*
X156026848Y-86436448D01*
X156026844Y-86436445D01*
X155960529Y-86392134D01*
X155960527Y-86392133D01*
X155960524Y-86392132D01*
X155960523Y-86392132D01*
X155902054Y-86380501D01*
X155902044Y-86380500D01*
X154162548Y-86380500D01*
X154162547Y-86380500D01*
X154162537Y-86380501D01*
X154104068Y-86392132D01*
X154104062Y-86392134D01*
X154037747Y-86436445D01*
X154037741Y-86436451D01*
X153993430Y-86502766D01*
X153993428Y-86502772D01*
X153981797Y-86561241D01*
X153981796Y-86561253D01*
X141482077Y-86561253D01*
X141420424Y-86520058D01*
X141229245Y-86440869D01*
X141026294Y-86400500D01*
X141026292Y-86400500D01*
X140819362Y-86400500D01*
X140819359Y-86400500D01*
X140616408Y-86440869D01*
X140425229Y-86520058D01*
X140253175Y-86635020D01*
X140106847Y-86781348D01*
X139991885Y-86953402D01*
X139912696Y-87144581D01*
X139872327Y-87347532D01*
X139872327Y-87554467D01*
X139912696Y-87757418D01*
X139991885Y-87948597D01*
X140106847Y-88120651D01*
X140106850Y-88120655D01*
X140253172Y-88266977D01*
X140425229Y-88381941D01*
X140616407Y-88461130D01*
X140664830Y-88470762D01*
X140718213Y-88500657D01*
X140743830Y-88556221D01*
X140731894Y-88616231D01*
X140686965Y-88657765D01*
X140661004Y-88665640D01*
X140606704Y-88674241D01*
X140404611Y-88739904D01*
X140215273Y-88836376D01*
X140215269Y-88836378D01*
X140161109Y-88875728D01*
X140793418Y-89508037D01*
X140729834Y-89525075D01*
X140615820Y-89590901D01*
X140522728Y-89683993D01*
X140456902Y-89798007D01*
X140439864Y-89861591D01*
X139807555Y-89229282D01*
X139768205Y-89283442D01*
X139768203Y-89283446D01*
X139671731Y-89472784D01*
X139606068Y-89674877D01*
X139597467Y-89729177D01*
X139569689Y-89783694D01*
X139515172Y-89811470D01*
X139454740Y-89801898D01*
X139411476Y-89758633D01*
X139402589Y-89733006D01*
X139392957Y-89684580D01*
X139313768Y-89493402D01*
X139198804Y-89321345D01*
X139052482Y-89175023D01*
X139022550Y-89155023D01*
X138880424Y-89060058D01*
X138689245Y-88980869D01*
X138486294Y-88940500D01*
X138486292Y-88940500D01*
X138279362Y-88940500D01*
X138279359Y-88940500D01*
X138076408Y-88980869D01*
X137885229Y-89060058D01*
X137713175Y-89175020D01*
X137566847Y-89321348D01*
X137451885Y-89493402D01*
X137372696Y-89684581D01*
X137332327Y-89887532D01*
X108028569Y-89887532D01*
X107999221Y-89778007D01*
X107966308Y-89721000D01*
X108860527Y-89721000D01*
X108860527Y-89720999D01*
X108850054Y-89654877D01*
X108784391Y-89452784D01*
X108687920Y-89263447D01*
X108563018Y-89091535D01*
X108412760Y-88941277D01*
X108240848Y-88816375D01*
X108051511Y-88719904D01*
X107912247Y-88674655D01*
X107862747Y-88638691D01*
X107843840Y-88580500D01*
X107862747Y-88522309D01*
X107912247Y-88486345D01*
X107942840Y-88481500D01*
X108403043Y-88481500D01*
X108403044Y-88481500D01*
X108461527Y-88469867D01*
X108527848Y-88425552D01*
X108572163Y-88359231D01*
X108583796Y-88300748D01*
X108583796Y-86581253D01*
X137332327Y-86581253D01*
X137332327Y-88320746D01*
X137332328Y-88320758D01*
X137343959Y-88379227D01*
X137343961Y-88379233D01*
X137388272Y-88445548D01*
X137388275Y-88445552D01*
X137454596Y-88489867D01*
X137499058Y-88498711D01*
X137513068Y-88501498D01*
X137513073Y-88501498D01*
X137513079Y-88501500D01*
X137513080Y-88501500D01*
X139252574Y-88501500D01*
X139252575Y-88501500D01*
X139311058Y-88489867D01*
X139377379Y-88445552D01*
X139421694Y-88379231D01*
X139433327Y-88320748D01*
X139433327Y-86581252D01*
X139421694Y-86522769D01*
X139377379Y-86456448D01*
X139376369Y-86455773D01*
X139311060Y-86412134D01*
X139311058Y-86412133D01*
X139311055Y-86412132D01*
X139311054Y-86412132D01*
X139252585Y-86400501D01*
X139252575Y-86400500D01*
X137513079Y-86400500D01*
X137513078Y-86400500D01*
X137513068Y-86400501D01*
X137454599Y-86412132D01*
X137454593Y-86412134D01*
X137388278Y-86456445D01*
X137388272Y-86456451D01*
X137343961Y-86522766D01*
X137343959Y-86522772D01*
X137332328Y-86581241D01*
X137332327Y-86581253D01*
X108583796Y-86581253D01*
X108583796Y-86561252D01*
X108572163Y-86502769D01*
X108527848Y-86436448D01*
X108527844Y-86436445D01*
X108461529Y-86392134D01*
X108461527Y-86392133D01*
X108461524Y-86392132D01*
X108461523Y-86392132D01*
X108403054Y-86380501D01*
X108403044Y-86380500D01*
X106663548Y-86380500D01*
X106663547Y-86380500D01*
X106663537Y-86380501D01*
X106605068Y-86392132D01*
X106605062Y-86392134D01*
X106538747Y-86436445D01*
X106538741Y-86436451D01*
X106494430Y-86502766D01*
X106494428Y-86502772D01*
X106482797Y-86561241D01*
X106482796Y-86561253D01*
X106482796Y-88300746D01*
X106482797Y-88300758D01*
X106494428Y-88359227D01*
X106494430Y-88359233D01*
X106538741Y-88425548D01*
X106538744Y-88425552D01*
X106605065Y-88469867D01*
X106649527Y-88478711D01*
X106663537Y-88481498D01*
X106663542Y-88481498D01*
X106663548Y-88481500D01*
X106663549Y-88481500D01*
X107123752Y-88481500D01*
X107181943Y-88500407D01*
X107217907Y-88549907D01*
X107217907Y-88611093D01*
X107181943Y-88660593D01*
X107154345Y-88674655D01*
X107015080Y-88719904D01*
X106825743Y-88816375D01*
X106653831Y-88941277D01*
X106503573Y-89091535D01*
X106378671Y-89263447D01*
X106282200Y-89452784D01*
X106216537Y-89654877D01*
X106206064Y-89720999D01*
X101304648Y-89720999D01*
X101293426Y-89664580D01*
X101214237Y-89473402D01*
X101099273Y-89301345D01*
X100952951Y-89155023D01*
X100857934Y-89091535D01*
X100780893Y-89040058D01*
X100589714Y-88960869D01*
X100386763Y-88920500D01*
X100386761Y-88920500D01*
X100179831Y-88920500D01*
X100179828Y-88920500D01*
X99976877Y-88960869D01*
X99785698Y-89040058D01*
X99613644Y-89155020D01*
X99467316Y-89301348D01*
X99352354Y-89473402D01*
X99273165Y-89664581D01*
X99232796Y-89867532D01*
X89640500Y-89867532D01*
X89640500Y-86561253D01*
X99232796Y-86561253D01*
X99232796Y-88300746D01*
X99232797Y-88300758D01*
X99244428Y-88359227D01*
X99244430Y-88359233D01*
X99288741Y-88425548D01*
X99288744Y-88425552D01*
X99355065Y-88469867D01*
X99399527Y-88478711D01*
X99413537Y-88481498D01*
X99413542Y-88481498D01*
X99413548Y-88481500D01*
X99413549Y-88481500D01*
X101153043Y-88481500D01*
X101153044Y-88481500D01*
X101211527Y-88469867D01*
X101277848Y-88425552D01*
X101322163Y-88359231D01*
X101333796Y-88300748D01*
X101333796Y-86561252D01*
X101322163Y-86502769D01*
X101277848Y-86436448D01*
X101277844Y-86436445D01*
X101211529Y-86392134D01*
X101211527Y-86392133D01*
X101211524Y-86392132D01*
X101211523Y-86392132D01*
X101153054Y-86380501D01*
X101153044Y-86380500D01*
X99413548Y-86380500D01*
X99413547Y-86380500D01*
X99413537Y-86380501D01*
X99355068Y-86392132D01*
X99355062Y-86392134D01*
X99288747Y-86436445D01*
X99288741Y-86436451D01*
X99244430Y-86502766D01*
X99244428Y-86502772D01*
X99232797Y-86561241D01*
X99232796Y-86561253D01*
X89640500Y-86561253D01*
X89640500Y-80995555D01*
X89641121Y-80984488D01*
X89651776Y-80889922D01*
X89656704Y-80868332D01*
X89686285Y-80783794D01*
X89695897Y-80763834D01*
X89743541Y-80688010D01*
X89757357Y-80670684D01*
X89820684Y-80607357D01*
X89838012Y-80593540D01*
X89913834Y-80545897D01*
X89933794Y-80536285D01*
X90018332Y-80506704D01*
X90039924Y-80501776D01*
X90134487Y-80491121D01*
X90145556Y-80490500D01*
X90205892Y-80490500D01*
X188074108Y-80490500D01*
X188134444Y-80490500D01*
X188145512Y-80491121D01*
G37*
%TD.AperFunction*%
%TD*%
M02*
