%TF.GenerationSoftware,KiCad,Pcbnew,9.0.0*%
%TF.CreationDate,2025-09-30T11:44:18-04:00*%
%TF.ProjectId,CSC202_LP_MSPM0G3507_2TERM_BREAKOUT,43534332-3032-45f4-9c50-5f4d53504d30,rev?*%
%TF.SameCoordinates,Original*%
%TF.FileFunction,Soldermask,Bot*%
%TF.FilePolarity,Negative*%
%FSLAX46Y46*%
G04 Gerber Fmt 4.6, Leading zero omitted, Abs format (unit mm)*
G04 Created by KiCad (PCBNEW 9.0.0) date 2025-09-30 11:44:18*
%MOMM*%
%LPD*%
G01*
G04 APERTURE LIST*
%ADD10O,1.700000X1.700000*%
%ADD11R,1.700000X1.700000*%
G04 APERTURE END LIST*
D10*
%TO.C,J2*%
X183466827Y-110311000D03*
X183466827Y-107771000D03*
X183466827Y-105231000D03*
X183466827Y-102691000D03*
X183466827Y-100151000D03*
X183466827Y-97611000D03*
X183466827Y-95071000D03*
X183466827Y-92531000D03*
X183466827Y-89991000D03*
X183466827Y-87451000D03*
X180926827Y-110311000D03*
X180926827Y-107771000D03*
X180926827Y-105231000D03*
X180926827Y-102691000D03*
X180926827Y-100151000D03*
X180926827Y-97611000D03*
X180926827Y-95071000D03*
X180926827Y-92531000D03*
X180926827Y-89991000D03*
D11*
X180926827Y-87451000D03*
%TD*%
%TO.C,J1*%
X138382827Y-87451000D03*
D10*
X138382827Y-89991000D03*
X138382827Y-92531000D03*
X138382827Y-95071000D03*
X138382827Y-97611000D03*
X138382827Y-100151000D03*
X138382827Y-102691000D03*
X138382827Y-105231000D03*
X138382827Y-107771000D03*
X138382827Y-110311000D03*
X140922827Y-87451000D03*
X140922827Y-89991000D03*
X140922827Y-92531000D03*
X140922827Y-95071000D03*
X140922827Y-97611000D03*
X140922827Y-100151000D03*
X140922827Y-102691000D03*
X140922827Y-105231000D03*
X140922827Y-107771000D03*
X140922827Y-110311000D03*
%TD*%
D11*
%TO.C,J4*%
X107533296Y-87431000D03*
D10*
X107533296Y-89971000D03*
X107533296Y-92511000D03*
X107533296Y-95051000D03*
X107533296Y-97591000D03*
X107533296Y-100131000D03*
X107533296Y-102671000D03*
X107533296Y-105211000D03*
X107533296Y-107751000D03*
X107533296Y-110291000D03*
%TD*%
D11*
%TO.C,J6*%
X162282296Y-87431000D03*
D10*
X162282296Y-89971000D03*
X162282296Y-92511000D03*
X162282296Y-95051000D03*
X162282296Y-97591000D03*
X162282296Y-100131000D03*
X162282296Y-102671000D03*
X162282296Y-105211000D03*
X162282296Y-107751000D03*
X162282296Y-110291000D03*
%TD*%
D11*
%TO.C,J3*%
X100283296Y-87431000D03*
D10*
X100283296Y-89971000D03*
X100283296Y-92511000D03*
X100283296Y-95051000D03*
X100283296Y-97591000D03*
X100283296Y-100131000D03*
X100283296Y-102671000D03*
X100283296Y-105211000D03*
X100283296Y-107751000D03*
X100283296Y-110291000D03*
%TD*%
D11*
%TO.C,J5*%
X155032296Y-87431000D03*
D10*
X155032296Y-89971000D03*
X155032296Y-92511000D03*
X155032296Y-95051000D03*
X155032296Y-97591000D03*
X155032296Y-100131000D03*
X155032296Y-102671000D03*
X155032296Y-105211000D03*
X155032296Y-107751000D03*
X155032296Y-110291000D03*
%TD*%
M02*
