%TF.GenerationSoftware,KiCad,Pcbnew,9.0.0*%
%TF.CreationDate,2025-09-30T11:44:18-04:00*%
%TF.ProjectId,CSC202_LP_MSPM0G3507_2TERM_BREAKOUT,43534332-3032-45f4-9c50-5f4d53504d30,rev?*%
%TF.SameCoordinates,Original*%
%TF.FileFunction,Copper,L1,Top*%
%TF.FilePolarity,Positive*%
%FSLAX46Y46*%
G04 Gerber Fmt 4.6, Leading zero omitted, Abs format (unit mm)*
G04 Created by KiCad (PCBNEW 9.0.0) date 2025-09-30 11:44:18*
%MOMM*%
%LPD*%
G01*
G04 APERTURE LIST*
%TA.AperFunction,Conductor*%
%ADD10C,1.000000*%
%TD*%
%ADD11C,0.100000*%
%TA.AperFunction,EtchedComponent*%
%ADD12C,0.200000*%
%TD*%
%ADD13C,0.200000*%
%TA.AperFunction,ComponentPad*%
%ADD14O,1.700000X1.700000*%
%TD*%
%TA.AperFunction,ComponentPad*%
%ADD15R,1.700000X1.700000*%
%TD*%
%TA.AperFunction,Conductor*%
%ADD16C,0.400000*%
%TD*%
%TA.AperFunction,Conductor*%
%ADD17C,1.500000*%
%TD*%
%TA.AperFunction,Conductor*%
%ADD18C,1.300000*%
%TD*%
%TA.AperFunction,Conductor*%
%ADD19C,0.200000*%
%TD*%
G04 APERTURE END LIST*
D10*
%TO.N,+5V*%
X140915754Y-87489798D02*
X139855754Y-88769798D01*
D11*
G36*
X186394325Y-81936902D02*
G01*
X186478361Y-81962188D01*
X186552819Y-82003507D01*
X186619309Y-82061831D01*
X186671637Y-82131754D01*
X186710380Y-82215721D01*
X186735048Y-82316544D01*
X186743864Y-82437804D01*
X186742875Y-82482070D01*
X186012528Y-82482070D01*
X186022649Y-82562754D01*
X186041823Y-82629284D01*
X186068988Y-82684028D01*
X186103780Y-82728871D01*
X186163037Y-82776416D01*
X186230410Y-82804701D01*
X186308541Y-82814435D01*
X186367845Y-82808850D01*
X186419286Y-82792806D01*
X186464420Y-82766625D01*
X186502498Y-82730767D01*
X186536729Y-82680935D01*
X186566800Y-82613961D01*
X186738341Y-82635063D01*
X186702551Y-82729989D01*
X186652518Y-82806896D01*
X186587985Y-82868593D01*
X186531467Y-82903831D01*
X186466889Y-82929691D01*
X186392850Y-82945906D01*
X186307634Y-82951602D01*
X186201705Y-82942623D01*
X186111380Y-82917106D01*
X186033794Y-82876126D01*
X185966861Y-82819299D01*
X185913832Y-82749891D01*
X185874702Y-82666847D01*
X185849853Y-82567446D01*
X185840987Y-82448190D01*
X185848509Y-82344903D01*
X186021760Y-82344903D01*
X186568614Y-82344903D01*
X186555409Y-82264489D01*
X186533978Y-82204554D01*
X186505883Y-82160667D01*
X186462900Y-82118630D01*
X186415080Y-82089250D01*
X186361405Y-82071444D01*
X186300298Y-82065294D01*
X186227122Y-82073987D01*
X186163799Y-82099207D01*
X186107984Y-82141378D01*
X186064597Y-82196428D01*
X186035727Y-82263280D01*
X186021760Y-82344903D01*
X185848509Y-82344903D01*
X185849991Y-82324561D01*
X185875188Y-82221723D01*
X185914775Y-82136033D01*
X185968262Y-82064634D01*
X186036220Y-82005195D01*
X186112645Y-81962999D01*
X186199232Y-81937122D01*
X186298402Y-81928127D01*
X186394325Y-81936902D01*
G37*
D12*
%TD*%
%TO.C,LOGO2*%
X185521827Y-82360000D02*
X185521827Y-82560000D01*
%TO.C,LOGO2*%
X187071827Y-82560000D02*
X187071827Y-82360000D01*
X185521827Y-82360000D02*
G75*
G02*
X187071827Y-82360000I775000J0D01*
G01*
X185521827Y-82560000D02*
G75*
G02*
X185301611Y-82985000I-520212J-3D01*
G01*
X186193749Y-81485000D02*
G75*
G02*
X186399905Y-81485000I103078J0D01*
G01*
X186399905Y-83356922D02*
G75*
G02*
X186193749Y-83356922I-103078J0D01*
G01*
X187292043Y-82985000D02*
G75*
G02*
X187071820Y-82560000I299984J425000D01*
G01*
D13*
X185301611Y-82985000D02*
X185301621Y-82986370D01*
X185301651Y-82987736D01*
X185301701Y-82989098D01*
X185301770Y-82990456D01*
X185301969Y-82993160D01*
X185302246Y-82995851D01*
X185302603Y-82998528D01*
X185303038Y-83001194D01*
X185303553Y-83003849D01*
X185304147Y-83006495D01*
X185304821Y-83009132D01*
X185305575Y-83011762D01*
X185306411Y-83014385D01*
X185307329Y-83017003D01*
X185308330Y-83019617D01*
X185309415Y-83022228D01*
X185310586Y-83024836D01*
X185311844Y-83027442D01*
X185313190Y-83030047D01*
X185314626Y-83032653D01*
X185316154Y-83035258D01*
X185317775Y-83037866D01*
X185319491Y-83040475D01*
X185321306Y-83043087D01*
X185323219Y-83045701D01*
X185325235Y-83048320D01*
X185327354Y-83050942D01*
X185329580Y-83053569D01*
X185331916Y-83056201D01*
X185334363Y-83058838D01*
X185336924Y-83061481D01*
X185339602Y-83064130D01*
X185342400Y-83066784D01*
X185345321Y-83069444D01*
X185348368Y-83072111D01*
X185351543Y-83074784D01*
X185354850Y-83077464D01*
X185358293Y-83080150D01*
X185361874Y-83082842D01*
X185365596Y-83085541D01*
X185369463Y-83088246D01*
X185373479Y-83090957D01*
X185377647Y-83093674D01*
X185381969Y-83096397D01*
X185386451Y-83099125D01*
X185391096Y-83101859D01*
X185395906Y-83104597D01*
X185400887Y-83107340D01*
X185406041Y-83110088D01*
X185411372Y-83112839D01*
X185416885Y-83115594D01*
X185422582Y-83118352D01*
X185428469Y-83121112D01*
X185434549Y-83123875D01*
X185440825Y-83126639D01*
X185447302Y-83129405D01*
X185453984Y-83132171D01*
X185460874Y-83134937D01*
X185467978Y-83137702D01*
X185475298Y-83140465D01*
X185482839Y-83143227D01*
X185490605Y-83145986D01*
X185498599Y-83148742D01*
X185506827Y-83151493D01*
X185515292Y-83154240D01*
X185523997Y-83156981D01*
X185532948Y-83159715D01*
X185542147Y-83162442D01*
X185551599Y-83165161D01*
X185561309Y-83167870D01*
X185571278Y-83170570D01*
X185581512Y-83173258D01*
X185592015Y-83175935D01*
X185602789Y-83178598D01*
X185613838Y-83181248D01*
X185625166Y-83183882D01*
X185636777Y-83186501D01*
X185648673Y-83189102D01*
X185660857Y-83191685D01*
X185673333Y-83194249D01*
X185686103Y-83196791D01*
X185699170Y-83199312D01*
X185712536Y-83201810D01*
X185726204Y-83204283D01*
X185740174Y-83206730D01*
X185754449Y-83209151D01*
X185769030Y-83211542D01*
X185783917Y-83213904D01*
X185799111Y-83216234D01*
X185814611Y-83218531D01*
X185830417Y-83220793D01*
X185846527Y-83223019D01*
X185862939Y-83225207D01*
X185879651Y-83227355D01*
X185896657Y-83229461D01*
X185913953Y-83231524D01*
X185931534Y-83233542D01*
X185949390Y-83235512D01*
X185967513Y-83237433D01*
X185985891Y-83239302D01*
X186004511Y-83241117D01*
X186023355Y-83242875D01*
X186042405Y-83244574D01*
X186061637Y-83246211D01*
X186081021Y-83247784D01*
X186100525Y-83249288D01*
X186120105Y-83250721D01*
X186139711Y-83252079D01*
X186159278Y-83253358D01*
X186178725Y-83254553D01*
X186197951Y-83255659D01*
X186216816Y-83256670D01*
X186235135Y-83257579D01*
X186252638Y-83258376D01*
X186268909Y-83259048D01*
X186283221Y-83259576D01*
X186293980Y-83259921D01*
X186296827Y-83260000D01*
X187292043Y-82985000D02*
X187292033Y-82986370D01*
X187292003Y-82987736D01*
X187291953Y-82989098D01*
X187291884Y-82990456D01*
X187291685Y-82993160D01*
X187291408Y-82995851D01*
X187291051Y-82998528D01*
X187290616Y-83001194D01*
X187290101Y-83003849D01*
X187289507Y-83006495D01*
X187288833Y-83009132D01*
X187288079Y-83011762D01*
X187287243Y-83014385D01*
X187286325Y-83017003D01*
X187285324Y-83019617D01*
X187284239Y-83022228D01*
X187283068Y-83024836D01*
X187281810Y-83027442D01*
X187280464Y-83030047D01*
X187279028Y-83032653D01*
X187277500Y-83035258D01*
X187275879Y-83037866D01*
X187274163Y-83040475D01*
X187272348Y-83043087D01*
X187270435Y-83045701D01*
X187268419Y-83048320D01*
X187266300Y-83050942D01*
X187264074Y-83053569D01*
X187261738Y-83056201D01*
X187259291Y-83058838D01*
X187256730Y-83061481D01*
X187254052Y-83064130D01*
X187251254Y-83066784D01*
X187248333Y-83069444D01*
X187245286Y-83072111D01*
X187242111Y-83074784D01*
X187238804Y-83077464D01*
X187235361Y-83080150D01*
X187231780Y-83082842D01*
X187228058Y-83085541D01*
X187224191Y-83088246D01*
X187220175Y-83090957D01*
X187216007Y-83093674D01*
X187211685Y-83096397D01*
X187207203Y-83099125D01*
X187202558Y-83101859D01*
X187197748Y-83104597D01*
X187192767Y-83107340D01*
X187187613Y-83110088D01*
X187182282Y-83112839D01*
X187176769Y-83115594D01*
X187171072Y-83118352D01*
X187165185Y-83121112D01*
X187159105Y-83123875D01*
X187152829Y-83126639D01*
X187146352Y-83129405D01*
X187139670Y-83132171D01*
X187132780Y-83134937D01*
X187125676Y-83137702D01*
X187118356Y-83140465D01*
X187110815Y-83143227D01*
X187103049Y-83145986D01*
X187095055Y-83148742D01*
X187086827Y-83151493D01*
X187078362Y-83154240D01*
X187069657Y-83156981D01*
X187060706Y-83159715D01*
X187051507Y-83162442D01*
X187042055Y-83165161D01*
X187032345Y-83167870D01*
X187022376Y-83170570D01*
X187012142Y-83173258D01*
X187001639Y-83175935D01*
X186990865Y-83178598D01*
X186979816Y-83181248D01*
X186968488Y-83183882D01*
X186956877Y-83186501D01*
X186944981Y-83189102D01*
X186932797Y-83191685D01*
X186920321Y-83194249D01*
X186907551Y-83196791D01*
X186894484Y-83199312D01*
X186881118Y-83201810D01*
X186867450Y-83204283D01*
X186853480Y-83206730D01*
X186839205Y-83209151D01*
X186824624Y-83211542D01*
X186809737Y-83213904D01*
X186794543Y-83216234D01*
X186779043Y-83218531D01*
X186763237Y-83220793D01*
X186747127Y-83223019D01*
X186730715Y-83225207D01*
X186714003Y-83227355D01*
X186696997Y-83229461D01*
X186679701Y-83231524D01*
X186662120Y-83233542D01*
X186644264Y-83235512D01*
X186626141Y-83237433D01*
X186607763Y-83239302D01*
X186589143Y-83241117D01*
X186570299Y-83242875D01*
X186551249Y-83244574D01*
X186532017Y-83246211D01*
X186512633Y-83247784D01*
X186493129Y-83249288D01*
X186473549Y-83250721D01*
X186453943Y-83252079D01*
X186434376Y-83253358D01*
X186414929Y-83254553D01*
X186395703Y-83255659D01*
X186376838Y-83256670D01*
X186358519Y-83257579D01*
X186341016Y-83258376D01*
X186324745Y-83259048D01*
X186310433Y-83259576D01*
X186299674Y-83259921D01*
X186296827Y-83260000D01*
%TD*%
D14*
%TO.P,J2,11,PB16*%
%TO.N,/KP_COL3*%
X183466827Y-110311000D03*
%TO.P,J2,12,PB0*%
%TO.N,/SPI_CS1*%
X183466827Y-107771000D03*
%TO.P,J2,13,PB6*%
%TO.N,/SPI_CS0*%
X183466827Y-105231000D03*
%TO.P,J2,14,PB7*%
%TO.N,/SPI_MISO*%
X183466827Y-102691000D03*
%TO.P,J2,15,PB8*%
%TO.N,/SPI_MOSI*%
X183466827Y-100151000D03*
%TO.P,J2,16,NRST*%
%TO.N,/NRST*%
X183466827Y-97611000D03*
%TO.P,J2,17,PB15*%
%TO.N,/KP_COL2*%
X183466827Y-95071000D03*
%TO.P,J2,18,PB17*%
%TO.N,/KP_COL1*%
X183466827Y-92531000D03*
%TO.P,J2,19,PB12*%
%TO.N,/KP_COL0*%
X183466827Y-89991000D03*
%TO.P,J2,20,GND*%
%TO.N,GND*%
X183466827Y-87451000D03*
%TO.P,J2,31,PA13*%
%TO.N,/LED5*%
X180926827Y-110311000D03*
%TO.P,J2,32,PA12*%
%TO.N,/LED4*%
X180926827Y-107771000D03*
%TO.P,J2,33,PA11*%
%TO.N,/LINRX*%
X180926827Y-105231000D03*
%TO.P,J2,34,PA10*%
%TO.N,/LINTX*%
X180926827Y-102691000D03*
%TO.P,J2,35,PB13*%
%TO.N,/LED3*%
X180926827Y-100151000D03*
%TO.P,J2,36,PB20*%
%TO.N,/LED2{slash}DIR_B*%
X180926827Y-97611000D03*
%TO.P,J2,37,PA31*%
%TO.N,/LED1{slash}DIR_A*%
X180926827Y-95071000D03*
%TO.P,J2,38,PA28*%
%TO.N,/LED0{slash}PWM*%
X180926827Y-92531000D03*
%TO.P,J2,39,PB1*%
%TO.N,/KP_ROW3*%
X180926827Y-89991000D03*
D15*
%TO.P,J2,40,PB4*%
%TO.N,/KP_ROW2*%
X180926827Y-87451000D03*
%TD*%
%TO.P,J1,1,3V3*%
%TO.N,+3V3*%
X138382827Y-87451000D03*
D14*
%TO.P,J1,2,PA25*%
%TO.N,/DIG1_EN*%
X138382827Y-89991000D03*
%TO.P,J1,3,PB23/A9*%
%TO.N,/KP_ROW0*%
X138382827Y-92531000D03*
%TO.P,J1,4,PA8*%
%TO.N,/KP_ROW1*%
X138382827Y-95071000D03*
%TO.P,J1,5,PA26*%
%TO.N,/DIG2_EN*%
X138382827Y-97611000D03*
%TO.P,J1,6,PB24*%
%TO.N,/ADC0.5*%
X138382827Y-100151000D03*
%TO.P,J1,7,PB9*%
%TO.N,/SPI_CLK*%
X138382827Y-102691000D03*
%TO.P,J1,8,PA27*%
%TO.N,/DIG3_EN*%
X138382827Y-105231000D03*
%TO.P,J1,9,PB2*%
%TO.N,/I2C_SCL*%
X138382827Y-107771000D03*
%TO.P,J1,10,PB3*%
%TO.N,/I2C_SDA*%
X138382827Y-110311000D03*
%TO.P,J1,21,5V*%
%TO.N,+5V*%
X140922827Y-87451000D03*
%TO.P,J1,22,GND*%
%TO.N,GND*%
X140922827Y-89991000D03*
%TO.P,J1,23,PB19*%
%TO.N,/SW1-1*%
X140922827Y-92531000D03*
%TO.P,J1,24,PA22*%
%TO.N,/SW1-2{slash}ADC0.7*%
X140922827Y-95071000D03*
%TO.P,J1,25,PB18*%
%TO.N,/SW1-3{slash}PB1*%
X140922827Y-97611000D03*
%TO.P,J1,26,PA18*%
%TO.N,/LED_EN*%
X140922827Y-100151000D03*
%TO.P,J1,27,PA24*%
%TO.N,/DIG0_EN*%
X140922827Y-102691000D03*
%TO.P,J1,28,PA17*%
%TO.N,/LED7*%
X140922827Y-105231000D03*
%TO.P,J1,29,PA16/A18*%
%TO.N,/LED6*%
X140922827Y-107771000D03*
%TO.P,J1,30,PA15*%
%TO.N,/SW1-4{slash}PB2*%
X140922827Y-110311000D03*
%TD*%
D15*
%TO.P,J4,1,Pin_1*%
%TO.N,+5V*%
X107533296Y-87431000D03*
D14*
%TO.P,J4,2,Pin_2*%
%TO.N,GND*%
X107533296Y-89971000D03*
%TO.P,J4,3,Pin_3*%
%TO.N,/SW1-1*%
X107533296Y-92511000D03*
%TO.P,J4,4,Pin_4*%
%TO.N,/SW1-2{slash}ADC0.7*%
X107533296Y-95051000D03*
%TO.P,J4,5,Pin_5*%
%TO.N,/SW1-3{slash}PB1*%
X107533296Y-97591000D03*
%TO.P,J4,6,Pin_6*%
%TO.N,/LED_EN*%
X107533296Y-100131000D03*
%TO.P,J4,7,Pin_7*%
%TO.N,/DIG0_EN*%
X107533296Y-102671000D03*
%TO.P,J4,8,Pin_8*%
%TO.N,/LED7*%
X107533296Y-105211000D03*
%TO.P,J4,9,Pin_9*%
%TO.N,/LED6*%
X107533296Y-107751000D03*
%TO.P,J4,10,Pin_10*%
%TO.N,/SW1-4{slash}PB2*%
X107533296Y-110291000D03*
%TD*%
D15*
%TO.P,J6,1,Pin_1*%
%TO.N,GND*%
X162282296Y-87431000D03*
D14*
%TO.P,J6,2,Pin_2*%
%TO.N,/KP_COL0*%
X162282296Y-89971000D03*
%TO.P,J6,3,Pin_3*%
%TO.N,/KP_COL1*%
X162282296Y-92511000D03*
%TO.P,J6,4,Pin_4*%
%TO.N,/KP_COL2*%
X162282296Y-95051000D03*
%TO.P,J6,5,Pin_5*%
%TO.N,/NRST*%
X162282296Y-97591000D03*
%TO.P,J6,6,Pin_6*%
%TO.N,/SPI_MOSI*%
X162282296Y-100131000D03*
%TO.P,J6,7,Pin_7*%
%TO.N,/SPI_MISO*%
X162282296Y-102671000D03*
%TO.P,J6,8,Pin_8*%
%TO.N,/SPI_CS0*%
X162282296Y-105211000D03*
%TO.P,J6,9,Pin_9*%
%TO.N,/SPI_CS1*%
X162282296Y-107751000D03*
%TO.P,J6,10,Pin_10*%
%TO.N,/KP_COL3*%
X162282296Y-110291000D03*
%TD*%
D15*
%TO.P,J3,1,Pin_1*%
%TO.N,+3V3*%
X100283296Y-87431000D03*
D14*
%TO.P,J3,2,Pin_2*%
%TO.N,/DIG1_EN*%
X100283296Y-89971000D03*
%TO.P,J3,3,Pin_3*%
%TO.N,/KP_ROW0*%
X100283296Y-92511000D03*
%TO.P,J3,4,Pin_4*%
%TO.N,/KP_ROW1*%
X100283296Y-95051000D03*
%TO.P,J3,5,Pin_5*%
%TO.N,/DIG2_EN*%
X100283296Y-97591000D03*
%TO.P,J3,6,Pin_6*%
%TO.N,/ADC0.5*%
X100283296Y-100131000D03*
%TO.P,J3,7,Pin_7*%
%TO.N,/SPI_CLK*%
X100283296Y-102671000D03*
%TO.P,J3,8,Pin_8*%
%TO.N,/DIG3_EN*%
X100283296Y-105211000D03*
%TO.P,J3,9,Pin_9*%
%TO.N,/I2C_SCL*%
X100283296Y-107751000D03*
%TO.P,J3,10,Pin_10*%
%TO.N,/I2C_SDA*%
X100283296Y-110291000D03*
%TD*%
D15*
%TO.P,J5,1,Pin_1*%
%TO.N,/KP_ROW2*%
X155032296Y-87431000D03*
D14*
%TO.P,J5,2,Pin_2*%
%TO.N,/KP_ROW3*%
X155032296Y-89971000D03*
%TO.P,J5,3,Pin_3*%
%TO.N,/LED0{slash}PWM*%
X155032296Y-92511000D03*
%TO.P,J5,4,Pin_4*%
%TO.N,/LED1{slash}DIR_A*%
X155032296Y-95051000D03*
%TO.P,J5,5,Pin_5*%
%TO.N,/LED2{slash}DIR_B*%
X155032296Y-97591000D03*
%TO.P,J5,6,Pin_6*%
%TO.N,/LED3*%
X155032296Y-100131000D03*
%TO.P,J5,7,Pin_7*%
%TO.N,/LINTX*%
X155032296Y-102671000D03*
%TO.P,J5,8,Pin_8*%
%TO.N,/LINRX*%
X155032296Y-105211000D03*
%TO.P,J5,9,Pin_9*%
%TO.N,/LED4*%
X155032296Y-107751000D03*
%TO.P,J5,10,Pin_10*%
%TO.N,/LED5*%
X155032296Y-110291000D03*
%TD*%
D16*
%TO.N,/ADC0.5*%
X134325754Y-98849798D02*
X135645754Y-100169798D01*
X103828212Y-98849596D02*
X103828414Y-98849798D01*
X103828414Y-98849798D02*
X134325754Y-98849798D01*
X100275754Y-100119798D02*
X102558010Y-100119798D01*
X135645754Y-100169798D02*
X138346954Y-100169798D01*
X102558010Y-100119798D02*
X103828212Y-98849596D01*
%TO.N,/DIG1_EN*%
X107005552Y-88689596D02*
X107005754Y-88689798D01*
X100275754Y-89959798D02*
X102558010Y-89959798D01*
X102558010Y-89959798D02*
X103828212Y-88689596D01*
X134325754Y-88689798D02*
X135645754Y-90009798D01*
X107005754Y-88689798D02*
X134325754Y-88689798D01*
X135645754Y-90009798D02*
X138346954Y-90009798D01*
X103828212Y-88689596D02*
X107005552Y-88689596D01*
%TO.N,/I2C_SDA*%
X103828414Y-109029798D02*
X134325754Y-109029798D01*
X103828212Y-109029596D02*
X103828414Y-109029798D01*
X100275754Y-110299798D02*
X102558010Y-110299798D01*
X102558010Y-110299798D02*
X103828212Y-109029596D01*
X135645754Y-110349798D02*
X138346954Y-110349798D01*
X134325754Y-109029798D02*
X135645754Y-110349798D01*
%TO.N,/DIG2_EN*%
X103828414Y-96309798D02*
X134325754Y-96309798D01*
X103828212Y-96309596D02*
X103828414Y-96309798D01*
X134325754Y-96309798D02*
X135645754Y-97629798D01*
X135645754Y-97629798D02*
X138346954Y-97629798D01*
X102558010Y-97579798D02*
X103828212Y-96309596D01*
X100275754Y-97579798D02*
X102558010Y-97579798D01*
%TO.N,/DIG3_EN*%
X135645754Y-105249798D02*
X138346954Y-105249798D01*
X134325754Y-103929798D02*
X135645754Y-105249798D01*
X102558010Y-105199798D02*
X103828212Y-103929596D01*
X103828414Y-103929798D02*
X134325754Y-103929798D01*
X103828212Y-103929596D02*
X103828414Y-103929798D01*
X100275754Y-105199798D02*
X102558010Y-105199798D01*
%TO.N,/KP_ROW1*%
X103828212Y-93769596D02*
X103828414Y-93769798D01*
X134325754Y-93769798D02*
X135645754Y-95089798D01*
X102558010Y-95039798D02*
X103828212Y-93769596D01*
X103828414Y-93769798D02*
X134325754Y-93769798D01*
X135645754Y-95089798D02*
X138346954Y-95089798D01*
X100275754Y-95039798D02*
X102558010Y-95039798D01*
D17*
%TO.N,+3V3*%
X103273498Y-84429798D02*
X100283296Y-87420000D01*
X138239796Y-87464556D02*
X135205038Y-84429798D01*
X135205038Y-84429798D02*
X103273498Y-84429798D01*
D16*
%TO.N,/KP_ROW0*%
X103828414Y-91229798D02*
X134325754Y-91229798D01*
X102558010Y-92499798D02*
X103828212Y-91229596D01*
X103828212Y-91229596D02*
X103828414Y-91229798D01*
X100275754Y-92499798D02*
X102558010Y-92499798D01*
X135645754Y-92549798D02*
X138346954Y-92549798D01*
X134325754Y-91229798D02*
X135645754Y-92549798D01*
%TO.N,/I2C_SCL*%
X103828414Y-106479798D02*
X134325754Y-106479798D01*
X102558010Y-107749798D02*
X103828212Y-106479596D01*
X103828212Y-106479596D02*
X103828414Y-106479798D01*
X100275754Y-107749798D02*
X102558010Y-107749798D01*
X134325754Y-106479798D02*
X135645754Y-107799798D01*
X135645754Y-107799798D02*
X138346954Y-107799798D01*
%TO.N,/SPI_CLK*%
X135645754Y-102709798D02*
X138346954Y-102709798D01*
X100275754Y-102659798D02*
X102558010Y-102659798D01*
X103828212Y-101389596D02*
X103828414Y-101389798D01*
X103828414Y-101389798D02*
X134325754Y-101389798D01*
X134325754Y-101389798D02*
X135645754Y-102709798D01*
X102558010Y-102659798D02*
X103828212Y-101389596D01*
%TO.N,/KP_COL3*%
X176834279Y-110300000D02*
X178144279Y-111610000D01*
X178144279Y-111610000D02*
X182155721Y-111610000D01*
X162281296Y-110300000D02*
X176834279Y-110300000D01*
X182155721Y-111610000D02*
X183419973Y-110345748D01*
%TO.N,/SPI_CS1*%
X182155721Y-109060000D02*
X183419973Y-107795748D01*
X178144279Y-109060000D02*
X182155721Y-109060000D01*
X162281296Y-107750000D02*
X176834279Y-107750000D01*
X176834279Y-107750000D02*
X178144279Y-109060000D01*
%TO.N,/KP_COL1*%
X182155721Y-93810000D02*
X183419973Y-92545748D01*
X176834279Y-92500000D02*
X178144279Y-93810000D01*
X178144279Y-93810000D02*
X182155721Y-93810000D01*
X162281296Y-92500000D02*
X176834279Y-92500000D01*
%TO.N,/KP_COL0*%
X162281296Y-89960000D02*
X176834279Y-89960000D01*
X182155721Y-91270000D02*
X183419973Y-90005748D01*
X178144279Y-91270000D02*
X182155721Y-91270000D01*
X176834279Y-89960000D02*
X178144279Y-91270000D01*
%TO.N,/SPI_MOSI*%
X176834279Y-100120000D02*
X178144279Y-101430000D01*
X182155721Y-101430000D02*
X183419973Y-100165748D01*
X162281296Y-100120000D02*
X176834279Y-100120000D01*
X178144279Y-101430000D02*
X182155721Y-101430000D01*
%TO.N,/KP_COL2*%
X182155721Y-96350000D02*
X183419973Y-95085748D01*
X176834279Y-95040000D02*
X178144279Y-96350000D01*
X178144279Y-96350000D02*
X182155721Y-96350000D01*
X162281296Y-95040000D02*
X176834279Y-95040000D01*
%TO.N,/SPI_MISO*%
X176834279Y-102660000D02*
X178144279Y-103970000D01*
X182155721Y-103970000D02*
X183419973Y-102705748D01*
X178144279Y-103970000D02*
X182155721Y-103970000D01*
X162281296Y-102660000D02*
X176834279Y-102660000D01*
%TO.N,/SPI_CS0*%
X176834481Y-105200202D02*
X173084906Y-105200202D01*
X173084906Y-105200202D02*
X173084704Y-105200000D01*
X183419973Y-105245748D02*
X182155721Y-106510000D01*
X173084704Y-105200000D02*
X162281296Y-105200000D01*
X182155721Y-106510000D02*
X178144279Y-106510000D01*
X178144279Y-106510000D02*
X176834481Y-105200202D01*
%TO.N,/NRST*%
X176937139Y-97682861D02*
X176834481Y-97580202D01*
X162281296Y-97580000D02*
X176834278Y-97580000D01*
X182155721Y-98890000D02*
X178144279Y-98890000D01*
X176834278Y-97580000D02*
X176937139Y-97682861D01*
X183419973Y-97625748D02*
X182155721Y-98890000D01*
X178144279Y-98890000D02*
X176937139Y-97682861D01*
%TO.N,/SW1-3{slash}PB1*%
X139627944Y-98889798D02*
X140892196Y-97625546D01*
X134306704Y-97580000D02*
X135616502Y-98889798D01*
X135616502Y-98889798D02*
X139627944Y-98889798D01*
X107533296Y-97580000D02*
X134306704Y-97580000D01*
%TO.N,/LED_EN*%
X139627944Y-101429798D02*
X140892196Y-100165546D01*
X107533296Y-100120000D02*
X134306704Y-100120000D01*
X135616502Y-101429798D02*
X139627944Y-101429798D01*
X134306704Y-100120000D02*
X135616502Y-101429798D01*
%TO.N,/LED7*%
X107533296Y-105200000D02*
X134306704Y-105200000D01*
X139627944Y-106509798D02*
X140892196Y-105245546D01*
X135616502Y-106509798D02*
X139627944Y-106509798D01*
X134306704Y-105200000D02*
X135616502Y-106509798D01*
D18*
%TO.N,+5V*%
X136461796Y-88759956D02*
X135121840Y-87420000D01*
D19*
X136471638Y-88769798D02*
X136461796Y-88759956D01*
D16*
X136461796Y-88759956D02*
X136481954Y-88739798D01*
X139825956Y-88740000D02*
X136501436Y-88740000D01*
X136501436Y-88740000D02*
X136471638Y-88769798D01*
D18*
X135121840Y-87420000D02*
X107533296Y-87420000D01*
D16*
%TO.N,/DIG0_EN*%
X139627944Y-103969798D02*
X140892196Y-102705546D01*
X107533296Y-102660000D02*
X134306704Y-102660000D01*
X135616502Y-103969798D02*
X139627944Y-103969798D01*
X134306704Y-102660000D02*
X135616502Y-103969798D01*
%TO.N,/SW1-4{slash}PB2*%
X107553296Y-110300000D02*
X134306704Y-110300000D01*
X134306704Y-110300000D02*
X135616502Y-111609798D01*
X107533296Y-110280000D02*
X107553296Y-110300000D01*
X139627944Y-111609798D02*
X140892196Y-110345546D01*
X135616502Y-111609798D02*
X139627944Y-111609798D01*
%TO.N,/SW1-2{slash}ADC0.7*%
X135616502Y-96349798D02*
X139627944Y-96349798D01*
X107533296Y-95040000D02*
X134306704Y-95040000D01*
X139627944Y-96349798D02*
X140892196Y-95085546D01*
X134306704Y-95040000D02*
X135616502Y-96349798D01*
%TO.N,/SW1-1*%
X139627944Y-93809798D02*
X140892196Y-92545546D01*
X135616502Y-93809798D02*
X139627944Y-93809798D01*
X134306704Y-92500000D02*
X135616502Y-93809798D01*
X107533296Y-92500000D02*
X134306704Y-92500000D01*
%TO.N,/LED6*%
X107543296Y-107750000D02*
X134306704Y-107750000D01*
X134306704Y-107750000D02*
X135616502Y-109059798D01*
X135616502Y-109059798D02*
X139627944Y-109059798D01*
X107533296Y-107740000D02*
X107543296Y-107750000D01*
X139627944Y-109059798D02*
X140892196Y-107795546D01*
%TO.N,/LED5*%
X158583754Y-109029798D02*
X176853329Y-109029798D01*
X176853329Y-109029798D02*
X178173531Y-110350000D01*
X155031296Y-110300000D02*
X157313552Y-110300000D01*
X178173531Y-110350000D02*
X180874731Y-110350000D01*
X157313552Y-110300000D02*
X158583754Y-109029798D01*
%TO.N,/KP_ROW3*%
X155031296Y-89960000D02*
X157313552Y-89960000D01*
X158583754Y-88689798D02*
X176853329Y-88689798D01*
X157313552Y-89960000D02*
X158583754Y-88689798D01*
X178173531Y-90021000D02*
X180874731Y-90021000D01*
X176853329Y-88689798D02*
X178173531Y-90010000D01*
X179556665Y-90004556D02*
X179556665Y-90005546D01*
%TO.N,/LED0{slash}PWM*%
X157313552Y-92500000D02*
X158583754Y-91229798D01*
X155031296Y-92500000D02*
X157313552Y-92500000D01*
X176853329Y-91229798D02*
X178173531Y-92550000D01*
X158583754Y-91229798D02*
X176853329Y-91229798D01*
X178173531Y-92550000D02*
X180874731Y-92550000D01*
%TO.N,/KP_ROW2*%
X159673552Y-85060000D02*
X175763531Y-85060000D01*
X155031296Y-87420000D02*
X157313552Y-87420000D01*
X175763531Y-85060000D02*
X178173531Y-87470000D01*
X178173531Y-87470000D02*
X180874731Y-87470000D01*
X157313552Y-87420000D02*
X159673552Y-85060000D01*
%TO.N,/LED2{slash}DIR_B*%
X155031296Y-97580000D02*
X157313552Y-97580000D01*
X178173531Y-97630000D02*
X180874731Y-97630000D01*
X158583754Y-96309798D02*
X176853329Y-96309798D01*
X176853329Y-96309798D02*
X178173531Y-97630000D01*
X157313552Y-97580000D02*
X158583754Y-96309798D01*
%TO.N,/LED4*%
X158583754Y-106479798D02*
X176853329Y-106479798D01*
X155031296Y-107750000D02*
X157313552Y-107750000D01*
X157313552Y-107750000D02*
X158583754Y-106479798D01*
X178173531Y-107800000D02*
X180874731Y-107800000D01*
X176853329Y-106479798D02*
X178173531Y-107800000D01*
%TO.N,/LINTX*%
X155031296Y-102660000D02*
X157313552Y-102660000D01*
X176853329Y-101389798D02*
X178173531Y-102710000D01*
X157313552Y-102660000D02*
X158583754Y-101389798D01*
X178173531Y-102710000D02*
X180874731Y-102710000D01*
X158583754Y-101389798D02*
X176853329Y-101389798D01*
%TO.N,/LED1{slash}DIR_A*%
X158583754Y-93769798D02*
X176853329Y-93769798D01*
X155031296Y-95040000D02*
X157313552Y-95040000D01*
X178173531Y-95090000D02*
X180874731Y-95090000D01*
X176853329Y-93769798D02*
X178173531Y-95090000D01*
X157313552Y-95040000D02*
X158583754Y-93769798D01*
%TO.N,/LED3*%
X158583754Y-98849798D02*
X176853329Y-98849798D01*
X155031296Y-100120000D02*
X157313552Y-100120000D01*
X157313552Y-100120000D02*
X158583754Y-98849798D01*
X178173531Y-100170000D02*
X180874731Y-100170000D01*
X176853329Y-98849798D02*
X178173531Y-100170000D01*
%TO.N,/LINRX*%
X157313552Y-105200000D02*
X158583754Y-103929798D01*
X176853329Y-103929798D02*
X178173531Y-105250000D01*
X155031296Y-105200000D02*
X157313552Y-105200000D01*
X158583754Y-103929798D02*
X176853329Y-103929798D01*
X178173531Y-105250000D02*
X180874731Y-105250000D01*
%TD*%
%TA.AperFunction,Conductor*%
%TO.N,/SPI_CLK*%
G36*
X137916019Y-101992356D02*
G01*
X138381122Y-102686960D01*
X138382877Y-102695741D01*
X138382873Y-102695766D01*
X138219772Y-103510814D01*
X138214788Y-103518254D01*
X138206003Y-103519991D01*
X138203906Y-103519362D01*
X136706467Y-102912758D01*
X136700086Y-102906476D01*
X136699160Y-102901914D01*
X136699160Y-102517475D01*
X136702587Y-102509202D01*
X136706204Y-102506742D01*
X137901643Y-101988132D01*
X137910594Y-101987984D01*
X137916019Y-101992356D01*
G37*
%TD.AperFunction*%
%TD*%
%TA.AperFunction,Conductor*%
%TO.N,/LED2{slash}DIR_B*%
G36*
X155211252Y-96762719D02*
G01*
X156708704Y-97377022D01*
X156715057Y-97383333D01*
X156715963Y-97387847D01*
X156715963Y-97772276D01*
X156712536Y-97780549D01*
X156708861Y-97783035D01*
X155513452Y-98293935D01*
X155504498Y-98294035D01*
X155499132Y-98289686D01*
X155033999Y-97595037D01*
X155032245Y-97586258D01*
X155032245Y-97586256D01*
X155195338Y-96771247D01*
X155200322Y-96763808D01*
X155209107Y-96762071D01*
X155211252Y-96762719D01*
G37*
%TD.AperFunction*%
%TD*%
%TA.AperFunction,Conductor*%
%TO.N,+3V3*%
G36*
X137470274Y-85632605D02*
G01*
X138700009Y-86595687D01*
X138704409Y-86603486D01*
X138703732Y-86609054D01*
X138385260Y-87447164D01*
X138379118Y-87453680D01*
X138379096Y-87453690D01*
X137540226Y-87828549D01*
X137531275Y-87828796D01*
X137527131Y-87826091D01*
X137061127Y-87354482D01*
X136409630Y-86695148D01*
X136406253Y-86686856D01*
X136409679Y-86678654D01*
X137454790Y-85633543D01*
X137463062Y-85630117D01*
X137470274Y-85632605D01*
G37*
%TD.AperFunction*%
%TD*%
%TA.AperFunction,Conductor*%
%TO.N,/SPI_MOSI*%
G36*
X162461252Y-99302719D02*
G01*
X163958704Y-99917022D01*
X163965057Y-99923333D01*
X163965963Y-99927847D01*
X163965963Y-100312276D01*
X163962536Y-100320549D01*
X163958861Y-100323035D01*
X162763452Y-100833935D01*
X162754498Y-100834035D01*
X162749132Y-100829686D01*
X162283999Y-100135037D01*
X162282245Y-100126258D01*
X162282245Y-100126256D01*
X162445338Y-99311247D01*
X162450322Y-99303808D01*
X162459107Y-99302071D01*
X162461252Y-99302719D01*
G37*
%TD.AperFunction*%
%TD*%
%TA.AperFunction,Conductor*%
%TO.N,/NRST*%
G36*
X182769902Y-97145554D02*
G01*
X182771806Y-97146582D01*
X183463489Y-97607597D01*
X183468473Y-97615037D01*
X183468477Y-97615062D01*
X183630754Y-98435070D01*
X183628999Y-98443851D01*
X183623545Y-98448235D01*
X182408790Y-98924108D01*
X182399837Y-98923935D01*
X182396249Y-98921487D01*
X182124408Y-98649646D01*
X182120981Y-98641373D01*
X182121917Y-98636788D01*
X182203761Y-98444667D01*
X182754554Y-97151731D01*
X182760948Y-97145464D01*
X182769902Y-97145554D01*
G37*
%TD.AperFunction*%
%TD*%
%TA.AperFunction,Conductor*%
%TO.N,/LINTX*%
G36*
X155211252Y-101842719D02*
G01*
X156708704Y-102457022D01*
X156715057Y-102463333D01*
X156715963Y-102467847D01*
X156715963Y-102852276D01*
X156712536Y-102860549D01*
X156708861Y-102863035D01*
X155513452Y-103373935D01*
X155504498Y-103374035D01*
X155499132Y-103369686D01*
X155033999Y-102675037D01*
X155032245Y-102666258D01*
X155032245Y-102666256D01*
X155195338Y-101851247D01*
X155200322Y-101843808D01*
X155209107Y-101842071D01*
X155211252Y-101842719D01*
G37*
%TD.AperFunction*%
%TD*%
%TA.AperFunction,Conductor*%
%TO.N,/KP_ROW0*%
G36*
X137916019Y-91832356D02*
G01*
X138381122Y-92526960D01*
X138382877Y-92535741D01*
X138382873Y-92535766D01*
X138219772Y-93350814D01*
X138214788Y-93358254D01*
X138206003Y-93359991D01*
X138203906Y-93359362D01*
X136706467Y-92752758D01*
X136700086Y-92746476D01*
X136699160Y-92741914D01*
X136699160Y-92357475D01*
X136702587Y-92349202D01*
X136706204Y-92346742D01*
X137901643Y-91828132D01*
X137910594Y-91827984D01*
X137916019Y-91832356D01*
G37*
%TD.AperFunction*%
%TD*%
%TA.AperFunction,Conductor*%
%TO.N,/DIG1_EN*%
G36*
X100462246Y-89142714D02*
G01*
X101959702Y-89756820D01*
X101966057Y-89763130D01*
X101966963Y-89767645D01*
X101966963Y-90152075D01*
X101963536Y-90160348D01*
X101959863Y-90162833D01*
X100764454Y-90673933D01*
X100755499Y-90674034D01*
X100750132Y-90669685D01*
X100285000Y-89975039D01*
X100283245Y-89966258D01*
X100283245Y-89966256D01*
X100446339Y-89151242D01*
X100451322Y-89143805D01*
X100460107Y-89142068D01*
X100462246Y-89142714D01*
G37*
%TD.AperFunction*%
%TD*%
%TA.AperFunction,Conductor*%
%TO.N,/LED0{slash}PWM*%
G36*
X155211252Y-91682719D02*
G01*
X156708704Y-92297022D01*
X156715057Y-92303333D01*
X156715963Y-92307847D01*
X156715963Y-92692276D01*
X156712536Y-92700549D01*
X156708861Y-92703035D01*
X155513452Y-93213935D01*
X155504498Y-93214035D01*
X155499132Y-93209686D01*
X155033999Y-92515037D01*
X155032245Y-92506258D01*
X155032245Y-92506256D01*
X155195338Y-91691247D01*
X155200322Y-91683808D01*
X155209107Y-91682071D01*
X155211252Y-91682719D01*
G37*
%TD.AperFunction*%
%TD*%
%TA.AperFunction,Conductor*%
%TO.N,/DIG2_EN*%
G36*
X137916019Y-96912356D02*
G01*
X138381122Y-97606960D01*
X138382877Y-97615741D01*
X138382873Y-97615766D01*
X138219772Y-98430814D01*
X138214788Y-98438254D01*
X138206003Y-98439991D01*
X138203906Y-98439362D01*
X136706467Y-97832758D01*
X136700086Y-97826476D01*
X136699160Y-97821914D01*
X136699160Y-97437475D01*
X136702587Y-97429202D01*
X136706204Y-97426742D01*
X137901643Y-96908132D01*
X137910594Y-96907984D01*
X137916019Y-96912356D01*
G37*
%TD.AperFunction*%
%TD*%
%TA.AperFunction,Conductor*%
%TO.N,/KP_COL3*%
G36*
X162763445Y-109588046D02*
G01*
X163958846Y-110096970D01*
X163965116Y-110103364D01*
X163965963Y-110107735D01*
X163965963Y-110492162D01*
X163962536Y-110500435D01*
X163958716Y-110502982D01*
X162461261Y-111119259D01*
X162452306Y-111119238D01*
X162445988Y-111112892D01*
X162445335Y-111110735D01*
X162323716Y-110502982D01*
X162282249Y-110295764D01*
X162283985Y-110286983D01*
X162749141Y-109592300D01*
X162756591Y-109587334D01*
X162763445Y-109588046D01*
G37*
%TD.AperFunction*%
%TD*%
%TA.AperFunction,Conductor*%
%TO.N,/LINRX*%
G36*
X180460020Y-104532358D02*
G01*
X180925122Y-105226960D01*
X180926877Y-105235741D01*
X180926873Y-105235766D01*
X180763771Y-106050815D01*
X180758787Y-106058255D01*
X180750002Y-106059992D01*
X180747906Y-106059364D01*
X179250468Y-105452959D01*
X179244086Y-105446677D01*
X179243160Y-105442114D01*
X179243160Y-105057676D01*
X179246587Y-105049403D01*
X179250198Y-105046945D01*
X180445642Y-104528134D01*
X180454594Y-104527985D01*
X180460020Y-104532358D01*
G37*
%TD.AperFunction*%
%TD*%
%TA.AperFunction,Conductor*%
%TO.N,/LED_EN*%
G36*
X140225910Y-99685576D02*
G01*
X140227883Y-99686633D01*
X140919489Y-100147597D01*
X140924473Y-100155037D01*
X140924477Y-100155062D01*
X141086770Y-100975146D01*
X141085015Y-100983927D01*
X141079646Y-100988277D01*
X139872839Y-101472039D01*
X139863885Y-101471936D01*
X139860213Y-101469452D01*
X139588379Y-101197618D01*
X139584952Y-101189345D01*
X139585858Y-101184831D01*
X140210601Y-99691852D01*
X140216956Y-99685543D01*
X140225910Y-99685576D01*
G37*
%TD.AperFunction*%
%TD*%
%TA.AperFunction,Conductor*%
%TO.N,/LED4*%
G36*
X180460058Y-107072415D02*
G01*
X180925122Y-107766960D01*
X180926877Y-107775741D01*
X180926873Y-107775766D01*
X180763755Y-108590896D01*
X180758771Y-108598336D01*
X180749986Y-108600073D01*
X180747952Y-108599469D01*
X179250530Y-108002936D01*
X179244112Y-107996691D01*
X179243160Y-107992067D01*
X179243160Y-107607618D01*
X179246587Y-107599345D01*
X179250126Y-107596919D01*
X180445606Y-107068224D01*
X180454556Y-107068013D01*
X180460058Y-107072415D01*
G37*
%TD.AperFunction*%
%TD*%
%TA.AperFunction,Conductor*%
%TO.N,/ADC0.5*%
G36*
X137916019Y-99452356D02*
G01*
X138381122Y-100146960D01*
X138382877Y-100155741D01*
X138382873Y-100155766D01*
X138219772Y-100970814D01*
X138214788Y-100978254D01*
X138206003Y-100979991D01*
X138203906Y-100979362D01*
X136706467Y-100372758D01*
X136700086Y-100366476D01*
X136699160Y-100361914D01*
X136699160Y-99977475D01*
X136702587Y-99969202D01*
X136706204Y-99966742D01*
X137901643Y-99448132D01*
X137910594Y-99447984D01*
X137916019Y-99452356D01*
G37*
%TD.AperFunction*%
%TD*%
%TA.AperFunction,Conductor*%
%TO.N,/LED_EN*%
G36*
X107712252Y-99302719D02*
G01*
X109209704Y-99917022D01*
X109216057Y-99923333D01*
X109216963Y-99927847D01*
X109216963Y-100312276D01*
X109213536Y-100320549D01*
X109209861Y-100323035D01*
X108014452Y-100833935D01*
X108005498Y-100834035D01*
X108000132Y-100829686D01*
X107534999Y-100135037D01*
X107533245Y-100126258D01*
X107533245Y-100126256D01*
X107696338Y-99311247D01*
X107701322Y-99303808D01*
X107710107Y-99302071D01*
X107712252Y-99302719D01*
G37*
%TD.AperFunction*%
%TD*%
%TA.AperFunction,Conductor*%
%TO.N,/NRST*%
G36*
X162461252Y-96762719D02*
G01*
X163958704Y-97377022D01*
X163965057Y-97383333D01*
X163965963Y-97387847D01*
X163965963Y-97772276D01*
X163962536Y-97780549D01*
X163958861Y-97783035D01*
X162763452Y-98293935D01*
X162754498Y-98294035D01*
X162749132Y-98289686D01*
X162283999Y-97595037D01*
X162282245Y-97586258D01*
X162282245Y-97586256D01*
X162445338Y-96771247D01*
X162450322Y-96763808D01*
X162459107Y-96762071D01*
X162461252Y-96762719D01*
G37*
%TD.AperFunction*%
%TD*%
%TA.AperFunction,Conductor*%
%TO.N,/SW1-4{slash}PB2*%
G36*
X140861950Y-110298105D02*
G01*
X140915848Y-110308772D01*
X140923299Y-110313739D01*
X140925054Y-110317978D01*
X141086788Y-111135242D01*
X141085033Y-111144023D01*
X141079772Y-111148329D01*
X139882888Y-111641936D01*
X139873933Y-111641922D01*
X139870154Y-111639393D01*
X139598326Y-111367565D01*
X139594899Y-111359292D01*
X139595765Y-111354873D01*
X139685345Y-111135242D01*
X140085518Y-110154101D01*
X140091815Y-110147737D01*
X140098620Y-110147045D01*
X140861950Y-110298105D01*
G37*
%TD.AperFunction*%
%TD*%
%TA.AperFunction,Conductor*%
%TO.N,/KP_ROW3*%
G36*
X180460063Y-89292421D02*
G01*
X180925122Y-89986960D01*
X180926877Y-89995741D01*
X180926873Y-89995766D01*
X180763754Y-90810903D01*
X180758770Y-90818343D01*
X180749985Y-90820080D01*
X180747957Y-90819479D01*
X179250536Y-90223933D01*
X179244115Y-90217691D01*
X179243160Y-90213061D01*
X179243160Y-89828613D01*
X179246587Y-89820340D01*
X179250119Y-89817916D01*
X180445602Y-89288233D01*
X180454554Y-89288016D01*
X180460063Y-89292421D01*
G37*
%TD.AperFunction*%
%TD*%
%TA.AperFunction,Conductor*%
%TO.N,/SW1-3{slash}PB1*%
G36*
X107712252Y-96762719D02*
G01*
X109209704Y-97377022D01*
X109216057Y-97383333D01*
X109216963Y-97387847D01*
X109216963Y-97772276D01*
X109213536Y-97780549D01*
X109209861Y-97783035D01*
X108014452Y-98293935D01*
X108005498Y-98294035D01*
X108000132Y-98289686D01*
X107534999Y-97595037D01*
X107533245Y-97586258D01*
X107533245Y-97586256D01*
X107696338Y-96771247D01*
X107701322Y-96763808D01*
X107710107Y-96762071D01*
X107712252Y-96762719D01*
G37*
%TD.AperFunction*%
%TD*%
%TA.AperFunction,Conductor*%
%TO.N,/SPI_CS0*%
G36*
X162461252Y-104382719D02*
G01*
X163958704Y-104997022D01*
X163965057Y-105003333D01*
X163965963Y-105007847D01*
X163965963Y-105392276D01*
X163962536Y-105400549D01*
X163958861Y-105403035D01*
X162763452Y-105913935D01*
X162754498Y-105914035D01*
X162749132Y-105909686D01*
X162283999Y-105215037D01*
X162282245Y-105206258D01*
X162282245Y-105206256D01*
X162445338Y-104391247D01*
X162450322Y-104383808D01*
X162459107Y-104382071D01*
X162461252Y-104382719D01*
G37*
%TD.AperFunction*%
%TD*%
%TA.AperFunction,Conductor*%
%TO.N,/KP_COL0*%
G36*
X182769902Y-89525554D02*
G01*
X182771806Y-89526582D01*
X183463489Y-89987597D01*
X183468473Y-89995037D01*
X183468477Y-89995062D01*
X183630754Y-90815070D01*
X183628999Y-90823851D01*
X183623545Y-90828235D01*
X182408790Y-91304108D01*
X182399837Y-91303935D01*
X182396249Y-91301487D01*
X182124408Y-91029646D01*
X182120981Y-91021373D01*
X182121917Y-91016788D01*
X182203761Y-90824667D01*
X182754554Y-89531731D01*
X182760948Y-89525464D01*
X182769902Y-89525554D01*
G37*
%TD.AperFunction*%
%TD*%
%TA.AperFunction,Conductor*%
%TO.N,/LED3*%
G36*
X155211252Y-99302719D02*
G01*
X156708704Y-99917022D01*
X156715057Y-99923333D01*
X156715963Y-99927847D01*
X156715963Y-100312276D01*
X156712536Y-100320549D01*
X156708861Y-100323035D01*
X155513452Y-100833935D01*
X155504498Y-100834035D01*
X155499132Y-100829686D01*
X155033999Y-100135037D01*
X155032245Y-100126258D01*
X155032245Y-100126256D01*
X155195338Y-99311247D01*
X155200322Y-99303808D01*
X155209107Y-99302071D01*
X155211252Y-99302719D01*
G37*
%TD.AperFunction*%
%TD*%
%TA.AperFunction,Conductor*%
%TO.N,/LED7*%
G36*
X140225910Y-104765576D02*
G01*
X140227883Y-104766633D01*
X140919489Y-105227597D01*
X140924473Y-105235037D01*
X140924477Y-105235062D01*
X141086770Y-106055146D01*
X141085015Y-106063927D01*
X141079646Y-106068277D01*
X139872839Y-106552039D01*
X139863885Y-106551936D01*
X139860213Y-106549452D01*
X139588379Y-106277618D01*
X139584952Y-106269345D01*
X139585858Y-106264831D01*
X140210601Y-104771852D01*
X140216956Y-104765543D01*
X140225910Y-104765576D01*
G37*
%TD.AperFunction*%
%TD*%
%TA.AperFunction,Conductor*%
%TO.N,/LED1{slash}DIR_A*%
G36*
X155211252Y-94222719D02*
G01*
X156708704Y-94837022D01*
X156715057Y-94843333D01*
X156715963Y-94847847D01*
X156715963Y-95232276D01*
X156712536Y-95240549D01*
X156708861Y-95243035D01*
X155513452Y-95753935D01*
X155504498Y-95754035D01*
X155499132Y-95749686D01*
X155033999Y-95055037D01*
X155032245Y-95046258D01*
X155032245Y-95046256D01*
X155195338Y-94231247D01*
X155200322Y-94223808D01*
X155209107Y-94222071D01*
X155211252Y-94222719D01*
G37*
%TD.AperFunction*%
%TD*%
%TA.AperFunction,Conductor*%
%TO.N,/LED2{slash}DIR_B*%
G36*
X180460020Y-96912358D02*
G01*
X180925122Y-97606960D01*
X180926877Y-97615741D01*
X180926873Y-97615766D01*
X180763771Y-98430815D01*
X180758787Y-98438255D01*
X180750002Y-98439992D01*
X180747906Y-98439364D01*
X179250468Y-97832959D01*
X179244086Y-97826677D01*
X179243160Y-97822114D01*
X179243160Y-97437676D01*
X179246587Y-97429403D01*
X179250198Y-97426945D01*
X180445642Y-96908134D01*
X180454594Y-96907985D01*
X180460020Y-96912358D01*
G37*
%TD.AperFunction*%
%TD*%
%TA.AperFunction,Conductor*%
%TO.N,/DIG3_EN*%
G36*
X100462246Y-104382714D02*
G01*
X101959702Y-104996820D01*
X101966057Y-105003130D01*
X101966963Y-105007645D01*
X101966963Y-105392075D01*
X101963536Y-105400348D01*
X101959863Y-105402833D01*
X100764454Y-105913933D01*
X100755499Y-105914034D01*
X100750132Y-105909685D01*
X100285000Y-105215039D01*
X100283245Y-105206258D01*
X100283245Y-105206256D01*
X100446339Y-104391242D01*
X100451322Y-104383805D01*
X100460107Y-104382068D01*
X100462246Y-104382714D01*
G37*
%TD.AperFunction*%
%TD*%
%TA.AperFunction,Conductor*%
%TO.N,/KP_ROW1*%
G36*
X137916019Y-94372356D02*
G01*
X138381122Y-95066960D01*
X138382877Y-95075741D01*
X138382873Y-95075766D01*
X138219772Y-95890814D01*
X138214788Y-95898254D01*
X138206003Y-95899991D01*
X138203906Y-95899362D01*
X136706467Y-95292758D01*
X136700086Y-95286476D01*
X136699160Y-95281914D01*
X136699160Y-94897475D01*
X136702587Y-94889202D01*
X136706204Y-94886742D01*
X137901643Y-94368132D01*
X137910594Y-94367984D01*
X137916019Y-94372356D01*
G37*
%TD.AperFunction*%
%TD*%
%TA.AperFunction,Conductor*%
%TO.N,/KP_COL1*%
G36*
X162461252Y-91682719D02*
G01*
X163958704Y-92297022D01*
X163965057Y-92303333D01*
X163965963Y-92307847D01*
X163965963Y-92692276D01*
X163962536Y-92700549D01*
X163958861Y-92703035D01*
X162763452Y-93213935D01*
X162754498Y-93214035D01*
X162749132Y-93209686D01*
X162283999Y-92515037D01*
X162282245Y-92506258D01*
X162282245Y-92506256D01*
X162445338Y-91691247D01*
X162450322Y-91683808D01*
X162459107Y-91682071D01*
X162461252Y-91682719D01*
G37*
%TD.AperFunction*%
%TD*%
%TA.AperFunction,Conductor*%
%TO.N,/KP_COL0*%
G36*
X162461252Y-89142719D02*
G01*
X163958704Y-89757022D01*
X163965057Y-89763333D01*
X163965963Y-89767847D01*
X163965963Y-90152276D01*
X163962536Y-90160549D01*
X163958861Y-90163035D01*
X162763452Y-90673935D01*
X162754498Y-90674035D01*
X162749132Y-90669686D01*
X162283999Y-89975037D01*
X162282245Y-89966258D01*
X162282245Y-89966256D01*
X162445338Y-89151247D01*
X162450322Y-89143808D01*
X162459107Y-89142071D01*
X162461252Y-89142719D01*
G37*
%TD.AperFunction*%
%TD*%
%TA.AperFunction,Conductor*%
%TO.N,/DIG2_EN*%
G36*
X100462246Y-96762714D02*
G01*
X101959702Y-97376820D01*
X101966057Y-97383130D01*
X101966963Y-97387645D01*
X101966963Y-97772075D01*
X101963536Y-97780348D01*
X101959863Y-97782833D01*
X100764454Y-98293933D01*
X100755499Y-98294034D01*
X100750132Y-98289685D01*
X100285000Y-97595039D01*
X100283245Y-97586258D01*
X100283245Y-97586256D01*
X100446339Y-96771242D01*
X100451322Y-96763805D01*
X100460107Y-96762068D01*
X100462246Y-96762714D01*
G37*
%TD.AperFunction*%
%TD*%
%TA.AperFunction,Conductor*%
%TO.N,/LED5*%
G36*
X180460096Y-109612471D02*
G01*
X180825085Y-110157561D01*
X180925122Y-110306960D01*
X180926877Y-110315741D01*
X180926873Y-110315766D01*
X180763739Y-111130975D01*
X180758755Y-111138415D01*
X180749970Y-111140152D01*
X180747998Y-111139573D01*
X179250592Y-110552911D01*
X179244139Y-110546702D01*
X179243160Y-110542017D01*
X179243160Y-110157561D01*
X179246587Y-110149288D01*
X179250052Y-110146894D01*
X180445571Y-109608314D01*
X180454520Y-109608041D01*
X180460096Y-109612471D01*
G37*
%TD.AperFunction*%
%TD*%
%TA.AperFunction,Conductor*%
%TO.N,/ADC0.5*%
G36*
X100462246Y-99302714D02*
G01*
X101959702Y-99916820D01*
X101966057Y-99923130D01*
X101966963Y-99927645D01*
X101966963Y-100312075D01*
X101963536Y-100320348D01*
X101959863Y-100322833D01*
X100764454Y-100833933D01*
X100755499Y-100834034D01*
X100750132Y-100829685D01*
X100285000Y-100135039D01*
X100283245Y-100126258D01*
X100283245Y-100126256D01*
X100446339Y-99311242D01*
X100451322Y-99303805D01*
X100460107Y-99302068D01*
X100462246Y-99302714D01*
G37*
%TD.AperFunction*%
%TD*%
%TA.AperFunction,Conductor*%
%TO.N,/KP_COL2*%
G36*
X162461252Y-94222719D02*
G01*
X163958704Y-94837022D01*
X163965057Y-94843333D01*
X163965963Y-94847847D01*
X163965963Y-95232276D01*
X163962536Y-95240549D01*
X163958861Y-95243035D01*
X162763452Y-95753935D01*
X162754498Y-95754035D01*
X162749132Y-95749686D01*
X162283999Y-95055037D01*
X162282245Y-95046258D01*
X162282245Y-95046256D01*
X162445338Y-94231247D01*
X162450322Y-94223808D01*
X162459107Y-94222071D01*
X162461252Y-94222719D01*
G37*
%TD.AperFunction*%
%TD*%
%TA.AperFunction,Conductor*%
%TO.N,/I2C_SCL*%
G36*
X137916057Y-107072413D02*
G01*
X138274293Y-107607418D01*
X138381122Y-107766960D01*
X138382877Y-107775741D01*
X138382873Y-107775766D01*
X138219756Y-108590894D01*
X138214772Y-108598334D01*
X138205987Y-108600071D01*
X138203952Y-108599467D01*
X136706529Y-108002734D01*
X136700112Y-107996488D01*
X136699160Y-107991865D01*
X136699160Y-107607418D01*
X136702587Y-107599145D01*
X136706129Y-107596717D01*
X137901607Y-107068222D01*
X137910558Y-107068012D01*
X137916057Y-107072413D01*
G37*
%TD.AperFunction*%
%TD*%
%TA.AperFunction,Conductor*%
%TO.N,+5V*%
G36*
X139740866Y-88167260D02*
G01*
X139756951Y-88168427D01*
X139768594Y-88178248D01*
X139782755Y-88183860D01*
X139799720Y-88201931D01*
X139893104Y-88330464D01*
X140043362Y-88480722D01*
X140215275Y-88605624D01*
X140379907Y-88689508D01*
X140423172Y-88732773D01*
X140432743Y-88793205D01*
X140416753Y-88833496D01*
X140066971Y-89346390D01*
X140053647Y-89356691D01*
X140043826Y-89370371D01*
X140030050Y-89374933D01*
X140018566Y-89383812D01*
X139985744Y-89389608D01*
X139890247Y-89390150D01*
X139831950Y-89371574D01*
X139816133Y-89357418D01*
X139813048Y-89353994D01*
X139813048Y-89353993D01*
X139751831Y-89286046D01*
X139751830Y-89286045D01*
X139751828Y-89286043D01*
X139708607Y-89255638D01*
X139708607Y-89255637D01*
X139687171Y-89240559D01*
X139687169Y-89240558D01*
X139684900Y-89238962D01*
X139682222Y-89238579D01*
X139678791Y-89236810D01*
X139585576Y-89186453D01*
X139575322Y-89179848D01*
X139575240Y-89179967D01*
X139554263Y-89165396D01*
X139545016Y-89158973D01*
X139540406Y-89156318D01*
X139516156Y-89142350D01*
X139509942Y-89138913D01*
X139509934Y-89138910D01*
X139421653Y-89115078D01*
X139421645Y-89115076D01*
X139380884Y-89113474D01*
X139360505Y-89112674D01*
X139360504Y-89112674D01*
X139323709Y-89114534D01*
X139238270Y-89147148D01*
X139238268Y-89147149D01*
X139187388Y-89181146D01*
X139187382Y-89181150D01*
X139185343Y-89182795D01*
X139128177Y-89204606D01*
X139069109Y-89188650D01*
X139053198Y-89175739D01*
X139052482Y-89175023D01*
X139052478Y-89175020D01*
X138880424Y-89060058D01*
X138689245Y-88980869D01*
X138486294Y-88940500D01*
X138486292Y-88940500D01*
X138279362Y-88940500D01*
X138279359Y-88940500D01*
X138076408Y-88980869D01*
X137885231Y-89060057D01*
X137843281Y-89088086D01*
X137824166Y-89097322D01*
X137824318Y-89097673D01*
X137819858Y-89099607D01*
X137819857Y-89099608D01*
X137683016Y-89158973D01*
X137132348Y-89397865D01*
X137093509Y-89406041D01*
X136458129Y-89409651D01*
X136399832Y-89391075D01*
X136369195Y-89355278D01*
X135963438Y-88551721D01*
X135954088Y-88491255D01*
X135982064Y-88436840D01*
X136036681Y-88409261D01*
X136056590Y-88408214D01*
X136506827Y-88430000D01*
X136506834Y-88430000D01*
X137000248Y-88430000D01*
X137058437Y-88448906D01*
X137058439Y-88448907D01*
X137058439Y-88448908D01*
X137081736Y-88465834D01*
X137081944Y-88465985D01*
X137113571Y-88484881D01*
X137202734Y-88505232D01*
X137202735Y-88505232D01*
X137263918Y-88505232D01*
X137263920Y-88505232D01*
X137263922Y-88505231D01*
X137263937Y-88505231D01*
X137288236Y-88503043D01*
X137300614Y-88501929D01*
X137356218Y-88478162D01*
X137417155Y-88472678D01*
X137450126Y-88486880D01*
X137454596Y-88489867D01*
X137499058Y-88498711D01*
X137513068Y-88501498D01*
X137513073Y-88501498D01*
X137513079Y-88501500D01*
X137513080Y-88501500D01*
X139252574Y-88501500D01*
X139252575Y-88501500D01*
X139311058Y-88489867D01*
X139377379Y-88445552D01*
X139421694Y-88379231D01*
X139433327Y-88320748D01*
X139433327Y-88306305D01*
X139452234Y-88248114D01*
X139501734Y-88212150D01*
X139508626Y-88210184D01*
X139523402Y-88206540D01*
X139543891Y-88207840D01*
X139580722Y-88206866D01*
X139666925Y-88176316D01*
X139680257Y-88167864D01*
X139695926Y-88164001D01*
X139711117Y-88165102D01*
X139725873Y-88161319D01*
X139740866Y-88167260D01*
G37*
%TD.AperFunction*%
%TD*%
%TA.AperFunction,Conductor*%
%TO.N,/LED6*%
G36*
X108014405Y-107047955D02*
G01*
X109209770Y-107546997D01*
X109216085Y-107553347D01*
X109216963Y-107557794D01*
X109216963Y-107942217D01*
X109213536Y-107950490D01*
X109209786Y-107953008D01*
X108014415Y-108454025D01*
X108005460Y-108454062D01*
X108000171Y-108449745D01*
X107536654Y-107757509D01*
X107534900Y-107748729D01*
X107536655Y-107744490D01*
X108000180Y-107052241D01*
X108007629Y-107047276D01*
X108014405Y-107047955D01*
G37*
%TD.AperFunction*%
%TD*%
%TA.AperFunction,Conductor*%
%TO.N,/SPI_CLK*%
G36*
X100462246Y-101842714D02*
G01*
X101959702Y-102456820D01*
X101966057Y-102463130D01*
X101966963Y-102467645D01*
X101966963Y-102852075D01*
X101963536Y-102860348D01*
X101959863Y-102862833D01*
X100764454Y-103373933D01*
X100755499Y-103374034D01*
X100750132Y-103369685D01*
X100285000Y-102675039D01*
X100283245Y-102666258D01*
X100283245Y-102666256D01*
X100446339Y-101851242D01*
X100451322Y-101843805D01*
X100460107Y-101842068D01*
X100462246Y-101842714D01*
G37*
%TD.AperFunction*%
%TD*%
%TA.AperFunction,Conductor*%
%TO.N,/SW1-4{slash}PB2*%
G36*
X108014445Y-109588046D02*
G01*
X109209846Y-110096970D01*
X109216116Y-110103364D01*
X109216963Y-110107735D01*
X109216963Y-110492162D01*
X109213536Y-110500435D01*
X109209716Y-110502982D01*
X107712261Y-111119259D01*
X107703306Y-111119238D01*
X107696988Y-111112892D01*
X107696335Y-111110735D01*
X107574716Y-110502982D01*
X107533249Y-110295764D01*
X107534985Y-110286983D01*
X108000141Y-109592300D01*
X108007591Y-109587334D01*
X108014445Y-109588046D01*
G37*
%TD.AperFunction*%
%TD*%
%TA.AperFunction,Conductor*%
%TO.N,/SPI_MOSI*%
G36*
X182769902Y-99685554D02*
G01*
X182771806Y-99686582D01*
X183463489Y-100147597D01*
X183468473Y-100155037D01*
X183468477Y-100155062D01*
X183630754Y-100975070D01*
X183628999Y-100983851D01*
X183623545Y-100988235D01*
X182408790Y-101464108D01*
X182399837Y-101463935D01*
X182396249Y-101461487D01*
X182124408Y-101189646D01*
X182120981Y-101181373D01*
X182121917Y-101176788D01*
X182203761Y-100984667D01*
X182754554Y-99691731D01*
X182760948Y-99685464D01*
X182769902Y-99685554D01*
G37*
%TD.AperFunction*%
%TD*%
%TA.AperFunction,Conductor*%
%TO.N,/DIG3_EN*%
G36*
X137916019Y-104532356D02*
G01*
X138381122Y-105226960D01*
X138382877Y-105235741D01*
X138382873Y-105235766D01*
X138219772Y-106050814D01*
X138214788Y-106058254D01*
X138206003Y-106059991D01*
X138203906Y-106059362D01*
X136706467Y-105452758D01*
X136700086Y-105446476D01*
X136699160Y-105441914D01*
X136699160Y-105057475D01*
X136702587Y-105049202D01*
X136706204Y-105046742D01*
X137901643Y-104528132D01*
X137910594Y-104527984D01*
X137916019Y-104532356D01*
G37*
%TD.AperFunction*%
%TD*%
%TA.AperFunction,Conductor*%
%TO.N,/SPI_CS1*%
G36*
X182769907Y-107305567D02*
G01*
X182771847Y-107306609D01*
X183431149Y-107746042D01*
X183463489Y-107767597D01*
X183468473Y-107775037D01*
X183468477Y-107775062D01*
X183630764Y-108595117D01*
X183629009Y-108603898D01*
X183623608Y-108608261D01*
X182413814Y-109089058D01*
X182404860Y-109088929D01*
X182401220Y-109086458D01*
X182129383Y-108814621D01*
X182125956Y-108806348D01*
X182126872Y-108801811D01*
X182754584Y-107311805D01*
X182760953Y-107305513D01*
X182769907Y-107305567D01*
G37*
%TD.AperFunction*%
%TD*%
%TA.AperFunction,Conductor*%
%TO.N,/LED3*%
G36*
X180460020Y-99452358D02*
G01*
X180925122Y-100146960D01*
X180926877Y-100155741D01*
X180926873Y-100155766D01*
X180763771Y-100970815D01*
X180758787Y-100978255D01*
X180750002Y-100979992D01*
X180747906Y-100979364D01*
X179250468Y-100372959D01*
X179244086Y-100366677D01*
X179243160Y-100362114D01*
X179243160Y-99977676D01*
X179246587Y-99969403D01*
X179250198Y-99966945D01*
X180445642Y-99448134D01*
X180454594Y-99447985D01*
X180460020Y-99452358D01*
G37*
%TD.AperFunction*%
%TD*%
%TA.AperFunction,Conductor*%
%TO.N,/KP_ROW1*%
G36*
X100462246Y-94222714D02*
G01*
X101959702Y-94836820D01*
X101966057Y-94843130D01*
X101966963Y-94847645D01*
X101966963Y-95232075D01*
X101963536Y-95240348D01*
X101959863Y-95242833D01*
X100764454Y-95753933D01*
X100755499Y-95754034D01*
X100750132Y-95749685D01*
X100285000Y-95055039D01*
X100283245Y-95046258D01*
X100283245Y-95046256D01*
X100446339Y-94231242D01*
X100451322Y-94223805D01*
X100460107Y-94222068D01*
X100462246Y-94222714D01*
G37*
%TD.AperFunction*%
%TD*%
%TA.AperFunction,Conductor*%
%TO.N,/DIG0_EN*%
G36*
X107712252Y-101842719D02*
G01*
X109209704Y-102457022D01*
X109216057Y-102463333D01*
X109216963Y-102467847D01*
X109216963Y-102852276D01*
X109213536Y-102860549D01*
X109209861Y-102863035D01*
X108014452Y-103373935D01*
X108005498Y-103374035D01*
X108000132Y-103369686D01*
X107534999Y-102675037D01*
X107533245Y-102666258D01*
X107533245Y-102666256D01*
X107696338Y-101851247D01*
X107701322Y-101843808D01*
X107710107Y-101842071D01*
X107712252Y-101842719D01*
G37*
%TD.AperFunction*%
%TD*%
%TA.AperFunction,Conductor*%
%TO.N,/KP_COL1*%
G36*
X182769902Y-92065554D02*
G01*
X182771806Y-92066582D01*
X183463489Y-92527597D01*
X183468473Y-92535037D01*
X183468477Y-92535062D01*
X183630754Y-93355070D01*
X183628999Y-93363851D01*
X183623545Y-93368235D01*
X182408790Y-93844108D01*
X182399837Y-93843935D01*
X182396249Y-93841487D01*
X182124408Y-93569646D01*
X182120981Y-93561373D01*
X182121917Y-93556788D01*
X182203761Y-93364667D01*
X182754554Y-92071731D01*
X182760948Y-92065464D01*
X182769902Y-92065554D01*
G37*
%TD.AperFunction*%
%TD*%
%TA.AperFunction,Conductor*%
%TO.N,/DIG1_EN*%
G36*
X137916019Y-89292356D02*
G01*
X138381122Y-89986960D01*
X138382877Y-89995741D01*
X138382873Y-89995766D01*
X138219772Y-90810814D01*
X138214788Y-90818254D01*
X138206003Y-90819991D01*
X138203906Y-90819362D01*
X136706467Y-90212758D01*
X136700086Y-90206476D01*
X136699160Y-90201914D01*
X136699160Y-89817475D01*
X136702587Y-89809202D01*
X136706204Y-89806742D01*
X137901643Y-89288132D01*
X137910594Y-89287984D01*
X137916019Y-89292356D01*
G37*
%TD.AperFunction*%
%TD*%
%TA.AperFunction,Conductor*%
%TO.N,/DIG0_EN*%
G36*
X140225910Y-102225576D02*
G01*
X140227883Y-102226633D01*
X140919489Y-102687597D01*
X140924473Y-102695037D01*
X140924477Y-102695062D01*
X141086770Y-103515146D01*
X141085015Y-103523927D01*
X141079646Y-103528277D01*
X139872839Y-104012039D01*
X139863885Y-104011936D01*
X139860213Y-104009452D01*
X139588379Y-103737618D01*
X139584952Y-103729345D01*
X139585858Y-103724831D01*
X140210601Y-102231852D01*
X140216956Y-102225543D01*
X140225910Y-102225576D01*
G37*
%TD.AperFunction*%
%TD*%
%TA.AperFunction,Conductor*%
%TO.N,/I2C_SDA*%
G36*
X100764443Y-109588043D02*
G01*
X101959846Y-110096769D01*
X101966115Y-110103161D01*
X101966963Y-110107534D01*
X101966963Y-110491962D01*
X101963536Y-110500235D01*
X101959717Y-110502781D01*
X100462262Y-111119257D01*
X100453307Y-111119238D01*
X100446989Y-111112892D01*
X100446335Y-111110734D01*
X100416538Y-110961837D01*
X100283249Y-110295764D01*
X100284985Y-110286983D01*
X100750141Y-109592299D01*
X100757592Y-109587333D01*
X100764443Y-109588043D01*
G37*
%TD.AperFunction*%
%TD*%
%TA.AperFunction,Conductor*%
%TO.N,/SW1-1*%
G36*
X140225910Y-92065576D02*
G01*
X140227883Y-92066633D01*
X140919489Y-92527597D01*
X140924473Y-92535037D01*
X140924477Y-92535062D01*
X141086770Y-93355146D01*
X141085015Y-93363927D01*
X141079646Y-93368277D01*
X139872839Y-93852039D01*
X139863885Y-93851936D01*
X139860213Y-93849452D01*
X139588379Y-93577618D01*
X139584952Y-93569345D01*
X139585858Y-93564831D01*
X140210601Y-92071852D01*
X140216956Y-92065543D01*
X140225910Y-92065576D01*
G37*
%TD.AperFunction*%
%TD*%
%TA.AperFunction,Conductor*%
%TO.N,/I2C_SDA*%
G36*
X137916096Y-109612471D02*
G01*
X138381122Y-110306960D01*
X138382877Y-110315741D01*
X138382873Y-110315766D01*
X138219740Y-111130974D01*
X138214756Y-111138414D01*
X138205971Y-111140151D01*
X138203998Y-111139571D01*
X136706591Y-110552710D01*
X136700138Y-110546501D01*
X136699160Y-110541817D01*
X136699160Y-110157360D01*
X136702587Y-110149087D01*
X136706053Y-110146693D01*
X137901572Y-109608312D01*
X137910520Y-109608040D01*
X137916096Y-109612471D01*
G37*
%TD.AperFunction*%
%TD*%
%TA.AperFunction,Conductor*%
%TO.N,/KP_COL2*%
G36*
X182769902Y-94605554D02*
G01*
X182771806Y-94606582D01*
X183463489Y-95067597D01*
X183468473Y-95075037D01*
X183468477Y-95075062D01*
X183630754Y-95895070D01*
X183628999Y-95903851D01*
X183623545Y-95908235D01*
X182408790Y-96384108D01*
X182399837Y-96383935D01*
X182396249Y-96381487D01*
X182124408Y-96109646D01*
X182120981Y-96101373D01*
X182121917Y-96096788D01*
X182203761Y-95904667D01*
X182754554Y-94611731D01*
X182760948Y-94605464D01*
X182769902Y-94605554D01*
G37*
%TD.AperFunction*%
%TD*%
%TA.AperFunction,Conductor*%
%TO.N,/LED6*%
G36*
X140881427Y-107761960D02*
G01*
X140915848Y-107768772D01*
X140923299Y-107773739D01*
X140925054Y-107777978D01*
X141086779Y-108595194D01*
X141085024Y-108603975D01*
X141079709Y-108608303D01*
X139877864Y-109096988D01*
X139868909Y-109096930D01*
X139865184Y-109094423D01*
X139593354Y-108822593D01*
X139589927Y-108814320D01*
X139590814Y-108809853D01*
X140085492Y-107614038D01*
X140091820Y-107607705D01*
X140098570Y-107607035D01*
X140881427Y-107761960D01*
G37*
%TD.AperFunction*%
%TD*%
%TA.AperFunction,Conductor*%
%TO.N,/LED4*%
G36*
X155513405Y-107047955D02*
G01*
X156708770Y-107546997D01*
X156715085Y-107553347D01*
X156715963Y-107557794D01*
X156715963Y-107942217D01*
X156712536Y-107950490D01*
X156708786Y-107953008D01*
X155513415Y-108454025D01*
X155504460Y-108454062D01*
X155499171Y-108449745D01*
X155035654Y-107757509D01*
X155033900Y-107748729D01*
X155035655Y-107744490D01*
X155499180Y-107052241D01*
X155506629Y-107047276D01*
X155513405Y-107047955D01*
G37*
%TD.AperFunction*%
%TD*%
%TA.AperFunction,Conductor*%
%TO.N,/LED7*%
G36*
X107712252Y-104382719D02*
G01*
X109209704Y-104997022D01*
X109216057Y-105003333D01*
X109216963Y-105007847D01*
X109216963Y-105392276D01*
X109213536Y-105400549D01*
X109209861Y-105403035D01*
X108014452Y-105913935D01*
X108005498Y-105914035D01*
X108000132Y-105909686D01*
X107534999Y-105215037D01*
X107533245Y-105206258D01*
X107533245Y-105206256D01*
X107696338Y-104391247D01*
X107701322Y-104383808D01*
X107710107Y-104382071D01*
X107712252Y-104382719D01*
G37*
%TD.AperFunction*%
%TD*%
%TA.AperFunction,Conductor*%
%TO.N,/LED5*%
G36*
X155513445Y-109588046D02*
G01*
X156708846Y-110096970D01*
X156715116Y-110103364D01*
X156715963Y-110107735D01*
X156715963Y-110492162D01*
X156712536Y-110500435D01*
X156708716Y-110502982D01*
X155211261Y-111119259D01*
X155202306Y-111119238D01*
X155195988Y-111112892D01*
X155195335Y-111110735D01*
X155073716Y-110502982D01*
X155032249Y-110295764D01*
X155033985Y-110286983D01*
X155499141Y-109592300D01*
X155506591Y-109587334D01*
X155513445Y-109588046D01*
G37*
%TD.AperFunction*%
%TD*%
%TA.AperFunction,Conductor*%
%TO.N,/LED0{slash}PWM*%
G36*
X180460020Y-91832358D02*
G01*
X180925122Y-92526960D01*
X180926877Y-92535741D01*
X180926873Y-92535766D01*
X180763771Y-93350815D01*
X180758787Y-93358255D01*
X180750002Y-93359992D01*
X180747906Y-93359364D01*
X179250468Y-92752959D01*
X179244086Y-92746677D01*
X179243160Y-92742114D01*
X179243160Y-92357676D01*
X179246587Y-92349403D01*
X179250198Y-92346945D01*
X180445642Y-91828134D01*
X180454594Y-91827985D01*
X180460020Y-91832358D01*
G37*
%TD.AperFunction*%
%TD*%
%TA.AperFunction,Conductor*%
%TO.N,/KP_ROW2*%
G36*
X155890409Y-86587099D02*
G01*
X156727627Y-87216490D01*
X156732180Y-87224200D01*
X156732296Y-87225842D01*
X156732296Y-87614247D01*
X156728869Y-87622520D01*
X156727741Y-87623512D01*
X155890409Y-88269256D01*
X155881765Y-88271595D01*
X155875023Y-88268296D01*
X155515529Y-87911542D01*
X155039636Y-87439277D01*
X155036178Y-87431018D01*
X155039572Y-87422733D01*
X155875114Y-86588172D01*
X155883387Y-86584752D01*
X155890409Y-86587099D01*
G37*
%TD.AperFunction*%
%TD*%
%TA.AperFunction,Conductor*%
%TO.N,/KP_ROW3*%
G36*
X155211252Y-89142719D02*
G01*
X156708704Y-89757022D01*
X156715057Y-89763333D01*
X156715963Y-89767847D01*
X156715963Y-90152276D01*
X156712536Y-90160549D01*
X156708861Y-90163035D01*
X155513452Y-90673935D01*
X155504498Y-90674035D01*
X155499132Y-90669686D01*
X155033999Y-89975037D01*
X155032245Y-89966258D01*
X155032245Y-89966256D01*
X155195338Y-89151247D01*
X155200322Y-89143808D01*
X155209107Y-89142071D01*
X155211252Y-89142719D01*
G37*
%TD.AperFunction*%
%TD*%
%TA.AperFunction,Conductor*%
%TO.N,+3V3*%
G36*
X101200834Y-85457458D02*
G01*
X102245897Y-86502521D01*
X102249324Y-86510794D01*
X102246401Y-86518531D01*
X101138808Y-87774931D01*
X101130766Y-87778871D01*
X101125585Y-87778016D01*
X100287084Y-87433553D01*
X100280734Y-87427240D01*
X100280725Y-87427218D01*
X99932497Y-86588666D01*
X99932489Y-86579711D01*
X99935495Y-86575466D01*
X101184759Y-85457013D01*
X101193206Y-85454049D01*
X101200834Y-85457458D01*
G37*
%TD.AperFunction*%
%TD*%
%TA.AperFunction,Conductor*%
%TO.N,/LINTX*%
G36*
X180460020Y-101992358D02*
G01*
X180925122Y-102686960D01*
X180926877Y-102695741D01*
X180926873Y-102695766D01*
X180763771Y-103510815D01*
X180758787Y-103518255D01*
X180750002Y-103519992D01*
X180747906Y-103519364D01*
X179250468Y-102912959D01*
X179244086Y-102906677D01*
X179243160Y-102902114D01*
X179243160Y-102517676D01*
X179246587Y-102509403D01*
X179250198Y-102506945D01*
X180445642Y-101988134D01*
X180454594Y-101987985D01*
X180460020Y-101992358D01*
G37*
%TD.AperFunction*%
%TD*%
%TA.AperFunction,Conductor*%
%TO.N,/SPI_CS0*%
G36*
X182769902Y-104765554D02*
G01*
X182771806Y-104766582D01*
X183463489Y-105227597D01*
X183468473Y-105235037D01*
X183468477Y-105235062D01*
X183630754Y-106055070D01*
X183628999Y-106063851D01*
X183623545Y-106068235D01*
X182408790Y-106544108D01*
X182399837Y-106543935D01*
X182396249Y-106541487D01*
X182124408Y-106269646D01*
X182120981Y-106261373D01*
X182121917Y-106256788D01*
X182203761Y-106064667D01*
X182754554Y-104771731D01*
X182760948Y-104765464D01*
X182769902Y-104765554D01*
G37*
%TD.AperFunction*%
%TD*%
%TA.AperFunction,Conductor*%
%TO.N,+5V*%
G36*
X108389559Y-86582392D02*
G01*
X109224136Y-86767963D01*
X109231468Y-86773104D01*
X109233296Y-86779384D01*
X109233296Y-88060791D01*
X109229869Y-88069064D01*
X109224346Y-88072163D01*
X108389648Y-88273978D01*
X108380801Y-88272592D01*
X108378660Y-88270913D01*
X107540636Y-87439277D01*
X107537178Y-87431018D01*
X107540572Y-87422733D01*
X108378755Y-86585535D01*
X108387029Y-86582114D01*
X108389559Y-86582392D01*
G37*
%TD.AperFunction*%
%TD*%
%TA.AperFunction,Conductor*%
%TO.N,/SPI_MISO*%
G36*
X162461252Y-101842719D02*
G01*
X163958704Y-102457022D01*
X163965057Y-102463333D01*
X163965963Y-102467847D01*
X163965963Y-102852276D01*
X163962536Y-102860549D01*
X163958861Y-102863035D01*
X162763452Y-103373935D01*
X162754498Y-103374035D01*
X162749132Y-103369686D01*
X162283999Y-102675037D01*
X162282245Y-102666258D01*
X162282245Y-102666256D01*
X162445338Y-101851247D01*
X162450322Y-101843808D01*
X162459107Y-101842071D01*
X162461252Y-101842719D01*
G37*
%TD.AperFunction*%
%TD*%
%TA.AperFunction,Conductor*%
%TO.N,/KP_COL3*%
G36*
X182769912Y-109845581D02*
G01*
X182771895Y-109846641D01*
X183430879Y-110285862D01*
X183463489Y-110307597D01*
X183468473Y-110315037D01*
X183468477Y-110315062D01*
X183630773Y-111135166D01*
X183629018Y-111143947D01*
X183623671Y-111148288D01*
X182418839Y-111634007D01*
X182409884Y-111633922D01*
X182406191Y-111631429D01*
X182134359Y-111359597D01*
X182130932Y-111351324D01*
X182131830Y-111346830D01*
X182754613Y-109851881D01*
X182760958Y-109845563D01*
X182769912Y-109845581D01*
G37*
%TD.AperFunction*%
%TD*%
%TA.AperFunction,Conductor*%
%TO.N,/SW1-2{slash}ADC0.7*%
G36*
X140225910Y-94605576D02*
G01*
X140227883Y-94606633D01*
X140919489Y-95067597D01*
X140924473Y-95075037D01*
X140924477Y-95075062D01*
X141086770Y-95895146D01*
X141085015Y-95903927D01*
X141079646Y-95908277D01*
X139872839Y-96392039D01*
X139863885Y-96391936D01*
X139860213Y-96389452D01*
X139588379Y-96117618D01*
X139584952Y-96109345D01*
X139585858Y-96104831D01*
X140210601Y-94611852D01*
X140216956Y-94605543D01*
X140225910Y-94605576D01*
G37*
%TD.AperFunction*%
%TD*%
%TA.AperFunction,Conductor*%
%TO.N,/SPI_MISO*%
G36*
X182769902Y-102225554D02*
G01*
X182771806Y-102226582D01*
X183463489Y-102687597D01*
X183468473Y-102695037D01*
X183468477Y-102695062D01*
X183630754Y-103515070D01*
X183628999Y-103523851D01*
X183623545Y-103528235D01*
X182408790Y-104004108D01*
X182399837Y-104003935D01*
X182396249Y-104001487D01*
X182124408Y-103729646D01*
X182120981Y-103721373D01*
X182121917Y-103716788D01*
X182203761Y-103524667D01*
X182754554Y-102231731D01*
X182760948Y-102225464D01*
X182769902Y-102225554D01*
G37*
%TD.AperFunction*%
%TD*%
%TA.AperFunction,Conductor*%
%TO.N,/SW1-2{slash}ADC0.7*%
G36*
X107712252Y-94222719D02*
G01*
X109209704Y-94837022D01*
X109216057Y-94843333D01*
X109216963Y-94847847D01*
X109216963Y-95232276D01*
X109213536Y-95240549D01*
X109209861Y-95243035D01*
X108014452Y-95753935D01*
X108005498Y-95754035D01*
X108000132Y-95749686D01*
X107534999Y-95055037D01*
X107533245Y-95046258D01*
X107533245Y-95046256D01*
X107696338Y-94231247D01*
X107701322Y-94223808D01*
X107710107Y-94222071D01*
X107712252Y-94222719D01*
G37*
%TD.AperFunction*%
%TD*%
%TA.AperFunction,Conductor*%
%TO.N,/KP_ROW2*%
G36*
X180084121Y-86617657D02*
G01*
X180919446Y-87442722D01*
X180922924Y-87450974D01*
X180919548Y-87459268D01*
X180919492Y-87459324D01*
X180083966Y-88293869D01*
X180075691Y-88297291D01*
X180068724Y-88294985D01*
X179231553Y-87673508D01*
X179226953Y-87665825D01*
X179226827Y-87664114D01*
X179226827Y-87275731D01*
X179230254Y-87267458D01*
X179231354Y-87266487D01*
X180068727Y-86616736D01*
X180077364Y-86614373D01*
X180084121Y-86617657D01*
G37*
%TD.AperFunction*%
%TD*%
%TA.AperFunction,Conductor*%
%TO.N,/LINRX*%
G36*
X155211252Y-104382719D02*
G01*
X156708704Y-104997022D01*
X156715057Y-105003333D01*
X156715963Y-105007847D01*
X156715963Y-105392276D01*
X156712536Y-105400549D01*
X156708861Y-105403035D01*
X155513452Y-105913935D01*
X155504498Y-105914035D01*
X155499132Y-105909686D01*
X155033999Y-105215037D01*
X155032245Y-105206258D01*
X155032245Y-105206256D01*
X155195338Y-104391247D01*
X155200322Y-104383808D01*
X155209107Y-104382071D01*
X155211252Y-104382719D01*
G37*
%TD.AperFunction*%
%TD*%
%TA.AperFunction,Conductor*%
%TO.N,/SPI_CS1*%
G36*
X162763405Y-107047955D02*
G01*
X163958770Y-107546997D01*
X163965085Y-107553347D01*
X163965963Y-107557794D01*
X163965963Y-107942217D01*
X163962536Y-107950490D01*
X163958786Y-107953008D01*
X162763415Y-108454025D01*
X162754460Y-108454062D01*
X162749171Y-108449745D01*
X162285654Y-107757509D01*
X162283900Y-107748729D01*
X162285655Y-107744490D01*
X162749180Y-107052241D01*
X162756629Y-107047276D01*
X162763405Y-107047955D01*
G37*
%TD.AperFunction*%
%TD*%
%TA.AperFunction,Conductor*%
%TO.N,/KP_ROW0*%
G36*
X100462246Y-91682714D02*
G01*
X101959702Y-92296820D01*
X101966057Y-92303130D01*
X101966963Y-92307645D01*
X101966963Y-92692075D01*
X101963536Y-92700348D01*
X101959863Y-92702833D01*
X100764454Y-93213933D01*
X100755499Y-93214034D01*
X100750132Y-93209685D01*
X100285000Y-92515039D01*
X100283245Y-92506258D01*
X100283245Y-92506256D01*
X100446339Y-91691242D01*
X100451322Y-91683805D01*
X100460107Y-91682068D01*
X100462246Y-91682714D01*
G37*
%TD.AperFunction*%
%TD*%
%TA.AperFunction,Conductor*%
%TO.N,/SW1-3{slash}PB1*%
G36*
X140225910Y-97145576D02*
G01*
X140227883Y-97146633D01*
X140919489Y-97607597D01*
X140924473Y-97615037D01*
X140924477Y-97615062D01*
X141086770Y-98435146D01*
X141085015Y-98443927D01*
X141079646Y-98448277D01*
X139872839Y-98932039D01*
X139863885Y-98931936D01*
X139860213Y-98929452D01*
X139588379Y-98657618D01*
X139584952Y-98649345D01*
X139585858Y-98644831D01*
X140210601Y-97151852D01*
X140216956Y-97145543D01*
X140225910Y-97145576D01*
G37*
%TD.AperFunction*%
%TD*%
%TA.AperFunction,Conductor*%
%TO.N,/LED1{slash}DIR_A*%
G36*
X180460020Y-94372358D02*
G01*
X180925122Y-95066960D01*
X180926877Y-95075741D01*
X180926873Y-95075766D01*
X180763771Y-95890815D01*
X180758787Y-95898255D01*
X180750002Y-95899992D01*
X180747906Y-95899364D01*
X179250468Y-95292959D01*
X179244086Y-95286677D01*
X179243160Y-95282114D01*
X179243160Y-94897676D01*
X179246587Y-94889403D01*
X179250198Y-94886945D01*
X180445642Y-94368134D01*
X180454594Y-94367985D01*
X180460020Y-94372358D01*
G37*
%TD.AperFunction*%
%TD*%
%TA.AperFunction,Conductor*%
%TO.N,/I2C_SCL*%
G36*
X100764406Y-107047954D02*
G01*
X101959770Y-107546796D01*
X101966084Y-107553144D01*
X101966963Y-107557593D01*
X101966963Y-107942016D01*
X101963536Y-107950289D01*
X101959787Y-107952806D01*
X100764416Y-108454023D01*
X100755461Y-108454062D01*
X100750170Y-108449743D01*
X100286655Y-107757510D01*
X100284900Y-107748729D01*
X100286655Y-107744490D01*
X100414779Y-107553144D01*
X100750180Y-107052242D01*
X100757630Y-107047276D01*
X100764406Y-107047954D01*
G37*
%TD.AperFunction*%
%TD*%
%TA.AperFunction,Conductor*%
%TO.N,/SW1-1*%
G36*
X107712252Y-91682719D02*
G01*
X109209704Y-92297022D01*
X109216057Y-92303333D01*
X109216963Y-92307847D01*
X109216963Y-92692276D01*
X109213536Y-92700549D01*
X109209861Y-92703035D01*
X108014452Y-93213935D01*
X108005498Y-93214035D01*
X108000132Y-93209686D01*
X107534999Y-92515037D01*
X107533245Y-92506258D01*
X107533245Y-92506256D01*
X107696338Y-91691247D01*
X107701322Y-91683808D01*
X107710107Y-91682071D01*
X107712252Y-91682719D01*
G37*
%TD.AperFunction*%
%TD*%
%TA.AperFunction,Conductor*%
%TO.N,+3V3*%
G36*
X134710983Y-84185794D02*
G01*
X135006831Y-84308338D01*
X135047058Y-84335218D01*
X136476515Y-85764675D01*
X136510000Y-85825998D01*
X136505016Y-85895690D01*
X136463144Y-85951623D01*
X136397680Y-85976040D01*
X136388834Y-85976356D01*
X135890790Y-85976356D01*
X135823751Y-85956671D01*
X135803109Y-85940037D01*
X135056349Y-85193276D01*
X135038732Y-85176992D01*
X135038727Y-85176987D01*
X135026914Y-85166898D01*
X135026889Y-85166877D01*
X135021499Y-85162380D01*
X135021492Y-85162376D01*
X134922918Y-85108658D01*
X134922908Y-85108654D01*
X134864725Y-85089750D01*
X134864726Y-85089750D01*
X134787967Y-85077593D01*
X134770320Y-85074798D01*
X103708216Y-85074798D01*
X103708205Y-85074798D01*
X103684262Y-85075738D01*
X103668762Y-85076958D01*
X103661736Y-85077592D01*
X103554036Y-85109313D01*
X103499528Y-85137085D01*
X103499518Y-85137092D01*
X103422194Y-85193269D01*
X102675426Y-85940037D01*
X102614103Y-85973522D01*
X102587745Y-85976356D01*
X102297558Y-85976356D01*
X102230519Y-85956671D01*
X102184764Y-85903867D01*
X102174820Y-85834709D01*
X102203845Y-85771153D01*
X102209877Y-85764675D01*
X102899754Y-85074798D01*
X103639336Y-84335215D01*
X103679560Y-84308338D01*
X103827485Y-84247066D01*
X103975409Y-84185795D01*
X104022861Y-84176356D01*
X134663531Y-84176356D01*
X134710983Y-84185794D01*
G37*
%TD.AperFunction*%
%TD*%
%TA.AperFunction,Conductor*%
%TO.N,GND*%
G36*
X134177044Y-89109205D02*
G01*
X134188857Y-89119294D01*
X135399841Y-90330278D01*
X135399843Y-90330279D01*
X135399844Y-90330280D01*
X135399845Y-90330281D01*
X135491162Y-90383003D01*
X135491160Y-90383003D01*
X135491164Y-90383004D01*
X135491166Y-90383005D01*
X135593027Y-90410298D01*
X136627483Y-90410298D01*
X136664652Y-90417540D01*
X137838006Y-90892860D01*
X137855830Y-90902297D01*
X137885229Y-90921941D01*
X138076407Y-91001130D01*
X138135363Y-91012857D01*
X138144865Y-91016198D01*
X138146962Y-91016827D01*
X138154446Y-91018919D01*
X138167798Y-91019308D01*
X138279362Y-91041500D01*
X138279363Y-91041500D01*
X138486291Y-91041500D01*
X138486292Y-91041500D01*
X138689247Y-91001130D01*
X138880425Y-90921941D01*
X139052482Y-90806977D01*
X139198804Y-90660655D01*
X139313768Y-90488598D01*
X139392957Y-90297420D01*
X139402589Y-90248996D01*
X139432483Y-90195613D01*
X139488048Y-90169996D01*
X139548058Y-90181932D01*
X139589591Y-90226861D01*
X139597467Y-90252822D01*
X139606068Y-90307122D01*
X139671731Y-90509215D01*
X139768203Y-90698553D01*
X139768207Y-90698559D01*
X139807555Y-90752716D01*
X139807556Y-90752716D01*
X140439864Y-90120408D01*
X140456902Y-90183993D01*
X140522728Y-90298007D01*
X140615820Y-90391099D01*
X140729834Y-90456925D01*
X140793416Y-90473962D01*
X140161109Y-91106269D01*
X140161109Y-91106270D01*
X140215267Y-91145619D01*
X140215273Y-91145623D01*
X140404611Y-91242095D01*
X140606705Y-91307759D01*
X140661003Y-91316359D01*
X140715519Y-91344136D01*
X140743297Y-91398653D01*
X140733726Y-91459085D01*
X140690461Y-91502350D01*
X140664830Y-91511238D01*
X140616408Y-91520869D01*
X140425229Y-91600058D01*
X140253175Y-91715020D01*
X140106847Y-91861348D01*
X139991885Y-92033402D01*
X139912696Y-92224581D01*
X139912695Y-92224586D01*
X139904460Y-92265982D01*
X139898690Y-92284882D01*
X139453610Y-93348514D01*
X139413705Y-93394896D01*
X139362283Y-93409298D01*
X139229168Y-93409298D01*
X139170977Y-93390391D01*
X139135013Y-93340891D01*
X139135013Y-93279705D01*
X139159162Y-93240296D01*
X139198804Y-93200655D01*
X139313768Y-93028598D01*
X139392957Y-92837420D01*
X139433327Y-92634465D01*
X139433327Y-92427535D01*
X139392957Y-92224580D01*
X139313768Y-92033402D01*
X139198804Y-91861345D01*
X139052482Y-91715023D01*
X139052478Y-91715020D01*
X138880424Y-91600058D01*
X138689245Y-91520869D01*
X138486294Y-91480500D01*
X138486292Y-91480500D01*
X138279362Y-91480500D01*
X138279359Y-91480500D01*
X138076408Y-91520869D01*
X137885231Y-91600057D01*
X137843281Y-91628086D01*
X137824166Y-91637322D01*
X137824318Y-91637673D01*
X137819858Y-91639607D01*
X137819857Y-91639608D01*
X136760233Y-92099298D01*
X136663830Y-92141120D01*
X136624429Y-92149298D01*
X135852655Y-92149298D01*
X135794464Y-92130391D01*
X135782651Y-92120302D01*
X135178259Y-91515910D01*
X134571667Y-90909318D01*
X134571664Y-90909316D01*
X134571663Y-90909315D01*
X134571662Y-90909314D01*
X134480345Y-90856592D01*
X134480347Y-90856592D01*
X134420303Y-90840504D01*
X134378481Y-90829298D01*
X134378479Y-90829298D01*
X108772320Y-90829298D01*
X108714129Y-90810391D01*
X108678165Y-90760891D01*
X108678165Y-90699705D01*
X108686288Y-90682088D01*
X108686153Y-90682020D01*
X108784391Y-90489215D01*
X108850054Y-90287122D01*
X108860527Y-90221000D01*
X107966308Y-90221000D01*
X107999221Y-90163993D01*
X108033296Y-90036826D01*
X108033296Y-89905174D01*
X107999221Y-89778007D01*
X107966308Y-89721000D01*
X108860527Y-89721000D01*
X108860527Y-89720999D01*
X108850054Y-89654877D01*
X108784391Y-89452784D01*
X108687919Y-89263446D01*
X108687915Y-89263440D01*
X108676326Y-89247489D01*
X108657418Y-89189298D01*
X108676325Y-89131108D01*
X108725825Y-89095144D01*
X108756418Y-89090298D01*
X134118853Y-89090298D01*
X134177044Y-89109205D01*
G37*
%TD.AperFunction*%
%TA.AperFunction,Conductor*%
G36*
X188145512Y-80491121D02*
G01*
X188240073Y-80501775D01*
X188261669Y-80506705D01*
X188346202Y-80536283D01*
X188366168Y-80545899D01*
X188404079Y-80569720D01*
X188441987Y-80593540D01*
X188459319Y-80607361D01*
X188522638Y-80670680D01*
X188536459Y-80688012D01*
X188584098Y-80763828D01*
X188593718Y-80783803D01*
X188623293Y-80868326D01*
X188628225Y-80889938D01*
X188638877Y-80984470D01*
X188639500Y-80995555D01*
X188639500Y-113984444D01*
X188638877Y-113995528D01*
X188638877Y-113995529D01*
X188628225Y-114090061D01*
X188623293Y-114111673D01*
X188593718Y-114196196D01*
X188584098Y-114216171D01*
X188536459Y-114291987D01*
X188522638Y-114309319D01*
X188459319Y-114372638D01*
X188441987Y-114386459D01*
X188366171Y-114434098D01*
X188346196Y-114443718D01*
X188261673Y-114473293D01*
X188240061Y-114478225D01*
X188145529Y-114488877D01*
X188134444Y-114489500D01*
X90145556Y-114489500D01*
X90134471Y-114488877D01*
X90039938Y-114478225D01*
X90018326Y-114473293D01*
X89933803Y-114443718D01*
X89913828Y-114434098D01*
X89838012Y-114386459D01*
X89820680Y-114372638D01*
X89757361Y-114309319D01*
X89743540Y-114291987D01*
X89695901Y-114216171D01*
X89686283Y-114196202D01*
X89656705Y-114111669D01*
X89651775Y-114090073D01*
X89641121Y-113995512D01*
X89640500Y-113984444D01*
X89640500Y-86561253D01*
X99232796Y-86561253D01*
X99232796Y-88300746D01*
X99232797Y-88300758D01*
X99244428Y-88359227D01*
X99244430Y-88359233D01*
X99288741Y-88425548D01*
X99288744Y-88425552D01*
X99355065Y-88469867D01*
X99395148Y-88477840D01*
X99413537Y-88481498D01*
X99413542Y-88481498D01*
X99413548Y-88481500D01*
X99413549Y-88481500D01*
X101153043Y-88481500D01*
X101153044Y-88481500D01*
X101211527Y-88469867D01*
X101277848Y-88425552D01*
X101322163Y-88359231D01*
X101333796Y-88300748D01*
X101333796Y-87901909D01*
X101352703Y-87843718D01*
X101358519Y-87836458D01*
X102400553Y-86654426D01*
X102405605Y-86646032D01*
X102420415Y-86627089D01*
X103638212Y-85409294D01*
X103692729Y-85381517D01*
X103708216Y-85380298D01*
X134770320Y-85380298D01*
X134828511Y-85399205D01*
X134840324Y-85409294D01*
X136242468Y-86811438D01*
X136255105Y-86826930D01*
X136263455Y-86839590D01*
X136969832Y-87554463D01*
X137300795Y-87889407D01*
X137303748Y-87892395D01*
X137331199Y-87947077D01*
X137332327Y-87961979D01*
X137332327Y-88205577D01*
X137313420Y-88263768D01*
X137263920Y-88299732D01*
X137202734Y-88299732D01*
X137153234Y-88263768D01*
X137151012Y-88260580D01*
X137124492Y-88220891D01*
X137122423Y-88217794D01*
X135664002Y-86759373D01*
X135608510Y-86722294D01*
X135524709Y-86666299D01*
X135524698Y-86666293D01*
X135415255Y-86620962D01*
X135369925Y-86602185D01*
X135369919Y-86602183D01*
X135205609Y-86569500D01*
X135205607Y-86569500D01*
X109289227Y-86569500D01*
X109267744Y-86567140D01*
X108434163Y-86381791D01*
X108432968Y-86381593D01*
X108412000Y-86378120D01*
X108409468Y-86377841D01*
X108398688Y-86376945D01*
X108398679Y-86376945D01*
X108387304Y-86378870D01*
X108385878Y-86379112D01*
X108369358Y-86380500D01*
X106663548Y-86380500D01*
X106663547Y-86380500D01*
X106663537Y-86380501D01*
X106605068Y-86392132D01*
X106605062Y-86392134D01*
X106538747Y-86436445D01*
X106538741Y-86436451D01*
X106494430Y-86502766D01*
X106494428Y-86502772D01*
X106482797Y-86561241D01*
X106482796Y-86561253D01*
X106482796Y-88190096D01*
X106463889Y-88248287D01*
X106414389Y-88284251D01*
X106383796Y-88289096D01*
X103880939Y-88289096D01*
X103775485Y-88289096D01*
X103713141Y-88305800D01*
X103673619Y-88316390D01*
X103582303Y-88369112D01*
X102421113Y-89530302D01*
X102366596Y-89558079D01*
X102351109Y-89559298D01*
X102039169Y-89559298D01*
X102001605Y-89551895D01*
X101936206Y-89525075D01*
X101816624Y-89476034D01*
X100833563Y-89072880D01*
X100816128Y-89063600D01*
X100780895Y-89040059D01*
X100589719Y-88960871D01*
X100589717Y-88960870D01*
X100589716Y-88960870D01*
X100537297Y-88950442D01*
X100530248Y-88949040D01*
X100521659Y-88945990D01*
X100519520Y-88945344D01*
X100511664Y-88943140D01*
X100498674Y-88942760D01*
X100490540Y-88941142D01*
X100490539Y-88941141D01*
X100386765Y-88920500D01*
X100386761Y-88920500D01*
X100179831Y-88920500D01*
X100179828Y-88920500D01*
X99976877Y-88960869D01*
X99785698Y-89040058D01*
X99613644Y-89155020D01*
X99467316Y-89301348D01*
X99352354Y-89473402D01*
X99273165Y-89664581D01*
X99232796Y-89867532D01*
X99232796Y-90074467D01*
X99273165Y-90277418D01*
X99352354Y-90468597D01*
X99467316Y-90640651D01*
X99467319Y-90640655D01*
X99613641Y-90786977D01*
X99785698Y-90901941D01*
X99976876Y-90981130D01*
X100179831Y-91021500D01*
X100179832Y-91021500D01*
X100386760Y-91021500D01*
X100386761Y-91021500D01*
X100589716Y-90981130D01*
X100780894Y-90901941D01*
X100822327Y-90874255D01*
X100840984Y-90865306D01*
X100840768Y-90864800D01*
X102002102Y-90368269D01*
X102041022Y-90360298D01*
X102610735Y-90360298D01*
X102610737Y-90360298D01*
X102712598Y-90333005D01*
X102712600Y-90333003D01*
X102712602Y-90333003D01*
X102803918Y-90280281D01*
X102803918Y-90280280D01*
X102803923Y-90280278D01*
X103965109Y-89119092D01*
X104019626Y-89091315D01*
X104035113Y-89090096D01*
X106310321Y-89090096D01*
X106368512Y-89109003D01*
X106404476Y-89158503D01*
X106404476Y-89219689D01*
X106390413Y-89247288D01*
X106378672Y-89263447D01*
X106282200Y-89452784D01*
X106216537Y-89654877D01*
X106206064Y-89720999D01*
X106206065Y-89721000D01*
X107100284Y-89721000D01*
X107067371Y-89778007D01*
X107033296Y-89905174D01*
X107033296Y-90036826D01*
X107067371Y-90163993D01*
X107100284Y-90221000D01*
X106206065Y-90221000D01*
X106216537Y-90287122D01*
X106282200Y-90489215D01*
X106380439Y-90682020D01*
X106379609Y-90682442D01*
X106392968Y-90738054D01*
X106369560Y-90794585D01*
X106317394Y-90826560D01*
X106294272Y-90829298D01*
X103888962Y-90829298D01*
X103885878Y-90829096D01*
X103880939Y-90829096D01*
X103775485Y-90829096D01*
X103713141Y-90845800D01*
X103673619Y-90856390D01*
X103582303Y-90909112D01*
X102421113Y-92070302D01*
X102366596Y-92098079D01*
X102351109Y-92099298D01*
X102039169Y-92099298D01*
X102001605Y-92091895D01*
X100833563Y-91612880D01*
X100816128Y-91603600D01*
X100780895Y-91580059D01*
X100589719Y-91500871D01*
X100589717Y-91500870D01*
X100589716Y-91500870D01*
X100537297Y-91490442D01*
X100530248Y-91489040D01*
X100521659Y-91485990D01*
X100519520Y-91485344D01*
X100511664Y-91483140D01*
X100498674Y-91482760D01*
X100490540Y-91481142D01*
X100490539Y-91481141D01*
X100386765Y-91460500D01*
X100386761Y-91460500D01*
X100179831Y-91460500D01*
X100179828Y-91460500D01*
X99976877Y-91500869D01*
X99785698Y-91580058D01*
X99613644Y-91695020D01*
X99467316Y-91841348D01*
X99352354Y-92013402D01*
X99273165Y-92204581D01*
X99232796Y-92407532D01*
X99232796Y-92614467D01*
X99273165Y-92817418D01*
X99352354Y-93008597D01*
X99467316Y-93180651D01*
X99467319Y-93180655D01*
X99613641Y-93326977D01*
X99785698Y-93441941D01*
X99976876Y-93521130D01*
X100179831Y-93561500D01*
X100179832Y-93561500D01*
X100386760Y-93561500D01*
X100386761Y-93561500D01*
X100589716Y-93521130D01*
X100780894Y-93441941D01*
X100822327Y-93414255D01*
X100840984Y-93405306D01*
X100840768Y-93404800D01*
X102002102Y-92908269D01*
X102041022Y-92900298D01*
X102610735Y-92900298D01*
X102610737Y-92900298D01*
X102712598Y-92873005D01*
X102712600Y-92873003D01*
X102712602Y-92873003D01*
X102803918Y-92820281D01*
X102803918Y-92820280D01*
X102803923Y-92820278D01*
X103964907Y-91659294D01*
X104019424Y-91631517D01*
X104034911Y-91630298D01*
X106689359Y-91630298D01*
X106747550Y-91649205D01*
X106783514Y-91698705D01*
X106783514Y-91759891D01*
X106759364Y-91799299D01*
X106737774Y-91820890D01*
X106717316Y-91841348D01*
X106602354Y-92013402D01*
X106523165Y-92204581D01*
X106482796Y-92407532D01*
X106482796Y-92614467D01*
X106523165Y-92817418D01*
X106602354Y-93008597D01*
X106717316Y-93180651D01*
X106717319Y-93180655D01*
X106736960Y-93200296D01*
X106764736Y-93254811D01*
X106755165Y-93315243D01*
X106711900Y-93358508D01*
X106666955Y-93369298D01*
X103888962Y-93369298D01*
X103885878Y-93369096D01*
X103880939Y-93369096D01*
X103775485Y-93369096D01*
X103713141Y-93385800D01*
X103673619Y-93396390D01*
X103582303Y-93449112D01*
X102421113Y-94610302D01*
X102366596Y-94638079D01*
X102351109Y-94639298D01*
X102039169Y-94639298D01*
X102001605Y-94631895D01*
X100833563Y-94152880D01*
X100816128Y-94143600D01*
X100780895Y-94120059D01*
X100589719Y-94040871D01*
X100589717Y-94040870D01*
X100589716Y-94040870D01*
X100537297Y-94030442D01*
X100530248Y-94029040D01*
X100521659Y-94025990D01*
X100519520Y-94025344D01*
X100511664Y-94023140D01*
X100498674Y-94022760D01*
X100490540Y-94021142D01*
X100490539Y-94021141D01*
X100386765Y-94000500D01*
X100386761Y-94000500D01*
X100179831Y-94000500D01*
X100179828Y-94000500D01*
X99976877Y-94040869D01*
X99785698Y-94120058D01*
X99613644Y-94235020D01*
X99467316Y-94381348D01*
X99352354Y-94553402D01*
X99273165Y-94744581D01*
X99232796Y-94947532D01*
X99232796Y-95154467D01*
X99273165Y-95357418D01*
X99352354Y-95548597D01*
X99467316Y-95720651D01*
X99467319Y-95720655D01*
X99613641Y-95866977D01*
X99785698Y-95981941D01*
X99976876Y-96061130D01*
X100179831Y-96101500D01*
X100179832Y-96101500D01*
X100386760Y-96101500D01*
X100386761Y-96101500D01*
X100589716Y-96061130D01*
X100780894Y-95981941D01*
X100822327Y-95954255D01*
X100840984Y-95945306D01*
X100840768Y-95944800D01*
X102002102Y-95448269D01*
X102041022Y-95440298D01*
X102610735Y-95440298D01*
X102610737Y-95440298D01*
X102712598Y-95413005D01*
X102712600Y-95413003D01*
X102712602Y-95413003D01*
X102803918Y-95360281D01*
X102803918Y-95360280D01*
X102803923Y-95360278D01*
X103964907Y-94199294D01*
X104019424Y-94171517D01*
X104034911Y-94170298D01*
X106689359Y-94170298D01*
X106747550Y-94189205D01*
X106783514Y-94238705D01*
X106783514Y-94299891D01*
X106759364Y-94339299D01*
X106737774Y-94360890D01*
X106717316Y-94381348D01*
X106602354Y-94553402D01*
X106523165Y-94744581D01*
X106482796Y-94947532D01*
X106482796Y-95154467D01*
X106523165Y-95357418D01*
X106602354Y-95548597D01*
X106717316Y-95720651D01*
X106717319Y-95720655D01*
X106736960Y-95740296D01*
X106764736Y-95794811D01*
X106755165Y-95855243D01*
X106711900Y-95898508D01*
X106666955Y-95909298D01*
X103888962Y-95909298D01*
X103885878Y-95909096D01*
X103880939Y-95909096D01*
X103775485Y-95909096D01*
X103713141Y-95925800D01*
X103673619Y-95936390D01*
X103582303Y-95989112D01*
X102421113Y-97150302D01*
X102366596Y-97178079D01*
X102351109Y-97179298D01*
X102039169Y-97179298D01*
X102001605Y-97171895D01*
X100833563Y-96692880D01*
X100816128Y-96683600D01*
X100780895Y-96660059D01*
X100589719Y-96580871D01*
X100589717Y-96580870D01*
X100589716Y-96580870D01*
X100537297Y-96570442D01*
X100530248Y-96569040D01*
X100521659Y-96565990D01*
X100519520Y-96565344D01*
X100511664Y-96563140D01*
X100498674Y-96562760D01*
X100490540Y-96561142D01*
X100490539Y-96561141D01*
X100386765Y-96540500D01*
X100386761Y-96540500D01*
X100179831Y-96540500D01*
X100179828Y-96540500D01*
X99976877Y-96580869D01*
X99785698Y-96660058D01*
X99613644Y-96775020D01*
X99467316Y-96921348D01*
X99352354Y-97093402D01*
X99273165Y-97284581D01*
X99232796Y-97487532D01*
X99232796Y-97694467D01*
X99273165Y-97897418D01*
X99352354Y-98088597D01*
X99467316Y-98260651D01*
X99467319Y-98260655D01*
X99613641Y-98406977D01*
X99785698Y-98521941D01*
X99976876Y-98601130D01*
X100179831Y-98641500D01*
X100179832Y-98641500D01*
X100386760Y-98641500D01*
X100386761Y-98641500D01*
X100589716Y-98601130D01*
X100780894Y-98521941D01*
X100822327Y-98494255D01*
X100840984Y-98485306D01*
X100840768Y-98484800D01*
X102002102Y-97988269D01*
X102041022Y-97980298D01*
X102610735Y-97980298D01*
X102610737Y-97980298D01*
X102712598Y-97953005D01*
X102712600Y-97953003D01*
X102712602Y-97953003D01*
X102803918Y-97900281D01*
X102803918Y-97900280D01*
X102803923Y-97900278D01*
X103964907Y-96739294D01*
X104019424Y-96711517D01*
X104034911Y-96710298D01*
X106689359Y-96710298D01*
X106747550Y-96729205D01*
X106783514Y-96778705D01*
X106783514Y-96839891D01*
X106759364Y-96879299D01*
X106737774Y-96900890D01*
X106717316Y-96921348D01*
X106602354Y-97093402D01*
X106523165Y-97284581D01*
X106482796Y-97487532D01*
X106482796Y-97694467D01*
X106523165Y-97897418D01*
X106602354Y-98088597D01*
X106717316Y-98260651D01*
X106717319Y-98260655D01*
X106736960Y-98280296D01*
X106764736Y-98334811D01*
X106755165Y-98395243D01*
X106711900Y-98438508D01*
X106666955Y-98449298D01*
X103888962Y-98449298D01*
X103885878Y-98449096D01*
X103880939Y-98449096D01*
X103775485Y-98449096D01*
X103713141Y-98465800D01*
X103673619Y-98476390D01*
X103582303Y-98529112D01*
X102421113Y-99690302D01*
X102366596Y-99718079D01*
X102351109Y-99719298D01*
X102039169Y-99719298D01*
X102001605Y-99711895D01*
X100833563Y-99232880D01*
X100816128Y-99223600D01*
X100780895Y-99200059D01*
X100589719Y-99120871D01*
X100589717Y-99120870D01*
X100589716Y-99120870D01*
X100537297Y-99110442D01*
X100530248Y-99109040D01*
X100521659Y-99105990D01*
X100519520Y-99105344D01*
X100511664Y-99103140D01*
X100498674Y-99102760D01*
X100490540Y-99101142D01*
X100490539Y-99101141D01*
X100386765Y-99080500D01*
X100386761Y-99080500D01*
X100179831Y-99080500D01*
X100179828Y-99080500D01*
X99976877Y-99120869D01*
X99785698Y-99200058D01*
X99613644Y-99315020D01*
X99467316Y-99461348D01*
X99352354Y-99633402D01*
X99273165Y-99824581D01*
X99232796Y-100027532D01*
X99232796Y-100234467D01*
X99273165Y-100437418D01*
X99352354Y-100628597D01*
X99467316Y-100800651D01*
X99467319Y-100800655D01*
X99613641Y-100946977D01*
X99785698Y-101061941D01*
X99976876Y-101141130D01*
X100179831Y-101181500D01*
X100179832Y-101181500D01*
X100386760Y-101181500D01*
X100386761Y-101181500D01*
X100589716Y-101141130D01*
X100780894Y-101061941D01*
X100822327Y-101034255D01*
X100840984Y-101025306D01*
X100840768Y-101024800D01*
X102002102Y-100528269D01*
X102041022Y-100520298D01*
X102610735Y-100520298D01*
X102610737Y-100520298D01*
X102712598Y-100493005D01*
X102712600Y-100493003D01*
X102712602Y-100493003D01*
X102803918Y-100440281D01*
X102803918Y-100440280D01*
X102803923Y-100440278D01*
X103964907Y-99279294D01*
X104019424Y-99251517D01*
X104034911Y-99250298D01*
X106689359Y-99250298D01*
X106747550Y-99269205D01*
X106783514Y-99318705D01*
X106783514Y-99379891D01*
X106759364Y-99419299D01*
X106737774Y-99440890D01*
X106717316Y-99461348D01*
X106602354Y-99633402D01*
X106523165Y-99824581D01*
X106482796Y-100027532D01*
X106482796Y-100234467D01*
X106523165Y-100437418D01*
X106602354Y-100628597D01*
X106717316Y-100800651D01*
X106717319Y-100800655D01*
X106736960Y-100820296D01*
X106764736Y-100874811D01*
X106755165Y-100935243D01*
X106711900Y-100978508D01*
X106666955Y-100989298D01*
X103888962Y-100989298D01*
X103885878Y-100989096D01*
X103880939Y-100989096D01*
X103775485Y-100989096D01*
X103713141Y-101005800D01*
X103673619Y-101016390D01*
X103582303Y-101069112D01*
X102421113Y-102230302D01*
X102366596Y-102258079D01*
X102351109Y-102259298D01*
X102039169Y-102259298D01*
X102001605Y-102251895D01*
X100833563Y-101772880D01*
X100816128Y-101763600D01*
X100780895Y-101740059D01*
X100589719Y-101660871D01*
X100589717Y-101660870D01*
X100589716Y-101660870D01*
X100537297Y-101650442D01*
X100530248Y-101649040D01*
X100521659Y-101645990D01*
X100519520Y-101645344D01*
X100511664Y-101643140D01*
X100498674Y-101642760D01*
X100490540Y-101641142D01*
X100490539Y-101641141D01*
X100386765Y-101620500D01*
X100386761Y-101620500D01*
X100179831Y-101620500D01*
X100179828Y-101620500D01*
X99976877Y-101660869D01*
X99785698Y-101740058D01*
X99613644Y-101855020D01*
X99467316Y-102001348D01*
X99352354Y-102173402D01*
X99273165Y-102364581D01*
X99232796Y-102567532D01*
X99232796Y-102774467D01*
X99273165Y-102977418D01*
X99352354Y-103168597D01*
X99467316Y-103340651D01*
X99467319Y-103340655D01*
X99613641Y-103486977D01*
X99785698Y-103601941D01*
X99976876Y-103681130D01*
X100179831Y-103721500D01*
X100179832Y-103721500D01*
X100386760Y-103721500D01*
X100386761Y-103721500D01*
X100589716Y-103681130D01*
X100780894Y-103601941D01*
X100822327Y-103574255D01*
X100840984Y-103565306D01*
X100840768Y-103564800D01*
X102002102Y-103068269D01*
X102041022Y-103060298D01*
X102610735Y-103060298D01*
X102610737Y-103060298D01*
X102712598Y-103033005D01*
X102712600Y-103033003D01*
X102712602Y-103033003D01*
X102803918Y-102980281D01*
X102803918Y-102980280D01*
X102803923Y-102980278D01*
X103964907Y-101819294D01*
X104019424Y-101791517D01*
X104034911Y-101790298D01*
X106689359Y-101790298D01*
X106747550Y-101809205D01*
X106783514Y-101858705D01*
X106783514Y-101919891D01*
X106759364Y-101959299D01*
X106737774Y-101980890D01*
X106717316Y-102001348D01*
X106602354Y-102173402D01*
X106523165Y-102364581D01*
X106482796Y-102567532D01*
X106482796Y-102774467D01*
X106523165Y-102977418D01*
X106602354Y-103168597D01*
X106717316Y-103340651D01*
X106717319Y-103340655D01*
X106736960Y-103360296D01*
X106764736Y-103414811D01*
X106755165Y-103475243D01*
X106711900Y-103518508D01*
X106666955Y-103529298D01*
X103888962Y-103529298D01*
X103885878Y-103529096D01*
X103880939Y-103529096D01*
X103775485Y-103529096D01*
X103713141Y-103545800D01*
X103673619Y-103556390D01*
X103582303Y-103609112D01*
X102421113Y-104770302D01*
X102366596Y-104798079D01*
X102351109Y-104799298D01*
X102039169Y-104799298D01*
X102001605Y-104791895D01*
X100833563Y-104312880D01*
X100816128Y-104303600D01*
X100780895Y-104280059D01*
X100589719Y-104200871D01*
X100589717Y-104200870D01*
X100589716Y-104200870D01*
X100537297Y-104190442D01*
X100530248Y-104189040D01*
X100521659Y-104185990D01*
X100519520Y-104185344D01*
X100511664Y-104183140D01*
X100498674Y-104182760D01*
X100490540Y-104181142D01*
X100490539Y-104181141D01*
X100386765Y-104160500D01*
X100386761Y-104160500D01*
X100179831Y-104160500D01*
X100179828Y-104160500D01*
X99976877Y-104200869D01*
X99785698Y-104280058D01*
X99613644Y-104395020D01*
X99467316Y-104541348D01*
X99352354Y-104713402D01*
X99273165Y-104904581D01*
X99232796Y-105107532D01*
X99232796Y-105314467D01*
X99273165Y-105517418D01*
X99352354Y-105708597D01*
X99467316Y-105880651D01*
X99467319Y-105880655D01*
X99613641Y-106026977D01*
X99785698Y-106141941D01*
X99976876Y-106221130D01*
X100179831Y-106261500D01*
X100179832Y-106261500D01*
X100386760Y-106261500D01*
X100386761Y-106261500D01*
X100589716Y-106221130D01*
X100780894Y-106141941D01*
X100822327Y-106114255D01*
X100840984Y-106105306D01*
X100840768Y-106104800D01*
X102002102Y-105608269D01*
X102041022Y-105600298D01*
X102610735Y-105600298D01*
X102610737Y-105600298D01*
X102712598Y-105573005D01*
X102712600Y-105573003D01*
X102712602Y-105573003D01*
X102803918Y-105520281D01*
X102803918Y-105520280D01*
X102803923Y-105520278D01*
X103964907Y-104359294D01*
X104019424Y-104331517D01*
X104034911Y-104330298D01*
X106689359Y-104330298D01*
X106747550Y-104349205D01*
X106783514Y-104398705D01*
X106783514Y-104459891D01*
X106759364Y-104499299D01*
X106737774Y-104520890D01*
X106717316Y-104541348D01*
X106602354Y-104713402D01*
X106523165Y-104904581D01*
X106482796Y-105107532D01*
X106482796Y-105314467D01*
X106523165Y-105517418D01*
X106602354Y-105708597D01*
X106717316Y-105880651D01*
X106717319Y-105880655D01*
X106746960Y-105910296D01*
X106774736Y-105964811D01*
X106765165Y-106025243D01*
X106721900Y-106068508D01*
X106676955Y-106079298D01*
X103888962Y-106079298D01*
X103885878Y-106079096D01*
X103880939Y-106079096D01*
X103775485Y-106079096D01*
X103733331Y-106090391D01*
X103673619Y-106106390D01*
X103582303Y-106159112D01*
X102421113Y-107320302D01*
X102366596Y-107348079D01*
X102351109Y-107349298D01*
X102039934Y-107349298D01*
X102001807Y-107341662D01*
X100843549Y-106858305D01*
X100843546Y-106858304D01*
X100840174Y-106856897D01*
X100840358Y-106856454D01*
X100821677Y-106847308D01*
X100780896Y-106820059D01*
X100589714Y-106740869D01*
X100386763Y-106700500D01*
X100386761Y-106700500D01*
X100179831Y-106700500D01*
X100179828Y-106700500D01*
X99976877Y-106740869D01*
X99785698Y-106820058D01*
X99613644Y-106935020D01*
X99467316Y-107081348D01*
X99352354Y-107253402D01*
X99273165Y-107444581D01*
X99232796Y-107647532D01*
X99232796Y-107854467D01*
X99273165Y-108057418D01*
X99352354Y-108248597D01*
X99467316Y-108420651D01*
X99467319Y-108420655D01*
X99613641Y-108566977D01*
X99785698Y-108681941D01*
X99976876Y-108761130D01*
X100179831Y-108801500D01*
X100179832Y-108801500D01*
X100386760Y-108801500D01*
X100386761Y-108801500D01*
X100589716Y-108761130D01*
X100780894Y-108681941D01*
X100821626Y-108654724D01*
X100839691Y-108646136D01*
X100839391Y-108645420D01*
X102001859Y-108157999D01*
X102040141Y-108150298D01*
X102610735Y-108150298D01*
X102610737Y-108150298D01*
X102712598Y-108123005D01*
X102712600Y-108123003D01*
X102712602Y-108123003D01*
X102803918Y-108070281D01*
X102803918Y-108070280D01*
X102803923Y-108070278D01*
X103964907Y-106909294D01*
X104019424Y-106881517D01*
X104034911Y-106880298D01*
X106679359Y-106880298D01*
X106737550Y-106899205D01*
X106773514Y-106948705D01*
X106773514Y-107009891D01*
X106749364Y-107049299D01*
X106728008Y-107070656D01*
X106717316Y-107081348D01*
X106602354Y-107253402D01*
X106523165Y-107444581D01*
X106482796Y-107647532D01*
X106482796Y-107854467D01*
X106523165Y-108057418D01*
X106602354Y-108248597D01*
X106717316Y-108420651D01*
X106717319Y-108420655D01*
X106756960Y-108460296D01*
X106784736Y-108514811D01*
X106775165Y-108575243D01*
X106731900Y-108618508D01*
X106686955Y-108629298D01*
X103888962Y-108629298D01*
X103885878Y-108629096D01*
X103880939Y-108629096D01*
X103775485Y-108629096D01*
X103733331Y-108640391D01*
X103673619Y-108656390D01*
X103582303Y-108709112D01*
X102421113Y-109870302D01*
X102366596Y-109898079D01*
X102351109Y-109899298D01*
X102040810Y-109899298D01*
X102002043Y-109891392D01*
X100841507Y-109397504D01*
X100841614Y-109397250D01*
X100822272Y-109387706D01*
X100796879Y-109370739D01*
X100780894Y-109360059D01*
X100602867Y-109286317D01*
X100589714Y-109280869D01*
X100386763Y-109240500D01*
X100386761Y-109240500D01*
X100179831Y-109240500D01*
X100179828Y-109240500D01*
X99976877Y-109280869D01*
X99785698Y-109360058D01*
X99613644Y-109475020D01*
X99467316Y-109621348D01*
X99352354Y-109793402D01*
X99273165Y-109984581D01*
X99232796Y-110187532D01*
X99232796Y-110394467D01*
X99273165Y-110597418D01*
X99352354Y-110788597D01*
X99435521Y-110913066D01*
X99467319Y-110960655D01*
X99613641Y-111106977D01*
X99785698Y-111221941D01*
X99976876Y-111301130D01*
X100179831Y-111341500D01*
X100179832Y-111341500D01*
X100386760Y-111341500D01*
X100386761Y-111341500D01*
X100589716Y-111301130D01*
X100732610Y-111241941D01*
X100780890Y-111221943D01*
X100780891Y-111221942D01*
X100780894Y-111221941D01*
X100818025Y-111197129D01*
X100835331Y-111187903D01*
X102001648Y-110707752D01*
X102039336Y-110700298D01*
X102610735Y-110700298D01*
X102610737Y-110700298D01*
X102712598Y-110673005D01*
X102712600Y-110673003D01*
X102712602Y-110673003D01*
X102803918Y-110620281D01*
X102803918Y-110620280D01*
X102803923Y-110620278D01*
X103964907Y-109459294D01*
X104019424Y-109431517D01*
X104034911Y-109430298D01*
X106669359Y-109430298D01*
X106727550Y-109449205D01*
X106763514Y-109498705D01*
X106763514Y-109559891D01*
X106739364Y-109599299D01*
X106718277Y-109620387D01*
X106717316Y-109621348D01*
X106602354Y-109793402D01*
X106523165Y-109984581D01*
X106482796Y-110187532D01*
X106482796Y-110394467D01*
X106523165Y-110597418D01*
X106602354Y-110788597D01*
X106685521Y-110913066D01*
X106717319Y-110960655D01*
X106863641Y-111106977D01*
X107035698Y-111221941D01*
X107226876Y-111301130D01*
X107429831Y-111341500D01*
X107429832Y-111341500D01*
X107636760Y-111341500D01*
X107636761Y-111341500D01*
X107839716Y-111301130D01*
X108030894Y-111221941D01*
X108067867Y-111197235D01*
X108085190Y-111188001D01*
X108858977Y-110869551D01*
X109251643Y-110707950D01*
X109289320Y-110700500D01*
X134099803Y-110700500D01*
X134157994Y-110719407D01*
X134169807Y-110729496D01*
X135370589Y-111930278D01*
X135370591Y-111930279D01*
X135370592Y-111930280D01*
X135370593Y-111930281D01*
X135461910Y-111983003D01*
X135461908Y-111983003D01*
X135461912Y-111983004D01*
X135461914Y-111983005D01*
X135563775Y-112010298D01*
X135563777Y-112010298D01*
X139680669Y-112010298D01*
X139680671Y-112010298D01*
X139782532Y-111983005D01*
X139782534Y-111983003D01*
X139782536Y-111983003D01*
X139873857Y-111930278D01*
X139965951Y-111838182D01*
X139998204Y-111816667D01*
X140674689Y-111537678D01*
X141161498Y-111336915D01*
X141161695Y-111337393D01*
X141181250Y-111330676D01*
X141229247Y-111321130D01*
X141420425Y-111241941D01*
X141592482Y-111126977D01*
X141738804Y-110980655D01*
X141853768Y-110808598D01*
X141932957Y-110617420D01*
X141973327Y-110414465D01*
X141973327Y-110207535D01*
X141932957Y-110004580D01*
X141853768Y-109813402D01*
X141738804Y-109641345D01*
X141592482Y-109495023D01*
X141562550Y-109475023D01*
X141420424Y-109380058D01*
X141229245Y-109300869D01*
X141026294Y-109260500D01*
X141026292Y-109260500D01*
X140819362Y-109260500D01*
X140819359Y-109260500D01*
X140616408Y-109300869D01*
X140425229Y-109380058D01*
X140253175Y-109495020D01*
X140106847Y-109641348D01*
X139991885Y-109813402D01*
X139912698Y-110004576D01*
X139912694Y-110004589D01*
X139903113Y-110052755D01*
X139896391Y-110071710D01*
X139897072Y-110071988D01*
X139458333Y-111147686D01*
X139418850Y-111194427D01*
X139366665Y-111209298D01*
X139209168Y-111209298D01*
X139150977Y-111190391D01*
X139115013Y-111140891D01*
X139115013Y-111079705D01*
X139139162Y-111040296D01*
X139198804Y-110980655D01*
X139313768Y-110808598D01*
X139392957Y-110617420D01*
X139433327Y-110414465D01*
X139433327Y-110207535D01*
X139392957Y-110004580D01*
X139313768Y-109813402D01*
X139198804Y-109641345D01*
X139186758Y-109629299D01*
X139158983Y-109574785D01*
X139168554Y-109514353D01*
X139211819Y-109471088D01*
X139256764Y-109460298D01*
X139680669Y-109460298D01*
X139680671Y-109460298D01*
X139782532Y-109433005D01*
X139782534Y-109433003D01*
X139782536Y-109433003D01*
X139873857Y-109380278D01*
X139894077Y-109360058D01*
X139960510Y-109293623D01*
X139993218Y-109271921D01*
X141157114Y-108798668D01*
X141157116Y-108798666D01*
X141160524Y-108797281D01*
X141160662Y-108797622D01*
X141180748Y-108790776D01*
X141229247Y-108781130D01*
X141420425Y-108701941D01*
X141592482Y-108586977D01*
X141738804Y-108440655D01*
X141853768Y-108268598D01*
X141932957Y-108077420D01*
X141973327Y-107874465D01*
X141973327Y-107667535D01*
X141932957Y-107464580D01*
X141853768Y-107273402D01*
X141738804Y-107101345D01*
X141592482Y-106955023D01*
X141592478Y-106955020D01*
X141420424Y-106840058D01*
X141229245Y-106760869D01*
X141026294Y-106720500D01*
X141026292Y-106720500D01*
X140819362Y-106720500D01*
X140819359Y-106720500D01*
X140616408Y-106760869D01*
X140425229Y-106840058D01*
X140253175Y-106955020D01*
X140106847Y-107101348D01*
X139991885Y-107273402D01*
X139912698Y-107464576D01*
X139912694Y-107464590D01*
X139903230Y-107512167D01*
X139896635Y-107530650D01*
X139897458Y-107530991D01*
X139895599Y-107535482D01*
X139895599Y-107535484D01*
X139458921Y-108591093D01*
X139456005Y-108598142D01*
X139416289Y-108644686D01*
X139364523Y-108659298D01*
X139219168Y-108659298D01*
X139160977Y-108640391D01*
X139125013Y-108590891D01*
X139125013Y-108529705D01*
X139149162Y-108490296D01*
X139198804Y-108440655D01*
X139313768Y-108268598D01*
X139392957Y-108077420D01*
X139433327Y-107874465D01*
X139433327Y-107667535D01*
X139392957Y-107464580D01*
X139313768Y-107273402D01*
X139198804Y-107101345D01*
X139176758Y-107079299D01*
X139148983Y-107024785D01*
X139158554Y-106964353D01*
X139201819Y-106921088D01*
X139246764Y-106910298D01*
X139680669Y-106910298D01*
X139680671Y-106910298D01*
X139782532Y-106883005D01*
X139782534Y-106883003D01*
X139782536Y-106883003D01*
X139873857Y-106830278D01*
X139884077Y-106820058D01*
X139955072Y-106749061D01*
X139988234Y-106727176D01*
X141156108Y-106259022D01*
X141156108Y-106259021D01*
X141159553Y-106257641D01*
X141159637Y-106257852D01*
X141180252Y-106250875D01*
X141229247Y-106241130D01*
X141420425Y-106161941D01*
X141592482Y-106046977D01*
X141738804Y-105900655D01*
X141853768Y-105728598D01*
X141932957Y-105537420D01*
X141973327Y-105334465D01*
X141973327Y-105127535D01*
X141932957Y-104924580D01*
X141853768Y-104733402D01*
X141738804Y-104561345D01*
X141592482Y-104415023D01*
X141592478Y-104415020D01*
X141420424Y-104300058D01*
X141229245Y-104220869D01*
X141026294Y-104180500D01*
X141026292Y-104180500D01*
X140819362Y-104180500D01*
X140819359Y-104180500D01*
X140616408Y-104220869D01*
X140425229Y-104300058D01*
X140253175Y-104415020D01*
X140106847Y-104561348D01*
X139991885Y-104733402D01*
X139912696Y-104924581D01*
X139912695Y-104924586D01*
X139904460Y-104965982D01*
X139898690Y-104984882D01*
X139453610Y-106048514D01*
X139413705Y-106094896D01*
X139362283Y-106109298D01*
X139229168Y-106109298D01*
X139170977Y-106090391D01*
X139135013Y-106040891D01*
X139135013Y-105979705D01*
X139159162Y-105940296D01*
X139198804Y-105900655D01*
X139313768Y-105728598D01*
X139392957Y-105537420D01*
X139433327Y-105334465D01*
X139433327Y-105127535D01*
X139392957Y-104924580D01*
X139313768Y-104733402D01*
X139198804Y-104561345D01*
X139176758Y-104539299D01*
X139148983Y-104484785D01*
X139158554Y-104424353D01*
X139201819Y-104381088D01*
X139246764Y-104370298D01*
X139680669Y-104370298D01*
X139680671Y-104370298D01*
X139782532Y-104343005D01*
X139782534Y-104343003D01*
X139782536Y-104343003D01*
X139873857Y-104290278D01*
X139884077Y-104280058D01*
X139955072Y-104209061D01*
X139988234Y-104187176D01*
X141156108Y-103719022D01*
X141156108Y-103719021D01*
X141159553Y-103717641D01*
X141159637Y-103717852D01*
X141180252Y-103710875D01*
X141229247Y-103701130D01*
X141420425Y-103621941D01*
X141592482Y-103506977D01*
X141738804Y-103360655D01*
X141853768Y-103188598D01*
X141932957Y-102997420D01*
X141973327Y-102794465D01*
X141973327Y-102587535D01*
X141932957Y-102384580D01*
X141853768Y-102193402D01*
X141738804Y-102021345D01*
X141592482Y-101875023D01*
X141592478Y-101875020D01*
X141420424Y-101760058D01*
X141229245Y-101680869D01*
X141026294Y-101640500D01*
X141026292Y-101640500D01*
X140819362Y-101640500D01*
X140819359Y-101640500D01*
X140616408Y-101680869D01*
X140425229Y-101760058D01*
X140253175Y-101875020D01*
X140106847Y-102021348D01*
X139991885Y-102193402D01*
X139912696Y-102384581D01*
X139912695Y-102384586D01*
X139904460Y-102425982D01*
X139898690Y-102444882D01*
X139453610Y-103508514D01*
X139413705Y-103554896D01*
X139362283Y-103569298D01*
X139229168Y-103569298D01*
X139170977Y-103550391D01*
X139135013Y-103500891D01*
X139135013Y-103439705D01*
X139159162Y-103400296D01*
X139198804Y-103360655D01*
X139313768Y-103188598D01*
X139392957Y-102997420D01*
X139433327Y-102794465D01*
X139433327Y-102587535D01*
X139392957Y-102384580D01*
X139313768Y-102193402D01*
X139198804Y-102021345D01*
X139176758Y-101999299D01*
X139148983Y-101944785D01*
X139158554Y-101884353D01*
X139201819Y-101841088D01*
X139246764Y-101830298D01*
X139680669Y-101830298D01*
X139680671Y-101830298D01*
X139782532Y-101803005D01*
X139782534Y-101803003D01*
X139782536Y-101803003D01*
X139873857Y-101750278D01*
X139884077Y-101740058D01*
X139955072Y-101669061D01*
X139988234Y-101647176D01*
X141156108Y-101179022D01*
X141156108Y-101179021D01*
X141159553Y-101177641D01*
X141159637Y-101177852D01*
X141180252Y-101170875D01*
X141229247Y-101161130D01*
X141420425Y-101081941D01*
X141592482Y-100966977D01*
X141738804Y-100820655D01*
X141853768Y-100648598D01*
X141932957Y-100457420D01*
X141973327Y-100254465D01*
X141973327Y-100047535D01*
X141932957Y-99844580D01*
X141853768Y-99653402D01*
X141738804Y-99481345D01*
X141592482Y-99335023D01*
X141592478Y-99335020D01*
X141420424Y-99220058D01*
X141229245Y-99140869D01*
X141026294Y-99100500D01*
X141026292Y-99100500D01*
X140819362Y-99100500D01*
X140819359Y-99100500D01*
X140616408Y-99140869D01*
X140425229Y-99220058D01*
X140253175Y-99335020D01*
X140106847Y-99481348D01*
X139991885Y-99653402D01*
X139912696Y-99844581D01*
X139912695Y-99844586D01*
X139904460Y-99885982D01*
X139898690Y-99904882D01*
X139453610Y-100968514D01*
X139413705Y-101014896D01*
X139362283Y-101029298D01*
X139229168Y-101029298D01*
X139170977Y-101010391D01*
X139135013Y-100960891D01*
X139135013Y-100899705D01*
X139159162Y-100860296D01*
X139198804Y-100820655D01*
X139313768Y-100648598D01*
X139392957Y-100457420D01*
X139433327Y-100254465D01*
X139433327Y-100047535D01*
X139392957Y-99844580D01*
X139313768Y-99653402D01*
X139198804Y-99481345D01*
X139176758Y-99459299D01*
X139148983Y-99404785D01*
X139158554Y-99344353D01*
X139201819Y-99301088D01*
X139246764Y-99290298D01*
X139680669Y-99290298D01*
X139680671Y-99290298D01*
X139782532Y-99263005D01*
X139782534Y-99263003D01*
X139782536Y-99263003D01*
X139873857Y-99210278D01*
X139884077Y-99200058D01*
X139955072Y-99129061D01*
X139988234Y-99107176D01*
X141156108Y-98639022D01*
X141156108Y-98639021D01*
X141159553Y-98637641D01*
X141159637Y-98637852D01*
X141180252Y-98630875D01*
X141229247Y-98621130D01*
X141420425Y-98541941D01*
X141592482Y-98426977D01*
X141738804Y-98280655D01*
X141853768Y-98108598D01*
X141932957Y-97917420D01*
X141973327Y-97714465D01*
X141973327Y-97507535D01*
X141932957Y-97304580D01*
X141853768Y-97113402D01*
X141738804Y-96941345D01*
X141592482Y-96795023D01*
X141592478Y-96795020D01*
X141420424Y-96680058D01*
X141229245Y-96600869D01*
X141026294Y-96560500D01*
X141026292Y-96560500D01*
X140819362Y-96560500D01*
X140819359Y-96560500D01*
X140616408Y-96600869D01*
X140425229Y-96680058D01*
X140253175Y-96795020D01*
X140106847Y-96941348D01*
X139991885Y-97113402D01*
X139912696Y-97304581D01*
X139912695Y-97304586D01*
X139904460Y-97345982D01*
X139898690Y-97364882D01*
X139453610Y-98428514D01*
X139413705Y-98474896D01*
X139362283Y-98489298D01*
X139229168Y-98489298D01*
X139170977Y-98470391D01*
X139135013Y-98420891D01*
X139135013Y-98359705D01*
X139159162Y-98320296D01*
X139198804Y-98280655D01*
X139313768Y-98108598D01*
X139392957Y-97917420D01*
X139433327Y-97714465D01*
X139433327Y-97507535D01*
X139392957Y-97304580D01*
X139313768Y-97113402D01*
X139198804Y-96941345D01*
X139176758Y-96919299D01*
X139148983Y-96864785D01*
X139158554Y-96804353D01*
X139201819Y-96761088D01*
X139246764Y-96750298D01*
X139680669Y-96750298D01*
X139680671Y-96750298D01*
X139782532Y-96723005D01*
X139782534Y-96723003D01*
X139782536Y-96723003D01*
X139873857Y-96670278D01*
X139884077Y-96660058D01*
X139955072Y-96589061D01*
X139988234Y-96567176D01*
X141156108Y-96099022D01*
X141156108Y-96099021D01*
X141159553Y-96097641D01*
X141159637Y-96097852D01*
X141180252Y-96090875D01*
X141229247Y-96081130D01*
X141420425Y-96001941D01*
X141592482Y-95886977D01*
X141738804Y-95740655D01*
X141853768Y-95568598D01*
X141932957Y-95377420D01*
X141973327Y-95174465D01*
X141973327Y-94967535D01*
X141932957Y-94764580D01*
X141853768Y-94573402D01*
X141738804Y-94401345D01*
X141592482Y-94255023D01*
X141592478Y-94255020D01*
X141420424Y-94140058D01*
X141229245Y-94060869D01*
X141026294Y-94020500D01*
X141026292Y-94020500D01*
X140819362Y-94020500D01*
X140819359Y-94020500D01*
X140616408Y-94060869D01*
X140425229Y-94140058D01*
X140253175Y-94255020D01*
X140106847Y-94401348D01*
X139991885Y-94573402D01*
X139912696Y-94764581D01*
X139912695Y-94764586D01*
X139904460Y-94805982D01*
X139898690Y-94824882D01*
X139453610Y-95888514D01*
X139413705Y-95934896D01*
X139362283Y-95949298D01*
X139229168Y-95949298D01*
X139170977Y-95930391D01*
X139135013Y-95880891D01*
X139135013Y-95819705D01*
X139159162Y-95780296D01*
X139198804Y-95740655D01*
X139313768Y-95568598D01*
X139392957Y-95377420D01*
X139433327Y-95174465D01*
X139433327Y-94967535D01*
X139392957Y-94764580D01*
X139313768Y-94573402D01*
X139198804Y-94401345D01*
X139176758Y-94379299D01*
X139148983Y-94324785D01*
X139158554Y-94264353D01*
X139201819Y-94221088D01*
X139246764Y-94210298D01*
X139680669Y-94210298D01*
X139680671Y-94210298D01*
X139782532Y-94183005D01*
X139782534Y-94183003D01*
X139782536Y-94183003D01*
X139873857Y-94130278D01*
X139884077Y-94120058D01*
X139955072Y-94049061D01*
X139988234Y-94027176D01*
X141156108Y-93559022D01*
X141156108Y-93559021D01*
X141159553Y-93557641D01*
X141159637Y-93557852D01*
X141180252Y-93550875D01*
X141229247Y-93541130D01*
X141420425Y-93461941D01*
X141592482Y-93346977D01*
X141738804Y-93200655D01*
X141853768Y-93028598D01*
X141932957Y-92837420D01*
X141973327Y-92634465D01*
X141973327Y-92427535D01*
X141932957Y-92224580D01*
X141853768Y-92033402D01*
X141738804Y-91861345D01*
X141592482Y-91715023D01*
X141592478Y-91715020D01*
X141420424Y-91600058D01*
X141229245Y-91520869D01*
X141180823Y-91511238D01*
X141127439Y-91481341D01*
X141101823Y-91425776D01*
X141113760Y-91365766D01*
X141158690Y-91324234D01*
X141184650Y-91316359D01*
X141238948Y-91307759D01*
X141441042Y-91242095D01*
X141630383Y-91145620D01*
X141684543Y-91106270D01*
X141052235Y-90473962D01*
X141115820Y-90456925D01*
X141229834Y-90391099D01*
X141322926Y-90298007D01*
X141388752Y-90183993D01*
X141405789Y-90120408D01*
X142038097Y-90752716D01*
X142077447Y-90698556D01*
X142173922Y-90509215D01*
X142239586Y-90307121D01*
X142272827Y-90097250D01*
X142272827Y-89884748D01*
X142271783Y-89878157D01*
X142239586Y-89674878D01*
X142173922Y-89472784D01*
X142077450Y-89283446D01*
X142077446Y-89283440D01*
X142038097Y-89229282D01*
X142038096Y-89229282D01*
X141405789Y-89861589D01*
X141388752Y-89798007D01*
X141322926Y-89683993D01*
X141229834Y-89590901D01*
X141115820Y-89525075D01*
X141052235Y-89508037D01*
X141684543Y-88875729D01*
X141684543Y-88875728D01*
X141630386Y-88836380D01*
X141630380Y-88836376D01*
X141441042Y-88739904D01*
X141238949Y-88674241D01*
X141184649Y-88665640D01*
X141130133Y-88637862D01*
X141102356Y-88583345D01*
X141111928Y-88522913D01*
X141155193Y-88479649D01*
X141180820Y-88470762D01*
X141229247Y-88461130D01*
X141420425Y-88381941D01*
X141592482Y-88266977D01*
X141738804Y-88120655D01*
X141853768Y-87948598D01*
X141932957Y-87757420D01*
X141973327Y-87554465D01*
X141973327Y-87347535D01*
X141932957Y-87144580D01*
X141853768Y-86953402D01*
X141738804Y-86781345D01*
X141592482Y-86635023D01*
X141580602Y-86627085D01*
X141482077Y-86561253D01*
X153981796Y-86561253D01*
X153981796Y-88300746D01*
X153981797Y-88300758D01*
X153993428Y-88359227D01*
X153993430Y-88359233D01*
X154037741Y-88425548D01*
X154037744Y-88425552D01*
X154104065Y-88469867D01*
X154144148Y-88477840D01*
X154162537Y-88481498D01*
X154162542Y-88481498D01*
X154162548Y-88481500D01*
X154162549Y-88481500D01*
X155902043Y-88481500D01*
X155902044Y-88481500D01*
X155960527Y-88469867D01*
X156026848Y-88425552D01*
X156026850Y-88425548D01*
X156031107Y-88421292D01*
X156040647Y-88412904D01*
X156683781Y-87916925D01*
X156782097Y-87841105D01*
X156839723Y-87820541D01*
X156842555Y-87820500D01*
X157366277Y-87820500D01*
X157366279Y-87820500D01*
X157468140Y-87793207D01*
X157468142Y-87793205D01*
X157468144Y-87793205D01*
X157559460Y-87740483D01*
X157559460Y-87740482D01*
X157559465Y-87740480D01*
X159810449Y-85489496D01*
X159864966Y-85461719D01*
X159880453Y-85460500D01*
X175556630Y-85460500D01*
X175614821Y-85479407D01*
X175626634Y-85489496D01*
X176758101Y-86620962D01*
X177853049Y-87715910D01*
X177853051Y-87715913D01*
X177927618Y-87790480D01*
X177948181Y-87802352D01*
X177983706Y-87822863D01*
X177983707Y-87822863D01*
X178018944Y-87843207D01*
X178120801Y-87870500D01*
X178120803Y-87870501D01*
X178120804Y-87870501D01*
X178232321Y-87870501D01*
X178232337Y-87870500D01*
X179119422Y-87870500D01*
X179177613Y-87889407D01*
X179178432Y-87890009D01*
X179946231Y-88459988D01*
X179946233Y-88459989D01*
X179980597Y-88477840D01*
X179998596Y-88489867D01*
X180010934Y-88492321D01*
X180011118Y-88492382D01*
X180013967Y-88492924D01*
X180057079Y-88501500D01*
X180059003Y-88501500D01*
X180064050Y-88502461D01*
X180069726Y-88501500D01*
X181796575Y-88501500D01*
X181855058Y-88489867D01*
X181921379Y-88445552D01*
X181965694Y-88379231D01*
X181977327Y-88320748D01*
X181977327Y-87860543D01*
X181996234Y-87802352D01*
X182045734Y-87766388D01*
X182106920Y-87766388D01*
X182156420Y-87802352D01*
X182170482Y-87829951D01*
X182215730Y-87969213D01*
X182312203Y-88158553D01*
X182312207Y-88158559D01*
X182351555Y-88212716D01*
X182351556Y-88212716D01*
X182983864Y-87580407D01*
X183000902Y-87643993D01*
X183066728Y-87758007D01*
X183159820Y-87851099D01*
X183273834Y-87916925D01*
X183337416Y-87933962D01*
X182705109Y-88566269D01*
X182705109Y-88566270D01*
X182759267Y-88605619D01*
X182759273Y-88605623D01*
X182948611Y-88702095D01*
X183150705Y-88767759D01*
X183205003Y-88776359D01*
X183259519Y-88804136D01*
X183287297Y-88858653D01*
X183277726Y-88919085D01*
X183234461Y-88962350D01*
X183208830Y-88971238D01*
X183160408Y-88980869D01*
X182969229Y-89060058D01*
X182797175Y-89175020D01*
X182650847Y-89321348D01*
X182535885Y-89493402D01*
X182456696Y-89684581D01*
X182456695Y-89684584D01*
X182450485Y-89715802D01*
X182444468Y-89735285D01*
X181986937Y-90809300D01*
X181946736Y-90855425D01*
X181895857Y-90869500D01*
X181772966Y-90869500D01*
X181714775Y-90850593D01*
X181678811Y-90801093D01*
X181678811Y-90739907D01*
X181702960Y-90700498D01*
X181742804Y-90660655D01*
X181857768Y-90488598D01*
X181936957Y-90297420D01*
X181977327Y-90094465D01*
X181977327Y-89887535D01*
X181936957Y-89684580D01*
X181857768Y-89493402D01*
X181742804Y-89321345D01*
X181596482Y-89175023D01*
X181596478Y-89175020D01*
X181424424Y-89060058D01*
X181233245Y-88980869D01*
X181030294Y-88940500D01*
X181030292Y-88940500D01*
X180823362Y-88940500D01*
X180823359Y-88940500D01*
X180620408Y-88980869D01*
X180429227Y-89060059D01*
X180386534Y-89088585D01*
X180366744Y-89098243D01*
X180366804Y-89098378D01*
X180363156Y-89099994D01*
X180362585Y-89100273D01*
X180362357Y-89100348D01*
X179207542Y-89612013D01*
X179167438Y-89620500D01*
X178391431Y-89620500D01*
X178333240Y-89601593D01*
X178321427Y-89591504D01*
X177769981Y-89040058D01*
X177099242Y-88369318D01*
X177099239Y-88369316D01*
X177099237Y-88369314D01*
X177007920Y-88316592D01*
X177007922Y-88316592D01*
X176948826Y-88300758D01*
X176906056Y-88289298D01*
X163731296Y-88289298D01*
X163673105Y-88270391D01*
X163637141Y-88220891D01*
X163632296Y-88190298D01*
X163632296Y-87681001D01*
X163632295Y-87681000D01*
X162715308Y-87681000D01*
X162748221Y-87623993D01*
X162782296Y-87496826D01*
X162782296Y-87365174D01*
X162748221Y-87238007D01*
X162715308Y-87181000D01*
X163632295Y-87181000D01*
X163632296Y-87180999D01*
X163632296Y-86533175D01*
X163625894Y-86473629D01*
X163625892Y-86473618D01*
X163575649Y-86338911D01*
X163575648Y-86338909D01*
X163489488Y-86223815D01*
X163489480Y-86223807D01*
X163374386Y-86137647D01*
X163374384Y-86137646D01*
X163239677Y-86087403D01*
X163239666Y-86087401D01*
X163180120Y-86081000D01*
X162532297Y-86081000D01*
X162532296Y-86081001D01*
X162532296Y-86997988D01*
X162475289Y-86965075D01*
X162348122Y-86931000D01*
X162216470Y-86931000D01*
X162089303Y-86965075D01*
X162032296Y-86997988D01*
X162032296Y-86081001D01*
X162032295Y-86081000D01*
X161384472Y-86081000D01*
X161324925Y-86087401D01*
X161324914Y-86087403D01*
X161190207Y-86137646D01*
X161190205Y-86137647D01*
X161075111Y-86223807D01*
X161075103Y-86223815D01*
X160988943Y-86338909D01*
X160988942Y-86338911D01*
X160938699Y-86473618D01*
X160938697Y-86473629D01*
X160932296Y-86533175D01*
X160932296Y-87180999D01*
X160932297Y-87181000D01*
X161849284Y-87181000D01*
X161816371Y-87238007D01*
X161782296Y-87365174D01*
X161782296Y-87496826D01*
X161816371Y-87623993D01*
X161849284Y-87681000D01*
X160932297Y-87681000D01*
X160932296Y-87681001D01*
X160932296Y-88190298D01*
X160913389Y-88248489D01*
X160863889Y-88284453D01*
X160833296Y-88289298D01*
X158636481Y-88289298D01*
X158531027Y-88289298D01*
X158488257Y-88300758D01*
X158429161Y-88316592D01*
X158337845Y-88369314D01*
X157176655Y-89530504D01*
X157122138Y-89558281D01*
X157106651Y-89559500D01*
X156788181Y-89559500D01*
X156750607Y-89552092D01*
X155582717Y-89072985D01*
X155565291Y-89063709D01*
X155529896Y-89040059D01*
X155338714Y-88960869D01*
X155338710Y-88960868D01*
X155286283Y-88950438D01*
X155286283Y-88950439D01*
X155279229Y-88949036D01*
X155270681Y-88946000D01*
X155268536Y-88945352D01*
X155260664Y-88943143D01*
X155247697Y-88942764D01*
X155239562Y-88941146D01*
X155239558Y-88941146D01*
X155135764Y-88920500D01*
X155135761Y-88920500D01*
X154928831Y-88920500D01*
X154928828Y-88920500D01*
X154725877Y-88960869D01*
X154534698Y-89040058D01*
X154362644Y-89155020D01*
X154216316Y-89301348D01*
X154101354Y-89473402D01*
X154022165Y-89664581D01*
X153981796Y-89867532D01*
X153981796Y-90074467D01*
X154022165Y-90277418D01*
X154101354Y-90468597D01*
X154216316Y-90640651D01*
X154216319Y-90640655D01*
X154362641Y-90786977D01*
X154534698Y-90901941D01*
X154725876Y-90981130D01*
X154928831Y-91021500D01*
X154928832Y-91021500D01*
X155135760Y-91021500D01*
X155135761Y-91021500D01*
X155338716Y-90981130D01*
X155529894Y-90901941D01*
X155571310Y-90874266D01*
X155589956Y-90865325D01*
X155589738Y-90864813D01*
X156751095Y-90368466D01*
X156790002Y-90360500D01*
X157366277Y-90360500D01*
X157366279Y-90360500D01*
X157468140Y-90333207D01*
X157468142Y-90333205D01*
X157468144Y-90333205D01*
X157559460Y-90280483D01*
X157559460Y-90280482D01*
X157559465Y-90280480D01*
X158720651Y-89119294D01*
X158775168Y-89091517D01*
X158790655Y-89090298D01*
X161438359Y-89090298D01*
X161496550Y-89109205D01*
X161532514Y-89158705D01*
X161532514Y-89219891D01*
X161508364Y-89259299D01*
X161486774Y-89280890D01*
X161466316Y-89301348D01*
X161351354Y-89473402D01*
X161272165Y-89664581D01*
X161231796Y-89867532D01*
X161231796Y-90074467D01*
X161272165Y-90277418D01*
X161351354Y-90468597D01*
X161466316Y-90640651D01*
X161466319Y-90640655D01*
X161485960Y-90660296D01*
X161513736Y-90714811D01*
X161504165Y-90775243D01*
X161460900Y-90818508D01*
X161415955Y-90829298D01*
X158636481Y-90829298D01*
X158531027Y-90829298D01*
X158489205Y-90840504D01*
X158429161Y-90856592D01*
X158337845Y-90909314D01*
X157176655Y-92070504D01*
X157122138Y-92098281D01*
X157106651Y-92099500D01*
X156788181Y-92099500D01*
X156750607Y-92092092D01*
X155582717Y-91612985D01*
X155565291Y-91603709D01*
X155529896Y-91580059D01*
X155338714Y-91500869D01*
X155338710Y-91500868D01*
X155286283Y-91490438D01*
X155286283Y-91490439D01*
X155279229Y-91489036D01*
X155270681Y-91486000D01*
X155268536Y-91485352D01*
X155260664Y-91483143D01*
X155247697Y-91482764D01*
X155239562Y-91481146D01*
X155239558Y-91481146D01*
X155135764Y-91460500D01*
X155135761Y-91460500D01*
X154928831Y-91460500D01*
X154928828Y-91460500D01*
X154725877Y-91500869D01*
X154534698Y-91580058D01*
X154362644Y-91695020D01*
X154216316Y-91841348D01*
X154101354Y-92013402D01*
X154022165Y-92204581D01*
X153981796Y-92407532D01*
X153981796Y-92614467D01*
X154022165Y-92817418D01*
X154101354Y-93008597D01*
X154216316Y-93180651D01*
X154216319Y-93180655D01*
X154362641Y-93326977D01*
X154534698Y-93441941D01*
X154725876Y-93521130D01*
X154928831Y-93561500D01*
X154928832Y-93561500D01*
X155135760Y-93561500D01*
X155135761Y-93561500D01*
X155338716Y-93521130D01*
X155529894Y-93441941D01*
X155571310Y-93414266D01*
X155589956Y-93405325D01*
X155589738Y-93404813D01*
X156751095Y-92908466D01*
X156790002Y-92900500D01*
X157366277Y-92900500D01*
X157366279Y-92900500D01*
X157468140Y-92873207D01*
X157468142Y-92873205D01*
X157468144Y-92873205D01*
X157559460Y-92820483D01*
X157559460Y-92820482D01*
X157559465Y-92820480D01*
X158720651Y-91659294D01*
X158775168Y-91631517D01*
X158790655Y-91630298D01*
X161438359Y-91630298D01*
X161496550Y-91649205D01*
X161532514Y-91698705D01*
X161532514Y-91759891D01*
X161508364Y-91799299D01*
X161486774Y-91820890D01*
X161466316Y-91841348D01*
X161351354Y-92013402D01*
X161272165Y-92204581D01*
X161231796Y-92407532D01*
X161231796Y-92614467D01*
X161272165Y-92817418D01*
X161351354Y-93008597D01*
X161466316Y-93180651D01*
X161466319Y-93180655D01*
X161485960Y-93200296D01*
X161513736Y-93254811D01*
X161504165Y-93315243D01*
X161460900Y-93358508D01*
X161415955Y-93369298D01*
X158636481Y-93369298D01*
X158531027Y-93369298D01*
X158489959Y-93380302D01*
X158429161Y-93396592D01*
X158337845Y-93449314D01*
X157176655Y-94610504D01*
X157122138Y-94638281D01*
X157106651Y-94639500D01*
X156788181Y-94639500D01*
X156750607Y-94632092D01*
X155582717Y-94152985D01*
X155565291Y-94143709D01*
X155529896Y-94120059D01*
X155338714Y-94040869D01*
X155338710Y-94040868D01*
X155286283Y-94030438D01*
X155286283Y-94030439D01*
X155279229Y-94029036D01*
X155270681Y-94026000D01*
X155268536Y-94025352D01*
X155260664Y-94023143D01*
X155247697Y-94022764D01*
X155239562Y-94021146D01*
X155239558Y-94021146D01*
X155135764Y-94000500D01*
X155135761Y-94000500D01*
X154928831Y-94000500D01*
X154928828Y-94000500D01*
X154725877Y-94040869D01*
X154534698Y-94120058D01*
X154362644Y-94235020D01*
X154216316Y-94381348D01*
X154101354Y-94553402D01*
X154022165Y-94744581D01*
X153981796Y-94947532D01*
X153981796Y-95154467D01*
X154022165Y-95357418D01*
X154101354Y-95548597D01*
X154216316Y-95720651D01*
X154216319Y-95720655D01*
X154362641Y-95866977D01*
X154534698Y-95981941D01*
X154725876Y-96061130D01*
X154928831Y-96101500D01*
X154928832Y-96101500D01*
X155135760Y-96101500D01*
X155135761Y-96101500D01*
X155338716Y-96061130D01*
X155529894Y-95981941D01*
X155571310Y-95954266D01*
X155589956Y-95945325D01*
X155589738Y-95944813D01*
X156751095Y-95448466D01*
X156790002Y-95440500D01*
X157366277Y-95440500D01*
X157366279Y-95440500D01*
X157468140Y-95413207D01*
X157468142Y-95413205D01*
X157468144Y-95413205D01*
X157559460Y-95360483D01*
X157559460Y-95360482D01*
X157559465Y-95360480D01*
X158720651Y-94199294D01*
X158775168Y-94171517D01*
X158790655Y-94170298D01*
X161438359Y-94170298D01*
X161496550Y-94189205D01*
X161532514Y-94238705D01*
X161532514Y-94299891D01*
X161508364Y-94339299D01*
X161486774Y-94360890D01*
X161466316Y-94381348D01*
X161351354Y-94553402D01*
X161272165Y-94744581D01*
X161231796Y-94947532D01*
X161231796Y-95154467D01*
X161272165Y-95357418D01*
X161351354Y-95548597D01*
X161466316Y-95720651D01*
X161466319Y-95720655D01*
X161485960Y-95740296D01*
X161513736Y-95794811D01*
X161504165Y-95855243D01*
X161460900Y-95898508D01*
X161415955Y-95909298D01*
X158636481Y-95909298D01*
X158531027Y-95909298D01*
X158489959Y-95920302D01*
X158429161Y-95936592D01*
X158337845Y-95989314D01*
X157176655Y-97150504D01*
X157122138Y-97178281D01*
X157106651Y-97179500D01*
X156788181Y-97179500D01*
X156750607Y-97172092D01*
X155582717Y-96692985D01*
X155565291Y-96683709D01*
X155529896Y-96660059D01*
X155338714Y-96580869D01*
X155338710Y-96580868D01*
X155286283Y-96570438D01*
X155286283Y-96570439D01*
X155279229Y-96569036D01*
X155270681Y-96566000D01*
X155268536Y-96565352D01*
X155260664Y-96563143D01*
X155247697Y-96562764D01*
X155239562Y-96561146D01*
X155239558Y-96561146D01*
X155135764Y-96540500D01*
X155135761Y-96540500D01*
X154928831Y-96540500D01*
X154928828Y-96540500D01*
X154725877Y-96580869D01*
X154534698Y-96660058D01*
X154362644Y-96775020D01*
X154216316Y-96921348D01*
X154101354Y-97093402D01*
X154022165Y-97284581D01*
X153981796Y-97487532D01*
X153981796Y-97694467D01*
X154022165Y-97897418D01*
X154101354Y-98088597D01*
X154216316Y-98260651D01*
X154216319Y-98260655D01*
X154362641Y-98406977D01*
X154534698Y-98521941D01*
X154725876Y-98601130D01*
X154928831Y-98641500D01*
X154928832Y-98641500D01*
X155135760Y-98641500D01*
X155135761Y-98641500D01*
X155338716Y-98601130D01*
X155529894Y-98521941D01*
X155571310Y-98494266D01*
X155589956Y-98485325D01*
X155589738Y-98484813D01*
X156751095Y-97988466D01*
X156790002Y-97980500D01*
X157366277Y-97980500D01*
X157366279Y-97980500D01*
X157468140Y-97953207D01*
X157468142Y-97953205D01*
X157468144Y-97953205D01*
X157559460Y-97900483D01*
X157559460Y-97900482D01*
X157559465Y-97900480D01*
X158720651Y-96739294D01*
X158775168Y-96711517D01*
X158790655Y-96710298D01*
X161438359Y-96710298D01*
X161496550Y-96729205D01*
X161532514Y-96778705D01*
X161532514Y-96839891D01*
X161508364Y-96879299D01*
X161486774Y-96900890D01*
X161466316Y-96921348D01*
X161351354Y-97093402D01*
X161272165Y-97284581D01*
X161231796Y-97487532D01*
X161231796Y-97694467D01*
X161272165Y-97897418D01*
X161351354Y-98088597D01*
X161466316Y-98260651D01*
X161466319Y-98260655D01*
X161485960Y-98280296D01*
X161513736Y-98334811D01*
X161504165Y-98395243D01*
X161460900Y-98438508D01*
X161415955Y-98449298D01*
X158636481Y-98449298D01*
X158531027Y-98449298D01*
X158489959Y-98460302D01*
X158429161Y-98476592D01*
X158337845Y-98529314D01*
X157176655Y-99690504D01*
X157122138Y-99718281D01*
X157106651Y-99719500D01*
X156788181Y-99719500D01*
X156750607Y-99712092D01*
X155582717Y-99232985D01*
X155565291Y-99223709D01*
X155529896Y-99200059D01*
X155338714Y-99120869D01*
X155338710Y-99120868D01*
X155286283Y-99110438D01*
X155286283Y-99110439D01*
X155279229Y-99109036D01*
X155270681Y-99106000D01*
X155268536Y-99105352D01*
X155260664Y-99103143D01*
X155247697Y-99102764D01*
X155239562Y-99101146D01*
X155239558Y-99101146D01*
X155135764Y-99080500D01*
X155135761Y-99080500D01*
X154928831Y-99080500D01*
X154928828Y-99080500D01*
X154725877Y-99120869D01*
X154534698Y-99200058D01*
X154362644Y-99315020D01*
X154216316Y-99461348D01*
X154101354Y-99633402D01*
X154022165Y-99824581D01*
X153981796Y-100027532D01*
X153981796Y-100234467D01*
X154022165Y-100437418D01*
X154101354Y-100628597D01*
X154216316Y-100800651D01*
X154216319Y-100800655D01*
X154362641Y-100946977D01*
X154534698Y-101061941D01*
X154725876Y-101141130D01*
X154928831Y-101181500D01*
X154928832Y-101181500D01*
X155135760Y-101181500D01*
X155135761Y-101181500D01*
X155338716Y-101141130D01*
X155529894Y-101061941D01*
X155571310Y-101034266D01*
X155589956Y-101025325D01*
X155589738Y-101024813D01*
X156751095Y-100528466D01*
X156790002Y-100520500D01*
X157366277Y-100520500D01*
X157366279Y-100520500D01*
X157468140Y-100493207D01*
X157468142Y-100493205D01*
X157468144Y-100493205D01*
X157559460Y-100440483D01*
X157559460Y-100440482D01*
X157559465Y-100440480D01*
X158720651Y-99279294D01*
X158775168Y-99251517D01*
X158790655Y-99250298D01*
X161438359Y-99250298D01*
X161496550Y-99269205D01*
X161532514Y-99318705D01*
X161532514Y-99379891D01*
X161508364Y-99419299D01*
X161486774Y-99440890D01*
X161466316Y-99461348D01*
X161351354Y-99633402D01*
X161272165Y-99824581D01*
X161231796Y-100027532D01*
X161231796Y-100234467D01*
X161272165Y-100437418D01*
X161351354Y-100628597D01*
X161466316Y-100800651D01*
X161466319Y-100800655D01*
X161485960Y-100820296D01*
X161513736Y-100874811D01*
X161504165Y-100935243D01*
X161460900Y-100978508D01*
X161415955Y-100989298D01*
X158636481Y-100989298D01*
X158531027Y-100989298D01*
X158489959Y-101000302D01*
X158429161Y-101016592D01*
X158337845Y-101069314D01*
X157176655Y-102230504D01*
X157122138Y-102258281D01*
X157106651Y-102259500D01*
X156788181Y-102259500D01*
X156750607Y-102252092D01*
X155582717Y-101772985D01*
X155565291Y-101763709D01*
X155529896Y-101740059D01*
X155338714Y-101660869D01*
X155338710Y-101660868D01*
X155286283Y-101650438D01*
X155286283Y-101650439D01*
X155279229Y-101649036D01*
X155270681Y-101646000D01*
X155268536Y-101645352D01*
X155260664Y-101643143D01*
X155247697Y-101642764D01*
X155239562Y-101641146D01*
X155239558Y-101641146D01*
X155135764Y-101620500D01*
X155135761Y-101620500D01*
X154928831Y-101620500D01*
X154928828Y-101620500D01*
X154725877Y-101660869D01*
X154534698Y-101740058D01*
X154362644Y-101855020D01*
X154216316Y-102001348D01*
X154101354Y-102173402D01*
X154022165Y-102364581D01*
X153981796Y-102567532D01*
X153981796Y-102774467D01*
X154022165Y-102977418D01*
X154101354Y-103168597D01*
X154216316Y-103340651D01*
X154216319Y-103340655D01*
X154362641Y-103486977D01*
X154534698Y-103601941D01*
X154725876Y-103681130D01*
X154928831Y-103721500D01*
X154928832Y-103721500D01*
X155135760Y-103721500D01*
X155135761Y-103721500D01*
X155338716Y-103681130D01*
X155529894Y-103601941D01*
X155571310Y-103574266D01*
X155589956Y-103565325D01*
X155589738Y-103564813D01*
X156751095Y-103068466D01*
X156790002Y-103060500D01*
X157366277Y-103060500D01*
X157366279Y-103060500D01*
X157468140Y-103033207D01*
X157468142Y-103033205D01*
X157468144Y-103033205D01*
X157559460Y-102980483D01*
X157559460Y-102980482D01*
X157559465Y-102980480D01*
X158720651Y-101819294D01*
X158775168Y-101791517D01*
X158790655Y-101790298D01*
X161438359Y-101790298D01*
X161496550Y-101809205D01*
X161532514Y-101858705D01*
X161532514Y-101919891D01*
X161508364Y-101959299D01*
X161486774Y-101980890D01*
X161466316Y-102001348D01*
X161351354Y-102173402D01*
X161272165Y-102364581D01*
X161231796Y-102567532D01*
X161231796Y-102774467D01*
X161272165Y-102977418D01*
X161351354Y-103168597D01*
X161466316Y-103340651D01*
X161466319Y-103340655D01*
X161485960Y-103360296D01*
X161513736Y-103414811D01*
X161504165Y-103475243D01*
X161460900Y-103518508D01*
X161415955Y-103529298D01*
X158636481Y-103529298D01*
X158531027Y-103529298D01*
X158489959Y-103540302D01*
X158429161Y-103556592D01*
X158337845Y-103609314D01*
X157176655Y-104770504D01*
X157122138Y-104798281D01*
X157106651Y-104799500D01*
X156788181Y-104799500D01*
X156750607Y-104792092D01*
X155582717Y-104312985D01*
X155565291Y-104303709D01*
X155529896Y-104280059D01*
X155338714Y-104200869D01*
X155338710Y-104200868D01*
X155286283Y-104190438D01*
X155286283Y-104190439D01*
X155279229Y-104189036D01*
X155270681Y-104186000D01*
X155268536Y-104185352D01*
X155260664Y-104183143D01*
X155247697Y-104182764D01*
X155239562Y-104181146D01*
X155239558Y-104181146D01*
X155135764Y-104160500D01*
X155135761Y-104160500D01*
X154928831Y-104160500D01*
X154928828Y-104160500D01*
X154725877Y-104200869D01*
X154534698Y-104280058D01*
X154362644Y-104395020D01*
X154216316Y-104541348D01*
X154101354Y-104713402D01*
X154022165Y-104904581D01*
X153981796Y-105107532D01*
X153981796Y-105314467D01*
X154022165Y-105517418D01*
X154101354Y-105708597D01*
X154216316Y-105880651D01*
X154216319Y-105880655D01*
X154362641Y-106026977D01*
X154534698Y-106141941D01*
X154725876Y-106221130D01*
X154928831Y-106261500D01*
X154928832Y-106261500D01*
X155135760Y-106261500D01*
X155135761Y-106261500D01*
X155338716Y-106221130D01*
X155529894Y-106141941D01*
X155571310Y-106114266D01*
X155589956Y-106105325D01*
X155589738Y-106104813D01*
X156751095Y-105608466D01*
X156790002Y-105600500D01*
X157366277Y-105600500D01*
X157366279Y-105600500D01*
X157468140Y-105573207D01*
X157468142Y-105573205D01*
X157468144Y-105573205D01*
X157559460Y-105520483D01*
X157559460Y-105520482D01*
X157559465Y-105520480D01*
X158720651Y-104359294D01*
X158775168Y-104331517D01*
X158790655Y-104330298D01*
X161438359Y-104330298D01*
X161496550Y-104349205D01*
X161532514Y-104398705D01*
X161532514Y-104459891D01*
X161508364Y-104499299D01*
X161486774Y-104520890D01*
X161466316Y-104541348D01*
X161351354Y-104713402D01*
X161272165Y-104904581D01*
X161231796Y-105107532D01*
X161231796Y-105314467D01*
X161272165Y-105517418D01*
X161351354Y-105708597D01*
X161466316Y-105880651D01*
X161466319Y-105880655D01*
X161495960Y-105910296D01*
X161523736Y-105964811D01*
X161514165Y-106025243D01*
X161470900Y-106068508D01*
X161425955Y-106079298D01*
X158636481Y-106079298D01*
X158531027Y-106079298D01*
X158488873Y-106090593D01*
X158429161Y-106106592D01*
X158337845Y-106159314D01*
X157176655Y-107320504D01*
X157122138Y-107348281D01*
X157106651Y-107349500D01*
X156788948Y-107349500D01*
X156750808Y-107341858D01*
X155589198Y-106856908D01*
X155589381Y-106856468D01*
X155570685Y-106847315D01*
X155559824Y-106840058D01*
X155529894Y-106820059D01*
X155529895Y-106820059D01*
X155529893Y-106820058D01*
X155338714Y-106740869D01*
X155135763Y-106700500D01*
X155135761Y-106700500D01*
X154928831Y-106700500D01*
X154928828Y-106700500D01*
X154725877Y-106740869D01*
X154534698Y-106820058D01*
X154362644Y-106935020D01*
X154216316Y-107081348D01*
X154101354Y-107253402D01*
X154022165Y-107444581D01*
X153981796Y-107647532D01*
X153981796Y-107854467D01*
X154022165Y-108057418D01*
X154101354Y-108248597D01*
X154216316Y-108420651D01*
X154216319Y-108420655D01*
X154362641Y-108566977D01*
X154534698Y-108681941D01*
X154725876Y-108761130D01*
X154928831Y-108801500D01*
X154928832Y-108801500D01*
X155135760Y-108801500D01*
X155135761Y-108801500D01*
X155338716Y-108761130D01*
X155529894Y-108681941D01*
X155570618Y-108654730D01*
X155588668Y-108646157D01*
X155588364Y-108645431D01*
X155592848Y-108643551D01*
X155592851Y-108643551D01*
X156639538Y-108204852D01*
X156750857Y-108158195D01*
X156789126Y-108150500D01*
X157366277Y-108150500D01*
X157366279Y-108150500D01*
X157468140Y-108123207D01*
X157468142Y-108123205D01*
X157468144Y-108123205D01*
X157559460Y-108070483D01*
X157559460Y-108070482D01*
X157559465Y-108070480D01*
X158720651Y-106909294D01*
X158775168Y-106881517D01*
X158790655Y-106880298D01*
X161428359Y-106880298D01*
X161486550Y-106899205D01*
X161522514Y-106948705D01*
X161522514Y-107009891D01*
X161498364Y-107049299D01*
X161477008Y-107070656D01*
X161466316Y-107081348D01*
X161351354Y-107253402D01*
X161272165Y-107444581D01*
X161231796Y-107647532D01*
X161231796Y-107854467D01*
X161272165Y-108057418D01*
X161351354Y-108248597D01*
X161466316Y-108420651D01*
X161466319Y-108420655D01*
X161505960Y-108460296D01*
X161533736Y-108514811D01*
X161524165Y-108575243D01*
X161480900Y-108618508D01*
X161435955Y-108629298D01*
X158636481Y-108629298D01*
X158531027Y-108629298D01*
X158471600Y-108645221D01*
X158429161Y-108656592D01*
X158337845Y-108709314D01*
X157176655Y-109870504D01*
X157122138Y-109898281D01*
X157106651Y-109899500D01*
X156789829Y-109899500D01*
X156751049Y-109891589D01*
X156567397Y-109813402D01*
X155593942Y-109398968D01*
X155593935Y-109398966D01*
X155590536Y-109397519D01*
X155590642Y-109397267D01*
X155571286Y-109387716D01*
X155529893Y-109360058D01*
X155338714Y-109280869D01*
X155135763Y-109240500D01*
X155135761Y-109240500D01*
X154928831Y-109240500D01*
X154928828Y-109240500D01*
X154725877Y-109280869D01*
X154534698Y-109360058D01*
X154362644Y-109475020D01*
X154216316Y-109621348D01*
X154101354Y-109793402D01*
X154022165Y-109984581D01*
X153981796Y-110187532D01*
X153981796Y-110394467D01*
X154022165Y-110597418D01*
X154101354Y-110788597D01*
X154184521Y-110913066D01*
X154216319Y-110960655D01*
X154362641Y-111106977D01*
X154534698Y-111221941D01*
X154725876Y-111301130D01*
X154928831Y-111341500D01*
X154928832Y-111341500D01*
X155135760Y-111341500D01*
X155135761Y-111341500D01*
X155338716Y-111301130D01*
X155529894Y-111221941D01*
X155566867Y-111197235D01*
X155584190Y-111188001D01*
X156357977Y-110869551D01*
X156750643Y-110707950D01*
X156788320Y-110700500D01*
X157366277Y-110700500D01*
X157366279Y-110700500D01*
X157468140Y-110673207D01*
X157468142Y-110673205D01*
X157468144Y-110673205D01*
X157559460Y-110620483D01*
X157559460Y-110620482D01*
X157559465Y-110620480D01*
X158720651Y-109459294D01*
X158775168Y-109431517D01*
X158790655Y-109430298D01*
X161418359Y-109430298D01*
X161476550Y-109449205D01*
X161512514Y-109498705D01*
X161512514Y-109559891D01*
X161488364Y-109599299D01*
X161467277Y-109620387D01*
X161466316Y-109621348D01*
X161351354Y-109793402D01*
X161272165Y-109984581D01*
X161231796Y-110187532D01*
X161231796Y-110394467D01*
X161272165Y-110597418D01*
X161351354Y-110788597D01*
X161434521Y-110913066D01*
X161466319Y-110960655D01*
X161612641Y-111106977D01*
X161784698Y-111221941D01*
X161975876Y-111301130D01*
X162178831Y-111341500D01*
X162178832Y-111341500D01*
X162385760Y-111341500D01*
X162385761Y-111341500D01*
X162588716Y-111301130D01*
X162779894Y-111221941D01*
X162816867Y-111197235D01*
X162834190Y-111188001D01*
X163607977Y-110869551D01*
X164000643Y-110707950D01*
X164038320Y-110700500D01*
X176627378Y-110700500D01*
X176685569Y-110719407D01*
X176697382Y-110729496D01*
X177823797Y-111855910D01*
X177823799Y-111855913D01*
X177898366Y-111930480D01*
X177944029Y-111956843D01*
X177989691Y-111983207D01*
X178091552Y-112010500D01*
X178091554Y-112010500D01*
X182208446Y-112010500D01*
X182208448Y-112010500D01*
X182310309Y-111983207D01*
X182310311Y-111983205D01*
X182310313Y-111983205D01*
X182355972Y-111956843D01*
X182401634Y-111930480D01*
X182501241Y-111830871D01*
X182534220Y-111809062D01*
X183270144Y-111512380D01*
X183703940Y-111337500D01*
X183704045Y-111337762D01*
X183724451Y-111330835D01*
X183773247Y-111321130D01*
X183964425Y-111241941D01*
X184136482Y-111126977D01*
X184282804Y-110980655D01*
X184397768Y-110808598D01*
X184476957Y-110617420D01*
X184517327Y-110414465D01*
X184517327Y-110207535D01*
X184476957Y-110004580D01*
X184397768Y-109813402D01*
X184282804Y-109641345D01*
X184136482Y-109495023D01*
X184106550Y-109475023D01*
X183964424Y-109380058D01*
X183773245Y-109300869D01*
X183570294Y-109260500D01*
X183570292Y-109260500D01*
X183363362Y-109260500D01*
X183363359Y-109260500D01*
X183160408Y-109300869D01*
X182969229Y-109380058D01*
X182797175Y-109495020D01*
X182650847Y-109641348D01*
X182535885Y-109813402D01*
X182456698Y-110004576D01*
X182456694Y-110004589D01*
X182447940Y-110048596D01*
X182442230Y-110067351D01*
X181991804Y-111148571D01*
X181951973Y-111195016D01*
X181900417Y-111209500D01*
X181752966Y-111209500D01*
X181694775Y-111190593D01*
X181658811Y-111141093D01*
X181658811Y-111079907D01*
X181682960Y-111040498D01*
X181742804Y-110980655D01*
X181857768Y-110808598D01*
X181936957Y-110617420D01*
X181977327Y-110414465D01*
X181977327Y-110207535D01*
X181936957Y-110004580D01*
X181857768Y-109813402D01*
X181742804Y-109641345D01*
X181730960Y-109629501D01*
X181703185Y-109574987D01*
X181712756Y-109514555D01*
X181756021Y-109471290D01*
X181800966Y-109460500D01*
X182208446Y-109460500D01*
X182208448Y-109460500D01*
X182310309Y-109433207D01*
X182310311Y-109433205D01*
X182310313Y-109433205D01*
X182337443Y-109417540D01*
X182401634Y-109380480D01*
X182495800Y-109286312D01*
X182529232Y-109264321D01*
X183699504Y-108799232D01*
X183699512Y-108799226D01*
X183699880Y-108799048D01*
X183700456Y-108798853D01*
X183702972Y-108797854D01*
X183703025Y-108797988D01*
X183723961Y-108790932D01*
X183773247Y-108781130D01*
X183964425Y-108701941D01*
X184136482Y-108586977D01*
X184282804Y-108440655D01*
X184397768Y-108268598D01*
X184476957Y-108077420D01*
X184517327Y-107874465D01*
X184517327Y-107667535D01*
X184476957Y-107464580D01*
X184397768Y-107273402D01*
X184282804Y-107101345D01*
X184136482Y-106955023D01*
X184136478Y-106955020D01*
X183964424Y-106840058D01*
X183773245Y-106760869D01*
X183570294Y-106720500D01*
X183570292Y-106720500D01*
X183363362Y-106720500D01*
X183363359Y-106720500D01*
X183160408Y-106760869D01*
X182969229Y-106840058D01*
X182797175Y-106955020D01*
X182650847Y-107101348D01*
X182535885Y-107273402D01*
X182456696Y-107464581D01*
X182456694Y-107464587D01*
X182449234Y-107502092D01*
X182443371Y-107521212D01*
X181989348Y-108598935D01*
X181949333Y-108645221D01*
X181898114Y-108659500D01*
X181762966Y-108659500D01*
X181704775Y-108640593D01*
X181668811Y-108591093D01*
X181668811Y-108529907D01*
X181692960Y-108490498D01*
X181742804Y-108440655D01*
X181857768Y-108268598D01*
X181936957Y-108077420D01*
X181977327Y-107874465D01*
X181977327Y-107667535D01*
X181936957Y-107464580D01*
X181857768Y-107273402D01*
X181742804Y-107101345D01*
X181720960Y-107079501D01*
X181693185Y-107024987D01*
X181702756Y-106964555D01*
X181746021Y-106921290D01*
X181790966Y-106910500D01*
X182208446Y-106910500D01*
X182208448Y-106910500D01*
X182310309Y-106883207D01*
X182310311Y-106883205D01*
X182310313Y-106883205D01*
X182401634Y-106830480D01*
X182412056Y-106820058D01*
X182490355Y-106741757D01*
X182524242Y-106719585D01*
X183698502Y-106259577D01*
X183698515Y-106259569D01*
X183699779Y-106258960D01*
X183701827Y-106258274D01*
X183702005Y-106258205D01*
X183702008Y-106258213D01*
X183723484Y-106251027D01*
X183773247Y-106241130D01*
X183964425Y-106161941D01*
X184136482Y-106046977D01*
X184282804Y-105900655D01*
X184397768Y-105728598D01*
X184476957Y-105537420D01*
X184517327Y-105334465D01*
X184517327Y-105127535D01*
X184476957Y-104924580D01*
X184397768Y-104733402D01*
X184282804Y-104561345D01*
X184136482Y-104415023D01*
X184136478Y-104415020D01*
X183964424Y-104300058D01*
X183773245Y-104220869D01*
X183570294Y-104180500D01*
X183570292Y-104180500D01*
X183363362Y-104180500D01*
X183363359Y-104180500D01*
X183160408Y-104220869D01*
X182969229Y-104300058D01*
X182797175Y-104415020D01*
X182650847Y-104561348D01*
X182535885Y-104733402D01*
X182456696Y-104924581D01*
X182456695Y-104924584D01*
X182450485Y-104955802D01*
X182444468Y-104975285D01*
X181986937Y-106049300D01*
X181946736Y-106095425D01*
X181895857Y-106109500D01*
X181772966Y-106109500D01*
X181714775Y-106090593D01*
X181678811Y-106041093D01*
X181678811Y-105979907D01*
X181702960Y-105940498D01*
X181742804Y-105900655D01*
X181857768Y-105728598D01*
X181936957Y-105537420D01*
X181977327Y-105334465D01*
X181977327Y-105127535D01*
X181936957Y-104924580D01*
X181857768Y-104733402D01*
X181742804Y-104561345D01*
X181720960Y-104539501D01*
X181693185Y-104484987D01*
X181702756Y-104424555D01*
X181746021Y-104381290D01*
X181790966Y-104370500D01*
X182208446Y-104370500D01*
X182208448Y-104370500D01*
X182310309Y-104343207D01*
X182310311Y-104343205D01*
X182310313Y-104343205D01*
X182401634Y-104290480D01*
X182412056Y-104280058D01*
X182490355Y-104201757D01*
X182524242Y-104179585D01*
X183698502Y-103719577D01*
X183698515Y-103719569D01*
X183699779Y-103718960D01*
X183701827Y-103718274D01*
X183702005Y-103718205D01*
X183702008Y-103718213D01*
X183723484Y-103711027D01*
X183773247Y-103701130D01*
X183964425Y-103621941D01*
X184136482Y-103506977D01*
X184282804Y-103360655D01*
X184397768Y-103188598D01*
X184476957Y-102997420D01*
X184517327Y-102794465D01*
X184517327Y-102587535D01*
X184476957Y-102384580D01*
X184397768Y-102193402D01*
X184282804Y-102021345D01*
X184136482Y-101875023D01*
X184136478Y-101875020D01*
X183964424Y-101760058D01*
X183773245Y-101680869D01*
X183570294Y-101640500D01*
X183570292Y-101640500D01*
X183363362Y-101640500D01*
X183363359Y-101640500D01*
X183160408Y-101680869D01*
X182969229Y-101760058D01*
X182797175Y-101875020D01*
X182650847Y-102021348D01*
X182535885Y-102193402D01*
X182456696Y-102384581D01*
X182456695Y-102384584D01*
X182450485Y-102415802D01*
X182444468Y-102435285D01*
X181986937Y-103509300D01*
X181946736Y-103555425D01*
X181895857Y-103569500D01*
X181772966Y-103569500D01*
X181714775Y-103550593D01*
X181678811Y-103501093D01*
X181678811Y-103439907D01*
X181702960Y-103400498D01*
X181742804Y-103360655D01*
X181857768Y-103188598D01*
X181936957Y-102997420D01*
X181977327Y-102794465D01*
X181977327Y-102587535D01*
X181936957Y-102384580D01*
X181857768Y-102193402D01*
X181742804Y-102021345D01*
X181720960Y-101999501D01*
X181693185Y-101944987D01*
X181702756Y-101884555D01*
X181746021Y-101841290D01*
X181790966Y-101830500D01*
X182208446Y-101830500D01*
X182208448Y-101830500D01*
X182310309Y-101803207D01*
X182310311Y-101803205D01*
X182310313Y-101803205D01*
X182401634Y-101750480D01*
X182412056Y-101740058D01*
X182490355Y-101661757D01*
X182524242Y-101639585D01*
X183698502Y-101179577D01*
X183698515Y-101179569D01*
X183699779Y-101178960D01*
X183701827Y-101178274D01*
X183702005Y-101178205D01*
X183702008Y-101178213D01*
X183723484Y-101171027D01*
X183773247Y-101161130D01*
X183964425Y-101081941D01*
X184136482Y-100966977D01*
X184282804Y-100820655D01*
X184397768Y-100648598D01*
X184476957Y-100457420D01*
X184517327Y-100254465D01*
X184517327Y-100047535D01*
X184476957Y-99844580D01*
X184397768Y-99653402D01*
X184282804Y-99481345D01*
X184136482Y-99335023D01*
X184136478Y-99335020D01*
X183964424Y-99220058D01*
X183773245Y-99140869D01*
X183570294Y-99100500D01*
X183570292Y-99100500D01*
X183363362Y-99100500D01*
X183363359Y-99100500D01*
X183160408Y-99140869D01*
X182969229Y-99220058D01*
X182797175Y-99335020D01*
X182650847Y-99481348D01*
X182535885Y-99653402D01*
X182456696Y-99844581D01*
X182456695Y-99844584D01*
X182450485Y-99875802D01*
X182444468Y-99895285D01*
X181986937Y-100969300D01*
X181946736Y-101015425D01*
X181895857Y-101029500D01*
X181772966Y-101029500D01*
X181714775Y-101010593D01*
X181678811Y-100961093D01*
X181678811Y-100899907D01*
X181702960Y-100860498D01*
X181742804Y-100820655D01*
X181857768Y-100648598D01*
X181936957Y-100457420D01*
X181977327Y-100254465D01*
X181977327Y-100047535D01*
X181936957Y-99844580D01*
X181857768Y-99653402D01*
X181742804Y-99481345D01*
X181720960Y-99459501D01*
X181693185Y-99404987D01*
X181702756Y-99344555D01*
X181746021Y-99301290D01*
X181790966Y-99290500D01*
X182208446Y-99290500D01*
X182208448Y-99290500D01*
X182310309Y-99263207D01*
X182310311Y-99263205D01*
X182310313Y-99263205D01*
X182401634Y-99210480D01*
X182412056Y-99200058D01*
X182490355Y-99121757D01*
X182524242Y-99099585D01*
X183698502Y-98639577D01*
X183698515Y-98639569D01*
X183699779Y-98638960D01*
X183701827Y-98638274D01*
X183702005Y-98638205D01*
X183702008Y-98638213D01*
X183723484Y-98631027D01*
X183773247Y-98621130D01*
X183964425Y-98541941D01*
X184136482Y-98426977D01*
X184282804Y-98280655D01*
X184397768Y-98108598D01*
X184476957Y-97917420D01*
X184517327Y-97714465D01*
X184517327Y-97507535D01*
X184476957Y-97304580D01*
X184397768Y-97113402D01*
X184282804Y-96941345D01*
X184136482Y-96795023D01*
X184136478Y-96795020D01*
X183964424Y-96680058D01*
X183773245Y-96600869D01*
X183570294Y-96560500D01*
X183570292Y-96560500D01*
X183363362Y-96560500D01*
X183363359Y-96560500D01*
X183160408Y-96600869D01*
X182969229Y-96680058D01*
X182797175Y-96795020D01*
X182650847Y-96941348D01*
X182535885Y-97113402D01*
X182456696Y-97304581D01*
X182456695Y-97304584D01*
X182450485Y-97335802D01*
X182444468Y-97355285D01*
X181986937Y-98429300D01*
X181946736Y-98475425D01*
X181895857Y-98489500D01*
X181772966Y-98489500D01*
X181714775Y-98470593D01*
X181678811Y-98421093D01*
X181678811Y-98359907D01*
X181702960Y-98320498D01*
X181742804Y-98280655D01*
X181857768Y-98108598D01*
X181936957Y-97917420D01*
X181977327Y-97714465D01*
X181977327Y-97507535D01*
X181936957Y-97304580D01*
X181857768Y-97113402D01*
X181742804Y-96941345D01*
X181720960Y-96919501D01*
X181693185Y-96864987D01*
X181702756Y-96804555D01*
X181746021Y-96761290D01*
X181790966Y-96750500D01*
X182208446Y-96750500D01*
X182208448Y-96750500D01*
X182310309Y-96723207D01*
X182310311Y-96723205D01*
X182310313Y-96723205D01*
X182401634Y-96670480D01*
X182412056Y-96660058D01*
X182490355Y-96581757D01*
X182524242Y-96559585D01*
X183698502Y-96099577D01*
X183698515Y-96099569D01*
X183699779Y-96098960D01*
X183701827Y-96098274D01*
X183702005Y-96098205D01*
X183702008Y-96098213D01*
X183723484Y-96091027D01*
X183773247Y-96081130D01*
X183964425Y-96001941D01*
X184136482Y-95886977D01*
X184282804Y-95740655D01*
X184397768Y-95568598D01*
X184476957Y-95377420D01*
X184517327Y-95174465D01*
X184517327Y-94967535D01*
X184476957Y-94764580D01*
X184397768Y-94573402D01*
X184282804Y-94401345D01*
X184136482Y-94255023D01*
X184136478Y-94255020D01*
X183964424Y-94140058D01*
X183773245Y-94060869D01*
X183570294Y-94020500D01*
X183570292Y-94020500D01*
X183363362Y-94020500D01*
X183363359Y-94020500D01*
X183160408Y-94060869D01*
X182969229Y-94140058D01*
X182797175Y-94255020D01*
X182650847Y-94401348D01*
X182535885Y-94573402D01*
X182456696Y-94764581D01*
X182456695Y-94764584D01*
X182450485Y-94795802D01*
X182444468Y-94815285D01*
X181986937Y-95889300D01*
X181946736Y-95935425D01*
X181895857Y-95949500D01*
X181772966Y-95949500D01*
X181714775Y-95930593D01*
X181678811Y-95881093D01*
X181678811Y-95819907D01*
X181702960Y-95780498D01*
X181742804Y-95740655D01*
X181857768Y-95568598D01*
X181936957Y-95377420D01*
X181977327Y-95174465D01*
X181977327Y-94967535D01*
X181936957Y-94764580D01*
X181857768Y-94573402D01*
X181742804Y-94401345D01*
X181720960Y-94379501D01*
X181693185Y-94324987D01*
X181702756Y-94264555D01*
X181746021Y-94221290D01*
X181790966Y-94210500D01*
X182208446Y-94210500D01*
X182208448Y-94210500D01*
X182310309Y-94183207D01*
X182310311Y-94183205D01*
X182310313Y-94183205D01*
X182401634Y-94130480D01*
X182412056Y-94120058D01*
X182490355Y-94041757D01*
X182524242Y-94019585D01*
X183698502Y-93559577D01*
X183698515Y-93559569D01*
X183699779Y-93558960D01*
X183701827Y-93558274D01*
X183702005Y-93558205D01*
X183702008Y-93558213D01*
X183723484Y-93551027D01*
X183773247Y-93541130D01*
X183964425Y-93461941D01*
X184136482Y-93346977D01*
X184282804Y-93200655D01*
X184397768Y-93028598D01*
X184476957Y-92837420D01*
X184517327Y-92634465D01*
X184517327Y-92427535D01*
X184476957Y-92224580D01*
X184397768Y-92033402D01*
X184282804Y-91861345D01*
X184136482Y-91715023D01*
X184136478Y-91715020D01*
X183964424Y-91600058D01*
X183773245Y-91520869D01*
X183570294Y-91480500D01*
X183570292Y-91480500D01*
X183363362Y-91480500D01*
X183363359Y-91480500D01*
X183160408Y-91520869D01*
X182969229Y-91600058D01*
X182797175Y-91715020D01*
X182650847Y-91861348D01*
X182535885Y-92033402D01*
X182456696Y-92224581D01*
X182456695Y-92224584D01*
X182450485Y-92255802D01*
X182444468Y-92275285D01*
X181986937Y-93349300D01*
X181946736Y-93395425D01*
X181895857Y-93409500D01*
X181772966Y-93409500D01*
X181714775Y-93390593D01*
X181678811Y-93341093D01*
X181678811Y-93279907D01*
X181702960Y-93240498D01*
X181742804Y-93200655D01*
X181857768Y-93028598D01*
X181936957Y-92837420D01*
X181977327Y-92634465D01*
X181977327Y-92427535D01*
X181936957Y-92224580D01*
X181857768Y-92033402D01*
X181742804Y-91861345D01*
X181720960Y-91839501D01*
X181693185Y-91784987D01*
X181702756Y-91724555D01*
X181746021Y-91681290D01*
X181790966Y-91670500D01*
X182208446Y-91670500D01*
X182208448Y-91670500D01*
X182310309Y-91643207D01*
X182310311Y-91643205D01*
X182310313Y-91643205D01*
X182401634Y-91590480D01*
X182412056Y-91580058D01*
X182490355Y-91501757D01*
X182524242Y-91479585D01*
X183698502Y-91019577D01*
X183698515Y-91019569D01*
X183699779Y-91018960D01*
X183701827Y-91018274D01*
X183702005Y-91018205D01*
X183702008Y-91018213D01*
X183723484Y-91011027D01*
X183773247Y-91001130D01*
X183964425Y-90921941D01*
X184136482Y-90806977D01*
X184282804Y-90660655D01*
X184397768Y-90488598D01*
X184476957Y-90297420D01*
X184517327Y-90094465D01*
X184517327Y-89887535D01*
X184476957Y-89684580D01*
X184397768Y-89493402D01*
X184282804Y-89321345D01*
X184136482Y-89175023D01*
X184136478Y-89175020D01*
X183964424Y-89060058D01*
X183773245Y-88980869D01*
X183724823Y-88971238D01*
X183671439Y-88941341D01*
X183645823Y-88885776D01*
X183657760Y-88825766D01*
X183702690Y-88784234D01*
X183728650Y-88776359D01*
X183782948Y-88767759D01*
X183985042Y-88702095D01*
X184174383Y-88605620D01*
X184228543Y-88566270D01*
X183596235Y-87933962D01*
X183659820Y-87916925D01*
X183773834Y-87851099D01*
X183866926Y-87758007D01*
X183932752Y-87643993D01*
X183949789Y-87580408D01*
X184582097Y-88212716D01*
X184621447Y-88158556D01*
X184717922Y-87969215D01*
X184783586Y-87767121D01*
X184816827Y-87557250D01*
X184816827Y-87344749D01*
X184783586Y-87134878D01*
X184717922Y-86932784D01*
X184621450Y-86743446D01*
X184621446Y-86743440D01*
X184582097Y-86689282D01*
X184582096Y-86689282D01*
X183949789Y-87321589D01*
X183932752Y-87258007D01*
X183866926Y-87143993D01*
X183773834Y-87050901D01*
X183659820Y-86985075D01*
X183596234Y-86968037D01*
X184228543Y-86335729D01*
X184228543Y-86335728D01*
X184174386Y-86296380D01*
X184174380Y-86296376D01*
X183985042Y-86199904D01*
X183782948Y-86134240D01*
X183573077Y-86101000D01*
X183360577Y-86101000D01*
X183150705Y-86134240D01*
X182948611Y-86199904D01*
X182759273Y-86296376D01*
X182759269Y-86296378D01*
X182705109Y-86335728D01*
X183337418Y-86968037D01*
X183273834Y-86985075D01*
X183159820Y-87050901D01*
X183066728Y-87143993D01*
X183000902Y-87258007D01*
X182983864Y-87321591D01*
X182351555Y-86689282D01*
X182312205Y-86743442D01*
X182312203Y-86743446D01*
X182215731Y-86932784D01*
X182170482Y-87072049D01*
X182134518Y-87121549D01*
X182076327Y-87140456D01*
X182018136Y-87121549D01*
X181982172Y-87072049D01*
X181977327Y-87041456D01*
X181977327Y-86581253D01*
X181977325Y-86581241D01*
X181973349Y-86561252D01*
X181965694Y-86522769D01*
X181921379Y-86456448D01*
X181920369Y-86455773D01*
X181855060Y-86412134D01*
X181855058Y-86412133D01*
X181855055Y-86412132D01*
X181855054Y-86412132D01*
X181796585Y-86400501D01*
X181796575Y-86400500D01*
X180057079Y-86400500D01*
X180057078Y-86400500D01*
X180057068Y-86400501D01*
X179998599Y-86412132D01*
X179998593Y-86412134D01*
X179932273Y-86456448D01*
X179929276Y-86459445D01*
X179911172Y-86478880D01*
X179473430Y-86818542D01*
X179238811Y-87000593D01*
X179176793Y-87048715D01*
X179119228Y-87069451D01*
X179116102Y-87069500D01*
X178380431Y-87069500D01*
X178322240Y-87050593D01*
X178310427Y-87040504D01*
X177350923Y-86081000D01*
X176009444Y-84739520D01*
X176009441Y-84739518D01*
X176009439Y-84739516D01*
X175918122Y-84686794D01*
X175918124Y-84686794D01*
X175878601Y-84676204D01*
X175816258Y-84659500D01*
X159726279Y-84659500D01*
X159620825Y-84659500D01*
X159558481Y-84676204D01*
X159518959Y-84686794D01*
X159427643Y-84739516D01*
X157176655Y-86990504D01*
X157122138Y-87018281D01*
X157106651Y-87019500D01*
X156840638Y-87019500D01*
X156782447Y-87000593D01*
X156781149Y-86999633D01*
X156013894Y-86422838D01*
X156013889Y-86422835D01*
X155991637Y-86411147D01*
X155991630Y-86411144D01*
X155979247Y-86404641D01*
X155960527Y-86392133D01*
X155902044Y-86380500D01*
X155899829Y-86380500D01*
X155895053Y-86379583D01*
X155893073Y-86379917D01*
X155892060Y-86379597D01*
X155881316Y-86380500D01*
X154162548Y-86380500D01*
X154162547Y-86380500D01*
X154162537Y-86380501D01*
X154104068Y-86392132D01*
X154104062Y-86392134D01*
X154037747Y-86436445D01*
X154037741Y-86436451D01*
X153993430Y-86502766D01*
X153993428Y-86502772D01*
X153981797Y-86561241D01*
X153981796Y-86561253D01*
X141482077Y-86561253D01*
X141420424Y-86520058D01*
X141229245Y-86440869D01*
X141026294Y-86400500D01*
X141026292Y-86400500D01*
X140819362Y-86400500D01*
X140819359Y-86400500D01*
X140616408Y-86440869D01*
X140425229Y-86520058D01*
X140253175Y-86635020D01*
X140106847Y-86781348D01*
X139991885Y-86953402D01*
X139912696Y-87144581D01*
X139872327Y-87347532D01*
X139872327Y-87554467D01*
X139878703Y-87586520D01*
X139871511Y-87647282D01*
X139857854Y-87668977D01*
X139608576Y-87969993D01*
X139556899Y-88002752D01*
X139495836Y-87998879D01*
X139448712Y-87959855D01*
X139433327Y-87906850D01*
X139433327Y-86581253D01*
X139433325Y-86581241D01*
X139429349Y-86561252D01*
X139421694Y-86522769D01*
X139377379Y-86456448D01*
X139376369Y-86455773D01*
X139311060Y-86412134D01*
X139311058Y-86412133D01*
X139311055Y-86412132D01*
X139311054Y-86412132D01*
X139252585Y-86400501D01*
X139252575Y-86400500D01*
X139252574Y-86400500D01*
X138818224Y-86400500D01*
X138760033Y-86381593D01*
X138757183Y-86379442D01*
X137596986Y-85470820D01*
X137596981Y-85470816D01*
X137594817Y-85469638D01*
X137572136Y-85452686D01*
X135810949Y-83691499D01*
X135810946Y-83691496D01*
X135766597Y-83661862D01*
X135655275Y-83587478D01*
X135655263Y-83587472D01*
X135543665Y-83541248D01*
X135543664Y-83541247D01*
X135537907Y-83538863D01*
X135482289Y-83515825D01*
X135369872Y-83493464D01*
X135366450Y-83492783D01*
X135366449Y-83492783D01*
X135298657Y-83479298D01*
X135298655Y-83479298D01*
X135298654Y-83479298D01*
X103367115Y-83479298D01*
X103179881Y-83479298D01*
X103179878Y-83479298D01*
X103108664Y-83493464D01*
X102996247Y-83515825D01*
X102996245Y-83515825D01*
X102921290Y-83546872D01*
X102921291Y-83546873D01*
X102823267Y-83587475D01*
X102667589Y-83691497D01*
X102667585Y-83691500D01*
X101074856Y-85284228D01*
X101055236Y-85299444D01*
X101047688Y-85303906D01*
X101047683Y-85303910D01*
X99873372Y-86355259D01*
X99817406Y-86379987D01*
X99807337Y-86380500D01*
X99413548Y-86380500D01*
X99413547Y-86380500D01*
X99413537Y-86380501D01*
X99355068Y-86392132D01*
X99355062Y-86392134D01*
X99288747Y-86436445D01*
X99288741Y-86436451D01*
X99244430Y-86502766D01*
X99244428Y-86502772D01*
X99232797Y-86561241D01*
X99232796Y-86561253D01*
X89640500Y-86561253D01*
X89640500Y-82963123D01*
X184999309Y-82963123D01*
X184999455Y-82965614D01*
X184999455Y-82965616D01*
X185000780Y-82988193D01*
X185000941Y-82995339D01*
X185000489Y-83028492D01*
X185001069Y-83030360D01*
X185003768Y-83039071D01*
X185003947Y-83042110D01*
X185015457Y-83076792D01*
X185015749Y-83077732D01*
X185015757Y-83077758D01*
X185028730Y-83119623D01*
X185033684Y-83131709D01*
X185035365Y-83136774D01*
X185035385Y-83136898D01*
X185035404Y-83136892D01*
X185047610Y-83173825D01*
X185047778Y-83174174D01*
X185047780Y-83174178D01*
X185069566Y-83207267D01*
X185091038Y-83239970D01*
X185091184Y-83240100D01*
X185091292Y-83240264D01*
X185120769Y-83266471D01*
X185145277Y-83288316D01*
X185148263Y-83290978D01*
X185155661Y-83299172D01*
X185155864Y-83298981D01*
X185160319Y-83303698D01*
X185184038Y-83323000D01*
X185187421Y-83325881D01*
X185210259Y-83346238D01*
X185210261Y-83346239D01*
X185216378Y-83349317D01*
X185221690Y-83353640D01*
X185251636Y-83367059D01*
X185280938Y-83381804D01*
X185280939Y-83381804D01*
X185280943Y-83381806D01*
X185287065Y-83383939D01*
X185286972Y-83384204D01*
X185297481Y-83387602D01*
X185325881Y-83400329D01*
X185351269Y-83416769D01*
X185380676Y-83442981D01*
X185501383Y-83497071D01*
X185707872Y-83548336D01*
X185916818Y-83576512D01*
X185971959Y-83603026D01*
X185986873Y-83621104D01*
X185988687Y-83623928D01*
X186076390Y-83699923D01*
X186076391Y-83699923D01*
X186076393Y-83699925D01*
X186181957Y-83748134D01*
X186181959Y-83748134D01*
X186183454Y-83748817D01*
X186204118Y-83764955D01*
X186205476Y-83763253D01*
X186250969Y-83799534D01*
X186296826Y-83810000D01*
X186296827Y-83810000D01*
X186296828Y-83810000D01*
X186342684Y-83799534D01*
X186388178Y-83763253D01*
X186389538Y-83764958D01*
X186410200Y-83748817D01*
X186411694Y-83748134D01*
X186411697Y-83748134D01*
X186517261Y-83699925D01*
X186604967Y-83623927D01*
X186606780Y-83621104D01*
X186608950Y-83619330D01*
X186609604Y-83618576D01*
X186609734Y-83618689D01*
X186654143Y-83582372D01*
X186676833Y-83576512D01*
X186885782Y-83548336D01*
X187092271Y-83497071D01*
X187212978Y-83442981D01*
X187242385Y-83416768D01*
X187267772Y-83400329D01*
X187272766Y-83398090D01*
X187296171Y-83387602D01*
X187306677Y-83384206D01*
X187306585Y-83383941D01*
X187312713Y-83381805D01*
X187312716Y-83381805D01*
X187342029Y-83367054D01*
X187371964Y-83353640D01*
X187377275Y-83349317D01*
X187383395Y-83346238D01*
X187407894Y-83324400D01*
X187433334Y-83303698D01*
X187437345Y-83298149D01*
X187472884Y-83266471D01*
X187472885Y-83266470D01*
X187472900Y-83266487D01*
X187472976Y-83266388D01*
X187502362Y-83240264D01*
X187502369Y-83240253D01*
X187502500Y-83240103D01*
X187502608Y-83239976D01*
X187502616Y-83239970D01*
X187502622Y-83239961D01*
X187524088Y-83207267D01*
X187524092Y-83207270D01*
X187524153Y-83207166D01*
X187545874Y-83174178D01*
X187545936Y-83173989D01*
X187546042Y-83173829D01*
X187558248Y-83136893D01*
X187559968Y-83131708D01*
X187564937Y-83119586D01*
X187564996Y-83119394D01*
X187564998Y-83119392D01*
X187578194Y-83076798D01*
X187589707Y-83042110D01*
X187589886Y-83039059D01*
X187593168Y-83028466D01*
X187592664Y-82991748D01*
X187594345Y-82963123D01*
X187592123Y-82952337D01*
X187591862Y-82933286D01*
X187582577Y-82905991D01*
X187578383Y-82885628D01*
X187569893Y-82868703D01*
X187561215Y-82843191D01*
X187561208Y-82843169D01*
X187561207Y-82843168D01*
X187553945Y-82833456D01*
X187548681Y-82826416D01*
X187542906Y-82814903D01*
X187525082Y-82794855D01*
X187504205Y-82766934D01*
X187502926Y-82766031D01*
X187502163Y-82765487D01*
X187493292Y-82759098D01*
X187490335Y-82755772D01*
X187470955Y-82743012D01*
X187469269Y-82741798D01*
X187468555Y-82740824D01*
X187457927Y-82732263D01*
X187426835Y-82701875D01*
X187408134Y-82676625D01*
X187390693Y-82642968D01*
X187380849Y-82613134D01*
X187373581Y-82567913D01*
X187372327Y-82552203D01*
X187372327Y-82260339D01*
X187335703Y-82064416D01*
X187335703Y-82064414D01*
X187263700Y-81878554D01*
X187158772Y-81709090D01*
X187024491Y-81561791D01*
X186865431Y-81441674D01*
X186715388Y-81366961D01*
X186671726Y-81324098D01*
X186669463Y-81319465D01*
X186667710Y-81315627D01*
X186667709Y-81315624D01*
X186604967Y-81217995D01*
X186604966Y-81217994D01*
X186517263Y-81141998D01*
X186517261Y-81141997D01*
X186411697Y-81093788D01*
X186411695Y-81093787D01*
X186411694Y-81093787D01*
X186411691Y-81093786D01*
X186296830Y-81077272D01*
X186296824Y-81077272D01*
X186181962Y-81093786D01*
X186181959Y-81093787D01*
X186076390Y-81141998D01*
X185988687Y-81217994D01*
X185988686Y-81217994D01*
X185925946Y-81315621D01*
X185924187Y-81319473D01*
X185882811Y-81364547D01*
X185878265Y-81366961D01*
X185728226Y-81441672D01*
X185728214Y-81441680D01*
X185569165Y-81561789D01*
X185569163Y-81561790D01*
X185569163Y-81561791D01*
X185434882Y-81709090D01*
X185434880Y-81709092D01*
X185434879Y-81709094D01*
X185329957Y-81878548D01*
X185329954Y-81878553D01*
X185257950Y-82064416D01*
X185221327Y-82260339D01*
X185221327Y-82552093D01*
X185220072Y-82567804D01*
X185212785Y-82613141D01*
X185202941Y-82642976D01*
X185185501Y-82676634D01*
X185166804Y-82701882D01*
X185135731Y-82732257D01*
X185120973Y-82744147D01*
X185103317Y-82755772D01*
X185098413Y-82760015D01*
X185098063Y-82759610D01*
X185090727Y-82766036D01*
X185089434Y-82766948D01*
X185089430Y-82766952D01*
X185071073Y-82791506D01*
X185068558Y-82794869D01*
X185050748Y-82814903D01*
X185044969Y-82826421D01*
X185039716Y-82833448D01*
X185039712Y-82833456D01*
X185032435Y-82843190D01*
X185025940Y-82862285D01*
X185025939Y-82862284D01*
X185023748Y-82868725D01*
X185015271Y-82885628D01*
X185011074Y-82906000D01*
X185009087Y-82911845D01*
X185009084Y-82911855D01*
X185001788Y-82933309D01*
X185001788Y-82933312D01*
X185001656Y-82942947D01*
X185000645Y-82952240D01*
X185000924Y-82953677D01*
X185000433Y-82957660D01*
X184999309Y-82963123D01*
X89640500Y-82963123D01*
X89640500Y-80995555D01*
X89641121Y-80984488D01*
X89651776Y-80889922D01*
X89656704Y-80868332D01*
X89686285Y-80783794D01*
X89695897Y-80763834D01*
X89743541Y-80688010D01*
X89757357Y-80670684D01*
X89820684Y-80607357D01*
X89838012Y-80593540D01*
X89913834Y-80545897D01*
X89933794Y-80536285D01*
X90018332Y-80506704D01*
X90039924Y-80501776D01*
X90134487Y-80491121D01*
X90145556Y-80490500D01*
X90205892Y-80490500D01*
X188074108Y-80490500D01*
X188134444Y-80490500D01*
X188145512Y-80491121D01*
G37*
%TD.AperFunction*%
%TD*%
M02*
