%TF.GenerationSoftware,KiCad,Pcbnew,9.0.1+1*%
%TF.CreationDate,2026-04-07T17:50:24+00:00*%
%TF.ProjectId,CSC202_LED_MODULE,43534332-3032-45f4-9c45-445f4d4f4455,A*%
%TF.SameCoordinates,Original*%
%TF.FileFunction,Other,User*%
%FSLAX46Y46*%
G04 Gerber Fmt 4.6, Leading zero omitted, Abs format (unit mm)*
G04 Created by KiCad (PCBNEW 9.0.1+1) date 2026-04-07 17:50:24*
%MOMM*%
%LPD*%
G01*
G04 APERTURE LIST*
%ADD10C,0.050000*%
G04 APERTURE END LIST*
%TO.C,R2*%
D10*
X128000000Y-58036235D02*
X140260000Y-58036235D01*
X140260000Y-61036235D01*
X128000000Y-61036235D01*
X128000000Y-58036235D01*
%TO.C,R7*%
X139770456Y-128669795D02*
X152030456Y-128669795D01*
X152030456Y-131669795D01*
X139770456Y-131669795D01*
X139770456Y-128669795D01*
%TO.C,R5*%
X139790456Y-122357295D02*
X152050456Y-122357295D01*
X152050456Y-125357295D01*
X139790456Y-125357295D01*
X139790456Y-122357295D01*
%TO.C,R4*%
X139815456Y-119201045D02*
X152075456Y-119201045D01*
X152075456Y-122201045D01*
X139815456Y-122201045D01*
X139815456Y-119201045D01*
%TO.C,RN1*%
X143625456Y-96592295D02*
X122645456Y-96592295D01*
X122645456Y-93472295D01*
X143625456Y-93472295D01*
X143625456Y-96592295D01*
%TO.C,U1*%
X137045455Y-61377296D02*
X151220455Y-61377296D01*
X151220455Y-91787296D01*
X137045455Y-91787296D01*
X137045455Y-61377296D01*
%TO.C,C2*%
X150245456Y-99757295D02*
X147845456Y-99757295D01*
X147845456Y-106857295D01*
X150245456Y-106857295D01*
X150245456Y-99757295D01*
%TO.C,U3*%
X159345456Y-108952295D02*
X138525456Y-108952295D01*
X138525456Y-118682295D01*
X159345456Y-118682295D01*
X159345456Y-108952295D01*
%TO.C,U2*%
X146160456Y-98047295D02*
X120260456Y-98047295D01*
X120260456Y-107777295D01*
X146160456Y-107777295D01*
X146160456Y-98047295D01*
%TO.C,R1*%
X159170456Y-106862295D02*
X162170456Y-106862295D01*
X162170456Y-94602295D01*
X159170456Y-94602295D01*
X159170456Y-106862295D01*
%TO.C,BAR1*%
X124880456Y-63519796D02*
X124880456Y-89419796D01*
X135540456Y-63519796D02*
X124880456Y-63519796D01*
X135540456Y-89419796D02*
X124880456Y-89419796D01*
X135540456Y-89419796D02*
X135540456Y-63519796D01*
%TO.C,R3*%
X153420456Y-94602295D02*
X150420456Y-94602295D01*
X150420456Y-106862295D01*
X153420456Y-106862295D01*
X153420456Y-94602295D01*
%TO.C,D2*%
X143730000Y-55010000D02*
X128730000Y-55010000D01*
X128730000Y-51810000D01*
X143730000Y-51810000D01*
X143730000Y-55010000D01*
%TO.C,RN2*%
X119485456Y-87077296D02*
X122605456Y-87077296D01*
X122605456Y-66097296D01*
X119485456Y-66097296D01*
X119485456Y-87077296D01*
%TO.C,R8*%
X139790456Y-131826045D02*
X152050456Y-131826045D01*
X152050456Y-134826045D01*
X139790456Y-134826045D01*
X139790456Y-131826045D01*
%TO.C,C3*%
X136720456Y-109757295D02*
X134320456Y-109757295D01*
X134320456Y-116857295D01*
X136720456Y-116857295D01*
X136720456Y-109757295D01*
%TO.C,SW1*%
X155270456Y-105982295D02*
X158270456Y-105982295D01*
X158270456Y-95482295D01*
X155270456Y-95482295D01*
X155270456Y-105982295D01*
%TO.C,C1*%
X161800000Y-71370000D02*
G75*
G02*
X155000000Y-71370000I-3400000J0D01*
G01*
X155000000Y-71370000D02*
G75*
G02*
X161800000Y-71370000I3400000J0D01*
G01*
%TO.C,D1*%
X140480000Y-56500000D02*
X145320000Y-56500000D01*
X145320000Y-60920000D01*
X140480000Y-60920000D01*
X140480000Y-56500000D01*
%TO.C,JP1*%
X145320000Y-51577295D02*
X145320000Y-55177295D01*
X145320000Y-55177295D02*
X151470000Y-55177295D01*
X151470000Y-51577295D02*
X145320000Y-51577295D01*
X151470000Y-55177295D02*
X151470000Y-51577295D01*
%TO.C,R6*%
X139770456Y-125513545D02*
X152030456Y-125513545D01*
X152030456Y-128513545D01*
X139770456Y-128513545D01*
X139770456Y-125513545D01*
%TO.C,J1*%
X135020456Y-120067295D02*
X135020456Y-133817295D01*
X135020456Y-133817295D02*
X138620456Y-133817295D01*
X138620456Y-120067295D02*
X135020456Y-120067295D01*
X138620456Y-133817295D02*
X138620456Y-120067295D01*
%TD*%
M02*
