%TF.GenerationSoftware,KiCad,Pcbnew,9.0.1+1*%
%TF.CreationDate,2026-03-06T03:31:28+00:00*%
%TF.ProjectId,CSC202_LED_MODULE,43534332-3032-45f4-9c45-445f4d4f4455,A*%
%TF.SameCoordinates,Original*%
%TF.FileFunction,AssemblyDrawing,Bot*%
%FSLAX46Y46*%
G04 Gerber Fmt 4.6, Leading zero omitted, Abs format (unit mm)*
G04 Created by KiCad (PCBNEW 9.0.1+1) date 2026-03-06 03:31:28*
%MOMM*%
%LPD*%
G01*
G04 APERTURE LIST*
%ADD10C,0.150000*%
%ADD11C,0.100000*%
G04 APERTURE END LIST*
D10*
X129394740Y-59242114D02*
X129394740Y-58242114D01*
X129394740Y-58242114D02*
X129013788Y-58242114D01*
X129013788Y-58242114D02*
X128918550Y-58289733D01*
X128918550Y-58289733D02*
X128870931Y-58337352D01*
X128870931Y-58337352D02*
X128823312Y-58432590D01*
X128823312Y-58432590D02*
X128823312Y-58575447D01*
X128823312Y-58575447D02*
X128870931Y-58670685D01*
X128870931Y-58670685D02*
X128918550Y-58718304D01*
X128918550Y-58718304D02*
X129013788Y-58765923D01*
X129013788Y-58765923D02*
X129394740Y-58765923D01*
X128489978Y-58242114D02*
X128251883Y-59242114D01*
X128251883Y-59242114D02*
X128061407Y-58527828D01*
X128061407Y-58527828D02*
X127870931Y-59242114D01*
X127870931Y-59242114D02*
X127632836Y-58242114D01*
X126680455Y-59242114D02*
X127013788Y-58765923D01*
X127251883Y-59242114D02*
X127251883Y-58242114D01*
X127251883Y-58242114D02*
X126870931Y-58242114D01*
X126870931Y-58242114D02*
X126775693Y-58289733D01*
X126775693Y-58289733D02*
X126728074Y-58337352D01*
X126728074Y-58337352D02*
X126680455Y-58432590D01*
X126680455Y-58432590D02*
X126680455Y-58575447D01*
X126680455Y-58575447D02*
X126728074Y-58670685D01*
X126728074Y-58670685D02*
X126775693Y-58718304D01*
X126775693Y-58718304D02*
X126870931Y-58765923D01*
X126870931Y-58765923D02*
X127251883Y-58765923D01*
X126251883Y-58861161D02*
X125489979Y-58861161D01*
X125013788Y-59242114D02*
X125013788Y-58242114D01*
X124537598Y-59242114D02*
X124537598Y-58242114D01*
X124537598Y-58242114D02*
X123966170Y-59242114D01*
X123966170Y-59242114D02*
X123966170Y-58242114D01*
X126175275Y-54343961D02*
X126889560Y-54343961D01*
X126889560Y-54343961D02*
X127032417Y-54296342D01*
X127032417Y-54296342D02*
X127127656Y-54201104D01*
X127127656Y-54201104D02*
X127175275Y-54058247D01*
X127175275Y-54058247D02*
X127175275Y-53963009D01*
X126270513Y-54772533D02*
X126222894Y-54820152D01*
X126222894Y-54820152D02*
X126175275Y-54915390D01*
X126175275Y-54915390D02*
X126175275Y-55153485D01*
X126175275Y-55153485D02*
X126222894Y-55248723D01*
X126222894Y-55248723D02*
X126270513Y-55296342D01*
X126270513Y-55296342D02*
X126365751Y-55343961D01*
X126365751Y-55343961D02*
X126460989Y-55343961D01*
X126460989Y-55343961D02*
X126603846Y-55296342D01*
X126603846Y-55296342D02*
X127175275Y-54724914D01*
X127175275Y-54724914D02*
X127175275Y-55343961D01*
X156444264Y-65828304D02*
X156110931Y-65828304D01*
X155968074Y-66352114D02*
X156444264Y-66352114D01*
X156444264Y-66352114D02*
X156444264Y-65352114D01*
X156444264Y-65352114D02*
X155968074Y-65352114D01*
X155539502Y-66352114D02*
X155539502Y-65352114D01*
X155539502Y-65352114D02*
X154968074Y-66352114D01*
X154968074Y-66352114D02*
X154968074Y-65352114D01*
X154491883Y-65971161D02*
X153729979Y-65971161D01*
X153253788Y-66352114D02*
X153253788Y-65352114D01*
X152444265Y-65828304D02*
X152777598Y-65828304D01*
X152777598Y-66352114D02*
X152777598Y-65352114D01*
X152777598Y-65352114D02*
X152301408Y-65352114D01*
X153875275Y-58153961D02*
X154589560Y-58153961D01*
X154589560Y-58153961D02*
X154732417Y-58106342D01*
X154732417Y-58106342D02*
X154827656Y-58011104D01*
X154827656Y-58011104D02*
X154875275Y-57868247D01*
X154875275Y-57868247D02*
X154875275Y-57773009D01*
X153875275Y-59106342D02*
X153875275Y-58630152D01*
X153875275Y-58630152D02*
X154351465Y-58582533D01*
X154351465Y-58582533D02*
X154303846Y-58630152D01*
X154303846Y-58630152D02*
X154256227Y-58725390D01*
X154256227Y-58725390D02*
X154256227Y-58963485D01*
X154256227Y-58963485D02*
X154303846Y-59058723D01*
X154303846Y-59058723D02*
X154351465Y-59106342D01*
X154351465Y-59106342D02*
X154446703Y-59153961D01*
X154446703Y-59153961D02*
X154684798Y-59153961D01*
X154684798Y-59153961D02*
X154780036Y-59106342D01*
X154780036Y-59106342D02*
X154827656Y-59058723D01*
X154827656Y-59058723D02*
X154875275Y-58963485D01*
X154875275Y-58963485D02*
X154875275Y-58725390D01*
X154875275Y-58725390D02*
X154827656Y-58630152D01*
X154827656Y-58630152D02*
X154780036Y-58582533D01*
X128649027Y-134927114D02*
X129125217Y-134927114D01*
X129125217Y-134927114D02*
X129125217Y-133927114D01*
X128315693Y-134403304D02*
X127982360Y-134403304D01*
X127839503Y-134927114D02*
X128315693Y-134927114D01*
X128315693Y-134927114D02*
X128315693Y-133927114D01*
X128315693Y-133927114D02*
X127839503Y-133927114D01*
X127410931Y-134927114D02*
X127410931Y-133927114D01*
X127410931Y-133927114D02*
X127172836Y-133927114D01*
X127172836Y-133927114D02*
X127029979Y-133974733D01*
X127029979Y-133974733D02*
X126934741Y-134069971D01*
X126934741Y-134069971D02*
X126887122Y-134165209D01*
X126887122Y-134165209D02*
X126839503Y-134355685D01*
X126839503Y-134355685D02*
X126839503Y-134498542D01*
X126839503Y-134498542D02*
X126887122Y-134689018D01*
X126887122Y-134689018D02*
X126934741Y-134784256D01*
X126934741Y-134784256D02*
X127029979Y-134879495D01*
X127029979Y-134879495D02*
X127172836Y-134927114D01*
X127172836Y-134927114D02*
X127410931Y-134927114D01*
X126410931Y-134546161D02*
X125649027Y-134546161D01*
X125172836Y-134927114D02*
X125172836Y-133927114D01*
X124363313Y-134403304D02*
X124696646Y-134403304D01*
X124696646Y-134927114D02*
X124696646Y-133927114D01*
X124696646Y-133927114D02*
X124220456Y-133927114D01*
X126175275Y-122918961D02*
X126889560Y-122918961D01*
X126889560Y-122918961D02*
X127032417Y-122871342D01*
X127032417Y-122871342D02*
X127127656Y-122776104D01*
X127127656Y-122776104D02*
X127175275Y-122633247D01*
X127175275Y-122633247D02*
X127175275Y-122538009D01*
X126175275Y-123299914D02*
X126175275Y-123918961D01*
X126175275Y-123918961D02*
X126556227Y-123585628D01*
X126556227Y-123585628D02*
X126556227Y-123728485D01*
X126556227Y-123728485D02*
X126603846Y-123823723D01*
X126603846Y-123823723D02*
X126651465Y-123871342D01*
X126651465Y-123871342D02*
X126746703Y-123918961D01*
X126746703Y-123918961D02*
X126984798Y-123918961D01*
X126984798Y-123918961D02*
X127080036Y-123871342D01*
X127080036Y-123871342D02*
X127127656Y-123823723D01*
X127127656Y-123823723D02*
X127175275Y-123728485D01*
X127175275Y-123728485D02*
X127175275Y-123442771D01*
X127175275Y-123442771D02*
X127127656Y-123347533D01*
X127127656Y-123347533D02*
X127080036Y-123299914D01*
X156729978Y-134854495D02*
X156587121Y-134902114D01*
X156587121Y-134902114D02*
X156349026Y-134902114D01*
X156349026Y-134902114D02*
X156253788Y-134854495D01*
X156253788Y-134854495D02*
X156206169Y-134806875D01*
X156206169Y-134806875D02*
X156158550Y-134711637D01*
X156158550Y-134711637D02*
X156158550Y-134616399D01*
X156158550Y-134616399D02*
X156206169Y-134521161D01*
X156206169Y-134521161D02*
X156253788Y-134473542D01*
X156253788Y-134473542D02*
X156349026Y-134425923D01*
X156349026Y-134425923D02*
X156539502Y-134378304D01*
X156539502Y-134378304D02*
X156634740Y-134330685D01*
X156634740Y-134330685D02*
X156682359Y-134283066D01*
X156682359Y-134283066D02*
X156729978Y-134187828D01*
X156729978Y-134187828D02*
X156729978Y-134092590D01*
X156729978Y-134092590D02*
X156682359Y-133997352D01*
X156682359Y-133997352D02*
X156634740Y-133949733D01*
X156634740Y-133949733D02*
X156539502Y-133902114D01*
X156539502Y-133902114D02*
X156301407Y-133902114D01*
X156301407Y-133902114D02*
X156158550Y-133949733D01*
X155729978Y-134902114D02*
X155729978Y-133902114D01*
X155729978Y-133902114D02*
X155349026Y-133902114D01*
X155349026Y-133902114D02*
X155253788Y-133949733D01*
X155253788Y-133949733D02*
X155206169Y-133997352D01*
X155206169Y-133997352D02*
X155158550Y-134092590D01*
X155158550Y-134092590D02*
X155158550Y-134235447D01*
X155158550Y-134235447D02*
X155206169Y-134330685D01*
X155206169Y-134330685D02*
X155253788Y-134378304D01*
X155253788Y-134378304D02*
X155349026Y-134425923D01*
X155349026Y-134425923D02*
X155729978Y-134425923D01*
X154729978Y-134902114D02*
X154729978Y-133902114D01*
X154253788Y-134521161D02*
X153491884Y-134521161D01*
X153015693Y-134902114D02*
X153015693Y-133902114D01*
X152206170Y-134378304D02*
X152539503Y-134378304D01*
X152539503Y-134902114D02*
X152539503Y-133902114D01*
X152539503Y-133902114D02*
X152063313Y-133902114D01*
X153875275Y-126703961D02*
X154589560Y-126703961D01*
X154589560Y-126703961D02*
X154732417Y-126656342D01*
X154732417Y-126656342D02*
X154827656Y-126561104D01*
X154827656Y-126561104D02*
X154875275Y-126418247D01*
X154875275Y-126418247D02*
X154875275Y-126323009D01*
X154208608Y-127608723D02*
X154875275Y-127608723D01*
X153827656Y-127370628D02*
X154541941Y-127132533D01*
X154541941Y-127132533D02*
X154541941Y-127751580D01*
D11*
%TO.C,J2*%
X125450456Y-52137295D02*
X125450456Y-57217295D01*
X125450456Y-57217295D02*
X127990456Y-57217295D01*
X127355456Y-52137295D02*
X125450456Y-52137295D01*
X127990456Y-52772295D02*
X127355456Y-52137295D01*
X127990456Y-57217295D02*
X127990456Y-52772295D01*
%TO.C,J5*%
X153150456Y-52137295D02*
X153150456Y-64837295D01*
X153150456Y-64837295D02*
X155690456Y-64837295D01*
X155055456Y-52137295D02*
X153150456Y-52137295D01*
X155690456Y-52772295D02*
X155055456Y-52137295D01*
X155690456Y-64837295D02*
X155690456Y-52772295D01*
%TO.C,J3*%
X125450456Y-113092295D02*
X125450456Y-133412295D01*
X125450456Y-133412295D02*
X127990456Y-133412295D01*
X127355456Y-113092295D02*
X125450456Y-113092295D01*
X127990456Y-113727295D02*
X127355456Y-113092295D01*
X127990456Y-133412295D02*
X127990456Y-113727295D01*
%TO.C,J4*%
X153150456Y-120687295D02*
X153150456Y-133387295D01*
X153150456Y-133387295D02*
X155690456Y-133387295D01*
X155055456Y-120687295D02*
X153150456Y-120687295D01*
X155690456Y-121322295D02*
X155055456Y-120687295D01*
X155690456Y-133387295D02*
X155690456Y-121322295D01*
%TD*%
M02*
