%TF.GenerationSoftware,KiCad,Pcbnew,9.0.1+1*%
%TF.CreationDate,2026-03-05T22:01:08+00:00*%
%TF.ProjectId,CSC202_LED_MODULE,43534332-3032-45f4-9c45-445f4d4f4455,A*%
%TF.SameCoordinates,Original*%
%TF.FileFunction,AssemblyDrawing,Bot*%
%FSLAX46Y46*%
G04 Gerber Fmt 4.6, Leading zero omitted, Abs format (unit mm)*
G04 Created by KiCad (PCBNEW 9.0.1+1) date 2026-03-05 22:01:08*
%MOMM*%
%LPD*%
G01*
G04 APERTURE LIST*
%ADD10C,0.150000*%
%ADD11C,0.100000*%
G04 APERTURE END LIST*
D10*
X129061407Y-59242114D02*
X129061407Y-58242114D01*
X129061407Y-58242114D02*
X128680455Y-58242114D01*
X128680455Y-58242114D02*
X128585217Y-58289733D01*
X128585217Y-58289733D02*
X128537598Y-58337352D01*
X128537598Y-58337352D02*
X128489979Y-58432590D01*
X128489979Y-58432590D02*
X128489979Y-58575447D01*
X128489979Y-58575447D02*
X128537598Y-58670685D01*
X128537598Y-58670685D02*
X128585217Y-58718304D01*
X128585217Y-58718304D02*
X128680455Y-58765923D01*
X128680455Y-58765923D02*
X129061407Y-58765923D01*
X128156645Y-58242114D02*
X127918550Y-59242114D01*
X127918550Y-59242114D02*
X127728074Y-58527828D01*
X127728074Y-58527828D02*
X127537598Y-59242114D01*
X127537598Y-59242114D02*
X127299503Y-58242114D01*
X126347122Y-59242114D02*
X126680455Y-58765923D01*
X126918550Y-59242114D02*
X126918550Y-58242114D01*
X126918550Y-58242114D02*
X126537598Y-58242114D01*
X126537598Y-58242114D02*
X126442360Y-58289733D01*
X126442360Y-58289733D02*
X126394741Y-58337352D01*
X126394741Y-58337352D02*
X126347122Y-58432590D01*
X126347122Y-58432590D02*
X126347122Y-58575447D01*
X126347122Y-58575447D02*
X126394741Y-58670685D01*
X126394741Y-58670685D02*
X126442360Y-58718304D01*
X126442360Y-58718304D02*
X126537598Y-58765923D01*
X126537598Y-58765923D02*
X126918550Y-58765923D01*
X126156646Y-59337352D02*
X125394741Y-59337352D01*
X125156645Y-59242114D02*
X125156645Y-58242114D01*
X124347122Y-58718304D02*
X124680455Y-58718304D01*
X124680455Y-59242114D02*
X124680455Y-58242114D01*
X124680455Y-58242114D02*
X124204265Y-58242114D01*
X126175275Y-54343961D02*
X126889560Y-54343961D01*
X126889560Y-54343961D02*
X127032417Y-54296342D01*
X127032417Y-54296342D02*
X127127656Y-54201104D01*
X127127656Y-54201104D02*
X127175275Y-54058247D01*
X127175275Y-54058247D02*
X127175275Y-53963009D01*
X126270513Y-54772533D02*
X126222894Y-54820152D01*
X126222894Y-54820152D02*
X126175275Y-54915390D01*
X126175275Y-54915390D02*
X126175275Y-55153485D01*
X126175275Y-55153485D02*
X126222894Y-55248723D01*
X126222894Y-55248723D02*
X126270513Y-55296342D01*
X126270513Y-55296342D02*
X126365751Y-55343961D01*
X126365751Y-55343961D02*
X126460989Y-55343961D01*
X126460989Y-55343961D02*
X126603846Y-55296342D01*
X126603846Y-55296342D02*
X127175275Y-54724914D01*
X127175275Y-54724914D02*
X127175275Y-55343961D01*
X156206169Y-65828304D02*
X155872836Y-65828304D01*
X155729979Y-66352114D02*
X156206169Y-66352114D01*
X156206169Y-66352114D02*
X156206169Y-65352114D01*
X156206169Y-65352114D02*
X155729979Y-65352114D01*
X155301407Y-66352114D02*
X155301407Y-65352114D01*
X155301407Y-65352114D02*
X154729979Y-66352114D01*
X154729979Y-66352114D02*
X154729979Y-65352114D01*
X154491884Y-66447352D02*
X153729979Y-66447352D01*
X153491883Y-66352114D02*
X153491883Y-65352114D01*
X152682360Y-65828304D02*
X153015693Y-65828304D01*
X153015693Y-66352114D02*
X153015693Y-65352114D01*
X153015693Y-65352114D02*
X152539503Y-65352114D01*
X153875275Y-58153961D02*
X154589560Y-58153961D01*
X154589560Y-58153961D02*
X154732417Y-58106342D01*
X154732417Y-58106342D02*
X154827656Y-58011104D01*
X154827656Y-58011104D02*
X154875275Y-57868247D01*
X154875275Y-57868247D02*
X154875275Y-57773009D01*
X153875275Y-59058723D02*
X153875275Y-58868247D01*
X153875275Y-58868247D02*
X153922894Y-58773009D01*
X153922894Y-58773009D02*
X153970513Y-58725390D01*
X153970513Y-58725390D02*
X154113370Y-58630152D01*
X154113370Y-58630152D02*
X154303846Y-58582533D01*
X154303846Y-58582533D02*
X154684798Y-58582533D01*
X154684798Y-58582533D02*
X154780036Y-58630152D01*
X154780036Y-58630152D02*
X154827656Y-58677771D01*
X154827656Y-58677771D02*
X154875275Y-58773009D01*
X154875275Y-58773009D02*
X154875275Y-58963485D01*
X154875275Y-58963485D02*
X154827656Y-59058723D01*
X154827656Y-59058723D02*
X154780036Y-59106342D01*
X154780036Y-59106342D02*
X154684798Y-59153961D01*
X154684798Y-59153961D02*
X154446703Y-59153961D01*
X154446703Y-59153961D02*
X154351465Y-59106342D01*
X154351465Y-59106342D02*
X154303846Y-59058723D01*
X154303846Y-59058723D02*
X154256227Y-58963485D01*
X154256227Y-58963485D02*
X154256227Y-58773009D01*
X154256227Y-58773009D02*
X154303846Y-58677771D01*
X154303846Y-58677771D02*
X154351465Y-58630152D01*
X154351465Y-58630152D02*
X154446703Y-58582533D01*
X128410932Y-134927114D02*
X128887122Y-134927114D01*
X128887122Y-134927114D02*
X128887122Y-133927114D01*
X128077598Y-134403304D02*
X127744265Y-134403304D01*
X127601408Y-134927114D02*
X128077598Y-134927114D01*
X128077598Y-134927114D02*
X128077598Y-133927114D01*
X128077598Y-133927114D02*
X127601408Y-133927114D01*
X127172836Y-134927114D02*
X127172836Y-133927114D01*
X127172836Y-133927114D02*
X126934741Y-133927114D01*
X126934741Y-133927114D02*
X126791884Y-133974733D01*
X126791884Y-133974733D02*
X126696646Y-134069971D01*
X126696646Y-134069971D02*
X126649027Y-134165209D01*
X126649027Y-134165209D02*
X126601408Y-134355685D01*
X126601408Y-134355685D02*
X126601408Y-134498542D01*
X126601408Y-134498542D02*
X126649027Y-134689018D01*
X126649027Y-134689018D02*
X126696646Y-134784256D01*
X126696646Y-134784256D02*
X126791884Y-134879495D01*
X126791884Y-134879495D02*
X126934741Y-134927114D01*
X126934741Y-134927114D02*
X127172836Y-134927114D01*
X126410932Y-135022352D02*
X125649027Y-135022352D01*
X125410931Y-134927114D02*
X125410931Y-133927114D01*
X124601408Y-134403304D02*
X124934741Y-134403304D01*
X124934741Y-134927114D02*
X124934741Y-133927114D01*
X124934741Y-133927114D02*
X124458551Y-133927114D01*
X126175275Y-122918961D02*
X126889560Y-122918961D01*
X126889560Y-122918961D02*
X127032417Y-122871342D01*
X127032417Y-122871342D02*
X127127656Y-122776104D01*
X127127656Y-122776104D02*
X127175275Y-122633247D01*
X127175275Y-122633247D02*
X127175275Y-122538009D01*
X126175275Y-123299914D02*
X126175275Y-123918961D01*
X126175275Y-123918961D02*
X126556227Y-123585628D01*
X126556227Y-123585628D02*
X126556227Y-123728485D01*
X126556227Y-123728485D02*
X126603846Y-123823723D01*
X126603846Y-123823723D02*
X126651465Y-123871342D01*
X126651465Y-123871342D02*
X126746703Y-123918961D01*
X126746703Y-123918961D02*
X126984798Y-123918961D01*
X126984798Y-123918961D02*
X127080036Y-123871342D01*
X127080036Y-123871342D02*
X127127656Y-123823723D01*
X127127656Y-123823723D02*
X127175275Y-123728485D01*
X127175275Y-123728485D02*
X127175275Y-123442771D01*
X127175275Y-123442771D02*
X127127656Y-123347533D01*
X127127656Y-123347533D02*
X127080036Y-123299914D01*
X156491883Y-134854495D02*
X156349026Y-134902114D01*
X156349026Y-134902114D02*
X156110931Y-134902114D01*
X156110931Y-134902114D02*
X156015693Y-134854495D01*
X156015693Y-134854495D02*
X155968074Y-134806875D01*
X155968074Y-134806875D02*
X155920455Y-134711637D01*
X155920455Y-134711637D02*
X155920455Y-134616399D01*
X155920455Y-134616399D02*
X155968074Y-134521161D01*
X155968074Y-134521161D02*
X156015693Y-134473542D01*
X156015693Y-134473542D02*
X156110931Y-134425923D01*
X156110931Y-134425923D02*
X156301407Y-134378304D01*
X156301407Y-134378304D02*
X156396645Y-134330685D01*
X156396645Y-134330685D02*
X156444264Y-134283066D01*
X156444264Y-134283066D02*
X156491883Y-134187828D01*
X156491883Y-134187828D02*
X156491883Y-134092590D01*
X156491883Y-134092590D02*
X156444264Y-133997352D01*
X156444264Y-133997352D02*
X156396645Y-133949733D01*
X156396645Y-133949733D02*
X156301407Y-133902114D01*
X156301407Y-133902114D02*
X156063312Y-133902114D01*
X156063312Y-133902114D02*
X155920455Y-133949733D01*
X155491883Y-134902114D02*
X155491883Y-133902114D01*
X155491883Y-133902114D02*
X155110931Y-133902114D01*
X155110931Y-133902114D02*
X155015693Y-133949733D01*
X155015693Y-133949733D02*
X154968074Y-133997352D01*
X154968074Y-133997352D02*
X154920455Y-134092590D01*
X154920455Y-134092590D02*
X154920455Y-134235447D01*
X154920455Y-134235447D02*
X154968074Y-134330685D01*
X154968074Y-134330685D02*
X155015693Y-134378304D01*
X155015693Y-134378304D02*
X155110931Y-134425923D01*
X155110931Y-134425923D02*
X155491883Y-134425923D01*
X154491883Y-134902114D02*
X154491883Y-133902114D01*
X154253789Y-134997352D02*
X153491884Y-134997352D01*
X153253788Y-134902114D02*
X153253788Y-133902114D01*
X152444265Y-134378304D02*
X152777598Y-134378304D01*
X152777598Y-134902114D02*
X152777598Y-133902114D01*
X152777598Y-133902114D02*
X152301408Y-133902114D01*
X153875275Y-126703961D02*
X154589560Y-126703961D01*
X154589560Y-126703961D02*
X154732417Y-126656342D01*
X154732417Y-126656342D02*
X154827656Y-126561104D01*
X154827656Y-126561104D02*
X154875275Y-126418247D01*
X154875275Y-126418247D02*
X154875275Y-126323009D01*
X154208608Y-127608723D02*
X154875275Y-127608723D01*
X153827656Y-127370628D02*
X154541941Y-127132533D01*
X154541941Y-127132533D02*
X154541941Y-127751580D01*
D11*
%TO.C,J2*%
X125450456Y-52137295D02*
X125450456Y-57217295D01*
X125450456Y-57217295D02*
X127990456Y-57217295D01*
X127355456Y-52137295D02*
X125450456Y-52137295D01*
X127990456Y-52772295D02*
X127355456Y-52137295D01*
X127990456Y-57217295D02*
X127990456Y-52772295D01*
%TO.C,J6*%
X153150456Y-52137295D02*
X153150456Y-64837295D01*
X153150456Y-64837295D02*
X155690456Y-64837295D01*
X155055456Y-52137295D02*
X153150456Y-52137295D01*
X155690456Y-52772295D02*
X155055456Y-52137295D01*
X155690456Y-64837295D02*
X155690456Y-52772295D01*
%TO.C,J3*%
X125450456Y-113092295D02*
X125450456Y-133412295D01*
X125450456Y-133412295D02*
X127990456Y-133412295D01*
X127355456Y-113092295D02*
X125450456Y-113092295D01*
X127990456Y-113727295D02*
X127355456Y-113092295D01*
X127990456Y-133412295D02*
X127990456Y-113727295D01*
%TO.C,J4*%
X153150456Y-120687295D02*
X153150456Y-133387295D01*
X153150456Y-133387295D02*
X155690456Y-133387295D01*
X155055456Y-120687295D02*
X153150456Y-120687295D01*
X155690456Y-121322295D02*
X155055456Y-120687295D01*
X155690456Y-133387295D02*
X155690456Y-121322295D01*
%TD*%
M02*
