%TF.GenerationSoftware,KiCad,Pcbnew,9.0.1+1*%
%TF.CreationDate,2026-04-07T17:51:04+00:00*%
%TF.ProjectId,CSC202_DIPSW,43534332-3032-45f4-9449-5053572e6b69,rev?*%
%TF.SameCoordinates,Original*%
%TF.FileFunction,Other,User*%
%FSLAX46Y46*%
G04 Gerber Fmt 4.6, Leading zero omitted, Abs format (unit mm)*
G04 Created by KiCad (PCBNEW 9.0.1+1) date 2026-04-07 17:51:04*
%MOMM*%
%LPD*%
G01*
G04 APERTURE LIST*
%ADD10C,0.050000*%
G04 APERTURE END LIST*
D10*
%TO.C,SW2*%
X148720000Y-76271714D02*
X148970000Y-76271714D01*
X148720000Y-76521714D02*
X148720000Y-76271714D01*
X148720000Y-83521714D02*
X148720000Y-76521714D01*
X148720000Y-83521714D02*
X148720000Y-83771714D01*
X148720000Y-83771714D02*
X148970000Y-83771714D01*
X148970000Y-76271714D02*
X157970000Y-76271714D01*
X157970000Y-76271714D02*
X158220000Y-76271714D01*
X157970000Y-83771714D02*
X148970000Y-83771714D01*
X157970000Y-83771714D02*
X158220000Y-83771714D01*
X158220000Y-76271714D02*
X158220000Y-76521714D01*
X158220000Y-76521714D02*
X158220000Y-83521714D01*
X158220000Y-83771714D02*
X158220000Y-83521714D01*
%TO.C,RV1*%
X143930000Y-110425714D02*
X156700000Y-110425714D01*
X156700000Y-126925714D01*
X143930000Y-126925714D01*
X143930000Y-110425714D01*
%TO.C,SW3*%
X148720000Y-85022714D02*
X148970000Y-85022714D01*
X148720000Y-85272714D02*
X148720000Y-85022714D01*
X148720000Y-92272714D02*
X148720000Y-85272714D01*
X148720000Y-92272714D02*
X148720000Y-92522714D01*
X148720000Y-92522714D02*
X148970000Y-92522714D01*
X148970000Y-85022714D02*
X157970000Y-85022714D01*
X157970000Y-85022714D02*
X158220000Y-85022714D01*
X157970000Y-92522714D02*
X148970000Y-92522714D01*
X157970000Y-92522714D02*
X158220000Y-92522714D01*
X158220000Y-85022714D02*
X158220000Y-85272714D01*
X158220000Y-85272714D02*
X158220000Y-92272714D01*
X158220000Y-92522714D02*
X158220000Y-92272714D01*
%TO.C,SW1*%
X137912500Y-100033214D02*
X143252500Y-100033214D01*
X143252500Y-89753214D01*
X137912500Y-89753214D01*
X137912500Y-100033214D01*
%TO.C,SW4*%
X148720000Y-93773714D02*
X148970000Y-93773714D01*
X148720000Y-94023714D02*
X148720000Y-93773714D01*
X148720000Y-101023714D02*
X148720000Y-94023714D01*
X148720000Y-101023714D02*
X148720000Y-101273714D01*
X148720000Y-101273714D02*
X148970000Y-101273714D01*
X148970000Y-93773714D02*
X157970000Y-93773714D01*
X157970000Y-93773714D02*
X158220000Y-93773714D01*
X157970000Y-101273714D02*
X148970000Y-101273714D01*
X157970000Y-101273714D02*
X158220000Y-101273714D01*
X158220000Y-93773714D02*
X158220000Y-94023714D01*
X158220000Y-94023714D02*
X158220000Y-101023714D01*
X158220000Y-101273714D02*
X158220000Y-101023714D01*
%TO.C,SW5*%
X148720000Y-102524714D02*
X148970000Y-102524714D01*
X148720000Y-102774714D02*
X148720000Y-102524714D01*
X148720000Y-109774714D02*
X148720000Y-102774714D01*
X148720000Y-109774714D02*
X148720000Y-110024714D01*
X148720000Y-110024714D02*
X148970000Y-110024714D01*
X148970000Y-102524714D02*
X157970000Y-102524714D01*
X157970000Y-102524714D02*
X158220000Y-102524714D01*
X157970000Y-110024714D02*
X148970000Y-110024714D01*
X157970000Y-110024714D02*
X158220000Y-110024714D01*
X158220000Y-102524714D02*
X158220000Y-102774714D01*
X158220000Y-102774714D02*
X158220000Y-109774714D01*
X158220000Y-110024714D02*
X158220000Y-109774714D01*
%TO.C,RA1*%
X144160000Y-62515714D02*
X141040000Y-62515714D01*
X141040000Y-83495714D01*
X144160000Y-83495714D01*
X144160000Y-62515714D01*
%TO.C,SW6*%
X158640000Y-75650000D02*
X148360000Y-75650000D01*
X148360000Y-62690000D01*
X158640000Y-62690000D01*
X158640000Y-75650000D01*
%TD*%
M02*
