%TF.GenerationSoftware,KiCad,Pcbnew,9.0.1+1*%
%TF.CreationDate,2026-04-01T01:21:40+00:00*%
%TF.ProjectId,CSC202_DIPSW,43534332-3032-45f4-9449-5053572e6b69,rev?*%
%TF.SameCoordinates,Original*%
%TF.FileFunction,Other,Comment*%
%FSLAX46Y46*%
G04 Gerber Fmt 4.6, Leading zero omitted, Abs format (unit mm)*
G04 Created by KiCad (PCBNEW 9.0.1+1) date 2026-04-01 01:21:40*
%MOMM*%
%LPD*%
G01*
G04 APERTURE LIST*
%ADD10C,0.150000*%
%ADD11C,0.100000*%
G04 APERTURE END LIST*
D10*
X149164285Y-58208152D02*
X149164285Y-58874819D01*
X148926190Y-57827200D02*
X148688095Y-58541485D01*
X148688095Y-58541485D02*
X149307142Y-58541485D01*
X149878571Y-57874819D02*
X149973809Y-57874819D01*
X149973809Y-57874819D02*
X150069047Y-57922438D01*
X150069047Y-57922438D02*
X150116666Y-57970057D01*
X150116666Y-57970057D02*
X150164285Y-58065295D01*
X150164285Y-58065295D02*
X150211904Y-58255771D01*
X150211904Y-58255771D02*
X150211904Y-58493866D01*
X150211904Y-58493866D02*
X150164285Y-58684342D01*
X150164285Y-58684342D02*
X150116666Y-58779580D01*
X150116666Y-58779580D02*
X150069047Y-58827200D01*
X150069047Y-58827200D02*
X149973809Y-58874819D01*
X149973809Y-58874819D02*
X149878571Y-58874819D01*
X149878571Y-58874819D02*
X149783333Y-58827200D01*
X149783333Y-58827200D02*
X149735714Y-58779580D01*
X149735714Y-58779580D02*
X149688095Y-58684342D01*
X149688095Y-58684342D02*
X149640476Y-58493866D01*
X149640476Y-58493866D02*
X149640476Y-58255771D01*
X149640476Y-58255771D02*
X149688095Y-58065295D01*
X149688095Y-58065295D02*
X149735714Y-57970057D01*
X149735714Y-57970057D02*
X149783333Y-57922438D01*
X149783333Y-57922438D02*
X149878571Y-57874819D01*
D11*
X129450000Y-61440000D02*
X129450000Y-58983580D01*
X169450000Y-58983580D02*
X169450000Y-61440000D01*
X129450000Y-59570000D02*
X169450000Y-59570000D01*
X129450000Y-59570000D02*
X130576504Y-58983579D01*
X129450000Y-59570000D02*
X130576504Y-60156421D01*
X169450000Y-59570000D02*
X168323496Y-60156421D01*
X169450000Y-59570000D02*
X168323496Y-58983579D01*
D10*
X125034819Y-95225714D02*
X125034819Y-95416190D01*
X125034819Y-95416190D02*
X125082438Y-95511428D01*
X125082438Y-95511428D02*
X125130057Y-95559047D01*
X125130057Y-95559047D02*
X125272914Y-95654285D01*
X125272914Y-95654285D02*
X125463390Y-95701904D01*
X125463390Y-95701904D02*
X125844342Y-95701904D01*
X125844342Y-95701904D02*
X125939580Y-95654285D01*
X125939580Y-95654285D02*
X125987200Y-95606666D01*
X125987200Y-95606666D02*
X126034819Y-95511428D01*
X126034819Y-95511428D02*
X126034819Y-95320952D01*
X126034819Y-95320952D02*
X125987200Y-95225714D01*
X125987200Y-95225714D02*
X125939580Y-95178095D01*
X125939580Y-95178095D02*
X125844342Y-95130476D01*
X125844342Y-95130476D02*
X125606247Y-95130476D01*
X125606247Y-95130476D02*
X125511009Y-95178095D01*
X125511009Y-95178095D02*
X125463390Y-95225714D01*
X125463390Y-95225714D02*
X125415771Y-95320952D01*
X125415771Y-95320952D02*
X125415771Y-95511428D01*
X125415771Y-95511428D02*
X125463390Y-95606666D01*
X125463390Y-95606666D02*
X125511009Y-95654285D01*
X125511009Y-95654285D02*
X125606247Y-95701904D01*
X125034819Y-94273333D02*
X125034819Y-94463809D01*
X125034819Y-94463809D02*
X125082438Y-94559047D01*
X125082438Y-94559047D02*
X125130057Y-94606666D01*
X125130057Y-94606666D02*
X125272914Y-94701904D01*
X125272914Y-94701904D02*
X125463390Y-94749523D01*
X125463390Y-94749523D02*
X125844342Y-94749523D01*
X125844342Y-94749523D02*
X125939580Y-94701904D01*
X125939580Y-94701904D02*
X125987200Y-94654285D01*
X125987200Y-94654285D02*
X126034819Y-94559047D01*
X126034819Y-94559047D02*
X126034819Y-94368571D01*
X126034819Y-94368571D02*
X125987200Y-94273333D01*
X125987200Y-94273333D02*
X125939580Y-94225714D01*
X125939580Y-94225714D02*
X125844342Y-94178095D01*
X125844342Y-94178095D02*
X125606247Y-94178095D01*
X125606247Y-94178095D02*
X125511009Y-94225714D01*
X125511009Y-94225714D02*
X125463390Y-94273333D01*
X125463390Y-94273333D02*
X125415771Y-94368571D01*
X125415771Y-94368571D02*
X125415771Y-94559047D01*
X125415771Y-94559047D02*
X125463390Y-94654285D01*
X125463390Y-94654285D02*
X125511009Y-94701904D01*
X125511009Y-94701904D02*
X125606247Y-94749523D01*
D11*
X129950000Y-61940000D02*
X126143580Y-61940000D01*
X126143580Y-127940000D02*
X129950000Y-127940000D01*
X126730000Y-61940000D02*
X126730000Y-127940000D01*
X126730000Y-61940000D02*
X127316421Y-63066504D01*
X126730000Y-61940000D02*
X126143579Y-63066504D01*
X126730000Y-127940000D02*
X126143579Y-126813496D01*
X126730000Y-127940000D02*
X127316421Y-126813496D01*
M02*
