%TF.GenerationSoftware,KiCad,Pcbnew,9.0.1+1*%
%TF.CreationDate,2026-04-07T17:51:03+00:00*%
%TF.ProjectId,CSC202_DIPSW,43534332-3032-45f4-9449-5053572e6b69,rev?*%
%TF.SameCoordinates,Original*%
%TF.FileFunction,Copper,L2,Bot*%
%TF.FilePolarity,Positive*%
%FSLAX46Y46*%
G04 Gerber Fmt 4.6, Leading zero omitted, Abs format (unit mm)*
G04 Created by KiCad (PCBNEW 9.0.1+1) date 2026-04-07 17:51:03*
%MOMM*%
%LPD*%
G01*
G04 APERTURE LIST*
G04 Aperture macros list*
%AMRoundRect*
0 Rectangle with rounded corners*
0 $1 Rounding radius*
0 $2 $3 $4 $5 $6 $7 $8 $9 X,Y pos of 4 corners*
0 Add a 4 corners polygon primitive as box body*
4,1,4,$2,$3,$4,$5,$6,$7,$8,$9,$2,$3,0*
0 Add four circle primitives for the rounded corners*
1,1,$1+$1,$2,$3*
1,1,$1+$1,$4,$5*
1,1,$1+$1,$6,$7*
1,1,$1+$1,$8,$9*
0 Add four rect primitives between the rounded corners*
20,1,$1+$1,$2,$3,$4,$5,0*
20,1,$1+$1,$4,$5,$6,$7,0*
20,1,$1+$1,$6,$7,$8,$9,0*
20,1,$1+$1,$8,$9,$2,$3,0*%
G04 Aperture macros list end*
%TA.AperFunction,ComponentPad*%
%ADD10C,2.000000*%
%TD*%
%TA.AperFunction,ComponentPad*%
%ADD11C,2.340000*%
%TD*%
%TA.AperFunction,ComponentPad*%
%ADD12RoundRect,0.250000X0.550000X-0.550000X0.550000X0.550000X-0.550000X0.550000X-0.550000X-0.550000X0*%
%TD*%
%TA.AperFunction,ComponentPad*%
%ADD13C,1.600000*%
%TD*%
%TA.AperFunction,ComponentPad*%
%ADD14R,1.600000X1.600000*%
%TD*%
%TA.AperFunction,ComponentPad*%
%ADD15RoundRect,0.250000X0.550000X0.550000X-0.550000X0.550000X-0.550000X-0.550000X0.550000X-0.550000X0*%
%TD*%
%TA.AperFunction,ComponentPad*%
%ADD16R,1.700000X1.700000*%
%TD*%
%TA.AperFunction,ComponentPad*%
%ADD17C,1.700000*%
%TD*%
%TA.AperFunction,ViaPad*%
%ADD18C,0.600000*%
%TD*%
G04 APERTURE END LIST*
D10*
%TO.P,SW2,1,1*%
%TO.N,GND*%
X150220000Y-77771714D03*
X156720000Y-77771714D03*
%TO.P,SW2,2,2*%
%TO.N,/SW1*%
X150220000Y-82271714D03*
X156720000Y-82271714D03*
%TD*%
D11*
%TO.P,RV1,1,3*%
%TO.N,GND*%
X150180000Y-123675714D03*
%TO.P,RV1,2,2*%
%TO.N,Net-(RV1-Pad2)*%
X150180000Y-118675714D03*
%TO.P,RV1,3,1*%
%TO.N,+3V3*%
X150180000Y-113675714D03*
%TD*%
D10*
%TO.P,SW3,1,1*%
%TO.N,GND*%
X150220000Y-86522714D03*
X156720000Y-86522714D03*
%TO.P,SW3,2,2*%
%TO.N,/SW2*%
X150220000Y-91022714D03*
X156720000Y-91022714D03*
%TD*%
D12*
%TO.P,SW1,1*%
%TO.N,/ADC*%
X140582500Y-98703214D03*
D13*
%TO.P,SW1,2*%
%TO.N,Net-(RV1-Pad2)*%
X140582500Y-91083214D03*
%TD*%
D10*
%TO.P,SW4,1,1*%
%TO.N,GND*%
X150220000Y-95273714D03*
X156720000Y-95273714D03*
%TO.P,SW4,2,2*%
%TO.N,/SW3*%
X150220000Y-99773714D03*
X156720000Y-99773714D03*
%TD*%
%TO.P,SW5,1,1*%
%TO.N,GND*%
X150220000Y-104024714D03*
X156720000Y-104024714D03*
%TO.P,SW5,2,2*%
%TO.N,/SW4*%
X150220000Y-108524714D03*
X156720000Y-108524714D03*
%TD*%
D14*
%TO.P,RA1,1,R1a*%
%TO.N,+3V3*%
X142600000Y-64115714D03*
D13*
%TO.P,RA1,2,R1b*%
%TO.N,/SW4*%
X142600000Y-66655714D03*
%TO.P,RA1,3,R2a*%
%TO.N,+3V3*%
X142600000Y-69195714D03*
%TO.P,RA1,4,R2b*%
%TO.N,/SW3*%
X142600000Y-71735714D03*
%TO.P,RA1,5,R3a*%
%TO.N,+3V3*%
X142600000Y-74275714D03*
%TO.P,RA1,6,R3b*%
%TO.N,/SW2*%
X142600000Y-76815714D03*
%TO.P,RA1,7,R4a*%
%TO.N,+3V3*%
X142600000Y-79355714D03*
%TO.P,RA1,8,R4b*%
%TO.N,/SW1*%
X142600000Y-81895714D03*
%TD*%
D15*
%TO.P,SW6,1*%
%TO.N,GND*%
X157310000Y-72980000D03*
D13*
%TO.P,SW6,2*%
X157310000Y-70440000D03*
%TO.P,SW6,3*%
X157310000Y-67900000D03*
%TO.P,SW6,4*%
X157310000Y-65360000D03*
%TO.P,SW6,5*%
%TO.N,/SW4*%
X149690000Y-65360000D03*
%TO.P,SW6,6*%
%TO.N,/SW3*%
X149690000Y-67900000D03*
%TO.P,SW6,7*%
%TO.N,/SW2*%
X149690000Y-70440000D03*
%TO.P,SW6,8*%
%TO.N,/SW1*%
X149690000Y-72980000D03*
%TD*%
D16*
%TO.P,J1,1,Pin_1*%
%TO.N,+3V3*%
X135950000Y-65560714D03*
D17*
%TO.P,J1,2,Pin_2*%
%TO.N,GND*%
X135950000Y-68100714D03*
%TO.P,J1,3,Pin_3*%
X135950000Y-70640714D03*
%TO.P,J1,4,Pin_4*%
X135950000Y-73180714D03*
%TO.P,J1,5,Pin_5*%
X135950000Y-75720714D03*
%TO.P,J1,6,Pin_6*%
X135950000Y-78260714D03*
%TO.P,J1,7,Pin_7*%
X135950000Y-80800714D03*
%TO.P,J1,8,Pin_8*%
X135950000Y-83340714D03*
%TO.P,J1,9,Pin_9*%
X135950000Y-85880714D03*
%TO.P,J1,10,Pin_10*%
X135950000Y-88420714D03*
%TD*%
D16*
%TO.P,J4,1,Pin_1*%
%TO.N,GND*%
X163196667Y-101120714D03*
D17*
%TO.P,J4,2,Pin_2*%
X163196667Y-103660714D03*
%TO.P,J4,3,Pin_3*%
X163196667Y-106200714D03*
%TO.P,J4,4,Pin_4*%
X163196667Y-108740714D03*
%TO.P,J4,5,Pin_5*%
X163196667Y-111280714D03*
%TO.P,J4,6,Pin_6*%
X163196667Y-113820714D03*
%TO.P,J4,7,Pin_7*%
X163196667Y-116360714D03*
%TO.P,J4,8,Pin_8*%
X163196667Y-118900714D03*
%TO.P,J4,9,Pin_9*%
X163196667Y-121440714D03*
%TO.P,J4,10,Pin_10*%
X163196667Y-123980714D03*
%TD*%
D16*
%TO.P,J3,1,Pin_1*%
%TO.N,/SW4*%
X163220000Y-65560714D03*
D17*
%TO.P,J3,2,Pin_2*%
%TO.N,/SW3*%
X163220000Y-68100714D03*
%TO.P,J3,3,Pin_3*%
%TO.N,/SW2*%
X163220000Y-70640714D03*
%TO.P,J3,4,Pin_4*%
%TO.N,/SW1*%
X163220000Y-73180714D03*
%TO.P,J3,5,Pin_5*%
%TO.N,GND*%
X163220000Y-75720714D03*
%TO.P,J3,6,Pin_6*%
X163220000Y-78260714D03*
%TO.P,J3,7,Pin_7*%
X163220000Y-80800714D03*
%TO.P,J3,8,Pin_8*%
X163220000Y-83340714D03*
%TO.P,J3,9,Pin_9*%
X163220000Y-85880714D03*
%TO.P,J3,10,Pin_10*%
X163220000Y-88420714D03*
%TD*%
D16*
%TO.P,J2,1,Pin_1*%
%TO.N,/ADC*%
X135926667Y-101120714D03*
D17*
%TO.P,J2,2,Pin_2*%
%TO.N,GND*%
X135926667Y-103660714D03*
%TO.P,J2,3,Pin_3*%
X135926667Y-106200714D03*
%TO.P,J2,4,Pin_4*%
X135926667Y-108740714D03*
%TO.P,J2,5,Pin_5*%
X135926667Y-111280714D03*
%TO.P,J2,6,Pin_6*%
X135926667Y-113820714D03*
%TO.P,J2,7,Pin_7*%
X135926667Y-116360714D03*
%TO.P,J2,8,Pin_8*%
X135926667Y-118900714D03*
%TO.P,J2,9,Pin_9*%
X135926667Y-121440714D03*
%TO.P,J2,10,Pin_10*%
X135926667Y-123980714D03*
%TD*%
D18*
%TO.N,GND*%
X146250000Y-75560000D03*
X146250000Y-66820000D03*
X146250000Y-71190000D03*
%TD*%
%TA.AperFunction,Conductor*%
%TO.N,GND*%
G36*
X168456922Y-62441280D02*
G01*
X168547266Y-62451459D01*
X168574331Y-62457636D01*
X168653540Y-62485352D01*
X168678553Y-62497398D01*
X168749606Y-62542043D01*
X168771313Y-62559355D01*
X168830644Y-62618686D01*
X168847957Y-62640395D01*
X168892600Y-62711444D01*
X168904648Y-62736462D01*
X168932362Y-62815666D01*
X168938540Y-62842735D01*
X168948720Y-62933076D01*
X168949500Y-62946961D01*
X168949500Y-126933038D01*
X168948720Y-126946922D01*
X168948720Y-126946923D01*
X168938540Y-127037264D01*
X168932362Y-127064333D01*
X168904648Y-127143537D01*
X168892600Y-127168555D01*
X168847957Y-127239604D01*
X168830644Y-127261313D01*
X168771313Y-127320644D01*
X168749604Y-127337957D01*
X168678555Y-127382600D01*
X168653537Y-127394648D01*
X168574333Y-127422362D01*
X168547264Y-127428540D01*
X168467075Y-127437576D01*
X168456921Y-127438720D01*
X168443038Y-127439500D01*
X130456962Y-127439500D01*
X130443078Y-127438720D01*
X130430553Y-127437308D01*
X130352735Y-127428540D01*
X130325666Y-127422362D01*
X130246462Y-127394648D01*
X130221444Y-127382600D01*
X130150395Y-127337957D01*
X130128686Y-127320644D01*
X130069355Y-127261313D01*
X130052042Y-127239604D01*
X130007399Y-127168555D01*
X129995351Y-127143537D01*
X129967637Y-127064333D01*
X129961459Y-127037263D01*
X129951280Y-126946922D01*
X129950500Y-126933038D01*
X129950500Y-100222849D01*
X134576167Y-100222849D01*
X134576167Y-102018584D01*
X134576168Y-102018590D01*
X134582575Y-102078197D01*
X134632869Y-102213042D01*
X134632873Y-102213049D01*
X134719119Y-102328258D01*
X134719122Y-102328261D01*
X134834331Y-102414507D01*
X134834338Y-102414511D01*
X134879285Y-102431275D01*
X134969184Y-102464805D01*
X135028794Y-102471214D01*
X135039352Y-102471213D01*
X135106390Y-102490893D01*
X135127039Y-102507532D01*
X135797258Y-103177751D01*
X135733674Y-103194789D01*
X135619660Y-103260615D01*
X135526568Y-103353707D01*
X135460742Y-103467721D01*
X135443704Y-103531305D01*
X134811395Y-102898996D01*
X134811394Y-102898996D01*
X134772047Y-102953153D01*
X134675571Y-103142496D01*
X134609909Y-103344583D01*
X134609909Y-103344586D01*
X134576667Y-103554467D01*
X134576667Y-103766960D01*
X134609909Y-103976841D01*
X134609909Y-103976844D01*
X134675571Y-104178931D01*
X134772042Y-104368264D01*
X134811395Y-104422430D01*
X135443704Y-103790122D01*
X135460742Y-103853707D01*
X135526568Y-103967721D01*
X135619660Y-104060813D01*
X135733674Y-104126639D01*
X135797258Y-104143676D01*
X135196638Y-104744295D01*
X135275378Y-104861609D01*
X135276587Y-104865443D01*
X135279511Y-104868205D01*
X135287010Y-104898492D01*
X135296394Y-104928243D01*
X135295338Y-104932122D01*
X135296305Y-104936026D01*
X135286240Y-104965558D01*
X135278050Y-104995661D01*
X135275064Y-104998354D01*
X135273767Y-105002161D01*
X135228718Y-105041197D01*
X135219107Y-105046094D01*
X135164949Y-105085441D01*
X135164949Y-105085442D01*
X135797258Y-105717751D01*
X135733674Y-105734789D01*
X135619660Y-105800615D01*
X135526568Y-105893707D01*
X135460742Y-106007721D01*
X135443704Y-106071305D01*
X134811395Y-105438996D01*
X134811394Y-105438996D01*
X134772047Y-105493153D01*
X134675571Y-105682496D01*
X134609909Y-105884583D01*
X134609909Y-105884586D01*
X134576667Y-106094467D01*
X134576667Y-106306960D01*
X134609909Y-106516841D01*
X134609909Y-106516844D01*
X134675571Y-106718931D01*
X134772042Y-106908264D01*
X134811395Y-106962430D01*
X135443704Y-106330122D01*
X135460742Y-106393707D01*
X135526568Y-106507721D01*
X135619660Y-106600813D01*
X135733674Y-106666639D01*
X135797258Y-106683676D01*
X135196638Y-107284295D01*
X135275378Y-107401609D01*
X135276587Y-107405443D01*
X135279511Y-107408205D01*
X135287010Y-107438492D01*
X135296394Y-107468243D01*
X135295338Y-107472122D01*
X135296305Y-107476026D01*
X135286240Y-107505558D01*
X135278050Y-107535661D01*
X135275064Y-107538354D01*
X135273767Y-107542161D01*
X135228718Y-107581197D01*
X135219107Y-107586094D01*
X135164949Y-107625441D01*
X135164949Y-107625442D01*
X135797258Y-108257751D01*
X135733674Y-108274789D01*
X135619660Y-108340615D01*
X135526568Y-108433707D01*
X135460742Y-108547721D01*
X135443704Y-108611305D01*
X134811395Y-107978996D01*
X134811394Y-107978996D01*
X134772047Y-108033153D01*
X134675571Y-108222496D01*
X134609909Y-108424583D01*
X134609909Y-108424586D01*
X134576667Y-108634467D01*
X134576667Y-108846960D01*
X134609909Y-109056841D01*
X134609909Y-109056844D01*
X134675571Y-109258931D01*
X134772042Y-109448264D01*
X134811395Y-109502430D01*
X135443704Y-108870122D01*
X135460742Y-108933707D01*
X135526568Y-109047721D01*
X135619660Y-109140813D01*
X135733674Y-109206639D01*
X135797258Y-109223676D01*
X135196638Y-109824295D01*
X135275378Y-109941609D01*
X135276587Y-109945443D01*
X135279511Y-109948205D01*
X135287010Y-109978492D01*
X135296394Y-110008243D01*
X135295338Y-110012122D01*
X135296305Y-110016026D01*
X135286240Y-110045558D01*
X135278050Y-110075661D01*
X135275064Y-110078354D01*
X135273767Y-110082161D01*
X135228718Y-110121197D01*
X135219107Y-110126094D01*
X135164949Y-110165441D01*
X135164949Y-110165442D01*
X135797258Y-110797751D01*
X135733674Y-110814789D01*
X135619660Y-110880615D01*
X135526568Y-110973707D01*
X135460742Y-111087721D01*
X135443704Y-111151305D01*
X134811395Y-110518996D01*
X134811394Y-110518996D01*
X134772047Y-110573153D01*
X134675571Y-110762496D01*
X134609909Y-110964583D01*
X134609909Y-110964586D01*
X134576667Y-111174467D01*
X134576667Y-111386960D01*
X134609909Y-111596841D01*
X134609909Y-111596844D01*
X134675571Y-111798931D01*
X134772042Y-111988264D01*
X134811395Y-112042430D01*
X135443704Y-111410122D01*
X135460742Y-111473707D01*
X135526568Y-111587721D01*
X135619660Y-111680813D01*
X135733674Y-111746639D01*
X135797258Y-111763676D01*
X135196638Y-112364295D01*
X135275378Y-112481609D01*
X135276587Y-112485443D01*
X135279511Y-112488205D01*
X135287010Y-112518492D01*
X135296394Y-112548243D01*
X135295338Y-112552122D01*
X135296305Y-112556026D01*
X135286240Y-112585558D01*
X135278050Y-112615661D01*
X135275064Y-112618354D01*
X135273767Y-112622161D01*
X135228718Y-112661197D01*
X135219107Y-112666094D01*
X135164949Y-112705441D01*
X135164949Y-112705442D01*
X135797258Y-113337751D01*
X135733674Y-113354789D01*
X135619660Y-113420615D01*
X135526568Y-113513707D01*
X135460742Y-113627721D01*
X135443704Y-113691305D01*
X134811395Y-113058996D01*
X134811394Y-113058996D01*
X134772047Y-113113153D01*
X134675571Y-113302496D01*
X134609909Y-113504583D01*
X134609909Y-113504586D01*
X134576667Y-113714467D01*
X134576667Y-113926960D01*
X134609909Y-114136841D01*
X134609909Y-114136844D01*
X134675571Y-114338931D01*
X134772042Y-114528264D01*
X134811395Y-114582430D01*
X135443704Y-113950122D01*
X135460742Y-114013707D01*
X135526568Y-114127721D01*
X135619660Y-114220813D01*
X135733674Y-114286639D01*
X135797258Y-114303676D01*
X135196638Y-114904295D01*
X135275378Y-115021609D01*
X135276587Y-115025443D01*
X135279511Y-115028205D01*
X135287010Y-115058492D01*
X135296394Y-115088243D01*
X135295338Y-115092122D01*
X135296305Y-115096026D01*
X135286240Y-115125558D01*
X135278050Y-115155661D01*
X135275064Y-115158354D01*
X135273767Y-115162161D01*
X135228718Y-115201197D01*
X135219107Y-115206094D01*
X135164949Y-115245441D01*
X135164949Y-115245442D01*
X135797258Y-115877751D01*
X135733674Y-115894789D01*
X135619660Y-115960615D01*
X135526568Y-116053707D01*
X135460742Y-116167721D01*
X135443704Y-116231305D01*
X134811395Y-115598996D01*
X134811394Y-115598996D01*
X134772047Y-115653153D01*
X134675571Y-115842496D01*
X134609909Y-116044583D01*
X134609909Y-116044586D01*
X134576667Y-116254467D01*
X134576667Y-116466960D01*
X134609909Y-116676841D01*
X134609909Y-116676844D01*
X134675571Y-116878931D01*
X134772042Y-117068264D01*
X134811395Y-117122430D01*
X135443704Y-116490122D01*
X135460742Y-116553707D01*
X135526568Y-116667721D01*
X135619660Y-116760813D01*
X135733674Y-116826639D01*
X135797258Y-116843676D01*
X135196638Y-117444295D01*
X135275378Y-117561609D01*
X135276587Y-117565443D01*
X135279511Y-117568205D01*
X135287010Y-117598492D01*
X135296394Y-117628243D01*
X135295338Y-117632122D01*
X135296305Y-117636026D01*
X135286240Y-117665558D01*
X135278050Y-117695661D01*
X135275064Y-117698354D01*
X135273767Y-117702161D01*
X135228718Y-117741197D01*
X135219107Y-117746094D01*
X135164949Y-117785441D01*
X135164949Y-117785442D01*
X135797258Y-118417751D01*
X135733674Y-118434789D01*
X135619660Y-118500615D01*
X135526568Y-118593707D01*
X135460742Y-118707721D01*
X135443704Y-118771305D01*
X134811395Y-118138996D01*
X134811394Y-118138996D01*
X134772047Y-118193153D01*
X134675571Y-118382496D01*
X134609909Y-118584583D01*
X134609909Y-118584586D01*
X134576667Y-118794467D01*
X134576667Y-119006960D01*
X134609909Y-119216841D01*
X134609909Y-119216844D01*
X134675571Y-119418931D01*
X134772042Y-119608264D01*
X134811395Y-119662430D01*
X135443704Y-119030122D01*
X135460742Y-119093707D01*
X135526568Y-119207721D01*
X135619660Y-119300813D01*
X135733674Y-119366639D01*
X135797258Y-119383676D01*
X135196638Y-119984295D01*
X135275378Y-120101609D01*
X135276587Y-120105443D01*
X135279511Y-120108205D01*
X135287010Y-120138492D01*
X135296394Y-120168243D01*
X135295338Y-120172122D01*
X135296305Y-120176026D01*
X135286240Y-120205558D01*
X135278050Y-120235661D01*
X135275064Y-120238354D01*
X135273767Y-120242161D01*
X135228718Y-120281197D01*
X135219107Y-120286094D01*
X135164949Y-120325441D01*
X135164949Y-120325442D01*
X135797258Y-120957751D01*
X135733674Y-120974789D01*
X135619660Y-121040615D01*
X135526568Y-121133707D01*
X135460742Y-121247721D01*
X135443704Y-121311305D01*
X134811395Y-120678996D01*
X134811394Y-120678996D01*
X134772047Y-120733153D01*
X134675571Y-120922496D01*
X134609909Y-121124583D01*
X134609909Y-121124586D01*
X134576667Y-121334467D01*
X134576667Y-121546960D01*
X134609909Y-121756841D01*
X134609909Y-121756844D01*
X134675571Y-121958931D01*
X134772042Y-122148264D01*
X134811395Y-122202430D01*
X135443704Y-121570122D01*
X135460742Y-121633707D01*
X135526568Y-121747721D01*
X135619660Y-121840813D01*
X135733674Y-121906639D01*
X135797258Y-121923676D01*
X135196638Y-122524295D01*
X135275378Y-122641609D01*
X135276587Y-122645443D01*
X135279511Y-122648205D01*
X135287010Y-122678492D01*
X135296394Y-122708243D01*
X135295338Y-122712122D01*
X135296305Y-122716026D01*
X135286240Y-122745558D01*
X135278050Y-122775661D01*
X135275064Y-122778354D01*
X135273767Y-122782161D01*
X135228718Y-122821197D01*
X135219107Y-122826094D01*
X135164949Y-122865441D01*
X135164949Y-122865442D01*
X135797258Y-123497751D01*
X135733674Y-123514789D01*
X135619660Y-123580615D01*
X135526568Y-123673707D01*
X135460742Y-123787721D01*
X135443704Y-123851305D01*
X134811395Y-123218996D01*
X134811394Y-123218996D01*
X134772047Y-123273153D01*
X134675571Y-123462496D01*
X134609909Y-123664583D01*
X134609909Y-123664586D01*
X134576667Y-123874467D01*
X134576667Y-124086960D01*
X134609909Y-124296841D01*
X134609909Y-124296844D01*
X134675571Y-124498931D01*
X134772042Y-124688264D01*
X134811395Y-124742430D01*
X135443704Y-124110122D01*
X135460742Y-124173707D01*
X135526568Y-124287721D01*
X135619660Y-124380813D01*
X135733674Y-124446639D01*
X135797257Y-124463676D01*
X135164949Y-125095983D01*
X135164949Y-125095984D01*
X135219116Y-125135338D01*
X135408449Y-125231809D01*
X135610537Y-125297471D01*
X135820421Y-125330714D01*
X136032913Y-125330714D01*
X136242794Y-125297471D01*
X136242797Y-125297471D01*
X136444884Y-125231809D01*
X136634221Y-125135336D01*
X136688383Y-125095984D01*
X136688384Y-125095984D01*
X136652403Y-125060003D01*
X136056075Y-124463676D01*
X136119660Y-124446639D01*
X136233674Y-124380813D01*
X136326766Y-124287721D01*
X136392592Y-124173707D01*
X136409629Y-124110123D01*
X137041937Y-124742431D01*
X137041937Y-124742430D01*
X137081289Y-124688268D01*
X137177762Y-124498931D01*
X137243424Y-124296844D01*
X137243424Y-124296841D01*
X137276667Y-124086960D01*
X137276667Y-123874467D01*
X137243424Y-123664586D01*
X137243424Y-123664583D01*
X137222607Y-123600515D01*
X137211478Y-123566262D01*
X148510000Y-123566262D01*
X148510000Y-123785165D01*
X148510001Y-123785181D01*
X148538573Y-124002210D01*
X148595234Y-124213670D01*
X148679004Y-124415912D01*
X148679012Y-124415928D01*
X148788460Y-124605496D01*
X148788466Y-124605504D01*
X148835438Y-124666721D01*
X149578958Y-123923201D01*
X149603978Y-123983604D01*
X149675112Y-124090065D01*
X149765649Y-124180602D01*
X149872110Y-124251736D01*
X149932511Y-124276755D01*
X149188991Y-125020274D01*
X149188991Y-125020275D01*
X149250200Y-125067241D01*
X149250208Y-125067246D01*
X149439792Y-125176704D01*
X149439801Y-125176709D01*
X149642043Y-125260479D01*
X149853503Y-125317140D01*
X150070532Y-125345712D01*
X150070549Y-125345714D01*
X150289451Y-125345714D01*
X150289467Y-125345712D01*
X150506496Y-125317140D01*
X150717956Y-125260479D01*
X150920198Y-125176709D01*
X150920214Y-125176701D01*
X151109785Y-125067251D01*
X151109793Y-125067245D01*
X151171007Y-125020274D01*
X150427488Y-124276755D01*
X150487890Y-124251736D01*
X150594351Y-124180602D01*
X150684888Y-124090065D01*
X150756022Y-123983604D01*
X150781041Y-123923202D01*
X151524560Y-124666721D01*
X151571531Y-124605507D01*
X151571537Y-124605499D01*
X151680987Y-124415928D01*
X151680995Y-124415912D01*
X151764765Y-124213670D01*
X151821426Y-124002210D01*
X151841016Y-123853410D01*
X151841016Y-123853409D01*
X151849999Y-123785179D01*
X151850000Y-123785165D01*
X151850000Y-123566262D01*
X151849998Y-123566246D01*
X151821426Y-123349217D01*
X151764765Y-123137757D01*
X151680995Y-122935515D01*
X151680990Y-122935506D01*
X151571532Y-122745922D01*
X151571527Y-122745914D01*
X151524560Y-122684705D01*
X150781041Y-123428224D01*
X150756022Y-123367824D01*
X150684888Y-123261363D01*
X150594351Y-123170826D01*
X150487890Y-123099692D01*
X150427487Y-123074671D01*
X151081116Y-122421044D01*
X151171007Y-122331152D01*
X151171007Y-122331151D01*
X151109790Y-122284180D01*
X151109782Y-122284174D01*
X150920214Y-122174726D01*
X150920198Y-122174718D01*
X150717956Y-122090948D01*
X150506496Y-122034287D01*
X150289467Y-122005715D01*
X150289451Y-122005714D01*
X150070549Y-122005714D01*
X150070532Y-122005715D01*
X149853503Y-122034287D01*
X149642043Y-122090948D01*
X149439801Y-122174718D01*
X149439785Y-122174726D01*
X149250215Y-122284175D01*
X149250200Y-122284185D01*
X149188990Y-122331152D01*
X149932511Y-123074672D01*
X149872110Y-123099692D01*
X149765649Y-123170826D01*
X149675112Y-123261363D01*
X149603978Y-123367824D01*
X149578958Y-123428225D01*
X148835438Y-122684704D01*
X148788471Y-122745914D01*
X148788461Y-122745929D01*
X148679012Y-122935499D01*
X148679004Y-122935515D01*
X148595234Y-123137757D01*
X148538573Y-123349217D01*
X148510001Y-123566246D01*
X148510000Y-123566262D01*
X137211478Y-123566262D01*
X137177762Y-123462496D01*
X137081291Y-123273163D01*
X137041937Y-123218996D01*
X137041936Y-123218996D01*
X136409629Y-123851304D01*
X136392592Y-123787721D01*
X136326766Y-123673707D01*
X136233674Y-123580615D01*
X136119660Y-123514789D01*
X136056076Y-123497751D01*
X136688383Y-122865442D01*
X136634217Y-122826089D01*
X136624621Y-122821200D01*
X136573824Y-122773226D01*
X136557028Y-122705406D01*
X136579564Y-122639270D01*
X136624621Y-122600228D01*
X136634221Y-122595336D01*
X136688383Y-122555984D01*
X136688384Y-122555984D01*
X136599186Y-122466786D01*
X136056075Y-121923676D01*
X136119660Y-121906639D01*
X136233674Y-121840813D01*
X136326766Y-121747721D01*
X136392592Y-121633707D01*
X136409629Y-121570123D01*
X137041937Y-122202431D01*
X137041937Y-122202430D01*
X137081289Y-122148268D01*
X137177762Y-121958931D01*
X137243424Y-121756844D01*
X137243424Y-121756841D01*
X137276667Y-121546960D01*
X137276667Y-121334467D01*
X137243424Y-121124586D01*
X137243424Y-121124583D01*
X137177762Y-120922496D01*
X137081291Y-120733163D01*
X137041937Y-120678996D01*
X137041936Y-120678996D01*
X136409629Y-121311304D01*
X136392592Y-121247721D01*
X136326766Y-121133707D01*
X136233674Y-121040615D01*
X136119660Y-120974789D01*
X136056076Y-120957751D01*
X136688383Y-120325442D01*
X136634217Y-120286089D01*
X136624621Y-120281200D01*
X136573824Y-120233226D01*
X136557028Y-120165406D01*
X136579564Y-120099270D01*
X136624621Y-120060228D01*
X136634221Y-120055336D01*
X136688383Y-120015984D01*
X136688384Y-120015984D01*
X136056075Y-119383676D01*
X136119660Y-119366639D01*
X136233674Y-119300813D01*
X136326766Y-119207721D01*
X136392592Y-119093707D01*
X136409629Y-119030123D01*
X137041937Y-119662431D01*
X137041937Y-119662430D01*
X137081289Y-119608268D01*
X137177762Y-119418931D01*
X137243424Y-119216844D01*
X137243424Y-119216841D01*
X137276667Y-119006960D01*
X137276667Y-118794467D01*
X137243424Y-118584585D01*
X137243424Y-118584583D01*
X137237456Y-118566216D01*
X148509500Y-118566216D01*
X148509500Y-118785211D01*
X148524707Y-118900713D01*
X148538083Y-119002312D01*
X148562572Y-119093707D01*
X148593121Y-119207721D01*
X148594759Y-119213831D01*
X148678560Y-119416142D01*
X148678562Y-119416147D01*
X148678565Y-119416152D01*
X148788049Y-119605784D01*
X148921355Y-119779512D01*
X148921361Y-119779519D01*
X149076194Y-119934352D01*
X149076201Y-119934358D01*
X149249929Y-120067664D01*
X149439561Y-120177148D01*
X149439563Y-120177148D01*
X149439572Y-120177154D01*
X149641883Y-120260955D01*
X149853402Y-120317631D01*
X150070510Y-120346214D01*
X150070517Y-120346214D01*
X150289483Y-120346214D01*
X150289490Y-120346214D01*
X150506598Y-120317631D01*
X150718117Y-120260955D01*
X150920428Y-120177154D01*
X151110071Y-120067664D01*
X151283800Y-119934357D01*
X151283805Y-119934352D01*
X151337114Y-119881044D01*
X151438638Y-119779519D01*
X151438643Y-119779514D01*
X151571950Y-119605785D01*
X151681440Y-119416142D01*
X151765241Y-119213831D01*
X151821917Y-119002312D01*
X151850500Y-118785204D01*
X151850500Y-118566224D01*
X151821917Y-118349116D01*
X151765241Y-118137597D01*
X151681440Y-117935286D01*
X151571950Y-117745643D01*
X151535664Y-117698354D01*
X151438644Y-117571915D01*
X151438638Y-117571908D01*
X151283805Y-117417075D01*
X151283798Y-117417069D01*
X151110070Y-117283763D01*
X150920438Y-117174279D01*
X150920433Y-117174276D01*
X150920428Y-117174274D01*
X150718117Y-117090473D01*
X150718118Y-117090473D01*
X150718115Y-117090472D01*
X150612357Y-117062135D01*
X150506598Y-117033797D01*
X150470314Y-117029020D01*
X150289497Y-117005214D01*
X150289490Y-117005214D01*
X150070510Y-117005214D01*
X150070502Y-117005214D01*
X149863853Y-117032421D01*
X149853402Y-117033797D01*
X149808699Y-117045774D01*
X149641884Y-117090472D01*
X149523374Y-117139561D01*
X149439572Y-117174274D01*
X149439569Y-117174275D01*
X149439561Y-117174279D01*
X149249929Y-117283763D01*
X149076201Y-117417069D01*
X149076194Y-117417075D01*
X148921361Y-117571908D01*
X148921355Y-117571915D01*
X148788049Y-117745643D01*
X148678565Y-117935275D01*
X148678560Y-117935287D01*
X148594758Y-118137598D01*
X148538084Y-118349113D01*
X148538082Y-118349124D01*
X148509500Y-118566216D01*
X137237456Y-118566216D01*
X137177762Y-118382496D01*
X137081291Y-118193163D01*
X137041937Y-118138996D01*
X137041936Y-118138996D01*
X136409629Y-118771304D01*
X136392592Y-118707721D01*
X136326766Y-118593707D01*
X136233674Y-118500615D01*
X136119660Y-118434789D01*
X136056076Y-118417751D01*
X136688383Y-117785442D01*
X136634217Y-117746089D01*
X136624621Y-117741200D01*
X136573824Y-117693226D01*
X136557028Y-117625406D01*
X136579564Y-117559270D01*
X136624621Y-117520228D01*
X136634221Y-117515336D01*
X136688383Y-117475984D01*
X136688384Y-117475984D01*
X136056075Y-116843676D01*
X136119660Y-116826639D01*
X136233674Y-116760813D01*
X136326766Y-116667721D01*
X136392592Y-116553707D01*
X136409629Y-116490123D01*
X137041937Y-117122431D01*
X137041937Y-117122430D01*
X137081289Y-117068268D01*
X137177762Y-116878931D01*
X137243424Y-116676844D01*
X137243424Y-116676841D01*
X137276667Y-116466960D01*
X137276667Y-116254467D01*
X137243424Y-116044586D01*
X137243424Y-116044583D01*
X137177762Y-115842496D01*
X137081291Y-115653163D01*
X137041937Y-115598996D01*
X137041936Y-115598996D01*
X136409629Y-116231304D01*
X136392592Y-116167721D01*
X136326766Y-116053707D01*
X136233674Y-115960615D01*
X136119660Y-115894789D01*
X136056076Y-115877751D01*
X136688383Y-115245442D01*
X136634217Y-115206089D01*
X136624621Y-115201200D01*
X136573824Y-115153226D01*
X136557028Y-115085406D01*
X136579564Y-115019270D01*
X136624621Y-114980228D01*
X136634221Y-114975336D01*
X136688383Y-114935984D01*
X136688384Y-114935984D01*
X136056075Y-114303676D01*
X136119660Y-114286639D01*
X136233674Y-114220813D01*
X136326766Y-114127721D01*
X136392592Y-114013707D01*
X136409629Y-113950123D01*
X137041937Y-114582431D01*
X137041937Y-114582430D01*
X137081289Y-114528268D01*
X137177762Y-114338931D01*
X137243424Y-114136844D01*
X137243424Y-114136841D01*
X137276667Y-113926960D01*
X137276667Y-113714467D01*
X137255617Y-113581563D01*
X137253186Y-113566216D01*
X148509500Y-113566216D01*
X148509500Y-113785211D01*
X148533306Y-113966028D01*
X148538083Y-114002312D01*
X148566421Y-114108071D01*
X148574130Y-114136844D01*
X148594759Y-114213831D01*
X148678560Y-114416142D01*
X148678562Y-114416147D01*
X148678565Y-114416152D01*
X148788049Y-114605784D01*
X148921355Y-114779512D01*
X148921361Y-114779519D01*
X149076194Y-114934352D01*
X149076201Y-114934358D01*
X149249929Y-115067664D01*
X149439561Y-115177148D01*
X149439563Y-115177148D01*
X149439572Y-115177154D01*
X149641883Y-115260955D01*
X149853402Y-115317631D01*
X150070510Y-115346214D01*
X150070517Y-115346214D01*
X150289483Y-115346214D01*
X150289490Y-115346214D01*
X150506598Y-115317631D01*
X150718117Y-115260955D01*
X150920428Y-115177154D01*
X151110071Y-115067664D01*
X151283800Y-114934357D01*
X151313862Y-114904295D01*
X151417114Y-114801044D01*
X151438638Y-114779519D01*
X151438643Y-114779514D01*
X151571950Y-114605785D01*
X151681440Y-114416142D01*
X151765241Y-114213831D01*
X151821917Y-114002312D01*
X151850500Y-113785204D01*
X151850500Y-113566224D01*
X151821917Y-113349116D01*
X151765241Y-113137597D01*
X151681440Y-112935286D01*
X151571950Y-112745643D01*
X151470343Y-112613226D01*
X151438644Y-112571915D01*
X151438638Y-112571908D01*
X151283805Y-112417075D01*
X151283798Y-112417069D01*
X151110070Y-112283763D01*
X150920438Y-112174279D01*
X150920433Y-112174276D01*
X150920428Y-112174274D01*
X150718117Y-112090473D01*
X150718118Y-112090473D01*
X150718115Y-112090472D01*
X150612357Y-112062135D01*
X150506598Y-112033797D01*
X150470314Y-112029020D01*
X150289497Y-112005214D01*
X150289490Y-112005214D01*
X150070510Y-112005214D01*
X150070502Y-112005214D01*
X149863853Y-112032421D01*
X149853402Y-112033797D01*
X149821183Y-112042430D01*
X149641884Y-112090472D01*
X149523374Y-112139561D01*
X149439572Y-112174274D01*
X149439569Y-112174275D01*
X149439561Y-112174279D01*
X149249929Y-112283763D01*
X149076201Y-112417069D01*
X149076194Y-112417075D01*
X148921361Y-112571908D01*
X148921355Y-112571915D01*
X148788049Y-112745643D01*
X148678565Y-112935275D01*
X148678560Y-112935287D01*
X148594758Y-113137598D01*
X148538084Y-113349113D01*
X148538082Y-113349124D01*
X148509500Y-113566216D01*
X137253186Y-113566216D01*
X137243424Y-113504586D01*
X137243424Y-113504583D01*
X137177762Y-113302496D01*
X137081291Y-113113163D01*
X137041937Y-113058996D01*
X137041936Y-113058996D01*
X136409629Y-113691304D01*
X136392592Y-113627721D01*
X136326766Y-113513707D01*
X136233674Y-113420615D01*
X136119660Y-113354789D01*
X136056076Y-113337751D01*
X136688383Y-112705442D01*
X136634217Y-112666089D01*
X136624621Y-112661200D01*
X136573824Y-112613226D01*
X136557028Y-112545406D01*
X136579564Y-112479270D01*
X136624621Y-112440228D01*
X136634221Y-112435336D01*
X136688383Y-112395984D01*
X136688384Y-112395984D01*
X136056075Y-111763676D01*
X136119660Y-111746639D01*
X136233674Y-111680813D01*
X136326766Y-111587721D01*
X136392592Y-111473707D01*
X136409629Y-111410123D01*
X137041937Y-112042431D01*
X137041937Y-112042430D01*
X137081289Y-111988268D01*
X137177762Y-111798931D01*
X137243424Y-111596844D01*
X137243424Y-111596841D01*
X137276667Y-111386960D01*
X137276667Y-111174467D01*
X137243424Y-110964586D01*
X137243424Y-110964583D01*
X137177762Y-110762496D01*
X137081291Y-110573163D01*
X137041937Y-110518996D01*
X137041936Y-110518996D01*
X136409629Y-111151304D01*
X136392592Y-111087721D01*
X136326766Y-110973707D01*
X136233674Y-110880615D01*
X136119660Y-110814789D01*
X136056076Y-110797751D01*
X136688383Y-110165442D01*
X136634217Y-110126089D01*
X136624621Y-110121200D01*
X136573824Y-110073226D01*
X136557028Y-110005406D01*
X136579564Y-109939270D01*
X136624621Y-109900228D01*
X136634221Y-109895336D01*
X136688383Y-109855984D01*
X136688384Y-109855984D01*
X136056075Y-109223676D01*
X136119660Y-109206639D01*
X136233674Y-109140813D01*
X136326766Y-109047721D01*
X136392592Y-108933707D01*
X136409629Y-108870123D01*
X137041937Y-109502431D01*
X137041937Y-109502430D01*
X137081289Y-109448268D01*
X137177762Y-109258931D01*
X137243424Y-109056844D01*
X137243424Y-109056841D01*
X137276667Y-108846960D01*
X137276667Y-108634467D01*
X137243424Y-108424583D01*
X137237586Y-108406616D01*
X148719500Y-108406616D01*
X148719500Y-108642811D01*
X148756446Y-108876082D01*
X148829433Y-109100710D01*
X148936657Y-109311147D01*
X149075483Y-109502224D01*
X149242490Y-109669231D01*
X149433567Y-109808057D01*
X149527629Y-109855984D01*
X149644003Y-109915280D01*
X149644005Y-109915280D01*
X149644008Y-109915282D01*
X149725034Y-109941609D01*
X149868631Y-109988267D01*
X150101903Y-110025214D01*
X150101908Y-110025214D01*
X150338097Y-110025214D01*
X150571368Y-109988267D01*
X150601452Y-109978492D01*
X150795992Y-109915282D01*
X151006433Y-109808057D01*
X151197510Y-109669231D01*
X151364517Y-109502224D01*
X151503343Y-109311147D01*
X151610568Y-109100706D01*
X151683553Y-108876082D01*
X151720500Y-108642811D01*
X151720500Y-108406616D01*
X155219500Y-108406616D01*
X155219500Y-108642811D01*
X155256446Y-108876082D01*
X155329433Y-109100710D01*
X155436657Y-109311147D01*
X155575483Y-109502224D01*
X155742490Y-109669231D01*
X155933567Y-109808057D01*
X156027629Y-109855984D01*
X156144003Y-109915280D01*
X156144005Y-109915280D01*
X156144008Y-109915282D01*
X156225034Y-109941609D01*
X156368631Y-109988267D01*
X156601903Y-110025214D01*
X156601908Y-110025214D01*
X156838097Y-110025214D01*
X157071368Y-109988267D01*
X157101452Y-109978492D01*
X157295992Y-109915282D01*
X157506433Y-109808057D01*
X157697510Y-109669231D01*
X157864517Y-109502224D01*
X158003343Y-109311147D01*
X158110568Y-109100706D01*
X158183553Y-108876082D01*
X158220500Y-108642811D01*
X158220500Y-108406616D01*
X158183553Y-108173345D01*
X158138001Y-108033153D01*
X158110568Y-107948722D01*
X158110566Y-107948719D01*
X158110566Y-107948717D01*
X158003342Y-107738280D01*
X157864517Y-107547204D01*
X157697510Y-107380197D01*
X157506433Y-107241371D01*
X157295996Y-107134147D01*
X157071368Y-107061160D01*
X156838097Y-107024214D01*
X156838092Y-107024214D01*
X156601908Y-107024214D01*
X156601903Y-107024214D01*
X156368631Y-107061160D01*
X156144003Y-107134147D01*
X155933566Y-107241371D01*
X155874487Y-107284295D01*
X155742490Y-107380197D01*
X155742488Y-107380199D01*
X155742487Y-107380199D01*
X155575485Y-107547201D01*
X155575485Y-107547202D01*
X155575483Y-107547204D01*
X155547228Y-107586094D01*
X155436657Y-107738280D01*
X155329433Y-107948717D01*
X155256446Y-108173345D01*
X155219500Y-108406616D01*
X151720500Y-108406616D01*
X151683553Y-108173345D01*
X151638001Y-108033153D01*
X151610568Y-107948722D01*
X151610566Y-107948719D01*
X151610566Y-107948717D01*
X151503342Y-107738280D01*
X151364517Y-107547204D01*
X151197510Y-107380197D01*
X151006433Y-107241371D01*
X150795996Y-107134147D01*
X150571368Y-107061160D01*
X150338097Y-107024214D01*
X150338092Y-107024214D01*
X150101908Y-107024214D01*
X150101903Y-107024214D01*
X149868631Y-107061160D01*
X149644003Y-107134147D01*
X149433566Y-107241371D01*
X149374487Y-107284295D01*
X149242490Y-107380197D01*
X149242488Y-107380199D01*
X149242487Y-107380199D01*
X149075485Y-107547201D01*
X149075485Y-107547202D01*
X149075483Y-107547204D01*
X149047228Y-107586094D01*
X148936657Y-107738280D01*
X148829433Y-107948717D01*
X148756446Y-108173345D01*
X148719500Y-108406616D01*
X137237586Y-108406616D01*
X137177762Y-108222496D01*
X137081291Y-108033163D01*
X137041937Y-107978996D01*
X137041936Y-107978996D01*
X136409629Y-108611304D01*
X136392592Y-108547721D01*
X136326766Y-108433707D01*
X136233674Y-108340615D01*
X136119660Y-108274789D01*
X136056076Y-108257751D01*
X136688383Y-107625442D01*
X136634217Y-107586089D01*
X136624621Y-107581200D01*
X136573824Y-107533226D01*
X136557028Y-107465406D01*
X136579564Y-107399270D01*
X136624621Y-107360228D01*
X136634221Y-107355336D01*
X136688383Y-107315984D01*
X136688384Y-107315984D01*
X136056075Y-106683676D01*
X136119660Y-106666639D01*
X136233674Y-106600813D01*
X136326766Y-106507721D01*
X136392592Y-106393707D01*
X136409629Y-106330123D01*
X137041937Y-106962431D01*
X137041937Y-106962430D01*
X137081289Y-106908268D01*
X137177762Y-106718931D01*
X137243424Y-106516844D01*
X137243424Y-106516841D01*
X137276667Y-106306960D01*
X137276667Y-106094467D01*
X137243424Y-105884586D01*
X137243424Y-105884583D01*
X137177762Y-105682496D01*
X137081291Y-105493163D01*
X137041937Y-105438996D01*
X137041936Y-105438996D01*
X136409629Y-106071304D01*
X136392592Y-106007721D01*
X136326766Y-105893707D01*
X136233674Y-105800615D01*
X136119660Y-105734789D01*
X136056076Y-105717751D01*
X136661394Y-105112432D01*
X136688383Y-105085442D01*
X136634217Y-105046089D01*
X136624621Y-105041200D01*
X136573824Y-104993226D01*
X136557028Y-104925406D01*
X136579564Y-104859270D01*
X136624621Y-104820228D01*
X136634221Y-104815336D01*
X136688383Y-104775984D01*
X136688384Y-104775984D01*
X136056075Y-104143676D01*
X136119660Y-104126639D01*
X136233674Y-104060813D01*
X136326766Y-103967721D01*
X136392592Y-103853707D01*
X136409629Y-103790123D01*
X137041937Y-104422431D01*
X137041937Y-104422430D01*
X137081289Y-104368268D01*
X137177762Y-104178931D01*
X137243424Y-103976844D01*
X137243425Y-103976839D01*
X137254540Y-103906661D01*
X148720000Y-103906661D01*
X148720000Y-104142766D01*
X148756934Y-104375961D01*
X148829897Y-104600516D01*
X148937087Y-104810888D01*
X148997338Y-104893818D01*
X148997340Y-104893819D01*
X149696212Y-104194947D01*
X149707482Y-104237006D01*
X149779890Y-104362422D01*
X149882292Y-104464824D01*
X150007708Y-104537232D01*
X150049765Y-104548501D01*
X149350893Y-105247372D01*
X149433828Y-105307628D01*
X149644197Y-105414816D01*
X149868752Y-105487779D01*
X149868751Y-105487779D01*
X150101948Y-105524714D01*
X150338052Y-105524714D01*
X150571247Y-105487779D01*
X150795802Y-105414816D01*
X151006163Y-105307632D01*
X151006169Y-105307628D01*
X151089104Y-105247372D01*
X151089105Y-105247372D01*
X150390233Y-104548501D01*
X150432292Y-104537232D01*
X150557708Y-104464824D01*
X150660110Y-104362422D01*
X150732518Y-104237006D01*
X150743787Y-104194948D01*
X151442658Y-104893819D01*
X151442658Y-104893818D01*
X151502914Y-104810883D01*
X151502918Y-104810877D01*
X151610102Y-104600516D01*
X151683065Y-104375961D01*
X151720000Y-104142766D01*
X151720000Y-103906661D01*
X155220000Y-103906661D01*
X155220000Y-104142766D01*
X155256934Y-104375961D01*
X155329897Y-104600516D01*
X155437087Y-104810888D01*
X155497338Y-104893818D01*
X155497340Y-104893819D01*
X156196212Y-104194947D01*
X156207482Y-104237006D01*
X156279890Y-104362422D01*
X156382292Y-104464824D01*
X156507708Y-104537232D01*
X156549765Y-104548501D01*
X155850893Y-105247372D01*
X155933828Y-105307628D01*
X156144197Y-105414816D01*
X156368752Y-105487779D01*
X156368751Y-105487779D01*
X156601948Y-105524714D01*
X156838052Y-105524714D01*
X157071247Y-105487779D01*
X157295802Y-105414816D01*
X157506163Y-105307632D01*
X157506169Y-105307628D01*
X157589104Y-105247372D01*
X157589105Y-105247372D01*
X156890233Y-104548501D01*
X156932292Y-104537232D01*
X157057708Y-104464824D01*
X157160110Y-104362422D01*
X157232518Y-104237006D01*
X157243787Y-104194948D01*
X157942658Y-104893819D01*
X157942658Y-104893818D01*
X158002914Y-104810883D01*
X158002918Y-104810877D01*
X158073461Y-104672430D01*
X158110102Y-104600516D01*
X158183065Y-104375961D01*
X158220000Y-104142766D01*
X158220000Y-103906661D01*
X158183065Y-103673465D01*
X158155268Y-103587913D01*
X158110102Y-103448909D01*
X158002914Y-103238542D01*
X157942658Y-103155608D01*
X157942658Y-103155607D01*
X157243787Y-103854479D01*
X157232518Y-103812422D01*
X157160110Y-103687006D01*
X157057708Y-103584604D01*
X156932292Y-103512196D01*
X156890234Y-103500926D01*
X157589105Y-102802054D01*
X157589104Y-102802052D01*
X157506174Y-102741801D01*
X157295802Y-102634611D01*
X157071247Y-102561648D01*
X157071248Y-102561648D01*
X156838052Y-102524714D01*
X156601948Y-102524714D01*
X156368752Y-102561648D01*
X156144197Y-102634611D01*
X155933830Y-102741798D01*
X155850894Y-102802054D01*
X156549766Y-103500926D01*
X156507708Y-103512196D01*
X156382292Y-103584604D01*
X156279890Y-103687006D01*
X156207482Y-103812422D01*
X156196212Y-103854480D01*
X155497340Y-103155608D01*
X155437084Y-103238544D01*
X155329897Y-103448911D01*
X155256934Y-103673466D01*
X155220000Y-103906661D01*
X151720000Y-103906661D01*
X151683065Y-103673466D01*
X151610102Y-103448911D01*
X151502914Y-103238542D01*
X151442658Y-103155608D01*
X151442658Y-103155607D01*
X150743787Y-103854479D01*
X150732518Y-103812422D01*
X150660110Y-103687006D01*
X150557708Y-103584604D01*
X150432292Y-103512196D01*
X150390234Y-103500926D01*
X151089105Y-102802054D01*
X151089104Y-102802053D01*
X151006174Y-102741801D01*
X150795802Y-102634611D01*
X150571247Y-102561648D01*
X150571248Y-102561648D01*
X150338052Y-102524714D01*
X150101948Y-102524714D01*
X149868752Y-102561648D01*
X149644197Y-102634611D01*
X149433830Y-102741798D01*
X149350894Y-102802054D01*
X150049766Y-103500926D01*
X150007708Y-103512196D01*
X149882292Y-103584604D01*
X149779890Y-103687006D01*
X149707482Y-103812422D01*
X149696212Y-103854480D01*
X148997340Y-103155608D01*
X148937084Y-103238544D01*
X148829897Y-103448911D01*
X148756934Y-103673466D01*
X148720000Y-103906661D01*
X137254540Y-103906661D01*
X137258384Y-103882392D01*
X137258384Y-103882391D01*
X137276667Y-103766959D01*
X137276667Y-103554467D01*
X137243424Y-103344586D01*
X137243424Y-103344583D01*
X137177762Y-103142496D01*
X137081290Y-102953161D01*
X137081288Y-102953157D01*
X137058797Y-102922201D01*
X137058794Y-102922198D01*
X137041937Y-102898996D01*
X137041936Y-102898996D01*
X136409629Y-103531304D01*
X136392592Y-103467721D01*
X136326766Y-103353707D01*
X136233674Y-103260615D01*
X136119660Y-103194789D01*
X136056076Y-103177751D01*
X136726294Y-102507532D01*
X136787617Y-102474047D01*
X136813974Y-102471213D01*
X136824539Y-102471213D01*
X136884150Y-102464805D01*
X137018998Y-102414510D01*
X137134213Y-102328260D01*
X137220463Y-102213045D01*
X137270758Y-102078197D01*
X137277167Y-102018587D01*
X137277166Y-100222842D01*
X137270758Y-100163231D01*
X137256529Y-100125082D01*
X137220464Y-100028385D01*
X137220460Y-100028378D01*
X137134214Y-99913169D01*
X137134211Y-99913166D01*
X137019002Y-99826920D01*
X137018995Y-99826916D01*
X136884149Y-99776622D01*
X136884150Y-99776622D01*
X136824550Y-99770215D01*
X136824548Y-99770214D01*
X136824540Y-99770214D01*
X136824531Y-99770214D01*
X135028796Y-99770214D01*
X135028790Y-99770215D01*
X134969183Y-99776622D01*
X134834338Y-99826916D01*
X134834331Y-99826920D01*
X134719122Y-99913166D01*
X134719119Y-99913169D01*
X134632873Y-100028378D01*
X134632869Y-100028385D01*
X134582575Y-100163231D01*
X134576168Y-100222830D01*
X134576168Y-100222837D01*
X134576167Y-100222849D01*
X129950500Y-100222849D01*
X129950500Y-98103197D01*
X139282000Y-98103197D01*
X139282000Y-99303215D01*
X139282001Y-99303232D01*
X139292500Y-99406010D01*
X139292501Y-99406013D01*
X139347685Y-99572545D01*
X139347687Y-99572550D01*
X139355769Y-99585653D01*
X139439788Y-99721870D01*
X139563844Y-99845926D01*
X139713166Y-99938028D01*
X139879703Y-99993213D01*
X139982491Y-100003714D01*
X141182508Y-100003713D01*
X141285297Y-99993213D01*
X141451834Y-99938028D01*
X141601156Y-99845926D01*
X141725212Y-99721870D01*
X141766078Y-99655616D01*
X148719500Y-99655616D01*
X148719500Y-99891811D01*
X148756446Y-100125082D01*
X148829433Y-100349710D01*
X148936657Y-100560147D01*
X149075483Y-100751224D01*
X149242490Y-100918231D01*
X149433567Y-101057057D01*
X149532991Y-101107716D01*
X149644003Y-101164280D01*
X149644005Y-101164280D01*
X149644008Y-101164282D01*
X149712511Y-101186540D01*
X149868631Y-101237267D01*
X150101903Y-101274214D01*
X150101908Y-101274214D01*
X150338097Y-101274214D01*
X150571368Y-101237267D01*
X150795992Y-101164282D01*
X151006433Y-101057057D01*
X151197510Y-100918231D01*
X151364517Y-100751224D01*
X151503343Y-100560147D01*
X151610568Y-100349706D01*
X151683553Y-100125082D01*
X151698831Y-100028620D01*
X151720500Y-99891811D01*
X151720500Y-99655616D01*
X155219500Y-99655616D01*
X155219500Y-99891811D01*
X155256446Y-100125082D01*
X155329433Y-100349710D01*
X155436657Y-100560147D01*
X155575483Y-100751224D01*
X155742490Y-100918231D01*
X155933567Y-101057057D01*
X156032991Y-101107716D01*
X156144003Y-101164280D01*
X156144005Y-101164280D01*
X156144008Y-101164282D01*
X156212511Y-101186540D01*
X156368631Y-101237267D01*
X156601903Y-101274214D01*
X156601908Y-101274214D01*
X156838097Y-101274214D01*
X157071368Y-101237267D01*
X157181690Y-101201421D01*
X157295992Y-101164282D01*
X157506433Y-101057057D01*
X157697510Y-100918231D01*
X157864517Y-100751224D01*
X158003343Y-100560147D01*
X158110568Y-100349706D01*
X158151780Y-100222869D01*
X161846667Y-100222869D01*
X161846667Y-100870714D01*
X162763655Y-100870714D01*
X162730742Y-100927721D01*
X162696667Y-101054888D01*
X162696667Y-101186540D01*
X162730742Y-101313707D01*
X162763655Y-101370714D01*
X161846667Y-101370714D01*
X161846667Y-102018558D01*
X161853068Y-102078086D01*
X161853070Y-102078093D01*
X161903312Y-102212800D01*
X161903316Y-102212807D01*
X161989476Y-102327901D01*
X161989479Y-102327904D01*
X162104573Y-102414064D01*
X162104580Y-102414068D01*
X162239287Y-102464310D01*
X162239286Y-102464310D01*
X162322111Y-102473215D01*
X162321783Y-102476264D01*
X162338681Y-102475356D01*
X162397863Y-102508356D01*
X163067258Y-103177751D01*
X163003674Y-103194789D01*
X162889660Y-103260615D01*
X162796568Y-103353707D01*
X162730742Y-103467721D01*
X162713704Y-103531305D01*
X162081395Y-102898996D01*
X162081394Y-102898996D01*
X162042047Y-102953153D01*
X161945571Y-103142496D01*
X161879909Y-103344583D01*
X161879909Y-103344586D01*
X161846667Y-103554467D01*
X161846667Y-103766960D01*
X161879909Y-103976841D01*
X161879909Y-103976844D01*
X161945571Y-104178931D01*
X162042042Y-104368264D01*
X162081395Y-104422430D01*
X162713704Y-103790122D01*
X162730742Y-103853707D01*
X162796568Y-103967721D01*
X162889660Y-104060813D01*
X163003674Y-104126639D01*
X163067258Y-104143676D01*
X162466638Y-104744295D01*
X162545378Y-104861609D01*
X162546587Y-104865443D01*
X162549511Y-104868205D01*
X162557010Y-104898492D01*
X162566394Y-104928243D01*
X162565338Y-104932122D01*
X162566305Y-104936026D01*
X162556240Y-104965558D01*
X162548050Y-104995661D01*
X162545064Y-104998354D01*
X162543767Y-105002161D01*
X162498718Y-105041197D01*
X162489107Y-105046094D01*
X162434949Y-105085441D01*
X162434949Y-105085442D01*
X163067258Y-105717751D01*
X163003674Y-105734789D01*
X162889660Y-105800615D01*
X162796568Y-105893707D01*
X162730742Y-106007721D01*
X162713704Y-106071305D01*
X162081395Y-105438996D01*
X162081394Y-105438996D01*
X162042047Y-105493153D01*
X161945571Y-105682496D01*
X161879909Y-105884583D01*
X161879909Y-105884586D01*
X161846667Y-106094467D01*
X161846667Y-106306960D01*
X161879909Y-106516841D01*
X161879909Y-106516844D01*
X161945571Y-106718931D01*
X162042042Y-106908264D01*
X162081395Y-106962430D01*
X162713704Y-106330122D01*
X162730742Y-106393707D01*
X162796568Y-106507721D01*
X162889660Y-106600813D01*
X163003674Y-106666639D01*
X163067258Y-106683676D01*
X162466638Y-107284295D01*
X162545378Y-107401609D01*
X162546587Y-107405443D01*
X162549511Y-107408205D01*
X162557010Y-107438492D01*
X162566394Y-107468243D01*
X162565338Y-107472122D01*
X162566305Y-107476026D01*
X162556240Y-107505558D01*
X162548050Y-107535661D01*
X162545064Y-107538354D01*
X162543767Y-107542161D01*
X162498718Y-107581197D01*
X162489107Y-107586094D01*
X162434949Y-107625441D01*
X162434949Y-107625442D01*
X163067258Y-108257751D01*
X163003674Y-108274789D01*
X162889660Y-108340615D01*
X162796568Y-108433707D01*
X162730742Y-108547721D01*
X162713704Y-108611305D01*
X162081395Y-107978996D01*
X162081394Y-107978996D01*
X162042047Y-108033153D01*
X161945571Y-108222496D01*
X161879909Y-108424583D01*
X161879909Y-108424586D01*
X161846667Y-108634467D01*
X161846667Y-108846960D01*
X161879909Y-109056841D01*
X161879909Y-109056844D01*
X161945571Y-109258931D01*
X162042042Y-109448264D01*
X162081395Y-109502430D01*
X162713704Y-108870122D01*
X162730742Y-108933707D01*
X162796568Y-109047721D01*
X162889660Y-109140813D01*
X163003674Y-109206639D01*
X163067258Y-109223676D01*
X162466638Y-109824295D01*
X162545378Y-109941609D01*
X162546587Y-109945443D01*
X162549511Y-109948205D01*
X162557010Y-109978492D01*
X162566394Y-110008243D01*
X162565338Y-110012122D01*
X162566305Y-110016026D01*
X162556240Y-110045558D01*
X162548050Y-110075661D01*
X162545064Y-110078354D01*
X162543767Y-110082161D01*
X162498718Y-110121197D01*
X162489107Y-110126094D01*
X162434949Y-110165441D01*
X162434949Y-110165442D01*
X163067258Y-110797751D01*
X163003674Y-110814789D01*
X162889660Y-110880615D01*
X162796568Y-110973707D01*
X162730742Y-111087721D01*
X162713704Y-111151305D01*
X162081395Y-110518996D01*
X162081394Y-110518996D01*
X162042047Y-110573153D01*
X161945571Y-110762496D01*
X161879909Y-110964583D01*
X161879909Y-110964586D01*
X161846667Y-111174467D01*
X161846667Y-111386960D01*
X161879909Y-111596841D01*
X161879909Y-111596844D01*
X161945571Y-111798931D01*
X162042042Y-111988264D01*
X162081395Y-112042430D01*
X162713704Y-111410122D01*
X162730742Y-111473707D01*
X162796568Y-111587721D01*
X162889660Y-111680813D01*
X163003674Y-111746639D01*
X163067258Y-111763676D01*
X162466638Y-112364295D01*
X162545378Y-112481609D01*
X162546587Y-112485443D01*
X162549511Y-112488205D01*
X162557010Y-112518492D01*
X162566394Y-112548243D01*
X162565338Y-112552122D01*
X162566305Y-112556026D01*
X162556240Y-112585558D01*
X162548050Y-112615661D01*
X162545064Y-112618354D01*
X162543767Y-112622161D01*
X162498718Y-112661197D01*
X162489107Y-112666094D01*
X162434949Y-112705441D01*
X162434949Y-112705442D01*
X163067258Y-113337751D01*
X163003674Y-113354789D01*
X162889660Y-113420615D01*
X162796568Y-113513707D01*
X162730742Y-113627721D01*
X162713704Y-113691305D01*
X162081395Y-113058996D01*
X162081394Y-113058996D01*
X162042047Y-113113153D01*
X161945571Y-113302496D01*
X161879909Y-113504583D01*
X161879909Y-113504586D01*
X161846667Y-113714467D01*
X161846667Y-113926960D01*
X161879909Y-114136841D01*
X161879909Y-114136844D01*
X161945571Y-114338931D01*
X162042042Y-114528264D01*
X162081395Y-114582430D01*
X162713704Y-113950122D01*
X162730742Y-114013707D01*
X162796568Y-114127721D01*
X162889660Y-114220813D01*
X163003674Y-114286639D01*
X163067258Y-114303676D01*
X162466638Y-114904295D01*
X162545378Y-115021609D01*
X162546587Y-115025443D01*
X162549511Y-115028205D01*
X162557010Y-115058492D01*
X162566394Y-115088243D01*
X162565338Y-115092122D01*
X162566305Y-115096026D01*
X162556240Y-115125558D01*
X162548050Y-115155661D01*
X162545064Y-115158354D01*
X162543767Y-115162161D01*
X162498718Y-115201197D01*
X162489107Y-115206094D01*
X162434949Y-115245441D01*
X162434949Y-115245442D01*
X163067258Y-115877751D01*
X163003674Y-115894789D01*
X162889660Y-115960615D01*
X162796568Y-116053707D01*
X162730742Y-116167721D01*
X162713704Y-116231305D01*
X162081395Y-115598996D01*
X162081394Y-115598996D01*
X162042047Y-115653153D01*
X161945571Y-115842496D01*
X161879909Y-116044583D01*
X161879909Y-116044586D01*
X161846667Y-116254467D01*
X161846667Y-116466960D01*
X161879909Y-116676841D01*
X161879909Y-116676844D01*
X161945571Y-116878931D01*
X162042042Y-117068264D01*
X162081395Y-117122430D01*
X162713704Y-116490122D01*
X162730742Y-116553707D01*
X162796568Y-116667721D01*
X162889660Y-116760813D01*
X163003674Y-116826639D01*
X163067258Y-116843676D01*
X162466638Y-117444295D01*
X162545378Y-117561609D01*
X162546587Y-117565443D01*
X162549511Y-117568205D01*
X162557010Y-117598492D01*
X162566394Y-117628243D01*
X162565338Y-117632122D01*
X162566305Y-117636026D01*
X162556240Y-117665558D01*
X162548050Y-117695661D01*
X162545064Y-117698354D01*
X162543767Y-117702161D01*
X162498718Y-117741197D01*
X162489107Y-117746094D01*
X162434949Y-117785441D01*
X162434949Y-117785442D01*
X163067258Y-118417751D01*
X163003674Y-118434789D01*
X162889660Y-118500615D01*
X162796568Y-118593707D01*
X162730742Y-118707721D01*
X162713704Y-118771305D01*
X162081395Y-118138996D01*
X162081394Y-118138996D01*
X162042047Y-118193153D01*
X161945571Y-118382496D01*
X161879909Y-118584583D01*
X161879909Y-118584586D01*
X161846667Y-118794467D01*
X161846667Y-119006960D01*
X161879909Y-119216841D01*
X161879909Y-119216844D01*
X161945571Y-119418931D01*
X162042042Y-119608264D01*
X162081395Y-119662430D01*
X162713704Y-119030122D01*
X162730742Y-119093707D01*
X162796568Y-119207721D01*
X162889660Y-119300813D01*
X163003674Y-119366639D01*
X163067258Y-119383676D01*
X162466638Y-119984295D01*
X162545378Y-120101609D01*
X162546587Y-120105443D01*
X162549511Y-120108205D01*
X162557010Y-120138492D01*
X162566394Y-120168243D01*
X162565338Y-120172122D01*
X162566305Y-120176026D01*
X162556240Y-120205558D01*
X162548050Y-120235661D01*
X162545064Y-120238354D01*
X162543767Y-120242161D01*
X162498718Y-120281197D01*
X162489107Y-120286094D01*
X162434949Y-120325441D01*
X162434949Y-120325442D01*
X163067258Y-120957751D01*
X163003674Y-120974789D01*
X162889660Y-121040615D01*
X162796568Y-121133707D01*
X162730742Y-121247721D01*
X162713704Y-121311305D01*
X162081395Y-120678996D01*
X162081394Y-120678996D01*
X162042047Y-120733153D01*
X161945571Y-120922496D01*
X161879909Y-121124583D01*
X161879909Y-121124586D01*
X161846667Y-121334467D01*
X161846667Y-121546960D01*
X161879909Y-121756841D01*
X161879909Y-121756844D01*
X161945571Y-121958931D01*
X162042042Y-122148264D01*
X162081395Y-122202430D01*
X162713704Y-121570122D01*
X162730742Y-121633707D01*
X162796568Y-121747721D01*
X162889660Y-121840813D01*
X163003674Y-121906639D01*
X163067258Y-121923676D01*
X162466638Y-122524295D01*
X162545378Y-122641609D01*
X162546587Y-122645443D01*
X162549511Y-122648205D01*
X162557010Y-122678492D01*
X162566394Y-122708243D01*
X162565338Y-122712122D01*
X162566305Y-122716026D01*
X162556240Y-122745558D01*
X162548050Y-122775661D01*
X162545064Y-122778354D01*
X162543767Y-122782161D01*
X162498718Y-122821197D01*
X162489107Y-122826094D01*
X162434949Y-122865441D01*
X162434949Y-122865442D01*
X163067258Y-123497751D01*
X163003674Y-123514789D01*
X162889660Y-123580615D01*
X162796568Y-123673707D01*
X162730742Y-123787721D01*
X162713704Y-123851305D01*
X162081395Y-123218996D01*
X162081394Y-123218996D01*
X162042047Y-123273153D01*
X161945571Y-123462496D01*
X161879909Y-123664583D01*
X161879909Y-123664586D01*
X161846667Y-123874467D01*
X161846667Y-124086960D01*
X161879909Y-124296841D01*
X161879909Y-124296844D01*
X161945571Y-124498931D01*
X162042042Y-124688264D01*
X162081395Y-124742430D01*
X162713704Y-124110122D01*
X162730742Y-124173707D01*
X162796568Y-124287721D01*
X162889660Y-124380813D01*
X163003674Y-124446639D01*
X163067257Y-124463676D01*
X162434949Y-125095983D01*
X162434949Y-125095984D01*
X162489116Y-125135338D01*
X162678449Y-125231809D01*
X162880537Y-125297471D01*
X163090421Y-125330714D01*
X163302913Y-125330714D01*
X163512794Y-125297471D01*
X163512797Y-125297471D01*
X163714884Y-125231809D01*
X163904221Y-125135336D01*
X163958383Y-125095984D01*
X163958384Y-125095984D01*
X163326075Y-124463676D01*
X163389660Y-124446639D01*
X163503674Y-124380813D01*
X163596766Y-124287721D01*
X163662592Y-124173707D01*
X163679629Y-124110122D01*
X164311937Y-124742431D01*
X164311937Y-124742430D01*
X164351289Y-124688268D01*
X164447762Y-124498931D01*
X164513424Y-124296844D01*
X164513424Y-124296841D01*
X164546667Y-124086960D01*
X164546667Y-123874467D01*
X164513424Y-123664586D01*
X164513424Y-123664583D01*
X164447762Y-123462496D01*
X164351291Y-123273163D01*
X164311937Y-123218996D01*
X164311936Y-123218996D01*
X163679629Y-123851304D01*
X163662592Y-123787721D01*
X163596766Y-123673707D01*
X163503674Y-123580615D01*
X163389660Y-123514789D01*
X163326076Y-123497751D01*
X163958383Y-122865442D01*
X163904217Y-122826089D01*
X163894621Y-122821200D01*
X163843824Y-122773226D01*
X163827028Y-122705406D01*
X163849564Y-122639270D01*
X163894621Y-122600228D01*
X163904221Y-122595336D01*
X163958383Y-122555984D01*
X163958384Y-122555984D01*
X163326075Y-121923676D01*
X163389660Y-121906639D01*
X163503674Y-121840813D01*
X163596766Y-121747721D01*
X163662592Y-121633707D01*
X163679629Y-121570122D01*
X164311937Y-122202431D01*
X164311937Y-122202430D01*
X164351289Y-122148268D01*
X164447762Y-121958931D01*
X164513424Y-121756844D01*
X164513424Y-121756841D01*
X164546667Y-121546960D01*
X164546667Y-121334467D01*
X164513424Y-121124586D01*
X164513424Y-121124583D01*
X164447762Y-120922496D01*
X164351291Y-120733163D01*
X164311937Y-120678996D01*
X164311936Y-120678996D01*
X163679629Y-121311304D01*
X163662592Y-121247721D01*
X163596766Y-121133707D01*
X163503674Y-121040615D01*
X163389660Y-120974789D01*
X163326076Y-120957751D01*
X163958383Y-120325442D01*
X163904217Y-120286089D01*
X163894621Y-120281200D01*
X163843824Y-120233226D01*
X163827028Y-120165406D01*
X163849564Y-120099270D01*
X163894621Y-120060228D01*
X163904221Y-120055336D01*
X163958383Y-120015984D01*
X163958384Y-120015984D01*
X163326075Y-119383676D01*
X163389660Y-119366639D01*
X163503674Y-119300813D01*
X163596766Y-119207721D01*
X163662592Y-119093707D01*
X163679629Y-119030122D01*
X164311937Y-119662431D01*
X164311937Y-119662430D01*
X164351289Y-119608268D01*
X164447762Y-119418931D01*
X164513424Y-119216844D01*
X164513424Y-119216841D01*
X164546667Y-119006960D01*
X164546667Y-118794467D01*
X164513424Y-118584586D01*
X164513424Y-118584583D01*
X164447762Y-118382496D01*
X164351291Y-118193163D01*
X164311937Y-118138996D01*
X163679629Y-118771304D01*
X163662592Y-118707721D01*
X163596766Y-118593707D01*
X163503674Y-118500615D01*
X163389660Y-118434789D01*
X163326076Y-118417751D01*
X163958383Y-117785442D01*
X163904217Y-117746089D01*
X163894621Y-117741200D01*
X163843824Y-117693226D01*
X163827028Y-117625406D01*
X163849564Y-117559270D01*
X163894621Y-117520228D01*
X163904221Y-117515336D01*
X163958383Y-117475984D01*
X163958384Y-117475984D01*
X163326075Y-116843676D01*
X163389660Y-116826639D01*
X163503674Y-116760813D01*
X163596766Y-116667721D01*
X163662592Y-116553707D01*
X163679629Y-116490122D01*
X164311937Y-117122431D01*
X164311937Y-117122430D01*
X164351289Y-117068268D01*
X164447762Y-116878931D01*
X164513424Y-116676844D01*
X164513424Y-116676841D01*
X164546667Y-116466960D01*
X164546667Y-116254467D01*
X164513424Y-116044586D01*
X164513424Y-116044583D01*
X164447762Y-115842496D01*
X164351291Y-115653163D01*
X164311937Y-115598996D01*
X164311936Y-115598996D01*
X163679629Y-116231304D01*
X163662592Y-116167721D01*
X163596766Y-116053707D01*
X163503674Y-115960615D01*
X163389660Y-115894789D01*
X163326076Y-115877751D01*
X163958383Y-115245442D01*
X163904217Y-115206089D01*
X163894621Y-115201200D01*
X163843824Y-115153226D01*
X163827028Y-115085406D01*
X163849564Y-115019270D01*
X163894621Y-114980228D01*
X163904221Y-114975336D01*
X163958383Y-114935984D01*
X163958384Y-114935984D01*
X163326075Y-114303676D01*
X163389660Y-114286639D01*
X163503674Y-114220813D01*
X163596766Y-114127721D01*
X163662592Y-114013707D01*
X163679629Y-113950122D01*
X164311937Y-114582431D01*
X164311937Y-114582430D01*
X164351289Y-114528268D01*
X164447762Y-114338931D01*
X164513424Y-114136844D01*
X164513424Y-114136841D01*
X164546667Y-113926960D01*
X164546667Y-113714467D01*
X164513424Y-113504586D01*
X164513424Y-113504583D01*
X164447762Y-113302496D01*
X164351291Y-113113163D01*
X164311937Y-113058996D01*
X164311936Y-113058996D01*
X163679629Y-113691304D01*
X163662592Y-113627721D01*
X163596766Y-113513707D01*
X163503674Y-113420615D01*
X163389660Y-113354789D01*
X163326076Y-113337751D01*
X163958383Y-112705442D01*
X163904217Y-112666089D01*
X163894621Y-112661200D01*
X163843824Y-112613226D01*
X163827028Y-112545406D01*
X163849564Y-112479270D01*
X163894621Y-112440228D01*
X163904221Y-112435336D01*
X163958383Y-112395984D01*
X163958384Y-112395984D01*
X163326075Y-111763676D01*
X163389660Y-111746639D01*
X163503674Y-111680813D01*
X163596766Y-111587721D01*
X163662592Y-111473707D01*
X163679629Y-111410122D01*
X164311937Y-112042431D01*
X164311937Y-112042430D01*
X164351289Y-111988268D01*
X164447762Y-111798931D01*
X164513424Y-111596844D01*
X164513424Y-111596841D01*
X164546667Y-111386960D01*
X164546667Y-111174467D01*
X164513424Y-110964586D01*
X164513424Y-110964583D01*
X164447762Y-110762496D01*
X164351291Y-110573163D01*
X164311937Y-110518996D01*
X164311936Y-110518996D01*
X163679629Y-111151304D01*
X163662592Y-111087721D01*
X163596766Y-110973707D01*
X163503674Y-110880615D01*
X163389660Y-110814789D01*
X163326076Y-110797751D01*
X163958383Y-110165442D01*
X163904217Y-110126089D01*
X163894621Y-110121200D01*
X163843824Y-110073226D01*
X163827028Y-110005406D01*
X163849564Y-109939270D01*
X163894621Y-109900228D01*
X163904221Y-109895336D01*
X163958383Y-109855984D01*
X163958384Y-109855984D01*
X163326075Y-109223676D01*
X163389660Y-109206639D01*
X163503674Y-109140813D01*
X163596766Y-109047721D01*
X163662592Y-108933707D01*
X163679629Y-108870122D01*
X164311937Y-109502431D01*
X164311937Y-109502430D01*
X164351289Y-109448268D01*
X164447762Y-109258931D01*
X164513424Y-109056844D01*
X164513424Y-109056841D01*
X164546667Y-108846960D01*
X164546667Y-108634467D01*
X164513424Y-108424586D01*
X164513424Y-108424583D01*
X164447762Y-108222496D01*
X164351291Y-108033163D01*
X164311937Y-107978996D01*
X164311936Y-107978996D01*
X163679629Y-108611304D01*
X163662592Y-108547721D01*
X163596766Y-108433707D01*
X163503674Y-108340615D01*
X163389660Y-108274789D01*
X163326076Y-108257751D01*
X163958383Y-107625442D01*
X163904217Y-107586089D01*
X163894621Y-107581200D01*
X163843824Y-107533226D01*
X163827028Y-107465406D01*
X163849564Y-107399270D01*
X163894621Y-107360228D01*
X163904221Y-107355336D01*
X163958383Y-107315984D01*
X163958384Y-107315984D01*
X163326075Y-106683676D01*
X163389660Y-106666639D01*
X163503674Y-106600813D01*
X163596766Y-106507721D01*
X163662592Y-106393707D01*
X163679629Y-106330122D01*
X164311937Y-106962431D01*
X164311937Y-106962430D01*
X164351289Y-106908268D01*
X164447762Y-106718931D01*
X164513424Y-106516844D01*
X164513424Y-106516841D01*
X164546667Y-106306960D01*
X164546667Y-106094467D01*
X164513424Y-105884586D01*
X164513424Y-105884583D01*
X164447762Y-105682496D01*
X164351291Y-105493163D01*
X164311937Y-105438996D01*
X164311936Y-105438996D01*
X163679629Y-106071304D01*
X163662592Y-106007721D01*
X163596766Y-105893707D01*
X163503674Y-105800615D01*
X163389660Y-105734789D01*
X163326076Y-105717751D01*
X163958383Y-105085442D01*
X163904217Y-105046089D01*
X163894621Y-105041200D01*
X163843824Y-104993226D01*
X163827028Y-104925406D01*
X163849564Y-104859270D01*
X163894621Y-104820228D01*
X163904221Y-104815336D01*
X163958383Y-104775984D01*
X163958384Y-104775984D01*
X163326075Y-104143676D01*
X163389660Y-104126639D01*
X163503674Y-104060813D01*
X163596766Y-103967721D01*
X163662592Y-103853707D01*
X163679629Y-103790122D01*
X164311937Y-104422431D01*
X164311937Y-104422430D01*
X164351289Y-104368268D01*
X164447762Y-104178931D01*
X164513424Y-103976844D01*
X164513424Y-103976841D01*
X164546667Y-103766960D01*
X164546667Y-103554467D01*
X164513424Y-103344586D01*
X164513424Y-103344583D01*
X164447762Y-103142496D01*
X164351291Y-102953163D01*
X164311937Y-102898996D01*
X164311936Y-102898996D01*
X163679629Y-103531304D01*
X163662592Y-103467721D01*
X163596766Y-103353707D01*
X163503674Y-103260615D01*
X163389660Y-103194789D01*
X163326076Y-103177751D01*
X163995469Y-102508356D01*
X164056792Y-102474871D01*
X164071500Y-102475792D01*
X164071223Y-102473215D01*
X164154042Y-102464312D01*
X164288753Y-102414068D01*
X164288760Y-102414064D01*
X164403854Y-102327904D01*
X164403857Y-102327901D01*
X164490017Y-102212807D01*
X164490021Y-102212800D01*
X164540263Y-102078093D01*
X164540265Y-102078086D01*
X164546666Y-102018558D01*
X164546667Y-102018541D01*
X164546667Y-101370714D01*
X163629679Y-101370714D01*
X163662592Y-101313707D01*
X163696667Y-101186540D01*
X163696667Y-101054888D01*
X163662592Y-100927721D01*
X163629679Y-100870714D01*
X164546667Y-100870714D01*
X164546667Y-100222886D01*
X164546666Y-100222869D01*
X164540265Y-100163341D01*
X164540263Y-100163334D01*
X164490021Y-100028627D01*
X164490017Y-100028620D01*
X164403857Y-99913526D01*
X164403854Y-99913523D01*
X164288760Y-99827363D01*
X164288753Y-99827359D01*
X164154046Y-99777117D01*
X164154039Y-99777115D01*
X164094511Y-99770714D01*
X163446667Y-99770714D01*
X163446667Y-100687702D01*
X163389660Y-100654789D01*
X163262493Y-100620714D01*
X163130841Y-100620714D01*
X163003674Y-100654789D01*
X162946667Y-100687702D01*
X162946667Y-99770714D01*
X162298822Y-99770714D01*
X162239294Y-99777115D01*
X162239287Y-99777117D01*
X162104580Y-99827359D01*
X162104573Y-99827363D01*
X161989479Y-99913523D01*
X161989476Y-99913526D01*
X161903316Y-100028620D01*
X161903312Y-100028627D01*
X161853070Y-100163334D01*
X161853068Y-100163341D01*
X161846667Y-100222869D01*
X158151780Y-100222869D01*
X158183553Y-100125082D01*
X158198831Y-100028620D01*
X158220500Y-99891811D01*
X158220500Y-99655616D01*
X158183553Y-99422345D01*
X158110566Y-99197717D01*
X158003342Y-98987280D01*
X157864517Y-98796204D01*
X157697510Y-98629197D01*
X157506433Y-98490371D01*
X157295996Y-98383147D01*
X157071368Y-98310160D01*
X156838097Y-98273214D01*
X156838092Y-98273214D01*
X156601908Y-98273214D01*
X156601903Y-98273214D01*
X156368631Y-98310160D01*
X156144003Y-98383147D01*
X155933566Y-98490371D01*
X155824550Y-98569576D01*
X155742490Y-98629197D01*
X155742488Y-98629199D01*
X155742487Y-98629199D01*
X155575485Y-98796201D01*
X155575485Y-98796202D01*
X155575483Y-98796204D01*
X155515862Y-98878264D01*
X155436657Y-98987280D01*
X155329433Y-99197717D01*
X155256446Y-99422345D01*
X155219500Y-99655616D01*
X151720500Y-99655616D01*
X151683553Y-99422345D01*
X151610566Y-99197717D01*
X151503342Y-98987280D01*
X151364517Y-98796204D01*
X151197510Y-98629197D01*
X151006433Y-98490371D01*
X150795996Y-98383147D01*
X150571368Y-98310160D01*
X150338097Y-98273214D01*
X150338092Y-98273214D01*
X150101908Y-98273214D01*
X150101903Y-98273214D01*
X149868631Y-98310160D01*
X149644003Y-98383147D01*
X149433566Y-98490371D01*
X149324550Y-98569576D01*
X149242490Y-98629197D01*
X149242488Y-98629199D01*
X149242487Y-98629199D01*
X149075485Y-98796201D01*
X149075485Y-98796202D01*
X149075483Y-98796204D01*
X149015862Y-98878264D01*
X148936657Y-98987280D01*
X148829433Y-99197717D01*
X148756446Y-99422345D01*
X148719500Y-99655616D01*
X141766078Y-99655616D01*
X141817314Y-99572548D01*
X141872499Y-99406011D01*
X141883000Y-99303223D01*
X141882999Y-98103206D01*
X141872499Y-98000417D01*
X141817314Y-97833880D01*
X141725212Y-97684558D01*
X141601156Y-97560502D01*
X141451834Y-97468400D01*
X141285297Y-97413215D01*
X141285295Y-97413214D01*
X141182510Y-97402714D01*
X139982498Y-97402714D01*
X139982481Y-97402715D01*
X139879703Y-97413214D01*
X139879700Y-97413215D01*
X139713168Y-97468399D01*
X139713163Y-97468401D01*
X139563842Y-97560503D01*
X139439789Y-97684556D01*
X139347687Y-97833877D01*
X139347686Y-97833880D01*
X139292501Y-98000417D01*
X139292501Y-98000418D01*
X139292500Y-98000418D01*
X139282000Y-98103197D01*
X129950500Y-98103197D01*
X129950500Y-95155661D01*
X148720000Y-95155661D01*
X148720000Y-95391766D01*
X148756934Y-95624961D01*
X148829897Y-95849516D01*
X148937087Y-96059888D01*
X148997338Y-96142818D01*
X148997340Y-96142819D01*
X149696212Y-95443947D01*
X149707482Y-95486006D01*
X149779890Y-95611422D01*
X149882292Y-95713824D01*
X150007708Y-95786232D01*
X150049765Y-95797501D01*
X149350893Y-96496372D01*
X149433828Y-96556628D01*
X149644197Y-96663816D01*
X149868752Y-96736779D01*
X149868751Y-96736779D01*
X150101948Y-96773714D01*
X150338052Y-96773714D01*
X150571247Y-96736779D01*
X150795802Y-96663816D01*
X151006163Y-96556632D01*
X151006169Y-96556628D01*
X151089104Y-96496372D01*
X151089105Y-96496372D01*
X150390233Y-95797501D01*
X150432292Y-95786232D01*
X150557708Y-95713824D01*
X150660110Y-95611422D01*
X150732518Y-95486006D01*
X150743787Y-95443948D01*
X151442658Y-96142819D01*
X151442658Y-96142818D01*
X151502914Y-96059883D01*
X151502918Y-96059877D01*
X151610102Y-95849516D01*
X151683065Y-95624961D01*
X151720000Y-95391766D01*
X151720000Y-95155661D01*
X155220000Y-95155661D01*
X155220000Y-95391766D01*
X155256934Y-95624961D01*
X155329897Y-95849516D01*
X155437087Y-96059888D01*
X155497338Y-96142818D01*
X155497340Y-96142819D01*
X156196212Y-95443947D01*
X156207482Y-95486006D01*
X156279890Y-95611422D01*
X156382292Y-95713824D01*
X156507708Y-95786232D01*
X156549765Y-95797501D01*
X155850893Y-96496372D01*
X155933828Y-96556628D01*
X156144197Y-96663816D01*
X156368752Y-96736779D01*
X156368751Y-96736779D01*
X156601948Y-96773714D01*
X156838052Y-96773714D01*
X157071247Y-96736779D01*
X157295802Y-96663816D01*
X157506163Y-96556632D01*
X157506169Y-96556628D01*
X157589104Y-96496372D01*
X157589105Y-96496372D01*
X156890233Y-95797501D01*
X156932292Y-95786232D01*
X157057708Y-95713824D01*
X157160110Y-95611422D01*
X157232518Y-95486006D01*
X157243787Y-95443948D01*
X157942658Y-96142819D01*
X157942658Y-96142818D01*
X158002914Y-96059883D01*
X158002918Y-96059877D01*
X158110102Y-95849516D01*
X158183065Y-95624961D01*
X158220000Y-95391766D01*
X158220000Y-95155661D01*
X158183065Y-94922466D01*
X158110102Y-94697911D01*
X158002914Y-94487542D01*
X157942658Y-94404608D01*
X157942658Y-94404607D01*
X157243787Y-95103479D01*
X157232518Y-95061422D01*
X157160110Y-94936006D01*
X157057708Y-94833604D01*
X156932292Y-94761196D01*
X156890234Y-94749926D01*
X157589105Y-94051054D01*
X157589104Y-94051052D01*
X157506174Y-93990801D01*
X157295802Y-93883611D01*
X157071247Y-93810648D01*
X157071248Y-93810648D01*
X156838052Y-93773714D01*
X156601948Y-93773714D01*
X156368752Y-93810648D01*
X156144197Y-93883611D01*
X155933830Y-93990798D01*
X155850894Y-94051054D01*
X156549766Y-94749926D01*
X156507708Y-94761196D01*
X156382292Y-94833604D01*
X156279890Y-94936006D01*
X156207482Y-95061422D01*
X156196212Y-95103480D01*
X155497340Y-94404608D01*
X155437084Y-94487544D01*
X155329897Y-94697911D01*
X155256934Y-94922466D01*
X155220000Y-95155661D01*
X151720000Y-95155661D01*
X151683065Y-94922466D01*
X151610102Y-94697911D01*
X151502914Y-94487542D01*
X151442658Y-94404608D01*
X151442658Y-94404607D01*
X150743787Y-95103479D01*
X150732518Y-95061422D01*
X150660110Y-94936006D01*
X150557708Y-94833604D01*
X150432292Y-94761196D01*
X150390234Y-94749926D01*
X151089105Y-94051054D01*
X151089104Y-94051053D01*
X151006174Y-93990801D01*
X150795802Y-93883611D01*
X150571247Y-93810648D01*
X150571248Y-93810648D01*
X150338052Y-93773714D01*
X150101948Y-93773714D01*
X149868752Y-93810648D01*
X149644197Y-93883611D01*
X149433830Y-93990798D01*
X149350894Y-94051054D01*
X150049766Y-94749926D01*
X150007708Y-94761196D01*
X149882292Y-94833604D01*
X149779890Y-94936006D01*
X149707482Y-95061422D01*
X149696212Y-95103480D01*
X148997340Y-94404608D01*
X148937084Y-94487544D01*
X148829897Y-94697911D01*
X148756934Y-94922466D01*
X148720000Y-95155661D01*
X129950500Y-95155661D01*
X129950500Y-90980862D01*
X139282000Y-90980862D01*
X139282000Y-91185565D01*
X139314022Y-91387748D01*
X139377281Y-91582437D01*
X139470215Y-91764827D01*
X139590528Y-91930427D01*
X139735286Y-92075185D01*
X139861975Y-92167228D01*
X139900890Y-92195501D01*
X140017107Y-92254717D01*
X140083276Y-92288432D01*
X140083278Y-92288432D01*
X140083281Y-92288434D01*
X140187637Y-92322341D01*
X140277965Y-92351691D01*
X140379057Y-92367702D01*
X140480148Y-92383714D01*
X140480149Y-92383714D01*
X140684851Y-92383714D01*
X140684852Y-92383714D01*
X140887034Y-92351691D01*
X141081719Y-92288434D01*
X141264110Y-92195501D01*
X141357090Y-92127946D01*
X141429713Y-92075185D01*
X141429715Y-92075182D01*
X141429719Y-92075180D01*
X141574466Y-91930433D01*
X141574468Y-91930429D01*
X141574471Y-91930427D01*
X141627232Y-91857804D01*
X141694787Y-91764824D01*
X141787720Y-91582433D01*
X141850977Y-91387748D01*
X141883000Y-91185566D01*
X141883000Y-90980862D01*
X141870924Y-90904616D01*
X148719500Y-90904616D01*
X148719500Y-91140811D01*
X148756446Y-91374082D01*
X148829433Y-91598710D01*
X148914073Y-91764824D01*
X148936657Y-91809147D01*
X149075483Y-92000224D01*
X149242490Y-92167231D01*
X149433567Y-92306057D01*
X149523129Y-92351691D01*
X149644003Y-92413280D01*
X149644005Y-92413280D01*
X149644008Y-92413282D01*
X149764412Y-92452403D01*
X149868631Y-92486267D01*
X150101903Y-92523214D01*
X150101908Y-92523214D01*
X150338097Y-92523214D01*
X150571368Y-92486267D01*
X150795992Y-92413282D01*
X151006433Y-92306057D01*
X151197510Y-92167231D01*
X151364517Y-92000224D01*
X151503343Y-91809147D01*
X151610568Y-91598706D01*
X151683553Y-91374082D01*
X151713411Y-91185566D01*
X151720500Y-91140811D01*
X151720500Y-90904616D01*
X155219500Y-90904616D01*
X155219500Y-91140811D01*
X155256446Y-91374082D01*
X155329433Y-91598710D01*
X155414073Y-91764824D01*
X155436657Y-91809147D01*
X155575483Y-92000224D01*
X155742490Y-92167231D01*
X155933567Y-92306057D01*
X156023129Y-92351691D01*
X156144003Y-92413280D01*
X156144005Y-92413280D01*
X156144008Y-92413282D01*
X156264412Y-92452403D01*
X156368631Y-92486267D01*
X156601903Y-92523214D01*
X156601908Y-92523214D01*
X156838097Y-92523214D01*
X157071368Y-92486267D01*
X157295992Y-92413282D01*
X157506433Y-92306057D01*
X157697510Y-92167231D01*
X157864517Y-92000224D01*
X158003343Y-91809147D01*
X158110568Y-91598706D01*
X158183553Y-91374082D01*
X158213411Y-91185566D01*
X158220500Y-91140811D01*
X158220500Y-90904616D01*
X158183553Y-90671345D01*
X158110566Y-90446717D01*
X158003342Y-90236280D01*
X158003135Y-90235995D01*
X157864517Y-90045204D01*
X157697510Y-89878197D01*
X157506433Y-89739371D01*
X157502704Y-89737471D01*
X157295996Y-89632147D01*
X157260261Y-89620536D01*
X157178985Y-89594128D01*
X157071368Y-89559160D01*
X156838097Y-89522214D01*
X156838092Y-89522214D01*
X156601908Y-89522214D01*
X156601903Y-89522214D01*
X156368631Y-89559160D01*
X156144003Y-89632147D01*
X155933566Y-89739371D01*
X155829836Y-89814736D01*
X155742490Y-89878197D01*
X155742488Y-89878199D01*
X155742487Y-89878199D01*
X155575485Y-90045201D01*
X155575485Y-90045202D01*
X155575483Y-90045204D01*
X155542030Y-90091248D01*
X155436657Y-90236280D01*
X155329433Y-90446717D01*
X155256446Y-90671345D01*
X155219500Y-90904616D01*
X151720500Y-90904616D01*
X151683553Y-90671345D01*
X151610566Y-90446717D01*
X151503342Y-90236280D01*
X151503135Y-90235995D01*
X151364517Y-90045204D01*
X151197510Y-89878197D01*
X151006433Y-89739371D01*
X151002704Y-89737471D01*
X150795996Y-89632147D01*
X150571368Y-89559160D01*
X150338097Y-89522214D01*
X150338092Y-89522214D01*
X150101908Y-89522214D01*
X150101903Y-89522214D01*
X149868631Y-89559160D01*
X149644003Y-89632147D01*
X149433566Y-89739371D01*
X149329836Y-89814736D01*
X149242490Y-89878197D01*
X149242488Y-89878199D01*
X149242487Y-89878199D01*
X149075485Y-90045201D01*
X149075485Y-90045202D01*
X149075483Y-90045204D01*
X149042030Y-90091248D01*
X148936657Y-90236280D01*
X148829433Y-90446717D01*
X148756446Y-90671345D01*
X148719500Y-90904616D01*
X141870924Y-90904616D01*
X141850977Y-90778680D01*
X141787720Y-90583995D01*
X141787718Y-90583992D01*
X141787718Y-90583990D01*
X141754003Y-90517821D01*
X141694787Y-90401604D01*
X141687056Y-90390963D01*
X141574471Y-90236000D01*
X141429713Y-90091242D01*
X141264113Y-89970929D01*
X141264112Y-89970928D01*
X141264110Y-89970927D01*
X141207153Y-89941905D01*
X141081723Y-89877995D01*
X140887034Y-89814736D01*
X140712495Y-89787092D01*
X140684852Y-89782714D01*
X140480148Y-89782714D01*
X140455829Y-89786565D01*
X140277965Y-89814736D01*
X140083276Y-89877995D01*
X139900886Y-89970929D01*
X139735286Y-90091242D01*
X139590528Y-90236000D01*
X139470215Y-90401600D01*
X139377281Y-90583990D01*
X139314022Y-90778679D01*
X139282000Y-90980862D01*
X129950500Y-90980862D01*
X129950500Y-64662849D01*
X134599500Y-64662849D01*
X134599500Y-66458584D01*
X134599501Y-66458590D01*
X134605908Y-66518197D01*
X134656202Y-66653042D01*
X134656206Y-66653049D01*
X134742452Y-66768258D01*
X134742455Y-66768261D01*
X134857664Y-66854507D01*
X134857671Y-66854511D01*
X134902618Y-66871275D01*
X134992517Y-66904805D01*
X135052127Y-66911214D01*
X135062685Y-66911213D01*
X135129723Y-66930893D01*
X135150372Y-66947532D01*
X135820591Y-67617751D01*
X135757007Y-67634789D01*
X135642993Y-67700615D01*
X135549901Y-67793707D01*
X135484075Y-67907721D01*
X135467037Y-67971305D01*
X134834728Y-67338996D01*
X134834727Y-67338996D01*
X134795380Y-67393153D01*
X134698904Y-67582496D01*
X134633242Y-67784583D01*
X134633242Y-67784586D01*
X134600000Y-67994467D01*
X134600000Y-68206960D01*
X134633242Y-68416841D01*
X134633242Y-68416844D01*
X134698904Y-68618931D01*
X134795375Y-68808264D01*
X134834728Y-68862430D01*
X135467037Y-68230122D01*
X135484075Y-68293707D01*
X135549901Y-68407721D01*
X135642993Y-68500813D01*
X135757007Y-68566639D01*
X135820591Y-68583676D01*
X135219971Y-69184295D01*
X135298711Y-69301609D01*
X135299920Y-69305443D01*
X135302844Y-69308205D01*
X135310343Y-69338492D01*
X135319727Y-69368243D01*
X135318671Y-69372122D01*
X135319638Y-69376026D01*
X135309573Y-69405558D01*
X135301383Y-69435661D01*
X135298397Y-69438354D01*
X135297100Y-69442161D01*
X135252051Y-69481197D01*
X135242440Y-69486094D01*
X135188282Y-69525441D01*
X135188282Y-69525442D01*
X135820591Y-70157751D01*
X135757007Y-70174789D01*
X135642993Y-70240615D01*
X135549901Y-70333707D01*
X135484075Y-70447721D01*
X135467037Y-70511305D01*
X134834728Y-69878996D01*
X134834727Y-69878996D01*
X134795380Y-69933153D01*
X134698904Y-70122496D01*
X134633242Y-70324583D01*
X134633242Y-70324586D01*
X134600000Y-70534467D01*
X134600000Y-70746960D01*
X134633242Y-70956841D01*
X134633242Y-70956844D01*
X134698904Y-71158931D01*
X134795375Y-71348264D01*
X134834728Y-71402430D01*
X135467037Y-70770122D01*
X135484075Y-70833707D01*
X135549901Y-70947721D01*
X135642993Y-71040813D01*
X135757007Y-71106639D01*
X135820591Y-71123676D01*
X135219971Y-71724295D01*
X135298711Y-71841609D01*
X135299920Y-71845443D01*
X135302844Y-71848205D01*
X135310343Y-71878492D01*
X135319727Y-71908243D01*
X135318671Y-71912122D01*
X135319638Y-71916026D01*
X135309573Y-71945558D01*
X135301383Y-71975661D01*
X135298397Y-71978354D01*
X135297100Y-71982161D01*
X135252051Y-72021197D01*
X135242440Y-72026094D01*
X135188282Y-72065441D01*
X135188282Y-72065442D01*
X135820591Y-72697751D01*
X135757007Y-72714789D01*
X135642993Y-72780615D01*
X135549901Y-72873707D01*
X135484075Y-72987721D01*
X135467037Y-73051305D01*
X134834728Y-72418996D01*
X134834727Y-72418996D01*
X134795380Y-72473153D01*
X134698904Y-72662496D01*
X134633242Y-72864583D01*
X134633242Y-72864586D01*
X134600000Y-73074467D01*
X134600000Y-73286960D01*
X134633242Y-73496841D01*
X134633242Y-73496844D01*
X134698904Y-73698931D01*
X134795375Y-73888264D01*
X134834728Y-73942430D01*
X135467037Y-73310122D01*
X135484075Y-73373707D01*
X135549901Y-73487721D01*
X135642993Y-73580813D01*
X135757007Y-73646639D01*
X135820591Y-73663676D01*
X135219971Y-74264295D01*
X135298711Y-74381609D01*
X135299920Y-74385443D01*
X135302844Y-74388205D01*
X135310343Y-74418492D01*
X135319727Y-74448243D01*
X135318671Y-74452122D01*
X135319638Y-74456026D01*
X135309573Y-74485558D01*
X135301383Y-74515661D01*
X135298397Y-74518354D01*
X135297100Y-74522161D01*
X135252051Y-74561197D01*
X135242440Y-74566094D01*
X135188282Y-74605441D01*
X135188282Y-74605442D01*
X135820591Y-75237751D01*
X135757007Y-75254789D01*
X135642993Y-75320615D01*
X135549901Y-75413707D01*
X135484075Y-75527721D01*
X135467037Y-75591305D01*
X134834728Y-74958996D01*
X134834727Y-74958996D01*
X134795380Y-75013153D01*
X134698904Y-75202496D01*
X134633242Y-75404583D01*
X134633242Y-75404586D01*
X134600000Y-75614467D01*
X134600000Y-75826960D01*
X134633242Y-76036841D01*
X134633242Y-76036844D01*
X134698904Y-76238931D01*
X134795375Y-76428264D01*
X134834728Y-76482430D01*
X135467037Y-75850122D01*
X135484075Y-75913707D01*
X135549901Y-76027721D01*
X135642993Y-76120813D01*
X135757007Y-76186639D01*
X135820591Y-76203676D01*
X135219971Y-76804295D01*
X135298711Y-76921609D01*
X135299920Y-76925443D01*
X135302844Y-76928205D01*
X135310343Y-76958492D01*
X135319727Y-76988243D01*
X135318671Y-76992122D01*
X135319638Y-76996026D01*
X135309573Y-77025558D01*
X135301383Y-77055661D01*
X135298397Y-77058354D01*
X135297100Y-77062161D01*
X135252051Y-77101197D01*
X135242440Y-77106094D01*
X135188282Y-77145441D01*
X135188282Y-77145442D01*
X135820591Y-77777751D01*
X135757007Y-77794789D01*
X135642993Y-77860615D01*
X135549901Y-77953707D01*
X135484075Y-78067721D01*
X135467037Y-78131305D01*
X134834728Y-77498996D01*
X134834727Y-77498996D01*
X134795380Y-77553153D01*
X134698904Y-77742496D01*
X134633242Y-77944583D01*
X134633242Y-77944586D01*
X134600000Y-78154467D01*
X134600000Y-78366960D01*
X134633242Y-78576841D01*
X134633242Y-78576844D01*
X134698904Y-78778931D01*
X134795375Y-78968264D01*
X134834728Y-79022430D01*
X135467037Y-78390122D01*
X135484075Y-78453707D01*
X135549901Y-78567721D01*
X135642993Y-78660813D01*
X135757007Y-78726639D01*
X135820591Y-78743676D01*
X135219971Y-79344295D01*
X135298711Y-79461609D01*
X135299920Y-79465443D01*
X135302844Y-79468205D01*
X135310343Y-79498492D01*
X135319727Y-79528243D01*
X135318671Y-79532122D01*
X135319638Y-79536026D01*
X135309573Y-79565558D01*
X135301383Y-79595661D01*
X135298397Y-79598354D01*
X135297100Y-79602161D01*
X135252051Y-79641197D01*
X135242440Y-79646094D01*
X135188282Y-79685441D01*
X135188282Y-79685442D01*
X135820591Y-80317751D01*
X135757007Y-80334789D01*
X135642993Y-80400615D01*
X135549901Y-80493707D01*
X135484075Y-80607721D01*
X135467037Y-80671305D01*
X134834728Y-80038996D01*
X134834727Y-80038996D01*
X134795380Y-80093153D01*
X134698904Y-80282496D01*
X134633242Y-80484583D01*
X134633242Y-80484586D01*
X134600000Y-80694467D01*
X134600000Y-80906960D01*
X134633242Y-81116841D01*
X134633242Y-81116844D01*
X134698904Y-81318931D01*
X134795375Y-81508264D01*
X134834728Y-81562430D01*
X135467037Y-80930122D01*
X135484075Y-80993707D01*
X135549901Y-81107721D01*
X135642993Y-81200813D01*
X135757007Y-81266639D01*
X135820591Y-81283676D01*
X135219971Y-81884295D01*
X135298711Y-82001609D01*
X135299920Y-82005443D01*
X135302844Y-82008205D01*
X135310343Y-82038492D01*
X135319727Y-82068243D01*
X135318671Y-82072122D01*
X135319638Y-82076026D01*
X135309573Y-82105558D01*
X135301383Y-82135661D01*
X135298397Y-82138354D01*
X135297100Y-82142161D01*
X135252051Y-82181197D01*
X135242440Y-82186094D01*
X135188282Y-82225441D01*
X135188282Y-82225442D01*
X135820591Y-82857751D01*
X135757007Y-82874789D01*
X135642993Y-82940615D01*
X135549901Y-83033707D01*
X135484075Y-83147721D01*
X135467037Y-83211305D01*
X134834728Y-82578996D01*
X134834727Y-82578996D01*
X134795380Y-82633153D01*
X134698904Y-82822496D01*
X134633242Y-83024583D01*
X134633242Y-83024586D01*
X134600000Y-83234467D01*
X134600000Y-83446960D01*
X134633242Y-83656841D01*
X134633242Y-83656844D01*
X134698904Y-83858931D01*
X134795375Y-84048264D01*
X134834728Y-84102430D01*
X135467037Y-83470122D01*
X135484075Y-83533707D01*
X135549901Y-83647721D01*
X135642993Y-83740813D01*
X135757007Y-83806639D01*
X135820591Y-83823676D01*
X135219971Y-84424295D01*
X135298711Y-84541609D01*
X135299920Y-84545443D01*
X135302844Y-84548205D01*
X135310343Y-84578492D01*
X135319727Y-84608243D01*
X135318671Y-84612122D01*
X135319638Y-84616026D01*
X135309573Y-84645558D01*
X135301383Y-84675661D01*
X135298397Y-84678354D01*
X135297100Y-84682161D01*
X135252051Y-84721197D01*
X135242440Y-84726094D01*
X135188282Y-84765441D01*
X135188282Y-84765442D01*
X135820591Y-85397751D01*
X135757007Y-85414789D01*
X135642993Y-85480615D01*
X135549901Y-85573707D01*
X135484075Y-85687721D01*
X135467037Y-85751305D01*
X134834728Y-85118996D01*
X134834727Y-85118996D01*
X134795380Y-85173153D01*
X134698904Y-85362496D01*
X134633242Y-85564583D01*
X134633242Y-85564586D01*
X134600000Y-85774467D01*
X134600000Y-85986960D01*
X134633242Y-86196841D01*
X134633242Y-86196844D01*
X134698904Y-86398931D01*
X134795375Y-86588264D01*
X134834728Y-86642430D01*
X135467037Y-86010122D01*
X135484075Y-86073707D01*
X135549901Y-86187721D01*
X135642993Y-86280813D01*
X135757007Y-86346639D01*
X135820591Y-86363676D01*
X135219971Y-86964295D01*
X135298711Y-87081609D01*
X135299920Y-87085443D01*
X135302844Y-87088205D01*
X135310343Y-87118492D01*
X135319727Y-87148243D01*
X135318671Y-87152122D01*
X135319638Y-87156026D01*
X135309573Y-87185558D01*
X135301383Y-87215661D01*
X135298397Y-87218354D01*
X135297100Y-87222161D01*
X135252051Y-87261197D01*
X135242440Y-87266094D01*
X135188282Y-87305441D01*
X135188282Y-87305442D01*
X135820591Y-87937751D01*
X135757007Y-87954789D01*
X135642993Y-88020615D01*
X135549901Y-88113707D01*
X135484075Y-88227721D01*
X135467037Y-88291305D01*
X134834728Y-87658996D01*
X134834727Y-87658996D01*
X134795380Y-87713153D01*
X134698904Y-87902496D01*
X134633242Y-88104583D01*
X134633242Y-88104586D01*
X134600000Y-88314467D01*
X134600000Y-88526960D01*
X134633242Y-88736841D01*
X134633242Y-88736844D01*
X134698904Y-88938931D01*
X134795375Y-89128264D01*
X134834728Y-89182430D01*
X135467037Y-88550122D01*
X135484075Y-88613707D01*
X135549901Y-88727721D01*
X135642993Y-88820813D01*
X135757007Y-88886639D01*
X135820590Y-88903676D01*
X135188282Y-89535983D01*
X135188282Y-89535984D01*
X135242449Y-89575338D01*
X135431782Y-89671809D01*
X135633870Y-89737471D01*
X135843754Y-89770714D01*
X136056246Y-89770714D01*
X136266127Y-89737471D01*
X136266130Y-89737471D01*
X136468217Y-89671809D01*
X136657554Y-89575336D01*
X136711716Y-89535984D01*
X136711717Y-89535984D01*
X136079408Y-88903676D01*
X136142993Y-88886639D01*
X136257007Y-88820813D01*
X136350099Y-88727721D01*
X136415925Y-88613707D01*
X136432962Y-88550122D01*
X137065270Y-89182431D01*
X137065270Y-89182430D01*
X137104622Y-89128268D01*
X137201095Y-88938931D01*
X137266757Y-88736844D01*
X137266757Y-88736841D01*
X137300000Y-88526960D01*
X137300000Y-88314467D01*
X137266757Y-88104586D01*
X137266757Y-88104583D01*
X137201095Y-87902496D01*
X137125640Y-87754408D01*
X137104624Y-87713164D01*
X137065270Y-87658996D01*
X137065269Y-87658996D01*
X136432962Y-88291304D01*
X136415925Y-88227721D01*
X136350099Y-88113707D01*
X136257007Y-88020615D01*
X136142993Y-87954789D01*
X136079409Y-87937751D01*
X136711716Y-87305442D01*
X136657550Y-87266089D01*
X136647954Y-87261200D01*
X136597157Y-87213226D01*
X136580361Y-87145406D01*
X136602897Y-87079270D01*
X136647954Y-87040228D01*
X136657554Y-87035336D01*
X136711716Y-86995984D01*
X136711717Y-86995984D01*
X136079408Y-86363676D01*
X136142993Y-86346639D01*
X136257007Y-86280813D01*
X136350099Y-86187721D01*
X136415925Y-86073707D01*
X136432962Y-86010122D01*
X137065270Y-86642431D01*
X137065270Y-86642430D01*
X137104622Y-86588268D01*
X137198175Y-86404661D01*
X148720000Y-86404661D01*
X148720000Y-86640766D01*
X148756934Y-86873961D01*
X148829897Y-87098516D01*
X148937087Y-87308888D01*
X148997338Y-87391818D01*
X148997340Y-87391819D01*
X149696212Y-86692947D01*
X149707482Y-86735006D01*
X149779890Y-86860422D01*
X149882292Y-86962824D01*
X150007708Y-87035232D01*
X150049765Y-87046501D01*
X149350893Y-87745372D01*
X149433828Y-87805628D01*
X149644197Y-87912816D01*
X149868752Y-87985779D01*
X149868751Y-87985779D01*
X150101948Y-88022714D01*
X150338052Y-88022714D01*
X150571247Y-87985779D01*
X150795802Y-87912816D01*
X151006163Y-87805632D01*
X151006169Y-87805628D01*
X151089104Y-87745372D01*
X151089105Y-87745372D01*
X150390233Y-87046501D01*
X150432292Y-87035232D01*
X150557708Y-86962824D01*
X150660110Y-86860422D01*
X150732518Y-86735006D01*
X150743787Y-86692948D01*
X151442658Y-87391819D01*
X151442658Y-87391818D01*
X151502914Y-87308883D01*
X151502918Y-87308877D01*
X151610102Y-87098516D01*
X151683065Y-86873961D01*
X151720000Y-86640766D01*
X151720000Y-86404661D01*
X155220000Y-86404661D01*
X155220000Y-86640766D01*
X155256934Y-86873961D01*
X155329897Y-87098516D01*
X155437087Y-87308888D01*
X155497338Y-87391818D01*
X155497340Y-87391819D01*
X156196212Y-86692947D01*
X156207482Y-86735006D01*
X156279890Y-86860422D01*
X156382292Y-86962824D01*
X156507708Y-87035232D01*
X156549765Y-87046501D01*
X155850893Y-87745372D01*
X155933828Y-87805628D01*
X156144197Y-87912816D01*
X156368752Y-87985779D01*
X156368751Y-87985779D01*
X156601948Y-88022714D01*
X156838052Y-88022714D01*
X157071247Y-87985779D01*
X157295802Y-87912816D01*
X157506163Y-87805632D01*
X157506169Y-87805628D01*
X157589104Y-87745372D01*
X157589105Y-87745372D01*
X156890233Y-87046501D01*
X156932292Y-87035232D01*
X157057708Y-86962824D01*
X157160110Y-86860422D01*
X157232518Y-86735006D01*
X157243787Y-86692948D01*
X157942658Y-87391819D01*
X157942658Y-87391818D01*
X158002914Y-87308883D01*
X158002918Y-87308877D01*
X158110102Y-87098516D01*
X158171224Y-86910407D01*
X158183065Y-86873962D01*
X158220000Y-86640766D01*
X158220000Y-86404661D01*
X158183065Y-86171466D01*
X158110102Y-85946911D01*
X158048439Y-85825890D01*
X158048438Y-85825888D01*
X158002916Y-85736544D01*
X157942658Y-85653608D01*
X157942658Y-85653607D01*
X157243787Y-86352479D01*
X157232518Y-86310422D01*
X157160110Y-86185006D01*
X157057708Y-86082604D01*
X156932292Y-86010196D01*
X156890234Y-85998926D01*
X157589105Y-85300054D01*
X157589104Y-85300052D01*
X157506174Y-85239801D01*
X157295802Y-85132611D01*
X157071247Y-85059648D01*
X157071248Y-85059648D01*
X156838052Y-85022714D01*
X156601948Y-85022714D01*
X156368752Y-85059648D01*
X156144197Y-85132611D01*
X155933830Y-85239798D01*
X155850894Y-85300054D01*
X156549766Y-85998926D01*
X156507708Y-86010196D01*
X156382292Y-86082604D01*
X156279890Y-86185006D01*
X156207482Y-86310422D01*
X156196212Y-86352480D01*
X155497340Y-85653608D01*
X155437084Y-85736544D01*
X155329897Y-85946911D01*
X155256934Y-86171466D01*
X155220000Y-86404661D01*
X151720000Y-86404661D01*
X151683065Y-86171466D01*
X151610102Y-85946911D01*
X151502914Y-85736542D01*
X151442658Y-85653608D01*
X151442658Y-85653607D01*
X150743787Y-86352479D01*
X150732518Y-86310422D01*
X150660110Y-86185006D01*
X150557708Y-86082604D01*
X150432292Y-86010196D01*
X150390234Y-85998926D01*
X151089105Y-85300054D01*
X151089104Y-85300053D01*
X151006174Y-85239801D01*
X150795802Y-85132611D01*
X150571247Y-85059648D01*
X150571248Y-85059648D01*
X150338052Y-85022714D01*
X150101948Y-85022714D01*
X149868752Y-85059648D01*
X149644197Y-85132611D01*
X149433830Y-85239798D01*
X149350894Y-85300054D01*
X150049766Y-85998926D01*
X150007708Y-86010196D01*
X149882292Y-86082604D01*
X149779890Y-86185006D01*
X149707482Y-86310422D01*
X149696212Y-86352480D01*
X148997340Y-85653608D01*
X148937084Y-85736544D01*
X148829897Y-85946911D01*
X148756934Y-86171466D01*
X148720000Y-86404661D01*
X137198175Y-86404661D01*
X137201095Y-86398931D01*
X137213267Y-86361471D01*
X137266757Y-86196844D01*
X137266757Y-86196841D01*
X137300000Y-85986960D01*
X137300000Y-85774467D01*
X137266757Y-85564586D01*
X137266757Y-85564583D01*
X137208612Y-85385631D01*
X137208611Y-85385629D01*
X137201096Y-85362498D01*
X137104624Y-85173163D01*
X137065270Y-85118996D01*
X137065269Y-85118996D01*
X136432962Y-85751304D01*
X136415925Y-85687721D01*
X136350099Y-85573707D01*
X136257007Y-85480615D01*
X136142993Y-85414789D01*
X136079409Y-85397751D01*
X136711716Y-84765442D01*
X136657550Y-84726089D01*
X136647954Y-84721200D01*
X136597157Y-84673226D01*
X136580361Y-84605406D01*
X136601288Y-84541609D01*
X136680027Y-84424295D01*
X136079408Y-83823676D01*
X136142993Y-83806639D01*
X136257007Y-83740813D01*
X136350099Y-83647721D01*
X136415925Y-83533707D01*
X136432962Y-83470122D01*
X137065270Y-84102431D01*
X137065270Y-84102430D01*
X137104622Y-84048268D01*
X137201095Y-83858931D01*
X137266757Y-83656844D01*
X137266757Y-83656841D01*
X137300000Y-83446960D01*
X137300000Y-83234467D01*
X137266757Y-83024586D01*
X137266757Y-83024583D01*
X137201095Y-82822496D01*
X137104624Y-82633163D01*
X137065270Y-82578996D01*
X137065269Y-82578996D01*
X136432962Y-83211304D01*
X136415925Y-83147721D01*
X136350099Y-83033707D01*
X136257007Y-82940615D01*
X136142993Y-82874789D01*
X136079409Y-82857751D01*
X136711716Y-82225442D01*
X136657550Y-82186089D01*
X136647954Y-82181200D01*
X136597157Y-82133226D01*
X136580361Y-82065406D01*
X136602897Y-81999270D01*
X136647954Y-81960228D01*
X136657554Y-81955336D01*
X136711716Y-81915984D01*
X136711717Y-81915984D01*
X136079408Y-81283676D01*
X136142993Y-81266639D01*
X136257007Y-81200813D01*
X136350099Y-81107721D01*
X136415925Y-80993707D01*
X136432962Y-80930122D01*
X137065270Y-81562431D01*
X137065270Y-81562430D01*
X137104622Y-81508268D01*
X137201095Y-81318931D01*
X137266757Y-81116844D01*
X137266757Y-81116841D01*
X137300000Y-80906960D01*
X137300000Y-80694467D01*
X137266757Y-80484586D01*
X137266757Y-80484583D01*
X137201095Y-80282496D01*
X137104624Y-80093163D01*
X137065270Y-80038996D01*
X137065269Y-80038996D01*
X136432962Y-80671304D01*
X136415925Y-80607721D01*
X136350099Y-80493707D01*
X136257007Y-80400615D01*
X136142993Y-80334789D01*
X136079409Y-80317751D01*
X136711716Y-79685442D01*
X136657550Y-79646089D01*
X136647954Y-79641200D01*
X136597157Y-79593226D01*
X136580361Y-79525406D01*
X136602897Y-79459270D01*
X136647954Y-79420228D01*
X136657554Y-79415336D01*
X136711716Y-79375984D01*
X136711717Y-79375984D01*
X136079408Y-78743676D01*
X136142993Y-78726639D01*
X136257007Y-78660813D01*
X136350099Y-78567721D01*
X136415925Y-78453707D01*
X136432962Y-78390122D01*
X137065270Y-79022431D01*
X137065270Y-79022430D01*
X137104622Y-78968268D01*
X137201095Y-78778931D01*
X137266757Y-78576844D01*
X137266757Y-78576841D01*
X137300000Y-78366960D01*
X137300000Y-78154467D01*
X137266757Y-77944586D01*
X137266757Y-77944583D01*
X137201095Y-77742496D01*
X137104624Y-77553163D01*
X137065270Y-77498996D01*
X137065269Y-77498996D01*
X136432962Y-78131304D01*
X136415925Y-78067721D01*
X136350099Y-77953707D01*
X136257007Y-77860615D01*
X136142993Y-77794789D01*
X136079409Y-77777751D01*
X136711716Y-77145442D01*
X136657550Y-77106089D01*
X136647954Y-77101200D01*
X136597157Y-77053226D01*
X136580361Y-76985406D01*
X136602897Y-76919270D01*
X136647954Y-76880228D01*
X136657554Y-76875336D01*
X136711716Y-76835984D01*
X136711717Y-76835984D01*
X136079408Y-76203676D01*
X136142993Y-76186639D01*
X136257007Y-76120813D01*
X136350099Y-76027721D01*
X136415925Y-75913707D01*
X136432962Y-75850122D01*
X137065270Y-76482431D01*
X137065270Y-76482430D01*
X137104622Y-76428268D01*
X137201095Y-76238931D01*
X137266757Y-76036844D01*
X137266757Y-76036841D01*
X137300000Y-75826960D01*
X137300000Y-75614467D01*
X137266757Y-75404586D01*
X137266757Y-75404583D01*
X137201095Y-75202496D01*
X137104624Y-75013163D01*
X137065270Y-74958996D01*
X137065269Y-74958996D01*
X136432962Y-75591304D01*
X136415925Y-75527721D01*
X136350099Y-75413707D01*
X136257007Y-75320615D01*
X136142993Y-75254789D01*
X136079409Y-75237751D01*
X136711716Y-74605442D01*
X136657550Y-74566089D01*
X136647954Y-74561200D01*
X136597157Y-74513226D01*
X136580361Y-74445406D01*
X136602897Y-74379270D01*
X136647954Y-74340228D01*
X136657554Y-74335336D01*
X136711716Y-74295984D01*
X136711717Y-74295984D01*
X136079408Y-73663676D01*
X136142993Y-73646639D01*
X136257007Y-73580813D01*
X136350099Y-73487721D01*
X136415925Y-73373707D01*
X136432962Y-73310122D01*
X137065270Y-73942431D01*
X137065270Y-73942430D01*
X137104622Y-73888268D01*
X137201095Y-73698931D01*
X137266757Y-73496844D01*
X137266757Y-73496841D01*
X137300000Y-73286960D01*
X137300000Y-73074467D01*
X137266757Y-72864586D01*
X137266757Y-72864583D01*
X137201095Y-72662496D01*
X137104624Y-72473163D01*
X137065270Y-72418996D01*
X137065269Y-72418996D01*
X136432962Y-73051304D01*
X136415925Y-72987721D01*
X136350099Y-72873707D01*
X136257007Y-72780615D01*
X136142993Y-72714789D01*
X136079409Y-72697751D01*
X136711716Y-72065442D01*
X136657550Y-72026089D01*
X136647954Y-72021200D01*
X136597157Y-71973226D01*
X136580361Y-71905406D01*
X136602897Y-71839270D01*
X136647954Y-71800228D01*
X136657554Y-71795336D01*
X136711716Y-71755984D01*
X136711717Y-71755984D01*
X136079408Y-71123676D01*
X136142993Y-71106639D01*
X136257007Y-71040813D01*
X136350099Y-70947721D01*
X136415925Y-70833707D01*
X136432962Y-70770122D01*
X137065270Y-71402431D01*
X137065270Y-71402430D01*
X137104622Y-71348268D01*
X137201095Y-71158931D01*
X137266757Y-70956844D01*
X137266757Y-70956841D01*
X137300000Y-70746960D01*
X137300000Y-70534467D01*
X137266757Y-70324586D01*
X137266757Y-70324583D01*
X137201095Y-70122496D01*
X137104624Y-69933163D01*
X137065270Y-69878996D01*
X137065269Y-69878996D01*
X136432962Y-70511304D01*
X136415925Y-70447721D01*
X136350099Y-70333707D01*
X136257007Y-70240615D01*
X136142993Y-70174789D01*
X136079409Y-70157751D01*
X136711716Y-69525442D01*
X136657550Y-69486089D01*
X136647954Y-69481200D01*
X136597157Y-69433226D01*
X136580361Y-69365406D01*
X136602897Y-69299270D01*
X136647954Y-69260228D01*
X136657554Y-69255336D01*
X136711716Y-69215984D01*
X136711717Y-69215984D01*
X136079408Y-68583676D01*
X136142993Y-68566639D01*
X136257007Y-68500813D01*
X136350099Y-68407721D01*
X136415925Y-68293707D01*
X136432962Y-68230122D01*
X137065270Y-68862431D01*
X137065270Y-68862430D01*
X137104622Y-68808268D01*
X137201095Y-68618931D01*
X137266757Y-68416844D01*
X137266757Y-68416841D01*
X137300000Y-68206960D01*
X137300000Y-67994467D01*
X137266757Y-67784586D01*
X137266757Y-67784583D01*
X137201095Y-67582496D01*
X137104624Y-67393163D01*
X137065270Y-67338996D01*
X137065269Y-67338996D01*
X136432962Y-67971304D01*
X136415925Y-67907721D01*
X136350099Y-67793707D01*
X136257007Y-67700615D01*
X136142993Y-67634789D01*
X136079409Y-67617751D01*
X136749627Y-66947532D01*
X136810950Y-66914047D01*
X136837307Y-66911213D01*
X136847872Y-66911213D01*
X136907483Y-66904805D01*
X137042331Y-66854510D01*
X137157546Y-66768260D01*
X137243796Y-66653045D01*
X137294091Y-66518197D01*
X137300500Y-66458587D01*
X137300499Y-64662842D01*
X137294091Y-64603231D01*
X137260357Y-64512786D01*
X137243797Y-64468385D01*
X137243793Y-64468378D01*
X137157547Y-64353169D01*
X137157544Y-64353166D01*
X137042335Y-64266920D01*
X137042328Y-64266916D01*
X136907482Y-64216622D01*
X136907483Y-64216622D01*
X136847883Y-64210215D01*
X136847881Y-64210214D01*
X136847873Y-64210214D01*
X136847864Y-64210214D01*
X135052129Y-64210214D01*
X135052123Y-64210215D01*
X134992516Y-64216622D01*
X134857671Y-64266916D01*
X134857664Y-64266920D01*
X134742455Y-64353166D01*
X134742452Y-64353169D01*
X134656206Y-64468378D01*
X134656202Y-64468385D01*
X134605908Y-64603231D01*
X134599501Y-64662830D01*
X134599501Y-64662837D01*
X134599500Y-64662849D01*
X129950500Y-64662849D01*
X129950500Y-63267849D01*
X141299500Y-63267849D01*
X141299500Y-64963584D01*
X141299501Y-64963590D01*
X141305908Y-65023197D01*
X141356202Y-65158042D01*
X141356206Y-65158049D01*
X141442452Y-65273258D01*
X141442455Y-65273261D01*
X141557664Y-65359507D01*
X141557671Y-65359511D01*
X141558985Y-65360001D01*
X141692517Y-65409805D01*
X141729441Y-65413774D01*
X141793989Y-65440510D01*
X141833838Y-65497902D01*
X141836333Y-65567727D01*
X141800681Y-65627816D01*
X141789071Y-65637380D01*
X141752784Y-65663744D01*
X141608028Y-65808500D01*
X141487715Y-65974100D01*
X141394781Y-66156490D01*
X141331522Y-66351179D01*
X141299500Y-66553362D01*
X141299500Y-66758065D01*
X141331522Y-66960248D01*
X141394781Y-67154937D01*
X141487715Y-67337327D01*
X141608028Y-67502927D01*
X141752786Y-67647685D01*
X141907749Y-67760270D01*
X141918390Y-67768001D01*
X142009840Y-67814597D01*
X142011080Y-67815229D01*
X142061876Y-67863204D01*
X142078671Y-67931025D01*
X142056134Y-67997160D01*
X142011080Y-68036199D01*
X141918386Y-68083429D01*
X141752786Y-68203742D01*
X141608028Y-68348500D01*
X141487715Y-68514100D01*
X141394781Y-68696490D01*
X141331522Y-68891179D01*
X141312341Y-69012287D01*
X141299500Y-69093362D01*
X141299500Y-69298066D01*
X141301106Y-69308205D01*
X141331522Y-69500248D01*
X141394781Y-69694937D01*
X141487715Y-69877327D01*
X141608028Y-70042927D01*
X141752786Y-70187685D01*
X141907749Y-70300270D01*
X141918390Y-70308001D01*
X142009840Y-70354597D01*
X142011080Y-70355229D01*
X142061876Y-70403204D01*
X142078671Y-70471025D01*
X142056134Y-70537160D01*
X142011080Y-70576199D01*
X141918386Y-70623429D01*
X141752786Y-70743742D01*
X141608028Y-70888500D01*
X141487715Y-71054100D01*
X141394781Y-71236490D01*
X141331522Y-71431179D01*
X141299500Y-71633362D01*
X141299500Y-71838066D01*
X141301106Y-71848205D01*
X141331522Y-72040248D01*
X141394781Y-72234937D01*
X141487715Y-72417327D01*
X141608028Y-72582927D01*
X141752786Y-72727685D01*
X141907749Y-72840270D01*
X141918390Y-72848001D01*
X142009840Y-72894597D01*
X142011080Y-72895229D01*
X142061876Y-72943204D01*
X142078671Y-73011025D01*
X142056134Y-73077160D01*
X142011080Y-73116199D01*
X141918386Y-73163429D01*
X141752786Y-73283742D01*
X141608028Y-73428500D01*
X141487715Y-73594100D01*
X141394781Y-73776490D01*
X141331522Y-73971179D01*
X141312341Y-74092287D01*
X141299500Y-74173362D01*
X141299500Y-74378066D01*
X141303878Y-74405709D01*
X141331522Y-74580248D01*
X141394781Y-74774937D01*
X141487715Y-74957327D01*
X141608028Y-75122927D01*
X141752786Y-75267685D01*
X141907749Y-75380270D01*
X141918390Y-75388001D01*
X142009840Y-75434597D01*
X142011080Y-75435229D01*
X142061876Y-75483204D01*
X142078671Y-75551025D01*
X142056134Y-75617160D01*
X142011080Y-75656199D01*
X141918386Y-75703429D01*
X141752786Y-75823742D01*
X141608028Y-75968500D01*
X141487715Y-76134100D01*
X141394781Y-76316490D01*
X141331522Y-76511179D01*
X141299500Y-76713362D01*
X141299500Y-76918066D01*
X141301106Y-76928205D01*
X141331522Y-77120248D01*
X141394781Y-77314937D01*
X141447377Y-77418160D01*
X141487712Y-77497323D01*
X141487715Y-77497327D01*
X141608028Y-77662927D01*
X141752786Y-77807685D01*
X141907749Y-77920270D01*
X141918390Y-77928001D01*
X142009840Y-77974597D01*
X142011080Y-77975229D01*
X142061876Y-78023204D01*
X142078671Y-78091025D01*
X142056134Y-78157160D01*
X142011080Y-78196199D01*
X141918386Y-78243429D01*
X141752786Y-78363742D01*
X141608028Y-78508500D01*
X141487715Y-78674100D01*
X141394781Y-78856490D01*
X141331522Y-79051179D01*
X141306242Y-79210794D01*
X141299500Y-79253362D01*
X141299500Y-79458066D01*
X141301106Y-79468205D01*
X141331522Y-79660248D01*
X141394781Y-79854937D01*
X141487715Y-80037327D01*
X141608028Y-80202927D01*
X141752786Y-80347685D01*
X141907749Y-80460270D01*
X141918390Y-80468001D01*
X142009840Y-80514597D01*
X142011080Y-80515229D01*
X142061876Y-80563204D01*
X142078671Y-80631025D01*
X142056134Y-80697160D01*
X142011080Y-80736199D01*
X141918386Y-80783429D01*
X141752786Y-80903742D01*
X141608028Y-81048500D01*
X141487715Y-81214100D01*
X141394781Y-81396490D01*
X141331522Y-81591179D01*
X141299500Y-81793362D01*
X141299500Y-81998066D01*
X141301106Y-82008205D01*
X141331522Y-82200248D01*
X141394781Y-82394937D01*
X141487715Y-82577327D01*
X141608028Y-82742927D01*
X141752786Y-82887685D01*
X141907749Y-83000270D01*
X141918390Y-83008001D01*
X142016807Y-83058147D01*
X142100776Y-83100932D01*
X142100778Y-83100932D01*
X142100781Y-83100934D01*
X142205137Y-83134841D01*
X142295465Y-83164191D01*
X142396557Y-83180202D01*
X142497648Y-83196214D01*
X142497649Y-83196214D01*
X142702351Y-83196214D01*
X142702352Y-83196214D01*
X142904534Y-83164191D01*
X143099219Y-83100934D01*
X143281610Y-83008001D01*
X143374590Y-82940446D01*
X143447213Y-82887685D01*
X143447215Y-82887682D01*
X143447219Y-82887680D01*
X143591966Y-82742933D01*
X143591968Y-82742929D01*
X143591971Y-82742927D01*
X143679042Y-82623082D01*
X143712287Y-82577324D01*
X143805220Y-82394933D01*
X143868477Y-82200248D01*
X143875863Y-82153616D01*
X148719500Y-82153616D01*
X148719500Y-82389811D01*
X148756446Y-82623082D01*
X148829433Y-82847710D01*
X148876771Y-82940615D01*
X148936657Y-83058147D01*
X149075483Y-83249224D01*
X149242490Y-83416231D01*
X149433567Y-83555057D01*
X149532991Y-83605716D01*
X149644003Y-83662280D01*
X149644005Y-83662280D01*
X149644008Y-83662282D01*
X149764412Y-83701403D01*
X149868631Y-83735267D01*
X150101903Y-83772214D01*
X150101908Y-83772214D01*
X150338097Y-83772214D01*
X150571368Y-83735267D01*
X150795992Y-83662282D01*
X151006433Y-83555057D01*
X151197510Y-83416231D01*
X151364517Y-83249224D01*
X151503343Y-83058147D01*
X151610568Y-82847706D01*
X151683553Y-82623082D01*
X151720500Y-82389811D01*
X151720500Y-82153616D01*
X155219500Y-82153616D01*
X155219500Y-82389811D01*
X155256446Y-82623082D01*
X155329433Y-82847710D01*
X155376771Y-82940615D01*
X155436657Y-83058147D01*
X155575483Y-83249224D01*
X155742490Y-83416231D01*
X155933567Y-83555057D01*
X156032991Y-83605716D01*
X156144003Y-83662280D01*
X156144005Y-83662280D01*
X156144008Y-83662282D01*
X156264412Y-83701403D01*
X156368631Y-83735267D01*
X156601903Y-83772214D01*
X156601908Y-83772214D01*
X156838097Y-83772214D01*
X157071368Y-83735267D01*
X157295992Y-83662282D01*
X157506433Y-83555057D01*
X157697510Y-83416231D01*
X157864517Y-83249224D01*
X158003343Y-83058147D01*
X158110568Y-82847706D01*
X158183553Y-82623082D01*
X158220500Y-82389811D01*
X158220500Y-82153616D01*
X158183553Y-81920347D01*
X158183552Y-81920345D01*
X158110568Y-81695722D01*
X158110566Y-81695719D01*
X158110566Y-81695717D01*
X158003342Y-81485280D01*
X157864517Y-81294204D01*
X157697510Y-81127197D01*
X157506433Y-80988371D01*
X157295996Y-80881147D01*
X157071369Y-80808161D01*
X156838097Y-80771214D01*
X156838092Y-80771214D01*
X156601908Y-80771214D01*
X156601903Y-80771214D01*
X156368631Y-80808160D01*
X156144003Y-80881147D01*
X155933566Y-80988371D01*
X155850807Y-81048500D01*
X155742490Y-81127197D01*
X155742488Y-81127199D01*
X155742487Y-81127199D01*
X155575485Y-81294201D01*
X155575485Y-81294202D01*
X155575483Y-81294204D01*
X155557518Y-81318931D01*
X155436657Y-81485280D01*
X155329433Y-81695717D01*
X155256446Y-81920345D01*
X155219500Y-82153616D01*
X151720500Y-82153616D01*
X151683553Y-81920345D01*
X151610566Y-81695717D01*
X151503342Y-81485280D01*
X151364517Y-81294204D01*
X151197510Y-81127197D01*
X151006433Y-80988371D01*
X150795996Y-80881147D01*
X150571368Y-80808160D01*
X150338097Y-80771214D01*
X150338092Y-80771214D01*
X150101908Y-80771214D01*
X150101903Y-80771214D01*
X149868631Y-80808160D01*
X149644003Y-80881147D01*
X149433566Y-80988371D01*
X149350807Y-81048500D01*
X149242490Y-81127197D01*
X149242488Y-81127199D01*
X149242487Y-81127199D01*
X149075485Y-81294201D01*
X149075485Y-81294202D01*
X149075483Y-81294204D01*
X149057518Y-81318931D01*
X148936657Y-81485280D01*
X148829433Y-81695717D01*
X148756446Y-81920345D01*
X148719500Y-82153616D01*
X143875863Y-82153616D01*
X143900500Y-81998066D01*
X143900500Y-81793362D01*
X143868477Y-81591180D01*
X143805220Y-81396495D01*
X143805218Y-81396492D01*
X143805218Y-81396490D01*
X143753099Y-81294202D01*
X143712287Y-81214104D01*
X143668814Y-81154268D01*
X143591971Y-81048500D01*
X143447213Y-80903742D01*
X143281614Y-80783429D01*
X143275006Y-80780062D01*
X143188917Y-80736197D01*
X143138123Y-80688225D01*
X143121328Y-80620404D01*
X143143865Y-80554269D01*
X143188917Y-80515230D01*
X143281610Y-80468001D01*
X143374360Y-80400615D01*
X143447213Y-80347685D01*
X143447215Y-80347682D01*
X143447219Y-80347680D01*
X143591966Y-80202933D01*
X143591968Y-80202929D01*
X143591971Y-80202927D01*
X143671725Y-80093153D01*
X143712287Y-80037324D01*
X143805220Y-79854933D01*
X143868477Y-79660248D01*
X143900500Y-79458066D01*
X143900500Y-79253362D01*
X143868477Y-79051180D01*
X143805220Y-78856495D01*
X143712287Y-78674104D01*
X143668814Y-78614268D01*
X143591971Y-78508500D01*
X143447213Y-78363742D01*
X143281614Y-78243429D01*
X143275006Y-78240062D01*
X143188917Y-78196197D01*
X143138123Y-78148225D01*
X143121328Y-78080404D01*
X143143865Y-78014269D01*
X143188917Y-77975230D01*
X143281610Y-77928001D01*
X143310295Y-77907160D01*
X143447213Y-77807685D01*
X143447215Y-77807682D01*
X143447219Y-77807680D01*
X143591966Y-77662933D01*
X143598702Y-77653661D01*
X148720000Y-77653661D01*
X148720000Y-77889766D01*
X148756934Y-78122961D01*
X148829897Y-78347516D01*
X148937087Y-78557888D01*
X148997338Y-78640818D01*
X148997340Y-78640819D01*
X149696212Y-77941947D01*
X149707482Y-77984006D01*
X149779890Y-78109422D01*
X149882292Y-78211824D01*
X150007708Y-78284232D01*
X150049765Y-78295501D01*
X149350893Y-78994372D01*
X149433828Y-79054628D01*
X149644197Y-79161816D01*
X149868752Y-79234779D01*
X149868751Y-79234779D01*
X150101948Y-79271714D01*
X150338052Y-79271714D01*
X150571247Y-79234779D01*
X150795802Y-79161816D01*
X151006163Y-79054632D01*
X151006169Y-79054628D01*
X151089104Y-78994372D01*
X151089105Y-78994372D01*
X150390233Y-78295501D01*
X150432292Y-78284232D01*
X150557708Y-78211824D01*
X150660110Y-78109422D01*
X150732518Y-77984006D01*
X150743787Y-77941948D01*
X151442658Y-78640819D01*
X151442658Y-78640818D01*
X151502914Y-78557883D01*
X151502918Y-78557877D01*
X151610102Y-78347516D01*
X151683065Y-78122961D01*
X151720000Y-77889766D01*
X151720000Y-77653661D01*
X155220000Y-77653661D01*
X155220000Y-77889766D01*
X155256934Y-78122961D01*
X155329897Y-78347516D01*
X155437087Y-78557888D01*
X155497338Y-78640818D01*
X155497340Y-78640819D01*
X156196212Y-77941947D01*
X156207482Y-77984006D01*
X156279890Y-78109422D01*
X156382292Y-78211824D01*
X156507708Y-78284232D01*
X156549765Y-78295501D01*
X155850893Y-78994372D01*
X155933828Y-79054628D01*
X156144197Y-79161816D01*
X156368752Y-79234779D01*
X156368751Y-79234779D01*
X156601948Y-79271714D01*
X156838052Y-79271714D01*
X157071248Y-79234779D01*
X157145068Y-79210794D01*
X157295802Y-79161816D01*
X157506163Y-79054632D01*
X157506169Y-79054628D01*
X157589104Y-78994372D01*
X157589105Y-78994372D01*
X156890233Y-78295501D01*
X156932292Y-78284232D01*
X157057708Y-78211824D01*
X157160110Y-78109422D01*
X157232518Y-77984006D01*
X157243787Y-77941948D01*
X157942658Y-78640819D01*
X157942658Y-78640818D01*
X158002914Y-78557883D01*
X158002918Y-78557877D01*
X158110102Y-78347516D01*
X158183064Y-78122964D01*
X158183066Y-78122959D01*
X158220000Y-77889766D01*
X158220000Y-77653661D01*
X158183065Y-77420466D01*
X158110102Y-77195911D01*
X158002914Y-76985542D01*
X157942658Y-76902607D01*
X157243787Y-77601479D01*
X157232518Y-77559422D01*
X157160110Y-77434006D01*
X157057708Y-77331604D01*
X156932292Y-77259196D01*
X156890234Y-77247926D01*
X157589105Y-76549054D01*
X157589104Y-76549052D01*
X157506174Y-76488801D01*
X157295802Y-76381611D01*
X157071247Y-76308648D01*
X157071248Y-76308648D01*
X156838052Y-76271714D01*
X156601948Y-76271714D01*
X156368752Y-76308648D01*
X156144197Y-76381611D01*
X155933830Y-76488798D01*
X155850894Y-76549054D01*
X156549766Y-77247926D01*
X156507708Y-77259196D01*
X156382292Y-77331604D01*
X156279890Y-77434006D01*
X156207482Y-77559422D01*
X156196212Y-77601480D01*
X155497340Y-76902608D01*
X155437084Y-76985544D01*
X155329897Y-77195911D01*
X155256934Y-77420466D01*
X155220000Y-77653661D01*
X151720000Y-77653661D01*
X151683065Y-77420466D01*
X151610102Y-77195911D01*
X151502914Y-76985542D01*
X151442658Y-76902608D01*
X151442658Y-76902607D01*
X150743787Y-77601479D01*
X150732518Y-77559422D01*
X150660110Y-77434006D01*
X150557708Y-77331604D01*
X150432292Y-77259196D01*
X150390234Y-77247926D01*
X151089105Y-76549054D01*
X151089104Y-76549053D01*
X151006174Y-76488801D01*
X150795802Y-76381611D01*
X150571247Y-76308648D01*
X150571248Y-76308648D01*
X150338052Y-76271714D01*
X150101948Y-76271714D01*
X149868752Y-76308648D01*
X149644197Y-76381611D01*
X149433830Y-76488798D01*
X149350894Y-76549054D01*
X150049766Y-77247926D01*
X150007708Y-77259196D01*
X149882292Y-77331604D01*
X149779890Y-77434006D01*
X149707482Y-77559422D01*
X149696212Y-77601480D01*
X148997340Y-76902608D01*
X148937084Y-76985544D01*
X148829897Y-77195911D01*
X148756934Y-77420466D01*
X148720000Y-77653661D01*
X143598702Y-77653661D01*
X143712287Y-77497324D01*
X143805220Y-77314933D01*
X143868477Y-77120248D01*
X143900500Y-76918066D01*
X143900500Y-76713362D01*
X143868477Y-76511180D01*
X143805220Y-76316495D01*
X143805218Y-76316492D01*
X143805218Y-76316490D01*
X143756417Y-76220714D01*
X143712287Y-76134104D01*
X143668814Y-76074268D01*
X143591971Y-75968500D01*
X143447219Y-75823748D01*
X143305405Y-75720715D01*
X143281610Y-75703427D01*
X143187562Y-75655507D01*
X143186261Y-75654804D01*
X143162474Y-75631223D01*
X143138123Y-75608225D01*
X143137748Y-75606711D01*
X143136641Y-75605614D01*
X143129379Y-75572918D01*
X143121328Y-75540404D01*
X143121831Y-75538927D01*
X143121493Y-75537406D01*
X143133057Y-75505983D01*
X143143865Y-75474269D01*
X143145134Y-75473169D01*
X143145625Y-75471836D01*
X143153796Y-75465663D01*
X143188917Y-75435230D01*
X143281610Y-75388001D01*
X143374360Y-75320615D01*
X143447213Y-75267685D01*
X143447215Y-75267682D01*
X143447219Y-75267680D01*
X143591966Y-75122933D01*
X143591968Y-75122929D01*
X143591971Y-75122927D01*
X143671725Y-75013153D01*
X143712287Y-74957324D01*
X143805220Y-74774933D01*
X143868477Y-74580248D01*
X143900500Y-74378066D01*
X143900500Y-74173362D01*
X143868602Y-73971971D01*
X143868477Y-73971179D01*
X143839127Y-73880851D01*
X143805220Y-73776495D01*
X143805218Y-73776492D01*
X143805218Y-73776490D01*
X143756417Y-73680714D01*
X143712287Y-73594104D01*
X143668814Y-73534268D01*
X143591971Y-73428500D01*
X143447213Y-73283742D01*
X143281614Y-73163429D01*
X143273393Y-73159240D01*
X143188917Y-73116197D01*
X143138123Y-73068225D01*
X143121328Y-73000404D01*
X143143865Y-72934269D01*
X143188917Y-72895230D01*
X143281610Y-72848001D01*
X143374360Y-72780615D01*
X143447213Y-72727685D01*
X143447215Y-72727682D01*
X143447219Y-72727680D01*
X143591966Y-72582933D01*
X143591968Y-72582929D01*
X143591971Y-72582927D01*
X143671914Y-72472893D01*
X143712287Y-72417324D01*
X143805220Y-72234933D01*
X143868477Y-72040248D01*
X143900500Y-71838066D01*
X143900500Y-71633362D01*
X143868602Y-71431971D01*
X143868477Y-71431179D01*
X143805218Y-71236490D01*
X143756417Y-71140714D01*
X143712287Y-71054104D01*
X143668814Y-70994268D01*
X143591971Y-70888500D01*
X143447213Y-70743742D01*
X143281614Y-70623429D01*
X143275006Y-70620062D01*
X143188917Y-70576197D01*
X143138123Y-70528225D01*
X143121328Y-70460404D01*
X143143865Y-70394269D01*
X143188917Y-70355230D01*
X143281610Y-70308001D01*
X143374360Y-70240615D01*
X143447213Y-70187685D01*
X143447215Y-70187682D01*
X143447219Y-70187680D01*
X143591966Y-70042933D01*
X143591968Y-70042929D01*
X143591971Y-70042927D01*
X143671914Y-69932893D01*
X143712287Y-69877324D01*
X143805220Y-69694933D01*
X143868477Y-69500248D01*
X143900500Y-69298066D01*
X143900500Y-69093362D01*
X143868602Y-68891967D01*
X143868477Y-68891179D01*
X143821701Y-68747219D01*
X143805220Y-68696495D01*
X143805218Y-68696492D01*
X143805218Y-68696490D01*
X143756417Y-68600714D01*
X143712287Y-68514104D01*
X143668814Y-68454268D01*
X143591971Y-68348500D01*
X143447213Y-68203742D01*
X143281614Y-68083429D01*
X143275006Y-68080062D01*
X143188917Y-68036197D01*
X143138123Y-67988225D01*
X143121328Y-67920404D01*
X143143865Y-67854269D01*
X143188917Y-67815230D01*
X143281610Y-67768001D01*
X143374360Y-67700615D01*
X143447213Y-67647685D01*
X143447215Y-67647682D01*
X143447219Y-67647680D01*
X143591966Y-67502933D01*
X143591968Y-67502929D01*
X143591971Y-67502927D01*
X143671914Y-67392893D01*
X143712287Y-67337324D01*
X143805220Y-67154933D01*
X143868477Y-66960248D01*
X143900500Y-66758066D01*
X143900500Y-66553362D01*
X143887591Y-66471859D01*
X143868477Y-66351179D01*
X143821701Y-66207219D01*
X143805220Y-66156495D01*
X143805218Y-66156492D01*
X143805218Y-66156490D01*
X143769261Y-66085921D01*
X143712287Y-65974104D01*
X143704556Y-65963463D01*
X143591971Y-65808500D01*
X143447219Y-65663748D01*
X143410930Y-65637383D01*
X143368264Y-65582053D01*
X143362285Y-65512440D01*
X143394890Y-65450645D01*
X143455728Y-65416287D01*
X143470562Y-65413774D01*
X143507483Y-65409805D01*
X143507488Y-65409803D01*
X143642331Y-65359510D01*
X143757546Y-65273260D01*
X143769233Y-65257648D01*
X148389500Y-65257648D01*
X148389500Y-65462351D01*
X148421522Y-65664534D01*
X148484781Y-65859223D01*
X148543315Y-65974100D01*
X148577585Y-66041359D01*
X148577715Y-66041613D01*
X148698028Y-66207213D01*
X148842786Y-66351971D01*
X148989547Y-66458597D01*
X149008390Y-66472287D01*
X149098491Y-66518196D01*
X149101080Y-66519515D01*
X149151876Y-66567490D01*
X149168671Y-66635311D01*
X149146134Y-66701446D01*
X149101080Y-66740485D01*
X149008386Y-66787715D01*
X148842786Y-66908028D01*
X148698028Y-67052786D01*
X148577715Y-67218386D01*
X148484781Y-67400776D01*
X148421522Y-67595465D01*
X148389500Y-67797648D01*
X148389500Y-68002351D01*
X148421522Y-68204534D01*
X148484781Y-68399223D01*
X148536545Y-68500813D01*
X148577585Y-68581359D01*
X148577715Y-68581613D01*
X148698028Y-68747213D01*
X148842786Y-68891971D01*
X148997749Y-69004556D01*
X149008390Y-69012287D01*
X149099840Y-69058883D01*
X149101080Y-69059515D01*
X149151876Y-69107490D01*
X149168671Y-69175311D01*
X149146134Y-69241446D01*
X149101080Y-69280485D01*
X149008386Y-69327715D01*
X148842786Y-69448028D01*
X148698028Y-69592786D01*
X148577715Y-69758386D01*
X148484781Y-69940776D01*
X148421522Y-70135465D01*
X148389500Y-70337648D01*
X148389500Y-70542351D01*
X148421522Y-70744534D01*
X148484781Y-70939223D01*
X148536545Y-71040813D01*
X148577585Y-71121359D01*
X148577715Y-71121613D01*
X148698028Y-71287213D01*
X148842786Y-71431971D01*
X148986431Y-71536333D01*
X149008390Y-71552287D01*
X149099840Y-71598883D01*
X149101080Y-71599515D01*
X149151876Y-71647490D01*
X149168671Y-71715311D01*
X149146134Y-71781446D01*
X149101080Y-71820485D01*
X149008386Y-71867715D01*
X148842786Y-71988028D01*
X148698028Y-72132786D01*
X148577715Y-72298386D01*
X148484781Y-72480776D01*
X148421522Y-72675465D01*
X148389500Y-72877648D01*
X148389500Y-73082351D01*
X148421522Y-73284534D01*
X148484781Y-73479223D01*
X148577715Y-73661613D01*
X148698028Y-73827213D01*
X148842786Y-73971971D01*
X148997749Y-74084556D01*
X149008390Y-74092287D01*
X149124607Y-74151503D01*
X149190776Y-74185218D01*
X149190778Y-74185218D01*
X149190781Y-74185220D01*
X149280459Y-74214358D01*
X149385465Y-74248477D01*
X149485335Y-74264295D01*
X149587648Y-74280500D01*
X149587649Y-74280500D01*
X149792351Y-74280500D01*
X149792352Y-74280500D01*
X149994534Y-74248477D01*
X150189219Y-74185220D01*
X150371610Y-74092287D01*
X150464590Y-74024732D01*
X150537213Y-73971971D01*
X150537215Y-73971968D01*
X150537219Y-73971966D01*
X150681966Y-73827219D01*
X150681968Y-73827215D01*
X150681971Y-73827213D01*
X150734732Y-73754590D01*
X150802287Y-73661610D01*
X150895220Y-73479219D01*
X150958477Y-73284534D01*
X150964495Y-73246540D01*
X150978322Y-73159240D01*
X150990500Y-73082351D01*
X150990500Y-72877648D01*
X150958477Y-72675465D01*
X150927458Y-72580000D01*
X150895220Y-72480781D01*
X150895217Y-72480777D01*
X150895217Y-72480774D01*
X150870956Y-72433160D01*
X150870955Y-72433159D01*
X150863739Y-72418996D01*
X150802287Y-72298390D01*
X150802285Y-72298387D01*
X150802284Y-72298385D01*
X150681971Y-72132786D01*
X150537213Y-71988028D01*
X150371614Y-71867715D01*
X150333323Y-71848205D01*
X150278917Y-71820483D01*
X150228123Y-71772511D01*
X150211328Y-71704690D01*
X150233865Y-71638555D01*
X150278917Y-71599516D01*
X150371610Y-71552287D01*
X150415353Y-71520506D01*
X150537213Y-71431971D01*
X150537215Y-71431968D01*
X150537219Y-71431966D01*
X150681966Y-71287219D01*
X150681968Y-71287215D01*
X150681971Y-71287213D01*
X150734732Y-71214590D01*
X150802287Y-71121610D01*
X150895220Y-70939219D01*
X150958477Y-70744534D01*
X150990500Y-70542352D01*
X150990500Y-70337648D01*
X150975131Y-70240615D01*
X150958477Y-70135465D01*
X150927458Y-70040000D01*
X150895220Y-69940781D01*
X150895218Y-69940778D01*
X150895218Y-69940776D01*
X150861503Y-69874607D01*
X150802287Y-69758390D01*
X150770092Y-69714077D01*
X150681971Y-69592786D01*
X150537213Y-69448028D01*
X150371614Y-69327715D01*
X150333323Y-69308205D01*
X150278917Y-69280483D01*
X150228123Y-69232511D01*
X150211328Y-69164690D01*
X150233865Y-69098555D01*
X150278917Y-69059516D01*
X150371610Y-69012287D01*
X150415353Y-68980506D01*
X150537213Y-68891971D01*
X150537215Y-68891968D01*
X150537219Y-68891966D01*
X150681966Y-68747219D01*
X150681968Y-68747215D01*
X150681971Y-68747213D01*
X150734732Y-68674590D01*
X150802287Y-68581610D01*
X150895220Y-68399219D01*
X150958477Y-68204534D01*
X150990500Y-68002352D01*
X150990500Y-67797648D01*
X150975131Y-67700615D01*
X150958477Y-67595465D01*
X150927458Y-67500000D01*
X150895220Y-67400781D01*
X150895218Y-67400778D01*
X150895218Y-67400776D01*
X150861503Y-67334607D01*
X150802287Y-67218390D01*
X150770092Y-67174077D01*
X150681971Y-67052786D01*
X150537213Y-66908028D01*
X150371614Y-66787715D01*
X150333427Y-66768258D01*
X150278917Y-66740483D01*
X150228123Y-66692511D01*
X150211328Y-66624690D01*
X150233865Y-66558555D01*
X150278917Y-66519516D01*
X150371610Y-66472287D01*
X150416774Y-66439474D01*
X150537213Y-66351971D01*
X150537215Y-66351968D01*
X150537219Y-66351966D01*
X150681966Y-66207219D01*
X150681968Y-66207215D01*
X150681971Y-66207213D01*
X150734732Y-66134590D01*
X150802287Y-66041610D01*
X150895220Y-65859219D01*
X150958477Y-65664534D01*
X150990500Y-65462352D01*
X150990500Y-65257682D01*
X156010000Y-65257682D01*
X156010000Y-65462317D01*
X156042009Y-65664417D01*
X156105244Y-65859031D01*
X156198141Y-66041350D01*
X156198147Y-66041359D01*
X156230523Y-66085921D01*
X156230524Y-66085922D01*
X156910000Y-65406446D01*
X156910000Y-65412661D01*
X156937259Y-65514394D01*
X156989920Y-65605606D01*
X157064394Y-65680080D01*
X157155606Y-65732741D01*
X157257339Y-65760000D01*
X157263553Y-65760000D01*
X156584076Y-66439474D01*
X156628650Y-66471859D01*
X156722180Y-66519515D01*
X156772976Y-66567489D01*
X156789771Y-66635310D01*
X156767234Y-66701445D01*
X156722180Y-66740485D01*
X156628644Y-66788143D01*
X156584077Y-66820523D01*
X156584077Y-66820524D01*
X157263554Y-67500000D01*
X157257339Y-67500000D01*
X157155606Y-67527259D01*
X157064394Y-67579920D01*
X156989920Y-67654394D01*
X156937259Y-67745606D01*
X156910000Y-67847339D01*
X156910000Y-67853553D01*
X156230524Y-67174077D01*
X156230523Y-67174077D01*
X156198143Y-67218644D01*
X156105244Y-67400968D01*
X156042009Y-67595582D01*
X156010000Y-67797682D01*
X156010000Y-68002317D01*
X156042009Y-68204417D01*
X156105244Y-68399031D01*
X156198141Y-68581350D01*
X156198147Y-68581359D01*
X156230523Y-68625921D01*
X156230524Y-68625922D01*
X156910000Y-67946446D01*
X156910000Y-67952661D01*
X156937259Y-68054394D01*
X156989920Y-68145606D01*
X157064394Y-68220080D01*
X157155606Y-68272741D01*
X157257339Y-68300000D01*
X157263553Y-68300000D01*
X156584076Y-68979474D01*
X156628650Y-69011859D01*
X156722180Y-69059515D01*
X156772976Y-69107489D01*
X156789771Y-69175310D01*
X156767234Y-69241445D01*
X156722180Y-69280485D01*
X156628644Y-69328143D01*
X156584077Y-69360523D01*
X156584077Y-69360524D01*
X157263554Y-70040000D01*
X157257339Y-70040000D01*
X157155606Y-70067259D01*
X157064394Y-70119920D01*
X156989920Y-70194394D01*
X156937259Y-70285606D01*
X156910000Y-70387339D01*
X156910000Y-70393553D01*
X156230524Y-69714077D01*
X156230523Y-69714077D01*
X156198143Y-69758644D01*
X156105244Y-69940968D01*
X156042009Y-70135582D01*
X156010000Y-70337682D01*
X156010000Y-70542317D01*
X156042009Y-70744417D01*
X156105244Y-70939031D01*
X156198141Y-71121350D01*
X156198147Y-71121359D01*
X156230523Y-71165921D01*
X156230524Y-71165922D01*
X156910000Y-70486446D01*
X156910000Y-70492661D01*
X156937259Y-70594394D01*
X156989920Y-70685606D01*
X157064394Y-70760080D01*
X157155606Y-70812741D01*
X157257339Y-70840000D01*
X157263553Y-70840000D01*
X156584076Y-71519474D01*
X156585403Y-71536333D01*
X156600198Y-71555519D01*
X156606177Y-71625132D01*
X156573572Y-71686927D01*
X156523652Y-71718212D01*
X156440886Y-71745638D01*
X156440875Y-71745643D01*
X156291654Y-71837684D01*
X156167684Y-71961654D01*
X156075643Y-72110875D01*
X156075641Y-72110880D01*
X156020494Y-72277302D01*
X156020493Y-72277309D01*
X156010000Y-72380013D01*
X156010000Y-72730000D01*
X156994314Y-72730000D01*
X156989920Y-72734394D01*
X156937259Y-72825606D01*
X156910000Y-72927339D01*
X156910000Y-73032661D01*
X156937259Y-73134394D01*
X156989920Y-73225606D01*
X156994314Y-73230000D01*
X156010001Y-73230000D01*
X156010001Y-73579986D01*
X156020494Y-73682697D01*
X156075641Y-73849119D01*
X156075643Y-73849124D01*
X156167684Y-73998345D01*
X156291654Y-74122315D01*
X156440875Y-74214356D01*
X156440880Y-74214358D01*
X156607302Y-74269505D01*
X156607309Y-74269506D01*
X156710019Y-74279999D01*
X157059999Y-74279999D01*
X157060000Y-74279998D01*
X157060000Y-73295686D01*
X157064394Y-73300080D01*
X157155606Y-73352741D01*
X157257339Y-73380000D01*
X157362661Y-73380000D01*
X157464394Y-73352741D01*
X157555606Y-73300080D01*
X157560000Y-73295686D01*
X157560000Y-74279999D01*
X157909972Y-74279999D01*
X157909986Y-74279998D01*
X158012697Y-74269505D01*
X158179119Y-74214358D01*
X158179124Y-74214356D01*
X158328345Y-74122315D01*
X158452315Y-73998345D01*
X158544356Y-73849124D01*
X158544358Y-73849119D01*
X158599505Y-73682697D01*
X158599506Y-73682690D01*
X158609999Y-73579986D01*
X158610000Y-73579973D01*
X158610000Y-73230000D01*
X157625686Y-73230000D01*
X157630080Y-73225606D01*
X157682741Y-73134394D01*
X157710000Y-73032661D01*
X157710000Y-72927339D01*
X157682741Y-72825606D01*
X157630080Y-72734394D01*
X157625686Y-72730000D01*
X158609999Y-72730000D01*
X158609999Y-72380028D01*
X158609998Y-72380013D01*
X158599505Y-72277302D01*
X158544358Y-72110880D01*
X158544356Y-72110875D01*
X158452315Y-71961654D01*
X158328345Y-71837684D01*
X158179124Y-71745643D01*
X158179119Y-71745641D01*
X158096346Y-71718213D01*
X158038901Y-71678440D01*
X158012078Y-71613924D01*
X158024393Y-71545149D01*
X158034875Y-71532769D01*
X158035921Y-71519474D01*
X157356447Y-70840000D01*
X157362661Y-70840000D01*
X157464394Y-70812741D01*
X157555606Y-70760080D01*
X157630080Y-70685606D01*
X157682741Y-70594394D01*
X157710000Y-70492661D01*
X157710000Y-70486448D01*
X158389474Y-71165922D01*
X158389474Y-71165921D01*
X158421859Y-71121349D01*
X158514755Y-70939031D01*
X158577990Y-70744417D01*
X158610000Y-70542317D01*
X158610000Y-70337682D01*
X158577990Y-70135582D01*
X158514755Y-69940968D01*
X158421859Y-69758650D01*
X158389474Y-69714077D01*
X158389474Y-69714076D01*
X157710000Y-70393551D01*
X157710000Y-70387339D01*
X157682741Y-70285606D01*
X157630080Y-70194394D01*
X157555606Y-70119920D01*
X157464394Y-70067259D01*
X157362661Y-70040000D01*
X157356446Y-70040000D01*
X158035922Y-69360524D01*
X158035921Y-69360523D01*
X157991359Y-69328147D01*
X157991350Y-69328141D01*
X157897819Y-69280485D01*
X157847023Y-69232511D01*
X157830228Y-69164690D01*
X157852765Y-69098555D01*
X157897820Y-69059515D01*
X157991346Y-69011861D01*
X157991347Y-69011861D01*
X158035921Y-68979474D01*
X157356447Y-68300000D01*
X157362661Y-68300000D01*
X157464394Y-68272741D01*
X157555606Y-68220080D01*
X157630080Y-68145606D01*
X157682741Y-68054394D01*
X157710000Y-67952661D01*
X157710000Y-67946448D01*
X158389474Y-68625922D01*
X158389474Y-68625921D01*
X158421859Y-68581349D01*
X158514755Y-68399031D01*
X158577990Y-68204417D01*
X158610000Y-68002317D01*
X158610000Y-67797682D01*
X158577990Y-67595582D01*
X158514755Y-67400968D01*
X158421859Y-67218650D01*
X158389474Y-67174077D01*
X158389474Y-67174076D01*
X157710000Y-67853551D01*
X157710000Y-67847339D01*
X157682741Y-67745606D01*
X157630080Y-67654394D01*
X157555606Y-67579920D01*
X157464394Y-67527259D01*
X157362661Y-67500000D01*
X157356446Y-67500000D01*
X158035922Y-66820524D01*
X158035921Y-66820523D01*
X157991359Y-66788147D01*
X157991350Y-66788141D01*
X157897819Y-66740485D01*
X157847023Y-66692511D01*
X157830228Y-66624690D01*
X157852765Y-66558555D01*
X157897820Y-66519515D01*
X157991346Y-66471861D01*
X157991347Y-66471861D01*
X158035921Y-66439474D01*
X157356447Y-65760000D01*
X157362661Y-65760000D01*
X157464394Y-65732741D01*
X157555606Y-65680080D01*
X157630080Y-65605606D01*
X157682741Y-65514394D01*
X157710000Y-65412661D01*
X157710000Y-65406448D01*
X158389474Y-66085922D01*
X158389474Y-66085921D01*
X158421859Y-66041349D01*
X158514755Y-65859031D01*
X158577990Y-65664417D01*
X158610000Y-65462317D01*
X158610000Y-65257682D01*
X158577990Y-65055582D01*
X158514755Y-64860968D01*
X158440796Y-64715815D01*
X158421859Y-64678650D01*
X158410379Y-64662849D01*
X161869500Y-64662849D01*
X161869500Y-66458584D01*
X161869501Y-66458590D01*
X161875908Y-66518197D01*
X161926202Y-66653042D01*
X161926206Y-66653049D01*
X162012452Y-66768258D01*
X162012455Y-66768261D01*
X162127664Y-66854507D01*
X162127671Y-66854511D01*
X162259082Y-66903524D01*
X162315016Y-66945395D01*
X162339433Y-67010859D01*
X162324582Y-67079132D01*
X162303431Y-67107387D01*
X162189889Y-67220929D01*
X162064951Y-67392893D01*
X161968444Y-67582299D01*
X161902753Y-67784474D01*
X161869500Y-67994427D01*
X161869500Y-68207000D01*
X161902735Y-68416841D01*
X161902754Y-68416957D01*
X161956254Y-68581613D01*
X161968444Y-68619128D01*
X162064951Y-68808534D01*
X162189890Y-68980500D01*
X162340213Y-69130823D01*
X162512182Y-69255764D01*
X162520946Y-69260230D01*
X162571742Y-69308205D01*
X162588536Y-69376026D01*
X162565998Y-69442161D01*
X162520946Y-69481198D01*
X162512182Y-69485663D01*
X162340213Y-69610604D01*
X162189890Y-69760927D01*
X162064951Y-69932893D01*
X161968444Y-70122299D01*
X161902753Y-70324474D01*
X161869500Y-70534427D01*
X161869500Y-70747000D01*
X161902735Y-70956841D01*
X161902754Y-70956957D01*
X161956254Y-71121613D01*
X161968444Y-71159128D01*
X162064951Y-71348534D01*
X162189890Y-71520500D01*
X162340213Y-71670823D01*
X162512182Y-71795764D01*
X162520946Y-71800230D01*
X162571742Y-71848205D01*
X162588536Y-71916026D01*
X162565998Y-71982161D01*
X162520946Y-72021198D01*
X162512182Y-72025663D01*
X162340213Y-72150604D01*
X162189890Y-72300927D01*
X162064951Y-72472893D01*
X161968444Y-72662299D01*
X161902753Y-72864474D01*
X161869500Y-73074427D01*
X161869500Y-73287000D01*
X161902735Y-73496841D01*
X161902754Y-73496957D01*
X161956254Y-73661613D01*
X161968444Y-73699128D01*
X162064951Y-73888534D01*
X162189890Y-74060500D01*
X162340213Y-74210823D01*
X162512179Y-74335762D01*
X162512181Y-74335763D01*
X162512184Y-74335765D01*
X162521493Y-74340508D01*
X162572290Y-74388480D01*
X162589087Y-74456301D01*
X162566552Y-74522436D01*
X162521505Y-74561474D01*
X162512446Y-74566090D01*
X162512440Y-74566094D01*
X162458282Y-74605441D01*
X162458282Y-74605442D01*
X163090591Y-75237751D01*
X163027007Y-75254789D01*
X162912993Y-75320615D01*
X162819901Y-75413707D01*
X162754075Y-75527721D01*
X162737037Y-75591305D01*
X162104728Y-74958996D01*
X162104727Y-74958996D01*
X162065380Y-75013153D01*
X161968904Y-75202496D01*
X161903242Y-75404583D01*
X161903242Y-75404586D01*
X161870000Y-75614467D01*
X161870000Y-75826960D01*
X161903242Y-76036841D01*
X161903242Y-76036844D01*
X161968904Y-76238931D01*
X162065375Y-76428264D01*
X162104728Y-76482430D01*
X162737037Y-75850122D01*
X162754075Y-75913707D01*
X162819901Y-76027721D01*
X162912993Y-76120813D01*
X163027007Y-76186639D01*
X163090591Y-76203676D01*
X162489971Y-76804295D01*
X162568711Y-76921609D01*
X162569920Y-76925443D01*
X162572844Y-76928205D01*
X162580343Y-76958492D01*
X162589727Y-76988243D01*
X162588671Y-76992122D01*
X162589638Y-76996026D01*
X162579573Y-77025558D01*
X162571383Y-77055661D01*
X162568397Y-77058354D01*
X162567100Y-77062161D01*
X162522051Y-77101197D01*
X162512440Y-77106094D01*
X162458282Y-77145441D01*
X162458282Y-77145442D01*
X163090591Y-77777751D01*
X163027007Y-77794789D01*
X162912993Y-77860615D01*
X162819901Y-77953707D01*
X162754075Y-78067721D01*
X162737037Y-78131305D01*
X162104728Y-77498996D01*
X162104727Y-77498996D01*
X162065380Y-77553153D01*
X161968904Y-77742496D01*
X161903242Y-77944583D01*
X161903242Y-77944586D01*
X161870000Y-78154467D01*
X161870000Y-78366960D01*
X161903242Y-78576841D01*
X161903242Y-78576844D01*
X161968904Y-78778931D01*
X162065375Y-78968264D01*
X162104728Y-79022430D01*
X162737037Y-78390122D01*
X162754075Y-78453707D01*
X162819901Y-78567721D01*
X162912993Y-78660813D01*
X163027007Y-78726639D01*
X163090591Y-78743676D01*
X162489971Y-79344295D01*
X162568711Y-79461609D01*
X162569920Y-79465443D01*
X162572844Y-79468205D01*
X162580343Y-79498492D01*
X162589727Y-79528243D01*
X162588671Y-79532122D01*
X162589638Y-79536026D01*
X162579573Y-79565558D01*
X162571383Y-79595661D01*
X162568397Y-79598354D01*
X162567100Y-79602161D01*
X162522051Y-79641197D01*
X162512440Y-79646094D01*
X162458282Y-79685441D01*
X162458282Y-79685442D01*
X163090591Y-80317751D01*
X163027007Y-80334789D01*
X162912993Y-80400615D01*
X162819901Y-80493707D01*
X162754075Y-80607721D01*
X162737037Y-80671305D01*
X162104728Y-80038996D01*
X162104727Y-80038996D01*
X162065380Y-80093153D01*
X161968904Y-80282496D01*
X161903242Y-80484583D01*
X161903242Y-80484586D01*
X161870000Y-80694467D01*
X161870000Y-80906960D01*
X161903242Y-81116841D01*
X161903242Y-81116844D01*
X161968904Y-81318931D01*
X162065375Y-81508264D01*
X162104728Y-81562430D01*
X162737037Y-80930122D01*
X162754075Y-80993707D01*
X162819901Y-81107721D01*
X162912993Y-81200813D01*
X163027007Y-81266639D01*
X163090591Y-81283676D01*
X162489971Y-81884295D01*
X162568711Y-82001609D01*
X162569920Y-82005443D01*
X162572844Y-82008205D01*
X162580343Y-82038492D01*
X162589727Y-82068243D01*
X162588671Y-82072122D01*
X162589638Y-82076026D01*
X162579573Y-82105558D01*
X162571383Y-82135661D01*
X162568397Y-82138354D01*
X162567100Y-82142161D01*
X162522051Y-82181197D01*
X162512440Y-82186094D01*
X162458282Y-82225441D01*
X162458282Y-82225442D01*
X163090591Y-82857751D01*
X163027007Y-82874789D01*
X162912993Y-82940615D01*
X162819901Y-83033707D01*
X162754075Y-83147721D01*
X162737037Y-83211305D01*
X162104728Y-82578996D01*
X162104727Y-82578996D01*
X162065380Y-82633153D01*
X161968904Y-82822496D01*
X161903242Y-83024583D01*
X161903242Y-83024586D01*
X161870000Y-83234467D01*
X161870000Y-83446960D01*
X161903242Y-83656841D01*
X161903242Y-83656844D01*
X161968904Y-83858931D01*
X162065375Y-84048264D01*
X162104728Y-84102430D01*
X162737037Y-83470122D01*
X162754075Y-83533707D01*
X162819901Y-83647721D01*
X162912993Y-83740813D01*
X163027007Y-83806639D01*
X163090590Y-83823676D01*
X162458282Y-84455983D01*
X162458282Y-84455984D01*
X162512452Y-84495340D01*
X162522048Y-84500230D01*
X162572844Y-84548205D01*
X162589638Y-84616026D01*
X162567100Y-84682161D01*
X162522051Y-84721197D01*
X162512440Y-84726094D01*
X162458282Y-84765441D01*
X162458282Y-84765442D01*
X163090591Y-85397751D01*
X163027007Y-85414789D01*
X162912993Y-85480615D01*
X162819901Y-85573707D01*
X162754075Y-85687721D01*
X162737037Y-85751305D01*
X162104728Y-85118996D01*
X162104727Y-85118996D01*
X162065380Y-85173153D01*
X161968904Y-85362496D01*
X161903242Y-85564583D01*
X161903242Y-85564586D01*
X161870000Y-85774467D01*
X161870000Y-85986960D01*
X161903242Y-86196841D01*
X161903242Y-86196844D01*
X161968904Y-86398931D01*
X162065375Y-86588264D01*
X162104728Y-86642430D01*
X162737037Y-86010122D01*
X162754075Y-86073707D01*
X162819901Y-86187721D01*
X162912993Y-86280813D01*
X163027007Y-86346639D01*
X163090591Y-86363676D01*
X162489971Y-86964295D01*
X162568711Y-87081609D01*
X162569920Y-87085443D01*
X162572844Y-87088205D01*
X162580343Y-87118492D01*
X162589727Y-87148243D01*
X162588671Y-87152122D01*
X162589638Y-87156026D01*
X162579573Y-87185558D01*
X162571383Y-87215661D01*
X162568397Y-87218354D01*
X162567100Y-87222161D01*
X162522051Y-87261197D01*
X162512440Y-87266094D01*
X162458282Y-87305441D01*
X162458282Y-87305442D01*
X163090591Y-87937751D01*
X163027007Y-87954789D01*
X162912993Y-88020615D01*
X162819901Y-88113707D01*
X162754075Y-88227721D01*
X162737037Y-88291305D01*
X162104728Y-87658996D01*
X162104727Y-87658996D01*
X162065380Y-87713153D01*
X161968904Y-87902496D01*
X161903242Y-88104583D01*
X161903242Y-88104586D01*
X161870000Y-88314467D01*
X161870000Y-88526960D01*
X161903242Y-88736841D01*
X161903242Y-88736844D01*
X161968904Y-88938931D01*
X162065375Y-89128264D01*
X162104728Y-89182430D01*
X162737037Y-88550122D01*
X162754075Y-88613707D01*
X162819901Y-88727721D01*
X162912993Y-88820813D01*
X163027007Y-88886639D01*
X163090590Y-88903676D01*
X162458282Y-89535983D01*
X162458282Y-89535984D01*
X162512449Y-89575338D01*
X162701782Y-89671809D01*
X162903870Y-89737471D01*
X163113754Y-89770714D01*
X163326246Y-89770714D01*
X163536127Y-89737471D01*
X163536130Y-89737471D01*
X163738217Y-89671809D01*
X163927554Y-89575336D01*
X163981716Y-89535984D01*
X163981717Y-89535984D01*
X163349408Y-88903676D01*
X163412993Y-88886639D01*
X163527007Y-88820813D01*
X163620099Y-88727721D01*
X163685925Y-88613707D01*
X163702962Y-88550123D01*
X164335270Y-89182431D01*
X164335270Y-89182430D01*
X164374622Y-89128268D01*
X164471095Y-88938931D01*
X164536757Y-88736844D01*
X164536757Y-88736841D01*
X164570000Y-88526960D01*
X164570000Y-88314467D01*
X164536757Y-88104586D01*
X164536757Y-88104583D01*
X164471095Y-87902496D01*
X164374624Y-87713163D01*
X164335270Y-87658996D01*
X164335269Y-87658996D01*
X163702962Y-88291304D01*
X163685925Y-88227721D01*
X163620099Y-88113707D01*
X163527007Y-88020615D01*
X163412993Y-87954789D01*
X163349409Y-87937751D01*
X163981716Y-87305442D01*
X163927550Y-87266089D01*
X163917954Y-87261200D01*
X163867157Y-87213226D01*
X163850361Y-87145406D01*
X163872897Y-87079270D01*
X163917954Y-87040228D01*
X163927554Y-87035336D01*
X163981716Y-86995984D01*
X163981717Y-86995984D01*
X163349408Y-86363676D01*
X163412993Y-86346639D01*
X163527007Y-86280813D01*
X163620099Y-86187721D01*
X163685925Y-86073707D01*
X163702962Y-86010123D01*
X164335270Y-86642431D01*
X164335270Y-86642430D01*
X164374622Y-86588268D01*
X164471095Y-86398931D01*
X164536757Y-86196844D01*
X164536757Y-86196841D01*
X164570000Y-85986960D01*
X164570000Y-85774467D01*
X164536757Y-85564586D01*
X164536757Y-85564583D01*
X164471095Y-85362496D01*
X164374624Y-85173163D01*
X164335270Y-85118996D01*
X164335269Y-85118996D01*
X163702962Y-85751304D01*
X163685925Y-85687721D01*
X163620099Y-85573707D01*
X163527007Y-85480615D01*
X163412993Y-85414789D01*
X163349409Y-85397751D01*
X163981716Y-84765442D01*
X163927550Y-84726089D01*
X163917954Y-84721200D01*
X163867157Y-84673226D01*
X163850361Y-84605406D01*
X163872897Y-84539270D01*
X163917954Y-84500228D01*
X163927554Y-84495336D01*
X163981716Y-84455984D01*
X163981717Y-84455984D01*
X163349408Y-83823676D01*
X163412993Y-83806639D01*
X163527007Y-83740813D01*
X163620099Y-83647721D01*
X163685925Y-83533707D01*
X163702962Y-83470123D01*
X164335270Y-84102431D01*
X164335270Y-84102430D01*
X164374622Y-84048268D01*
X164471095Y-83858931D01*
X164536757Y-83656844D01*
X164536757Y-83656841D01*
X164570000Y-83446960D01*
X164570000Y-83234467D01*
X164536757Y-83024586D01*
X164536757Y-83024583D01*
X164471095Y-82822496D01*
X164374624Y-82633163D01*
X164335270Y-82578996D01*
X164335269Y-82578996D01*
X163702962Y-83211304D01*
X163685925Y-83147721D01*
X163620099Y-83033707D01*
X163527007Y-82940615D01*
X163412993Y-82874789D01*
X163349409Y-82857751D01*
X163981716Y-82225442D01*
X163927550Y-82186089D01*
X163917954Y-82181200D01*
X163867157Y-82133226D01*
X163850361Y-82065406D01*
X163872897Y-81999270D01*
X163917954Y-81960228D01*
X163927554Y-81955336D01*
X163981716Y-81915984D01*
X163981717Y-81915984D01*
X163349408Y-81283676D01*
X163412993Y-81266639D01*
X163527007Y-81200813D01*
X163620099Y-81107721D01*
X163685925Y-80993707D01*
X163702962Y-80930123D01*
X164335270Y-81562431D01*
X164335270Y-81562430D01*
X164374622Y-81508268D01*
X164471095Y-81318931D01*
X164536757Y-81116844D01*
X164536757Y-81116841D01*
X164570000Y-80906960D01*
X164570000Y-80694467D01*
X164536757Y-80484586D01*
X164536757Y-80484583D01*
X164471095Y-80282496D01*
X164374624Y-80093163D01*
X164335270Y-80038996D01*
X163702962Y-80671304D01*
X163685925Y-80607721D01*
X163620099Y-80493707D01*
X163527007Y-80400615D01*
X163412993Y-80334789D01*
X163349409Y-80317751D01*
X163981716Y-79685442D01*
X163927550Y-79646089D01*
X163917954Y-79641200D01*
X163867157Y-79593226D01*
X163850361Y-79525406D01*
X163872897Y-79459270D01*
X163917954Y-79420228D01*
X163927554Y-79415336D01*
X163981716Y-79375984D01*
X163981717Y-79375984D01*
X163349408Y-78743676D01*
X163412993Y-78726639D01*
X163527007Y-78660813D01*
X163620099Y-78567721D01*
X163685925Y-78453707D01*
X163702962Y-78390123D01*
X164335270Y-79022431D01*
X164335270Y-79022430D01*
X164374622Y-78968268D01*
X164471095Y-78778931D01*
X164536757Y-78576844D01*
X164536757Y-78576841D01*
X164570000Y-78366960D01*
X164570000Y-78154467D01*
X164536757Y-77944586D01*
X164536757Y-77944583D01*
X164471095Y-77742496D01*
X164374624Y-77553163D01*
X164335270Y-77498996D01*
X163702962Y-78131304D01*
X163685925Y-78067721D01*
X163620099Y-77953707D01*
X163527007Y-77860615D01*
X163412993Y-77794789D01*
X163349409Y-77777751D01*
X163981716Y-77145442D01*
X163927550Y-77106089D01*
X163917954Y-77101200D01*
X163867157Y-77053226D01*
X163850361Y-76985406D01*
X163872897Y-76919270D01*
X163917954Y-76880228D01*
X163927554Y-76875336D01*
X163981716Y-76835984D01*
X163981717Y-76835984D01*
X163349408Y-76203676D01*
X163412993Y-76186639D01*
X163527007Y-76120813D01*
X163620099Y-76027721D01*
X163685925Y-75913707D01*
X163702962Y-75850123D01*
X164335270Y-76482431D01*
X164335270Y-76482430D01*
X164374622Y-76428268D01*
X164471095Y-76238931D01*
X164536757Y-76036844D01*
X164536757Y-76036841D01*
X164570000Y-75826960D01*
X164570000Y-75614467D01*
X164536757Y-75404586D01*
X164536757Y-75404583D01*
X164471095Y-75202496D01*
X164374624Y-75013163D01*
X164335270Y-74958996D01*
X163702962Y-75591304D01*
X163685925Y-75527721D01*
X163620099Y-75413707D01*
X163527007Y-75320615D01*
X163412993Y-75254789D01*
X163349409Y-75237751D01*
X163981716Y-74605442D01*
X163927547Y-74566087D01*
X163927547Y-74566086D01*
X163918500Y-74561477D01*
X163867706Y-74513502D01*
X163850912Y-74445680D01*
X163873451Y-74379546D01*
X163918508Y-74340507D01*
X163927816Y-74335765D01*
X164026187Y-74264295D01*
X164099786Y-74210823D01*
X164099788Y-74210820D01*
X164099792Y-74210818D01*
X164250104Y-74060506D01*
X164250106Y-74060502D01*
X164250109Y-74060500D01*
X164375048Y-73888534D01*
X164375047Y-73888534D01*
X164375051Y-73888530D01*
X164471557Y-73699126D01*
X164537246Y-73496957D01*
X164570500Y-73287001D01*
X164570500Y-73074427D01*
X164537246Y-72864471D01*
X164471557Y-72662302D01*
X164375051Y-72472898D01*
X164375049Y-72472895D01*
X164375048Y-72472893D01*
X164250109Y-72300927D01*
X164099786Y-72150604D01*
X163927820Y-72025665D01*
X163927115Y-72025305D01*
X163919054Y-72021199D01*
X163868259Y-71973226D01*
X163851463Y-71905406D01*
X163873999Y-71839270D01*
X163919054Y-71800229D01*
X163927816Y-71795765D01*
X163982570Y-71755984D01*
X164099786Y-71670823D01*
X164099788Y-71670820D01*
X164099792Y-71670818D01*
X164250104Y-71520506D01*
X164250106Y-71520502D01*
X164250109Y-71520500D01*
X164375048Y-71348534D01*
X164375047Y-71348534D01*
X164375051Y-71348530D01*
X164471557Y-71159126D01*
X164537246Y-70956957D01*
X164570500Y-70747001D01*
X164570500Y-70534427D01*
X164537246Y-70324471D01*
X164471557Y-70122302D01*
X164375051Y-69932898D01*
X164375049Y-69932895D01*
X164375048Y-69932893D01*
X164250109Y-69760927D01*
X164099786Y-69610604D01*
X163927820Y-69485665D01*
X163927115Y-69485305D01*
X163919054Y-69481199D01*
X163868259Y-69433226D01*
X163851463Y-69365406D01*
X163873999Y-69299270D01*
X163919054Y-69260229D01*
X163927816Y-69255765D01*
X164026187Y-69184295D01*
X164099786Y-69130823D01*
X164099788Y-69130820D01*
X164099792Y-69130818D01*
X164250104Y-68980506D01*
X164250106Y-68980502D01*
X164250109Y-68980500D01*
X164375048Y-68808534D01*
X164375047Y-68808534D01*
X164375051Y-68808530D01*
X164471557Y-68619126D01*
X164537246Y-68416957D01*
X164570500Y-68207001D01*
X164570500Y-67994427D01*
X164537246Y-67784471D01*
X164471557Y-67582302D01*
X164375051Y-67392898D01*
X164375049Y-67392895D01*
X164375048Y-67392893D01*
X164250109Y-67220927D01*
X164136569Y-67107387D01*
X164103084Y-67046064D01*
X164108068Y-66976372D01*
X164149940Y-66920439D01*
X164180915Y-66903524D01*
X164312331Y-66854510D01*
X164427546Y-66768260D01*
X164513796Y-66653045D01*
X164564091Y-66518197D01*
X164570500Y-66458587D01*
X164570499Y-64662842D01*
X164564091Y-64603231D01*
X164530357Y-64512786D01*
X164513797Y-64468385D01*
X164513793Y-64468378D01*
X164427547Y-64353169D01*
X164427544Y-64353166D01*
X164312335Y-64266920D01*
X164312328Y-64266916D01*
X164177482Y-64216622D01*
X164177483Y-64216622D01*
X164117883Y-64210215D01*
X164117881Y-64210214D01*
X164117873Y-64210214D01*
X164117864Y-64210214D01*
X162322129Y-64210214D01*
X162322123Y-64210215D01*
X162262516Y-64216622D01*
X162127671Y-64266916D01*
X162127664Y-64266920D01*
X162012455Y-64353166D01*
X162012452Y-64353169D01*
X161926206Y-64468378D01*
X161926202Y-64468385D01*
X161875908Y-64603231D01*
X161869501Y-64662830D01*
X161869501Y-64662837D01*
X161869500Y-64662849D01*
X158410379Y-64662849D01*
X158389474Y-64634077D01*
X158389474Y-64634076D01*
X157710000Y-65313551D01*
X157710000Y-65307339D01*
X157682741Y-65205606D01*
X157630080Y-65114394D01*
X157555606Y-65039920D01*
X157464394Y-64987259D01*
X157362661Y-64960000D01*
X157356446Y-64960000D01*
X158035922Y-64280524D01*
X158035921Y-64280523D01*
X157991359Y-64248147D01*
X157991350Y-64248141D01*
X157809031Y-64155244D01*
X157614417Y-64092009D01*
X157412317Y-64060000D01*
X157207683Y-64060000D01*
X157005582Y-64092009D01*
X156810968Y-64155244D01*
X156628644Y-64248143D01*
X156584077Y-64280523D01*
X156584077Y-64280524D01*
X157263554Y-64960000D01*
X157257339Y-64960000D01*
X157155606Y-64987259D01*
X157064394Y-65039920D01*
X156989920Y-65114394D01*
X156937259Y-65205606D01*
X156910000Y-65307339D01*
X156910000Y-65313553D01*
X156230524Y-64634077D01*
X156230523Y-64634077D01*
X156198143Y-64678644D01*
X156105244Y-64860968D01*
X156042009Y-65055582D01*
X156010000Y-65257682D01*
X150990500Y-65257682D01*
X150990500Y-65257648D01*
X150982257Y-65205606D01*
X150958477Y-65055465D01*
X150927458Y-64960000D01*
X150895220Y-64860781D01*
X150895218Y-64860778D01*
X150895218Y-64860776D01*
X150861503Y-64794607D01*
X150802287Y-64678390D01*
X150770092Y-64634077D01*
X150681971Y-64512786D01*
X150537213Y-64368028D01*
X150371613Y-64247715D01*
X150371612Y-64247714D01*
X150371610Y-64247713D01*
X150298014Y-64210214D01*
X150189223Y-64154781D01*
X149994534Y-64091522D01*
X149819995Y-64063878D01*
X149792352Y-64059500D01*
X149587648Y-64059500D01*
X149563329Y-64063351D01*
X149385465Y-64091522D01*
X149190776Y-64154781D01*
X149008386Y-64247715D01*
X148842786Y-64368028D01*
X148698028Y-64512786D01*
X148577715Y-64678386D01*
X148484781Y-64860776D01*
X148421522Y-65055465D01*
X148389500Y-65257648D01*
X143769233Y-65257648D01*
X143843796Y-65158045D01*
X143894091Y-65023197D01*
X143900500Y-64963587D01*
X143900499Y-63267842D01*
X143894091Y-63208231D01*
X143843796Y-63073383D01*
X143843795Y-63073382D01*
X143843793Y-63073378D01*
X143757547Y-62958169D01*
X143757544Y-62958166D01*
X143642335Y-62871920D01*
X143642328Y-62871916D01*
X143507482Y-62821622D01*
X143507483Y-62821622D01*
X143447883Y-62815215D01*
X143447881Y-62815214D01*
X143447873Y-62815214D01*
X143447864Y-62815214D01*
X141752129Y-62815214D01*
X141752123Y-62815215D01*
X141692516Y-62821622D01*
X141557671Y-62871916D01*
X141557664Y-62871920D01*
X141442455Y-62958166D01*
X141442452Y-62958169D01*
X141356206Y-63073378D01*
X141356202Y-63073385D01*
X141305908Y-63208231D01*
X141299501Y-63267830D01*
X141299501Y-63267837D01*
X141299500Y-63267849D01*
X129950500Y-63267849D01*
X129950500Y-62946961D01*
X129951280Y-62933077D01*
X129951280Y-62933076D01*
X129961460Y-62842729D01*
X129967635Y-62815670D01*
X129995353Y-62736456D01*
X130007396Y-62711450D01*
X130052046Y-62640389D01*
X130069351Y-62618690D01*
X130128690Y-62559351D01*
X130150389Y-62542046D01*
X130221450Y-62497396D01*
X130246456Y-62485353D01*
X130325670Y-62457635D01*
X130352733Y-62451459D01*
X130415419Y-62444396D01*
X130443079Y-62441280D01*
X130456962Y-62440500D01*
X130515892Y-62440500D01*
X168384108Y-62440500D01*
X168443038Y-62440500D01*
X168456922Y-62441280D01*
G37*
%TD.AperFunction*%
%TD*%
M02*
