%TF.GenerationSoftware,KiCad,Pcbnew,9.0.1+1*%
%TF.CreationDate,2026-04-07T17:51:03+00:00*%
%TF.ProjectId,CSC202_DIPSW,43534332-3032-45f4-9449-5053572e6b69,rev?*%
%TF.SameCoordinates,Original*%
%TF.FileFunction,Legend,Top*%
%TF.FilePolarity,Positive*%
%FSLAX46Y46*%
G04 Gerber Fmt 4.6, Leading zero omitted, Abs format (unit mm)*
G04 Created by KiCad (PCBNEW 9.0.1+1) date 2026-04-07 17:51:03*
%MOMM*%
%LPD*%
G01*
G04 APERTURE LIST*
%ADD10C,0.100000*%
%ADD11C,0.250000*%
%ADD12C,0.150000*%
%ADD13C,0.240000*%
%ADD14C,0.300000*%
%ADD15C,0.187500*%
%ADD16C,0.120000*%
%ADD17C,0.000000*%
G04 APERTURE END LIST*
D10*
X134110000Y-68140000D02*
X132710000Y-68140000D01*
X132690000Y-77100000D02*
X132690000Y-68140000D01*
X134110000Y-103705714D02*
X132710000Y-103705714D01*
X166440000Y-124055714D02*
X165040000Y-124055714D01*
X134110000Y-124075714D02*
X132710000Y-124075714D01*
X132690000Y-112665714D02*
X132690000Y-103705714D01*
X166450000Y-75795714D02*
X165050000Y-75795714D01*
X166440000Y-101155714D02*
X166440000Y-111375714D01*
X132690000Y-88500000D02*
X132690000Y-79540000D01*
X166450000Y-101155714D02*
X165050000Y-101155714D01*
X132690000Y-124065714D02*
X132690000Y-115105714D01*
X166450000Y-88465714D02*
X166450000Y-83365714D01*
X166450000Y-75795714D02*
X166450000Y-80895714D01*
X166450000Y-88465714D02*
X165050000Y-88465714D01*
X166440000Y-113835714D02*
X166440000Y-124055714D01*
X134110000Y-88510000D02*
X132710000Y-88510000D01*
D11*
X160802238Y-99640050D02*
X158802238Y-99640050D01*
X158802238Y-99640050D02*
X158802238Y-98878145D01*
X158802238Y-98878145D02*
X158897476Y-98687669D01*
X158897476Y-98687669D02*
X158992714Y-98592431D01*
X158992714Y-98592431D02*
X159183190Y-98497193D01*
X159183190Y-98497193D02*
X159468904Y-98497193D01*
X159468904Y-98497193D02*
X159659380Y-98592431D01*
X159659380Y-98592431D02*
X159754619Y-98687669D01*
X159754619Y-98687669D02*
X159849857Y-98878145D01*
X159849857Y-98878145D02*
X159849857Y-99640050D01*
X159754619Y-96973383D02*
X159849857Y-96687669D01*
X159849857Y-96687669D02*
X159945095Y-96592431D01*
X159945095Y-96592431D02*
X160135571Y-96497193D01*
X160135571Y-96497193D02*
X160421285Y-96497193D01*
X160421285Y-96497193D02*
X160611761Y-96592431D01*
X160611761Y-96592431D02*
X160707000Y-96687669D01*
X160707000Y-96687669D02*
X160802238Y-96878145D01*
X160802238Y-96878145D02*
X160802238Y-97640050D01*
X160802238Y-97640050D02*
X158802238Y-97640050D01*
X158802238Y-97640050D02*
X158802238Y-96973383D01*
X158802238Y-96973383D02*
X158897476Y-96782907D01*
X158897476Y-96782907D02*
X158992714Y-96687669D01*
X158992714Y-96687669D02*
X159183190Y-96592431D01*
X159183190Y-96592431D02*
X159373666Y-96592431D01*
X159373666Y-96592431D02*
X159564142Y-96687669D01*
X159564142Y-96687669D02*
X159659380Y-96782907D01*
X159659380Y-96782907D02*
X159754619Y-96973383D01*
X159754619Y-96973383D02*
X159754619Y-97640050D01*
X158992714Y-95735288D02*
X158897476Y-95640050D01*
X158897476Y-95640050D02*
X158802238Y-95449574D01*
X158802238Y-95449574D02*
X158802238Y-94973383D01*
X158802238Y-94973383D02*
X158897476Y-94782907D01*
X158897476Y-94782907D02*
X158992714Y-94687669D01*
X158992714Y-94687669D02*
X159183190Y-94592431D01*
X159183190Y-94592431D02*
X159373666Y-94592431D01*
X159373666Y-94592431D02*
X159659380Y-94687669D01*
X159659380Y-94687669D02*
X160802238Y-95830526D01*
X160802238Y-95830526D02*
X160802238Y-94592431D01*
D12*
X165579160Y-65987914D02*
X165722017Y-66035533D01*
X165722017Y-66035533D02*
X165960112Y-66035533D01*
X165960112Y-66035533D02*
X166055350Y-65987914D01*
X166055350Y-65987914D02*
X166102969Y-65940294D01*
X166102969Y-65940294D02*
X166150588Y-65845056D01*
X166150588Y-65845056D02*
X166150588Y-65749818D01*
X166150588Y-65749818D02*
X166102969Y-65654580D01*
X166102969Y-65654580D02*
X166055350Y-65606961D01*
X166055350Y-65606961D02*
X165960112Y-65559342D01*
X165960112Y-65559342D02*
X165769636Y-65511723D01*
X165769636Y-65511723D02*
X165674398Y-65464104D01*
X165674398Y-65464104D02*
X165626779Y-65416485D01*
X165626779Y-65416485D02*
X165579160Y-65321247D01*
X165579160Y-65321247D02*
X165579160Y-65226009D01*
X165579160Y-65226009D02*
X165626779Y-65130771D01*
X165626779Y-65130771D02*
X165674398Y-65083152D01*
X165674398Y-65083152D02*
X165769636Y-65035533D01*
X165769636Y-65035533D02*
X166007731Y-65035533D01*
X166007731Y-65035533D02*
X166150588Y-65083152D01*
X166483922Y-65035533D02*
X166722017Y-66035533D01*
X166722017Y-66035533D02*
X166912493Y-65321247D01*
X166912493Y-65321247D02*
X167102969Y-66035533D01*
X167102969Y-66035533D02*
X167341065Y-65035533D01*
X168150588Y-65368866D02*
X168150588Y-66035533D01*
X167912493Y-64987914D02*
X167674398Y-65702199D01*
X167674398Y-65702199D02*
X168293445Y-65702199D01*
X165579160Y-71061247D02*
X165722017Y-71108866D01*
X165722017Y-71108866D02*
X165960112Y-71108866D01*
X165960112Y-71108866D02*
X166055350Y-71061247D01*
X166055350Y-71061247D02*
X166102969Y-71013627D01*
X166102969Y-71013627D02*
X166150588Y-70918389D01*
X166150588Y-70918389D02*
X166150588Y-70823151D01*
X166150588Y-70823151D02*
X166102969Y-70727913D01*
X166102969Y-70727913D02*
X166055350Y-70680294D01*
X166055350Y-70680294D02*
X165960112Y-70632675D01*
X165960112Y-70632675D02*
X165769636Y-70585056D01*
X165769636Y-70585056D02*
X165674398Y-70537437D01*
X165674398Y-70537437D02*
X165626779Y-70489818D01*
X165626779Y-70489818D02*
X165579160Y-70394580D01*
X165579160Y-70394580D02*
X165579160Y-70299342D01*
X165579160Y-70299342D02*
X165626779Y-70204104D01*
X165626779Y-70204104D02*
X165674398Y-70156485D01*
X165674398Y-70156485D02*
X165769636Y-70108866D01*
X165769636Y-70108866D02*
X166007731Y-70108866D01*
X166007731Y-70108866D02*
X166150588Y-70156485D01*
X166483922Y-70108866D02*
X166722017Y-71108866D01*
X166722017Y-71108866D02*
X166912493Y-70394580D01*
X166912493Y-70394580D02*
X167102969Y-71108866D01*
X167102969Y-71108866D02*
X167341065Y-70108866D01*
X167674398Y-70204104D02*
X167722017Y-70156485D01*
X167722017Y-70156485D02*
X167817255Y-70108866D01*
X167817255Y-70108866D02*
X168055350Y-70108866D01*
X168055350Y-70108866D02*
X168150588Y-70156485D01*
X168150588Y-70156485D02*
X168198207Y-70204104D01*
X168198207Y-70204104D02*
X168245826Y-70299342D01*
X168245826Y-70299342D02*
X168245826Y-70394580D01*
X168245826Y-70394580D02*
X168198207Y-70537437D01*
X168198207Y-70537437D02*
X167626779Y-71108866D01*
X167626779Y-71108866D02*
X168245826Y-71108866D01*
D11*
X159032238Y-68367193D02*
X159032238Y-67129098D01*
X159032238Y-67129098D02*
X159794142Y-67795765D01*
X159794142Y-67795765D02*
X159794142Y-67510050D01*
X159794142Y-67510050D02*
X159889380Y-67319574D01*
X159889380Y-67319574D02*
X159984619Y-67224336D01*
X159984619Y-67224336D02*
X160175095Y-67129098D01*
X160175095Y-67129098D02*
X160651285Y-67129098D01*
X160651285Y-67129098D02*
X160841761Y-67224336D01*
X160841761Y-67224336D02*
X160937000Y-67319574D01*
X160937000Y-67319574D02*
X161032238Y-67510050D01*
X161032238Y-67510050D02*
X161032238Y-68081479D01*
X161032238Y-68081479D02*
X160937000Y-68271955D01*
X160937000Y-68271955D02*
X160841761Y-68367193D01*
X160802238Y-90960050D02*
X158802238Y-90960050D01*
X158802238Y-90960050D02*
X158802238Y-90198145D01*
X158802238Y-90198145D02*
X158897476Y-90007669D01*
X158897476Y-90007669D02*
X158992714Y-89912431D01*
X158992714Y-89912431D02*
X159183190Y-89817193D01*
X159183190Y-89817193D02*
X159468904Y-89817193D01*
X159468904Y-89817193D02*
X159659380Y-89912431D01*
X159659380Y-89912431D02*
X159754619Y-90007669D01*
X159754619Y-90007669D02*
X159849857Y-90198145D01*
X159849857Y-90198145D02*
X159849857Y-90960050D01*
X159754619Y-88293383D02*
X159849857Y-88007669D01*
X159849857Y-88007669D02*
X159945095Y-87912431D01*
X159945095Y-87912431D02*
X160135571Y-87817193D01*
X160135571Y-87817193D02*
X160421285Y-87817193D01*
X160421285Y-87817193D02*
X160611761Y-87912431D01*
X160611761Y-87912431D02*
X160707000Y-88007669D01*
X160707000Y-88007669D02*
X160802238Y-88198145D01*
X160802238Y-88198145D02*
X160802238Y-88960050D01*
X160802238Y-88960050D02*
X158802238Y-88960050D01*
X158802238Y-88960050D02*
X158802238Y-88293383D01*
X158802238Y-88293383D02*
X158897476Y-88102907D01*
X158897476Y-88102907D02*
X158992714Y-88007669D01*
X158992714Y-88007669D02*
X159183190Y-87912431D01*
X159183190Y-87912431D02*
X159373666Y-87912431D01*
X159373666Y-87912431D02*
X159564142Y-88007669D01*
X159564142Y-88007669D02*
X159659380Y-88102907D01*
X159659380Y-88102907D02*
X159754619Y-88293383D01*
X159754619Y-88293383D02*
X159754619Y-88960050D01*
X158802238Y-87150526D02*
X158802238Y-85912431D01*
X158802238Y-85912431D02*
X159564142Y-86579098D01*
X159564142Y-86579098D02*
X159564142Y-86293383D01*
X159564142Y-86293383D02*
X159659380Y-86102907D01*
X159659380Y-86102907D02*
X159754619Y-86007669D01*
X159754619Y-86007669D02*
X159945095Y-85912431D01*
X159945095Y-85912431D02*
X160421285Y-85912431D01*
X160421285Y-85912431D02*
X160611761Y-86007669D01*
X160611761Y-86007669D02*
X160707000Y-86102907D01*
X160707000Y-86102907D02*
X160802238Y-86293383D01*
X160802238Y-86293383D02*
X160802238Y-86864812D01*
X160802238Y-86864812D02*
X160707000Y-87055288D01*
X160707000Y-87055288D02*
X160611761Y-87150526D01*
D12*
X165579160Y-73597914D02*
X165722017Y-73645533D01*
X165722017Y-73645533D02*
X165960112Y-73645533D01*
X165960112Y-73645533D02*
X166055350Y-73597914D01*
X166055350Y-73597914D02*
X166102969Y-73550294D01*
X166102969Y-73550294D02*
X166150588Y-73455056D01*
X166150588Y-73455056D02*
X166150588Y-73359818D01*
X166150588Y-73359818D02*
X166102969Y-73264580D01*
X166102969Y-73264580D02*
X166055350Y-73216961D01*
X166055350Y-73216961D02*
X165960112Y-73169342D01*
X165960112Y-73169342D02*
X165769636Y-73121723D01*
X165769636Y-73121723D02*
X165674398Y-73074104D01*
X165674398Y-73074104D02*
X165626779Y-73026485D01*
X165626779Y-73026485D02*
X165579160Y-72931247D01*
X165579160Y-72931247D02*
X165579160Y-72836009D01*
X165579160Y-72836009D02*
X165626779Y-72740771D01*
X165626779Y-72740771D02*
X165674398Y-72693152D01*
X165674398Y-72693152D02*
X165769636Y-72645533D01*
X165769636Y-72645533D02*
X166007731Y-72645533D01*
X166007731Y-72645533D02*
X166150588Y-72693152D01*
X166483922Y-72645533D02*
X166722017Y-73645533D01*
X166722017Y-73645533D02*
X166912493Y-72931247D01*
X166912493Y-72931247D02*
X167102969Y-73645533D01*
X167102969Y-73645533D02*
X167341065Y-72645533D01*
X168245826Y-73645533D02*
X167674398Y-73645533D01*
X167960112Y-73645533D02*
X167960112Y-72645533D01*
X167960112Y-72645533D02*
X167864874Y-72788390D01*
X167864874Y-72788390D02*
X167769636Y-72883628D01*
X167769636Y-72883628D02*
X167674398Y-72931247D01*
D13*
G36*
X167977492Y-91749709D02*
G01*
X162273132Y-91749709D01*
X162273132Y-90524948D01*
X162406465Y-90524948D01*
X162406465Y-90639234D01*
X162408771Y-90662645D01*
X162410421Y-90666629D01*
X162410727Y-90670929D01*
X162419134Y-90692900D01*
X162476277Y-90807185D01*
X162482620Y-90817261D01*
X162483832Y-90820187D01*
X162486535Y-90823481D01*
X162488809Y-90827093D01*
X162491203Y-90829169D01*
X162498755Y-90838372D01*
X162555898Y-90895515D01*
X162565100Y-90903066D01*
X162567177Y-90905461D01*
X162570788Y-90907734D01*
X162574083Y-90910438D01*
X162577007Y-90911649D01*
X162587085Y-90917993D01*
X162701370Y-90975136D01*
X162703083Y-90975791D01*
X162703779Y-90976307D01*
X162713609Y-90979819D01*
X162723341Y-90983543D01*
X162724203Y-90983604D01*
X162725932Y-90984222D01*
X162941724Y-91038170D01*
X163026809Y-91080712D01*
X163056413Y-91110316D01*
X163092179Y-91181847D01*
X163092179Y-91239477D01*
X163056413Y-91311009D01*
X163026811Y-91340610D01*
X162955279Y-91376376D01*
X162717367Y-91376376D01*
X162564412Y-91325392D01*
X162541473Y-91320176D01*
X162494770Y-91323496D01*
X162452891Y-91344436D01*
X162422214Y-91379807D01*
X162407407Y-91424226D01*
X162410727Y-91470929D01*
X162431667Y-91512808D01*
X162467038Y-91543485D01*
X162488518Y-91553076D01*
X162659948Y-91610218D01*
X162671556Y-91612857D01*
X162674483Y-91614070D01*
X162678725Y-91614487D01*
X162682886Y-91615434D01*
X162686048Y-91615209D01*
X162697894Y-91616376D01*
X162983608Y-91616376D01*
X163007019Y-91614070D01*
X163011001Y-91612420D01*
X163015302Y-91612115D01*
X163037273Y-91603708D01*
X163151559Y-91546566D01*
X163161636Y-91540221D01*
X163164563Y-91539010D01*
X163167858Y-91536305D01*
X163171467Y-91534034D01*
X163173542Y-91531640D01*
X163182748Y-91524086D01*
X163239890Y-91466943D01*
X163247441Y-91457740D01*
X163249835Y-91455665D01*
X163252107Y-91452054D01*
X163254813Y-91448758D01*
X163256025Y-91445831D01*
X163262367Y-91435757D01*
X163319510Y-91321470D01*
X163327918Y-91299500D01*
X163328223Y-91295197D01*
X163329873Y-91291216D01*
X163332179Y-91267805D01*
X163332179Y-91153519D01*
X163329873Y-91130108D01*
X163328222Y-91126123D01*
X163327917Y-91121824D01*
X163319510Y-91099853D01*
X163262367Y-90985568D01*
X163256025Y-90975493D01*
X163254813Y-90972567D01*
X163252107Y-90969270D01*
X163249835Y-90965660D01*
X163247441Y-90963584D01*
X163239890Y-90954382D01*
X163182748Y-90897239D01*
X163173543Y-90889684D01*
X163171468Y-90887292D01*
X163167860Y-90885020D01*
X163164563Y-90882315D01*
X163161635Y-90881102D01*
X163151560Y-90874760D01*
X163037274Y-90817617D01*
X163035560Y-90816961D01*
X163034865Y-90816446D01*
X163025028Y-90812931D01*
X163015303Y-90809210D01*
X163014442Y-90809148D01*
X163012713Y-90808531D01*
X162796920Y-90754583D01*
X162711835Y-90712040D01*
X162682229Y-90682434D01*
X162646465Y-90610905D01*
X162646465Y-90553275D01*
X162682229Y-90481746D01*
X162711835Y-90452140D01*
X162783364Y-90416376D01*
X163021277Y-90416376D01*
X163174231Y-90467361D01*
X163197170Y-90472576D01*
X163243874Y-90469257D01*
X163285752Y-90448318D01*
X163316430Y-90412947D01*
X163331236Y-90368528D01*
X163327917Y-90321824D01*
X163317436Y-90300862D01*
X163492263Y-90300862D01*
X163495442Y-90324170D01*
X163781156Y-91524171D01*
X163783925Y-91532205D01*
X163784308Y-91535084D01*
X163785814Y-91537686D01*
X163788822Y-91546411D01*
X163799039Y-91560529D01*
X163807767Y-91575605D01*
X163812659Y-91579349D01*
X163816272Y-91584342D01*
X163831112Y-91593474D01*
X163844947Y-91604064D01*
X163850899Y-91605651D01*
X163856148Y-91608881D01*
X163873355Y-91611639D01*
X163890188Y-91616128D01*
X163896294Y-91615316D01*
X163902379Y-91616292D01*
X163919332Y-91612255D01*
X163936601Y-91609961D01*
X163941932Y-91606874D01*
X163947928Y-91605447D01*
X163962044Y-91595230D01*
X163977122Y-91586502D01*
X163980867Y-91581608D01*
X163985858Y-91577997D01*
X163994986Y-91563162D01*
X164005581Y-91549322D01*
X164008821Y-91540681D01*
X164010397Y-91538121D01*
X164010856Y-91535254D01*
X164013841Y-91527296D01*
X164126464Y-91104958D01*
X164239088Y-91527296D01*
X164242072Y-91535254D01*
X164242532Y-91538121D01*
X164244107Y-91540681D01*
X164247348Y-91549322D01*
X164257942Y-91563162D01*
X164267071Y-91577997D01*
X164272061Y-91581608D01*
X164275807Y-91586502D01*
X164290884Y-91595230D01*
X164305001Y-91605447D01*
X164310996Y-91606874D01*
X164316328Y-91609961D01*
X164333596Y-91612255D01*
X164350550Y-91616292D01*
X164356634Y-91615316D01*
X164362741Y-91616128D01*
X164379579Y-91611637D01*
X164396781Y-91608880D01*
X164402026Y-91605652D01*
X164407982Y-91604064D01*
X164421822Y-91593469D01*
X164436657Y-91584341D01*
X164440268Y-91579350D01*
X164445162Y-91575605D01*
X164453892Y-91560525D01*
X164464107Y-91546411D01*
X164467113Y-91537688D01*
X164468621Y-91535085D01*
X164469003Y-91532205D01*
X164471773Y-91524171D01*
X164592808Y-91015823D01*
X164980200Y-91015823D01*
X164980200Y-91062645D01*
X164998118Y-91105902D01*
X165031226Y-91139010D01*
X165074483Y-91156928D01*
X165097894Y-91159234D01*
X166012180Y-91159234D01*
X166035591Y-91156928D01*
X166078848Y-91139010D01*
X166111956Y-91105902D01*
X166129874Y-91062645D01*
X166129874Y-91015823D01*
X166111956Y-90972566D01*
X166078848Y-90939458D01*
X166035591Y-90921540D01*
X166012180Y-90919234D01*
X165097894Y-90919234D01*
X165074483Y-90921540D01*
X165031226Y-90939458D01*
X164998118Y-90972566D01*
X164980200Y-91015823D01*
X164592808Y-91015823D01*
X164757488Y-90324170D01*
X164760667Y-90300862D01*
X164759948Y-90296376D01*
X166463608Y-90296376D01*
X166463608Y-91496376D01*
X166465914Y-91519787D01*
X166483832Y-91563044D01*
X166516940Y-91596152D01*
X166560197Y-91614070D01*
X166607019Y-91614070D01*
X166650276Y-91596152D01*
X166683384Y-91563044D01*
X166701302Y-91519787D01*
X166703608Y-91496376D01*
X166703608Y-90296376D01*
X167035037Y-90296376D01*
X167035037Y-91496376D01*
X167037343Y-91519787D01*
X167055261Y-91563044D01*
X167088369Y-91596152D01*
X167131626Y-91614070D01*
X167178448Y-91614070D01*
X167221705Y-91596152D01*
X167254813Y-91563044D01*
X167272731Y-91519787D01*
X167275037Y-91496376D01*
X167275037Y-90987805D01*
X167555037Y-90987805D01*
X167578448Y-90985499D01*
X167621705Y-90967581D01*
X167654813Y-90934473D01*
X167672731Y-90891216D01*
X167672731Y-90844394D01*
X167654813Y-90801137D01*
X167621705Y-90768029D01*
X167578448Y-90750111D01*
X167555037Y-90747805D01*
X167275037Y-90747805D01*
X167275037Y-90416376D01*
X167726465Y-90416376D01*
X167749876Y-90414070D01*
X167793133Y-90396152D01*
X167826241Y-90363044D01*
X167844159Y-90319787D01*
X167844159Y-90272965D01*
X167826241Y-90229708D01*
X167793133Y-90196600D01*
X167749876Y-90178682D01*
X167726465Y-90176376D01*
X167155037Y-90176376D01*
X167131626Y-90178682D01*
X167088369Y-90196600D01*
X167055261Y-90229708D01*
X167037343Y-90272965D01*
X167035037Y-90296376D01*
X166703608Y-90296376D01*
X166701302Y-90272965D01*
X166683384Y-90229708D01*
X166650276Y-90196600D01*
X166607019Y-90178682D01*
X166560197Y-90178682D01*
X166516940Y-90196600D01*
X166483832Y-90229708D01*
X166465914Y-90272965D01*
X166463608Y-90296376D01*
X164759948Y-90296376D01*
X164753255Y-90254631D01*
X164728716Y-90214755D01*
X164690786Y-90187305D01*
X164645237Y-90176460D01*
X164599006Y-90183872D01*
X164559130Y-90208411D01*
X164531680Y-90246341D01*
X164524014Y-90268581D01*
X164348449Y-91005951D01*
X164242413Y-90608315D01*
X164240356Y-90602829D01*
X164240050Y-90600526D01*
X164238466Y-90597790D01*
X164234153Y-90586288D01*
X164224526Y-90573711D01*
X164216591Y-90560005D01*
X164210417Y-90555279D01*
X164205694Y-90549109D01*
X164191992Y-90541176D01*
X164179411Y-90531546D01*
X164171898Y-90529542D01*
X164165173Y-90525649D01*
X164149474Y-90523563D01*
X164134170Y-90519482D01*
X164126465Y-90520505D01*
X164118760Y-90519482D01*
X164103455Y-90523563D01*
X164087757Y-90525649D01*
X164081031Y-90529542D01*
X164073519Y-90531546D01*
X164060942Y-90541172D01*
X164047236Y-90549108D01*
X164042510Y-90555281D01*
X164036340Y-90560005D01*
X164028407Y-90573706D01*
X164018777Y-90586288D01*
X164014462Y-90597792D01*
X164012880Y-90600526D01*
X164012574Y-90602828D01*
X164010517Y-90608314D01*
X163904479Y-91005951D01*
X163728916Y-90268582D01*
X163721250Y-90246341D01*
X163693800Y-90208411D01*
X163653924Y-90183872D01*
X163607693Y-90176460D01*
X163562144Y-90187305D01*
X163524214Y-90214755D01*
X163499675Y-90254631D01*
X163492263Y-90300862D01*
X163317436Y-90300862D01*
X163306978Y-90279946D01*
X163271607Y-90249268D01*
X163250126Y-90239677D01*
X163078699Y-90182534D01*
X163067086Y-90179893D01*
X163064162Y-90178682D01*
X163059921Y-90178264D01*
X163055760Y-90177318D01*
X163052597Y-90177542D01*
X163040751Y-90176376D01*
X162755036Y-90176376D01*
X162731625Y-90178682D01*
X162727640Y-90180332D01*
X162723341Y-90180638D01*
X162701370Y-90189045D01*
X162587085Y-90246188D01*
X162577007Y-90252531D01*
X162574083Y-90253743D01*
X162570788Y-90256446D01*
X162567177Y-90258720D01*
X162565100Y-90261114D01*
X162555898Y-90268666D01*
X162498755Y-90325809D01*
X162491203Y-90335011D01*
X162488809Y-90337088D01*
X162486535Y-90340699D01*
X162483832Y-90343994D01*
X162482620Y-90346919D01*
X162476277Y-90356996D01*
X162419134Y-90471282D01*
X162410727Y-90493253D01*
X162410421Y-90497552D01*
X162408771Y-90501537D01*
X162406465Y-90524948D01*
X162273132Y-90524948D01*
X162273132Y-90043043D01*
X167977492Y-90043043D01*
X167977492Y-91749709D01*
G37*
D11*
X159698904Y-64762907D02*
X161032238Y-64762907D01*
X158937000Y-65239098D02*
X160365571Y-65715288D01*
X160365571Y-65715288D02*
X160365571Y-64477193D01*
X159222714Y-70828621D02*
X159127476Y-70733383D01*
X159127476Y-70733383D02*
X159032238Y-70542907D01*
X159032238Y-70542907D02*
X159032238Y-70066716D01*
X159032238Y-70066716D02*
X159127476Y-69876240D01*
X159127476Y-69876240D02*
X159222714Y-69781002D01*
X159222714Y-69781002D02*
X159413190Y-69685764D01*
X159413190Y-69685764D02*
X159603666Y-69685764D01*
X159603666Y-69685764D02*
X159889380Y-69781002D01*
X159889380Y-69781002D02*
X161032238Y-70923859D01*
X161032238Y-70923859D02*
X161032238Y-69685764D01*
D12*
X131199887Y-65035533D02*
X131818934Y-65035533D01*
X131818934Y-65035533D02*
X131485601Y-65416485D01*
X131485601Y-65416485D02*
X131628458Y-65416485D01*
X131628458Y-65416485D02*
X131723696Y-65464104D01*
X131723696Y-65464104D02*
X131771315Y-65511723D01*
X131771315Y-65511723D02*
X131818934Y-65606961D01*
X131818934Y-65606961D02*
X131818934Y-65845056D01*
X131818934Y-65845056D02*
X131771315Y-65940294D01*
X131771315Y-65940294D02*
X131723696Y-65987914D01*
X131723696Y-65987914D02*
X131628458Y-66035533D01*
X131628458Y-66035533D02*
X131342744Y-66035533D01*
X131342744Y-66035533D02*
X131247506Y-65987914D01*
X131247506Y-65987914D02*
X131199887Y-65940294D01*
X132104649Y-65035533D02*
X132437982Y-66035533D01*
X132437982Y-66035533D02*
X132771315Y-65035533D01*
X133009411Y-65035533D02*
X133628458Y-65035533D01*
X133628458Y-65035533D02*
X133295125Y-65416485D01*
X133295125Y-65416485D02*
X133437982Y-65416485D01*
X133437982Y-65416485D02*
X133533220Y-65464104D01*
X133533220Y-65464104D02*
X133580839Y-65511723D01*
X133580839Y-65511723D02*
X133628458Y-65606961D01*
X133628458Y-65606961D02*
X133628458Y-65845056D01*
X133628458Y-65845056D02*
X133580839Y-65940294D01*
X133580839Y-65940294D02*
X133533220Y-65987914D01*
X133533220Y-65987914D02*
X133437982Y-66035533D01*
X133437982Y-66035533D02*
X133152268Y-66035533D01*
X133152268Y-66035533D02*
X133057030Y-65987914D01*
X133057030Y-65987914D02*
X133009411Y-65940294D01*
X166240588Y-81637438D02*
X166145350Y-81589819D01*
X166145350Y-81589819D02*
X166002493Y-81589819D01*
X166002493Y-81589819D02*
X165859636Y-81637438D01*
X165859636Y-81637438D02*
X165764398Y-81732676D01*
X165764398Y-81732676D02*
X165716779Y-81827914D01*
X165716779Y-81827914D02*
X165669160Y-82018390D01*
X165669160Y-82018390D02*
X165669160Y-82161247D01*
X165669160Y-82161247D02*
X165716779Y-82351723D01*
X165716779Y-82351723D02*
X165764398Y-82446961D01*
X165764398Y-82446961D02*
X165859636Y-82542200D01*
X165859636Y-82542200D02*
X166002493Y-82589819D01*
X166002493Y-82589819D02*
X166097731Y-82589819D01*
X166097731Y-82589819D02*
X166240588Y-82542200D01*
X166240588Y-82542200D02*
X166288207Y-82494580D01*
X166288207Y-82494580D02*
X166288207Y-82161247D01*
X166288207Y-82161247D02*
X166097731Y-82161247D01*
X166716779Y-82589819D02*
X166716779Y-81589819D01*
X166716779Y-81589819D02*
X167288207Y-82589819D01*
X167288207Y-82589819D02*
X167288207Y-81589819D01*
X167764398Y-82589819D02*
X167764398Y-81589819D01*
X167764398Y-81589819D02*
X168002493Y-81589819D01*
X168002493Y-81589819D02*
X168145350Y-81637438D01*
X168145350Y-81637438D02*
X168240588Y-81732676D01*
X168240588Y-81732676D02*
X168288207Y-81827914D01*
X168288207Y-81827914D02*
X168335826Y-82018390D01*
X168335826Y-82018390D02*
X168335826Y-82161247D01*
X168335826Y-82161247D02*
X168288207Y-82351723D01*
X168288207Y-82351723D02*
X168240588Y-82446961D01*
X168240588Y-82446961D02*
X168145350Y-82542200D01*
X168145350Y-82542200D02*
X168002493Y-82589819D01*
X168002493Y-82589819D02*
X167764398Y-82589819D01*
X166340588Y-112117438D02*
X166245350Y-112069819D01*
X166245350Y-112069819D02*
X166102493Y-112069819D01*
X166102493Y-112069819D02*
X165959636Y-112117438D01*
X165959636Y-112117438D02*
X165864398Y-112212676D01*
X165864398Y-112212676D02*
X165816779Y-112307914D01*
X165816779Y-112307914D02*
X165769160Y-112498390D01*
X165769160Y-112498390D02*
X165769160Y-112641247D01*
X165769160Y-112641247D02*
X165816779Y-112831723D01*
X165816779Y-112831723D02*
X165864398Y-112926961D01*
X165864398Y-112926961D02*
X165959636Y-113022200D01*
X165959636Y-113022200D02*
X166102493Y-113069819D01*
X166102493Y-113069819D02*
X166197731Y-113069819D01*
X166197731Y-113069819D02*
X166340588Y-113022200D01*
X166340588Y-113022200D02*
X166388207Y-112974580D01*
X166388207Y-112974580D02*
X166388207Y-112641247D01*
X166388207Y-112641247D02*
X166197731Y-112641247D01*
X166816779Y-113069819D02*
X166816779Y-112069819D01*
X166816779Y-112069819D02*
X167388207Y-113069819D01*
X167388207Y-113069819D02*
X167388207Y-112069819D01*
X167864398Y-113069819D02*
X167864398Y-112069819D01*
X167864398Y-112069819D02*
X168102493Y-112069819D01*
X168102493Y-112069819D02*
X168245350Y-112117438D01*
X168245350Y-112117438D02*
X168340588Y-112212676D01*
X168340588Y-112212676D02*
X168388207Y-112307914D01*
X168388207Y-112307914D02*
X168435826Y-112498390D01*
X168435826Y-112498390D02*
X168435826Y-112641247D01*
X168435826Y-112641247D02*
X168388207Y-112831723D01*
X168388207Y-112831723D02*
X168340588Y-112926961D01*
X168340588Y-112926961D02*
X168245350Y-113022200D01*
X168245350Y-113022200D02*
X168102493Y-113069819D01*
X168102493Y-113069819D02*
X167864398Y-113069819D01*
D14*
X139863055Y-121198346D02*
X139934484Y-121269774D01*
X139934484Y-121269774D02*
X140005912Y-121484060D01*
X140005912Y-121484060D02*
X140005912Y-121626917D01*
X140005912Y-121626917D02*
X139934484Y-121841203D01*
X139934484Y-121841203D02*
X139791626Y-121984060D01*
X139791626Y-121984060D02*
X139648769Y-122055489D01*
X139648769Y-122055489D02*
X139363055Y-122126917D01*
X139363055Y-122126917D02*
X139148769Y-122126917D01*
X139148769Y-122126917D02*
X138863055Y-122055489D01*
X138863055Y-122055489D02*
X138720198Y-121984060D01*
X138720198Y-121984060D02*
X138577341Y-121841203D01*
X138577341Y-121841203D02*
X138505912Y-121626917D01*
X138505912Y-121626917D02*
X138505912Y-121484060D01*
X138505912Y-121484060D02*
X138577341Y-121269774D01*
X138577341Y-121269774D02*
X138648769Y-121198346D01*
X139934484Y-120626917D02*
X140005912Y-120412632D01*
X140005912Y-120412632D02*
X140005912Y-120055489D01*
X140005912Y-120055489D02*
X139934484Y-119912632D01*
X139934484Y-119912632D02*
X139863055Y-119841203D01*
X139863055Y-119841203D02*
X139720198Y-119769774D01*
X139720198Y-119769774D02*
X139577341Y-119769774D01*
X139577341Y-119769774D02*
X139434484Y-119841203D01*
X139434484Y-119841203D02*
X139363055Y-119912632D01*
X139363055Y-119912632D02*
X139291626Y-120055489D01*
X139291626Y-120055489D02*
X139220198Y-120341203D01*
X139220198Y-120341203D02*
X139148769Y-120484060D01*
X139148769Y-120484060D02*
X139077341Y-120555489D01*
X139077341Y-120555489D02*
X138934484Y-120626917D01*
X138934484Y-120626917D02*
X138791626Y-120626917D01*
X138791626Y-120626917D02*
X138648769Y-120555489D01*
X138648769Y-120555489D02*
X138577341Y-120484060D01*
X138577341Y-120484060D02*
X138505912Y-120341203D01*
X138505912Y-120341203D02*
X138505912Y-119984060D01*
X138505912Y-119984060D02*
X138577341Y-119769774D01*
X139863055Y-118269775D02*
X139934484Y-118341203D01*
X139934484Y-118341203D02*
X140005912Y-118555489D01*
X140005912Y-118555489D02*
X140005912Y-118698346D01*
X140005912Y-118698346D02*
X139934484Y-118912632D01*
X139934484Y-118912632D02*
X139791626Y-119055489D01*
X139791626Y-119055489D02*
X139648769Y-119126918D01*
X139648769Y-119126918D02*
X139363055Y-119198346D01*
X139363055Y-119198346D02*
X139148769Y-119198346D01*
X139148769Y-119198346D02*
X138863055Y-119126918D01*
X138863055Y-119126918D02*
X138720198Y-119055489D01*
X138720198Y-119055489D02*
X138577341Y-118912632D01*
X138577341Y-118912632D02*
X138505912Y-118698346D01*
X138505912Y-118698346D02*
X138505912Y-118555489D01*
X138505912Y-118555489D02*
X138577341Y-118341203D01*
X138577341Y-118341203D02*
X138648769Y-118269775D01*
X139434484Y-117626918D02*
X139434484Y-116484061D01*
X138648769Y-115841203D02*
X138577341Y-115769775D01*
X138577341Y-115769775D02*
X138505912Y-115626918D01*
X138505912Y-115626918D02*
X138505912Y-115269775D01*
X138505912Y-115269775D02*
X138577341Y-115126918D01*
X138577341Y-115126918D02*
X138648769Y-115055489D01*
X138648769Y-115055489D02*
X138791626Y-114984060D01*
X138791626Y-114984060D02*
X138934484Y-114984060D01*
X138934484Y-114984060D02*
X139148769Y-115055489D01*
X139148769Y-115055489D02*
X140005912Y-115912632D01*
X140005912Y-115912632D02*
X140005912Y-114984060D01*
X138505912Y-114055489D02*
X138505912Y-113912632D01*
X138505912Y-113912632D02*
X138577341Y-113769775D01*
X138577341Y-113769775D02*
X138648769Y-113698347D01*
X138648769Y-113698347D02*
X138791626Y-113626918D01*
X138791626Y-113626918D02*
X139077341Y-113555489D01*
X139077341Y-113555489D02*
X139434484Y-113555489D01*
X139434484Y-113555489D02*
X139720198Y-113626918D01*
X139720198Y-113626918D02*
X139863055Y-113698347D01*
X139863055Y-113698347D02*
X139934484Y-113769775D01*
X139934484Y-113769775D02*
X140005912Y-113912632D01*
X140005912Y-113912632D02*
X140005912Y-114055489D01*
X140005912Y-114055489D02*
X139934484Y-114198347D01*
X139934484Y-114198347D02*
X139863055Y-114269775D01*
X139863055Y-114269775D02*
X139720198Y-114341204D01*
X139720198Y-114341204D02*
X139434484Y-114412632D01*
X139434484Y-114412632D02*
X139077341Y-114412632D01*
X139077341Y-114412632D02*
X138791626Y-114341204D01*
X138791626Y-114341204D02*
X138648769Y-114269775D01*
X138648769Y-114269775D02*
X138577341Y-114198347D01*
X138577341Y-114198347D02*
X138505912Y-114055489D01*
X138648769Y-112984061D02*
X138577341Y-112912633D01*
X138577341Y-112912633D02*
X138505912Y-112769776D01*
X138505912Y-112769776D02*
X138505912Y-112412633D01*
X138505912Y-112412633D02*
X138577341Y-112269776D01*
X138577341Y-112269776D02*
X138648769Y-112198347D01*
X138648769Y-112198347D02*
X138791626Y-112126918D01*
X138791626Y-112126918D02*
X138934484Y-112126918D01*
X138934484Y-112126918D02*
X139148769Y-112198347D01*
X139148769Y-112198347D02*
X140005912Y-113055490D01*
X140005912Y-113055490D02*
X140005912Y-112126918D01*
X142349400Y-122126917D02*
X142420828Y-121912632D01*
X142420828Y-121912632D02*
X142420828Y-121555489D01*
X142420828Y-121555489D02*
X142349400Y-121412632D01*
X142349400Y-121412632D02*
X142277971Y-121341203D01*
X142277971Y-121341203D02*
X142135114Y-121269774D01*
X142135114Y-121269774D02*
X141992257Y-121269774D01*
X141992257Y-121269774D02*
X141849400Y-121341203D01*
X141849400Y-121341203D02*
X141777971Y-121412632D01*
X141777971Y-121412632D02*
X141706542Y-121555489D01*
X141706542Y-121555489D02*
X141635114Y-121841203D01*
X141635114Y-121841203D02*
X141563685Y-121984060D01*
X141563685Y-121984060D02*
X141492257Y-122055489D01*
X141492257Y-122055489D02*
X141349400Y-122126917D01*
X141349400Y-122126917D02*
X141206542Y-122126917D01*
X141206542Y-122126917D02*
X141063685Y-122055489D01*
X141063685Y-122055489D02*
X140992257Y-121984060D01*
X140992257Y-121984060D02*
X140920828Y-121841203D01*
X140920828Y-121841203D02*
X140920828Y-121484060D01*
X140920828Y-121484060D02*
X140992257Y-121269774D01*
X140920828Y-120769775D02*
X142420828Y-120412632D01*
X142420828Y-120412632D02*
X141349400Y-120126918D01*
X141349400Y-120126918D02*
X142420828Y-119841203D01*
X142420828Y-119841203D02*
X140920828Y-119484061D01*
X142420828Y-117769775D02*
X140920828Y-117769775D01*
X140920828Y-117769775D02*
X141992257Y-117269775D01*
X141992257Y-117269775D02*
X140920828Y-116769775D01*
X140920828Y-116769775D02*
X142420828Y-116769775D01*
X140920828Y-115769774D02*
X140920828Y-115484060D01*
X140920828Y-115484060D02*
X140992257Y-115341203D01*
X140992257Y-115341203D02*
X141135114Y-115198346D01*
X141135114Y-115198346D02*
X141420828Y-115126917D01*
X141420828Y-115126917D02*
X141920828Y-115126917D01*
X141920828Y-115126917D02*
X142206542Y-115198346D01*
X142206542Y-115198346D02*
X142349400Y-115341203D01*
X142349400Y-115341203D02*
X142420828Y-115484060D01*
X142420828Y-115484060D02*
X142420828Y-115769774D01*
X142420828Y-115769774D02*
X142349400Y-115912632D01*
X142349400Y-115912632D02*
X142206542Y-116055489D01*
X142206542Y-116055489D02*
X141920828Y-116126917D01*
X141920828Y-116126917D02*
X141420828Y-116126917D01*
X141420828Y-116126917D02*
X141135114Y-116055489D01*
X141135114Y-116055489D02*
X140992257Y-115912632D01*
X140992257Y-115912632D02*
X140920828Y-115769774D01*
X142420828Y-114484060D02*
X140920828Y-114484060D01*
X140920828Y-114484060D02*
X140920828Y-114126917D01*
X140920828Y-114126917D02*
X140992257Y-113912631D01*
X140992257Y-113912631D02*
X141135114Y-113769774D01*
X141135114Y-113769774D02*
X141277971Y-113698345D01*
X141277971Y-113698345D02*
X141563685Y-113626917D01*
X141563685Y-113626917D02*
X141777971Y-113626917D01*
X141777971Y-113626917D02*
X142063685Y-113698345D01*
X142063685Y-113698345D02*
X142206542Y-113769774D01*
X142206542Y-113769774D02*
X142349400Y-113912631D01*
X142349400Y-113912631D02*
X142420828Y-114126917D01*
X142420828Y-114126917D02*
X142420828Y-114484060D01*
X140920828Y-112984060D02*
X142135114Y-112984060D01*
X142135114Y-112984060D02*
X142277971Y-112912631D01*
X142277971Y-112912631D02*
X142349400Y-112841203D01*
X142349400Y-112841203D02*
X142420828Y-112698345D01*
X142420828Y-112698345D02*
X142420828Y-112412631D01*
X142420828Y-112412631D02*
X142349400Y-112269774D01*
X142349400Y-112269774D02*
X142277971Y-112198345D01*
X142277971Y-112198345D02*
X142135114Y-112126917D01*
X142135114Y-112126917D02*
X140920828Y-112126917D01*
X142420828Y-110698345D02*
X142420828Y-111412631D01*
X142420828Y-111412631D02*
X140920828Y-111412631D01*
X141635114Y-110198345D02*
X141635114Y-109698345D01*
X142420828Y-109484059D02*
X142420828Y-110198345D01*
X142420828Y-110198345D02*
X140920828Y-110198345D01*
X140920828Y-110198345D02*
X140920828Y-109484059D01*
D12*
X131152268Y-101339818D02*
X131628458Y-101339818D01*
X131057030Y-101625533D02*
X131390363Y-100625533D01*
X131390363Y-100625533D02*
X131723696Y-101625533D01*
X132057030Y-101625533D02*
X132057030Y-100625533D01*
X132057030Y-100625533D02*
X132295125Y-100625533D01*
X132295125Y-100625533D02*
X132437982Y-100673152D01*
X132437982Y-100673152D02*
X132533220Y-100768390D01*
X132533220Y-100768390D02*
X132580839Y-100863628D01*
X132580839Y-100863628D02*
X132628458Y-101054104D01*
X132628458Y-101054104D02*
X132628458Y-101196961D01*
X132628458Y-101196961D02*
X132580839Y-101387437D01*
X132580839Y-101387437D02*
X132533220Y-101482675D01*
X132533220Y-101482675D02*
X132437982Y-101577914D01*
X132437982Y-101577914D02*
X132295125Y-101625533D01*
X132295125Y-101625533D02*
X132057030Y-101625533D01*
X133628458Y-101530294D02*
X133580839Y-101577914D01*
X133580839Y-101577914D02*
X133437982Y-101625533D01*
X133437982Y-101625533D02*
X133342744Y-101625533D01*
X133342744Y-101625533D02*
X133199887Y-101577914D01*
X133199887Y-101577914D02*
X133104649Y-101482675D01*
X133104649Y-101482675D02*
X133057030Y-101387437D01*
X133057030Y-101387437D02*
X133009411Y-101196961D01*
X133009411Y-101196961D02*
X133009411Y-101054104D01*
X133009411Y-101054104D02*
X133057030Y-100863628D01*
X133057030Y-100863628D02*
X133104649Y-100768390D01*
X133104649Y-100768390D02*
X133199887Y-100673152D01*
X133199887Y-100673152D02*
X133342744Y-100625533D01*
X133342744Y-100625533D02*
X133437982Y-100625533D01*
X133437982Y-100625533D02*
X133580839Y-100673152D01*
X133580839Y-100673152D02*
X133628458Y-100720771D01*
X165579160Y-68524581D02*
X165722017Y-68572200D01*
X165722017Y-68572200D02*
X165960112Y-68572200D01*
X165960112Y-68572200D02*
X166055350Y-68524581D01*
X166055350Y-68524581D02*
X166102969Y-68476961D01*
X166102969Y-68476961D02*
X166150588Y-68381723D01*
X166150588Y-68381723D02*
X166150588Y-68286485D01*
X166150588Y-68286485D02*
X166102969Y-68191247D01*
X166102969Y-68191247D02*
X166055350Y-68143628D01*
X166055350Y-68143628D02*
X165960112Y-68096009D01*
X165960112Y-68096009D02*
X165769636Y-68048390D01*
X165769636Y-68048390D02*
X165674398Y-68000771D01*
X165674398Y-68000771D02*
X165626779Y-67953152D01*
X165626779Y-67953152D02*
X165579160Y-67857914D01*
X165579160Y-67857914D02*
X165579160Y-67762676D01*
X165579160Y-67762676D02*
X165626779Y-67667438D01*
X165626779Y-67667438D02*
X165674398Y-67619819D01*
X165674398Y-67619819D02*
X165769636Y-67572200D01*
X165769636Y-67572200D02*
X166007731Y-67572200D01*
X166007731Y-67572200D02*
X166150588Y-67619819D01*
X166483922Y-67572200D02*
X166722017Y-68572200D01*
X166722017Y-68572200D02*
X166912493Y-67857914D01*
X166912493Y-67857914D02*
X167102969Y-68572200D01*
X167102969Y-68572200D02*
X167341065Y-67572200D01*
X167626779Y-67572200D02*
X168245826Y-67572200D01*
X168245826Y-67572200D02*
X167912493Y-67953152D01*
X167912493Y-67953152D02*
X168055350Y-67953152D01*
X168055350Y-67953152D02*
X168150588Y-68000771D01*
X168150588Y-68000771D02*
X168198207Y-68048390D01*
X168198207Y-68048390D02*
X168245826Y-68143628D01*
X168245826Y-68143628D02*
X168245826Y-68381723D01*
X168245826Y-68381723D02*
X168198207Y-68476961D01*
X168198207Y-68476961D02*
X168150588Y-68524581D01*
X168150588Y-68524581D02*
X168055350Y-68572200D01*
X168055350Y-68572200D02*
X167769636Y-68572200D01*
X167769636Y-68572200D02*
X167674398Y-68524581D01*
X167674398Y-68524581D02*
X167626779Y-68476961D01*
X145424819Y-74396666D02*
X145424819Y-74968094D01*
X145424819Y-74682380D02*
X144424819Y-74682380D01*
X144424819Y-74682380D02*
X144567676Y-74777618D01*
X144567676Y-74777618D02*
X144662914Y-74872856D01*
X144662914Y-74872856D02*
X144710533Y-74968094D01*
X144424819Y-73777618D02*
X144424819Y-73682380D01*
X144424819Y-73682380D02*
X144472438Y-73587142D01*
X144472438Y-73587142D02*
X144520057Y-73539523D01*
X144520057Y-73539523D02*
X144615295Y-73491904D01*
X144615295Y-73491904D02*
X144805771Y-73444285D01*
X144805771Y-73444285D02*
X145043866Y-73444285D01*
X145043866Y-73444285D02*
X145234342Y-73491904D01*
X145234342Y-73491904D02*
X145329580Y-73539523D01*
X145329580Y-73539523D02*
X145377200Y-73587142D01*
X145377200Y-73587142D02*
X145424819Y-73682380D01*
X145424819Y-73682380D02*
X145424819Y-73777618D01*
X145424819Y-73777618D02*
X145377200Y-73872856D01*
X145377200Y-73872856D02*
X145329580Y-73920475D01*
X145329580Y-73920475D02*
X145234342Y-73968094D01*
X145234342Y-73968094D02*
X145043866Y-74015713D01*
X145043866Y-74015713D02*
X144805771Y-74015713D01*
X144805771Y-74015713D02*
X144615295Y-73968094D01*
X144615295Y-73968094D02*
X144520057Y-73920475D01*
X144520057Y-73920475D02*
X144472438Y-73872856D01*
X144472438Y-73872856D02*
X144424819Y-73777618D01*
X145424819Y-73015713D02*
X144424819Y-73015713D01*
X145043866Y-72920475D02*
X145424819Y-72634761D01*
X144758152Y-72634761D02*
X145139104Y-73015713D01*
X145424819Y-72253808D02*
X145424819Y-72015713D01*
X145424819Y-72015713D02*
X145234342Y-72015713D01*
X145234342Y-72015713D02*
X145186723Y-72110951D01*
X145186723Y-72110951D02*
X145091485Y-72206189D01*
X145091485Y-72206189D02*
X144948628Y-72253808D01*
X144948628Y-72253808D02*
X144710533Y-72253808D01*
X144710533Y-72253808D02*
X144567676Y-72206189D01*
X144567676Y-72206189D02*
X144472438Y-72110951D01*
X144472438Y-72110951D02*
X144424819Y-71968094D01*
X144424819Y-71968094D02*
X144424819Y-71777618D01*
X144424819Y-71777618D02*
X144472438Y-71634761D01*
X144472438Y-71634761D02*
X144567676Y-71539523D01*
X144567676Y-71539523D02*
X144710533Y-71491904D01*
X144710533Y-71491904D02*
X144948628Y-71491904D01*
X144948628Y-71491904D02*
X145091485Y-71539523D01*
X145091485Y-71539523D02*
X145186723Y-71634761D01*
X145186723Y-71634761D02*
X145234342Y-71729999D01*
X145234342Y-71729999D02*
X145424819Y-71729999D01*
X145424819Y-71729999D02*
X145424819Y-71491904D01*
D15*
X143844178Y-99621427D02*
X143844178Y-99478570D01*
X143844178Y-99478570D02*
X143915607Y-99335713D01*
X143915607Y-99335713D02*
X143987035Y-99264285D01*
X143987035Y-99264285D02*
X144129892Y-99192856D01*
X144129892Y-99192856D02*
X144415607Y-99121427D01*
X144415607Y-99121427D02*
X144772750Y-99121427D01*
X144772750Y-99121427D02*
X145058464Y-99192856D01*
X145058464Y-99192856D02*
X145201321Y-99264285D01*
X145201321Y-99264285D02*
X145272750Y-99335713D01*
X145272750Y-99335713D02*
X145344178Y-99478570D01*
X145344178Y-99478570D02*
X145344178Y-99621427D01*
X145344178Y-99621427D02*
X145272750Y-99764285D01*
X145272750Y-99764285D02*
X145201321Y-99835713D01*
X145201321Y-99835713D02*
X145058464Y-99907142D01*
X145058464Y-99907142D02*
X144772750Y-99978570D01*
X144772750Y-99978570D02*
X144415607Y-99978570D01*
X144415607Y-99978570D02*
X144129892Y-99907142D01*
X144129892Y-99907142D02*
X143987035Y-99835713D01*
X143987035Y-99835713D02*
X143915607Y-99764285D01*
X143915607Y-99764285D02*
X143844178Y-99621427D01*
X144772750Y-97335714D02*
X144772750Y-98478571D01*
X145058464Y-98192856D02*
X144772750Y-98478571D01*
X144772750Y-98478571D02*
X144487035Y-98192856D01*
X144915607Y-96692856D02*
X144915607Y-95978571D01*
X145344178Y-96835713D02*
X143844178Y-96335713D01*
X143844178Y-96335713D02*
X145344178Y-95835713D01*
X145344178Y-95335714D02*
X143844178Y-95335714D01*
X143844178Y-95335714D02*
X143844178Y-94978571D01*
X143844178Y-94978571D02*
X143915607Y-94764285D01*
X143915607Y-94764285D02*
X144058464Y-94621428D01*
X144058464Y-94621428D02*
X144201321Y-94549999D01*
X144201321Y-94549999D02*
X144487035Y-94478571D01*
X144487035Y-94478571D02*
X144701321Y-94478571D01*
X144701321Y-94478571D02*
X144987035Y-94549999D01*
X144987035Y-94549999D02*
X145129892Y-94621428D01*
X145129892Y-94621428D02*
X145272750Y-94764285D01*
X145272750Y-94764285D02*
X145344178Y-94978571D01*
X145344178Y-94978571D02*
X145344178Y-95335714D01*
X145201321Y-92978571D02*
X145272750Y-93049999D01*
X145272750Y-93049999D02*
X145344178Y-93264285D01*
X145344178Y-93264285D02*
X145344178Y-93407142D01*
X145344178Y-93407142D02*
X145272750Y-93621428D01*
X145272750Y-93621428D02*
X145129892Y-93764285D01*
X145129892Y-93764285D02*
X144987035Y-93835714D01*
X144987035Y-93835714D02*
X144701321Y-93907142D01*
X144701321Y-93907142D02*
X144487035Y-93907142D01*
X144487035Y-93907142D02*
X144201321Y-93835714D01*
X144201321Y-93835714D02*
X144058464Y-93764285D01*
X144058464Y-93764285D02*
X143915607Y-93621428D01*
X143915607Y-93621428D02*
X143844178Y-93407142D01*
X143844178Y-93407142D02*
X143844178Y-93264285D01*
X143844178Y-93264285D02*
X143915607Y-93049999D01*
X143915607Y-93049999D02*
X143987035Y-92978571D01*
X144772750Y-92335714D02*
X144772750Y-91192857D01*
X145058464Y-91478571D02*
X144772750Y-91192857D01*
X144772750Y-91192857D02*
X144487035Y-91478571D01*
X145344178Y-89692856D02*
X145344178Y-90549999D01*
X145344178Y-90121428D02*
X143844178Y-90121428D01*
X143844178Y-90121428D02*
X144058464Y-90264285D01*
X144058464Y-90264285D02*
X144201321Y-90407142D01*
X144201321Y-90407142D02*
X144272750Y-90549999D01*
D13*
G36*
X132604427Y-126008402D02*
G01*
X132684910Y-126088886D01*
X132727455Y-126173975D01*
X132777820Y-126375435D01*
X132777820Y-126517318D01*
X132727455Y-126718778D01*
X132684910Y-126803866D01*
X132604427Y-126884350D01*
X132478347Y-126926376D01*
X132332106Y-126926376D01*
X132332106Y-125966376D01*
X132478347Y-125966376D01*
X132604427Y-126008402D01*
G37*
G36*
X131531329Y-126583519D02*
G01*
X131292883Y-126583519D01*
X131412106Y-126225849D01*
X131531329Y-126583519D01*
G37*
G36*
X137491704Y-127299709D02*
G01*
X130759715Y-127299709D01*
X130759715Y-127031368D01*
X130893048Y-127031368D01*
X130896368Y-127078071D01*
X130917307Y-127119950D01*
X130952678Y-127150627D01*
X130997098Y-127165434D01*
X131043801Y-127162114D01*
X131085680Y-127141175D01*
X131116357Y-127105804D01*
X131125948Y-127084323D01*
X131212883Y-126823519D01*
X131611329Y-126823519D01*
X131698264Y-127084323D01*
X131707855Y-127105804D01*
X131738532Y-127141175D01*
X131780411Y-127162114D01*
X131827114Y-127165433D01*
X131871534Y-127150627D01*
X131906905Y-127119949D01*
X131927844Y-127078071D01*
X131931164Y-127031367D01*
X131925948Y-127008429D01*
X131538597Y-125846376D01*
X132092106Y-125846376D01*
X132092106Y-127046376D01*
X132094412Y-127069787D01*
X132112330Y-127113044D01*
X132145438Y-127146152D01*
X132188695Y-127164070D01*
X132212106Y-127166376D01*
X132497820Y-127166376D01*
X132509665Y-127165209D01*
X132512828Y-127165434D01*
X132516989Y-127164487D01*
X132521231Y-127164070D01*
X132524157Y-127162857D01*
X132535767Y-127160218D01*
X132707196Y-127103076D01*
X132728676Y-127093485D01*
X132731932Y-127090660D01*
X132735918Y-127089010D01*
X132754102Y-127074086D01*
X132868387Y-126959801D01*
X132875940Y-126950596D01*
X132878333Y-126948522D01*
X132880603Y-126944914D01*
X132883311Y-126941616D01*
X132884524Y-126938686D01*
X132890865Y-126928614D01*
X132948008Y-126814327D01*
X132948663Y-126812615D01*
X132949179Y-126811919D01*
X132952685Y-126802104D01*
X132956416Y-126792357D01*
X132956477Y-126791491D01*
X132957094Y-126789766D01*
X133014237Y-126561195D01*
X133014837Y-126557135D01*
X133015514Y-126555502D01*
X133016382Y-126546686D01*
X133017678Y-126537924D01*
X133017417Y-126536175D01*
X133017820Y-126532091D01*
X133017820Y-126360662D01*
X133234963Y-126360662D01*
X133234963Y-126532091D01*
X133235365Y-126536175D01*
X133235105Y-126537924D01*
X133236400Y-126546686D01*
X133237269Y-126555502D01*
X133237945Y-126557135D01*
X133238546Y-126561195D01*
X133295689Y-126789767D01*
X133296306Y-126791496D01*
X133296368Y-126792357D01*
X133300089Y-126802082D01*
X133303604Y-126811919D01*
X133304119Y-126812614D01*
X133304775Y-126814328D01*
X133361918Y-126928614D01*
X133368258Y-126938686D01*
X133369472Y-126941616D01*
X133372178Y-126944914D01*
X133374450Y-126948522D01*
X133376843Y-126950597D01*
X133384396Y-126959800D01*
X133498681Y-127074086D01*
X133516865Y-127089010D01*
X133520850Y-127090661D01*
X133524107Y-127093485D01*
X133545587Y-127103076D01*
X133717017Y-127160218D01*
X133728625Y-127162857D01*
X133731552Y-127164070D01*
X133735794Y-127164487D01*
X133739955Y-127165434D01*
X133743117Y-127165209D01*
X133754963Y-127166376D01*
X133869249Y-127166376D01*
X133881094Y-127165209D01*
X133884257Y-127165434D01*
X133888418Y-127164487D01*
X133892660Y-127164070D01*
X133895586Y-127162857D01*
X133907196Y-127160218D01*
X134078624Y-127103076D01*
X134100105Y-127093485D01*
X134103362Y-127090659D01*
X134107345Y-127089010D01*
X134125530Y-127074087D01*
X134182673Y-127016944D01*
X134197596Y-126998759D01*
X134215513Y-126955502D01*
X134215513Y-126908680D01*
X134197596Y-126865423D01*
X134164488Y-126832315D01*
X134121231Y-126814398D01*
X134074409Y-126814398D01*
X134031152Y-126832315D01*
X134012967Y-126847238D01*
X133975854Y-126884350D01*
X133849776Y-126926376D01*
X133774436Y-126926376D01*
X133648356Y-126884350D01*
X133567871Y-126803865D01*
X133525328Y-126718778D01*
X133487089Y-126565823D01*
X134494412Y-126565823D01*
X134494412Y-126612645D01*
X134512330Y-126655902D01*
X134545438Y-126689010D01*
X134588695Y-126706928D01*
X134612106Y-126709234D01*
X135526392Y-126709234D01*
X135549803Y-126706928D01*
X135593060Y-126689010D01*
X135626168Y-126655902D01*
X135644086Y-126612645D01*
X135644086Y-126565823D01*
X135626168Y-126522566D01*
X135593060Y-126489458D01*
X135549803Y-126471540D01*
X135526392Y-126469234D01*
X134612106Y-126469234D01*
X134588695Y-126471540D01*
X134545438Y-126489458D01*
X134512330Y-126522566D01*
X134494412Y-126565823D01*
X133487089Y-126565823D01*
X133474963Y-126517318D01*
X133474963Y-126375434D01*
X133525328Y-126173974D01*
X133567871Y-126088887D01*
X133648356Y-126008402D01*
X133774436Y-125966376D01*
X133849775Y-125966376D01*
X133975854Y-126008402D01*
X134012967Y-126045515D01*
X134031152Y-126060438D01*
X134074409Y-126078355D01*
X134121231Y-126078355D01*
X134164488Y-126060438D01*
X134197596Y-126027330D01*
X134215513Y-125984073D01*
X134215513Y-125937251D01*
X134197596Y-125893994D01*
X134182673Y-125875809D01*
X134153240Y-125846376D01*
X135977820Y-125846376D01*
X135977820Y-127046376D01*
X135980126Y-127069787D01*
X135998044Y-127113044D01*
X136031152Y-127146152D01*
X136074409Y-127164070D01*
X136121231Y-127164070D01*
X136164488Y-127146152D01*
X136197596Y-127113044D01*
X136215514Y-127069787D01*
X136217820Y-127046376D01*
X136217820Y-125846376D01*
X136549249Y-125846376D01*
X136549249Y-127046376D01*
X136551555Y-127069787D01*
X136569473Y-127113044D01*
X136602581Y-127146152D01*
X136645838Y-127164070D01*
X136692660Y-127164070D01*
X136735917Y-127146152D01*
X136769025Y-127113044D01*
X136786943Y-127069787D01*
X136789249Y-127046376D01*
X136789249Y-126537805D01*
X137069249Y-126537805D01*
X137092660Y-126535499D01*
X137135917Y-126517581D01*
X137169025Y-126484473D01*
X137186943Y-126441216D01*
X137186943Y-126394394D01*
X137169025Y-126351137D01*
X137135917Y-126318029D01*
X137092660Y-126300111D01*
X137069249Y-126297805D01*
X136789249Y-126297805D01*
X136789249Y-125966376D01*
X137240677Y-125966376D01*
X137264088Y-125964070D01*
X137307345Y-125946152D01*
X137340453Y-125913044D01*
X137358371Y-125869787D01*
X137358371Y-125822965D01*
X137340453Y-125779708D01*
X137307345Y-125746600D01*
X137264088Y-125728682D01*
X137240677Y-125726376D01*
X136669249Y-125726376D01*
X136645838Y-125728682D01*
X136602581Y-125746600D01*
X136569473Y-125779708D01*
X136551555Y-125822965D01*
X136549249Y-125846376D01*
X136217820Y-125846376D01*
X136215514Y-125822965D01*
X136197596Y-125779708D01*
X136164488Y-125746600D01*
X136121231Y-125728682D01*
X136074409Y-125728682D01*
X136031152Y-125746600D01*
X135998044Y-125779708D01*
X135980126Y-125822965D01*
X135977820Y-125846376D01*
X134153240Y-125846376D01*
X134125530Y-125818666D01*
X134107345Y-125803743D01*
X134103362Y-125802093D01*
X134100105Y-125799268D01*
X134078624Y-125789677D01*
X133907197Y-125732534D01*
X133895584Y-125729893D01*
X133892660Y-125728682D01*
X133888419Y-125728264D01*
X133884258Y-125727318D01*
X133881095Y-125727542D01*
X133869249Y-125726376D01*
X133754963Y-125726376D01*
X133743116Y-125727542D01*
X133739954Y-125727318D01*
X133735792Y-125728264D01*
X133731552Y-125728682D01*
X133728626Y-125729893D01*
X133717016Y-125732534D01*
X133545587Y-125789677D01*
X133524106Y-125799268D01*
X133520848Y-125802092D01*
X133516865Y-125803743D01*
X133498681Y-125818667D01*
X133384396Y-125932953D01*
X133376843Y-125942155D01*
X133374450Y-125944231D01*
X133372178Y-125947838D01*
X133369472Y-125951137D01*
X133368258Y-125954066D01*
X133361918Y-125964139D01*
X133304775Y-126078425D01*
X133304119Y-126080138D01*
X133303604Y-126080834D01*
X133300089Y-126090670D01*
X133296368Y-126100396D01*
X133296306Y-126101256D01*
X133295689Y-126102986D01*
X133238546Y-126331558D01*
X133237945Y-126335617D01*
X133237269Y-126337251D01*
X133236400Y-126346066D01*
X133235105Y-126354829D01*
X133235365Y-126356577D01*
X133234963Y-126360662D01*
X133017820Y-126360662D01*
X133017417Y-126356577D01*
X133017678Y-126354829D01*
X133016382Y-126346066D01*
X133015514Y-126337251D01*
X133014837Y-126335617D01*
X133014237Y-126331558D01*
X132957094Y-126102987D01*
X132956477Y-126101261D01*
X132956416Y-126100396D01*
X132952685Y-126090648D01*
X132949179Y-126080834D01*
X132948663Y-126080137D01*
X132948008Y-126078426D01*
X132890865Y-125964139D01*
X132884524Y-125954066D01*
X132883311Y-125951137D01*
X132880603Y-125947838D01*
X132878333Y-125944231D01*
X132875940Y-125942156D01*
X132868387Y-125932952D01*
X132754102Y-125818667D01*
X132735918Y-125803743D01*
X132731934Y-125802092D01*
X132728677Y-125799268D01*
X132707196Y-125789677D01*
X132535767Y-125732534D01*
X132524157Y-125729894D01*
X132521231Y-125728682D01*
X132516989Y-125728264D01*
X132512828Y-125727318D01*
X132509665Y-125727542D01*
X132497820Y-125726376D01*
X132212106Y-125726376D01*
X132188695Y-125728682D01*
X132145438Y-125746600D01*
X132112330Y-125779708D01*
X132094412Y-125822965D01*
X132092106Y-125846376D01*
X131538597Y-125846376D01*
X131525948Y-125808429D01*
X131516357Y-125786948D01*
X131510738Y-125780469D01*
X131506905Y-125772803D01*
X131495540Y-125762946D01*
X131485680Y-125751577D01*
X131478010Y-125747742D01*
X131471534Y-125742125D01*
X131457259Y-125737366D01*
X131443801Y-125730638D01*
X131435247Y-125730029D01*
X131427114Y-125727319D01*
X131412110Y-125728385D01*
X131397098Y-125727318D01*
X131388961Y-125730030D01*
X131380411Y-125730638D01*
X131366954Y-125737365D01*
X131352678Y-125742125D01*
X131346200Y-125747742D01*
X131338532Y-125751577D01*
X131328673Y-125762943D01*
X131317307Y-125772802D01*
X131313472Y-125780470D01*
X131307855Y-125786948D01*
X131298264Y-125808429D01*
X130898264Y-127008429D01*
X130893048Y-127031368D01*
X130759715Y-127031368D01*
X130759715Y-125593043D01*
X137491704Y-125593043D01*
X137491704Y-127299709D01*
G37*
D11*
X160802238Y-82280050D02*
X158802238Y-82280050D01*
X158802238Y-82280050D02*
X158802238Y-81518145D01*
X158802238Y-81518145D02*
X158897476Y-81327669D01*
X158897476Y-81327669D02*
X158992714Y-81232431D01*
X158992714Y-81232431D02*
X159183190Y-81137193D01*
X159183190Y-81137193D02*
X159468904Y-81137193D01*
X159468904Y-81137193D02*
X159659380Y-81232431D01*
X159659380Y-81232431D02*
X159754619Y-81327669D01*
X159754619Y-81327669D02*
X159849857Y-81518145D01*
X159849857Y-81518145D02*
X159849857Y-82280050D01*
X159754619Y-79613383D02*
X159849857Y-79327669D01*
X159849857Y-79327669D02*
X159945095Y-79232431D01*
X159945095Y-79232431D02*
X160135571Y-79137193D01*
X160135571Y-79137193D02*
X160421285Y-79137193D01*
X160421285Y-79137193D02*
X160611761Y-79232431D01*
X160611761Y-79232431D02*
X160707000Y-79327669D01*
X160707000Y-79327669D02*
X160802238Y-79518145D01*
X160802238Y-79518145D02*
X160802238Y-80280050D01*
X160802238Y-80280050D02*
X158802238Y-80280050D01*
X158802238Y-80280050D02*
X158802238Y-79613383D01*
X158802238Y-79613383D02*
X158897476Y-79422907D01*
X158897476Y-79422907D02*
X158992714Y-79327669D01*
X158992714Y-79327669D02*
X159183190Y-79232431D01*
X159183190Y-79232431D02*
X159373666Y-79232431D01*
X159373666Y-79232431D02*
X159564142Y-79327669D01*
X159564142Y-79327669D02*
X159659380Y-79422907D01*
X159659380Y-79422907D02*
X159754619Y-79613383D01*
X159754619Y-79613383D02*
X159754619Y-80280050D01*
X159468904Y-77422907D02*
X160802238Y-77422907D01*
X158707000Y-77899098D02*
X160135571Y-78375288D01*
X160135571Y-78375288D02*
X160135571Y-77137193D01*
D12*
X131480588Y-77807438D02*
X131385350Y-77759819D01*
X131385350Y-77759819D02*
X131242493Y-77759819D01*
X131242493Y-77759819D02*
X131099636Y-77807438D01*
X131099636Y-77807438D02*
X131004398Y-77902676D01*
X131004398Y-77902676D02*
X130956779Y-77997914D01*
X130956779Y-77997914D02*
X130909160Y-78188390D01*
X130909160Y-78188390D02*
X130909160Y-78331247D01*
X130909160Y-78331247D02*
X130956779Y-78521723D01*
X130956779Y-78521723D02*
X131004398Y-78616961D01*
X131004398Y-78616961D02*
X131099636Y-78712200D01*
X131099636Y-78712200D02*
X131242493Y-78759819D01*
X131242493Y-78759819D02*
X131337731Y-78759819D01*
X131337731Y-78759819D02*
X131480588Y-78712200D01*
X131480588Y-78712200D02*
X131528207Y-78664580D01*
X131528207Y-78664580D02*
X131528207Y-78331247D01*
X131528207Y-78331247D02*
X131337731Y-78331247D01*
X131956779Y-78759819D02*
X131956779Y-77759819D01*
X131956779Y-77759819D02*
X132528207Y-78759819D01*
X132528207Y-78759819D02*
X132528207Y-77759819D01*
X133004398Y-78759819D02*
X133004398Y-77759819D01*
X133004398Y-77759819D02*
X133242493Y-77759819D01*
X133242493Y-77759819D02*
X133385350Y-77807438D01*
X133385350Y-77807438D02*
X133480588Y-77902676D01*
X133480588Y-77902676D02*
X133528207Y-77997914D01*
X133528207Y-77997914D02*
X133575826Y-78188390D01*
X133575826Y-78188390D02*
X133575826Y-78331247D01*
X133575826Y-78331247D02*
X133528207Y-78521723D01*
X133528207Y-78521723D02*
X133480588Y-78616961D01*
X133480588Y-78616961D02*
X133385350Y-78712200D01*
X133385350Y-78712200D02*
X133242493Y-78759819D01*
X133242493Y-78759819D02*
X133004398Y-78759819D01*
D13*
G36*
X133683877Y-90452140D02*
G01*
X133713483Y-90481746D01*
X133749248Y-90553276D01*
X133749248Y-90668048D01*
X133713483Y-90739578D01*
X133683877Y-90769183D01*
X133612349Y-90804948D01*
X133303534Y-90804948D01*
X133303534Y-90416376D01*
X133612349Y-90416376D01*
X133683877Y-90452140D01*
G37*
G36*
X131112448Y-90452140D02*
G01*
X131142054Y-90481746D01*
X131177819Y-90553276D01*
X131177819Y-90668048D01*
X131142054Y-90739578D01*
X131112448Y-90769183D01*
X131040920Y-90804948D01*
X130732105Y-90804948D01*
X130732105Y-90416376D01*
X131040920Y-90416376D01*
X131112448Y-90452140D01*
G37*
G36*
X137379724Y-91749680D02*
G01*
X130358772Y-91749680D01*
X130358772Y-90296376D01*
X130492105Y-90296376D01*
X130492105Y-91496376D01*
X130494411Y-91519787D01*
X130512329Y-91563044D01*
X130545437Y-91596152D01*
X130588694Y-91614070D01*
X130635516Y-91614070D01*
X130678773Y-91596152D01*
X130711881Y-91563044D01*
X130729799Y-91519787D01*
X130732105Y-91496376D01*
X130732105Y-91044948D01*
X131069248Y-91044948D01*
X131092659Y-91042642D01*
X131096643Y-91040991D01*
X131100943Y-91040686D01*
X131122914Y-91032279D01*
X131237199Y-90975136D01*
X131247275Y-90968792D01*
X131250201Y-90967581D01*
X131253495Y-90964877D01*
X131257107Y-90962604D01*
X131259183Y-90960209D01*
X131268386Y-90952658D01*
X131325529Y-90895515D01*
X131333080Y-90886312D01*
X131335475Y-90884236D01*
X131337748Y-90880624D01*
X131340452Y-90877330D01*
X131341663Y-90874405D01*
X131348007Y-90864328D01*
X131405150Y-90750041D01*
X131413558Y-90728071D01*
X131413863Y-90723768D01*
X131415513Y-90719787D01*
X131417819Y-90696376D01*
X131417819Y-90524948D01*
X131415513Y-90501537D01*
X131413863Y-90497555D01*
X131413558Y-90493253D01*
X131405150Y-90471283D01*
X131348007Y-90356996D01*
X131341663Y-90346918D01*
X131340452Y-90343994D01*
X131337748Y-90340699D01*
X131335475Y-90337088D01*
X131333080Y-90335011D01*
X131325529Y-90325809D01*
X131300582Y-90300862D01*
X131577903Y-90300862D01*
X131581082Y-90324170D01*
X131866796Y-91524171D01*
X131869565Y-91532205D01*
X131869948Y-91535084D01*
X131871454Y-91537686D01*
X131874462Y-91546411D01*
X131884679Y-91560529D01*
X131893407Y-91575605D01*
X131898299Y-91579349D01*
X131901912Y-91584342D01*
X131916752Y-91593474D01*
X131930587Y-91604064D01*
X131936539Y-91605651D01*
X131941788Y-91608881D01*
X131958995Y-91611639D01*
X131975828Y-91616128D01*
X131981934Y-91615316D01*
X131988019Y-91616292D01*
X132004972Y-91612255D01*
X132022241Y-91609961D01*
X132027572Y-91606874D01*
X132033568Y-91605447D01*
X132047684Y-91595230D01*
X132062762Y-91586502D01*
X132066507Y-91581608D01*
X132071498Y-91577997D01*
X132080626Y-91563162D01*
X132091221Y-91549322D01*
X132094461Y-91540681D01*
X132096037Y-91538121D01*
X132096496Y-91535254D01*
X132099481Y-91527296D01*
X132212104Y-91104958D01*
X132324728Y-91527296D01*
X132327712Y-91535254D01*
X132328172Y-91538121D01*
X132329747Y-91540681D01*
X132332988Y-91549322D01*
X132343582Y-91563162D01*
X132352711Y-91577997D01*
X132357701Y-91581608D01*
X132361447Y-91586502D01*
X132376524Y-91595230D01*
X132390641Y-91605447D01*
X132396636Y-91606874D01*
X132401968Y-91609961D01*
X132419236Y-91612255D01*
X132436190Y-91616292D01*
X132442274Y-91615316D01*
X132448381Y-91616128D01*
X132465219Y-91611637D01*
X132482421Y-91608880D01*
X132487666Y-91605652D01*
X132493622Y-91604064D01*
X132507462Y-91593469D01*
X132522297Y-91584341D01*
X132525908Y-91579350D01*
X132530802Y-91575605D01*
X132539532Y-91560525D01*
X132549747Y-91546411D01*
X132552753Y-91537688D01*
X132554261Y-91535085D01*
X132554643Y-91532205D01*
X132557413Y-91524171D01*
X132843128Y-90324170D01*
X132846307Y-90300862D01*
X132845588Y-90296376D01*
X133063534Y-90296376D01*
X133063534Y-91496376D01*
X133065840Y-91519787D01*
X133083758Y-91563044D01*
X133116866Y-91596152D01*
X133160123Y-91614070D01*
X133206945Y-91614070D01*
X133250202Y-91596152D01*
X133283310Y-91563044D01*
X133301228Y-91519787D01*
X133303534Y-91496376D01*
X133303534Y-91044948D01*
X133406769Y-91044948D01*
X133770940Y-91565192D01*
X133786255Y-91583048D01*
X133825740Y-91608210D01*
X133871849Y-91616347D01*
X133917562Y-91606220D01*
X133955920Y-91579369D01*
X133981082Y-91539884D01*
X133989219Y-91493775D01*
X133979092Y-91448062D01*
X133967556Y-91427560D01*
X133691595Y-91033330D01*
X133694343Y-91032279D01*
X133727255Y-91015823D01*
X134265840Y-91015823D01*
X134265840Y-91062645D01*
X134283758Y-91105902D01*
X134316866Y-91139010D01*
X134360123Y-91156928D01*
X134383534Y-91159234D01*
X135297820Y-91159234D01*
X135321231Y-91156928D01*
X135364488Y-91139010D01*
X135397596Y-91105902D01*
X135415514Y-91062645D01*
X135415514Y-91015823D01*
X135397596Y-90972566D01*
X135364488Y-90939458D01*
X135321231Y-90921540D01*
X135297820Y-90919234D01*
X134383534Y-90919234D01*
X134360123Y-90921540D01*
X134316866Y-90939458D01*
X134283758Y-90972566D01*
X134265840Y-91015823D01*
X133727255Y-91015823D01*
X133808628Y-90975136D01*
X133818704Y-90968792D01*
X133821630Y-90967581D01*
X133824924Y-90964877D01*
X133828536Y-90962604D01*
X133830612Y-90960209D01*
X133839815Y-90952658D01*
X133896958Y-90895515D01*
X133904509Y-90886312D01*
X133906904Y-90884236D01*
X133909177Y-90880624D01*
X133911881Y-90877330D01*
X133913092Y-90874405D01*
X133919436Y-90864328D01*
X133976579Y-90750041D01*
X133984987Y-90728071D01*
X133985292Y-90723768D01*
X133986942Y-90719787D01*
X133989248Y-90696376D01*
X133989248Y-90524948D01*
X133986942Y-90501537D01*
X133985292Y-90497555D01*
X133984987Y-90493253D01*
X133976579Y-90471283D01*
X133919436Y-90356996D01*
X133913092Y-90346918D01*
X133911881Y-90343994D01*
X133909177Y-90340699D01*
X133906904Y-90337088D01*
X133904509Y-90335011D01*
X133896958Y-90325809D01*
X133867525Y-90296376D01*
X135749248Y-90296376D01*
X135749248Y-91496376D01*
X135751554Y-91519787D01*
X135769472Y-91563044D01*
X135802580Y-91596152D01*
X135845837Y-91614070D01*
X135892659Y-91614070D01*
X135935916Y-91596152D01*
X135969024Y-91563044D01*
X135986942Y-91519787D01*
X135989248Y-91496376D01*
X135989248Y-90296376D01*
X136320677Y-90296376D01*
X136320677Y-91496376D01*
X136322983Y-91519787D01*
X136340901Y-91563044D01*
X136374009Y-91596152D01*
X136417266Y-91614070D01*
X136464088Y-91614070D01*
X136507345Y-91596152D01*
X136540453Y-91563044D01*
X136558371Y-91519787D01*
X136560677Y-91496376D01*
X136560677Y-90748243D01*
X137022202Y-91555912D01*
X137025704Y-91560846D01*
X137026615Y-91563044D01*
X137028853Y-91565282D01*
X137035819Y-91575095D01*
X137048439Y-91584868D01*
X137059723Y-91596152D01*
X137066789Y-91599079D01*
X137072838Y-91603763D01*
X137088232Y-91607961D01*
X137102980Y-91614070D01*
X137110632Y-91614070D01*
X137118010Y-91616082D01*
X137133838Y-91614070D01*
X137149802Y-91614070D01*
X137156869Y-91611142D01*
X137164457Y-91610178D01*
X137178314Y-91602259D01*
X137193059Y-91596152D01*
X137198467Y-91590743D01*
X137205110Y-91586948D01*
X137214883Y-91574327D01*
X137226167Y-91563044D01*
X137229094Y-91555977D01*
X137233778Y-91549929D01*
X137237976Y-91534534D01*
X137244085Y-91519787D01*
X137245264Y-91507808D01*
X137246097Y-91504757D01*
X137245797Y-91502401D01*
X137246391Y-91496376D01*
X137246391Y-90296376D01*
X137244085Y-90272965D01*
X137226167Y-90229708D01*
X137193059Y-90196600D01*
X137149802Y-90178682D01*
X137102980Y-90178682D01*
X137059723Y-90196600D01*
X137026615Y-90229708D01*
X137008697Y-90272965D01*
X137006391Y-90296376D01*
X137006391Y-91044508D01*
X136544866Y-90236839D01*
X136541362Y-90231903D01*
X136540453Y-90229708D01*
X136538215Y-90227470D01*
X136531249Y-90217657D01*
X136518628Y-90207883D01*
X136507345Y-90196600D01*
X136500278Y-90193672D01*
X136494230Y-90188989D01*
X136478835Y-90184790D01*
X136464088Y-90178682D01*
X136456436Y-90178682D01*
X136449058Y-90176670D01*
X136433230Y-90178682D01*
X136417266Y-90178682D01*
X136410198Y-90181609D01*
X136402611Y-90182574D01*
X136388753Y-90190492D01*
X136374009Y-90196600D01*
X136368600Y-90202008D01*
X136361958Y-90205804D01*
X136352184Y-90218424D01*
X136340901Y-90229708D01*
X136337973Y-90236774D01*
X136333290Y-90242823D01*
X136329091Y-90258217D01*
X136322983Y-90272965D01*
X136321803Y-90284943D01*
X136320971Y-90287995D01*
X136321270Y-90290350D01*
X136320677Y-90296376D01*
X135989248Y-90296376D01*
X135986942Y-90272965D01*
X135969024Y-90229708D01*
X135935916Y-90196600D01*
X135892659Y-90178682D01*
X135845837Y-90178682D01*
X135802580Y-90196600D01*
X135769472Y-90229708D01*
X135751554Y-90272965D01*
X135749248Y-90296376D01*
X133867525Y-90296376D01*
X133839815Y-90268666D01*
X133830612Y-90261114D01*
X133828536Y-90258720D01*
X133824924Y-90256446D01*
X133821630Y-90253743D01*
X133818704Y-90252531D01*
X133808628Y-90246188D01*
X133694343Y-90189045D01*
X133672372Y-90180638D01*
X133668072Y-90180332D01*
X133664088Y-90178682D01*
X133640677Y-90176376D01*
X133183534Y-90176376D01*
X133160123Y-90178682D01*
X133116866Y-90196600D01*
X133083758Y-90229708D01*
X133065840Y-90272965D01*
X133063534Y-90296376D01*
X132845588Y-90296376D01*
X132838895Y-90254631D01*
X132814356Y-90214755D01*
X132776426Y-90187305D01*
X132730877Y-90176460D01*
X132684646Y-90183872D01*
X132644770Y-90208411D01*
X132617320Y-90246341D01*
X132609654Y-90268581D01*
X132434089Y-91005951D01*
X132328053Y-90608315D01*
X132325996Y-90602829D01*
X132325690Y-90600526D01*
X132324106Y-90597790D01*
X132319793Y-90586288D01*
X132310166Y-90573711D01*
X132302231Y-90560005D01*
X132296057Y-90555279D01*
X132291334Y-90549109D01*
X132277632Y-90541176D01*
X132265051Y-90531546D01*
X132257538Y-90529542D01*
X132250813Y-90525649D01*
X132235114Y-90523563D01*
X132219810Y-90519482D01*
X132212105Y-90520505D01*
X132204400Y-90519482D01*
X132189095Y-90523563D01*
X132173397Y-90525649D01*
X132166671Y-90529542D01*
X132159159Y-90531546D01*
X132146582Y-90541172D01*
X132132876Y-90549108D01*
X132128150Y-90555281D01*
X132121980Y-90560005D01*
X132114047Y-90573706D01*
X132104417Y-90586288D01*
X132100102Y-90597792D01*
X132098520Y-90600526D01*
X132098214Y-90602828D01*
X132096157Y-90608314D01*
X131990119Y-91005951D01*
X131814556Y-90268582D01*
X131806890Y-90246341D01*
X131779440Y-90208411D01*
X131739564Y-90183872D01*
X131693333Y-90176460D01*
X131647784Y-90187305D01*
X131609854Y-90214755D01*
X131585315Y-90254631D01*
X131577903Y-90300862D01*
X131300582Y-90300862D01*
X131268386Y-90268666D01*
X131259183Y-90261114D01*
X131257107Y-90258720D01*
X131253495Y-90256446D01*
X131250201Y-90253743D01*
X131247275Y-90252531D01*
X131237199Y-90246188D01*
X131122914Y-90189045D01*
X131100943Y-90180638D01*
X131096643Y-90180332D01*
X131092659Y-90178682D01*
X131069248Y-90176376D01*
X130612105Y-90176376D01*
X130588694Y-90178682D01*
X130545437Y-90196600D01*
X130512329Y-90229708D01*
X130494411Y-90272965D01*
X130492105Y-90296376D01*
X130358772Y-90296376D01*
X130358772Y-90043043D01*
X137379724Y-90043043D01*
X137379724Y-91749680D01*
G37*
D12*
X153174819Y-120052380D02*
X153174819Y-120623808D01*
X153174819Y-120338094D02*
X152174819Y-120338094D01*
X152174819Y-120338094D02*
X152317676Y-120433332D01*
X152317676Y-120433332D02*
X152412914Y-120528570D01*
X152412914Y-120528570D02*
X152460533Y-120623808D01*
X152174819Y-119433332D02*
X152174819Y-119338094D01*
X152174819Y-119338094D02*
X152222438Y-119242856D01*
X152222438Y-119242856D02*
X152270057Y-119195237D01*
X152270057Y-119195237D02*
X152365295Y-119147618D01*
X152365295Y-119147618D02*
X152555771Y-119099999D01*
X152555771Y-119099999D02*
X152793866Y-119099999D01*
X152793866Y-119099999D02*
X152984342Y-119147618D01*
X152984342Y-119147618D02*
X153079580Y-119195237D01*
X153079580Y-119195237D02*
X153127200Y-119242856D01*
X153127200Y-119242856D02*
X153174819Y-119338094D01*
X153174819Y-119338094D02*
X153174819Y-119433332D01*
X153174819Y-119433332D02*
X153127200Y-119528570D01*
X153127200Y-119528570D02*
X153079580Y-119576189D01*
X153079580Y-119576189D02*
X152984342Y-119623808D01*
X152984342Y-119623808D02*
X152793866Y-119671427D01*
X152793866Y-119671427D02*
X152555771Y-119671427D01*
X152555771Y-119671427D02*
X152365295Y-119623808D01*
X152365295Y-119623808D02*
X152270057Y-119576189D01*
X152270057Y-119576189D02*
X152222438Y-119528570D01*
X152222438Y-119528570D02*
X152174819Y-119433332D01*
X153174819Y-118671427D02*
X152174819Y-118671427D01*
X152793866Y-118576189D02*
X153174819Y-118290475D01*
X152508152Y-118290475D02*
X152889104Y-118671427D01*
X153174819Y-117909522D02*
X153174819Y-117671427D01*
X153174819Y-117671427D02*
X152984342Y-117671427D01*
X152984342Y-117671427D02*
X152936723Y-117766665D01*
X152936723Y-117766665D02*
X152841485Y-117861903D01*
X152841485Y-117861903D02*
X152698628Y-117909522D01*
X152698628Y-117909522D02*
X152460533Y-117909522D01*
X152460533Y-117909522D02*
X152317676Y-117861903D01*
X152317676Y-117861903D02*
X152222438Y-117766665D01*
X152222438Y-117766665D02*
X152174819Y-117623808D01*
X152174819Y-117623808D02*
X152174819Y-117433332D01*
X152174819Y-117433332D02*
X152222438Y-117290475D01*
X152222438Y-117290475D02*
X152317676Y-117195237D01*
X152317676Y-117195237D02*
X152460533Y-117147618D01*
X152460533Y-117147618D02*
X152698628Y-117147618D01*
X152698628Y-117147618D02*
X152841485Y-117195237D01*
X152841485Y-117195237D02*
X152936723Y-117290475D01*
X152936723Y-117290475D02*
X152984342Y-117385713D01*
X152984342Y-117385713D02*
X153174819Y-117385713D01*
X153174819Y-117385713D02*
X153174819Y-117147618D01*
D11*
X160802238Y-108320050D02*
X158802238Y-108320050D01*
X158802238Y-108320050D02*
X158802238Y-107558145D01*
X158802238Y-107558145D02*
X158897476Y-107367669D01*
X158897476Y-107367669D02*
X158992714Y-107272431D01*
X158992714Y-107272431D02*
X159183190Y-107177193D01*
X159183190Y-107177193D02*
X159468904Y-107177193D01*
X159468904Y-107177193D02*
X159659380Y-107272431D01*
X159659380Y-107272431D02*
X159754619Y-107367669D01*
X159754619Y-107367669D02*
X159849857Y-107558145D01*
X159849857Y-107558145D02*
X159849857Y-108320050D01*
X159754619Y-105653383D02*
X159849857Y-105367669D01*
X159849857Y-105367669D02*
X159945095Y-105272431D01*
X159945095Y-105272431D02*
X160135571Y-105177193D01*
X160135571Y-105177193D02*
X160421285Y-105177193D01*
X160421285Y-105177193D02*
X160611761Y-105272431D01*
X160611761Y-105272431D02*
X160707000Y-105367669D01*
X160707000Y-105367669D02*
X160802238Y-105558145D01*
X160802238Y-105558145D02*
X160802238Y-106320050D01*
X160802238Y-106320050D02*
X158802238Y-106320050D01*
X158802238Y-106320050D02*
X158802238Y-105653383D01*
X158802238Y-105653383D02*
X158897476Y-105462907D01*
X158897476Y-105462907D02*
X158992714Y-105367669D01*
X158992714Y-105367669D02*
X159183190Y-105272431D01*
X159183190Y-105272431D02*
X159373666Y-105272431D01*
X159373666Y-105272431D02*
X159564142Y-105367669D01*
X159564142Y-105367669D02*
X159659380Y-105462907D01*
X159659380Y-105462907D02*
X159754619Y-105653383D01*
X159754619Y-105653383D02*
X159754619Y-106320050D01*
X160802238Y-103272431D02*
X160802238Y-104415288D01*
X160802238Y-103843860D02*
X158802238Y-103843860D01*
X158802238Y-103843860D02*
X159087952Y-104034336D01*
X159087952Y-104034336D02*
X159278428Y-104224812D01*
X159278428Y-104224812D02*
X159373666Y-104415288D01*
D13*
G36*
X167109798Y-127299709D02*
G01*
X162260275Y-127299709D01*
X162260275Y-125846376D01*
X162393608Y-125846376D01*
X162393608Y-127046376D01*
X162395914Y-127069787D01*
X162413832Y-127113044D01*
X162446940Y-127146152D01*
X162490197Y-127164070D01*
X162537019Y-127164070D01*
X162580276Y-127146152D01*
X162613384Y-127113044D01*
X162631302Y-127069787D01*
X162633608Y-127046376D01*
X162633608Y-126387284D01*
X162804866Y-126754266D01*
X162809947Y-126762842D01*
X162811001Y-126765741D01*
X162812878Y-126767791D01*
X162816856Y-126774505D01*
X162830305Y-126786821D01*
X162842622Y-126800271D01*
X162847455Y-126802526D01*
X162851386Y-126806126D01*
X162868525Y-126812358D01*
X162885052Y-126820071D01*
X162890376Y-126820305D01*
X162895389Y-126822128D01*
X162913619Y-126821326D01*
X162931828Y-126822127D01*
X162936834Y-126820306D01*
X162942165Y-126820072D01*
X162958701Y-126812354D01*
X162975830Y-126806126D01*
X162979760Y-126802526D01*
X162984594Y-126800271D01*
X162996912Y-126786819D01*
X163010360Y-126774505D01*
X163014335Y-126767794D01*
X163016215Y-126765742D01*
X163017270Y-126762839D01*
X163022350Y-126754265D01*
X163193608Y-126387283D01*
X163193608Y-127046376D01*
X163195914Y-127069787D01*
X163213832Y-127113044D01*
X163246940Y-127146152D01*
X163290197Y-127164070D01*
X163337019Y-127164070D01*
X163380276Y-127146152D01*
X163413384Y-127113044D01*
X163431302Y-127069787D01*
X163433608Y-127046376D01*
X163433608Y-125846376D01*
X163765037Y-125846376D01*
X163765037Y-127046376D01*
X163767343Y-127069787D01*
X163785261Y-127113044D01*
X163818369Y-127146152D01*
X163861626Y-127164070D01*
X163885037Y-127166376D01*
X164456465Y-127166376D01*
X164479876Y-127164070D01*
X164523133Y-127146152D01*
X164556241Y-127113044D01*
X164574159Y-127069787D01*
X164574159Y-127022965D01*
X164556241Y-126979708D01*
X164523133Y-126946600D01*
X164479876Y-126928682D01*
X164456465Y-126926376D01*
X164005037Y-126926376D01*
X164005037Y-126537805D01*
X164285037Y-126537805D01*
X164308448Y-126535499D01*
X164351705Y-126517581D01*
X164384813Y-126484473D01*
X164402731Y-126441216D01*
X164402731Y-126394394D01*
X164388758Y-126360662D01*
X164793608Y-126360662D01*
X164793608Y-126532091D01*
X164794010Y-126536175D01*
X164793750Y-126537924D01*
X164795045Y-126546686D01*
X164795914Y-126555502D01*
X164796590Y-126557135D01*
X164797191Y-126561195D01*
X164854334Y-126789767D01*
X164854951Y-126791496D01*
X164855013Y-126792357D01*
X164858734Y-126802082D01*
X164862249Y-126811919D01*
X164862764Y-126812614D01*
X164863420Y-126814328D01*
X164920563Y-126928614D01*
X164926903Y-126938686D01*
X164928117Y-126941616D01*
X164930823Y-126944914D01*
X164933095Y-126948522D01*
X164935488Y-126950597D01*
X164943041Y-126959800D01*
X165057326Y-127074086D01*
X165075510Y-127089010D01*
X165079495Y-127090661D01*
X165082752Y-127093485D01*
X165104232Y-127103076D01*
X165275662Y-127160218D01*
X165287270Y-127162857D01*
X165290197Y-127164070D01*
X165294439Y-127164487D01*
X165298600Y-127165434D01*
X165301762Y-127165209D01*
X165313608Y-127166376D01*
X165427894Y-127166376D01*
X165439739Y-127165209D01*
X165442902Y-127165434D01*
X165447063Y-127164487D01*
X165451305Y-127164070D01*
X165454231Y-127162857D01*
X165465841Y-127160218D01*
X165637269Y-127103076D01*
X165658750Y-127093485D01*
X165662007Y-127090659D01*
X165665990Y-127089010D01*
X165684175Y-127074087D01*
X165741318Y-127016944D01*
X165756241Y-126998759D01*
X165774158Y-126955502D01*
X165774158Y-126908680D01*
X165756241Y-126865423D01*
X165723133Y-126832315D01*
X165679876Y-126814398D01*
X165633054Y-126814398D01*
X165589797Y-126832315D01*
X165571612Y-126847238D01*
X165534499Y-126884350D01*
X165408421Y-126926376D01*
X165333081Y-126926376D01*
X165207001Y-126884350D01*
X165126516Y-126803865D01*
X165083973Y-126718778D01*
X165033608Y-126517318D01*
X165033608Y-126375434D01*
X165083973Y-126173974D01*
X165126516Y-126088887D01*
X165207001Y-126008402D01*
X165333081Y-125966376D01*
X165408420Y-125966376D01*
X165534499Y-126008402D01*
X165571612Y-126045515D01*
X165589797Y-126060438D01*
X165633054Y-126078355D01*
X165679876Y-126078355D01*
X165723133Y-126060438D01*
X165756241Y-126027330D01*
X165774158Y-125984073D01*
X165774158Y-125937251D01*
X165756241Y-125893994D01*
X165741318Y-125875809D01*
X165711885Y-125846376D01*
X166050751Y-125846376D01*
X166050751Y-127046376D01*
X166053057Y-127069787D01*
X166070975Y-127113044D01*
X166104083Y-127146152D01*
X166147340Y-127164070D01*
X166194162Y-127164070D01*
X166237419Y-127146152D01*
X166270527Y-127113044D01*
X166288445Y-127069787D01*
X166290751Y-127046376D01*
X166290751Y-126537805D01*
X166736465Y-126537805D01*
X166736465Y-127046376D01*
X166738771Y-127069787D01*
X166756689Y-127113044D01*
X166789797Y-127146152D01*
X166833054Y-127164070D01*
X166879876Y-127164070D01*
X166923133Y-127146152D01*
X166956241Y-127113044D01*
X166974159Y-127069787D01*
X166976465Y-127046376D01*
X166976465Y-125846376D01*
X166974159Y-125822965D01*
X166956241Y-125779708D01*
X166923133Y-125746600D01*
X166879876Y-125728682D01*
X166833054Y-125728682D01*
X166789797Y-125746600D01*
X166756689Y-125779708D01*
X166738771Y-125822965D01*
X166736465Y-125846376D01*
X166736465Y-126297805D01*
X166290751Y-126297805D01*
X166290751Y-125846376D01*
X166288445Y-125822965D01*
X166270527Y-125779708D01*
X166237419Y-125746600D01*
X166194162Y-125728682D01*
X166147340Y-125728682D01*
X166104083Y-125746600D01*
X166070975Y-125779708D01*
X166053057Y-125822965D01*
X166050751Y-125846376D01*
X165711885Y-125846376D01*
X165684175Y-125818666D01*
X165665990Y-125803743D01*
X165662007Y-125802093D01*
X165658750Y-125799268D01*
X165637269Y-125789677D01*
X165465842Y-125732534D01*
X165454229Y-125729893D01*
X165451305Y-125728682D01*
X165447064Y-125728264D01*
X165442903Y-125727318D01*
X165439740Y-125727542D01*
X165427894Y-125726376D01*
X165313608Y-125726376D01*
X165301761Y-125727542D01*
X165298599Y-125727318D01*
X165294437Y-125728264D01*
X165290197Y-125728682D01*
X165287271Y-125729893D01*
X165275661Y-125732534D01*
X165104232Y-125789677D01*
X165082751Y-125799268D01*
X165079493Y-125802092D01*
X165075510Y-125803743D01*
X165057326Y-125818667D01*
X164943041Y-125932953D01*
X164935488Y-125942155D01*
X164933095Y-125944231D01*
X164930823Y-125947838D01*
X164928117Y-125951137D01*
X164926903Y-125954066D01*
X164920563Y-125964139D01*
X164863420Y-126078425D01*
X164862764Y-126080138D01*
X164862249Y-126080834D01*
X164858734Y-126090670D01*
X164855013Y-126100396D01*
X164854951Y-126101256D01*
X164854334Y-126102986D01*
X164797191Y-126331558D01*
X164796590Y-126335617D01*
X164795914Y-126337251D01*
X164795045Y-126346066D01*
X164793750Y-126354829D01*
X164794010Y-126356577D01*
X164793608Y-126360662D01*
X164388758Y-126360662D01*
X164384813Y-126351137D01*
X164351705Y-126318029D01*
X164308448Y-126300111D01*
X164285037Y-126297805D01*
X164005037Y-126297805D01*
X164005037Y-125966376D01*
X164456465Y-125966376D01*
X164479876Y-125964070D01*
X164523133Y-125946152D01*
X164556241Y-125913044D01*
X164574159Y-125869787D01*
X164574159Y-125822965D01*
X164556241Y-125779708D01*
X164523133Y-125746600D01*
X164479876Y-125728682D01*
X164456465Y-125726376D01*
X163885037Y-125726376D01*
X163861626Y-125728682D01*
X163818369Y-125746600D01*
X163785261Y-125779708D01*
X163767343Y-125822965D01*
X163765037Y-125846376D01*
X163433608Y-125846376D01*
X163432091Y-125830983D01*
X163432216Y-125828156D01*
X163431663Y-125826637D01*
X163431302Y-125822965D01*
X163423329Y-125803718D01*
X163416215Y-125784153D01*
X163414407Y-125782179D01*
X163413384Y-125779708D01*
X163398664Y-125764988D01*
X163384594Y-125749624D01*
X163382167Y-125748491D01*
X163380276Y-125746600D01*
X163361046Y-125738634D01*
X163342165Y-125729823D01*
X163339489Y-125729705D01*
X163337019Y-125728682D01*
X163316206Y-125728682D01*
X163295389Y-125727767D01*
X163292873Y-125728682D01*
X163290197Y-125728682D01*
X163270952Y-125736653D01*
X163251386Y-125743769D01*
X163249413Y-125745575D01*
X163246940Y-125746600D01*
X163232215Y-125761324D01*
X163216856Y-125775390D01*
X163214975Y-125778564D01*
X163213832Y-125779708D01*
X163212748Y-125782322D01*
X163204866Y-125795629D01*
X162913607Y-126419754D01*
X162622350Y-125795630D01*
X162614467Y-125782323D01*
X162613384Y-125779708D01*
X162612240Y-125778564D01*
X162610360Y-125775390D01*
X162595000Y-125761324D01*
X162580276Y-125746600D01*
X162577802Y-125745575D01*
X162575830Y-125743769D01*
X162556269Y-125736655D01*
X162537019Y-125728682D01*
X162534341Y-125728682D01*
X162531828Y-125727768D01*
X162511034Y-125728682D01*
X162490197Y-125728682D01*
X162487723Y-125729706D01*
X162485052Y-125729824D01*
X162466185Y-125738628D01*
X162446940Y-125746600D01*
X162445048Y-125748491D01*
X162442622Y-125749624D01*
X162428556Y-125764983D01*
X162413832Y-125779708D01*
X162412807Y-125782181D01*
X162411001Y-125784154D01*
X162403887Y-125803714D01*
X162395914Y-125822965D01*
X162395552Y-125826637D01*
X162395000Y-125828156D01*
X162395124Y-125830982D01*
X162393608Y-125846376D01*
X162260275Y-125846376D01*
X162260275Y-125593043D01*
X167109798Y-125593043D01*
X167109798Y-127299709D01*
G37*
D11*
X161032238Y-72242431D02*
X161032238Y-73385288D01*
X161032238Y-72813860D02*
X159032238Y-72813860D01*
X159032238Y-72813860D02*
X159317952Y-73004336D01*
X159317952Y-73004336D02*
X159508428Y-73194812D01*
X159508428Y-73194812D02*
X159603666Y-73385288D01*
D12*
X131550588Y-113387438D02*
X131455350Y-113339819D01*
X131455350Y-113339819D02*
X131312493Y-113339819D01*
X131312493Y-113339819D02*
X131169636Y-113387438D01*
X131169636Y-113387438D02*
X131074398Y-113482676D01*
X131074398Y-113482676D02*
X131026779Y-113577914D01*
X131026779Y-113577914D02*
X130979160Y-113768390D01*
X130979160Y-113768390D02*
X130979160Y-113911247D01*
X130979160Y-113911247D02*
X131026779Y-114101723D01*
X131026779Y-114101723D02*
X131074398Y-114196961D01*
X131074398Y-114196961D02*
X131169636Y-114292200D01*
X131169636Y-114292200D02*
X131312493Y-114339819D01*
X131312493Y-114339819D02*
X131407731Y-114339819D01*
X131407731Y-114339819D02*
X131550588Y-114292200D01*
X131550588Y-114292200D02*
X131598207Y-114244580D01*
X131598207Y-114244580D02*
X131598207Y-113911247D01*
X131598207Y-113911247D02*
X131407731Y-113911247D01*
X132026779Y-114339819D02*
X132026779Y-113339819D01*
X132026779Y-113339819D02*
X132598207Y-114339819D01*
X132598207Y-114339819D02*
X132598207Y-113339819D01*
X133074398Y-114339819D02*
X133074398Y-113339819D01*
X133074398Y-113339819D02*
X133312493Y-113339819D01*
X133312493Y-113339819D02*
X133455350Y-113387438D01*
X133455350Y-113387438D02*
X133550588Y-113482676D01*
X133550588Y-113482676D02*
X133598207Y-113577914D01*
X133598207Y-113577914D02*
X133645826Y-113768390D01*
X133645826Y-113768390D02*
X133645826Y-113911247D01*
X133645826Y-113911247D02*
X133598207Y-114101723D01*
X133598207Y-114101723D02*
X133550588Y-114196961D01*
X133550588Y-114196961D02*
X133455350Y-114292200D01*
X133455350Y-114292200D02*
X133312493Y-114339819D01*
X133312493Y-114339819D02*
X133074398Y-114339819D01*
X148457200Y-81683332D02*
X148504819Y-81540475D01*
X148504819Y-81540475D02*
X148504819Y-81302380D01*
X148504819Y-81302380D02*
X148457200Y-81207142D01*
X148457200Y-81207142D02*
X148409580Y-81159523D01*
X148409580Y-81159523D02*
X148314342Y-81111904D01*
X148314342Y-81111904D02*
X148219104Y-81111904D01*
X148219104Y-81111904D02*
X148123866Y-81159523D01*
X148123866Y-81159523D02*
X148076247Y-81207142D01*
X148076247Y-81207142D02*
X148028628Y-81302380D01*
X148028628Y-81302380D02*
X147981009Y-81492856D01*
X147981009Y-81492856D02*
X147933390Y-81588094D01*
X147933390Y-81588094D02*
X147885771Y-81635713D01*
X147885771Y-81635713D02*
X147790533Y-81683332D01*
X147790533Y-81683332D02*
X147695295Y-81683332D01*
X147695295Y-81683332D02*
X147600057Y-81635713D01*
X147600057Y-81635713D02*
X147552438Y-81588094D01*
X147552438Y-81588094D02*
X147504819Y-81492856D01*
X147504819Y-81492856D02*
X147504819Y-81254761D01*
X147504819Y-81254761D02*
X147552438Y-81111904D01*
X147504819Y-80778570D02*
X148504819Y-80540475D01*
X148504819Y-80540475D02*
X147790533Y-80349999D01*
X147790533Y-80349999D02*
X148504819Y-80159523D01*
X148504819Y-80159523D02*
X147504819Y-79921428D01*
X147600057Y-79588094D02*
X147552438Y-79540475D01*
X147552438Y-79540475D02*
X147504819Y-79445237D01*
X147504819Y-79445237D02*
X147504819Y-79207142D01*
X147504819Y-79207142D02*
X147552438Y-79111904D01*
X147552438Y-79111904D02*
X147600057Y-79064285D01*
X147600057Y-79064285D02*
X147695295Y-79016666D01*
X147695295Y-79016666D02*
X147790533Y-79016666D01*
X147790533Y-79016666D02*
X147933390Y-79064285D01*
X147933390Y-79064285D02*
X148504819Y-79635713D01*
X148504819Y-79635713D02*
X148504819Y-79016666D01*
X145674819Y-119095238D02*
X145198628Y-119428571D01*
X145674819Y-119666666D02*
X144674819Y-119666666D01*
X144674819Y-119666666D02*
X144674819Y-119285714D01*
X144674819Y-119285714D02*
X144722438Y-119190476D01*
X144722438Y-119190476D02*
X144770057Y-119142857D01*
X144770057Y-119142857D02*
X144865295Y-119095238D01*
X144865295Y-119095238D02*
X145008152Y-119095238D01*
X145008152Y-119095238D02*
X145103390Y-119142857D01*
X145103390Y-119142857D02*
X145151009Y-119190476D01*
X145151009Y-119190476D02*
X145198628Y-119285714D01*
X145198628Y-119285714D02*
X145198628Y-119666666D01*
X144674819Y-118809523D02*
X145674819Y-118476190D01*
X145674819Y-118476190D02*
X144674819Y-118142857D01*
X145674819Y-117285714D02*
X145674819Y-117857142D01*
X145674819Y-117571428D02*
X144674819Y-117571428D01*
X144674819Y-117571428D02*
X144817676Y-117666666D01*
X144817676Y-117666666D02*
X144912914Y-117761904D01*
X144912914Y-117761904D02*
X144960533Y-117857142D01*
X148457200Y-90359999D02*
X148504819Y-90217142D01*
X148504819Y-90217142D02*
X148504819Y-89979047D01*
X148504819Y-89979047D02*
X148457200Y-89883809D01*
X148457200Y-89883809D02*
X148409580Y-89836190D01*
X148409580Y-89836190D02*
X148314342Y-89788571D01*
X148314342Y-89788571D02*
X148219104Y-89788571D01*
X148219104Y-89788571D02*
X148123866Y-89836190D01*
X148123866Y-89836190D02*
X148076247Y-89883809D01*
X148076247Y-89883809D02*
X148028628Y-89979047D01*
X148028628Y-89979047D02*
X147981009Y-90169523D01*
X147981009Y-90169523D02*
X147933390Y-90264761D01*
X147933390Y-90264761D02*
X147885771Y-90312380D01*
X147885771Y-90312380D02*
X147790533Y-90359999D01*
X147790533Y-90359999D02*
X147695295Y-90359999D01*
X147695295Y-90359999D02*
X147600057Y-90312380D01*
X147600057Y-90312380D02*
X147552438Y-90264761D01*
X147552438Y-90264761D02*
X147504819Y-90169523D01*
X147504819Y-90169523D02*
X147504819Y-89931428D01*
X147504819Y-89931428D02*
X147552438Y-89788571D01*
X147504819Y-89455237D02*
X148504819Y-89217142D01*
X148504819Y-89217142D02*
X147790533Y-89026666D01*
X147790533Y-89026666D02*
X148504819Y-88836190D01*
X148504819Y-88836190D02*
X147504819Y-88598095D01*
X147504819Y-88312380D02*
X147504819Y-87693333D01*
X147504819Y-87693333D02*
X147885771Y-88026666D01*
X147885771Y-88026666D02*
X147885771Y-87883809D01*
X147885771Y-87883809D02*
X147933390Y-87788571D01*
X147933390Y-87788571D02*
X147981009Y-87740952D01*
X147981009Y-87740952D02*
X148076247Y-87693333D01*
X148076247Y-87693333D02*
X148314342Y-87693333D01*
X148314342Y-87693333D02*
X148409580Y-87740952D01*
X148409580Y-87740952D02*
X148457200Y-87788571D01*
X148457200Y-87788571D02*
X148504819Y-87883809D01*
X148504819Y-87883809D02*
X148504819Y-88169523D01*
X148504819Y-88169523D02*
X148457200Y-88264761D01*
X148457200Y-88264761D02*
X148409580Y-88312380D01*
X137569700Y-96226546D02*
X137617319Y-96083689D01*
X137617319Y-96083689D02*
X137617319Y-95845594D01*
X137617319Y-95845594D02*
X137569700Y-95750356D01*
X137569700Y-95750356D02*
X137522080Y-95702737D01*
X137522080Y-95702737D02*
X137426842Y-95655118D01*
X137426842Y-95655118D02*
X137331604Y-95655118D01*
X137331604Y-95655118D02*
X137236366Y-95702737D01*
X137236366Y-95702737D02*
X137188747Y-95750356D01*
X137188747Y-95750356D02*
X137141128Y-95845594D01*
X137141128Y-95845594D02*
X137093509Y-96036070D01*
X137093509Y-96036070D02*
X137045890Y-96131308D01*
X137045890Y-96131308D02*
X136998271Y-96178927D01*
X136998271Y-96178927D02*
X136903033Y-96226546D01*
X136903033Y-96226546D02*
X136807795Y-96226546D01*
X136807795Y-96226546D02*
X136712557Y-96178927D01*
X136712557Y-96178927D02*
X136664938Y-96131308D01*
X136664938Y-96131308D02*
X136617319Y-96036070D01*
X136617319Y-96036070D02*
X136617319Y-95797975D01*
X136617319Y-95797975D02*
X136664938Y-95655118D01*
X136617319Y-95321784D02*
X137617319Y-95083689D01*
X137617319Y-95083689D02*
X136903033Y-94893213D01*
X136903033Y-94893213D02*
X137617319Y-94702737D01*
X137617319Y-94702737D02*
X136617319Y-94464642D01*
X137617319Y-93559880D02*
X137617319Y-94131308D01*
X137617319Y-93845594D02*
X136617319Y-93845594D01*
X136617319Y-93845594D02*
X136760176Y-93940832D01*
X136760176Y-93940832D02*
X136855414Y-94036070D01*
X136855414Y-94036070D02*
X136903033Y-94131308D01*
X148457200Y-99036665D02*
X148504819Y-98893808D01*
X148504819Y-98893808D02*
X148504819Y-98655713D01*
X148504819Y-98655713D02*
X148457200Y-98560475D01*
X148457200Y-98560475D02*
X148409580Y-98512856D01*
X148409580Y-98512856D02*
X148314342Y-98465237D01*
X148314342Y-98465237D02*
X148219104Y-98465237D01*
X148219104Y-98465237D02*
X148123866Y-98512856D01*
X148123866Y-98512856D02*
X148076247Y-98560475D01*
X148076247Y-98560475D02*
X148028628Y-98655713D01*
X148028628Y-98655713D02*
X147981009Y-98846189D01*
X147981009Y-98846189D02*
X147933390Y-98941427D01*
X147933390Y-98941427D02*
X147885771Y-98989046D01*
X147885771Y-98989046D02*
X147790533Y-99036665D01*
X147790533Y-99036665D02*
X147695295Y-99036665D01*
X147695295Y-99036665D02*
X147600057Y-98989046D01*
X147600057Y-98989046D02*
X147552438Y-98941427D01*
X147552438Y-98941427D02*
X147504819Y-98846189D01*
X147504819Y-98846189D02*
X147504819Y-98608094D01*
X147504819Y-98608094D02*
X147552438Y-98465237D01*
X147504819Y-98131903D02*
X148504819Y-97893808D01*
X148504819Y-97893808D02*
X147790533Y-97703332D01*
X147790533Y-97703332D02*
X148504819Y-97512856D01*
X148504819Y-97512856D02*
X147504819Y-97274761D01*
X147838152Y-96465237D02*
X148504819Y-96465237D01*
X147457200Y-96703332D02*
X148171485Y-96941427D01*
X148171485Y-96941427D02*
X148171485Y-96322380D01*
X148457200Y-107713332D02*
X148504819Y-107570475D01*
X148504819Y-107570475D02*
X148504819Y-107332380D01*
X148504819Y-107332380D02*
X148457200Y-107237142D01*
X148457200Y-107237142D02*
X148409580Y-107189523D01*
X148409580Y-107189523D02*
X148314342Y-107141904D01*
X148314342Y-107141904D02*
X148219104Y-107141904D01*
X148219104Y-107141904D02*
X148123866Y-107189523D01*
X148123866Y-107189523D02*
X148076247Y-107237142D01*
X148076247Y-107237142D02*
X148028628Y-107332380D01*
X148028628Y-107332380D02*
X147981009Y-107522856D01*
X147981009Y-107522856D02*
X147933390Y-107618094D01*
X147933390Y-107618094D02*
X147885771Y-107665713D01*
X147885771Y-107665713D02*
X147790533Y-107713332D01*
X147790533Y-107713332D02*
X147695295Y-107713332D01*
X147695295Y-107713332D02*
X147600057Y-107665713D01*
X147600057Y-107665713D02*
X147552438Y-107618094D01*
X147552438Y-107618094D02*
X147504819Y-107522856D01*
X147504819Y-107522856D02*
X147504819Y-107284761D01*
X147504819Y-107284761D02*
X147552438Y-107141904D01*
X147504819Y-106808570D02*
X148504819Y-106570475D01*
X148504819Y-106570475D02*
X147790533Y-106379999D01*
X147790533Y-106379999D02*
X148504819Y-106189523D01*
X148504819Y-106189523D02*
X147504819Y-105951428D01*
X147504819Y-105094285D02*
X147504819Y-105570475D01*
X147504819Y-105570475D02*
X147981009Y-105618094D01*
X147981009Y-105618094D02*
X147933390Y-105570475D01*
X147933390Y-105570475D02*
X147885771Y-105475237D01*
X147885771Y-105475237D02*
X147885771Y-105237142D01*
X147885771Y-105237142D02*
X147933390Y-105141904D01*
X147933390Y-105141904D02*
X147981009Y-105094285D01*
X147981009Y-105094285D02*
X148076247Y-105046666D01*
X148076247Y-105046666D02*
X148314342Y-105046666D01*
X148314342Y-105046666D02*
X148409580Y-105094285D01*
X148409580Y-105094285D02*
X148457200Y-105141904D01*
X148457200Y-105141904D02*
X148504819Y-105237142D01*
X148504819Y-105237142D02*
X148504819Y-105475237D01*
X148504819Y-105475237D02*
X148457200Y-105570475D01*
X148457200Y-105570475D02*
X148409580Y-105618094D01*
X140704819Y-73715238D02*
X140228628Y-74048571D01*
X140704819Y-74286666D02*
X139704819Y-74286666D01*
X139704819Y-74286666D02*
X139704819Y-73905714D01*
X139704819Y-73905714D02*
X139752438Y-73810476D01*
X139752438Y-73810476D02*
X139800057Y-73762857D01*
X139800057Y-73762857D02*
X139895295Y-73715238D01*
X139895295Y-73715238D02*
X140038152Y-73715238D01*
X140038152Y-73715238D02*
X140133390Y-73762857D01*
X140133390Y-73762857D02*
X140181009Y-73810476D01*
X140181009Y-73810476D02*
X140228628Y-73905714D01*
X140228628Y-73905714D02*
X140228628Y-74286666D01*
X140419104Y-73334285D02*
X140419104Y-72858095D01*
X140704819Y-73429523D02*
X139704819Y-73096190D01*
X139704819Y-73096190D02*
X140704819Y-72762857D01*
X140704819Y-71905714D02*
X140704819Y-72477142D01*
X140704819Y-72191428D02*
X139704819Y-72191428D01*
X139704819Y-72191428D02*
X139847676Y-72286666D01*
X139847676Y-72286666D02*
X139942914Y-72381904D01*
X139942914Y-72381904D02*
X139990533Y-72477142D01*
X148097200Y-70433332D02*
X148144819Y-70290475D01*
X148144819Y-70290475D02*
X148144819Y-70052380D01*
X148144819Y-70052380D02*
X148097200Y-69957142D01*
X148097200Y-69957142D02*
X148049580Y-69909523D01*
X148049580Y-69909523D02*
X147954342Y-69861904D01*
X147954342Y-69861904D02*
X147859104Y-69861904D01*
X147859104Y-69861904D02*
X147763866Y-69909523D01*
X147763866Y-69909523D02*
X147716247Y-69957142D01*
X147716247Y-69957142D02*
X147668628Y-70052380D01*
X147668628Y-70052380D02*
X147621009Y-70242856D01*
X147621009Y-70242856D02*
X147573390Y-70338094D01*
X147573390Y-70338094D02*
X147525771Y-70385713D01*
X147525771Y-70385713D02*
X147430533Y-70433332D01*
X147430533Y-70433332D02*
X147335295Y-70433332D01*
X147335295Y-70433332D02*
X147240057Y-70385713D01*
X147240057Y-70385713D02*
X147192438Y-70338094D01*
X147192438Y-70338094D02*
X147144819Y-70242856D01*
X147144819Y-70242856D02*
X147144819Y-70004761D01*
X147144819Y-70004761D02*
X147192438Y-69861904D01*
X147144819Y-69528570D02*
X148144819Y-69290475D01*
X148144819Y-69290475D02*
X147430533Y-69099999D01*
X147430533Y-69099999D02*
X148144819Y-68909523D01*
X148144819Y-68909523D02*
X147144819Y-68671428D01*
X147144819Y-67861904D02*
X147144819Y-68052380D01*
X147144819Y-68052380D02*
X147192438Y-68147618D01*
X147192438Y-68147618D02*
X147240057Y-68195237D01*
X147240057Y-68195237D02*
X147382914Y-68290475D01*
X147382914Y-68290475D02*
X147573390Y-68338094D01*
X147573390Y-68338094D02*
X147954342Y-68338094D01*
X147954342Y-68338094D02*
X148049580Y-68290475D01*
X148049580Y-68290475D02*
X148097200Y-68242856D01*
X148097200Y-68242856D02*
X148144819Y-68147618D01*
X148144819Y-68147618D02*
X148144819Y-67957142D01*
X148144819Y-67957142D02*
X148097200Y-67861904D01*
X148097200Y-67861904D02*
X148049580Y-67814285D01*
X148049580Y-67814285D02*
X147954342Y-67766666D01*
X147954342Y-67766666D02*
X147716247Y-67766666D01*
X147716247Y-67766666D02*
X147621009Y-67814285D01*
X147621009Y-67814285D02*
X147573390Y-67861904D01*
X147573390Y-67861904D02*
X147525771Y-67957142D01*
X147525771Y-67957142D02*
X147525771Y-68147618D01*
X147525771Y-68147618D02*
X147573390Y-68242856D01*
X147573390Y-68242856D02*
X147621009Y-68290475D01*
X147621009Y-68290475D02*
X147716247Y-68338094D01*
D16*
%TO.C,SW2*%
X149970000Y-79271714D02*
X149970000Y-80771714D01*
X151220000Y-83271714D02*
X155720000Y-83271714D01*
X155720000Y-76771714D02*
X151220000Y-76771714D01*
X156970000Y-80771714D02*
X156970000Y-79271714D01*
%TO.C,RV1*%
X144070000Y-110565714D02*
X151790000Y-110565714D01*
X144070000Y-126785714D02*
X144070000Y-110565714D01*
X151790000Y-110565714D02*
X151790000Y-126785714D01*
X151790000Y-122285714D02*
X151790000Y-115065714D01*
X151790000Y-126785714D02*
X144070000Y-126785714D01*
%TO.C,SW3*%
X149970000Y-88022714D02*
X149970000Y-89522714D01*
X151220000Y-92022714D02*
X155720000Y-92022714D01*
X155720000Y-85522714D02*
X151220000Y-85522714D01*
X156970000Y-89522714D02*
X156970000Y-88022714D01*
%TO.C,SW1*%
X137922500Y-100083214D02*
X137922500Y-98700214D01*
X137922500Y-100083214D02*
X139305500Y-100083214D01*
X138162500Y-89943214D02*
X143002500Y-89943214D01*
X138162500Y-99843214D02*
X138162500Y-89943214D01*
X138162500Y-99843214D02*
X143002500Y-99843214D01*
X139947500Y-95569881D02*
X141217500Y-95569881D01*
X143002500Y-99843214D02*
X143002500Y-89943214D01*
X139947500Y-96923214D02*
X141217500Y-96923214D01*
X141217500Y-92863214D01*
X139947500Y-92863214D01*
X139947500Y-96923214D01*
X139947500Y-96923214D02*
X141217500Y-96923214D01*
X141217500Y-95569881D01*
X139947500Y-95569881D01*
X139947500Y-96923214D01*
G36*
X139947500Y-96923214D02*
G01*
X141217500Y-96923214D01*
X141217500Y-95569881D01*
X139947500Y-95569881D01*
X139947500Y-96923214D01*
G37*
%TO.C,SW4*%
X149970000Y-96773714D02*
X149970000Y-98273714D01*
X151220000Y-100773714D02*
X155720000Y-100773714D01*
X155720000Y-94273714D02*
X151220000Y-94273714D01*
X156970000Y-98273714D02*
X156970000Y-96773714D01*
%TO.C,SW5*%
X149970000Y-105524714D02*
X149970000Y-107024714D01*
X151220000Y-109524714D02*
X155720000Y-109524714D01*
X155720000Y-103024714D02*
X151220000Y-103024714D01*
X156970000Y-107024714D02*
X156970000Y-105524714D01*
%TO.C,RA1*%
X143910000Y-65385714D02*
X141290000Y-65385714D01*
X143910000Y-62765714D02*
X141290000Y-62765714D01*
X141290000Y-83245714D01*
X143910000Y-83245714D01*
X143910000Y-62765714D01*
%TO.C,SW6*%
X148550000Y-75400000D02*
X148550000Y-62940000D01*
X154176667Y-65995000D02*
X154176667Y-64725000D01*
X154176667Y-68535000D02*
X154176667Y-67265000D01*
X154176667Y-71075000D02*
X154176667Y-69805000D01*
X154176667Y-73615000D02*
X154176667Y-72345000D01*
X158450000Y-62940000D02*
X148550000Y-62940000D01*
X158450000Y-75400000D02*
X148550000Y-75400000D01*
X158450000Y-75400000D02*
X158450000Y-62940000D01*
X158690000Y-75640000D02*
X157307000Y-75640000D01*
X158690000Y-75640000D02*
X158690000Y-74257000D01*
X155530000Y-65995000D02*
X151470000Y-65995000D01*
X151470000Y-64725000D01*
X155530000Y-64725000D01*
X155530000Y-65995000D01*
X155530000Y-65995000D02*
X154176667Y-65995000D01*
X154176667Y-64725000D01*
X155530000Y-64725000D01*
X155530000Y-65995000D01*
G36*
X155530000Y-65995000D02*
G01*
X154176667Y-65995000D01*
X154176667Y-64725000D01*
X155530000Y-64725000D01*
X155530000Y-65995000D01*
G37*
X155530000Y-68535000D02*
X151470000Y-68535000D01*
X151470000Y-67265000D01*
X155530000Y-67265000D01*
X155530000Y-68535000D01*
X155530000Y-68535000D02*
X154176667Y-68535000D01*
X154176667Y-67265000D01*
X155530000Y-67265000D01*
X155530000Y-68535000D01*
G36*
X155530000Y-68535000D02*
G01*
X154176667Y-68535000D01*
X154176667Y-67265000D01*
X155530000Y-67265000D01*
X155530000Y-68535000D01*
G37*
X155530000Y-71075000D02*
X151470000Y-71075000D01*
X151470000Y-69805000D01*
X155530000Y-69805000D01*
X155530000Y-71075000D01*
X155530000Y-71075000D02*
X154176667Y-71075000D01*
X154176667Y-69805000D01*
X155530000Y-69805000D01*
X155530000Y-71075000D01*
G36*
X155530000Y-71075000D02*
G01*
X154176667Y-71075000D01*
X154176667Y-69805000D01*
X155530000Y-69805000D01*
X155530000Y-71075000D01*
G37*
X155530000Y-73615000D02*
X151470000Y-73615000D01*
X151470000Y-72345000D01*
X155530000Y-72345000D01*
X155530000Y-73615000D01*
X155530000Y-73615000D02*
X154176667Y-73615000D01*
X154176667Y-72345000D01*
X155530000Y-72345000D01*
X155530000Y-73615000D01*
G36*
X155530000Y-73615000D02*
G01*
X154176667Y-73615000D01*
X154176667Y-72345000D01*
X155530000Y-72345000D01*
X155530000Y-73615000D01*
G37*
D17*
%TO.C,REF\u002A\u002A*%
G36*
X138681707Y-124850000D02*
G01*
X138681707Y-126648968D01*
X138514915Y-126648968D01*
X138348124Y-126648968D01*
X138348124Y-124850000D01*
X138348124Y-123051032D01*
X138514915Y-123051032D01*
X138681707Y-123051032D01*
X138681707Y-124850000D01*
G37*
G36*
X142732276Y-123118761D02*
G01*
X142753185Y-123144756D01*
X142776366Y-123185015D01*
X142803471Y-123243913D01*
X142836149Y-123325826D01*
X142876052Y-123435130D01*
X142924830Y-123576203D01*
X142984135Y-123753420D01*
X143055617Y-123971158D01*
X143067083Y-124006331D01*
X143128463Y-124194618D01*
X143185169Y-124368321D01*
X143235517Y-124522299D01*
X143277823Y-124651411D01*
X143310401Y-124750516D01*
X143331567Y-124814472D01*
X143339612Y-124838086D01*
X143333700Y-124862660D01*
X143314478Y-124927408D01*
X143283556Y-125027243D01*
X143242540Y-125157080D01*
X143193038Y-125311831D01*
X143136657Y-125486411D01*
X143075003Y-125675733D01*
X143072314Y-125683959D01*
X142994601Y-125919762D01*
X142929349Y-126113520D01*
X142875229Y-126268804D01*
X142830913Y-126389184D01*
X142795071Y-126478231D01*
X142766376Y-126539516D01*
X142743499Y-126576611D01*
X142737678Y-126583443D01*
X142675793Y-126648968D01*
X141861991Y-126648968D01*
X140726405Y-126648968D01*
X139277392Y-126648968D01*
X138777017Y-126648968D01*
X138777017Y-124850000D01*
X138777017Y-123527580D01*
X139276240Y-123527580D01*
X139282773Y-123923882D01*
X139289305Y-124320185D01*
X139938978Y-124575540D01*
X140104218Y-124640680D01*
X140254621Y-124700338D01*
X140384589Y-124752264D01*
X140488521Y-124794207D01*
X140560817Y-124823918D01*
X140595879Y-124839146D01*
X140598253Y-124840498D01*
X140580723Y-124852167D01*
X140526086Y-124878194D01*
X140441536Y-124915382D01*
X140334267Y-124960534D01*
X140258337Y-124991597D01*
X140103223Y-125054496D01*
X139930265Y-125124799D01*
X139759273Y-125194445D01*
X139610056Y-125255372D01*
X139593105Y-125262308D01*
X139277392Y-125391522D01*
X139277392Y-125793885D01*
X139277392Y-126196248D01*
X139360788Y-126196248D01*
X139414704Y-126193205D01*
X139438281Y-126174796D01*
X139444051Y-126127094D01*
X139444184Y-126103578D01*
X139458675Y-126014660D01*
X139489698Y-125954657D01*
X139504625Y-125937423D01*
X139522000Y-125924053D01*
X139547703Y-125913969D01*
X139587613Y-125906598D01*
X139647610Y-125901363D01*
X139733572Y-125897688D01*
X139851379Y-125894997D01*
X140006910Y-125892716D01*
X140138994Y-125891084D01*
X140308191Y-125889619D01*
X140465264Y-125889366D01*
X140602762Y-125890247D01*
X140713229Y-125892189D01*
X140789213Y-125895115D01*
X140819449Y-125897976D01*
X140903060Y-125927087D01*
X140950802Y-125981147D01*
X140968634Y-126067831D01*
X140969137Y-126090726D01*
X140971095Y-126155938D01*
X140983528Y-126186565D01*
X141016269Y-126195675D01*
X141048561Y-126196248D01*
X141107633Y-126191726D01*
X141143356Y-126180745D01*
X141144439Y-126179794D01*
X141149622Y-126151521D01*
X141153316Y-126084029D01*
X141155311Y-125985736D01*
X141155398Y-125865060D01*
X141154367Y-125780685D01*
X141150792Y-125571053D01*
X141296493Y-125571053D01*
X141329589Y-125740697D01*
X141397098Y-125891522D01*
X141429285Y-125938591D01*
X141551968Y-126062567D01*
X141697891Y-126146678D01*
X141861991Y-126189399D01*
X142039204Y-126189203D01*
X142170722Y-126162025D01*
X142305528Y-126101422D01*
X142426069Y-126007252D01*
X142520821Y-125890537D01*
X142574341Y-125775931D01*
X142598331Y-125660948D01*
X142609758Y-125525716D01*
X142608026Y-125391087D01*
X142592537Y-125277914D01*
X142589017Y-125264177D01*
X142533447Y-125136098D01*
X142448438Y-125029926D01*
X142342800Y-124953259D01*
X142225339Y-124913693D01*
X142178377Y-124909960D01*
X142119696Y-124913158D01*
X142094571Y-124930389D01*
X142089038Y-124972058D01*
X142089024Y-124976546D01*
X142093992Y-125017911D01*
X142116823Y-125043656D01*
X142169408Y-125063694D01*
X142205048Y-125073260D01*
X142326606Y-125124831D01*
X142412765Y-125208283D01*
X142463760Y-125323852D01*
X142467217Y-125338462D01*
X142480243Y-125485629D01*
X142452178Y-125611609D01*
X142385645Y-125714190D01*
X142283266Y-125791160D01*
X142147665Y-125840305D01*
X141981464Y-125859413D01*
X141884124Y-125855557D01*
X141855489Y-125854423D01*
X141695804Y-125823608D01*
X141574308Y-125764400D01*
X141490726Y-125676538D01*
X141444785Y-125559765D01*
X141434860Y-125457493D01*
X141452442Y-125328391D01*
X141501769Y-125218498D01*
X141576793Y-125135308D01*
X141671468Y-125086318D01*
X141742344Y-125076360D01*
X141783241Y-125070413D01*
X141800100Y-125043210D01*
X141803095Y-124992131D01*
X141803095Y-124907901D01*
X141558865Y-124914692D01*
X141448915Y-124918285D01*
X141377747Y-124923168D01*
X141336495Y-124931534D01*
X141316294Y-124945574D01*
X141308279Y-124967481D01*
X141306766Y-124977027D01*
X141318655Y-125037656D01*
X141342065Y-125064135D01*
X141365553Y-125084719D01*
X141372900Y-125109511D01*
X141363886Y-125152138D01*
X141339508Y-125222849D01*
X141299303Y-125394474D01*
X141296493Y-125571053D01*
X141150792Y-125571053D01*
X141147842Y-125398030D01*
X141058489Y-125390635D01*
X140969137Y-125383240D01*
X140969137Y-125490199D01*
X140968724Y-125541650D01*
X140964157Y-125582350D01*
X140950442Y-125613551D01*
X140922583Y-125636504D01*
X140875588Y-125652458D01*
X140804461Y-125662665D01*
X140704209Y-125668375D01*
X140569838Y-125670839D01*
X140396353Y-125671306D01*
X140246656Y-125671112D01*
X140055092Y-125670676D01*
X139906705Y-125669789D01*
X139797018Y-125668156D01*
X139721556Y-125665483D01*
X139675840Y-125661474D01*
X139655393Y-125655836D01*
X139655740Y-125648273D01*
X139672402Y-125638490D01*
X139682457Y-125633966D01*
X139725152Y-125616036D01*
X139805770Y-125582752D01*
X139918072Y-125536670D01*
X140055819Y-125480342D01*
X140212772Y-125416322D01*
X140382692Y-125347164D01*
X140444934Y-125321868D01*
X140614241Y-125252483D01*
X140769306Y-125187782D01*
X140904593Y-125130164D01*
X141014562Y-125082034D01*
X141093677Y-125045792D01*
X141136398Y-125023841D01*
X141142147Y-125019474D01*
X141152852Y-124979073D01*
X141154438Y-124916556D01*
X141154061Y-124910986D01*
X141147842Y-124829008D01*
X140373452Y-124517834D01*
X139599062Y-124206660D01*
X140251405Y-124200315D01*
X140469476Y-124198945D01*
X140642586Y-124199586D01*
X140773391Y-124202319D01*
X140864546Y-124207224D01*
X140918707Y-124214382D01*
X140936443Y-124221103D01*
X140957776Y-124263511D01*
X140968477Y-124338831D01*
X140969137Y-124365894D01*
X140969137Y-124483552D01*
X141058489Y-124476157D01*
X141147842Y-124468762D01*
X141147842Y-124183349D01*
X141297445Y-124183349D01*
X141330904Y-124348034D01*
X141396619Y-124498191D01*
X141491518Y-124626254D01*
X141612530Y-124724659D01*
X141718826Y-124774534D01*
X141884124Y-124809407D01*
X142048744Y-124805191D01*
X142204964Y-124765320D01*
X142345066Y-124693229D01*
X142461331Y-124592350D01*
X142546040Y-124466119D01*
X142574341Y-124393942D01*
X142598331Y-124278959D01*
X142609758Y-124143727D01*
X142608026Y-124009098D01*
X142592537Y-123895925D01*
X142589017Y-123882188D01*
X142533447Y-123754109D01*
X142448438Y-123647938D01*
X142342800Y-123571270D01*
X142225339Y-123531705D01*
X142178377Y-123527972D01*
X142119745Y-123531090D01*
X142094640Y-123548360D01*
X142089049Y-123590601D01*
X142089024Y-123596968D01*
X142094117Y-123642204D01*
X142118246Y-123666237D01*
X142174684Y-123680780D01*
X142186261Y-123682783D01*
X142303171Y-123724362D01*
X142393358Y-123801157D01*
X142453118Y-123906656D01*
X142478745Y-124034347D01*
X142466908Y-124175971D01*
X142419891Y-124289410D01*
X142334876Y-124377729D01*
X142215372Y-124439230D01*
X142064886Y-124472210D01*
X141886925Y-124474970D01*
X141855489Y-124472434D01*
X141695804Y-124441620D01*
X141574308Y-124382411D01*
X141490726Y-124294549D01*
X141444785Y-124177776D01*
X141434860Y-124075504D01*
X141452442Y-123946403D01*
X141501769Y-123836509D01*
X141576793Y-123753319D01*
X141671468Y-123704330D01*
X141742344Y-123694371D01*
X141783241Y-123688424D01*
X141800100Y-123661222D01*
X141803095Y-123610142D01*
X141803095Y-123525913D01*
X141558865Y-123532703D01*
X141448915Y-123536296D01*
X141377747Y-123541179D01*
X141336495Y-123549545D01*
X141316294Y-123563585D01*
X141308279Y-123585492D01*
X141306766Y-123595038D01*
X141318655Y-123655667D01*
X141342065Y-123682146D01*
X141365567Y-123702742D01*
X141372911Y-123727540D01*
X141363881Y-123770184D01*
X141339583Y-123840651D01*
X141299314Y-124011700D01*
X141297445Y-124183349D01*
X141147842Y-124183349D01*
X141147842Y-124004128D01*
X141147842Y-123539493D01*
X141058489Y-123532098D01*
X140969137Y-123524703D01*
X140969137Y-123631663D01*
X140968842Y-123682002D01*
X140964710Y-123722077D01*
X140951867Y-123753054D01*
X140925438Y-123776100D01*
X140880551Y-123792381D01*
X140812330Y-123803063D01*
X140715903Y-123809314D01*
X140586395Y-123812300D01*
X140418934Y-123813187D01*
X140210915Y-123813144D01*
X140033975Y-123812343D01*
X139871758Y-123810262D01*
X139730610Y-123807089D01*
X139616877Y-123803012D01*
X139536907Y-123798221D01*
X139497046Y-123792903D01*
X139494542Y-123791856D01*
X139473410Y-123757563D01*
X139456004Y-123693169D01*
X139449812Y-123649256D01*
X139441413Y-123577885D01*
X139427962Y-123541884D01*
X139400246Y-123529150D01*
X139357180Y-123527580D01*
X139276240Y-123527580D01*
X138777017Y-123527580D01*
X138777017Y-123051032D01*
X140720782Y-123051032D01*
X142664547Y-123051032D01*
X142732276Y-123118761D01*
G37*
%TD*%
M02*
