%TF.GenerationSoftware,KiCad,Pcbnew,9.0.1+1*%
%TF.CreationDate,2026-04-01T01:21:40+00:00*%
%TF.ProjectId,CSC202_DIPSW,43534332-3032-45f4-9449-5053572e6b69,rev?*%
%TF.SameCoordinates,Original*%
%TF.FileFunction,OtherDrawing,Comment*%
%FSLAX46Y46*%
G04 Gerber Fmt 4.6, Leading zero omitted, Abs format (unit mm)*
G04 Created by KiCad (PCBNEW 9.0.1+1) date 2026-04-01 01:21:40*
%MOMM*%
%LPD*%
G01*
G04 APERTURE LIST*
%ADD10C,0.150000*%
%ADD11C,0.100000*%
G04 APERTURE END LIST*
D10*
X117769279Y-134782319D02*
X117769279Y-133782319D01*
X117769279Y-133782319D02*
X118007374Y-133782319D01*
X118007374Y-133782319D02*
X118150231Y-133829938D01*
X118150231Y-133829938D02*
X118245469Y-133925176D01*
X118245469Y-133925176D02*
X118293088Y-134020414D01*
X118293088Y-134020414D02*
X118340707Y-134210890D01*
X118340707Y-134210890D02*
X118340707Y-134353747D01*
X118340707Y-134353747D02*
X118293088Y-134544223D01*
X118293088Y-134544223D02*
X118245469Y-134639461D01*
X118245469Y-134639461D02*
X118150231Y-134734700D01*
X118150231Y-134734700D02*
X118007374Y-134782319D01*
X118007374Y-134782319D02*
X117769279Y-134782319D01*
X118769279Y-134782319D02*
X118769279Y-133782319D01*
X119245469Y-134782319D02*
X119245469Y-133782319D01*
X119245469Y-133782319D02*
X119578802Y-134496604D01*
X119578802Y-134496604D02*
X119912135Y-133782319D01*
X119912135Y-133782319D02*
X119912135Y-134782319D01*
X120388326Y-134258509D02*
X120721659Y-134258509D01*
X120864516Y-134782319D02*
X120388326Y-134782319D01*
X120388326Y-134782319D02*
X120388326Y-133782319D01*
X120388326Y-133782319D02*
X120864516Y-133782319D01*
X121293088Y-134782319D02*
X121293088Y-133782319D01*
X121293088Y-133782319D02*
X121864516Y-134782319D01*
X121864516Y-134782319D02*
X121864516Y-133782319D01*
X122293088Y-134734700D02*
X122435945Y-134782319D01*
X122435945Y-134782319D02*
X122674040Y-134782319D01*
X122674040Y-134782319D02*
X122769278Y-134734700D01*
X122769278Y-134734700D02*
X122816897Y-134687080D01*
X122816897Y-134687080D02*
X122864516Y-134591842D01*
X122864516Y-134591842D02*
X122864516Y-134496604D01*
X122864516Y-134496604D02*
X122816897Y-134401366D01*
X122816897Y-134401366D02*
X122769278Y-134353747D01*
X122769278Y-134353747D02*
X122674040Y-134306128D01*
X122674040Y-134306128D02*
X122483564Y-134258509D01*
X122483564Y-134258509D02*
X122388326Y-134210890D01*
X122388326Y-134210890D02*
X122340707Y-134163271D01*
X122340707Y-134163271D02*
X122293088Y-134068033D01*
X122293088Y-134068033D02*
X122293088Y-133972795D01*
X122293088Y-133972795D02*
X122340707Y-133877557D01*
X122340707Y-133877557D02*
X122388326Y-133829938D01*
X122388326Y-133829938D02*
X122483564Y-133782319D01*
X122483564Y-133782319D02*
X122721659Y-133782319D01*
X122721659Y-133782319D02*
X122864516Y-133829938D01*
X123293088Y-134782319D02*
X123293088Y-133782319D01*
X123959754Y-133782319D02*
X124150230Y-133782319D01*
X124150230Y-133782319D02*
X124245468Y-133829938D01*
X124245468Y-133829938D02*
X124340706Y-133925176D01*
X124340706Y-133925176D02*
X124388325Y-134115652D01*
X124388325Y-134115652D02*
X124388325Y-134448985D01*
X124388325Y-134448985D02*
X124340706Y-134639461D01*
X124340706Y-134639461D02*
X124245468Y-134734700D01*
X124245468Y-134734700D02*
X124150230Y-134782319D01*
X124150230Y-134782319D02*
X123959754Y-134782319D01*
X123959754Y-134782319D02*
X123864516Y-134734700D01*
X123864516Y-134734700D02*
X123769278Y-134639461D01*
X123769278Y-134639461D02*
X123721659Y-134448985D01*
X123721659Y-134448985D02*
X123721659Y-134115652D01*
X123721659Y-134115652D02*
X123769278Y-133925176D01*
X123769278Y-133925176D02*
X123864516Y-133829938D01*
X123864516Y-133829938D02*
X123959754Y-133782319D01*
X124816897Y-134782319D02*
X124816897Y-133782319D01*
X124816897Y-133782319D02*
X125388325Y-134782319D01*
X125388325Y-134782319D02*
X125388325Y-133782319D01*
X125816897Y-134734700D02*
X125959754Y-134782319D01*
X125959754Y-134782319D02*
X126197849Y-134782319D01*
X126197849Y-134782319D02*
X126293087Y-134734700D01*
X126293087Y-134734700D02*
X126340706Y-134687080D01*
X126340706Y-134687080D02*
X126388325Y-134591842D01*
X126388325Y-134591842D02*
X126388325Y-134496604D01*
X126388325Y-134496604D02*
X126340706Y-134401366D01*
X126340706Y-134401366D02*
X126293087Y-134353747D01*
X126293087Y-134353747D02*
X126197849Y-134306128D01*
X126197849Y-134306128D02*
X126007373Y-134258509D01*
X126007373Y-134258509D02*
X125912135Y-134210890D01*
X125912135Y-134210890D02*
X125864516Y-134163271D01*
X125864516Y-134163271D02*
X125816897Y-134068033D01*
X125816897Y-134068033D02*
X125816897Y-133972795D01*
X125816897Y-133972795D02*
X125864516Y-133877557D01*
X125864516Y-133877557D02*
X125912135Y-133829938D01*
X125912135Y-133829938D02*
X126007373Y-133782319D01*
X126007373Y-133782319D02*
X126245468Y-133782319D01*
X126245468Y-133782319D02*
X126388325Y-133829938D01*
X127531183Y-134496604D02*
X128007373Y-134496604D01*
X127435945Y-134782319D02*
X127769278Y-133782319D01*
X127769278Y-133782319D02*
X128102611Y-134782319D01*
X129007373Y-134782319D02*
X128674040Y-134306128D01*
X128435945Y-134782319D02*
X128435945Y-133782319D01*
X128435945Y-133782319D02*
X128816897Y-133782319D01*
X128816897Y-133782319D02*
X128912135Y-133829938D01*
X128912135Y-133829938D02*
X128959754Y-133877557D01*
X128959754Y-133877557D02*
X129007373Y-133972795D01*
X129007373Y-133972795D02*
X129007373Y-134115652D01*
X129007373Y-134115652D02*
X128959754Y-134210890D01*
X128959754Y-134210890D02*
X128912135Y-134258509D01*
X128912135Y-134258509D02*
X128816897Y-134306128D01*
X128816897Y-134306128D02*
X128435945Y-134306128D01*
X129435945Y-134258509D02*
X129769278Y-134258509D01*
X129912135Y-134782319D02*
X129435945Y-134782319D01*
X129435945Y-134782319D02*
X129435945Y-133782319D01*
X129435945Y-133782319D02*
X129912135Y-133782319D01*
X131102612Y-134782319D02*
X131102612Y-133782319D01*
X131578802Y-134782319D02*
X131578802Y-133782319D01*
X131578802Y-133782319D02*
X132150230Y-134782319D01*
X132150230Y-134782319D02*
X132150230Y-133782319D01*
X133388326Y-134782319D02*
X133388326Y-133782319D01*
X133388326Y-133782319D02*
X133721659Y-134496604D01*
X133721659Y-134496604D02*
X134054992Y-133782319D01*
X134054992Y-133782319D02*
X134054992Y-134782319D01*
X134531183Y-134782319D02*
X134531183Y-133782319D01*
X135483563Y-134782319D02*
X135007373Y-134782319D01*
X135007373Y-134782319D02*
X135007373Y-133782319D01*
X136293087Y-134782319D02*
X135816897Y-134782319D01*
X135816897Y-134782319D02*
X135816897Y-133782319D01*
X136626421Y-134782319D02*
X136626421Y-133782319D01*
X137102611Y-134782319D02*
X137102611Y-133782319D01*
X137102611Y-133782319D02*
X137435944Y-134496604D01*
X137435944Y-134496604D02*
X137769277Y-133782319D01*
X137769277Y-133782319D02*
X137769277Y-134782319D01*
X138245468Y-134258509D02*
X138578801Y-134258509D01*
X138721658Y-134782319D02*
X138245468Y-134782319D01*
X138245468Y-134782319D02*
X138245468Y-133782319D01*
X138245468Y-133782319D02*
X138721658Y-133782319D01*
X139007373Y-133782319D02*
X139578801Y-133782319D01*
X139293087Y-134782319D02*
X139293087Y-133782319D01*
X139912135Y-134258509D02*
X140245468Y-134258509D01*
X140388325Y-134782319D02*
X139912135Y-134782319D01*
X139912135Y-134782319D02*
X139912135Y-133782319D01*
X139912135Y-133782319D02*
X140388325Y-133782319D01*
X141388325Y-134782319D02*
X141054992Y-134306128D01*
X140816897Y-134782319D02*
X140816897Y-133782319D01*
X140816897Y-133782319D02*
X141197849Y-133782319D01*
X141197849Y-133782319D02*
X141293087Y-133829938D01*
X141293087Y-133829938D02*
X141340706Y-133877557D01*
X141340706Y-133877557D02*
X141388325Y-133972795D01*
X141388325Y-133972795D02*
X141388325Y-134115652D01*
X141388325Y-134115652D02*
X141340706Y-134210890D01*
X141340706Y-134210890D02*
X141293087Y-134258509D01*
X141293087Y-134258509D02*
X141197849Y-134306128D01*
X141197849Y-134306128D02*
X140816897Y-134306128D01*
X141769278Y-134734700D02*
X141912135Y-134782319D01*
X141912135Y-134782319D02*
X142150230Y-134782319D01*
X142150230Y-134782319D02*
X142245468Y-134734700D01*
X142245468Y-134734700D02*
X142293087Y-134687080D01*
X142293087Y-134687080D02*
X142340706Y-134591842D01*
X142340706Y-134591842D02*
X142340706Y-134496604D01*
X142340706Y-134496604D02*
X142293087Y-134401366D01*
X142293087Y-134401366D02*
X142245468Y-134353747D01*
X142245468Y-134353747D02*
X142150230Y-134306128D01*
X142150230Y-134306128D02*
X141959754Y-134258509D01*
X141959754Y-134258509D02*
X141864516Y-134210890D01*
X141864516Y-134210890D02*
X141816897Y-134163271D01*
X141816897Y-134163271D02*
X141769278Y-134068033D01*
X141769278Y-134068033D02*
X141769278Y-133972795D01*
X141769278Y-133972795D02*
X141816897Y-133877557D01*
X141816897Y-133877557D02*
X141864516Y-133829938D01*
X141864516Y-133829938D02*
X141959754Y-133782319D01*
X141959754Y-133782319D02*
X142197849Y-133782319D01*
X142197849Y-133782319D02*
X142340706Y-133829938D01*
X117626422Y-135392263D02*
X118197850Y-135392263D01*
X117912136Y-136392263D02*
X117912136Y-135392263D01*
X118721660Y-135392263D02*
X118912136Y-135392263D01*
X118912136Y-135392263D02*
X119007374Y-135439882D01*
X119007374Y-135439882D02*
X119102612Y-135535120D01*
X119102612Y-135535120D02*
X119150231Y-135725596D01*
X119150231Y-135725596D02*
X119150231Y-136058929D01*
X119150231Y-136058929D02*
X119102612Y-136249405D01*
X119102612Y-136249405D02*
X119007374Y-136344644D01*
X119007374Y-136344644D02*
X118912136Y-136392263D01*
X118912136Y-136392263D02*
X118721660Y-136392263D01*
X118721660Y-136392263D02*
X118626422Y-136344644D01*
X118626422Y-136344644D02*
X118531184Y-136249405D01*
X118531184Y-136249405D02*
X118483565Y-136058929D01*
X118483565Y-136058929D02*
X118483565Y-135725596D01*
X118483565Y-135725596D02*
X118531184Y-135535120D01*
X118531184Y-135535120D02*
X118626422Y-135439882D01*
X118626422Y-135439882D02*
X118721660Y-135392263D01*
X120054993Y-136392263D02*
X119578803Y-136392263D01*
X119578803Y-136392263D02*
X119578803Y-135392263D01*
X120388327Y-135868453D02*
X120721660Y-135868453D01*
X120864517Y-136392263D02*
X120388327Y-136392263D01*
X120388327Y-136392263D02*
X120388327Y-135392263D01*
X120388327Y-135392263D02*
X120864517Y-135392263D01*
X121864517Y-136392263D02*
X121531184Y-135916072D01*
X121293089Y-136392263D02*
X121293089Y-135392263D01*
X121293089Y-135392263D02*
X121674041Y-135392263D01*
X121674041Y-135392263D02*
X121769279Y-135439882D01*
X121769279Y-135439882D02*
X121816898Y-135487501D01*
X121816898Y-135487501D02*
X121864517Y-135582739D01*
X121864517Y-135582739D02*
X121864517Y-135725596D01*
X121864517Y-135725596D02*
X121816898Y-135820834D01*
X121816898Y-135820834D02*
X121769279Y-135868453D01*
X121769279Y-135868453D02*
X121674041Y-135916072D01*
X121674041Y-135916072D02*
X121293089Y-135916072D01*
X122245470Y-136106548D02*
X122721660Y-136106548D01*
X122150232Y-136392263D02*
X122483565Y-135392263D01*
X122483565Y-135392263D02*
X122816898Y-136392263D01*
X123150232Y-136392263D02*
X123150232Y-135392263D01*
X123150232Y-135392263D02*
X123721660Y-136392263D01*
X123721660Y-136392263D02*
X123721660Y-135392263D01*
X124769279Y-136297024D02*
X124721660Y-136344644D01*
X124721660Y-136344644D02*
X124578803Y-136392263D01*
X124578803Y-136392263D02*
X124483565Y-136392263D01*
X124483565Y-136392263D02*
X124340708Y-136344644D01*
X124340708Y-136344644D02*
X124245470Y-136249405D01*
X124245470Y-136249405D02*
X124197851Y-136154167D01*
X124197851Y-136154167D02*
X124150232Y-135963691D01*
X124150232Y-135963691D02*
X124150232Y-135820834D01*
X124150232Y-135820834D02*
X124197851Y-135630358D01*
X124197851Y-135630358D02*
X124245470Y-135535120D01*
X124245470Y-135535120D02*
X124340708Y-135439882D01*
X124340708Y-135439882D02*
X124483565Y-135392263D01*
X124483565Y-135392263D02*
X124578803Y-135392263D01*
X124578803Y-135392263D02*
X124721660Y-135439882D01*
X124721660Y-135439882D02*
X124769279Y-135487501D01*
X125197851Y-135868453D02*
X125531184Y-135868453D01*
X125674041Y-136392263D02*
X125197851Y-136392263D01*
X125197851Y-136392263D02*
X125197851Y-135392263D01*
X125197851Y-135392263D02*
X125674041Y-135392263D01*
X126864518Y-135820834D02*
X127626423Y-135820834D01*
X127245470Y-136201786D02*
X127245470Y-135439882D01*
X127626423Y-136392263D02*
X126864518Y-136392263D01*
X128293089Y-135392263D02*
X128388327Y-135392263D01*
X128388327Y-135392263D02*
X128483565Y-135439882D01*
X128483565Y-135439882D02*
X128531184Y-135487501D01*
X128531184Y-135487501D02*
X128578803Y-135582739D01*
X128578803Y-135582739D02*
X128626422Y-135773215D01*
X128626422Y-135773215D02*
X128626422Y-136011310D01*
X128626422Y-136011310D02*
X128578803Y-136201786D01*
X128578803Y-136201786D02*
X128531184Y-136297024D01*
X128531184Y-136297024D02*
X128483565Y-136344644D01*
X128483565Y-136344644D02*
X128388327Y-136392263D01*
X128388327Y-136392263D02*
X128293089Y-136392263D01*
X128293089Y-136392263D02*
X128197851Y-136344644D01*
X128197851Y-136344644D02*
X128150232Y-136297024D01*
X128150232Y-136297024D02*
X128102613Y-136201786D01*
X128102613Y-136201786D02*
X128054994Y-136011310D01*
X128054994Y-136011310D02*
X128054994Y-135773215D01*
X128054994Y-135773215D02*
X128102613Y-135582739D01*
X128102613Y-135582739D02*
X128150232Y-135487501D01*
X128150232Y-135487501D02*
X128197851Y-135439882D01*
X128197851Y-135439882D02*
X128293089Y-135392263D01*
X129054994Y-136297024D02*
X129102613Y-136344644D01*
X129102613Y-136344644D02*
X129054994Y-136392263D01*
X129054994Y-136392263D02*
X129007375Y-136344644D01*
X129007375Y-136344644D02*
X129054994Y-136297024D01*
X129054994Y-136297024D02*
X129054994Y-136392263D01*
X130054993Y-136392263D02*
X129483565Y-136392263D01*
X129769279Y-136392263D02*
X129769279Y-135392263D01*
X129769279Y-135392263D02*
X129674041Y-135535120D01*
X129674041Y-135535120D02*
X129578803Y-135630358D01*
X129578803Y-135630358D02*
X129483565Y-135677977D01*
X131245470Y-136392263D02*
X131245470Y-135725596D01*
X131245470Y-135820834D02*
X131293089Y-135773215D01*
X131293089Y-135773215D02*
X131388327Y-135725596D01*
X131388327Y-135725596D02*
X131531184Y-135725596D01*
X131531184Y-135725596D02*
X131626422Y-135773215D01*
X131626422Y-135773215D02*
X131674041Y-135868453D01*
X131674041Y-135868453D02*
X131674041Y-136392263D01*
X131674041Y-135868453D02*
X131721660Y-135773215D01*
X131721660Y-135773215D02*
X131816898Y-135725596D01*
X131816898Y-135725596D02*
X131959755Y-135725596D01*
X131959755Y-135725596D02*
X132054994Y-135773215D01*
X132054994Y-135773215D02*
X132102613Y-135868453D01*
X132102613Y-135868453D02*
X132102613Y-136392263D01*
X132578803Y-136392263D02*
X132578803Y-135725596D01*
X132578803Y-135820834D02*
X132626422Y-135773215D01*
X132626422Y-135773215D02*
X132721660Y-135725596D01*
X132721660Y-135725596D02*
X132864517Y-135725596D01*
X132864517Y-135725596D02*
X132959755Y-135773215D01*
X132959755Y-135773215D02*
X133007374Y-135868453D01*
X133007374Y-135868453D02*
X133007374Y-136392263D01*
X133007374Y-135868453D02*
X133054993Y-135773215D01*
X133054993Y-135773215D02*
X133150231Y-135725596D01*
X133150231Y-135725596D02*
X133293088Y-135725596D01*
X133293088Y-135725596D02*
X133388327Y-135773215D01*
X133388327Y-135773215D02*
X133435946Y-135868453D01*
X133435946Y-135868453D02*
X133435946Y-136392263D01*
D11*
X116480000Y-132790000D02*
X143700000Y-132790000D01*
X143700000Y-137510000D01*
X116480000Y-137510000D01*
X116480000Y-132790000D01*
M02*
