%TF.GenerationSoftware,KiCad,Pcbnew,9.0.1+1*%
%TF.CreationDate,2026-04-07T17:51:04+00:00*%
%TF.ProjectId,CSC202_DIPSW,43534332-3032-45f4-9449-5053572e6b69,rev?*%
%TF.SameCoordinates,Original*%
%TF.FileFunction,AssemblyDrawing,Bot*%
%FSLAX46Y46*%
G04 Gerber Fmt 4.6, Leading zero omitted, Abs format (unit mm)*
G04 Created by KiCad (PCBNEW 9.0.1+1) date 2026-04-07 17:51:04*
%MOMM*%
%LPD*%
G01*
G04 APERTURE LIST*
%ADD10C,0.150000*%
%ADD11C,0.100000*%
G04 APERTURE END LIST*
D10*
X138664284Y-91255533D02*
X138664284Y-90255533D01*
X138664284Y-90255533D02*
X138283332Y-90255533D01*
X138283332Y-90255533D02*
X138188094Y-90303152D01*
X138188094Y-90303152D02*
X138140475Y-90350771D01*
X138140475Y-90350771D02*
X138092856Y-90446009D01*
X138092856Y-90446009D02*
X138092856Y-90588866D01*
X138092856Y-90588866D02*
X138140475Y-90684104D01*
X138140475Y-90684104D02*
X138188094Y-90731723D01*
X138188094Y-90731723D02*
X138283332Y-90779342D01*
X138283332Y-90779342D02*
X138664284Y-90779342D01*
X137759522Y-90255533D02*
X137521427Y-91255533D01*
X137521427Y-91255533D02*
X137330951Y-90541247D01*
X137330951Y-90541247D02*
X137140475Y-91255533D01*
X137140475Y-91255533D02*
X136902380Y-90255533D01*
X135949999Y-91255533D02*
X136283332Y-90779342D01*
X136521427Y-91255533D02*
X136521427Y-90255533D01*
X136521427Y-90255533D02*
X136140475Y-90255533D01*
X136140475Y-90255533D02*
X136045237Y-90303152D01*
X136045237Y-90303152D02*
X135997618Y-90350771D01*
X135997618Y-90350771D02*
X135949999Y-90446009D01*
X135949999Y-90446009D02*
X135949999Y-90588866D01*
X135949999Y-90588866D02*
X135997618Y-90684104D01*
X135997618Y-90684104D02*
X136045237Y-90731723D01*
X136045237Y-90731723D02*
X136140475Y-90779342D01*
X136140475Y-90779342D02*
X136521427Y-90779342D01*
X135521427Y-90874580D02*
X134759523Y-90874580D01*
X134283332Y-91255533D02*
X134283332Y-90255533D01*
X133807142Y-91255533D02*
X133807142Y-90255533D01*
X133807142Y-90255533D02*
X133235714Y-91255533D01*
X133235714Y-91255533D02*
X133235714Y-90255533D01*
X135404819Y-76657380D02*
X136119104Y-76657380D01*
X136119104Y-76657380D02*
X136261961Y-76609761D01*
X136261961Y-76609761D02*
X136357200Y-76514523D01*
X136357200Y-76514523D02*
X136404819Y-76371666D01*
X136404819Y-76371666D02*
X136404819Y-76276428D01*
X136404819Y-77657380D02*
X136404819Y-77085952D01*
X136404819Y-77371666D02*
X135404819Y-77371666D01*
X135404819Y-77371666D02*
X135547676Y-77276428D01*
X135547676Y-77276428D02*
X135642914Y-77181190D01*
X135642914Y-77181190D02*
X135690533Y-77085952D01*
X163982380Y-126815533D02*
X163982380Y-125815533D01*
X163982380Y-125815533D02*
X163410952Y-126815533D01*
X163410952Y-126815533D02*
X163410952Y-125815533D01*
X162363333Y-126720294D02*
X162410952Y-126767914D01*
X162410952Y-126767914D02*
X162553809Y-126815533D01*
X162553809Y-126815533D02*
X162649047Y-126815533D01*
X162649047Y-126815533D02*
X162791904Y-126767914D01*
X162791904Y-126767914D02*
X162887142Y-126672675D01*
X162887142Y-126672675D02*
X162934761Y-126577437D01*
X162934761Y-126577437D02*
X162982380Y-126386961D01*
X162982380Y-126386961D02*
X162982380Y-126244104D01*
X162982380Y-126244104D02*
X162934761Y-126053628D01*
X162934761Y-126053628D02*
X162887142Y-125958390D01*
X162887142Y-125958390D02*
X162791904Y-125863152D01*
X162791904Y-125863152D02*
X162649047Y-125815533D01*
X162649047Y-125815533D02*
X162553809Y-125815533D01*
X162553809Y-125815533D02*
X162410952Y-125863152D01*
X162410952Y-125863152D02*
X162363333Y-125910771D01*
X162651486Y-112217380D02*
X163365771Y-112217380D01*
X163365771Y-112217380D02*
X163508628Y-112169761D01*
X163508628Y-112169761D02*
X163603867Y-112074523D01*
X163603867Y-112074523D02*
X163651486Y-111931666D01*
X163651486Y-111931666D02*
X163651486Y-111836428D01*
X162984819Y-113122142D02*
X163651486Y-113122142D01*
X162603867Y-112884047D02*
X163318152Y-112645952D01*
X163318152Y-112645952D02*
X163318152Y-113264999D01*
X165362856Y-91207914D02*
X165219999Y-91255533D01*
X165219999Y-91255533D02*
X164981904Y-91255533D01*
X164981904Y-91255533D02*
X164886666Y-91207914D01*
X164886666Y-91207914D02*
X164839047Y-91160294D01*
X164839047Y-91160294D02*
X164791428Y-91065056D01*
X164791428Y-91065056D02*
X164791428Y-90969818D01*
X164791428Y-90969818D02*
X164839047Y-90874580D01*
X164839047Y-90874580D02*
X164886666Y-90826961D01*
X164886666Y-90826961D02*
X164981904Y-90779342D01*
X164981904Y-90779342D02*
X165172380Y-90731723D01*
X165172380Y-90731723D02*
X165267618Y-90684104D01*
X165267618Y-90684104D02*
X165315237Y-90636485D01*
X165315237Y-90636485D02*
X165362856Y-90541247D01*
X165362856Y-90541247D02*
X165362856Y-90446009D01*
X165362856Y-90446009D02*
X165315237Y-90350771D01*
X165315237Y-90350771D02*
X165267618Y-90303152D01*
X165267618Y-90303152D02*
X165172380Y-90255533D01*
X165172380Y-90255533D02*
X164934285Y-90255533D01*
X164934285Y-90255533D02*
X164791428Y-90303152D01*
X164458094Y-90255533D02*
X164219999Y-91255533D01*
X164219999Y-91255533D02*
X164029523Y-90541247D01*
X164029523Y-90541247D02*
X163839047Y-91255533D01*
X163839047Y-91255533D02*
X163600952Y-90255533D01*
X163219999Y-90874580D02*
X162458095Y-90874580D01*
X161981904Y-91255533D02*
X161981904Y-90255533D01*
X161172381Y-90731723D02*
X161505714Y-90731723D01*
X161505714Y-91255533D02*
X161505714Y-90255533D01*
X161505714Y-90255533D02*
X161029524Y-90255533D01*
X162674819Y-76657380D02*
X163389104Y-76657380D01*
X163389104Y-76657380D02*
X163531961Y-76609761D01*
X163531961Y-76609761D02*
X163627200Y-76514523D01*
X163627200Y-76514523D02*
X163674819Y-76371666D01*
X163674819Y-76371666D02*
X163674819Y-76276428D01*
X162674819Y-77038333D02*
X162674819Y-77657380D01*
X162674819Y-77657380D02*
X163055771Y-77324047D01*
X163055771Y-77324047D02*
X163055771Y-77466904D01*
X163055771Y-77466904D02*
X163103390Y-77562142D01*
X163103390Y-77562142D02*
X163151009Y-77609761D01*
X163151009Y-77609761D02*
X163246247Y-77657380D01*
X163246247Y-77657380D02*
X163484342Y-77657380D01*
X163484342Y-77657380D02*
X163579580Y-77609761D01*
X163579580Y-77609761D02*
X163627200Y-77562142D01*
X163627200Y-77562142D02*
X163674819Y-77466904D01*
X163674819Y-77466904D02*
X163674819Y-77181190D01*
X163674819Y-77181190D02*
X163627200Y-77085952D01*
X163627200Y-77085952D02*
X163579580Y-77038333D01*
X138450475Y-126529818D02*
X137974285Y-126529818D01*
X138545713Y-126815533D02*
X138212380Y-125815533D01*
X138212380Y-125815533D02*
X137879047Y-126815533D01*
X137545713Y-126815533D02*
X137545713Y-125815533D01*
X137545713Y-125815533D02*
X137307618Y-125815533D01*
X137307618Y-125815533D02*
X137164761Y-125863152D01*
X137164761Y-125863152D02*
X137069523Y-125958390D01*
X137069523Y-125958390D02*
X137021904Y-126053628D01*
X137021904Y-126053628D02*
X136974285Y-126244104D01*
X136974285Y-126244104D02*
X136974285Y-126386961D01*
X136974285Y-126386961D02*
X137021904Y-126577437D01*
X137021904Y-126577437D02*
X137069523Y-126672675D01*
X137069523Y-126672675D02*
X137164761Y-126767914D01*
X137164761Y-126767914D02*
X137307618Y-126815533D01*
X137307618Y-126815533D02*
X137545713Y-126815533D01*
X135974285Y-126720294D02*
X136021904Y-126767914D01*
X136021904Y-126767914D02*
X136164761Y-126815533D01*
X136164761Y-126815533D02*
X136259999Y-126815533D01*
X136259999Y-126815533D02*
X136402856Y-126767914D01*
X136402856Y-126767914D02*
X136498094Y-126672675D01*
X136498094Y-126672675D02*
X136545713Y-126577437D01*
X136545713Y-126577437D02*
X136593332Y-126386961D01*
X136593332Y-126386961D02*
X136593332Y-126244104D01*
X136593332Y-126244104D02*
X136545713Y-126053628D01*
X136545713Y-126053628D02*
X136498094Y-125958390D01*
X136498094Y-125958390D02*
X136402856Y-125863152D01*
X136402856Y-125863152D02*
X136259999Y-125815533D01*
X136259999Y-125815533D02*
X136164761Y-125815533D01*
X136164761Y-125815533D02*
X136021904Y-125863152D01*
X136021904Y-125863152D02*
X135974285Y-125910771D01*
X135545713Y-126434580D02*
X134783809Y-126434580D01*
X134307618Y-126815533D02*
X134307618Y-125815533D01*
X133498095Y-126291723D02*
X133831428Y-126291723D01*
X133831428Y-126815533D02*
X133831428Y-125815533D01*
X133831428Y-125815533D02*
X133355238Y-125815533D01*
X135381486Y-112217380D02*
X136095771Y-112217380D01*
X136095771Y-112217380D02*
X136238628Y-112169761D01*
X136238628Y-112169761D02*
X136333867Y-112074523D01*
X136333867Y-112074523D02*
X136381486Y-111931666D01*
X136381486Y-111931666D02*
X136381486Y-111836428D01*
X135476724Y-112645952D02*
X135429105Y-112693571D01*
X135429105Y-112693571D02*
X135381486Y-112788809D01*
X135381486Y-112788809D02*
X135381486Y-113026904D01*
X135381486Y-113026904D02*
X135429105Y-113122142D01*
X135429105Y-113122142D02*
X135476724Y-113169761D01*
X135476724Y-113169761D02*
X135571962Y-113217380D01*
X135571962Y-113217380D02*
X135667200Y-113217380D01*
X135667200Y-113217380D02*
X135810057Y-113169761D01*
X135810057Y-113169761D02*
X136381486Y-112598333D01*
X136381486Y-112598333D02*
X136381486Y-113217380D01*
D11*
%TO.C,J1*%
X134680000Y-64290714D02*
X134680000Y-89690714D01*
X134680000Y-89690714D02*
X137220000Y-89690714D01*
X136585000Y-64290714D02*
X134680000Y-64290714D01*
X137220000Y-64925714D02*
X136585000Y-64290714D01*
X137220000Y-89690714D02*
X137220000Y-64925714D01*
%TO.C,J4*%
X161926667Y-99850714D02*
X161926667Y-125250714D01*
X161926667Y-125250714D02*
X164466667Y-125250714D01*
X163831667Y-99850714D02*
X161926667Y-99850714D01*
X164466667Y-100485714D02*
X163831667Y-99850714D01*
X164466667Y-125250714D02*
X164466667Y-100485714D01*
%TO.C,J3*%
X161950000Y-64290714D02*
X161950000Y-89690714D01*
X161950000Y-89690714D02*
X164490000Y-89690714D01*
X163855000Y-64290714D02*
X161950000Y-64290714D01*
X164490000Y-64925714D02*
X163855000Y-64290714D01*
X164490000Y-89690714D02*
X164490000Y-64925714D01*
%TO.C,J2*%
X134656667Y-99850714D02*
X134656667Y-125250714D01*
X134656667Y-125250714D02*
X137196667Y-125250714D01*
X136561667Y-99850714D02*
X134656667Y-99850714D01*
X137196667Y-100485714D02*
X136561667Y-99850714D01*
X137196667Y-125250714D02*
X137196667Y-100485714D01*
%TD*%
M02*
