M48
; DRILL file {KiCad 9.0.1+1} date 2026-04-01T01:21:41+0000
; FORMAT={-:-/ absolute / metric / decimal}
; #@! TF.CreationDate,2026-04-01T01:21:41+00:00
; #@! TF.GenerationSoftware,Kicad,Pcbnew,9.0.1+1
; #@! TF.FileFunction,MixedPlating,1,2
FMAT,2
METRIC
; #@! TA.AperFunction,Plated,PTH,ViaDrill
T1C0.300
; #@! TA.AperFunction,Plated,PTH,ComponentDrill
T2C0.800
; #@! TA.AperFunction,Plated,PTH,ComponentDrill
T3C1.000
; #@! TA.AperFunction,Plated,PTH,ComponentDrill
T4C1.100
; #@! TA.AperFunction,Plated,PTH,ComponentDrill
T5C1.300
%
G90
G05
T1
X146.25Y-66.82
X146.25Y-71.19
X146.25Y-75.56
T2
X140.582Y-91.083
X140.582Y-98.703
X142.6Y-64.116
X142.6Y-66.656
X142.6Y-69.196
X142.6Y-71.736
X142.6Y-74.276
X142.6Y-76.816
X142.6Y-79.356
X142.6Y-81.896
X149.69Y-65.36
X149.69Y-67.9
X149.69Y-70.44
X149.69Y-72.98
X157.31Y-65.36
X157.31Y-67.9
X157.31Y-70.44
X157.31Y-72.98
T3
X135.927Y-101.121
X135.927Y-103.661
X135.927Y-106.201
X135.927Y-108.741
X135.927Y-111.281
X135.927Y-113.821
X135.927Y-116.361
X135.927Y-118.901
X135.927Y-121.441
X135.927Y-123.981
X135.95Y-65.561
X135.95Y-68.101
X135.95Y-70.641
X135.95Y-73.181
X135.95Y-75.721
X135.95Y-78.261
X135.95Y-80.801
X135.95Y-83.341
X135.95Y-85.881
X135.95Y-88.421
X163.197Y-101.121
X163.197Y-103.661
X163.197Y-106.201
X163.197Y-108.741
X163.197Y-111.281
X163.197Y-113.821
X163.197Y-116.361
X163.197Y-118.901
X163.197Y-121.441
X163.197Y-123.981
X163.22Y-65.561
X163.22Y-68.101
X163.22Y-70.641
X163.22Y-73.181
X163.22Y-75.721
X163.22Y-78.261
X163.22Y-80.801
X163.22Y-83.341
X163.22Y-85.881
X163.22Y-88.421
T4
X150.22Y-77.772
X150.22Y-82.272
X150.22Y-86.523
X150.22Y-91.023
X150.22Y-95.274
X150.22Y-99.774
X150.22Y-104.025
X150.22Y-108.525
X156.72Y-77.772
X156.72Y-82.272
X156.72Y-86.523
X156.72Y-91.023
X156.72Y-95.274
X156.72Y-99.774
X156.72Y-104.025
X156.72Y-108.525
T5
X150.18Y-113.676
X150.18Y-118.676
X150.18Y-123.676
M30
