%TF.GenerationSoftware,KiCad,Pcbnew,9.0.1+1*%
%TF.CreationDate,2026-03-06T03:30:35+00:00*%
%TF.ProjectId,CSC202_LP_MSPM0G3507_3TERM_BREAKOUT,43534332-3032-45f4-9c50-5f4d53504d30,A*%
%TF.SameCoordinates,Original*%
%TF.FileFunction,AssemblyDrawing,Top*%
%FSLAX46Y46*%
G04 Gerber Fmt 4.6, Leading zero omitted, Abs format (unit mm)*
G04 Created by KiCad (PCBNEW 9.0.1+1) date 2026-03-06 03:30:35*
%MOMM*%
%LPD*%
G01*
G04 APERTURE LIST*
%ADD10C,0.150000*%
%ADD11C,0.100000*%
G04 APERTURE END LIST*
D10*
X165955369Y-111909375D02*
X165955369Y-112623660D01*
X165955369Y-112623660D02*
X165907750Y-112766517D01*
X165907750Y-112766517D02*
X165812512Y-112861756D01*
X165812512Y-112861756D02*
X165669655Y-112909375D01*
X165669655Y-112909375D02*
X165574417Y-112909375D01*
X166193465Y-113004613D02*
X166955369Y-113004613D01*
X167193465Y-112909375D02*
X167193465Y-111909375D01*
X167669655Y-112909375D02*
X167669655Y-111909375D01*
X167669655Y-111909375D02*
X168241083Y-112909375D01*
X168241083Y-112909375D02*
X168241083Y-111909375D01*
X169145845Y-112242708D02*
X169145845Y-112909375D01*
X168907750Y-111861756D02*
X168669655Y-112576041D01*
X168669655Y-112576041D02*
X169288702Y-112576041D01*
X170383940Y-111861756D02*
X169526798Y-113147470D01*
X171002988Y-111909375D02*
X171002988Y-112623660D01*
X171002988Y-112623660D02*
X170955369Y-112766517D01*
X170955369Y-112766517D02*
X170860131Y-112861756D01*
X170860131Y-112861756D02*
X170717274Y-112909375D01*
X170717274Y-112909375D02*
X170622036Y-112909375D01*
X171241084Y-113004613D02*
X172002988Y-113004613D01*
X172241084Y-112909375D02*
X172241084Y-111909375D01*
X172717274Y-112909375D02*
X172717274Y-111909375D01*
X172717274Y-111909375D02*
X173288702Y-112909375D01*
X173288702Y-112909375D02*
X173288702Y-111909375D01*
X173717274Y-112004613D02*
X173764893Y-111956994D01*
X173764893Y-111956994D02*
X173860131Y-111909375D01*
X173860131Y-111909375D02*
X174098226Y-111909375D01*
X174098226Y-111909375D02*
X174193464Y-111956994D01*
X174193464Y-111956994D02*
X174241083Y-112004613D01*
X174241083Y-112004613D02*
X174288702Y-112099851D01*
X174288702Y-112099851D02*
X174288702Y-112195089D01*
X174288702Y-112195089D02*
X174241083Y-112337946D01*
X174241083Y-112337946D02*
X173669655Y-112909375D01*
X173669655Y-112909375D02*
X174288702Y-112909375D01*
X169410188Y-99027889D02*
X170124473Y-99027889D01*
X170124473Y-99027889D02*
X170267330Y-99075508D01*
X170267330Y-99075508D02*
X170362569Y-99170746D01*
X170362569Y-99170746D02*
X170410188Y-99313603D01*
X170410188Y-99313603D02*
X170410188Y-99408841D01*
X169505426Y-98599317D02*
X169457807Y-98551698D01*
X169457807Y-98551698D02*
X169410188Y-98456460D01*
X169410188Y-98456460D02*
X169410188Y-98218365D01*
X169410188Y-98218365D02*
X169457807Y-98123127D01*
X169457807Y-98123127D02*
X169505426Y-98075508D01*
X169505426Y-98075508D02*
X169600664Y-98027889D01*
X169600664Y-98027889D02*
X169695902Y-98027889D01*
X169695902Y-98027889D02*
X169838759Y-98075508D01*
X169838759Y-98075508D02*
X170410188Y-98646936D01*
X170410188Y-98646936D02*
X170410188Y-98027889D01*
X123411369Y-111909375D02*
X123411369Y-112623660D01*
X123411369Y-112623660D02*
X123363750Y-112766517D01*
X123363750Y-112766517D02*
X123268512Y-112861756D01*
X123268512Y-112861756D02*
X123125655Y-112909375D01*
X123125655Y-112909375D02*
X123030417Y-112909375D01*
X123649465Y-113004613D02*
X124411369Y-113004613D01*
X124649465Y-112909375D02*
X124649465Y-111909375D01*
X125125655Y-112909375D02*
X125125655Y-111909375D01*
X125125655Y-111909375D02*
X125697083Y-112909375D01*
X125697083Y-112909375D02*
X125697083Y-111909375D01*
X126697083Y-112909375D02*
X126125655Y-112909375D01*
X126411369Y-112909375D02*
X126411369Y-111909375D01*
X126411369Y-111909375D02*
X126316131Y-112052232D01*
X126316131Y-112052232D02*
X126220893Y-112147470D01*
X126220893Y-112147470D02*
X126125655Y-112195089D01*
X127839940Y-111861756D02*
X126982798Y-113147470D01*
X128458988Y-111909375D02*
X128458988Y-112623660D01*
X128458988Y-112623660D02*
X128411369Y-112766517D01*
X128411369Y-112766517D02*
X128316131Y-112861756D01*
X128316131Y-112861756D02*
X128173274Y-112909375D01*
X128173274Y-112909375D02*
X128078036Y-112909375D01*
X128697084Y-113004613D02*
X129458988Y-113004613D01*
X129697084Y-112909375D02*
X129697084Y-111909375D01*
X130173274Y-112909375D02*
X130173274Y-111909375D01*
X130173274Y-111909375D02*
X130744702Y-112909375D01*
X130744702Y-112909375D02*
X130744702Y-111909375D01*
X131125655Y-111909375D02*
X131744702Y-111909375D01*
X131744702Y-111909375D02*
X131411369Y-112290327D01*
X131411369Y-112290327D02*
X131554226Y-112290327D01*
X131554226Y-112290327D02*
X131649464Y-112337946D01*
X131649464Y-112337946D02*
X131697083Y-112385565D01*
X131697083Y-112385565D02*
X131744702Y-112480803D01*
X131744702Y-112480803D02*
X131744702Y-112718898D01*
X131744702Y-112718898D02*
X131697083Y-112814136D01*
X131697083Y-112814136D02*
X131649464Y-112861756D01*
X131649464Y-112861756D02*
X131554226Y-112909375D01*
X131554226Y-112909375D02*
X131268512Y-112909375D01*
X131268512Y-112909375D02*
X131173274Y-112861756D01*
X131173274Y-112861756D02*
X131125655Y-112814136D01*
X126866188Y-99027889D02*
X127580473Y-99027889D01*
X127580473Y-99027889D02*
X127723330Y-99075508D01*
X127723330Y-99075508D02*
X127818569Y-99170746D01*
X127818569Y-99170746D02*
X127866188Y-99313603D01*
X127866188Y-99313603D02*
X127866188Y-99408841D01*
X127866188Y-98027889D02*
X127866188Y-98599317D01*
X127866188Y-98313603D02*
X126866188Y-98313603D01*
X126866188Y-98313603D02*
X127009045Y-98408841D01*
X127009045Y-98408841D02*
X127104283Y-98504079D01*
X127104283Y-98504079D02*
X127151902Y-98599317D01*
D11*
%TO.C,J2*%
X167415369Y-87264556D02*
X168685369Y-85994556D01*
X167415369Y-111394556D02*
X167415369Y-87264556D01*
X168685369Y-85994556D02*
X172495369Y-85994556D01*
X172495369Y-85994556D02*
X172495369Y-111394556D01*
X172495369Y-111394556D02*
X167415369Y-111394556D01*
%TO.C,J1*%
X124871369Y-87264556D02*
X126141369Y-85994556D01*
X124871369Y-111394556D02*
X124871369Y-87264556D01*
X126141369Y-85994556D02*
X129951369Y-85994556D01*
X129951369Y-85994556D02*
X129951369Y-111394556D01*
X129951369Y-111394556D02*
X124871369Y-111394556D01*
%TD*%
M02*
