%TF.GenerationSoftware,KiCad,Pcbnew,9.0.1+1*%
%TF.CreationDate,2026-04-01T01:09:54+00:00*%
%TF.ProjectId,CSC202_LP_MSPM0G3507_3TERM_BREAKOUT,43534332-3032-45f4-9c50-5f4d53504d30,A*%
%TF.SameCoordinates,Original*%
%TF.FileFunction,Other,Comment*%
%FSLAX46Y46*%
G04 Gerber Fmt 4.6, Leading zero omitted, Abs format (unit mm)*
G04 Created by KiCad (PCBNEW 9.0.1+1) date 2026-04-01 01:09:54*
%MOMM*%
%LPD*%
G01*
G04 APERTURE LIST*
%ADD10C,0.100000*%
%ADD11C,0.250000*%
%ADD12C,0.150000*%
G04 APERTURE END LIST*
D10*
X119503269Y-35106556D02*
X119523269Y-35106556D01*
X119923269Y-35106556D02*
X119943269Y-35106556D01*
X120343269Y-35106556D02*
X120363269Y-35106556D01*
X120763269Y-35106556D02*
X120783269Y-35106556D01*
X121183269Y-35106556D02*
X121203269Y-35106556D01*
X121603269Y-35106556D02*
X121623269Y-35106556D01*
X122023269Y-35106556D02*
X122043269Y-35106556D01*
X122443269Y-35106556D02*
X122463269Y-35106556D01*
X122863269Y-35106556D02*
X122883269Y-35106556D01*
X123283269Y-35106556D02*
X123303269Y-35106556D01*
X123703269Y-35106556D02*
X123723269Y-35106556D01*
X124123269Y-35106556D02*
X124143269Y-35106556D01*
X124543269Y-35106556D02*
X124563269Y-35106556D01*
X124963269Y-35106556D02*
X124983269Y-35106556D01*
X125383269Y-35106556D02*
X125403269Y-35106556D01*
X125803269Y-35106556D02*
X125823269Y-35106556D01*
X126223269Y-35106556D02*
X126243269Y-35106556D01*
X126643269Y-35106556D02*
X126663269Y-35106556D01*
X127063269Y-35106556D02*
X127083269Y-35106556D01*
X127483269Y-35106556D02*
X127503269Y-35106556D01*
X127903269Y-35106556D02*
X127923269Y-35106556D01*
X128323269Y-35106556D02*
X128343269Y-35106556D01*
X128743269Y-35106556D02*
X128763269Y-35106556D01*
X129163269Y-35106556D02*
X129183269Y-35106556D01*
X129583269Y-35106556D02*
X129603269Y-35106556D01*
X130003269Y-35106556D02*
X130023269Y-35106556D01*
X130423269Y-35106556D02*
X130443269Y-35106556D01*
X130843269Y-35106556D02*
X130863269Y-35106556D01*
X131263269Y-35106556D02*
X131283269Y-35106556D01*
X131683269Y-35106556D02*
X131703269Y-35106556D01*
X132103269Y-35106556D02*
X132123269Y-35106556D01*
X132523269Y-35106556D02*
X132543269Y-35106556D01*
X132943269Y-35106556D02*
X132963269Y-35106556D01*
X133363269Y-35106556D02*
X133383269Y-35106556D01*
X133783269Y-35106556D02*
X133803269Y-35106556D01*
X134203269Y-35106556D02*
X134223269Y-35106556D01*
X134623269Y-35106556D02*
X134643269Y-35106556D01*
X135043269Y-35106556D02*
X135063269Y-35106556D01*
X135463269Y-35106556D02*
X135483269Y-35106556D01*
X135883269Y-35106556D02*
X135903269Y-35106556D01*
X136303269Y-35106556D02*
X136323269Y-35106556D01*
X136723269Y-35106556D02*
X136743269Y-35106556D01*
X137143269Y-35106556D02*
X137163269Y-35106556D01*
X137563269Y-35106556D02*
X137583269Y-35106556D01*
X137983269Y-35106556D02*
X138003269Y-35106556D01*
X138403269Y-35106556D02*
X138423269Y-35106556D01*
X138823269Y-35106556D02*
X138843269Y-35106556D01*
X139243269Y-35106556D02*
X139263269Y-35106556D01*
X139663269Y-35106556D02*
X139683269Y-35106556D01*
X140083269Y-35106556D02*
X140103269Y-35106556D01*
X140503269Y-35106556D02*
X140523269Y-35106556D01*
X140923269Y-35106556D02*
X140943269Y-35106556D01*
X141343269Y-35106556D02*
X141363269Y-35106556D01*
X141763269Y-35106556D02*
X141783269Y-35106556D01*
X142183269Y-35106556D02*
X142203269Y-35106556D01*
X142603269Y-35106556D02*
X142623269Y-35106556D01*
X143023269Y-35106556D02*
X143043269Y-35106556D01*
X143443269Y-35106556D02*
X143463269Y-35106556D01*
X143863269Y-35106556D02*
X143883269Y-35106556D01*
X144283269Y-35106556D02*
X144303269Y-35106556D01*
X144703269Y-35106556D02*
X144723269Y-35106556D01*
X145123269Y-35106556D02*
X145143269Y-35106556D01*
X145543269Y-35106556D02*
X145563269Y-35106556D01*
X145963269Y-35106556D02*
X145983269Y-35106556D01*
X146383269Y-35106556D02*
X146403269Y-35106556D01*
X146803269Y-35106556D02*
X146823269Y-35106556D01*
X147223269Y-35106556D02*
X147243269Y-35106556D01*
X147643269Y-35106556D02*
X147663269Y-35106556D01*
X148063269Y-35106556D02*
X148083269Y-35106556D01*
X148483269Y-35106556D02*
X148503269Y-35106556D01*
X148903269Y-35106556D02*
X148923269Y-35106556D01*
X149323269Y-35106556D02*
X149343269Y-35106556D01*
X149743269Y-35106556D02*
X149763269Y-35106556D01*
X150163269Y-35106556D02*
X150183269Y-35106556D01*
X150583269Y-35106556D02*
X150603269Y-35106556D01*
X151003269Y-35106556D02*
X151023269Y-35106556D01*
X151423269Y-35106556D02*
X151443269Y-35106556D01*
X151843269Y-35106556D02*
X151863269Y-35106556D01*
X152263269Y-35106556D02*
X152283269Y-35106556D01*
X152683269Y-35106556D02*
X152703269Y-35106556D01*
X153103269Y-35106556D02*
X153123269Y-35106556D01*
X153523269Y-35106556D02*
X153543269Y-35106556D01*
X153943269Y-35106556D02*
X153963269Y-35106556D01*
X154363269Y-35106556D02*
X154383269Y-35106556D01*
X154783269Y-35106556D02*
X154803269Y-35106556D01*
X155203269Y-35106556D02*
X155223269Y-35106556D01*
X155623269Y-35106556D02*
X155643269Y-35106556D01*
X156043269Y-35106556D02*
X156063269Y-35106556D01*
X156463269Y-35106556D02*
X156483269Y-35106556D01*
X156883269Y-35106556D02*
X156903269Y-35106556D01*
X157303269Y-35106556D02*
X157323269Y-35106556D01*
X157723269Y-35106556D02*
X157743269Y-35106556D01*
X158143269Y-35106556D02*
X158163269Y-35106556D01*
X158563269Y-35106556D02*
X158583269Y-35106556D01*
X158983269Y-35106556D02*
X159003269Y-35106556D01*
X159403269Y-35106556D02*
X159423269Y-35106556D01*
X159823269Y-35106556D02*
X159843269Y-35106556D01*
X160243269Y-35106556D02*
X160263269Y-35106556D01*
X160663269Y-35106556D02*
X160683269Y-35106556D01*
X161083269Y-35106556D02*
X161103269Y-35106556D01*
X161503269Y-35106556D02*
X161523269Y-35106556D01*
X161923269Y-35106556D02*
X161943269Y-35106556D01*
X162343269Y-35106556D02*
X162363269Y-35106556D01*
X162763269Y-35106556D02*
X162783269Y-35106556D01*
X163183269Y-35106556D02*
X163203269Y-35106556D01*
X163603269Y-35106556D02*
X163623269Y-35106556D01*
X164023269Y-35106556D02*
X164043269Y-35106556D01*
X164443269Y-35106556D02*
X164463269Y-35106556D01*
X164863269Y-35106556D02*
X164883269Y-35106556D01*
X165283269Y-35106556D02*
X165303269Y-35106556D01*
X165703269Y-35106556D02*
X165723269Y-35106556D01*
X166123269Y-35106556D02*
X166143269Y-35106556D01*
X166543269Y-35106556D02*
X166563269Y-35106556D01*
X166963269Y-35106556D02*
X166983269Y-35106556D01*
X167383269Y-35106556D02*
X167403269Y-35106556D01*
X167803269Y-35106556D02*
X167823269Y-35106556D01*
X168223269Y-35106556D02*
X168243269Y-35106556D01*
X168643269Y-35106556D02*
X168663269Y-35106556D01*
X169063269Y-35106556D02*
X169083269Y-35106556D01*
X169483269Y-35106556D02*
X169503269Y-35106556D01*
X169903269Y-35106556D02*
X169923269Y-35106556D01*
X170323269Y-35106556D02*
X170343269Y-35106556D01*
X170743269Y-35106556D02*
X170763269Y-35106556D01*
X171163269Y-35106556D02*
X171183269Y-35106556D01*
X171583269Y-35106556D02*
X171603269Y-35106556D01*
X172003269Y-35106556D02*
X172023269Y-35106556D01*
X172423269Y-35106556D02*
X172443269Y-35106556D01*
X172843269Y-35106556D02*
X172863269Y-35106556D01*
X173263269Y-35106556D02*
X173283269Y-35106556D01*
X173683269Y-35106556D02*
X173703269Y-35106556D01*
X174103269Y-35106556D02*
X174123269Y-35106556D01*
X174523269Y-35106556D02*
X174543269Y-35106556D01*
X174943269Y-35106556D02*
X174963269Y-35106556D01*
X175363269Y-35106556D02*
X175383269Y-35106556D01*
X175783269Y-35106556D02*
X175803269Y-35106556D01*
X176203269Y-35106556D02*
X176223269Y-35106556D01*
X176623269Y-35106556D02*
X176643269Y-35106556D01*
X177043269Y-35106556D02*
X177063269Y-35106556D01*
X177463269Y-35106556D02*
X177483269Y-35106556D01*
X177883269Y-35106556D02*
X177883269Y-35106556D01*
X177883269Y-35106556D02*
X177883269Y-35126556D01*
X177883269Y-35526556D02*
X177883269Y-35546556D01*
X177883269Y-35946556D02*
X177883269Y-35966556D01*
X177883269Y-36366556D02*
X177883269Y-36386556D01*
X177883269Y-36786556D02*
X177883269Y-36806556D01*
X177883269Y-37206556D02*
X177883269Y-37226556D01*
X177883269Y-37626556D02*
X177883269Y-37646556D01*
X177883269Y-38046556D02*
X177883269Y-38066556D01*
X177883269Y-38466556D02*
X177883269Y-38486556D01*
X177883269Y-38886556D02*
X177883269Y-38906556D01*
X177883269Y-39306556D02*
X177883269Y-39326556D01*
X177883269Y-39726556D02*
X177883269Y-39746556D01*
X177883269Y-40146556D02*
X177883269Y-40166556D01*
X177883269Y-40566556D02*
X177883269Y-40586556D01*
X177883269Y-40986556D02*
X177883269Y-41006556D01*
X177883269Y-41406556D02*
X177883269Y-41426556D01*
X177883269Y-41826556D02*
X177883269Y-41846556D01*
X177883269Y-42246556D02*
X177883269Y-42266556D01*
X177883269Y-42666556D02*
X177883269Y-42686556D01*
X177883269Y-43086556D02*
X177883269Y-43106556D01*
X177883269Y-43506556D02*
X177883269Y-43526556D01*
X177883269Y-43926556D02*
X177883269Y-43946556D01*
X177883269Y-44346556D02*
X177883269Y-44366556D01*
X177883269Y-44766556D02*
X177883269Y-44786556D01*
X177883269Y-45186556D02*
X177883269Y-45206556D01*
X177883269Y-45606556D02*
X177883269Y-45626556D01*
X177883269Y-46026556D02*
X177883269Y-46046556D01*
X177883269Y-46446556D02*
X177883269Y-46466556D01*
X177883269Y-46866556D02*
X177883269Y-46886556D01*
X177883269Y-47286556D02*
X177883269Y-47306556D01*
X177883269Y-47706556D02*
X177883269Y-47726556D01*
X177883269Y-48126556D02*
X177883269Y-48146556D01*
X177883269Y-48546556D02*
X177883269Y-48566556D01*
X177883269Y-48966556D02*
X177883269Y-48986556D01*
X177883269Y-49386556D02*
X177883269Y-49406556D01*
X177883269Y-49806556D02*
X177883269Y-49826556D01*
X177883269Y-50226556D02*
X177883269Y-50246556D01*
X177883269Y-50646556D02*
X177883269Y-50666556D01*
X177883269Y-51066556D02*
X177883269Y-51086556D01*
X177883269Y-51486556D02*
X177883269Y-51506556D01*
X177883269Y-51906556D02*
X177883269Y-51926556D01*
X177883269Y-52326556D02*
X177883269Y-52346556D01*
X177883269Y-52746556D02*
X177883269Y-52766556D01*
X177883269Y-53166556D02*
X177883269Y-53186556D01*
X177883269Y-53586556D02*
X177883269Y-53606556D01*
X177883269Y-54006556D02*
X177883269Y-54026556D01*
X177883269Y-54426556D02*
X177883269Y-54446556D01*
X177883269Y-54846556D02*
X177883269Y-54866556D01*
X177883269Y-55266556D02*
X177883269Y-55286556D01*
X177883269Y-55686556D02*
X177883269Y-55706556D01*
X177883269Y-56106556D02*
X177883269Y-56126556D01*
X177883269Y-56526556D02*
X177883269Y-56546556D01*
X177883269Y-56946556D02*
X177883269Y-56966556D01*
X177883269Y-57366556D02*
X177883269Y-57386556D01*
X177883269Y-57786556D02*
X177883269Y-57806556D01*
X177883269Y-58206556D02*
X177883269Y-58226556D01*
X177883269Y-58626556D02*
X177883269Y-58646556D01*
X177883269Y-59046556D02*
X177883269Y-59066556D01*
X177883269Y-59466556D02*
X177883269Y-59486556D01*
X177883269Y-59886556D02*
X177883269Y-59906556D01*
X177883269Y-60306556D02*
X177883269Y-60326556D01*
X177883269Y-60726556D02*
X177883269Y-60746556D01*
X177883269Y-61146556D02*
X177883269Y-61166556D01*
X177883269Y-61566556D02*
X177883269Y-61586556D01*
X177883269Y-61986556D02*
X177883269Y-62006556D01*
X177883269Y-62406556D02*
X177883269Y-62426556D01*
X177883269Y-62826556D02*
X177883269Y-62846556D01*
X177883269Y-63246556D02*
X177883269Y-63266556D01*
X177883269Y-63666556D02*
X177883269Y-63686556D01*
X177883269Y-64086556D02*
X177883269Y-64106556D01*
X177883269Y-64506556D02*
X177883269Y-64526556D01*
X177883269Y-64926556D02*
X177883269Y-64946556D01*
X177883269Y-65346556D02*
X177883269Y-65366556D01*
X177883269Y-65766556D02*
X177883269Y-65786556D01*
X177883269Y-66186556D02*
X177883269Y-66206556D01*
X177883269Y-66606556D02*
X177883269Y-66626556D01*
X177883269Y-67026556D02*
X177883269Y-67046556D01*
X177883269Y-67446556D02*
X177883269Y-67466556D01*
X177883269Y-67866556D02*
X177883269Y-67886556D01*
X177883269Y-68286556D02*
X177883269Y-68306556D01*
X177883269Y-68706556D02*
X177883269Y-68726556D01*
X177883269Y-69126556D02*
X177883269Y-69146556D01*
X177883269Y-69546556D02*
X177883269Y-69566556D01*
X177883269Y-69966556D02*
X177883269Y-69986556D01*
X177883269Y-70386556D02*
X177883269Y-70406556D01*
X177883269Y-70806556D02*
X177883269Y-70826556D01*
X177883269Y-71226556D02*
X177883269Y-71246556D01*
X177883269Y-71646556D02*
X177883269Y-71666556D01*
X177883269Y-72066556D02*
X177883269Y-72086556D01*
X177883269Y-72486556D02*
X177883269Y-72506556D01*
X177883269Y-72906556D02*
X177883269Y-72926556D01*
X177883269Y-73326556D02*
X177883269Y-73346556D01*
X177883269Y-73746556D02*
X177883269Y-73766556D01*
X177883269Y-74166556D02*
X177883269Y-74186556D01*
X177883269Y-74586556D02*
X177883269Y-74606556D01*
X177883269Y-75006556D02*
X177883269Y-75026556D01*
X177883269Y-75426556D02*
X177883269Y-75446556D01*
X177883269Y-75846556D02*
X177883269Y-75866556D01*
X177883269Y-76266556D02*
X177883269Y-76286556D01*
X177883269Y-76686556D02*
X177883269Y-76706556D01*
X177883269Y-77106556D02*
X177883269Y-77126556D01*
X177883269Y-77526556D02*
X177883269Y-77546556D01*
X177883269Y-77946556D02*
X177883269Y-77966556D01*
X177883269Y-78366556D02*
X177883269Y-78386556D01*
X177883269Y-78786556D02*
X177883269Y-78806556D01*
X177883269Y-79206556D02*
X177883269Y-79226556D01*
X177883269Y-79626556D02*
X177883269Y-79646556D01*
X177883269Y-80046556D02*
X177883269Y-80066556D01*
X177883269Y-80466556D02*
X177883269Y-80486556D01*
X177883269Y-80886556D02*
X177883269Y-80906556D01*
X177883269Y-81306556D02*
X177883269Y-81326556D01*
X177883269Y-81726556D02*
X177883269Y-81746556D01*
X177883269Y-82146556D02*
X177883269Y-82166556D01*
X177883269Y-82566556D02*
X177883269Y-82586556D01*
X177883269Y-82986556D02*
X177883269Y-83006556D01*
X177883269Y-83406556D02*
X177883269Y-83426556D01*
X177883269Y-83826556D02*
X177883269Y-83846556D01*
X177883269Y-84246556D02*
X177883269Y-84266556D01*
X177883269Y-84666556D02*
X177883269Y-84686556D01*
X177883269Y-85086556D02*
X177883269Y-85106556D01*
X177883269Y-85506556D02*
X177883269Y-85526556D01*
X177883269Y-85926556D02*
X177883269Y-85946556D01*
X177883269Y-86346556D02*
X177883269Y-86366556D01*
X177883269Y-86766556D02*
X177883269Y-86786556D01*
X177883269Y-87186556D02*
X177883269Y-87206556D01*
X177883269Y-87606556D02*
X177883269Y-87626556D01*
X177883269Y-88026556D02*
X177883269Y-88046556D01*
X177883269Y-88446556D02*
X177883269Y-88466556D01*
X177883269Y-88866556D02*
X177883269Y-88886556D01*
X177883269Y-89286556D02*
X177883269Y-89306556D01*
X177883269Y-89706556D02*
X177883269Y-89726556D01*
X177883269Y-90126556D02*
X177883269Y-90146556D01*
X177883269Y-90546556D02*
X177883269Y-90566556D01*
X177883269Y-90966556D02*
X177883269Y-90986556D01*
X177883269Y-91386556D02*
X177883269Y-91406556D01*
X177883269Y-91806556D02*
X177883269Y-91826556D01*
X177883269Y-92226556D02*
X177883269Y-92246556D01*
X177883269Y-92646556D02*
X177883269Y-92666556D01*
X177883269Y-93066556D02*
X177883269Y-93086556D01*
X177883269Y-93486556D02*
X177883269Y-93506556D01*
X177883269Y-93906556D02*
X177883269Y-93926556D01*
X177883269Y-94326556D02*
X177883269Y-94346556D01*
X177883269Y-94746556D02*
X177883269Y-94766556D01*
X177883269Y-95166556D02*
X177883269Y-95186556D01*
X177883269Y-95586556D02*
X177883269Y-95606556D01*
X177883269Y-96006556D02*
X177883269Y-96026556D01*
X177883269Y-96426556D02*
X177883269Y-96446556D01*
X177883269Y-96846556D02*
X177883269Y-96866556D01*
X177883269Y-97266556D02*
X177883269Y-97286556D01*
X177883269Y-97686556D02*
X177883269Y-97706556D01*
X177883269Y-98106556D02*
X177883269Y-98126556D01*
X177883269Y-98526556D02*
X177883269Y-98546556D01*
X177883269Y-98946556D02*
X177883269Y-98966556D01*
X177883269Y-99366556D02*
X177883269Y-99386556D01*
X177883269Y-99786556D02*
X177883269Y-99806556D01*
X177883269Y-100206556D02*
X177883269Y-100226556D01*
X177883269Y-100626556D02*
X177883269Y-100646556D01*
X177883269Y-101046556D02*
X177883269Y-101066556D01*
X177883269Y-101466556D02*
X177883269Y-101486556D01*
X177883269Y-101886556D02*
X177883269Y-101906556D01*
X177883269Y-102306556D02*
X177883269Y-102326556D01*
X177883269Y-102726556D02*
X177883269Y-102746556D01*
X177883269Y-103146556D02*
X177883269Y-103166556D01*
X177883269Y-103566556D02*
X177883269Y-103586556D01*
X177883269Y-103986556D02*
X177883269Y-104006556D01*
X177883269Y-104406556D02*
X177883269Y-104426556D01*
X177883269Y-104826556D02*
X177883269Y-104846556D01*
X177883269Y-105246556D02*
X177883269Y-105266556D01*
X177883269Y-105666556D02*
X177883269Y-105686556D01*
X177883269Y-106086556D02*
X177883269Y-106106556D01*
X177883269Y-106506556D02*
X177883269Y-106526556D01*
X177883269Y-106926556D02*
X177883269Y-106946556D01*
X177883269Y-107346556D02*
X177883269Y-107366556D01*
X177883269Y-107766556D02*
X177883269Y-107786556D01*
X177883269Y-108186556D02*
X177883269Y-108206556D01*
X177883269Y-108606556D02*
X177883269Y-108626556D01*
X177883269Y-109026556D02*
X177883269Y-109046556D01*
X177883269Y-109446556D02*
X177883269Y-109466556D01*
X177883269Y-109866556D02*
X177883269Y-109886556D01*
X177883269Y-110286556D02*
X177883269Y-110306556D01*
X177883269Y-110706556D02*
X177883269Y-110726556D01*
X177883269Y-111126556D02*
X177883269Y-111146556D01*
X177883269Y-111546556D02*
X177883269Y-111566556D01*
X177883269Y-111966556D02*
X177883269Y-111986556D01*
X177883269Y-112386556D02*
X177883269Y-112406556D01*
X177883269Y-112806556D02*
X177883269Y-112826556D01*
X177883269Y-113226556D02*
X177883269Y-113246556D01*
X177883269Y-113646556D02*
X177883269Y-113666556D01*
X177883269Y-114066556D02*
X177883269Y-114086556D01*
X177883269Y-114486556D02*
X177883269Y-114506556D01*
X177883269Y-114906556D02*
X177883269Y-114926556D01*
X177883269Y-115326556D02*
X177883269Y-115346556D01*
X177883269Y-115746556D02*
X177883269Y-115766556D01*
X177883269Y-116166556D02*
X177883269Y-116186556D01*
X177883269Y-116586556D02*
X177883269Y-116606556D01*
X177883269Y-117006556D02*
X177883269Y-117026556D01*
X177883269Y-117426556D02*
X177883269Y-117446556D01*
X177883269Y-117846556D02*
X177883269Y-117866556D01*
X177883269Y-118266556D02*
X177883269Y-118286556D01*
X177883269Y-118686556D02*
X177883269Y-118706556D01*
X177883269Y-119106556D02*
X177883269Y-119126556D01*
X177883269Y-119526556D02*
X177883269Y-119546556D01*
X177883269Y-119946556D02*
X177883269Y-119966556D01*
X177883269Y-120366556D02*
X177883269Y-120386556D01*
X177883269Y-120786556D02*
X177883269Y-120806556D01*
X177883269Y-121206556D02*
X177883269Y-121226556D01*
X177883269Y-121626556D02*
X177883269Y-121646556D01*
X177883269Y-122046556D02*
X177883269Y-122066556D01*
X177883269Y-122466556D02*
X177883269Y-122486556D01*
X177883269Y-122886556D02*
X177883269Y-122906556D01*
X177883269Y-123306556D02*
X177883269Y-123326556D01*
X177883269Y-123726556D02*
X177883269Y-123746556D01*
X177883269Y-124146556D02*
X177883269Y-124166556D01*
X177883269Y-124566556D02*
X177883269Y-124586556D01*
X177883269Y-124986556D02*
X177883269Y-125006556D01*
X177883269Y-125406556D02*
X177883269Y-125426556D01*
X177883269Y-125826556D02*
X177883269Y-125846556D01*
X177883269Y-126246556D02*
X177883269Y-126266556D01*
X177883269Y-126666556D02*
X177883269Y-126686556D01*
X177883269Y-127086556D02*
X177883269Y-127106556D01*
X177883269Y-127506556D02*
X177883269Y-127526556D01*
X177883269Y-127926556D02*
X177883269Y-127946556D01*
X177883269Y-128346556D02*
X177883269Y-128366556D01*
X177883269Y-128766556D02*
X177883269Y-128786556D01*
X177883269Y-129186556D02*
X177883269Y-129206556D01*
X177883269Y-129606556D02*
X177883269Y-129626556D01*
X177883269Y-130026556D02*
X177883269Y-130046556D01*
X177883269Y-130446556D02*
X177883269Y-130466556D01*
X177883269Y-130866556D02*
X177883269Y-130886556D01*
X177883269Y-131286556D02*
X177883269Y-131306556D01*
X177883269Y-131706556D02*
X177883269Y-131726556D01*
X177883269Y-132126556D02*
X177883269Y-132146556D01*
X177883269Y-132546556D02*
X177883269Y-132566556D01*
X177883269Y-132966556D02*
X177883269Y-132986556D01*
X177883269Y-133386556D02*
X177883269Y-133406556D01*
X177883269Y-133806556D02*
X177883269Y-133826556D01*
X177883269Y-134226556D02*
X177883269Y-134246556D01*
X177883269Y-134646556D02*
X177883269Y-134666556D01*
X177883269Y-135066556D02*
X177883269Y-135086556D01*
X177883269Y-135486556D02*
X177883269Y-135506556D01*
X177883269Y-135906556D02*
X177883269Y-135926556D01*
X177883269Y-136326556D02*
X177883269Y-136346556D01*
X177883269Y-136746556D02*
X177883269Y-136766556D01*
X177883269Y-137166556D02*
X177883269Y-137186556D01*
X177883269Y-137586556D02*
X177883269Y-137606556D01*
X177883269Y-138006556D02*
X177883269Y-138026556D01*
X177883269Y-138426556D02*
X177883269Y-138446556D01*
X177883269Y-138846556D02*
X177883269Y-138866556D01*
X177883269Y-139266556D02*
X177883269Y-139286556D01*
X177883269Y-139686556D02*
X177883269Y-139706556D01*
X177883269Y-140106556D02*
X177883269Y-140126556D01*
X177883269Y-140526556D02*
X177883269Y-140546556D01*
X177883269Y-140946556D02*
X177883269Y-140966556D01*
X177883269Y-141366556D02*
X177883269Y-141386556D01*
X177883269Y-141636556D02*
X177863269Y-141636556D01*
X177463269Y-141636556D02*
X177443269Y-141636556D01*
X177043269Y-141636556D02*
X177023269Y-141636556D01*
X176623269Y-141636556D02*
X176603269Y-141636556D01*
X176203269Y-141636556D02*
X176183269Y-141636556D01*
X175783269Y-141636556D02*
X175763269Y-141636556D01*
X175363269Y-141636556D02*
X175343269Y-141636556D01*
X174943269Y-141636556D02*
X174923269Y-141636556D01*
X174523269Y-141636556D02*
X174503269Y-141636556D01*
X174103269Y-141636556D02*
X174083269Y-141636556D01*
X173683269Y-141636556D02*
X173663269Y-141636556D01*
X173263269Y-141636556D02*
X173243269Y-141636556D01*
X172843269Y-141636556D02*
X172823269Y-141636556D01*
X172423269Y-141636556D02*
X172403269Y-141636556D01*
X172003269Y-141636556D02*
X171983269Y-141636556D01*
X171583269Y-141636556D02*
X171563269Y-141636556D01*
X171163269Y-141636556D02*
X171143269Y-141636556D01*
X170743269Y-141636556D02*
X170723269Y-141636556D01*
X170323269Y-141636556D02*
X170303269Y-141636556D01*
X169903269Y-141636556D02*
X169883269Y-141636556D01*
X169483269Y-141636556D02*
X169463269Y-141636556D01*
X169063269Y-141636556D02*
X169043269Y-141636556D01*
X168643269Y-141636556D02*
X168623269Y-141636556D01*
X168223269Y-141636556D02*
X168203269Y-141636556D01*
X167803269Y-141636556D02*
X167783269Y-141636556D01*
X167383269Y-141636556D02*
X167363269Y-141636556D01*
X166963269Y-141636556D02*
X166943269Y-141636556D01*
X166543269Y-141636556D02*
X166523269Y-141636556D01*
X166123269Y-141636556D02*
X166103269Y-141636556D01*
X165703269Y-141636556D02*
X165683269Y-141636556D01*
X165283269Y-141636556D02*
X165263269Y-141636556D01*
X164863269Y-141636556D02*
X164843269Y-141636556D01*
X164443269Y-141636556D02*
X164423269Y-141636556D01*
X164023269Y-141636556D02*
X164003269Y-141636556D01*
X163603269Y-141636556D02*
X163583269Y-141636556D01*
X163183269Y-141636556D02*
X163163269Y-141636556D01*
X162763269Y-141636556D02*
X162743269Y-141636556D01*
X162343269Y-141636556D02*
X162323269Y-141636556D01*
X161923269Y-141636556D02*
X161903269Y-141636556D01*
X161503269Y-141636556D02*
X161483269Y-141636556D01*
X161083269Y-141636556D02*
X161063269Y-141636556D01*
X160663269Y-141636556D02*
X160643269Y-141636556D01*
X160243269Y-141636556D02*
X160223269Y-141636556D01*
X159823269Y-141636556D02*
X159803269Y-141636556D01*
X159403269Y-141636556D02*
X159383269Y-141636556D01*
X158983269Y-141636556D02*
X158963269Y-141636556D01*
X158563269Y-141636556D02*
X158543269Y-141636556D01*
X158143269Y-141636556D02*
X158123269Y-141636556D01*
X157723269Y-141636556D02*
X157703269Y-141636556D01*
X157303269Y-141636556D02*
X157283269Y-141636556D01*
X156883269Y-141636556D02*
X156863269Y-141636556D01*
X156463269Y-141636556D02*
X156443269Y-141636556D01*
X156043269Y-141636556D02*
X156023269Y-141636556D01*
X155623269Y-141636556D02*
X155603269Y-141636556D01*
X155203269Y-141636556D02*
X155183269Y-141636556D01*
X154783269Y-141636556D02*
X154763269Y-141636556D01*
X154363269Y-141636556D02*
X154343269Y-141636556D01*
X153943269Y-141636556D02*
X153923269Y-141636556D01*
X153523269Y-141636556D02*
X153503269Y-141636556D01*
X153103269Y-141636556D02*
X153083269Y-141636556D01*
X152683269Y-141636556D02*
X152663269Y-141636556D01*
X152263269Y-141636556D02*
X152243269Y-141636556D01*
X151843269Y-141636556D02*
X151823269Y-141636556D01*
X151423269Y-141636556D02*
X151403269Y-141636556D01*
X151003269Y-141636556D02*
X150983269Y-141636556D01*
X150583269Y-141636556D02*
X150563269Y-141636556D01*
X150163269Y-141636556D02*
X150143269Y-141636556D01*
X149743269Y-141636556D02*
X149723269Y-141636556D01*
X149323269Y-141636556D02*
X149303269Y-141636556D01*
X148903269Y-141636556D02*
X148883269Y-141636556D01*
X148483269Y-141636556D02*
X148463269Y-141636556D01*
X148063269Y-141636556D02*
X148043269Y-141636556D01*
X147643269Y-141636556D02*
X147623269Y-141636556D01*
X147223269Y-141636556D02*
X147203269Y-141636556D01*
X146803269Y-141636556D02*
X146783269Y-141636556D01*
X146383269Y-141636556D02*
X146363269Y-141636556D01*
X145963269Y-141636556D02*
X145943269Y-141636556D01*
X145543269Y-141636556D02*
X145523269Y-141636556D01*
X145123269Y-141636556D02*
X145103269Y-141636556D01*
X144703269Y-141636556D02*
X144683269Y-141636556D01*
X144283269Y-141636556D02*
X144263269Y-141636556D01*
X143863269Y-141636556D02*
X143843269Y-141636556D01*
X143443269Y-141636556D02*
X143423269Y-141636556D01*
X143023269Y-141636556D02*
X143003269Y-141636556D01*
X142603269Y-141636556D02*
X142583269Y-141636556D01*
X142183269Y-141636556D02*
X142163269Y-141636556D01*
X141763269Y-141636556D02*
X141743269Y-141636556D01*
X141343269Y-141636556D02*
X141323269Y-141636556D01*
X140923269Y-141636556D02*
X140903269Y-141636556D01*
X140503269Y-141636556D02*
X140483269Y-141636556D01*
X140083269Y-141636556D02*
X140063269Y-141636556D01*
X139663269Y-141636556D02*
X139643269Y-141636556D01*
X139243269Y-141636556D02*
X139223269Y-141636556D01*
X138823269Y-141636556D02*
X138803269Y-141636556D01*
X138403269Y-141636556D02*
X138383269Y-141636556D01*
X137983269Y-141636556D02*
X137963269Y-141636556D01*
X137563269Y-141636556D02*
X137543269Y-141636556D01*
X137143269Y-141636556D02*
X137123269Y-141636556D01*
X136723269Y-141636556D02*
X136703269Y-141636556D01*
X136303269Y-141636556D02*
X136283269Y-141636556D01*
X135883269Y-141636556D02*
X135863269Y-141636556D01*
X135463269Y-141636556D02*
X135443269Y-141636556D01*
X135043269Y-141636556D02*
X135023269Y-141636556D01*
X134623269Y-141636556D02*
X134603269Y-141636556D01*
X134203269Y-141636556D02*
X134183269Y-141636556D01*
X133783269Y-141636556D02*
X133763269Y-141636556D01*
X133363269Y-141636556D02*
X133343269Y-141636556D01*
X132943269Y-141636556D02*
X132923269Y-141636556D01*
X132523269Y-141636556D02*
X132503269Y-141636556D01*
X132103269Y-141636556D02*
X132083269Y-141636556D01*
X131683269Y-141636556D02*
X131663269Y-141636556D01*
X131263269Y-141636556D02*
X131243269Y-141636556D01*
X130843269Y-141636556D02*
X130823269Y-141636556D01*
X130423269Y-141636556D02*
X130403269Y-141636556D01*
X130003269Y-141636556D02*
X129983269Y-141636556D01*
X129583269Y-141636556D02*
X129563269Y-141636556D01*
X129163269Y-141636556D02*
X129143269Y-141636556D01*
X128743269Y-141636556D02*
X128723269Y-141636556D01*
X128323269Y-141636556D02*
X128303269Y-141636556D01*
X127903269Y-141636556D02*
X127883269Y-141636556D01*
X127483269Y-141636556D02*
X127463269Y-141636556D01*
X127063269Y-141636556D02*
X127043269Y-141636556D01*
X126643269Y-141636556D02*
X126623269Y-141636556D01*
X126223269Y-141636556D02*
X126203269Y-141636556D01*
X125803269Y-141636556D02*
X125783269Y-141636556D01*
X125383269Y-141636556D02*
X125363269Y-141636556D01*
X124963269Y-141636556D02*
X124943269Y-141636556D01*
X124543269Y-141636556D02*
X124523269Y-141636556D01*
X124123269Y-141636556D02*
X124103269Y-141636556D01*
X123703269Y-141636556D02*
X123683269Y-141636556D01*
X123283269Y-141636556D02*
X123263269Y-141636556D01*
X122863269Y-141636556D02*
X122843269Y-141636556D01*
X122443269Y-141636556D02*
X122423269Y-141636556D01*
X122023269Y-141636556D02*
X122003269Y-141636556D01*
X121603269Y-141636556D02*
X121583269Y-141636556D01*
X121183269Y-141636556D02*
X121163269Y-141636556D01*
X120763269Y-141636556D02*
X120743269Y-141636556D01*
X120343269Y-141636556D02*
X120323269Y-141636556D01*
X119923269Y-141636556D02*
X119903269Y-141636556D01*
X119503269Y-141636556D02*
X119503269Y-141636556D01*
X119503269Y-141636556D02*
X119503269Y-141616556D01*
X119503269Y-141216556D02*
X119503269Y-141196556D01*
X119503269Y-140796556D02*
X119503269Y-140776556D01*
X119503269Y-140376556D02*
X119503269Y-140356556D01*
X119503269Y-139956556D02*
X119503269Y-139936556D01*
X119503269Y-139536556D02*
X119503269Y-139516556D01*
X119503269Y-139116556D02*
X119503269Y-139096556D01*
X119503269Y-138696556D02*
X119503269Y-138676556D01*
X119503269Y-138276556D02*
X119503269Y-138256556D01*
X119503269Y-137856556D02*
X119503269Y-137836556D01*
X119503269Y-137436556D02*
X119503269Y-137416556D01*
X119503269Y-137016556D02*
X119503269Y-136996556D01*
X119503269Y-136596556D02*
X119503269Y-136576556D01*
X119503269Y-136176556D02*
X119503269Y-136156556D01*
X119503269Y-135756556D02*
X119503269Y-135736556D01*
X119503269Y-135336556D02*
X119503269Y-135316556D01*
X119503269Y-134916556D02*
X119503269Y-134896556D01*
X119503269Y-134496556D02*
X119503269Y-134476556D01*
X119503269Y-134076556D02*
X119503269Y-134056556D01*
X119503269Y-133656556D02*
X119503269Y-133636556D01*
X119503269Y-133236556D02*
X119503269Y-133216556D01*
X119503269Y-132816556D02*
X119503269Y-132796556D01*
X119503269Y-132396556D02*
X119503269Y-132376556D01*
X119503269Y-131976556D02*
X119503269Y-131956556D01*
X119503269Y-131556556D02*
X119503269Y-131536556D01*
X119503269Y-131136556D02*
X119503269Y-131116556D01*
X119503269Y-130716556D02*
X119503269Y-130696556D01*
X119503269Y-130296556D02*
X119503269Y-130276556D01*
X119503269Y-129876556D02*
X119503269Y-129856556D01*
X119503269Y-129456556D02*
X119503269Y-129436556D01*
X119503269Y-129036556D02*
X119503269Y-129016556D01*
X119503269Y-128616556D02*
X119503269Y-128596556D01*
X119503269Y-128196556D02*
X119503269Y-128176556D01*
X119503269Y-127776556D02*
X119503269Y-127756556D01*
X119503269Y-127356556D02*
X119503269Y-127336556D01*
X119503269Y-126936556D02*
X119503269Y-126916556D01*
X119503269Y-126516556D02*
X119503269Y-126496556D01*
X119503269Y-126096556D02*
X119503269Y-126076556D01*
X119503269Y-125676556D02*
X119503269Y-125656556D01*
X119503269Y-125256556D02*
X119503269Y-125236556D01*
X119503269Y-124836556D02*
X119503269Y-124816556D01*
X119503269Y-124416556D02*
X119503269Y-124396556D01*
X119503269Y-123996556D02*
X119503269Y-123976556D01*
X119503269Y-123576556D02*
X119503269Y-123556556D01*
X119503269Y-123156556D02*
X119503269Y-123136556D01*
X119503269Y-122736556D02*
X119503269Y-122716556D01*
X119503269Y-122316556D02*
X119503269Y-122296556D01*
X119503269Y-121896556D02*
X119503269Y-121876556D01*
X119503269Y-121476556D02*
X119503269Y-121456556D01*
X119503269Y-121056556D02*
X119503269Y-121036556D01*
X119503269Y-120636556D02*
X119503269Y-120616556D01*
X119503269Y-120216556D02*
X119503269Y-120196556D01*
X119503269Y-119796556D02*
X119503269Y-119776556D01*
X119503269Y-119376556D02*
X119503269Y-119356556D01*
X119503269Y-118956556D02*
X119503269Y-118936556D01*
X119503269Y-118536556D02*
X119503269Y-118516556D01*
X119503269Y-118116556D02*
X119503269Y-118096556D01*
X119503269Y-117696556D02*
X119503269Y-117676556D01*
X119503269Y-117276556D02*
X119503269Y-117256556D01*
X119503269Y-116856556D02*
X119503269Y-116836556D01*
X119503269Y-116436556D02*
X119503269Y-116416556D01*
X119503269Y-116016556D02*
X119503269Y-115996556D01*
X119503269Y-115596556D02*
X119503269Y-115576556D01*
X119503269Y-115176556D02*
X119503269Y-115156556D01*
X119503269Y-114756556D02*
X119503269Y-114736556D01*
X119503269Y-114336556D02*
X119503269Y-114316556D01*
X119503269Y-113916556D02*
X119503269Y-113896556D01*
X119503269Y-113496556D02*
X119503269Y-113476556D01*
X119503269Y-113076556D02*
X119503269Y-113056556D01*
X119503269Y-112656556D02*
X119503269Y-112636556D01*
X119503269Y-112236556D02*
X119503269Y-112216556D01*
X119503269Y-111816556D02*
X119503269Y-111796556D01*
X119503269Y-111396556D02*
X119503269Y-111376556D01*
X119503269Y-110976556D02*
X119503269Y-110956556D01*
X119503269Y-110556556D02*
X119503269Y-110536556D01*
X119503269Y-110136556D02*
X119503269Y-110116556D01*
X119503269Y-109716556D02*
X119503269Y-109696556D01*
X119503269Y-109296556D02*
X119503269Y-109276556D01*
X119503269Y-108876556D02*
X119503269Y-108856556D01*
X119503269Y-108456556D02*
X119503269Y-108436556D01*
X119503269Y-108036556D02*
X119503269Y-108016556D01*
X119503269Y-107616556D02*
X119503269Y-107596556D01*
X119503269Y-107196556D02*
X119503269Y-107176556D01*
X119503269Y-106776556D02*
X119503269Y-106756556D01*
X119503269Y-106356556D02*
X119503269Y-106336556D01*
X119503269Y-105936556D02*
X119503269Y-105916556D01*
X119503269Y-105516556D02*
X119503269Y-105496556D01*
X119503269Y-105096556D02*
X119503269Y-105076556D01*
X119503269Y-104676556D02*
X119503269Y-104656556D01*
X119503269Y-104256556D02*
X119503269Y-104236556D01*
X119503269Y-103836556D02*
X119503269Y-103816556D01*
X119503269Y-103416556D02*
X119503269Y-103396556D01*
X119503269Y-102996556D02*
X119503269Y-102976556D01*
X119503269Y-102576556D02*
X119503269Y-102556556D01*
X119503269Y-102156556D02*
X119503269Y-102136556D01*
X119503269Y-101736556D02*
X119503269Y-101716556D01*
X119503269Y-101316556D02*
X119503269Y-101296556D01*
X119503269Y-100896556D02*
X119503269Y-100876556D01*
X119503269Y-100476556D02*
X119503269Y-100456556D01*
X119503269Y-100056556D02*
X119503269Y-100036556D01*
X119503269Y-99636556D02*
X119503269Y-99616556D01*
X119503269Y-99216556D02*
X119503269Y-99196556D01*
X119503269Y-98796556D02*
X119503269Y-98776556D01*
X119503269Y-98376556D02*
X119503269Y-98356556D01*
X119503269Y-97956556D02*
X119503269Y-97936556D01*
X119503269Y-97536556D02*
X119503269Y-97516556D01*
X119503269Y-97116556D02*
X119503269Y-97096556D01*
X119503269Y-96696556D02*
X119503269Y-96676556D01*
X119503269Y-96276556D02*
X119503269Y-96256556D01*
X119503269Y-95856556D02*
X119503269Y-95836556D01*
X119503269Y-95436556D02*
X119503269Y-95416556D01*
X119503269Y-95016556D02*
X119503269Y-94996556D01*
X119503269Y-94596556D02*
X119503269Y-94576556D01*
X119503269Y-94176556D02*
X119503269Y-94156556D01*
X119503269Y-93756556D02*
X119503269Y-93736556D01*
X119503269Y-93336556D02*
X119503269Y-93316556D01*
X119503269Y-92916556D02*
X119503269Y-92896556D01*
X119503269Y-92496556D02*
X119503269Y-92476556D01*
X119503269Y-92076556D02*
X119503269Y-92056556D01*
X119503269Y-91656556D02*
X119503269Y-91636556D01*
X119503269Y-91236556D02*
X119503269Y-91216556D01*
X119503269Y-90816556D02*
X119503269Y-90796556D01*
X119503269Y-90396556D02*
X119503269Y-90376556D01*
X119503269Y-89976556D02*
X119503269Y-89956556D01*
X119503269Y-89556556D02*
X119503269Y-89536556D01*
X119503269Y-89136556D02*
X119503269Y-89116556D01*
X119503269Y-88716556D02*
X119503269Y-88696556D01*
X119503269Y-88296556D02*
X119503269Y-88276556D01*
X119503269Y-87876556D02*
X119503269Y-87856556D01*
X119503269Y-87456556D02*
X119503269Y-87436556D01*
X119503269Y-87036556D02*
X119503269Y-87016556D01*
X119503269Y-86616556D02*
X119503269Y-86596556D01*
X119503269Y-86196556D02*
X119503269Y-86176556D01*
X119503269Y-85776556D02*
X119503269Y-85756556D01*
X119503269Y-85356556D02*
X119503269Y-85336556D01*
X119503269Y-84936556D02*
X119503269Y-84916556D01*
X119503269Y-84516556D02*
X119503269Y-84496556D01*
X119503269Y-84096556D02*
X119503269Y-84076556D01*
X119503269Y-83676556D02*
X119503269Y-83656556D01*
X119503269Y-83256556D02*
X119503269Y-83236556D01*
X119503269Y-82836556D02*
X119503269Y-82816556D01*
X119503269Y-82416556D02*
X119503269Y-82396556D01*
X119503269Y-81996556D02*
X119503269Y-81976556D01*
X119503269Y-81576556D02*
X119503269Y-81556556D01*
X119503269Y-81156556D02*
X119503269Y-81136556D01*
X119503269Y-80736556D02*
X119503269Y-80716556D01*
X119503269Y-80316556D02*
X119503269Y-80296556D01*
X119503269Y-79896556D02*
X119503269Y-79876556D01*
X119503269Y-79476556D02*
X119503269Y-79456556D01*
X119503269Y-79056556D02*
X119503269Y-79036556D01*
X119503269Y-78636556D02*
X119503269Y-78616556D01*
X119503269Y-78216556D02*
X119503269Y-78196556D01*
X119503269Y-77796556D02*
X119503269Y-77776556D01*
X119503269Y-77376556D02*
X119503269Y-77356556D01*
X119503269Y-76956556D02*
X119503269Y-76936556D01*
X119503269Y-76536556D02*
X119503269Y-76516556D01*
X119503269Y-76116556D02*
X119503269Y-76096556D01*
X119503269Y-75696556D02*
X119503269Y-75676556D01*
X119503269Y-75276556D02*
X119503269Y-75256556D01*
X119503269Y-74856556D02*
X119503269Y-74836556D01*
X119503269Y-74436556D02*
X119503269Y-74416556D01*
X119503269Y-74016556D02*
X119503269Y-73996556D01*
X119503269Y-73596556D02*
X119503269Y-73576556D01*
X119503269Y-73176556D02*
X119503269Y-73156556D01*
X119503269Y-72756556D02*
X119503269Y-72736556D01*
X119503269Y-72336556D02*
X119503269Y-72316556D01*
X119503269Y-71916556D02*
X119503269Y-71896556D01*
X119503269Y-71496556D02*
X119503269Y-71476556D01*
X119503269Y-71076556D02*
X119503269Y-71056556D01*
X119503269Y-70656556D02*
X119503269Y-70636556D01*
X119503269Y-70236556D02*
X119503269Y-70216556D01*
X119503269Y-69816556D02*
X119503269Y-69796556D01*
X119503269Y-69396556D02*
X119503269Y-69376556D01*
X119503269Y-68976556D02*
X119503269Y-68956556D01*
X119503269Y-68556556D02*
X119503269Y-68536556D01*
X119503269Y-68136556D02*
X119503269Y-68116556D01*
X119503269Y-67716556D02*
X119503269Y-67696556D01*
X119503269Y-67296556D02*
X119503269Y-67276556D01*
X119503269Y-66876556D02*
X119503269Y-66856556D01*
X119503269Y-66456556D02*
X119503269Y-66436556D01*
X119503269Y-66036556D02*
X119503269Y-66016556D01*
X119503269Y-65616556D02*
X119503269Y-65596556D01*
X119503269Y-65196556D02*
X119503269Y-65176556D01*
X119503269Y-64776556D02*
X119503269Y-64756556D01*
X119503269Y-64356556D02*
X119503269Y-64336556D01*
X119503269Y-63936556D02*
X119503269Y-63916556D01*
X119503269Y-63516556D02*
X119503269Y-63496556D01*
X119503269Y-63096556D02*
X119503269Y-63076556D01*
X119503269Y-62676556D02*
X119503269Y-62656556D01*
X119503269Y-62256556D02*
X119503269Y-62236556D01*
X119503269Y-61836556D02*
X119503269Y-61816556D01*
X119503269Y-61416556D02*
X119503269Y-61396556D01*
X119503269Y-60996556D02*
X119503269Y-60976556D01*
X119503269Y-60576556D02*
X119503269Y-60556556D01*
X119503269Y-60156556D02*
X119503269Y-60136556D01*
X119503269Y-59736556D02*
X119503269Y-59716556D01*
X119503269Y-59316556D02*
X119503269Y-59296556D01*
X119503269Y-58896556D02*
X119503269Y-58876556D01*
X119503269Y-58476556D02*
X119503269Y-58456556D01*
X119503269Y-58056556D02*
X119503269Y-58036556D01*
X119503269Y-57636556D02*
X119503269Y-57616556D01*
X119503269Y-57216556D02*
X119503269Y-57196556D01*
X119503269Y-56796556D02*
X119503269Y-56776556D01*
X119503269Y-56376556D02*
X119503269Y-56356556D01*
X119503269Y-55956556D02*
X119503269Y-55936556D01*
X119503269Y-55536556D02*
X119503269Y-55516556D01*
X119503269Y-55116556D02*
X119503269Y-55096556D01*
X119503269Y-54696556D02*
X119503269Y-54676556D01*
X119503269Y-54276556D02*
X119503269Y-54256556D01*
X119503269Y-53856556D02*
X119503269Y-53836556D01*
X119503269Y-53436556D02*
X119503269Y-53416556D01*
X119503269Y-53016556D02*
X119503269Y-52996556D01*
X119503269Y-52596556D02*
X119503269Y-52576556D01*
X119503269Y-52176556D02*
X119503269Y-52156556D01*
X119503269Y-51756556D02*
X119503269Y-51736556D01*
X119503269Y-51336556D02*
X119503269Y-51316556D01*
X119503269Y-50916556D02*
X119503269Y-50896556D01*
X119503269Y-50496556D02*
X119503269Y-50476556D01*
X119503269Y-50076556D02*
X119503269Y-50056556D01*
X119503269Y-49656556D02*
X119503269Y-49636556D01*
X119503269Y-49236556D02*
X119503269Y-49216556D01*
X119503269Y-48816556D02*
X119503269Y-48796556D01*
X119503269Y-48396556D02*
X119503269Y-48376556D01*
X119503269Y-47976556D02*
X119503269Y-47956556D01*
X119503269Y-47556556D02*
X119503269Y-47536556D01*
X119503269Y-47136556D02*
X119503269Y-47116556D01*
X119503269Y-46716556D02*
X119503269Y-46696556D01*
X119503269Y-46296556D02*
X119503269Y-46276556D01*
X119503269Y-45876556D02*
X119503269Y-45856556D01*
X119503269Y-45456556D02*
X119503269Y-45436556D01*
X119503269Y-45036556D02*
X119503269Y-45016556D01*
X119503269Y-44616556D02*
X119503269Y-44596556D01*
X119503269Y-44196556D02*
X119503269Y-44176556D01*
X119503269Y-43776556D02*
X119503269Y-43756556D01*
X119503269Y-43356556D02*
X119503269Y-43336556D01*
X119503269Y-42936556D02*
X119503269Y-42916556D01*
X119503269Y-42516556D02*
X119503269Y-42496556D01*
X119503269Y-42096556D02*
X119503269Y-42076556D01*
X119503269Y-41676556D02*
X119503269Y-41656556D01*
X119503269Y-41256556D02*
X119503269Y-41236556D01*
X119503269Y-40836556D02*
X119503269Y-40816556D01*
X119503269Y-40416556D02*
X119503269Y-40396556D01*
X119503269Y-39996556D02*
X119503269Y-39976556D01*
X119503269Y-39576556D02*
X119503269Y-39556556D01*
X119503269Y-39156556D02*
X119503269Y-39136556D01*
X119503269Y-38736556D02*
X119503269Y-38716556D01*
X119503269Y-38316556D02*
X119503269Y-38296556D01*
X119503269Y-37896556D02*
X119503269Y-37876556D01*
X119503269Y-37476556D02*
X119503269Y-37456556D01*
X119503269Y-37056556D02*
X119503269Y-37036556D01*
X119503269Y-36636556D02*
X119503269Y-36616556D01*
X119503269Y-36216556D02*
X119503269Y-36196556D01*
X119503269Y-35796556D02*
X119503269Y-35776556D01*
X119503269Y-35376556D02*
X119503269Y-35356556D01*
D11*
X137063694Y-39862238D02*
X136111313Y-39862238D01*
X136111313Y-39862238D02*
X136111313Y-37862238D01*
X137730361Y-39862238D02*
X137730361Y-37862238D01*
X137730361Y-37862238D02*
X138492266Y-37862238D01*
X138492266Y-37862238D02*
X138682742Y-37957476D01*
X138682742Y-37957476D02*
X138777980Y-38052714D01*
X138777980Y-38052714D02*
X138873218Y-38243190D01*
X138873218Y-38243190D02*
X138873218Y-38528904D01*
X138873218Y-38528904D02*
X138777980Y-38719380D01*
X138777980Y-38719380D02*
X138682742Y-38814619D01*
X138682742Y-38814619D02*
X138492266Y-38909857D01*
X138492266Y-38909857D02*
X137730361Y-38909857D01*
X139730361Y-39100333D02*
X141254171Y-39100333D01*
X142206551Y-39862238D02*
X142206551Y-37862238D01*
X142206551Y-37862238D02*
X142873218Y-39290809D01*
X142873218Y-39290809D02*
X143539884Y-37862238D01*
X143539884Y-37862238D02*
X143539884Y-39862238D01*
X144397027Y-39767000D02*
X144682741Y-39862238D01*
X144682741Y-39862238D02*
X145158932Y-39862238D01*
X145158932Y-39862238D02*
X145349408Y-39767000D01*
X145349408Y-39767000D02*
X145444646Y-39671761D01*
X145444646Y-39671761D02*
X145539884Y-39481285D01*
X145539884Y-39481285D02*
X145539884Y-39290809D01*
X145539884Y-39290809D02*
X145444646Y-39100333D01*
X145444646Y-39100333D02*
X145349408Y-39005095D01*
X145349408Y-39005095D02*
X145158932Y-38909857D01*
X145158932Y-38909857D02*
X144777979Y-38814619D01*
X144777979Y-38814619D02*
X144587503Y-38719380D01*
X144587503Y-38719380D02*
X144492265Y-38624142D01*
X144492265Y-38624142D02*
X144397027Y-38433666D01*
X144397027Y-38433666D02*
X144397027Y-38243190D01*
X144397027Y-38243190D02*
X144492265Y-38052714D01*
X144492265Y-38052714D02*
X144587503Y-37957476D01*
X144587503Y-37957476D02*
X144777979Y-37862238D01*
X144777979Y-37862238D02*
X145254170Y-37862238D01*
X145254170Y-37862238D02*
X145539884Y-37957476D01*
X146397027Y-39862238D02*
X146397027Y-37862238D01*
X146397027Y-37862238D02*
X147158932Y-37862238D01*
X147158932Y-37862238D02*
X147349408Y-37957476D01*
X147349408Y-37957476D02*
X147444646Y-38052714D01*
X147444646Y-38052714D02*
X147539884Y-38243190D01*
X147539884Y-38243190D02*
X147539884Y-38528904D01*
X147539884Y-38528904D02*
X147444646Y-38719380D01*
X147444646Y-38719380D02*
X147349408Y-38814619D01*
X147349408Y-38814619D02*
X147158932Y-38909857D01*
X147158932Y-38909857D02*
X146397027Y-38909857D01*
X148397027Y-39862238D02*
X148397027Y-37862238D01*
X148397027Y-37862238D02*
X149063694Y-39290809D01*
X149063694Y-39290809D02*
X149730360Y-37862238D01*
X149730360Y-37862238D02*
X149730360Y-39862238D01*
X151063693Y-37862238D02*
X151254170Y-37862238D01*
X151254170Y-37862238D02*
X151444646Y-37957476D01*
X151444646Y-37957476D02*
X151539884Y-38052714D01*
X151539884Y-38052714D02*
X151635122Y-38243190D01*
X151635122Y-38243190D02*
X151730360Y-38624142D01*
X151730360Y-38624142D02*
X151730360Y-39100333D01*
X151730360Y-39100333D02*
X151635122Y-39481285D01*
X151635122Y-39481285D02*
X151539884Y-39671761D01*
X151539884Y-39671761D02*
X151444646Y-39767000D01*
X151444646Y-39767000D02*
X151254170Y-39862238D01*
X151254170Y-39862238D02*
X151063693Y-39862238D01*
X151063693Y-39862238D02*
X150873217Y-39767000D01*
X150873217Y-39767000D02*
X150777979Y-39671761D01*
X150777979Y-39671761D02*
X150682741Y-39481285D01*
X150682741Y-39481285D02*
X150587503Y-39100333D01*
X150587503Y-39100333D02*
X150587503Y-38624142D01*
X150587503Y-38624142D02*
X150682741Y-38243190D01*
X150682741Y-38243190D02*
X150777979Y-38052714D01*
X150777979Y-38052714D02*
X150873217Y-37957476D01*
X150873217Y-37957476D02*
X151063693Y-37862238D01*
X153635122Y-37957476D02*
X153444646Y-37862238D01*
X153444646Y-37862238D02*
X153158932Y-37862238D01*
X153158932Y-37862238D02*
X152873217Y-37957476D01*
X152873217Y-37957476D02*
X152682741Y-38147952D01*
X152682741Y-38147952D02*
X152587503Y-38338428D01*
X152587503Y-38338428D02*
X152492265Y-38719380D01*
X152492265Y-38719380D02*
X152492265Y-39005095D01*
X152492265Y-39005095D02*
X152587503Y-39386047D01*
X152587503Y-39386047D02*
X152682741Y-39576523D01*
X152682741Y-39576523D02*
X152873217Y-39767000D01*
X152873217Y-39767000D02*
X153158932Y-39862238D01*
X153158932Y-39862238D02*
X153349408Y-39862238D01*
X153349408Y-39862238D02*
X153635122Y-39767000D01*
X153635122Y-39767000D02*
X153730360Y-39671761D01*
X153730360Y-39671761D02*
X153730360Y-39005095D01*
X153730360Y-39005095D02*
X153349408Y-39005095D01*
X154397027Y-37862238D02*
X155635122Y-37862238D01*
X155635122Y-37862238D02*
X154968455Y-38624142D01*
X154968455Y-38624142D02*
X155254170Y-38624142D01*
X155254170Y-38624142D02*
X155444646Y-38719380D01*
X155444646Y-38719380D02*
X155539884Y-38814619D01*
X155539884Y-38814619D02*
X155635122Y-39005095D01*
X155635122Y-39005095D02*
X155635122Y-39481285D01*
X155635122Y-39481285D02*
X155539884Y-39671761D01*
X155539884Y-39671761D02*
X155444646Y-39767000D01*
X155444646Y-39767000D02*
X155254170Y-39862238D01*
X155254170Y-39862238D02*
X154682741Y-39862238D01*
X154682741Y-39862238D02*
X154492265Y-39767000D01*
X154492265Y-39767000D02*
X154397027Y-39671761D01*
X157444646Y-37862238D02*
X156492265Y-37862238D01*
X156492265Y-37862238D02*
X156397027Y-38814619D01*
X156397027Y-38814619D02*
X156492265Y-38719380D01*
X156492265Y-38719380D02*
X156682741Y-38624142D01*
X156682741Y-38624142D02*
X157158932Y-38624142D01*
X157158932Y-38624142D02*
X157349408Y-38719380D01*
X157349408Y-38719380D02*
X157444646Y-38814619D01*
X157444646Y-38814619D02*
X157539884Y-39005095D01*
X157539884Y-39005095D02*
X157539884Y-39481285D01*
X157539884Y-39481285D02*
X157444646Y-39671761D01*
X157444646Y-39671761D02*
X157349408Y-39767000D01*
X157349408Y-39767000D02*
X157158932Y-39862238D01*
X157158932Y-39862238D02*
X156682741Y-39862238D01*
X156682741Y-39862238D02*
X156492265Y-39767000D01*
X156492265Y-39767000D02*
X156397027Y-39671761D01*
X158777979Y-37862238D02*
X158968456Y-37862238D01*
X158968456Y-37862238D02*
X159158932Y-37957476D01*
X159158932Y-37957476D02*
X159254170Y-38052714D01*
X159254170Y-38052714D02*
X159349408Y-38243190D01*
X159349408Y-38243190D02*
X159444646Y-38624142D01*
X159444646Y-38624142D02*
X159444646Y-39100333D01*
X159444646Y-39100333D02*
X159349408Y-39481285D01*
X159349408Y-39481285D02*
X159254170Y-39671761D01*
X159254170Y-39671761D02*
X159158932Y-39767000D01*
X159158932Y-39767000D02*
X158968456Y-39862238D01*
X158968456Y-39862238D02*
X158777979Y-39862238D01*
X158777979Y-39862238D02*
X158587503Y-39767000D01*
X158587503Y-39767000D02*
X158492265Y-39671761D01*
X158492265Y-39671761D02*
X158397027Y-39481285D01*
X158397027Y-39481285D02*
X158301789Y-39100333D01*
X158301789Y-39100333D02*
X158301789Y-38624142D01*
X158301789Y-38624142D02*
X158397027Y-38243190D01*
X158397027Y-38243190D02*
X158492265Y-38052714D01*
X158492265Y-38052714D02*
X158587503Y-37957476D01*
X158587503Y-37957476D02*
X158777979Y-37862238D01*
X160111313Y-37862238D02*
X161444646Y-37862238D01*
X161444646Y-37862238D02*
X160587503Y-39862238D01*
D12*
X147264697Y-29364819D02*
X146788507Y-29364819D01*
X146788507Y-29364819D02*
X146740888Y-29841009D01*
X146740888Y-29841009D02*
X146788507Y-29793390D01*
X146788507Y-29793390D02*
X146883745Y-29745771D01*
X146883745Y-29745771D02*
X147121840Y-29745771D01*
X147121840Y-29745771D02*
X147217078Y-29793390D01*
X147217078Y-29793390D02*
X147264697Y-29841009D01*
X147264697Y-29841009D02*
X147312316Y-29936247D01*
X147312316Y-29936247D02*
X147312316Y-30174342D01*
X147312316Y-30174342D02*
X147264697Y-30269580D01*
X147264697Y-30269580D02*
X147217078Y-30317200D01*
X147217078Y-30317200D02*
X147121840Y-30364819D01*
X147121840Y-30364819D02*
X146883745Y-30364819D01*
X146883745Y-30364819D02*
X146788507Y-30317200D01*
X146788507Y-30317200D02*
X146740888Y-30269580D01*
X147883745Y-29793390D02*
X147788507Y-29745771D01*
X147788507Y-29745771D02*
X147740888Y-29698152D01*
X147740888Y-29698152D02*
X147693269Y-29602914D01*
X147693269Y-29602914D02*
X147693269Y-29555295D01*
X147693269Y-29555295D02*
X147740888Y-29460057D01*
X147740888Y-29460057D02*
X147788507Y-29412438D01*
X147788507Y-29412438D02*
X147883745Y-29364819D01*
X147883745Y-29364819D02*
X148074221Y-29364819D01*
X148074221Y-29364819D02*
X148169459Y-29412438D01*
X148169459Y-29412438D02*
X148217078Y-29460057D01*
X148217078Y-29460057D02*
X148264697Y-29555295D01*
X148264697Y-29555295D02*
X148264697Y-29602914D01*
X148264697Y-29602914D02*
X148217078Y-29698152D01*
X148217078Y-29698152D02*
X148169459Y-29745771D01*
X148169459Y-29745771D02*
X148074221Y-29793390D01*
X148074221Y-29793390D02*
X147883745Y-29793390D01*
X147883745Y-29793390D02*
X147788507Y-29841009D01*
X147788507Y-29841009D02*
X147740888Y-29888628D01*
X147740888Y-29888628D02*
X147693269Y-29983866D01*
X147693269Y-29983866D02*
X147693269Y-30174342D01*
X147693269Y-30174342D02*
X147740888Y-30269580D01*
X147740888Y-30269580D02*
X147788507Y-30317200D01*
X147788507Y-30317200D02*
X147883745Y-30364819D01*
X147883745Y-30364819D02*
X148074221Y-30364819D01*
X148074221Y-30364819D02*
X148169459Y-30317200D01*
X148169459Y-30317200D02*
X148217078Y-30269580D01*
X148217078Y-30269580D02*
X148264697Y-30174342D01*
X148264697Y-30174342D02*
X148264697Y-29983866D01*
X148264697Y-29983866D02*
X148217078Y-29888628D01*
X148217078Y-29888628D02*
X148169459Y-29841009D01*
X148169459Y-29841009D02*
X148074221Y-29793390D01*
X148693269Y-30269580D02*
X148740888Y-30317200D01*
X148740888Y-30317200D02*
X148693269Y-30364819D01*
X148693269Y-30364819D02*
X148645650Y-30317200D01*
X148645650Y-30317200D02*
X148693269Y-30269580D01*
X148693269Y-30269580D02*
X148693269Y-30364819D01*
X149074221Y-29364819D02*
X149693268Y-29364819D01*
X149693268Y-29364819D02*
X149359935Y-29745771D01*
X149359935Y-29745771D02*
X149502792Y-29745771D01*
X149502792Y-29745771D02*
X149598030Y-29793390D01*
X149598030Y-29793390D02*
X149645649Y-29841009D01*
X149645649Y-29841009D02*
X149693268Y-29936247D01*
X149693268Y-29936247D02*
X149693268Y-30174342D01*
X149693268Y-30174342D02*
X149645649Y-30269580D01*
X149645649Y-30269580D02*
X149598030Y-30317200D01*
X149598030Y-30317200D02*
X149502792Y-30364819D01*
X149502792Y-30364819D02*
X149217078Y-30364819D01*
X149217078Y-30364819D02*
X149121840Y-30317200D01*
X149121840Y-30317200D02*
X149074221Y-30269580D01*
X150264697Y-29793390D02*
X150169459Y-29745771D01*
X150169459Y-29745771D02*
X150121840Y-29698152D01*
X150121840Y-29698152D02*
X150074221Y-29602914D01*
X150074221Y-29602914D02*
X150074221Y-29555295D01*
X150074221Y-29555295D02*
X150121840Y-29460057D01*
X150121840Y-29460057D02*
X150169459Y-29412438D01*
X150169459Y-29412438D02*
X150264697Y-29364819D01*
X150264697Y-29364819D02*
X150455173Y-29364819D01*
X150455173Y-29364819D02*
X150550411Y-29412438D01*
X150550411Y-29412438D02*
X150598030Y-29460057D01*
X150598030Y-29460057D02*
X150645649Y-29555295D01*
X150645649Y-29555295D02*
X150645649Y-29602914D01*
X150645649Y-29602914D02*
X150598030Y-29698152D01*
X150598030Y-29698152D02*
X150550411Y-29745771D01*
X150550411Y-29745771D02*
X150455173Y-29793390D01*
X150455173Y-29793390D02*
X150264697Y-29793390D01*
X150264697Y-29793390D02*
X150169459Y-29841009D01*
X150169459Y-29841009D02*
X150121840Y-29888628D01*
X150121840Y-29888628D02*
X150074221Y-29983866D01*
X150074221Y-29983866D02*
X150074221Y-30174342D01*
X150074221Y-30174342D02*
X150121840Y-30269580D01*
X150121840Y-30269580D02*
X150169459Y-30317200D01*
X150169459Y-30317200D02*
X150264697Y-30364819D01*
X150264697Y-30364819D02*
X150455173Y-30364819D01*
X150455173Y-30364819D02*
X150550411Y-30317200D01*
X150550411Y-30317200D02*
X150598030Y-30269580D01*
X150598030Y-30269580D02*
X150645649Y-30174342D01*
X150645649Y-30174342D02*
X150645649Y-29983866D01*
X150645649Y-29983866D02*
X150598030Y-29888628D01*
X150598030Y-29888628D02*
X150550411Y-29841009D01*
X150550411Y-29841009D02*
X150455173Y-29793390D01*
D10*
X119503269Y-34606556D02*
X119503269Y-30473580D01*
X177883269Y-30473580D02*
X177883269Y-34606556D01*
X119503269Y-31060000D02*
X177883269Y-31060000D01*
X119503269Y-31060000D02*
X120629773Y-30473579D01*
X119503269Y-31060000D02*
X120629773Y-31646421D01*
X177883269Y-31060000D02*
X176756765Y-31646421D01*
X177883269Y-31060000D02*
X176756765Y-30473579D01*
D12*
X187114819Y-90228698D02*
X187114819Y-90800126D01*
X187114819Y-90514412D02*
X186114819Y-90514412D01*
X186114819Y-90514412D02*
X186257676Y-90609650D01*
X186257676Y-90609650D02*
X186352914Y-90704888D01*
X186352914Y-90704888D02*
X186400533Y-90800126D01*
X186114819Y-89609650D02*
X186114819Y-89514412D01*
X186114819Y-89514412D02*
X186162438Y-89419174D01*
X186162438Y-89419174D02*
X186210057Y-89371555D01*
X186210057Y-89371555D02*
X186305295Y-89323936D01*
X186305295Y-89323936D02*
X186495771Y-89276317D01*
X186495771Y-89276317D02*
X186733866Y-89276317D01*
X186733866Y-89276317D02*
X186924342Y-89323936D01*
X186924342Y-89323936D02*
X187019580Y-89371555D01*
X187019580Y-89371555D02*
X187067200Y-89419174D01*
X187067200Y-89419174D02*
X187114819Y-89514412D01*
X187114819Y-89514412D02*
X187114819Y-89609650D01*
X187114819Y-89609650D02*
X187067200Y-89704888D01*
X187067200Y-89704888D02*
X187019580Y-89752507D01*
X187019580Y-89752507D02*
X186924342Y-89800126D01*
X186924342Y-89800126D02*
X186733866Y-89847745D01*
X186733866Y-89847745D02*
X186495771Y-89847745D01*
X186495771Y-89847745D02*
X186305295Y-89800126D01*
X186305295Y-89800126D02*
X186210057Y-89752507D01*
X186210057Y-89752507D02*
X186162438Y-89704888D01*
X186162438Y-89704888D02*
X186114819Y-89609650D01*
X186114819Y-88419174D02*
X186114819Y-88609650D01*
X186114819Y-88609650D02*
X186162438Y-88704888D01*
X186162438Y-88704888D02*
X186210057Y-88752507D01*
X186210057Y-88752507D02*
X186352914Y-88847745D01*
X186352914Y-88847745D02*
X186543390Y-88895364D01*
X186543390Y-88895364D02*
X186924342Y-88895364D01*
X186924342Y-88895364D02*
X187019580Y-88847745D01*
X187019580Y-88847745D02*
X187067200Y-88800126D01*
X187067200Y-88800126D02*
X187114819Y-88704888D01*
X187114819Y-88704888D02*
X187114819Y-88514412D01*
X187114819Y-88514412D02*
X187067200Y-88419174D01*
X187067200Y-88419174D02*
X187019580Y-88371555D01*
X187019580Y-88371555D02*
X186924342Y-88323936D01*
X186924342Y-88323936D02*
X186686247Y-88323936D01*
X186686247Y-88323936D02*
X186591009Y-88371555D01*
X186591009Y-88371555D02*
X186543390Y-88419174D01*
X186543390Y-88419174D02*
X186495771Y-88514412D01*
X186495771Y-88514412D02*
X186495771Y-88704888D01*
X186495771Y-88704888D02*
X186543390Y-88800126D01*
X186543390Y-88800126D02*
X186591009Y-88847745D01*
X186591009Y-88847745D02*
X186686247Y-88895364D01*
X187019580Y-87895364D02*
X187067200Y-87847745D01*
X187067200Y-87847745D02*
X187114819Y-87895364D01*
X187114819Y-87895364D02*
X187067200Y-87942983D01*
X187067200Y-87942983D02*
X187019580Y-87895364D01*
X187019580Y-87895364D02*
X187114819Y-87895364D01*
X186114819Y-86942984D02*
X186114819Y-87419174D01*
X186114819Y-87419174D02*
X186591009Y-87466793D01*
X186591009Y-87466793D02*
X186543390Y-87419174D01*
X186543390Y-87419174D02*
X186495771Y-87323936D01*
X186495771Y-87323936D02*
X186495771Y-87085841D01*
X186495771Y-87085841D02*
X186543390Y-86990603D01*
X186543390Y-86990603D02*
X186591009Y-86942984D01*
X186591009Y-86942984D02*
X186686247Y-86895365D01*
X186686247Y-86895365D02*
X186924342Y-86895365D01*
X186924342Y-86895365D02*
X187019580Y-86942984D01*
X187019580Y-86942984D02*
X187067200Y-86990603D01*
X187067200Y-86990603D02*
X187114819Y-87085841D01*
X187114819Y-87085841D02*
X187114819Y-87323936D01*
X187114819Y-87323936D02*
X187067200Y-87419174D01*
X187067200Y-87419174D02*
X187019580Y-87466793D01*
X186114819Y-86562031D02*
X186114819Y-85942984D01*
X186114819Y-85942984D02*
X186495771Y-86276317D01*
X186495771Y-86276317D02*
X186495771Y-86133460D01*
X186495771Y-86133460D02*
X186543390Y-86038222D01*
X186543390Y-86038222D02*
X186591009Y-85990603D01*
X186591009Y-85990603D02*
X186686247Y-85942984D01*
X186686247Y-85942984D02*
X186924342Y-85942984D01*
X186924342Y-85942984D02*
X187019580Y-85990603D01*
X187019580Y-85990603D02*
X187067200Y-86038222D01*
X187067200Y-86038222D02*
X187114819Y-86133460D01*
X187114819Y-86133460D02*
X187114819Y-86419174D01*
X187114819Y-86419174D02*
X187067200Y-86514412D01*
X187067200Y-86514412D02*
X187019580Y-86562031D01*
D10*
X178383269Y-35106556D02*
X188396420Y-35106556D01*
X188396420Y-141636556D02*
X178383269Y-141636556D01*
X187810000Y-35106556D02*
X187810000Y-141636556D01*
X187810000Y-35106556D02*
X188396421Y-36233060D01*
X187810000Y-35106556D02*
X187223579Y-36233060D01*
X187810000Y-141636556D02*
X187223579Y-140510052D01*
X187810000Y-141636556D02*
X188396421Y-140510052D01*
M02*
