%TF.GenerationSoftware,KiCad,Pcbnew,9.0.1+1*%
%TF.CreationDate,2026-01-16T02:21:40+00:00*%
%TF.ProjectId,CSC202_LP_MSPM0G3507_2TERM_BREAKOUT,43534332-3032-45f4-9c50-5f4d53504d30,A*%
%TF.SameCoordinates,Original*%
%TF.FileFunction,AssemblyDrawing,Bot*%
%FSLAX46Y46*%
G04 Gerber Fmt 4.6, Leading zero omitted, Abs format (unit mm)*
G04 Created by KiCad (PCBNEW 9.0.1+1) date 2026-01-16 02:21:40*
%MOMM*%
%LPD*%
G01*
G04 APERTURE LIST*
%ADD10C,0.150000*%
%ADD11C,0.100000*%
G04 APERTURE END LIST*
D10*
X109659753Y-112387419D02*
X109659753Y-113101704D01*
X109659753Y-113101704D02*
X109707372Y-113244561D01*
X109707372Y-113244561D02*
X109802610Y-113339800D01*
X109802610Y-113339800D02*
X109945467Y-113387419D01*
X109945467Y-113387419D02*
X110040705Y-113387419D01*
X109421658Y-113482657D02*
X108659753Y-113482657D01*
X108231181Y-112387419D02*
X108040705Y-112387419D01*
X108040705Y-112387419D02*
X107945467Y-112435038D01*
X107945467Y-112435038D02*
X107850229Y-112530276D01*
X107850229Y-112530276D02*
X107802610Y-112720752D01*
X107802610Y-112720752D02*
X107802610Y-113054085D01*
X107802610Y-113054085D02*
X107850229Y-113244561D01*
X107850229Y-113244561D02*
X107945467Y-113339800D01*
X107945467Y-113339800D02*
X108040705Y-113387419D01*
X108040705Y-113387419D02*
X108231181Y-113387419D01*
X108231181Y-113387419D02*
X108326419Y-113339800D01*
X108326419Y-113339800D02*
X108421657Y-113244561D01*
X108421657Y-113244561D02*
X108469276Y-113054085D01*
X108469276Y-113054085D02*
X108469276Y-112720752D01*
X108469276Y-112720752D02*
X108421657Y-112530276D01*
X108421657Y-112530276D02*
X108326419Y-112435038D01*
X108326419Y-112435038D02*
X108231181Y-112387419D01*
X107374038Y-112387419D02*
X107374038Y-113196942D01*
X107374038Y-113196942D02*
X107326419Y-113292180D01*
X107326419Y-113292180D02*
X107278800Y-113339800D01*
X107278800Y-113339800D02*
X107183562Y-113387419D01*
X107183562Y-113387419D02*
X106993086Y-113387419D01*
X106993086Y-113387419D02*
X106897848Y-113339800D01*
X106897848Y-113339800D02*
X106850229Y-113292180D01*
X106850229Y-113292180D02*
X106802610Y-113196942D01*
X106802610Y-113196942D02*
X106802610Y-112387419D01*
X106469276Y-112387419D02*
X105897848Y-112387419D01*
X106183562Y-113387419D02*
X106183562Y-112387419D01*
X105659752Y-112387419D02*
X105040705Y-112387419D01*
X105040705Y-112387419D02*
X105374038Y-112768371D01*
X105374038Y-112768371D02*
X105231181Y-112768371D01*
X105231181Y-112768371D02*
X105135943Y-112815990D01*
X105135943Y-112815990D02*
X105088324Y-112863609D01*
X105088324Y-112863609D02*
X105040705Y-112958847D01*
X105040705Y-112958847D02*
X105040705Y-113196942D01*
X105040705Y-113196942D02*
X105088324Y-113292180D01*
X105088324Y-113292180D02*
X105135943Y-113339800D01*
X105135943Y-113339800D02*
X105231181Y-113387419D01*
X105231181Y-113387419D02*
X105516895Y-113387419D01*
X105516895Y-113387419D02*
X105612133Y-113339800D01*
X105612133Y-113339800D02*
X105659752Y-113292180D01*
X106988115Y-98527666D02*
X107702400Y-98527666D01*
X107702400Y-98527666D02*
X107845257Y-98480047D01*
X107845257Y-98480047D02*
X107940496Y-98384809D01*
X107940496Y-98384809D02*
X107988115Y-98241952D01*
X107988115Y-98241952D02*
X107988115Y-98146714D01*
X107321448Y-99432428D02*
X107988115Y-99432428D01*
X106940496Y-99194333D02*
X107654781Y-98956238D01*
X107654781Y-98956238D02*
X107654781Y-99575285D01*
X164369684Y-112555819D02*
X164369684Y-113270104D01*
X164369684Y-113270104D02*
X164417303Y-113412961D01*
X164417303Y-113412961D02*
X164512541Y-113508200D01*
X164512541Y-113508200D02*
X164655398Y-113555819D01*
X164655398Y-113555819D02*
X164750636Y-113555819D01*
X164131589Y-113651057D02*
X163369684Y-113651057D01*
X162941112Y-112555819D02*
X162750636Y-112555819D01*
X162750636Y-112555819D02*
X162655398Y-112603438D01*
X162655398Y-112603438D02*
X162560160Y-112698676D01*
X162560160Y-112698676D02*
X162512541Y-112889152D01*
X162512541Y-112889152D02*
X162512541Y-113222485D01*
X162512541Y-113222485D02*
X162560160Y-113412961D01*
X162560160Y-113412961D02*
X162655398Y-113508200D01*
X162655398Y-113508200D02*
X162750636Y-113555819D01*
X162750636Y-113555819D02*
X162941112Y-113555819D01*
X162941112Y-113555819D02*
X163036350Y-113508200D01*
X163036350Y-113508200D02*
X163131588Y-113412961D01*
X163131588Y-113412961D02*
X163179207Y-113222485D01*
X163179207Y-113222485D02*
X163179207Y-112889152D01*
X163179207Y-112889152D02*
X163131588Y-112698676D01*
X163131588Y-112698676D02*
X163036350Y-112603438D01*
X163036350Y-112603438D02*
X162941112Y-112555819D01*
X162083969Y-112555819D02*
X162083969Y-113365342D01*
X162083969Y-113365342D02*
X162036350Y-113460580D01*
X162036350Y-113460580D02*
X161988731Y-113508200D01*
X161988731Y-113508200D02*
X161893493Y-113555819D01*
X161893493Y-113555819D02*
X161703017Y-113555819D01*
X161703017Y-113555819D02*
X161607779Y-113508200D01*
X161607779Y-113508200D02*
X161560160Y-113460580D01*
X161560160Y-113460580D02*
X161512541Y-113365342D01*
X161512541Y-113365342D02*
X161512541Y-112555819D01*
X161179207Y-112555819D02*
X160607779Y-112555819D01*
X160893493Y-113555819D02*
X160893493Y-112555819D01*
X160322064Y-112651057D02*
X160274445Y-112603438D01*
X160274445Y-112603438D02*
X160179207Y-112555819D01*
X160179207Y-112555819D02*
X159941112Y-112555819D01*
X159941112Y-112555819D02*
X159845874Y-112603438D01*
X159845874Y-112603438D02*
X159798255Y-112651057D01*
X159798255Y-112651057D02*
X159750636Y-112746295D01*
X159750636Y-112746295D02*
X159750636Y-112841533D01*
X159750636Y-112841533D02*
X159798255Y-112984390D01*
X159798255Y-112984390D02*
X160369683Y-113555819D01*
X160369683Y-113555819D02*
X159750636Y-113555819D01*
X170621584Y-98527666D02*
X171335869Y-98527666D01*
X171335869Y-98527666D02*
X171478726Y-98480047D01*
X171478726Y-98480047D02*
X171573965Y-98384809D01*
X171573965Y-98384809D02*
X171621584Y-98241952D01*
X171621584Y-98241952D02*
X171621584Y-98146714D01*
X170621584Y-99432428D02*
X170621584Y-99241952D01*
X170621584Y-99241952D02*
X170669203Y-99146714D01*
X170669203Y-99146714D02*
X170716822Y-99099095D01*
X170716822Y-99099095D02*
X170859679Y-99003857D01*
X170859679Y-99003857D02*
X171050155Y-98956238D01*
X171050155Y-98956238D02*
X171431107Y-98956238D01*
X171431107Y-98956238D02*
X171526345Y-99003857D01*
X171526345Y-99003857D02*
X171573965Y-99051476D01*
X171573965Y-99051476D02*
X171621584Y-99146714D01*
X171621584Y-99146714D02*
X171621584Y-99337190D01*
X171621584Y-99337190D02*
X171573965Y-99432428D01*
X171573965Y-99432428D02*
X171526345Y-99480047D01*
X171526345Y-99480047D02*
X171431107Y-99527666D01*
X171431107Y-99527666D02*
X171193012Y-99527666D01*
X171193012Y-99527666D02*
X171097774Y-99480047D01*
X171097774Y-99480047D02*
X171050155Y-99432428D01*
X171050155Y-99432428D02*
X171002536Y-99337190D01*
X171002536Y-99337190D02*
X171002536Y-99146714D01*
X171002536Y-99146714D02*
X171050155Y-99051476D01*
X171050155Y-99051476D02*
X171097774Y-99003857D01*
X171097774Y-99003857D02*
X171193012Y-98956238D01*
X102397153Y-112366419D02*
X102397153Y-113080704D01*
X102397153Y-113080704D02*
X102444772Y-113223561D01*
X102444772Y-113223561D02*
X102540010Y-113318800D01*
X102540010Y-113318800D02*
X102682867Y-113366419D01*
X102682867Y-113366419D02*
X102778105Y-113366419D01*
X102159058Y-113461657D02*
X101397153Y-113461657D01*
X100968581Y-112366419D02*
X100778105Y-112366419D01*
X100778105Y-112366419D02*
X100682867Y-112414038D01*
X100682867Y-112414038D02*
X100587629Y-112509276D01*
X100587629Y-112509276D02*
X100540010Y-112699752D01*
X100540010Y-112699752D02*
X100540010Y-113033085D01*
X100540010Y-113033085D02*
X100587629Y-113223561D01*
X100587629Y-113223561D02*
X100682867Y-113318800D01*
X100682867Y-113318800D02*
X100778105Y-113366419D01*
X100778105Y-113366419D02*
X100968581Y-113366419D01*
X100968581Y-113366419D02*
X101063819Y-113318800D01*
X101063819Y-113318800D02*
X101159057Y-113223561D01*
X101159057Y-113223561D02*
X101206676Y-113033085D01*
X101206676Y-113033085D02*
X101206676Y-112699752D01*
X101206676Y-112699752D02*
X101159057Y-112509276D01*
X101159057Y-112509276D02*
X101063819Y-112414038D01*
X101063819Y-112414038D02*
X100968581Y-112366419D01*
X100111438Y-112366419D02*
X100111438Y-113175942D01*
X100111438Y-113175942D02*
X100063819Y-113271180D01*
X100063819Y-113271180D02*
X100016200Y-113318800D01*
X100016200Y-113318800D02*
X99920962Y-113366419D01*
X99920962Y-113366419D02*
X99730486Y-113366419D01*
X99730486Y-113366419D02*
X99635248Y-113318800D01*
X99635248Y-113318800D02*
X99587629Y-113271180D01*
X99587629Y-113271180D02*
X99540010Y-113175942D01*
X99540010Y-113175942D02*
X99540010Y-112366419D01*
X99206676Y-112366419D02*
X98635248Y-112366419D01*
X98920962Y-113366419D02*
X98920962Y-112366419D01*
X97778105Y-113366419D02*
X98349533Y-113366419D01*
X98063819Y-113366419D02*
X98063819Y-112366419D01*
X98063819Y-112366419D02*
X98159057Y-112509276D01*
X98159057Y-112509276D02*
X98254295Y-112604514D01*
X98254295Y-112604514D02*
X98349533Y-112652133D01*
X99738115Y-98527666D02*
X100452400Y-98527666D01*
X100452400Y-98527666D02*
X100595257Y-98480047D01*
X100595257Y-98480047D02*
X100690496Y-98384809D01*
X100690496Y-98384809D02*
X100738115Y-98241952D01*
X100738115Y-98241952D02*
X100738115Y-98146714D01*
X99738115Y-98908619D02*
X99738115Y-99527666D01*
X99738115Y-99527666D02*
X100119067Y-99194333D01*
X100119067Y-99194333D02*
X100119067Y-99337190D01*
X100119067Y-99337190D02*
X100166686Y-99432428D01*
X100166686Y-99432428D02*
X100214305Y-99480047D01*
X100214305Y-99480047D02*
X100309543Y-99527666D01*
X100309543Y-99527666D02*
X100547638Y-99527666D01*
X100547638Y-99527666D02*
X100642876Y-99480047D01*
X100642876Y-99480047D02*
X100690496Y-99432428D01*
X100690496Y-99432428D02*
X100738115Y-99337190D01*
X100738115Y-99337190D02*
X100738115Y-99051476D01*
X100738115Y-99051476D02*
X100690496Y-98956238D01*
X100690496Y-98956238D02*
X100642876Y-98908619D01*
X157119684Y-112555819D02*
X157119684Y-113270104D01*
X157119684Y-113270104D02*
X157167303Y-113412961D01*
X157167303Y-113412961D02*
X157262541Y-113508200D01*
X157262541Y-113508200D02*
X157405398Y-113555819D01*
X157405398Y-113555819D02*
X157500636Y-113555819D01*
X156881589Y-113651057D02*
X156119684Y-113651057D01*
X155691112Y-112555819D02*
X155500636Y-112555819D01*
X155500636Y-112555819D02*
X155405398Y-112603438D01*
X155405398Y-112603438D02*
X155310160Y-112698676D01*
X155310160Y-112698676D02*
X155262541Y-112889152D01*
X155262541Y-112889152D02*
X155262541Y-113222485D01*
X155262541Y-113222485D02*
X155310160Y-113412961D01*
X155310160Y-113412961D02*
X155405398Y-113508200D01*
X155405398Y-113508200D02*
X155500636Y-113555819D01*
X155500636Y-113555819D02*
X155691112Y-113555819D01*
X155691112Y-113555819D02*
X155786350Y-113508200D01*
X155786350Y-113508200D02*
X155881588Y-113412961D01*
X155881588Y-113412961D02*
X155929207Y-113222485D01*
X155929207Y-113222485D02*
X155929207Y-112889152D01*
X155929207Y-112889152D02*
X155881588Y-112698676D01*
X155881588Y-112698676D02*
X155786350Y-112603438D01*
X155786350Y-112603438D02*
X155691112Y-112555819D01*
X154833969Y-112555819D02*
X154833969Y-113365342D01*
X154833969Y-113365342D02*
X154786350Y-113460580D01*
X154786350Y-113460580D02*
X154738731Y-113508200D01*
X154738731Y-113508200D02*
X154643493Y-113555819D01*
X154643493Y-113555819D02*
X154453017Y-113555819D01*
X154453017Y-113555819D02*
X154357779Y-113508200D01*
X154357779Y-113508200D02*
X154310160Y-113460580D01*
X154310160Y-113460580D02*
X154262541Y-113365342D01*
X154262541Y-113365342D02*
X154262541Y-112555819D01*
X153929207Y-112555819D02*
X153357779Y-112555819D01*
X153643493Y-113555819D02*
X153643493Y-112555819D01*
X152595874Y-112889152D02*
X152595874Y-113555819D01*
X152833969Y-112508200D02*
X153072064Y-113222485D01*
X153072064Y-113222485D02*
X152453017Y-113222485D01*
X163371584Y-98527666D02*
X164085869Y-98527666D01*
X164085869Y-98527666D02*
X164228726Y-98480047D01*
X164228726Y-98480047D02*
X164323965Y-98384809D01*
X164323965Y-98384809D02*
X164371584Y-98241952D01*
X164371584Y-98241952D02*
X164371584Y-98146714D01*
X163371584Y-99480047D02*
X163371584Y-99003857D01*
X163371584Y-99003857D02*
X163847774Y-98956238D01*
X163847774Y-98956238D02*
X163800155Y-99003857D01*
X163800155Y-99003857D02*
X163752536Y-99099095D01*
X163752536Y-99099095D02*
X163752536Y-99337190D01*
X163752536Y-99337190D02*
X163800155Y-99432428D01*
X163800155Y-99432428D02*
X163847774Y-99480047D01*
X163847774Y-99480047D02*
X163943012Y-99527666D01*
X163943012Y-99527666D02*
X164181107Y-99527666D01*
X164181107Y-99527666D02*
X164276345Y-99480047D01*
X164276345Y-99480047D02*
X164323965Y-99432428D01*
X164323965Y-99432428D02*
X164371584Y-99337190D01*
X164371584Y-99337190D02*
X164371584Y-99099095D01*
X164371584Y-99099095D02*
X164323965Y-99003857D01*
X164323965Y-99003857D02*
X164276345Y-98956238D01*
D11*
%TO.C,J4*%
X106263296Y-86161000D02*
X106263296Y-111561000D01*
X106263296Y-111561000D02*
X108803296Y-111561000D01*
X108168296Y-86161000D02*
X106263296Y-86161000D01*
X108803296Y-86796000D02*
X108168296Y-86161000D01*
X108803296Y-111561000D02*
X108803296Y-86796000D01*
%TO.C,J6*%
X161012296Y-86161000D02*
X161012296Y-111561000D01*
X161012296Y-111561000D02*
X163552296Y-111561000D01*
X162917296Y-86161000D02*
X161012296Y-86161000D01*
X163552296Y-86796000D02*
X162917296Y-86161000D01*
X163552296Y-111561000D02*
X163552296Y-86796000D01*
%TO.C,J3*%
X99013296Y-86161000D02*
X99013296Y-111561000D01*
X99013296Y-111561000D02*
X101553296Y-111561000D01*
X100918296Y-86161000D02*
X99013296Y-86161000D01*
X101553296Y-86796000D02*
X100918296Y-86161000D01*
X101553296Y-111561000D02*
X101553296Y-86796000D01*
%TO.C,J5*%
X153762296Y-86161000D02*
X153762296Y-111561000D01*
X153762296Y-111561000D02*
X156302296Y-111561000D01*
X155667296Y-86161000D02*
X153762296Y-86161000D01*
X156302296Y-86796000D02*
X155667296Y-86161000D01*
X156302296Y-111561000D02*
X156302296Y-86796000D01*
%TD*%
M02*
