%TF.GenerationSoftware,KiCad,Pcbnew,9.0.1+1*%
%TF.CreationDate,2026-04-07T17:48:54+00:00*%
%TF.ProjectId,CSC202_LP_MSPM0G3507_2TERM_BREAKOUT,43534332-3032-45f4-9c50-5f4d53504d30,A*%
%TF.SameCoordinates,Original*%
%TF.FileFunction,AssemblyDrawing,Top*%
%FSLAX46Y46*%
G04 Gerber Fmt 4.6, Leading zero omitted, Abs format (unit mm)*
G04 Created by KiCad (PCBNEW 9.0.1+1) date 2026-04-07 17:48:54*
%MOMM*%
%LPD*%
G01*
G04 APERTURE LIST*
%ADD10C,0.150000*%
%ADD11C,0.100000*%
G04 APERTURE END LIST*
D10*
X178196827Y-112095819D02*
X178196827Y-112810104D01*
X178196827Y-112810104D02*
X178149208Y-112952961D01*
X178149208Y-112952961D02*
X178053970Y-113048200D01*
X178053970Y-113048200D02*
X177911113Y-113095819D01*
X177911113Y-113095819D02*
X177815875Y-113095819D01*
X178434923Y-113191057D02*
X179196827Y-113191057D01*
X179434923Y-113095819D02*
X179434923Y-112095819D01*
X179911113Y-113095819D02*
X179911113Y-112095819D01*
X179911113Y-112095819D02*
X180482541Y-113095819D01*
X180482541Y-113095819D02*
X180482541Y-112095819D01*
X181387303Y-112429152D02*
X181387303Y-113095819D01*
X181149208Y-112048200D02*
X180911113Y-112762485D01*
X180911113Y-112762485D02*
X181530160Y-112762485D01*
X182625398Y-112048200D02*
X181768256Y-113333914D01*
X183244446Y-112095819D02*
X183244446Y-112810104D01*
X183244446Y-112810104D02*
X183196827Y-112952961D01*
X183196827Y-112952961D02*
X183101589Y-113048200D01*
X183101589Y-113048200D02*
X182958732Y-113095819D01*
X182958732Y-113095819D02*
X182863494Y-113095819D01*
X183482542Y-113191057D02*
X184244446Y-113191057D01*
X184482542Y-113095819D02*
X184482542Y-112095819D01*
X184958732Y-113095819D02*
X184958732Y-112095819D01*
X184958732Y-112095819D02*
X185530160Y-113095819D01*
X185530160Y-113095819D02*
X185530160Y-112095819D01*
X185958732Y-112191057D02*
X186006351Y-112143438D01*
X186006351Y-112143438D02*
X186101589Y-112095819D01*
X186101589Y-112095819D02*
X186339684Y-112095819D01*
X186339684Y-112095819D02*
X186434922Y-112143438D01*
X186434922Y-112143438D02*
X186482541Y-112191057D01*
X186482541Y-112191057D02*
X186530160Y-112286295D01*
X186530160Y-112286295D02*
X186530160Y-112381533D01*
X186530160Y-112381533D02*
X186482541Y-112524390D01*
X186482541Y-112524390D02*
X185911113Y-113095819D01*
X185911113Y-113095819D02*
X186530160Y-113095819D01*
X181651646Y-99214333D02*
X182365931Y-99214333D01*
X182365931Y-99214333D02*
X182508788Y-99261952D01*
X182508788Y-99261952D02*
X182604027Y-99357190D01*
X182604027Y-99357190D02*
X182651646Y-99500047D01*
X182651646Y-99500047D02*
X182651646Y-99595285D01*
X181746884Y-98785761D02*
X181699265Y-98738142D01*
X181699265Y-98738142D02*
X181651646Y-98642904D01*
X181651646Y-98642904D02*
X181651646Y-98404809D01*
X181651646Y-98404809D02*
X181699265Y-98309571D01*
X181699265Y-98309571D02*
X181746884Y-98261952D01*
X181746884Y-98261952D02*
X181842122Y-98214333D01*
X181842122Y-98214333D02*
X181937360Y-98214333D01*
X181937360Y-98214333D02*
X182080217Y-98261952D01*
X182080217Y-98261952D02*
X182651646Y-98833380D01*
X182651646Y-98833380D02*
X182651646Y-98214333D01*
X135652827Y-112095819D02*
X135652827Y-112810104D01*
X135652827Y-112810104D02*
X135605208Y-112952961D01*
X135605208Y-112952961D02*
X135509970Y-113048200D01*
X135509970Y-113048200D02*
X135367113Y-113095819D01*
X135367113Y-113095819D02*
X135271875Y-113095819D01*
X135890923Y-113191057D02*
X136652827Y-113191057D01*
X136890923Y-113095819D02*
X136890923Y-112095819D01*
X137367113Y-113095819D02*
X137367113Y-112095819D01*
X137367113Y-112095819D02*
X137938541Y-113095819D01*
X137938541Y-113095819D02*
X137938541Y-112095819D01*
X138938541Y-113095819D02*
X138367113Y-113095819D01*
X138652827Y-113095819D02*
X138652827Y-112095819D01*
X138652827Y-112095819D02*
X138557589Y-112238676D01*
X138557589Y-112238676D02*
X138462351Y-112333914D01*
X138462351Y-112333914D02*
X138367113Y-112381533D01*
X140081398Y-112048200D02*
X139224256Y-113333914D01*
X140700446Y-112095819D02*
X140700446Y-112810104D01*
X140700446Y-112810104D02*
X140652827Y-112952961D01*
X140652827Y-112952961D02*
X140557589Y-113048200D01*
X140557589Y-113048200D02*
X140414732Y-113095819D01*
X140414732Y-113095819D02*
X140319494Y-113095819D01*
X140938542Y-113191057D02*
X141700446Y-113191057D01*
X141938542Y-113095819D02*
X141938542Y-112095819D01*
X142414732Y-113095819D02*
X142414732Y-112095819D01*
X142414732Y-112095819D02*
X142986160Y-113095819D01*
X142986160Y-113095819D02*
X142986160Y-112095819D01*
X143367113Y-112095819D02*
X143986160Y-112095819D01*
X143986160Y-112095819D02*
X143652827Y-112476771D01*
X143652827Y-112476771D02*
X143795684Y-112476771D01*
X143795684Y-112476771D02*
X143890922Y-112524390D01*
X143890922Y-112524390D02*
X143938541Y-112572009D01*
X143938541Y-112572009D02*
X143986160Y-112667247D01*
X143986160Y-112667247D02*
X143986160Y-112905342D01*
X143986160Y-112905342D02*
X143938541Y-113000580D01*
X143938541Y-113000580D02*
X143890922Y-113048200D01*
X143890922Y-113048200D02*
X143795684Y-113095819D01*
X143795684Y-113095819D02*
X143509970Y-113095819D01*
X143509970Y-113095819D02*
X143414732Y-113048200D01*
X143414732Y-113048200D02*
X143367113Y-113000580D01*
X139107646Y-99214333D02*
X139821931Y-99214333D01*
X139821931Y-99214333D02*
X139964788Y-99261952D01*
X139964788Y-99261952D02*
X140060027Y-99357190D01*
X140060027Y-99357190D02*
X140107646Y-99500047D01*
X140107646Y-99500047D02*
X140107646Y-99595285D01*
X140107646Y-98214333D02*
X140107646Y-98785761D01*
X140107646Y-98500047D02*
X139107646Y-98500047D01*
X139107646Y-98500047D02*
X139250503Y-98595285D01*
X139250503Y-98595285D02*
X139345741Y-98690523D01*
X139345741Y-98690523D02*
X139393360Y-98785761D01*
D11*
%TO.C,J2*%
X179656827Y-87451000D02*
X180926827Y-86181000D01*
X179656827Y-111581000D02*
X179656827Y-87451000D01*
X180926827Y-86181000D02*
X184736827Y-86181000D01*
X184736827Y-86181000D02*
X184736827Y-111581000D01*
X184736827Y-111581000D02*
X179656827Y-111581000D01*
%TO.C,J1*%
X137112827Y-87451000D02*
X138382827Y-86181000D01*
X137112827Y-111581000D02*
X137112827Y-87451000D01*
X138382827Y-86181000D02*
X142192827Y-86181000D01*
X142192827Y-86181000D02*
X142192827Y-111581000D01*
X142192827Y-111581000D02*
X137112827Y-111581000D01*
%TD*%
M02*
