M48
; DRILL file {KiCad 9.0.1+1} date 2026-03-05T21:14:33+0000
; FORMAT={-:-/ absolute / metric / decimal}
; #@! TF.CreationDate,2026-03-05T21:14:33+00:00
; #@! TF.GenerationSoftware,Kicad,Pcbnew,9.0.1+1
; #@! TF.FileFunction,MixedPlating,1,2
FMAT,2
METRIC
; #@! TA.AperFunction,Plated,PTH,ViaDrill
T1C0.300
; #@! TA.AperFunction,Plated,PTH,ViaDrill
T2C0.400
; #@! TA.AperFunction,Plated,PTH,ComponentDrill
T3C1.000
%
G90
G05
T1
X105.29Y-87.28
X105.29Y-89.847
X105.29Y-92.413
X105.29Y-94.98
X105.29Y-97.547
X105.29Y-100.113
X105.29Y-102.68
X105.29Y-105.247
X105.29Y-107.813
X105.29Y-110.38
X159.88Y-87.361
X159.88Y-89.928
X159.88Y-92.494
X159.88Y-95.061
X159.88Y-97.628
X159.88Y-100.194
X159.88Y-102.761
X159.88Y-105.328
X159.88Y-107.894
X159.88Y-110.461
T2
X91.36Y-89.28
X91.36Y-98.28
X91.36Y-101.28
X91.36Y-104.28
X91.36Y-107.28
X91.36Y-110.28
X91.36Y-113.28
X94.36Y-113.28
X97.36Y-83.28
X100.36Y-83.28
X112.36Y-113.28
X115.36Y-113.28
X118.36Y-113.28
X121.36Y-113.28
X124.36Y-113.28
X127.36Y-113.28
X130.36Y-113.28
X133.36Y-113.28
X136.36Y-83.28
X139.36Y-83.28
X142.36Y-83.28
X145.36Y-83.28
X145.36Y-101.28
X145.36Y-104.28
X145.36Y-107.28
X145.36Y-110.28
X145.36Y-113.28
X148.36Y-83.28
X148.36Y-113.28
X151.36Y-83.28
X151.36Y-113.28
X154.36Y-83.28
X157.36Y-83.28
X160.36Y-83.28
X163.36Y-83.28
X166.36Y-83.28
X166.36Y-86.28
X166.36Y-113.28
X169.36Y-83.28
X169.36Y-86.28
X169.36Y-113.28
X172.36Y-83.28
X172.36Y-86.28
X172.36Y-113.28
X175.36Y-83.28
X175.36Y-86.28
X175.36Y-113.28
X178.36Y-83.28
X178.36Y-86.28
X181.36Y-83.28
X187.36Y-86.28
X187.36Y-89.28
X187.36Y-92.28
X187.36Y-95.28
X187.36Y-98.28
X187.36Y-101.28
X187.36Y-104.28
X187.36Y-107.28
X187.36Y-110.28
T3
X100.283Y-87.431
X100.283Y-89.971
X100.283Y-92.511
X100.283Y-95.051
X100.283Y-97.591
X100.283Y-100.131
X100.283Y-102.671
X100.283Y-105.211
X100.283Y-107.751
X100.283Y-110.291
X107.533Y-87.431
X107.533Y-89.971
X107.533Y-92.511
X107.533Y-95.051
X107.533Y-97.591
X107.533Y-100.131
X107.533Y-102.671
X107.533Y-105.211
X107.533Y-107.751
X107.533Y-110.291
X138.383Y-87.451
X138.383Y-89.991
X138.383Y-92.531
X138.383Y-95.071
X138.383Y-97.611
X138.383Y-100.151
X138.383Y-102.691
X138.383Y-105.231
X138.383Y-107.771
X138.383Y-110.311
X140.923Y-87.451
X140.923Y-89.991
X140.923Y-92.531
X140.923Y-95.071
X140.923Y-97.611
X140.923Y-100.151
X140.923Y-102.691
X140.923Y-105.231
X140.923Y-107.771
X140.923Y-110.311
X155.032Y-87.431
X155.032Y-89.971
X155.032Y-92.511
X155.032Y-95.051
X155.032Y-97.591
X155.032Y-100.131
X155.032Y-102.671
X155.032Y-105.211
X155.032Y-107.751
X155.032Y-110.291
X162.282Y-87.431
X162.282Y-89.971
X162.282Y-92.511
X162.282Y-95.051
X162.282Y-97.591
X162.282Y-100.131
X162.282Y-102.671
X162.282Y-105.211
X162.282Y-107.751
X162.282Y-110.291
X180.927Y-87.451
X180.927Y-89.991
X180.927Y-92.531
X180.927Y-95.071
X180.927Y-97.611
X180.927Y-100.151
X180.927Y-102.691
X180.927Y-105.231
X180.927Y-107.771
X180.927Y-110.311
X183.467Y-87.451
X183.467Y-89.991
X183.467Y-92.531
X183.467Y-95.071
X183.467Y-97.611
X183.467Y-100.151
X183.467Y-102.691
X183.467Y-105.231
X183.467Y-107.771
X183.467Y-110.311
M30
